<svg xmlns="http://www.w3.org/2000/svg" width="16" height="16" viewBox="0 0 16 16"><path fill="currentColor" fill-rule="evenodd" d="M13 3H3a1 1 0 00-.51.14l5.516 5.517 5.512-5.512A1 1 0 0013 3M2 11.763V4.065l3.85 3.849zm.387 1.027c.17.132.382.21.613.21h10c.234 0 .449-.08.62-.215L9.455 8.622 8.36 9.718l-.354.353-.353-.353L6.556 8.62zm7.776-4.875L14 11.752V4.077zm4.73 4.73c.07-.202.107-.42.107-.645V4a2 2 0 00-2-2H3a2 2 0 00-2 2v8a2 2 0 002 2h10a2 2 0 001.892-1.351l.003-.002z" clip-rule="evenodd"/></svg>