<svg xmlns="http://www.w3.org/2000/svg" width="16" height="16" viewBox="0 0 16 16"><path fill="currentColor" fill-rule="evenodd" d="M6.197 4H3.5a.5.5 0 00-.5.5V5h4.131l-.518-.777A.5.5 0 006.197 4M2 4.5V12a2 2 0 002 2h8a2 2 0 002-2V7a2 2 0 00-2-2H8.333l-.888-1.332A1.5 1.5 0 006.197 3H3.5A1.5 1.5 0 002 4.5M7.798 6H12a1 1 0 011 1v5a1 1 0 01-1 1H4a1 1 0 01-1-1V6zm1.966 3.604a.5.5 0 01-.708 0L8.5 9.047V11.5a.5.5 0 01-1 0V9.039l-.565.565a.5.5 0 11-.707-.708l1.414-1.414.354-.353.353.353 1.415 1.414a.5.5 0 010 .708" clip-rule="evenodd"/></svg>