<svg xmlns="http://www.w3.org/2000/svg" width="20" height="20" viewBox="0 0 20 20"><path fill="currentColor" fill-rule="evenodd" d="M8.623 4.5H4a.5.5 0 00-.5.5v1h6.616l-1.11-1.321a.5.5 0 00-.383-.179M2 5v10.5A2.5 2.5 0 004.5 18h11a2.5 2.5 0 002.5-2.5v-7A2.5 2.5 0 0015.5 6h-3.426l-1.919-2.286A2 2 0 008.623 3H4a2 2 0 00-2 2m9.375 2.5H15.5a1 1 0 011 1v7a1 1 0 01-1 1h-11a1 1 0 01-1-1v-8zm.906 4.78a.75.75 0 01-1.061 0l-.47-.47v2.39a.75.75 0 01-1.5 0v-2.425l-.505.505a.75.75 0 01-1.06-1.06l1.767-1.768.53-.53.53.53 1.768 1.768a.75.75 0 010 1.06" clip-rule="evenodd"/></svg>