<svg xmlns="http://www.w3.org/2000/svg" width="12" height="12" viewBox="0 0 12 12"><g fill="none"><g clip-path="url(#svgID0)"><path fill="currentColor" fill-rule="evenodd" d="M7.759 1.697C7.002.3 4.998.3 4.24 1.697L.26 9.047C-.462 10.38.503 12 2.018 12h7.964c1.515 0 2.48-1.62 1.758-2.953zm-2.638.476a1 1 0 011.758 0l3.982 7.35A1 1 0 019.98 11H2.019a1 1 0 01-.879-1.476zM6 3.5a.5.5 0 01.5.5v3a.5.5 0 01-1 0V4a.5.5 0 01.5-.5M6.75 9a.75.75 0 11-1.5 0 .75.75 0 011.5 0" clip-rule="evenodd"/></g><defs><clipPath id="svgID0"><path fill="#fff" d="M0 0h12v12H0z"/></clipPath></defs></g></svg>