<svg xmlns="http://www.w3.org/2000/svg" width="12" height="12" viewBox="0 0 12 12"><g fill="none"><g clip-path="url(#svgID0)"><path fill="currentColor" fill-rule="evenodd" d="M4 7.293 2.908 8.385a3.894 3.894 0 01.331-5.13c.33-.329.898-.656 1.668-.936a13 13 0 012.472-.6c.852-.125 1.651-.168 2.262-.139.307.015.54.046.696.083.037.157.068.39.083.696.029.61-.014 1.41-.139 2.262-.124.85-.326 1.718-.6 2.472-.28.77-.607 1.339-.936 1.668a3.894 3.894 0 01-5.13.331L4.707 8h2.671a.5.5 0 000-1H5.707l2.035-2.035a.5.5 0 00-.707-.707L5 6.293V4.91a.5.5 0 00-1 0zM2.532 2.548a4.894 4.894 0 00-.336 6.549L.964 10.328a.5.5 0 10.708.708l1.231-1.232a4.894 4.894 0 006.549-.336c1.91-1.91 2.397-7.78 1.628-8.548-.769-.77-6.637-.283-8.548 1.628" clip-rule="evenodd"/></g><defs><clipPath id="svgID0"><path fill="#fff" d="M0 0h12v12H0z"/></clipPath></defs></g></svg>