<svg xmlns="http://www.w3.org/2000/svg" width="12" height="12" viewBox="0 0 12 12"><g fill="none"><g clip-path="url(#svgID0)"><path fill="currentColor" fill-rule="evenodd" d="M7.54 6.643a1 1 0 00-.504.868v1.551H4.964v-1.55a1 1 0 00-.504-.869 3 3 0 01-.384-.26 3 3 0 01-1.148-2.358C2.928 2.365 4.292 1 6 1s3.072 1.365 3.072 3.025a3 3 0 01-1.148 2.358q-.181.144-.384.26M3.964 9.062v-1.55a4 4 0 01-.51-.345 4 4 0 01-1.526-3.142C1.928 1.802 3.75 0 6 0s4.072 1.802 4.072 4.025a4 4 0 01-1.527 3.142q-.24.19-.509.344v1.551a1 1 0 01-1 1H4.964a1 1 0 01-1-1m.764 2.01a.5.5 0 000 1h2.545a.5.5 0 100-1z" clip-rule="evenodd"/></g><defs><clipPath id="svgID0"><path fill="#fff" d="M0 0h12v12H0z"/></clipPath></defs></g></svg>