<svg xmlns="http://www.w3.org/2000/svg" width="24" height="24" viewBox="0 0 24 24"><path fill="currentColor" fill-rule="evenodd" d="M5.5 5.5v13a1 1 0 11-2 0v-13a1 1 0 012 0M2 5.5a2.5 2.5 0 015 0v13a2.5 2.5 0 01-5 0zm8.041.25a.75.75 0 01.75-.75H21.23a.75.75 0 010 1.5H10.791a.75.75 0 01-.75-.75m0 6a.75.75 0 01.75-.75H21.23a.75.75 0 010 1.5H10.791a.75.75 0 01-.75-.75m.75-3.75a.75.75 0 000 1.5h5.974a.75.75 0 000-1.5zm-.75 6.75a.75.75 0 01.75-.75h5.974a.75.75 0 010 1.5h-5.974a.75.75 0 01-.75-.75" clip-rule="evenodd"/></svg>