<svg xmlns="http://www.w3.org/2000/svg" width="20" height="20" viewBox="0 0 20 20"><path fill="currentColor" fill-rule="evenodd" d="M5.5 4.5v11a1 1 0 11-2 0v-11a1 1 0 012 0M2 4.5a2.5 2.5 0 015 0v11a2.5 2.5 0 01-5 0zm7.04-.75A.75.75 0 019.79 3h8.439a.75.75 0 010 1.5H9.79a.75.75 0 01-.75-.75m0 6A.75.75 0 019.79 9h8.439a.75.75 0 010 1.5H9.79a.75.75 0 01-.75-.75M9.79 6a.75.75 0 100 1.5h5.642a.75.75 0 000-1.5zm-.75 6.75a.75.75 0 01.75-.75h5.642a.75.75 0 010 1.5H9.791a.75.75 0 01-.75-.75" clip-rule="evenodd"/></svg>