<svg xmlns="http://www.w3.org/2000/svg" width="32" height="32" viewBox="0 0 32 32"><path fill="currentColor" fill-rule="evenodd" d="M5 16v7a4 4 0 004 4h7v-2H9a2 2 0 01-2-2v-7zm11-9h7a2 2 0 012 2v7h2V9a4 4 0 00-4-4h-7zm11.792 12.735a1 1 0 010 1.414l-4.507 4.507-.707.707-.707-.707-2.345-2.346a1 1 0 011.414-1.414l1.638 1.638 3.8-3.8a1 1 0 011.414 0M6.182 6.182a1 1 0 011.414 0L9.364 7.95l1.768-1.768a1 1 0 111.414 1.414l-1.768 1.768 1.768 1.768a1 1 0 11-1.414 1.414l-1.768-1.768-1.768 1.768a1 1 0 11-1.414-1.414L7.95 9.364 6.182 7.596a1 1 0 010-1.414" clip-rule="evenodd"/></svg>