<svg xmlns="http://www.w3.org/2000/svg" width="20" height="20" viewBox="0 0 20 20"><path fill="currentColor" fill-rule="evenodd" d="M2 10v5a3 3 0 003 3h5.155v-1.5H5A1.5 1.5 0 013.5 15v-5zm8.155-6.5H15A1.5 1.5 0 0116.5 5v5H18V5a3 3 0 00-3-3h-4.845zm8.592 9.2a.75.75 0 010 1.06l-3.278 3.278-.53.53-.53-.53-1.706-1.706a.75.75 0 011.06-1.06l1.176 1.175 2.747-2.747a.75.75 0 011.06 0M2.999 2.844a.75.75 0 011.06 0l1.27 1.27 1.27-1.27a.75.75 0 111.06 1.06l-1.27 1.27 1.27 1.27a.75.75 0 01-1.06 1.06l-1.27-1.27-1.27 1.27A.75.75 0 113 6.444l1.27-1.27L3 3.904a.75.75 0 010-1.06" clip-rule="evenodd"/></svg>