<svg xmlns="http://www.w3.org/2000/svg" width="32" height="32" viewBox="0 0 32 32"><path fill="currentColor" fill-rule="evenodd" d="M24 13c0 2.667-1.498 6.267-3.54 9.328-.997 1.496-2.053 2.756-2.986 3.614-.468.43-.865.724-1.173.9a2 2 0 01-.301.144 2 2 0 01-.301-.145c-.308-.175-.705-.468-1.173-.899-.933-.858-1.99-2.118-2.987-3.614C9.5 19.267 8 15.667 8 13a8 8 0 1116 0m2 0c0 6.5-7 16-10 16S6 19.5 6 13C6 7.477 10.477 3 16 3s10 4.477 10 10m-8 0a2 2 0 11-4 0 2 2 0 014 0m2 0a4 4 0 11-8 0 4 4 0 018 0" clip-rule="evenodd"/></svg>