<svg xmlns="http://www.w3.org/2000/svg" width="12" height="12" viewBox="0 0 12 12"><path fill="currentColor" fill-rule="evenodd" d="M1 6v1.586l4.768-4.768a.5.5 0 01.707.707L1.147 8.854A.5.5 0 011 8.955V9.5a.5.5 0 00.5.5h.086l4.182-4.182a.5.5 0 11.707.707L3 10h1.595l.051-.06 1.122-1.122a.5.5 0 01.707.707L6 10h4.5a.5.5 0 00.5-.5v-7a.5.5 0 00-.5-.5H5zm.5 5h9A1.5 1.5 0 0012 9.5v-7A1.5 1.5 0 0010.5 1h-9A1.5 1.5 0 000 2.5v7A1.5 1.5 0 001.5 11m2.086-9L1 4.586V2.5a.5.5 0 01.5-.5z" clip-rule="evenodd"/></svg>