<svg xmlns="http://www.w3.org/2000/svg" width="24" height="24" viewBox="0 0 24 24"><path fill="currentColor" fill-rule="evenodd" d="M9.559 5.5h1.88L3.5 13.44v-1.881l.03-.029 6-6zm-2.12 0H5A1.5 1.5 0 003.5 7v2.44zm5.591.53a.75.75 0 00.22-.53H19A1.5 1.5 0 0120.5 7v10a1.5 1.5 0 01-1.5 1.5h-6.44l.47-.47a.75.75 0 10-1.06-1.06l-1.5 1.5-.029.03h-1.88l4.47-4.47a.75.75 0 10-1.061-1.06l-5.5 5.5-.029.03H5q-.202-.001-.389-.05l8.42-8.42a.75.75 0 10-1.061-1.06l-8.42 8.419A1.5 1.5 0 013.5 17v-1.441l.03-.029zM2 7a3 3 0 013-3h14a3 3 0 013 3v10a3 3 0 01-3 3H5a3 3 0 01-3-3z" clip-rule="evenodd"/></svg>