<svg xmlns="http://www.w3.org/2000/svg" width="20" height="20" viewBox="0 0 20 20"><path fill="currentColor" fill-rule="evenodd" d="M16.5 4.5h-5.803a.75.75 0 01-.174.788L2.5 13.31v1.19c0 .197.057.38.155.534l6.807-6.807a.75.75 0 011.061 1.06L4.311 15.5h1.878l3.273-3.273a.75.75 0 111.061 1.06L8.311 15.5H16.5a1 1 0 001-1v-9a1 1 0 00-1-1m-9.19 0h1.88L2.5 11.19V9.31zm-2.12 0H3.5a1 1 0 00-1 1v1.69zM1 8.993V5.5A2.5 2.5 0 013.5 3h13A2.5 2.5 0 0119 5.5v9a2.5 2.5 0 01-2.5 2.5h-13A2.5 2.5 0 011 14.5z" clip-rule="evenodd"/></svg>