<svg xmlns="http://www.w3.org/2000/svg" width="24" height="24" viewBox="0 0 24 24"><path fill="currentColor" fill-rule="evenodd" d="M12.75 2.75a.75.75 0 00-1.5 0v4.94L9.03 5.47a.75.75 0 00-1.06 1.06l3.535 3.536.53.53.53-.53 3.536-3.536a.75.75 0 10-1.06-1.06L12.75 7.76zM4 12a.75.75 0 01.75-.75h14.5a.75.75 0 010 1.5H4.75A.75.75 0 014 12m8.071 10a.75.75 0 01-.75-.75v-5.01l-2.29 2.29a.75.75 0 01-1.061-1.06l3.535-3.536.53-.53.53.53 3.536 3.536a.75.75 0 11-1.06 1.06l-2.22-2.22v4.94a.75.75 0 01-.75.75" clip-rule="evenodd"/></svg>