<svg xmlns="http://www.w3.org/2000/svg" width="16" height="16" viewBox="0 0 16 16"><path fill="currentColor" fill-rule="evenodd" d="M8.5 1.5a.5.5 0 00-1 0v3.343L6.054 3.396a.5.5 0 10-.708.708l2.299 2.298.353.353.354-.353 2.298-2.298a.5.5 0 00-.707-.708L8.5 4.84zM2 8a.5.5 0 01.5-.5h11a.5.5 0 010 1h-11A.5.5 0 012 8m5.996 7a.5.5 0 01-.5-.5v-3.339l-1.443 1.443a.5.5 0 01-.707-.708l2.298-2.298.354-.353.354.353 2.298 2.298a.5.5 0 01-.707.708l-1.447-1.447V14.5a.5.5 0 01-.5.5" clip-rule="evenodd"/></svg>