<svg xmlns="http://www.w3.org/2000/svg" width="12" height="12" viewBox="0 0 12 12"><g fill="none"><g clip-path="url(#svgID0)"><path fill="currentColor" fill-rule="evenodd" d="M2.917 1.917a1 1 0 00-1 1v1.378a.5.5 0 11-1 0V2.917a2 2 0 012-2h1.378a.5.5 0 110 1zm7.166 2.378V2.917a1 1 0 00-1-1H7.704a.5.5 0 110-1h1.38a2 2 0 012 2v1.378a.5.5 0 01-1 0m-1 5.788h-1.38a.5.5 0 100 1h1.38a2 2 0 002-2V7.704a.5.5 0 00-1 0v1.38a1 1 0 01-1 1m-7.166-1a1 1 0 001 1h1.378a.5.5 0 110 1H2.917a2 2 0 01-2-2v-1.38a.5.5 0 111 0zm4.08-2.46a.625.625 0 100-1.25.625.625 0 000 1.25" clip-rule="evenodd"/></g><defs><clipPath id="svgID0"><path fill="#fff" d="M0 0h12v12H0z"/></clipPath></defs></g></svg>