<svg xmlns="http://www.w3.org/2000/svg" width="24" height="24" viewBox="0 0 24 24"><path fill="currentColor" fill-rule="evenodd" d="M5.75 4.5c-.69 0-1.25.56-1.25 1.25v3.182a.75.75 0 11-1.5 0V5.75A2.75 2.75 0 015.75 3h3.182a.75.75 0 110 1.5zM19.5 8.932V5.75c0-.69-.56-1.25-1.25-1.25h-3.182a.75.75 0 110-1.5h3.182A2.75 2.75 0 0121 5.75v3.182a.75.75 0 01-1.5 0M18.25 19.5h-3.182a.75.75 0 100 1.5h3.182A2.75 2.75 0 0021 18.25v-3.182a.75.75 0 00-1.5 0v3.182c0 .69-.56 1.25-1.25 1.25M4.5 18.25c0 .69.56 1.25 1.25 1.25h3.182a.75.75 0 010 1.5H5.75A2.75 2.75 0 013 18.25v-3.182a.75.75 0 011.5 0zM12 13a1 1 0 100-2 1 1 0 000 2" clip-rule="evenodd"/></svg>