<svg xmlns="http://www.w3.org/2000/svg" width="16" height="16" viewBox="0 0 16 16"><path fill="currentColor" fill-rule="evenodd" d="M4.003 3.003a1 1 0 00-1 1v1.955a.5.5 0 01-1 0V4.003a2 2 0 012-2h1.954a.5.5 0 010 1zm8.999 2.955V4.003a1 1 0 00-1-1h-1.954a.5.5 0 110-1h1.954a2 2 0 012 2v1.955a.5.5 0 11-1 0m-1 7.044h-1.954a.5.5 0 000 1h1.954a2 2 0 002-2v-1.954a.5.5 0 10-1 0v1.954a1 1 0 01-1 1m-9-1a1 1 0 001 1h1.955a.5.5 0 010 1H4.003a2 2 0 01-2-2v-1.954a.5.5 0 011 0zM8 8.75a.75.75 0 100-1.5.75.75 0 000 1.5" clip-rule="evenodd"/></svg>