<svg xmlns="http://www.w3.org/2000/svg" width="16" height="16" viewBox="0 0 16 16"><path fill="currentColor" fill-rule="evenodd" d="M3.5 2h2a.5.5 0 01.5.5v11a.5.5 0 01-.5.5h-2a.5.5 0 01-.5-.5v-11a.5.5 0 01.5-.5M2 2.5A1.5 1.5 0 013.5 1h2A1.5 1.5 0 017 2.5v11A1.5 1.5 0 015.5 15h-2A1.5 1.5 0 012 13.5zm8.5-.5h2a.5.5 0 01.5.5v11a.5.5 0 01-.5.5h-2a.5.5 0 01-.5-.5v-11a.5.5 0 01.5-.5M9 2.5A1.5 1.5 0 0110.5 1h2A1.5 1.5 0 0114 2.5v11a1.5 1.5 0 01-1.5 1.5h-2A1.5 1.5 0 019 13.5z" clip-rule="evenodd"/></svg>