<svg xmlns="http://www.w3.org/2000/svg" width="20" height="20" viewBox="0 0 20 20"><path fill="currentColor" fill-rule="evenodd" d="M11.1 2.5H8.9a1 1 0 00-1 1V5h4.2V3.5a1 1 0 00-1-1m-4.7 1V5H3.5A2.5 2.5 0 001 7.5v8A2.5 2.5 0 003.5 18h13a2.5 2.5 0 002.5-2.5v-8A2.5 2.5 0 0016.5 5h-2.9V3.5A2.5 2.5 0 0011.1 1H8.9a2.5 2.5 0 00-2.5 2.5m5.7 3h4.4a1 1 0 011 1v8a1 1 0 01-1 1h-13a1 1 0 01-1-1v-8a1 1 0 011-1zM6.75 8H6v1.997a.75.75 0 001.5 0V9.5h1.75v4H8.5a.75.75 0 000 1.5h3a.75.75 0 000-1.5h-.75v-4h1.75v.497a.75.75 0 001.5 0V8z" clip-rule="evenodd"/></svg>