<svg xmlns="http://www.w3.org/2000/svg" width="24" height="24" viewBox="0 0 24 24"><path fill="currentColor" fill-rule="evenodd" d="M13 4.5h-2A1.5 1.5 0 009.5 6v1h5V6A1.5 1.5 0 0013 4.5M8 6v1H5a3 3 0 00-3 3v8a3 3 0 003 3h14a3 3 0 003-3v-8a3 3 0 00-3-3h-3V6a3 3 0 00-3-3h-2a3 3 0 00-3 3m6.5 2.5H19a1.5 1.5 0 011.5 1.5v8a1.5 1.5 0 01-1.5 1.5H5A1.5 1.5 0 013.5 18v-8A1.5 1.5 0 015 8.5zM8.25 10H7.5v2.247a.75.75 0 001.5 0V11.5h2.25v5H10a.75.75 0 000 1.5h4a.75.75 0 000-1.5h-1.25v-5H15v.747a.75.75 0 001.5 0V10z" clip-rule="evenodd"/></svg>