<svg xmlns="http://www.w3.org/2000/svg" width="12" height="12" viewBox="0 0 12 12"><path fill="currentColor" fill-rule="evenodd" d="M6.5 1h-1a.5.5 0 00-.5.5V3h2V1.5a.5.5 0 00-.5-.5M4 1.5V3H1.5A1.5 1.5 0 000 4.5v5A1.5 1.5 0 001.5 11h9A1.5 1.5 0 0012 9.5v-5A1.5 1.5 0 0010.5 3H8V1.5A1.5 1.5 0 006.5 0h-1A1.5 1.5 0 004 1.5M7 4h3.5a.5.5 0 01.5.5v5a.5.5 0 01-.5.5h-9a.5.5 0 01-.5-.5v-5a.5.5 0 01.5-.5zM4 5h-.5v1.5a.5.5 0 001 0V6h1v2H5a.5.5 0 000 1h2a.5.5 0 000-1h-.5V6h1v.5a.5.5 0 001 0V5z" clip-rule="evenodd"/></svg>