<svg xmlns="http://www.w3.org/2000/svg" width="12" height="12" viewBox="0 0 12 12"><g fill="none"><g clip-path="url(#svgID0)"><path fill="currentColor" fill-rule="evenodd" d="m10.328 3.157-.707.707L8.207 2.45l.707-.707a1 1 0 111.414 1.414M7.5 1.743l.707-.707a2 2 0 112.829 2.828l-.708.707 1.061 1.06a1.5 1.5 0 010 2.122l-1.06 1.06a1 1 0 01-1.415 0l-2.828 2.83a1 1 0 01-1.414 0L.429 7.398a1 1 0 010-1.414l2.828-2.828a1 1 0 010-1.414L4.318.682a1.5 1.5 0 012.121 0zm2.121 3.535-.707-.707L7.5 3.157l-.707-.707-1.06-1.06a.5.5 0 00-.708 0l-1.06 1.06.707.707 4.242 4.242.707.708 1.061-1.061a.5.5 0 000-.707zM1.136 6.692l2.828-2.828 4.243 4.243-2.828 2.828-.707-.707 1.11-1.111a.5.5 0 10-.706-.707L3.964 9.52 2.55 8.108l.707-.708a.5.5 0 10-.707-.707l-.707.707z" clip-rule="evenodd"/></g><defs><clipPath id="svgID0"><path fill="#fff" d="M0 0h12v12H0z"/></clipPath></defs></g></svg>