<svg xmlns="http://www.w3.org/2000/svg" width="32" height="32" viewBox="0 0 32 32"><path fill="currentColor" fill-rule="evenodd" d="M8.93 13.343a1 1 0 010-1.415l6.363-6.363.707-.708.707.708.018.018.019.018.018.018.018.019.019.018.018.018.018.018.018.019.019.018.018.018.018.018.018.019.019.018.018.018.018.019.019.018.018.018.018.018.018.019.019.018.018.018.018.018.018.019.019.018.018.018.018.019.019.018.018.018.018.018.019.019.018.018.018.018.018.019.019.018.018.018.018.018.018.019.019.018.018.018.018.018.018.019.019.018.018.018.018.018.018.019.019.018.018.018.018.018.018.018.018.019.019.018.018.018.018.018.018.019.018.018.019.018.018.018.018.018.018.018.018.019.018.018.019.018.018.018.018.018.018.018.018.018.018.019.018.018.019.018.018.018.018.018.018.018.018.018.018.018.018.018.018.018.018.018.018.018.018.018.018.018.018.018.018.018.018.018.018.018.018.018.018.018.018.018.018.018.018.018.018.018.018.018.018.018.018.018.017.018.018.018.018.017.018.018.018.018.018.018.017.018.018.017.018.018.018.018.017.018.018.018.018.017.018.018.017.018.018.017.018.018.018.018.017.017.018.018.017.018.018.017.018.018.017.017.018.018.017.018.018.017.017.018.018.017.017.018.018.017.017.018.018.017.017.017.018.018.017.017.017.018.018.017.017.017.017.018.018.017.017.017.017.018.018.017.017.017.017.017.017.017.017.018.018.017.017.017.017.017.017.017.017.017.017.017.017.017.017.018.017.017.017.017.017.017.017.016.017.017.017.017.017.017.017.017.017.017.017.017.016.017.017.016.017.017.017.017.017.017.016.016.017.017.016.017.017.016.017.017.016.017.017.016.017.017.016.016.017.017.016.016.017.017.016.016.016.017.017.016.016.016.016.017.017.016.016.016.016.017.017.016.016.016.016.016.016.016.016.017.016.016.017.016.016.016.016.016.016.016.016.016.016.016.015.016.016.016.016.016.016.015.016.016.016.016.016.016.015.016.016.015.016.016.015.016.016.015.016.016.015.015.016.016.015.015.016.016.015.015.016.016.015.015.015.016.016.015.015.015.015.016.016.015.015.015.015.015.015.015.015.016.015.015.015.015.015.015.015.015.015.015.015.015.015.015.015.014.015.015.015.015.015.015.014.015.015.014.015.015.014.015.015.014.015.015.014.014.015.015.014.014.015.015.014.014.014.015.015.014.014.014.014.015.015.014.014.014.014.014.014.014.014.014.014.015.014.014.014.014.014.013.014.014.014.014.014.014.014.014.014.014.013.014.014.013.014.014.013.013.014.014.013.014.014.013.013.014.014.013.013.013.013.014.014.013.013.013.013.014.014.013.013.013.013.013.013.013.013.013.013.013.013.013.013.013.013.013.013.013.012.013.013.012.013.013.013.013.012.012.013.013.012.013.013.012.012.013.013.012.012.012.012.013.013.012.012.012.012.012.012.013.013.012.012.012.012.012.012.012.012.012.012.012.011.012.012.012.012.011.012.012.011.012.012.011.012.012.011.012.012.011.011.012.012.011.011.011.011.012.012.011.011.011.011.011.011.012.011.01.011.012.012.01.01.012.011.01.011.011.011.011.01.011.011.01.011.011.01.011.011.01.011.011.01.01.01.011.011.01.01.01.01.011.011.01.01.01.01.01.01.01.01.01.01.01.01.01.01.01.01.01.01.01.01.01.01.01.01.01.009.009.01.01.009.009.01.01.009.009.009.009.01.01.008.008.01.01.009.009.009.009.009.009.009.009.009.009.008.009.01.008.008.01.009.008.008.008.009.009.008.008.009.009.008.008.009.009.008.008.008.008.008.008.009.009.008.008.008.008.008.008.008.008.007.008.008.007.008.008.008.008.007.007.008.008.007.008.008.007.007.007.008.008.007.007.007.007.007.008.007.007.008.007.006.007.007.007.007.007.007.006.007.007.007.007.006.006.007.007.006.007.007.006.006.006.007.007.006.006.006.006.006.007.006.006.006.006.006.006.006.006.006.005.006.006.006.006.005.006.006.005.006.006.005.005.006.006.005.005.005.005.006.006.005.005.005.005.005.005.005.005.005.005.005.005.005.005.004.005.005.004.005.005.004.004.005.005.004.004.004.005.005.004.004.004.004.004.004.004.004.004.004.004.004.004.004.004.004.004.003.004.004.003.003.004.004.003.003.004.004.003.003.003.003.003.003.004.003.003.003.003.003.003.003.003.003.002.003.003.003.003.002.003.003.002.002.002.003.003.002.002.002.002.002.003.003.002.002.002.002.002.002.002.001.002.002.001.002.002.002.002.001.001.002.002.001.001.001.002h.002v.002l.002.001.001.001.001.001v.001l.002.001.001.002h.001v.001h.001v.001h.001l-.707.708-.707.707v-.001h-.001v-.001h-.001v-.001l-.002-.001-.001-.002h-.001l-.001-.002h-.001l-.001-.002h-.002v-.002l-.002-.002-.002-.001-.001-.002-.002-.001-.001-.002-.002-.001-.002-.002-.002-.002-.002-.002-.002-.002-.002-.002-.002-.002-.002-.002-.002-.003-.003-.002-.002-.002-.002-.003-.003-.002-.003-.003-.002-.003-.003-.002-.003-.003-.003-.003-.003-.003-.003-.003-.003-.003-.003-.003-.003-.003-.003-.004-.004-.003-.003-.004-.004-.003-.003-.004-.004-.003-.004-.004-.003-.004-.004-.004-.004-.004-.004-.003-.004-.005-.004-.004-.004-.004-.005-.004-.004-.004-.004-.005-.005-.004-.004-.004-.005-.005-.004-.005-.005-.004-.005-.005-.005-.005-.004-.005-.005-.005-.005-.005-.005-.005-.005-.005-.006-.005-.005-.005-.005-.006-.006-.005-.005-.005-.005-.006-.006-.005-.006-.006-.005-.006-.006-.006-.006-.005-.006-.006-.006-.006-.006-.006-.006-.006-.006-.006-.006-.006-.006-.007-.007-.006-.006-.006-.006-.007-.007-.006-.006-.007-.007-.006-.007-.007-.006-.007-.007-.006-.007-.007-.007-.007-.007-.007-.007-.007-.007-.007-.007-.007-.007-.008-.007-.007-.008-.007-.007-.007-.007-.008-.008-.007-.007-.008-.008-.007-.008-.008-.007-.008-.008-.007-.008-.008-.008-.008-.008-.008-.008-.008-.008-.008-.008-.008-.008-.008-.008-.008-.008-.009-.009-.008-.008-.008-.008-.009-.009-.008-.008-.009-.009-.008-.009-.009-.008-.009-.01-.008-.008-.01-.009-.008-.009-.009-.009-.009-.009-.009-.009-.009-.009-.01-.009-.008-.01-.01-.008-.009-.01-.01-.01-.008-.009-.01-.009-.01-.01-.009-.01-.01-.009-.01-.01-.009-.01-.01-.009-.01-.01-.01-.01-.01-.01-.009-.01-.01-.01-.01-.01-.01-.01-.01-.01-.01-.01-.01-.01-.011-.011-.01-.01-.01-.01-.011-.011-.01-.01-.011-.011-.01-.011-.011-.01-.011-.011-.01-.011-.011-.011-.011-.01-.011-.012-.011-.01-.011-.012-.011-.01-.011-.012-.011-.011-.011-.011-.012-.012-.01-.01-.012-.012-.011-.011-.012-.012-.011-.011-.012-.012-.011-.011-.012-.012-.011-.012-.012-.011-.012-.012-.011-.012-.012-.012-.012-.012-.012-.012-.012-.012-.012-.012-.012-.012-.012-.012-.012-.012-.012-.012-.012-.012-.013-.012-.012-.013-.012-.012-.012-.012-.013-.013-.012-.012-.013-.013-.012-.012-.013-.013-.012-.013-.013-.012-.013-.013-.012-.013-.013-.013-.013-.012-.013-.013-.013-.013-.013-.013-.013-.013-.013-.013-.013-.013-.013-.014-.013-.013-.013-.013-.013-.013-.013-.013-.014-.014-.013-.013-.013-.013-.014-.014-.013-.013-.014-.014-.013-.013-.014-.014-.013-.014-.014-.013-.014-.014-.013-.014-.014-.014-.014-.013-.014-.014-.014-.014-.013-.014-.014-.014-.014-.014-.014-.014-.014-.014-.014-.014-.014-.014-.015-.014-.014-.015-.014-.014-.014-.014-.014-.014-.015-.015-.014-.014-.014-.015-.015-.014-.014-.015-.015-.014-.014-.015-.015-.014-.014-.015-.015-.014-.015-.015-.014-.015-.015-.015-.015-.014-.015-.015-.014-.015-.015-.015-.015-.015-.015-.015-.015-.015-.015-.015-.015-.015-.015-.015-.015-.015-.015-.015-.015-.015-.016-.015-.015-.016-.015-.015-.015-.015-.016-.015-.015-.016-.015-.015-.015-.016-.016-.015-.015-.015-.016-.016-.015-.015-.016-.016-.015-.016-.016-.015-.016-.016-.015-.015-.016-.016-.015-.016-.016-.016-.016-.015-.016-.016-.016-.016-.015-.016-.016-.016-.016-.016-.016-.016-.016-.016-.016-.016-.016-.016-.016-.016-.016-.016-.016-.016-.016-.016-.016-.016-.016-.016-.017-.016-.016-.017-.016-.016-.016-.016-.016-.016-.017-.017-.016-.016-.016-.017-.017-.016-.016-.016-.017-.017-.016-.016-.017-.017-.016-.016-.016-.017-.017-.016-.017-.017-.016-.016-.017-.017-.016-.017-.017-.016-.017-.017-.016-.017-.017-.017-.017-.016-.017-.017-.016-.017-.017-.017-.017-.017-.017-.016-.017-.017-.017-.017-.016-.017-.017-.017-.017-.017-.017-.017-.017-.017-.017-.017-.017-.017-.017-.017-.017-.017-.017-.017-.018-.017-.017-.018-.017-.017-.017-.017-.017-.017-.017-.017-.018-.017-.017-.018-.017-.017-.017-.017-.018-.017-.017-.018-.017-.017-.017-.017-.018-.018-.017-.017-.018-.018-.017-.017-.017-.017-.018-.018-.017-.017-.018-.018-.017-.017-.018-.018-.017-.017-.018-.018-.017-.017-.018-.018-.017-.018-.018-.017-.018-.018-.017-.017-.018-.018-.017-.018-.018-.017-.018-.018-.017-.018-.018-.017-.018-.018-.018-.018-.017-.018-.018-.017-.018-.018-.018-.018-.017-.018-.018-.018-.018-.017-.018-.018-.018-.018-.017-.018-.018-.018-.018v-.001 14.627l4.656-4.657a1 1 0 011.414 1.415l-6.364 6.364-.707.707-.707-.707-.018-.019-.018-.018-.019-.018-.018-.018-.018-.019-.018-.018-.019-.018-.018-.018-.018-.019-.018-.018-.019-.018-.018-.019-.018-.018-.019-.018-.018-.018-.018-.019-.018-.018-.019-.018-.018-.019-.018-.018-.019-.018-.018-.018-.018-.019-.018-.018-.019-.018-.018-.019-.018-.018-.019-.018-.018-.018-.018-.019-.018-.018-.019-.018-.018-.018-.018-.019-.018-.018-.019-.018-.018-.018-.018-.019-.018-.018-.019-.018-.018-.018-.018-.019-.018-.018-.019-.018-.018-.018-.018-.019-.018-.018-.019-.018-.018-.018-.018-.019-.018-.018-.018-.018-.019-.018-.018-.018-.018-.019-.018-.018-.019-.018-.018-.018-.018-.018-.018-.018-.018-.019-.018-.018-.018-.018-.019-.018-.018-.018-.018-.018-.018-.018-.018-.019-.018-.018-.018-.018-.018-.018-.018-.018-.018-.018-.019-.018-.018-.018-.018-.018-.018-.018-.018-.018-.018-.018-.018-.018-.018-.018-.018-.018-.018-.018-.018-.018-.018-.018-.018-.018-.018-.018-.018-.018-.018-.018-.018-.018-.017-.018-.018-.018-.018-.018-.018-.017-.018-.018-.018-.018-.018-.018-.017-.018-.018-.018-.018-.018-.018-.017-.018-.018-.017-.018-.018-.018-.018-.017-.018-.018-.017-.018-.018-.018-.018-.017-.017-.018-.018-.018-.018-.017-.017-.018-.018-.017-.018-.018-.017-.018-.018-.017-.017-.018-.018-.017-.018-.018-.017-.017-.018-.018-.017-.018-.017-.017-.018-.017-.017-.018-.018-.017-.017-.018-.018-.017-.017-.018-.017-.017-.018-.017-.017-.017-.017-.018-.018-.017-.017-.017-.017-.018-.017-.017-.018-.017-.017-.017-.017-.018-.017-.017-.017-.017-.018-.017-.017-.017-.017-.017-.017-.017-.017-.017-.017-.017-.017-.017-.017-.017-.017-.017-.017-.017-.017-.017-.017-.017-.017-.017-.016-.017-.017-.017-.017-.017-.017-.017-.017-.016-.017-.017-.016-.017-.017-.017-.017-.016-.017-.017-.016-.017-.017-.016-.016-.017-.017-.017-.017-.016-.016-.017-.017-.016-.016-.017-.017-.016-.016-.017-.017-.016-.016-.017-.016-.016-.017-.016-.016-.017-.016-.016-.017-.016-.016-.016-.016-.017-.016-.016-.017-.016-.016-.016-.016-.016-.016-.017-.016-.016-.016-.016-.016-.016-.016-.016-.016-.016-.016-.016-.016-.016-.016-.016-.016-.015-.016-.016-.016-.016-.015-.016-.016-.016-.016-.015-.016-.016-.015-.016-.016-.015-.016-.016-.015-.016-.016-.015-.015-.016-.016-.015-.015-.016-.016-.015-.015-.016-.016-.015-.015-.015-.015-.016-.016-.015-.015-.016-.015-.015-.015-.015-.016-.015-.015-.015-.015-.015-.015-.015-.015-.016-.015-.015-.015-.015-.015-.015-.015-.014-.015-.015-.015-.015-.015-.015-.014-.015-.015-.015-.015-.015-.015-.014-.014-.015-.015-.015-.015-.014-.014-.015-.015-.014-.014-.015-.015-.014-.014-.015-.015-.014-.014-.015-.014-.014-.015-.014-.014-.015-.014-.014-.014-.014-.015-.014-.014-.014-.014-.014-.014-.014-.014-.014-.014-.014-.014-.014-.014-.014L10.86 22l-.014-.014-.013-.014-.014-.014-.014-.013-.014-.014-.013-.014-.014-.013-.013-.014-.014-.013-.014-.014-.013-.014-.013-.013-.014-.013-.013-.014-.014-.013-.013-.013-.013-.014-.013-.013-.013-.013-.014-.013-.013-.013-.013-.013-.013-.013-.013-.013-.013-.013-.012-.013-.013-.013-.013-.012-.013-.013-.013-.013-.012-.013-.013-.012-.012-.013-.013-.012-.012-.013-.013-.013-.012-.012-.013-.012-.012-.013-.012-.012-.013-.012-.012-.012-.012-.013-.012-.012-.012-.012-.012-.012-.012-.012-.012-.012-.012-.012-.012-.012-.012-.011-.012-.012-.011-.012-.012-.012-.012-.011-.011-.012-.012-.012-.011-.011-.012-.012-.011-.01-.012-.012-.011-.012-.011-.01-.012-.012-.01-.011-.012-.012-.011-.01-.011-.012-.011-.01-.011-.012-.011-.01-.01-.011-.012-.011-.01-.01-.011-.012-.01-.01-.011-.011-.011-.01-.01-.011-.011-.01-.01-.011-.01-.01-.011-.01-.01-.011-.01-.01-.01-.01-.011-.01-.01-.01-.01-.01-.01-.01-.01-.01-.01-.01-.01-.01-.01-.01-.01-.01-.009-.01-.01-.01-.01-.009-.009-.01-.01-.009-.009-.01-.01-.009-.008-.009-.01-.01-.009-.008-.01-.01-.008-.009-.01-.009-.008-.009-.01-.009-.008-.009-.009-.009-.009-.008-.008-.009-.01-.009-.008-.008-.008-.009-.009-.008-.008-.009-.009-.008-.008-.009-.008-.008-.009-.008-.008-.008-.008-.009-.008-.008-.008-.008-.008-.008-.008-.008-.008-.008-.008-.007-.008-.008-.007-.008-.008-.007-.007-.008-.008-.007-.007-.008-.008-.007-.007-.008-.007-.007-.008-.007-.007-.007-.007-.008-.007-.007-.007-.007-.007-.006-.007-.007-.007-.007-.007-.007-.006-.007-.007-.006-.006-.007-.007-.006-.006-.007-.007-.006-.006-.007-.007-.006-.006-.006-.006-.006-.006-.006-.006-.007-.006-.006-.006-.006-.006-.005-.006-.006-.005-.006-.006-.006-.006-.005-.005-.006-.006-.005-.005-.006-.006-.005-.005-.005-.005-.006-.005-.005-.005-.005-.006-.005-.005-.005-.004-.005-.005-.005-.005-.005-.005-.004-.005-.005-.004-.005-.005-.004-.004-.005-.005-.004-.004-.004-.004-.005-.004-.004-.005-.004-.004-.004-.004-.004-.004-.004-.004-.004-.003-.004-.004-.004-.004-.003-.003-.004-.004-.004-.004-.003-.003-.003-.003-.004-.004-.003-.003-.003L9 20.14l-.003-.004-.003-.003-.003-.003-.003-.003-.003-.002-.003-.003-.002-.003-.003-.002-.002-.003-.003-.002-.002-.003-.003-.002-.002-.002-.002-.003-.002-.002-.002-.002-.002-.002-.002-.002-.002-.002-.002-.001-.002-.002-.001-.002-.002-.001-.001-.002-.002-.001-.001-.002H8.94l-.001-.002-.002-.001v-.001l-.002-.001v-.001h-.001l-.001-.002-.002-.001v-.001H8.93v-.001l.706-.708.707-.707v.001h.001l.001.001.001.001.001.001.002.002.002.002.002.002.001.001.001.001.002.002.001.001.002.002.001.001.002.002.001.002.002.001.002.002.002.002.002.002.002.002.002.002.002.002.003.003.002.002.002.002.003.003.002.002.003.003.003.003.002.003.003.002.003.003.003.003.003.003.003.003.003.003.004.004.003.003.003.003.004.004.003.003.004.004.003.003.004.004.004.004.004.004.004.004.004.004.003.004.005.004.004.004.004.004.004.004.005.005.004.004.004.005.005.004.005.005.004.004.005.005.005.005.005.005.005.005.005.005.005.005.005.005.005.005.005.005.006.006.005.005.005.005.006.006.005.006.006.005.006.006.006.006.005.005.006.006.006.006.006.006.006.006.006.006.007.006.006.007.006.006.006.006.007.007.006.006.007.007.006.006.007.007.007.007.007.006.006.007.007.007.007.007.007.007.007.007.007.007.008.008.007.007.007.007.007.008.008.007.007.007.008.008.007.007.008.008.008.008.008.008.007.007.008.008.008.008.008.008.008.008.008.008.008.008.009.008.008.009.008.008.008.009.009.008.008.008.009.009.008.009.009.008.009.009.008.009.01.008.008.01.009.008.009.009.009.01.009.008.01.01.008.008.01.01.009.009.01.01.008.009.01.009.01.01.009.009.01.01.01.01.009.009.01.01.01.01.01.01.01.01.009.01.01.01.01.01.01.01.01.01.01.01.01.01.011.01.01.01.01.01.011.011.01.01.011.011.01.01.011.011.011.011.01.01.011.012.011.01.011.011.011.011.011.011.011.011.011.011.011.011.011.012.012.01.01.012.012.011.011.011.012.012.011.011.012.012.011.011.012.012.011.012.012.011.012.012.011.012.012.011.012.012.012.012.012.012.012.012.012.012.012.012.012.012.012.012.012.012.013.013.012.012.012.012.012.012.013.013.012.012.013.013.012.012.013.013.012.012.013.013.013.013.012.013.013.012.013.013.013.013.013.013.013.013.013.013.013.013.013.013.013.013.013.013.013.013.013.013.014.013.013.014.013.013.013.014.014.013.013.013.014.014.013.013.014.014.013.014.014.013.014.014.013.013.014.014.014.014.014.014.014.014.013.014.014.013.014.014.014.014.014.014.014.015.014.014.015.014.014.014.014.014.014.014.014.015.015.014.014.014.014.015.015.014.014.015.015.014.014.015.015.014.014.015.015.014.015.015.014.015.015.014.015.015.015.015.014.015.015.014.015.015.015.015.015.015.015.015.015.015.015.015.015.015.015.015.015.015.016.016.015.015.015.015.015.015.016.016.015.015.015.015.016.016.015.015.015.015.016.016.015.015.016.016.015.015.016.016.016.016.015.015.016.016.016.016.015.015.016.016.016.016.016.016.015.015.016.016.016.016.016.016.016.016.016.016.016.016.016.016.016.016.016.016.016.016.016.016.016.017.017.016.016.016.016.016.016.016.016.017.017.016.016.016.017.017.016.016.016.016.017.017.016.016.017.017.016.016.017.017.016.016.017.017.016.016.017.017.016.017.017.016.017.017.016.017.017.016.017.017.017.017.016.017.017.016.017.017.017.017.017.017.017.017.016.017.017.017.017.016.017.017.017.017.017.017.017.017.017.017.017.017.018.018.017.017.017.017.017.017.017.017.017.017.017.017.018.018.017.017.017.017.017.017.018.018.017.017.017.017.018.018.017.017.017.017.018.018.017.017.017.018.018.017.017.017.018.018.017.017.018.018.017.017.018.018.017.017.018.018.017.017.018.018.018.018.017.017.018.018.018.017.017.018.018.018.018.018.017.017.018.018.018.018.017.017.018.018.018.018.018.018.017.017.018.018.018.018.018.018.018.018.018.017.017.018.018.018.001.001V8.686l-4.657 4.657a1 1 0 01-1.414 0m.706 6.02-.707.708a1 1 0 011.414-1.415zm12.728-6.727.707-.707a1 1 0 01-1.414 1.414z" clip-rule="evenodd"/></svg>