<svg xmlns="http://www.w3.org/2000/svg" width="12" height="12" viewBox="0 0 12 12"><path fill="currentColor" fill-rule="evenodd" d="M9.707.377a1 1 0 00-1.414 0L6.879 1.79a1 1 0 00-.16.209H4.732A2 2 0 102 4.732V7a1 1 0 00-1 1v2a1 1 0 001 1h2a1 1 0 001-1V8a1 1 0 00-1-1H3V5a2 2 0 002-2h1.72q.065.11.159.205L8.293 4.62q.095.095.207.159v2.284a2 2 0 101 0V4.779q.112-.064.207-.16l1.414-1.414a1 1 0 000-1.414zM9 8a1 1 0 100 2 1 1 0 000-2m-5 2V8H2v2zM3 4a1 1 0 100-2 1 1 0 000 2m7.414-1.502L9 1.084 7.586 2.498 9 3.912z" clip-rule="evenodd"/></svg>