<svg xmlns="http://www.w3.org/2000/svg" width="32" height="32" viewBox="0 0 32 32"><path fill="currentColor" fill-rule="evenodd" d="M25.672 9 22 5.33 18.328 9 22 12.672zm-2.258-5.086a2 2 0 00-2.828 0l-3.672 3.672a2 2 0 00-.318.414H13.9A5.002 5.002 0 004 9a5 5 0 004 4.9V18H6a2 2 0 00-2 2v6a2 2 0 002 2h6a2 2 0 002-2v-6a2 2 0 00-2-2h-2v-4.1a5.01 5.01 0 003.9-3.9h2.696q.128.224.318.414l3.672 3.672q.191.19.414.318V18.1a5.002 5.002 0 001 9.9 5 5 0 001-9.9v-3.696q.224-.128.414-.318l3.672-3.672a2 2 0 000-2.828zM12 9a3 3 0 10-6 0 3 3 0 006 0m0 17v-6H6v6zm10 0a3 3 0 100-6 3 3 0 000 6" clip-rule="evenodd"/></svg>