<svg xmlns="http://www.w3.org/2000/svg" width="16" height="16" viewBox="0 0 16 16"><path fill="currentColor" fill-rule="evenodd" d="M4 2h8a1 1 0 011 1v10.143a1 1 0 01-1 1H4a1 1 0 01-1-1V3a1 1 0 011-1M2 3a2 2 0 012-2h8a2 2 0 012 2v10.143a2 2 0 01-2 2H4a2 2 0 01-2-2zm3.429 1a.5.5 0 000 1h5.143a.5.5 0 000-1zm-.5 2.5a.5.5 0 01.5-.5h3.428a.5.5 0 010 1H5.43a.5.5 0 01-.5-.5m2.56 2.819-.348-.338-.348.338-1.69 1.64a.5.5 0 00.696.718l1.342-1.303 1.343 1.303.348.338.348-.338 1.691-1.64a.5.5 0 10-.696-.718L8.834 10.62z" clip-rule="evenodd"/></svg>