<svg xmlns="http://www.w3.org/2000/svg" width="20" height="20" viewBox="0 0 20 20"><path fill="currentColor" fill-rule="evenodd" d="M5.5 2.5h9a1 1 0 011 1v13a1 1 0 01-1 1h-9a1 1 0 01-1-1v-13a1 1 0 011-1M3 3.5A2.5 2.5 0 015.5 1h9A2.5 2.5 0 0117 3.5v13a2.5 2.5 0 01-2.5 2.5h-9A2.5 2.5 0 013 16.5zm4 .75a.75.75 0 000 1.5h6a.75.75 0 000-1.5zm-.75 3.725a.75.75 0 01.75-.75h4a.75.75 0 010 1.5H7a.75.75 0 01-.75-.75m3.193 3.543-.534-.54-.534.54L6.2 13.722a.75.75 0 001.068 1.054l1.641-1.663 1.641 1.663.534.54.534-.54 2.175-2.204a.75.75 0 00-1.067-1.054l-1.642 1.663z" clip-rule="evenodd"/></svg>