<svg xmlns="http://www.w3.org/2000/svg" width="24" height="24" viewBox="0 0 24 24"><path fill="currentColor" fill-rule="evenodd" d="M7 3.5h10A1.5 1.5 0 0118.5 5v14a1.5 1.5 0 01-1.5 1.5H7A1.5 1.5 0 015.5 19V5A1.5 1.5 0 017 3.5M4 5a3 3 0 013-3h10a3 3 0 013 3v14a3 3 0 01-3 3H7a3 3 0 01-3-3zm4 1a.75.75 0 000 1.5h7.2a.75.75 0 000-1.5zm-.75 3.75A.75.75 0 018 9h4a.75.75 0 010 1.5H8a.75.75 0 01-.75-.75m3.881 3.819-.526-.519-.527.519-2.81 2.768a.75.75 0 001.053 1.069l2.284-2.25 2.284 2.25.526.518.526-.518 2.81-2.768a.75.75 0 00-1.052-1.07l-2.284 2.25z" clip-rule="evenodd"/></svg>