<svg xmlns="http://www.w3.org/2000/svg" width="12" height="12" viewBox="0 0 12 12"><path fill="currentColor" fill-rule="evenodd" d="M2.5 1h7a.5.5 0 01.5.5v9a.5.5 0 01-.5.5h-7a.5.5 0 01-.5-.5v-9a.5.5 0 01.5-.5M1 1.5A1.5 1.5 0 012.5 0h7A1.5 1.5 0 0111 1.5v9A1.5 1.5 0 019.5 12h-7A1.5 1.5 0 011 10.5zM3.91 3a.5.5 0 000 1h4.363a.5.5 0 000-1zm-.5 2.5a.5.5 0 01.5-.5h2.908a.5.5 0 010 1H3.91a.5.5 0 01-.5-.5m2.302 1.838L5.364 7l-.348.338L3.58 8.73a.5.5 0 00.696.717l1.087-1.054L6.45 9.447l.349.338.348-.338L8.58 8.055a.5.5 0 00-.696-.717L6.8 8.392z" clip-rule="evenodd"/></svg>