<svg xmlns="http://www.w3.org/2000/svg" width="32" height="32" viewBox="0 0 32 32"><path fill="currentColor" fill-rule="evenodd" d="M10 5h12a2 2 0 012 2v18a2 2 0 01-2 2H10a2 2 0 01-2-2V7a2 2 0 012-2M6 7a4 4 0 014-4h12a4 4 0 014 4v18a4 4 0 01-4 4H10a4 4 0 01-4-4zm5 1a1 1 0 100 2h9a1 1 0 100-2zm-1 5a1 1 0 011-1h5a1 1 0 110 2h-5a1 1 0 01-1-1m5.021 5.293-.707-.707-.707.707-3.314 3.314a1 1 0 101.414 1.414l2.607-2.607 2.607 2.607.707.707.707-.707 3.314-3.314a1 1 0 00-1.414-1.414L17.628 20.9z" clip-rule="evenodd"/></svg>