<svg xmlns="http://www.w3.org/2000/svg" width="20" height="20" viewBox="0 0 20 20"><path fill="currentColor" fill-rule="evenodd" d="M7 3H3a.5.5 0 00-.5.5v2h5v-2A.5.5 0 007 3m2 2.5V17a2 2 0 01-2 2H3a2 2 0 01-2-2V3.5a2 2 0 012-2h4a2 2 0 012 2zm-1.5 8V11h-5v2.5zm-5 1.5h5v2a.5.5 0 01-.5.5H3a.5.5 0 01-.5-.5zm5-8v2.5h-5V7zM17 3h-4a.5.5 0 00-.5.5v2h5v-2A.5.5 0 0017 3m-6 2.5V13a2 2 0 002 2h4a2 2 0 002-2V3.5a2 2 0 00-2-2h-4a2 2 0 00-2 2zm1.5 5.5v2a.5.5 0 00.5.5h4a.5.5 0 00.5-.5v-2zm5-1.5V7h-5v2.5z" clip-rule="evenodd"/></svg>