<svg xmlns="http://www.w3.org/2000/svg" width="16" height="16" viewBox="0 0 16 16"><path fill="currentColor" fill-rule="evenodd" d="M15.107 5.166a2.25 2.25 0 00-2.25-2.25H11.78a.5.5 0 000 1h1.078c.69 0 1.25.56 1.25 1.25v6.584c0 .69-.56 1.25-1.25 1.25H11.78a.5.5 0 000 1h1.078a2.25 2.25 0 002.25-2.25zM4.797 6.5a.5.5 0 01.5-.5h5.657a.5.5 0 110 1H5.296a.5.5 0 01-.5-.5m.5 1.5a.5.5 0 100 1h5.657a.5.5 0 100-1zm-.5 2.5a.5.5 0 01.5-.5h3.535a.5.5 0 010 1H5.296a.5.5 0 01-.5-.5M3.25 3A2.25 2.25 0 001 5.25v6.5A2.25 2.25 0 003.25 14h1.079a.5.5 0 100-1H3.25C2.56 13 2 12.44 2 11.75v-6.5C2 4.56 2.56 4 3.25 4h1.079a.5.5 0 000-1z" clip-rule="evenodd"/></svg>