<svg xmlns="http://www.w3.org/2000/svg" width="32" height="32" viewBox="0 0 32 32"><path fill="currentColor" fill-rule="evenodd" d="M3 10.25A4.25 4.25 0 017.25 6H9a1 1 0 010 2H7.25A2.25 2.25 0 005 10.25v11.5A2.25 2.25 0 007.25 24H9a1 1 0 110 2H7.25A4.25 4.25 0 013 21.75zm26 0A4.25 4.25 0 0024.75 6H23a1 1 0 100 2h1.75A2.25 2.25 0 0127 10.25v11.5A2.25 2.25 0 0124.75 24H23a1 1 0 100 2h1.75A4.25 4.25 0 0029 21.75zM10.5 11a1 1 0 100 2h11a1 1 0 100-2zm-1 5a1 1 0 011-1h11a1 1 0 110 2h-11a1 1 0 01-1-1m1 3a1 1 0 100 2h7a1 1 0 100-2z" clip-rule="evenodd"/></svg>