<svg xmlns="http://www.w3.org/2000/svg" width="12" height="12" viewBox="0 0 12 12"><path fill="currentColor" fill-rule="evenodd" d="M0 2.8c0-.966.784-1.75 1.75-1.75H3a.5.5 0 010 1H1.75A.75.75 0 001 2.8v7.4c0 .414.336.75.75.75H3a.5.5 0 010 1H1.75A1.75 1.75 0 010 10.2zm12 0a1.75 1.75 0 00-1.75-1.75H9a.5.5 0 000 1h1.25a.75.75 0 01.75.75v7.4a.75.75 0 01-.75.75H9a.5.5 0 000 1h1.25A1.75 1.75 0 0012 10.2zM3.5 4a.5.5 0 000 1h5a.5.5 0 000-1zm0 2a.5.5 0 000 1h5a.5.5 0 000-1zM3 8.5a.5.5 0 01.5-.5h3.332a.5.5 0 010 1H3.5a.5.5 0 01-.5-.5" clip-rule="evenodd"/></svg>