<svg xmlns="http://www.w3.org/2000/svg" width="20" height="20" viewBox="0 0 20 20"><path fill="currentColor" fill-rule="evenodd" d="M4.5 3.75a.75.75 0 00-1.5 0V4a2.5 2.5 0 002.5 2.5h9.002a2.5 2.5 0 002.5-2.5v-.25a.75.75 0 00-1.5 0V4a1 1 0 01-1 1H5.5a1 1 0 01-1-1zM5.004 10a.75.75 0 01.75-.75h8.496a.75.75 0 010 1.5H5.754a.75.75 0 01-.75-.75m11.248 7.002a.75.75 0 01-.75-.75v-.25a1 1 0 00-1-1H5.5a1 1 0 00-1 1v.25a.75.75 0 11-1.5 0v-.25a2.5 2.5 0 012.5-2.5h9.002a2.5 2.5 0 012.5 2.5v.25a.75.75 0 01-.75.75" clip-rule="evenodd"/></svg>