<svg xmlns="http://www.w3.org/2000/svg" width="16" height="16" viewBox="0 0 16 16"><path fill="currentColor" fill-rule="evenodd" d="M10.08 2.276a.55.55 0 01.735 0 .453.453 0 010 .677L9.678 4h1.816a2.5 2.5 0 012.5 2.5v4a2.5 2.5 0 01-2.5 2.5h-2.5a.5.5 0 110-1h2.5a1.5 1.5 0 001.5-1.5v-4a1.5 1.5 0 00-1.5-1.5H9.678l1.137 1.047a.453.453 0 010 .677.55.55 0 01-.736 0L8.032 4.84a.453.453 0 010-.678zm-6.193 6.87c.68 0 1.161-.498 1.165-1.033.005-.573-.4-1.025-.887-1.025-.476 0-.822.109-1.04.21a1.6 1.6 0 00-.286.167l-.006.005A.5.5 0 012 7.098v-3.04h2.997a.5.5 0 110 1H3v1.214a3.6 3.6 0 011.165-.184c1.178 0 1.895 1.05 1.887 2.033-.009 1.153-1.006 2.025-2.165 2.025-.553 0-.98-.15-1.274-.307a2.2 2.2 0 01-.432-.301l-.028-.028-.01-.01-.004-.004-.001-.001-.001-.001.363-.344-.364.343a.5.5 0 01.722-.691l.004.003.037.032c.038.03.1.074.185.12.17.09.437.189.803.189" clip-rule="evenodd"/></svg>