<svg xmlns="http://www.w3.org/2000/svg" width="20" height="20" viewBox="0 0 20 20"><path fill="currentColor" fill-rule="evenodd" d="M5 9.553h-.5a1 1 0 00-1 1V14.5a1 1 0 001 1H5zM6.5 15.5h7.001a1 1 0 00.896-.555l1.963-3.947a1 1 0 00-.896-1.445h-4.749l.14-1.629.296-3.433L6.564 9.11l-.064.064zm6.146-10.88-.167 1.933-.129 1.5h3.115c1.856 0 3.064 1.95 2.238 3.613l-1.963 3.947A2.5 2.5 0 0113.5 17h-9A2.5 2.5 0 012 14.5v-3.947a2.5 2.5 0 012.5-2.5h1l4.587-4.62c.988-.994 2.679-.21 2.559 1.186" clip-rule="evenodd"/></svg>