<svg xmlns="http://www.w3.org/2000/svg" width="20" height="20" viewBox="0 0 20 20"><path fill="currentColor" fill-rule="evenodd" d="M11.313 5.06c-2.728-.73-5.404.763-6.22 3.44h2.892a.75.75 0 110 1.5H3V5a.75.75 0 111.5 0v1.275c1.529-2.292 4.355-3.426 7.202-2.664a6.7 6.7 0 013.012 1.723.75.75 0 01-1.06 1.061 5.2 5.2 0 00-2.34-1.335m-2.622 9.885c2.728.73 5.404-.763 6.221-3.44H12.02a.75.75 0 010-1.5h4.985v5a.75.75 0 01-1.5 0V13.73c-1.528 2.293-4.354 3.427-7.201 2.664a6.7 6.7 0 01-3.013-1.722.75.75 0 011.06-1.062 5.2 5.2 0 002.341 1.335" clip-rule="evenodd"/></svg>