<svg xmlns="http://www.w3.org/2000/svg" width="24" height="24" viewBox="0 0 24 24"><path fill="currentColor" fill-rule="evenodd" d="M13.54 6.221c-3.243-.869-6.234.952-7.116 4.243l-.01.036h2.8a.75.75 0 010 1.5H4V6.75a.75.75 0 011.5 0v1.9c1.503-3.15 4.846-4.837 8.429-3.877a7.6 7.6 0 013.395 1.932.75.75 0 11-1.056 1.065 6.1 6.1 0 00-2.727-1.549m-3.074 11.562c3.243.87 6.234-.951 7.116-4.243l.01-.036h-2.8a.75.75 0 010-1.5h5.214v5.25a.75.75 0 01-1.5 0v-1.9c-1.503 3.15-4.846 4.838-8.429 3.878a7.6 7.6 0 01-3.395-1.933.75.75 0 111.056-1.065 6.1 6.1 0 002.728 1.549" clip-rule="evenodd"/></svg>