<svg xmlns="http://www.w3.org/2000/svg" width="16" height="16" viewBox="0 0 16 16"><path fill="currentColor" fill-rule="evenodd" d="M4.765 6.112h.39l.287-.263 2.01-1.847v8.06l-2.01-1.847-.287-.264H3.5a.5.5 0 01-.5-.5V6.612a.5.5 0 01.5-.5zM2 6.612a1.5 1.5 0 011.5-1.5h1.265l2.849-2.617a.5.5 0 01.838.369V13.2a.5.5 0 01-.838.368l-2.849-2.617H3.5a1.5 1.5 0 01-1.5-1.5zm8.056-.529a.5.5 0 01.707 0l1.148 1.148 1.148-1.148a.5.5 0 11.707.707l-1.148 1.15 1.147 1.148a.5.5 0 01-.707.707l-1.147-1.148-1.148 1.148a.5.5 0 11-.707-.707l1.148-1.148-1.148-1.149a.5.5 0 010-.707" clip-rule="evenodd"/></svg>