<svg xmlns="http://www.w3.org/2000/svg" width="12" height="12" viewBox="0 0 12 12"><g fill="none"><g clip-path="url(#svgID0)"><path fill="currentColor" fill-rule="evenodd" d="M3.571 5h.376l.283-.247L6 3.203v5.593L4.23 7.247 3.947 7H2V5zM1 5a1 1 0 011-1h1.571l2.6-2.274A.5.5 0 017 2.102v7.796a.5.5 0 01-.83.376L3.572 8H2a1 1 0 01-1-1zm10.857-.604a.5.5 0 010 .708l-.898.898.898.899a.5.5 0 01-.707.707l-.898-.899-.899.899a.5.5 0 11-.707-.707l.899-.9-.898-.897a.5.5 0 01.707-.708l.898.899.898-.899a.5.5 0 01.707 0" clip-rule="evenodd"/></g><defs><clipPath id="svgID0"><path fill="#fff" d="M0 0h12v12H0z"/></clipPath></defs></g></svg>