<svg xmlns="http://www.w3.org/2000/svg" viewBox="0 0 24 24">
    <path d="M20.5351562,11.2773438 C20.4570309,10.2356719 20.199872,9.25911914 19.7636719,8.34765625 C19.3274718,7.43619336 18.7610712,6.63216494 18.0644531,5.93554688 C17.3678351,5.23892881 16.5638066,4.67252822 15.6523438,4.23632812 C14.7408809,3.80012803 13.7643281,3.54296914 12.7226562,3.46484375 L12.7226562,11.2773438 L20.5351562,11.2773438 Z M20.5351562,12.7226563 L11.2773438,12.7226563 L11.2773438,3.46484375 C10.1835883,3.55599004 9.15820791,3.83919033 8.20117188,4.31445312 C7.24413584,4.78971592 6.41406602,5.41145449 5.7109375,6.1796875 C5.00780898,6.94792051 4.45117393,7.83007314 4.04101562,8.82617188 C3.63085732,9.82227061 3.42578125,10.8802027 3.42578125,12 C3.42578125,13.1849018 3.65038838,14.2981719 4.09960938,15.3398438 C4.54883037,16.3815156 5.16080342,17.2897097 5.93554688,18.0644531 C6.71029033,18.8391966 7.61848437,19.4511696 8.66015625,19.9003906 C9.70182813,20.3496116 10.8150982,20.5742188 12,20.5742188 C13.1197973,20.5742188 14.1777294,20.3691427 15.1738281,19.9589844 C16.1699269,19.5488261 17.0520795,18.992191 17.8203125,18.2890625 C18.5885455,17.585934 19.2102841,16.7558642 19.6855469,15.7988281 C20.1608097,14.8417921 20.44401,13.8164117 20.5351562,12.7226563 Z M12,22 C10.6197848,22 9.32096963,21.7395859 8.10351562,21.21875 C6.88606162,20.6979141 5.82487432,19.9850306 4.91992188,19.0800781 C4.01496943,18.1751257 3.30208594,17.1139384 2.78125,15.8964844 C2.26041406,14.6790304 2,13.3802152 2,12 C2,10.6197848 2.26041406,9.32096963 2.78125,8.10351562 C3.30208594,6.88606162 4.01496943,5.82487432 4.91992188,4.91992188 C5.82487432,4.01496943 6.88606162,3.30208594 8.10351562,2.78125 C9.32096963,2.26041406 10.6197848,2 12,2 C13.3802152,2 14.6790304,2.26041406 15.8964844,2.78125 C17.1139384,3.30208594 18.1751257,4.01496943 19.0800781,4.91992188 C19.9850306,5.82487432 20.6979141,6.88606162 21.21875,8.10351562 C21.7395859,9.32096963 22,10.6197848 22,12 C22,13.3802152 21.7395859,14.6790304 21.21875,15.8964844 C20.6979141,17.1139384 19.9850306,18.1751257 19.0800781,19.0800781 C18.1751257,19.9850306 17.1139384,20.6979141 15.8964844,21.21875 C14.6790304,21.7395859 13.3802152,22 12,22 Z"/>
</svg>
