<svg fill="currentColor" viewBox="0 0 24 24" xmlns="http://www.w3.org/2000/svg">
    <path fill-rule="evenodd" clip-rule="evenodd" d="M18.6321 1.5L19.2525 5.38415L23 5.85429L19.2869 9.55586L17.5864 9.37305C18.4718 10.7097 18.9873 12.3113 18.9873 14.0329C18.9873 18.7092 15.1845 22.5 10.4936 22.5C5.80273 22.5 2 18.7092 2 14.0329C2 9.35665 5.80273 5.56579 10.4936 5.56579C12.2071 5.56579 13.8021 6.07162 15.1366 6.94165L14.9475 5.17313L18.6321 1.5ZM15.917 9.70088C16.8718 10.8872 17.443 12.3936 17.443 14.0329C17.443 17.8589 14.3317 20.9605 10.4936 20.9605C6.65563 20.9605 3.54431 17.8589 3.54431 14.0329C3.54431 10.2069 6.65563 7.10527 10.4936 7.10527C12.1308 7.10527 13.6358 7.66965 14.8234 8.61389L13.7253 9.71349C12.8239 9.04221 11.7053 8.64474 10.4937 8.64474C7.50854 8.64474 5.08862 11.0571 5.08862 14.0329C5.08862 17.0087 7.50854 19.4211 10.4937 19.4211C13.4788 19.4211 15.8987 17.0087 15.8987 14.0329C15.8987 12.8202 15.4968 11.7011 14.8186 10.8007L15.917 9.70088ZM12.6202 10.8201C12.0104 10.4182 11.2794 10.1842 10.4937 10.1842C8.36145 10.1842 6.63293 11.9073 6.63293 14.0329C6.63293 16.1585 8.36145 17.8816 10.4937 17.8816C12.6259 17.8816 14.3544 16.1585 14.3544 14.0329C14.3544 13.2474 14.1183 12.5168 13.713 11.9078L12.5846 13.0378C12.7292 13.3391 12.8101 13.6766 12.8101 14.0329C12.8101 15.3082 11.773 16.3421 10.4937 16.3421C9.21435 16.3421 8.17725 15.3082 8.17725 14.0329C8.17725 12.7576 9.21435 11.7237 10.4937 11.7237C10.8515 11.7237 11.1903 11.8046 11.4929 11.949L12.6202 10.8201ZM10.4936 14.8026C10.92 14.8026 11.2657 14.458 11.2657 14.0329C11.2657 13.6078 10.92 13.2632 10.4936 13.2632C10.0671 13.2632 9.72144 13.6078 9.72144 14.0329C9.72144 14.458 10.0671 14.8026 10.4936 14.8026ZM17.8268 6.67536L17.5794 4.72657L16.5562 5.74654L16.7778 7.72116L18.7195 7.95078L19.7666 6.90697L17.8268 6.67536Z"  id="Icon_Arrow"/>
</svg>
