<svg fill="currentColor" viewBox="0 0 16 12" version="1.1" xmlns="http://www.w3.org/2000/svg" xmlns:xlink="http://www.w3.org/1999/xlink">
    <path d="M1.43481 12L1.43481 9.56097L2.84944 9.56097C4.02018 9.56097 4.60554 8.97561 4.60554 7.80488L4.60554 6.2439L3.92261 6.2439C2.97953 6.2439 2.19904 5.95122 1.58115 5.36585C0.930744 4.78048 0.60554 4.04878 0.60554 3.17073C0.60554 2.22764 0.930744 1.46341 1.58115 0.878048C2.19904 0.292681 2.97953 -1.1102e-06 3.92262 -1.02775e-06C4.8657 -9.45303e-07 5.64619 0.308941 6.26408 0.926827C6.88196 1.54471 7.19091 2.3252 7.19091 3.26829L7.19091 7.80488C7.19091 10.6016 5.79253 12 2.99578 12L1.43481 12ZM9.92261 12L9.92261 9.56097L11.3372 9.56097C12.508 9.56097 13.0933 8.97561 13.0933 7.80488L13.0933 6.2439L12.4104 6.2439C11.4673 6.2439 10.6868 5.95122 10.069 5.36585C9.41855 4.78049 9.09335 4.04878 9.09335 3.17073C9.09335 2.22764 9.41855 1.46341 10.069 0.878048C10.6868 0.292682 11.4673 -3.68171e-07 12.4104 -2.85723e-07C13.3535 -2.03276e-07 14.134 0.308942 14.7519 0.926827C15.3698 1.54471 15.6787 2.3252 15.6787 3.26829L15.6787 7.80488C15.6787 10.6016 14.2803 12 11.4836 12L9.92261 12Z" />
</svg>
