<svg fill="currentColor" viewBox="0 0 16 12" version="1.1" xmlns="http://www.w3.org/2000/svg" xmlns:xlink="http://www.w3.org/1999/xlink">
    <path d="M14.8503 0V2.43902H13.4357C12.265 2.43902 11.6796 3.02439 11.6796 4.19512V5.7561H12.3625C13.3056 5.7561 14.0861 6.04878 14.704 6.63415C15.3544 7.21951 15.6796 7.95122 15.6796 8.82927C15.6796 9.77236 15.3544 10.5366 14.704 11.122C14.0861 11.7073 13.3056 12 12.3625 12C11.4195 12 10.639 11.6911 10.0211 11.0732C9.40319 10.4553 9.09425 9.6748 9.09425 8.73171V4.19512C9.09425 1.39837 10.4926 0 13.2894 0H14.8503ZM6.36254 0V2.43902H4.94791C3.77718 2.43902 3.19181 3.02439 3.19181 4.19512V5.7561H3.87474C4.81783 5.7561 5.59832 6.04878 6.2162 6.63415C6.86661 7.21951 7.19181 7.95122 7.19181 8.82927C7.19181 9.77236 6.86661 10.5366 6.2162 11.122C5.59832 11.7073 4.81783 12 3.87474 12C2.93165 12 2.15116 11.6911 1.53327 11.0732C0.915388 10.4553 0.606445 9.6748 0.606445 8.73171V4.19512C0.606445 1.39837 2.00482 0 4.80157 0H6.36254Z" />
</svg>
