<svg viewBox="0 0 24 24" fill="currentColor" xmlns="http://www.w3.org/2000/svg">
    <path fill-rule="evenodd" clip-rule="evenodd" d="M7.62451 8.87555C7.62451 11.2921 9.58351 13.2511 12.0001 13.2511C14.4166 13.2511 16.3756 11.2921 16.3756 8.87555C16.3756 6.459 14.4166 4.5 12.0001 4.5C9.58351 4.5 7.62451 6.459 7.62451 8.87555ZM12.0001 3C8.75508 3 6.12451 5.63057 6.12451 8.87555C6.12451 12.1205 8.75508 14.7511 12.0001 14.7511C15.245 14.7511 17.8756 12.1205 17.8756 8.87555C17.8756 5.63057 15.245 3 12.0001 3Z" />
    <path fill-rule="evenodd" clip-rule="evenodd" d="M18 17.146C18 17.5602 17.6642 17.896 17.25 17.896L6.75 17.896C6.33579 17.896 6 17.5602 6 17.146C6 16.7318 6.33579 16.396 6.75 16.396L17.25 16.396C17.6642 16.396 18 16.7318 18 17.146Z" />
    <path fill-rule="evenodd" clip-rule="evenodd" d="M16 20.1956C16 20.6098 15.6642 20.9456 15.25 20.9456L8.75 20.9456C8.33579 20.9456 8 20.6098 8 20.1956C8 19.7813 8.33579 19.4456 8.75 19.4456L15.25 19.4456C15.6642 19.4456 16 19.7813 16 20.1956Z" />
</svg>
