<svg viewBox="0 0 24 24" version="1.1" xmlns="http://www.w3.org/2000/svg" xmlns:xlink="http://www.w3.org/1999/xlink">
    <path d="M12,22 C10.6197848,22 9.32096963,21.7395859 8.10351562,21.21875 C6.88606162,20.6979141 5.82487432,19.9850306 4.91992188,19.0800781 C4.01496943,18.1751257 3.30208594,17.1139384 2.78125,15.8964844 C2.26041406,14.6790304 2,13.3802152 2,12 C2,10.6197848 2.26041406,9.32096963 2.78125,8.10351562 C3.30208594,6.88606162 4.01496943,5.82487432 4.91992188,4.91992188 C5.82487432,4.01496943 6.88606162,3.30208594 8.10351562,2.78125 C9.32096963,2.26041406 10.6197848,2 12,2 C13.3802152,2 14.6790304,2.26041406 15.8964844,2.78125 C17.1139384,3.30208594 18.1751257,4.01496943 19.0800781,4.91992188 C19.9850306,5.82487432 20.6979141,6.88606162 21.21875,8.10351562 C21.7395859,9.32096963 22,10.6197848 22,12 C22,13.3802152 21.7395859,14.6790304 21.21875,15.8964844 C20.6979141,17.1139384 19.9850306,18.1751257 19.0800781,19.0800781 C18.1751257,19.9850306 17.1139384,20.6979141 15.8964844,21.21875 C14.6790304,21.7395859 13.3802152,22 12,22 Z M12,20.5742188 C13.1849018,20.5742188 14.2981719,20.3496116 15.3398438,19.9003906 C16.3815156,19.4511696 17.2897097,18.8391966 18.0644531,18.0644531 C18.8391966,17.2897097 19.4511696,16.3815156 19.9003906,15.3398438 C20.3496116,14.2981719 20.5742188,13.1849018 20.5742188,12 C20.5742188,10.8150982 20.3496116,9.70182813 19.9003906,8.66015625 C19.4511696,7.61848437 18.8391966,6.71029033 18.0644531,5.93554688 C17.2897097,5.16080342 16.3815156,4.54883037 15.3398438,4.09960938 C14.2981719,3.65038838 13.1849018,3.42578125 12,3.42578125 C10.8150982,3.42578125 9.70182813,3.65038838 8.66015625,4.09960938 C7.61848437,4.54883037 6.71029033,5.16080342 5.93554688,5.93554688 C5.16080342,6.71029033 4.54883037,7.61848437 4.09960938,8.66015625 C3.65038838,9.70182813 3.42578125,10.8150982 3.42578125,12 C3.42578125,13.1849018 3.65038838,14.2981719 4.09960938,15.3398438 C4.54883037,16.3815156 5.16080342,17.2897097 5.93554688,18.0644531 C6.71029033,18.8391966 7.61848437,19.4511696 8.66015625,19.9003906 C9.70182813,20.3496116 10.8150982,20.5742188 12,20.5742188 Z M8.81818182,11.0909091 C8.06506625,11.0909091 7.45454545,10.4803883 7.45454545,9.72727273 C7.45454545,8.97415716 8.06506625,8.36363636 8.81818182,8.36363636 C9.57129739,8.36363636 10.1818182,8.97415716 10.1818182,9.72727273 C10.1818182,10.4803883 9.57129739,11.0909091 8.81818182,11.0909091 Z M15.1818182,11.0909091 C14.4287026,11.0909091 13.8181818,10.4803883 13.8181818,9.72727273 C13.8181818,8.97415716 14.4287026,8.36363636 15.1818182,8.36363636 C15.9349337,8.36363636 16.5454545,8.97415716 16.5454545,9.72727273 C16.5454545,10.4803883 15.9349337,11.0909091 15.1818182,11.0909091 Z M6.64142983,14.6792851 C6.41689415,14.2302137 6.59891628,13.6841473 7.04798764,13.4596116 C7.497059,13.235076 8.0431254,13.4170981 8.26766108,13.8661695 C9.02064445,15.3721362 10.2185993,16.0909091 12,16.0909091 C13.7814007,16.0909091 14.9793555,15.3721362 15.7323389,13.8661695 C15.9568746,13.4170981 16.502941,13.235076 16.9520124,13.4596116 C17.4010837,13.6841473 17.5831059,14.2302137 17.3585702,14.6792851 C16.2933717,16.809682 14.4610235,17.9090909 12,17.9090909 C9.53897648,17.9090909 7.70662827,16.809682 6.64142983,14.6792851 Z" id="Icon_happy" ></path>
</svg>
