<svg viewBox="0 0 24 24" version="1.1" xmlns="http://www.w3.org/2000/svg" xmlns:xlink="http://www.w3.org/1999/xlink">
    <path d="M18.4784089,4.5137536 L15.8251495,4.5137536 C15.4102536,4.5137536 15.074707,4.17488831 15.074707,3.7568768 C15.074707,3.35109031 15.4106915,3 15.8251495,3 L20.2495575,3 C20.4586356,3 20.6475634,3.08605296 20.7835553,3.22492265 C20.9127562,3.36038405 21,3.55344624 21,3.76687176 L21,8.28814263 C21,8.71212172 20.6683945,9.05501439 20.2593384,9.05501439 C19.8622454,9.05501439 19.5186768,8.71167421 19.5186768,8.28814263 L19.5186768,5.59148225 L14.4953116,10.7248231 C14.1954772,11.0312216 13.7335191,11.0240655 13.4442727,10.7284867 C13.1634856,10.4415523 13.1566315,9.95203977 13.4478579,9.65443762 L18.4784089,4.5137536 Z M5.52159106,19.4862464 L8.17485053,19.4862464 C8.58974638,19.4862464 8.92529299,19.8251117 8.92529299,20.2431232 C8.92529299,20.6489097 8.58930846,21 8.17485053,21 L3.75044245,21 C3.33554661,21 3,20.6611347 3,20.2431232 C3,20.2397881 3.0000227,20.2364567 3.00006794,20.2331292 L3,15.7118574 C3,15.2878783 3.3316055,14.9449856 3.74066162,14.9449856 C4.13775462,14.9449856 4.48132325,15.2883258 4.48132325,15.7118574 L4.48132325,18.4085177 L9.50468839,13.2751769 C9.80452276,12.9687784 10.2664809,12.9759345 10.5557273,13.2715133 C10.8365144,13.5584477 10.8433685,14.0479602 10.5521421,14.3455624 L5.52159106,19.4862464 Z"/>
</svg>
