<svg xmlns="http://www.w3.org/2000/svg" viewBox="0 0 24 24">
    <path d="M11.2311662,11.1315494 C11.2355651,11.1312421 11.2400068,11.131087 11.2444913,11.131087 L15.3513456,11.131087 L14.2568019,10.0365433 C13.9248563,9.70459767 13.9248563,9.16640743 14.2568019,8.83446179 C14.5887476,8.50251614 15.1269378,8.50251614 15.4588835,8.83446179 L17.9337572,11.3093355 C18.1177302,11.4933085 18.1997406,11.7406331 18.1797882,11.981087 C18.1997406,12.2215408 18.1177302,12.4688654 17.9337572,12.6528384 L15.4588835,15.1277121 C15.1269378,15.4596578 14.5887476,15.4596578 14.2568019,15.1277121 C13.9248563,14.7957665 13.9248563,14.2575763 14.2568019,13.9256306 L15.3513456,12.831087 L11.829324,12.831087 C11.8199263,12.8313945 11.8104899,12.8315494 11.8010173,12.8315494 L8.69416306,12.8315494 L9.7887067,13.9260931 C10.1206524,14.2580387 10.1206524,14.7962289 9.7887067,15.1281746 C9.45676106,15.4601202 8.91857082,15.4601202 8.58662518,15.1281746 L6.11175144,12.6533009 C5.92777841,12.4693278 5.84576809,12.2220033 5.86572046,11.9815494 C5.84576809,11.7410955 5.92777841,11.493771 6.11175144,11.309798 L8.58662518,8.83492424 C8.91857082,8.50297859 9.45676106,8.50297859 9.7887067,8.83492424 C10.1206524,9.16686989 10.1206524,9.70506012 9.7887067,10.0370058 L8.69416306,11.1315494 L11.2311662,11.1315494 Z M6,3.15 L18,3.15 C19.5740115,3.15 20.85,4.42598846 20.85,6 L20.85,18 C20.85,19.5740115 19.5740115,20.85 18,20.85 L6,20.85 C4.42598846,20.85 3.15,19.5740115 3.15,18 L3.15,6 C3.15,4.42598846 4.42598846,3.15 6,3.15 Z M6,4.85 C5.36487254,4.85 4.85,5.36487254 4.85,6 L4.85,18 C4.85,18.6351275 5.36487254,19.15 6,19.15 L18,19.15 C18.6351275,19.15 19.15,18.6351275 19.15,18 L19.15,6 C19.15,5.36487254 18.6351275,4.85 18,4.85 L6,4.85 Z"/>
</svg>
