<svg viewBox="0 0 24 24" version="1.1" xmlns="http://www.w3.org/2000/svg" xmlns:xlink="http://www.w3.org/1999/xlink">
    <path d="M11.0909091,14.6181818 L9.27272727,14.6181818 C8.77065023,14.6181818 8.36363636,14.211168 8.36363636,13.7090909 C8.36363636,13.2070139 8.77065023,12.8 9.27272727,12.8 L11.0909091,12.8 L11.0909091,10.9818182 C11.0909091,10.4797411 11.497923,10.0727273 12,10.0727273 C12.502077,10.0727273 12.9090909,10.4797411 12.9090909,10.9818182 L12.9090909,12.8 L14.7272727,12.8 C15.2293498,12.8 15.6363636,13.2070139 15.6363636,13.7090909 C15.6363636,14.211168 15.2293498,14.6181818 14.7272727,14.6181818 L12.9090909,14.6181818 L12.9090909,16.4363636 C12.9090909,16.9384407 12.502077,17.3454545 12,17.3454545 C11.497923,17.3454545 11.0909091,16.9384407 11.0909091,16.4363636 L11.0909091,14.6181818 Z M20.4615385,6.64615385 L20.4615385,5.10769231 C20.4615385,4.68285788 20.1171421,4.33846154 19.6923077,4.33846154 L4.30769231,4.33846154 C3.88285788,4.33846154 3.53846154,4.68285788 3.53846154,5.10769231 L3.53846154,6.64615385 L20.4615385,6.64615385 Z M20.4615385,8.18461538 L3.53846154,8.18461538 L3.53846154,18.9538462 C3.53846154,19.3786806 3.88285788,19.7230769 4.30769231,19.7230769 L19.6923077,19.7230769 C20.1171421,19.7230769 20.4615385,19.3786806 20.4615385,18.9538462 L20.4615385,8.18461538 Z M4.30769231,2.8 L19.6923077,2.8 C20.966811,2.8 22,3.83318904 22,5.10769231 L22,18.9538462 C22,20.2283494 20.966811,21.2615385 19.6923077,21.2615385 L4.30769231,21.2615385 C3.03318904,21.2615385 2,20.2283494 2,18.9538462 L2,5.10769231 C2,3.83318904 3.03318904,2.8 4.30769231,2.8 Z" id="Icon_NewPost" ></path>
</svg>
