<svg viewBox="0 0 24 24" version="1.1" xmlns="http://www.w3.org/2000/svg" xmlns:xlink="http://www.w3.org/1999/xlink">
    <path d="M11.5341748,15.4517028 C11.344183,15.8316862 10.8821268,15.9857049 10.5021434,15.7957132 C10.1221599,15.6057215 9.96814123,15.1436653 10.1581329,14.7636818 L12.4658252,10.1482972 C12.655817,9.76831377 13.1178732,9.61429508 13.4978566,9.80428677 C13.8778401,9.99427854 14.0318588,10.4563347 13.8418671,10.8363182 L11.5341748,15.4517028 Z M15.0171478,14.5960112 C14.7345542,14.8414471 14.7044318,15.2694995 14.9498676,15.5520932 C15.1953035,15.8346869 15.623356,15.8648092 15.9059497,15.6193734 L18.9828728,12.9470305 C19.2924571,12.6781528 19.2942213,12.198094 18.9866215,11.9269483 L15.9096984,9.21467592 C15.6289163,8.96716969 15.2006539,8.99414515 14.9531477,9.27492723 C14.7056415,9.55570938 14.7326169,9.98397169 15.0133991,10.2314779 L17.5092785,12.4315671 L15.0171478,14.5960112 Z M8.98286246,14.5960112 C9.26545615,14.8414471 9.29557846,15.2694995 9.05014262,15.5520932 C8.8047068,15.8346869 8.3766543,15.8648092 8.09406062,15.6193734 L5.01713755,12.9470305 C4.70755318,12.6781528 4.70578898,12.198094 5.01338879,11.9269483 L8.09031187,9.21467592 C8.371094,8.96716969 8.79935633,8.99414515 9.04686254,9.27492723 C9.29436877,9.55570938 9.26739331,9.98397169 8.98661123,10.2314779 L6.49073173,12.4315671 L8.98286246,14.5960112 Z M4.30769231,4.33846154 C3.88285788,4.33846154 3.53846154,4.68285788 3.53846154,5.10769231 L3.53846154,18.9538462 C3.53846154,19.3786805 3.88285788,19.7230769 4.30769231,19.7230769 L19.6923077,19.7230769 C20.1171421,19.7230769 20.4615385,19.3786805 20.4615385,18.9538462 L20.4615385,5.10769231 C20.4615385,4.68285788 20.1171421,4.33846154 19.6923077,4.33846154 L4.30769231,4.33846154 Z M4.30769231,2.8 L19.6923077,2.8 C20.9668109,2.8 22,3.83318904 22,5.10769231 L22,18.9538462 C22,20.2283494 20.9668109,21.2615385 19.6923077,21.2615385 L4.30769231,21.2615385 C3.03318904,21.2615385 2,20.2283494 2,18.9538462 L2,5.10769231 C2,3.83318904 3.03318904,2.8 4.30769231,2.8 Z" id="Icon_Iframe" ></path>
</svg>
