<svg fill="currentColor" viewBox="0 0 24 24" version="1.1" xmlns="http://www.w3.org/2000/svg" xmlns:xlink="http://www.w3.org/1999/xlink">
    <path d="M4.5,8.66666667 C4.03976271,8.66666667 3.66666667,9.03976271 3.66666667,9.5 L3.66666667,14.5 C3.66666667,14.9602373 4.03976271,15.3333333 4.5,15.3333333 L8.66666667,15.3333333 C9.12690396,15.3333333 9.5,14.9602373 9.5,14.5 L9.5,9.5 C9.5,9.03976271 9.12690396,8.66666667 8.66666667,8.66666667 L4.5,8.66666667 Z M4.5,7 L8.66666667,7 C10.0473785,7 11.1666667,8.11928813 11.1666667,9.5 L11.1666667,14.5 C11.1666667,15.8807119 10.0473785,17 8.66666667,17 L4.5,17 C3.11928813,17 2,15.8807119 2,14.5 L2,9.5 C2,8.11928813 3.11928813,7 4.5,7 Z M15.3333333,8.66666667 C14.873096,8.66666667 14.5,9.03976271 14.5,9.5 L14.5,14.5 C14.5,14.9602373 14.873096,15.3333333 15.3333333,15.3333333 L19.5,15.3333333 C19.9602373,15.3333333 20.3333333,14.9602373 20.3333333,14.5 L20.3333333,9.5 C20.3333333,9.03976271 19.9602373,8.66666667 19.5,8.66666667 L15.3333333,8.66666667 Z M15.3333333,7 L19.5,7 C20.8807119,7 22,8.11928813 22,9.5 L22,14.5 C22,15.8807119 20.8807119,17 19.5,17 L15.3333333,17 C13.9526215,17 12.8333333,15.8807119 12.8333333,14.5 L12.8333333,9.5 C12.8333333,8.11928813 13.9526215,7 15.3333333,7 Z" id="Icon_ImageGrid2" ></path>
</svg>
