<svg viewBox="0 0 24 24" xmlns="http://www.w3.org/2000/svg">
 <title>image-text-ratio-75</title>
  <path id="svg_1" d="m5.572222,3.004883c1.388465,0 2.514038,1.125573 2.514038,2.514038l0,12.962158c0,1.388465 -1.125573,2.514038 -2.514038,2.514038c-1.388465,0 -2.514038,-1.125573 -2.514038,-2.514038l0,-12.962158c0,-1.388465 1.125573,-2.514038 2.514038,-2.514038zm0,1.5c-0.560038,0 -1.014038,0.454 -1.014038,1.014038l0,12.962158c0,0.560038 0.454,1.014038 1.014038,1.014038c0.560038,0 1.014038,-0.454 1.014038,-1.014038l0,-12.962158c0,-0.560038 -0.454,-1.014038 -1.014038,-1.014038zm4.623901,0.92749c-0.414213,0 -0.75,-0.335786 -0.75,-0.75c0,-0.414213 0.335787,-0.75 0.75,-0.75l9.995694,0c0.414213,0 0.75,0.335787 0.75,0.75c0,0.414214 -0.335787,0.75 -0.75,0.75l-9.995694,0zm0,3.03003c-0.414213,0 -0.75,-0.335787 -0.75,-0.75c0,-0.414214 0.335787,-0.75 0.75,-0.75l9.995694,0c0.414213,0 0.75,0.335786 0.75,0.75c0,0.414213 -0.335787,0.75 -0.75,0.75l-9.995694,0zm0.010032,3.033447c-0.414213,0 -0.75,-0.335787 -0.75,-0.75c0,-0.414214 0.335787,-0.75 0.75,-0.75l5.869978,0c0.414213,0 0.75,0.335786 0.75,0.75c0,0.414213 -0.335787,0.75 -0.75,0.75l-5.869978,0z"/>
</svg>
