<svg viewBox="0 0 24 24" version="1.1" xmlns="http://www.w3.org/2000/svg" xmlns:xlink="http://www.w3.org/1999/xlink">
    <path d="M2.77001013,6.88107549 C2.55386586,6.88107549 2.37149686,6.80524033 2.22289767,6.65356774 C2.07429848,6.50189514 2,6.3226484 2,6.11582213 C2,5.89520745 2.07429848,5.7090666 2.22289767,5.557394 C2.37149686,5.40572141 2.55386586,5.32988625 2.77001013,5.32988625 L19.3657548,5.32988625 L17.4204661,3.34436401 C17.2718669,3.19269142 17.1975684,3.00655057 17.1975684,2.78593588 C17.1975684,2.5653212 17.2718669,2.37918035 17.4204661,2.22750776 C17.5690652,2.07583516 17.7514342,2 17.9675785,2 C18.1837228,2 18.3660918,2.07583516 18.514691,2.22750776 L21.7771023,5.557394 C21.8446474,5.64012451 21.8986827,5.72974788 21.9392097,5.8262668 C21.9797368,5.92278573 22,6.01930321 22,6.11582213 C22,6.21234105 21.9797368,6.30885853 21.9392097,6.40537746 C21.8986827,6.50189638 21.8446474,6.59151975 21.7771023,6.67425026 L18.514691,10.0041365 C18.3660918,10.1558091 18.1837228,10.2316443 17.9675785,10.2316443 C17.7514342,10.2316443 17.5690652,10.1558091 17.4204661,10.0041365 C17.2718669,9.83867549 17.1975684,9.64908759 17.1975684,9.43536711 C17.1975684,9.22164664 17.2718669,9.03895284 17.4204661,8.88728025 L19.3860182,6.88107549 L2.77001013,6.88107549 Z M4.61398176,18.6494312 L6.57953394,20.655636 C6.72813313,20.8073086 6.80243161,20.9900024 6.80243161,21.2037229 C6.80243161,21.4174433 6.72813313,21.6001371 6.57953394,21.7518097 C6.41742573,21.9172707 6.23167953,22 6.02228977,22 C5.8129,22 5.63390821,21.9241648 5.48530902,21.7724922 L2.22289767,18.4219235 C2.15535258,18.3529814 2.10131733,18.2702521 2.06079027,18.1737332 C2.02026322,18.0772143 2,17.9806968 2,17.8841779 C2,17.7738705 2.01688602,17.6704589 2.05065856,17.57394 C2.0844311,17.4774211 2.14184357,17.3946918 2.22289767,17.3257497 L5.48530902,13.9958635 C5.63390821,13.8441909 5.8129,13.7683557 6.02228977,13.7683557 C6.23167953,13.7683557 6.41742573,13.8441909 6.57953394,13.9958635 C6.72813313,14.1475361 6.80243161,14.3302299 6.80243161,14.5439504 C6.80243161,14.7576708 6.72813313,14.9472587 6.57953394,15.1127198 L4.63424519,17.098242 L21.2299899,17.098242 C21.4326251,17.098242 21.6116169,17.1740771 21.7669706,17.3257497 C21.9223243,17.4774223 22,17.6566691 22,17.8634953 C22,18.08411 21.9223243,18.2702509 21.7669706,18.4219235 C21.6116169,18.5735961 21.4326251,18.6494312 21.2299899,18.6494312 L4.61398176,18.6494312 Z" id="Icon_Integrations" ></path>
</svg>
