<svg viewBox="0 0 24 24" fill="currentColor" xmlns="http://www.w3.org/2000/svg">
    <path fill-rule="evenodd" clip-rule="evenodd" d="M9.4 15H4.6C4.54477 15 4.5 15.0448 4.5 15.1V19.9C4.5 19.9552 4.54477 20 4.6 20H9.4C9.45523 20 9.5 19.9552 9.5 19.9V15.1C9.5 15.0448 9.45523 15 9.4 15ZM4.6 13.5C3.71634 13.5 3 14.2163 3 15.1V19.9C3 20.7837 3.71634 21.5 4.6 21.5H9.4C10.2837 21.5 11 20.7837 11 19.9V15.1C11 14.2163 10.2837 13.5 9.4 13.5H4.6Z" />
    <path fill-rule="evenodd" clip-rule="evenodd" d="M19.4 15H14.6C14.5448 15 14.5 15.0448 14.5 15.1V19.9C14.5 19.9552 14.5448 20 14.6 20H19.4C19.4552 20 19.5 19.9552 19.5 19.9V15.1C19.5 15.0448 19.4552 15 19.4 15ZM14.6 13.5C13.7163 13.5 13 14.2163 13 15.1V19.9C13 20.7837 13.7163 21.5 14.6 21.5H19.4C20.2837 21.5 21 20.7837 21 19.9V15.1C21 14.2163 20.2837 13.5 19.4 13.5H14.6Z" />
    <path fill-rule="evenodd" clip-rule="evenodd" d="M19.4 5H14.6C14.5448 5 14.5 5.04477 14.5 5.1V9.9C14.5 9.95523 14.5448 10 14.6 10H19.4C19.4552 10 19.5 9.95523 19.5 9.9V5.1C19.5 5.04477 19.4552 5 19.4 5ZM14.6 3.5C13.7163 3.5 13 4.21634 13 5.1V9.9C13 10.7837 13.7163 11.5 14.6 11.5H19.4C20.2837 11.5 21 10.7837 21 9.9V5.1C21 4.21634 20.2837 3.5 19.4 3.5H14.6Z" />
    <path fill-rule="evenodd" clip-rule="evenodd" d="M9.4 5H4.6C4.54477 5 4.5 5.04477 4.5 5.1V9.9C4.5 9.95523 4.54477 10 4.6 10H9.4C9.45523 10 9.5 9.95523 9.5 9.9V5.1C9.5 5.04477 9.45523 5 9.4 5ZM4.6 3.5C3.71634 3.5 3 4.21634 3 5.1V9.9C3 10.7837 3.71634 11.5 4.6 11.5H9.4C10.2837 11.5 11 10.7837 11 9.9V5.1C11 4.21634 10.2837 3.5 9.4 3.5H4.6Z" />
</svg>
