<svg viewBox="0 0 24 24" fill="currentColor" xmlns="http://www.w3.org/2000/svg">
    <path fill-rule="evenodd" clip-rule="evenodd" d="M21 6C21 6.55228 20.5523 7 20 7L8 7C7.44771 7 7 6.55228 7 6C7 5.44772 7.44771 5 8 5L20 5C20.5523 5 21 5.44772 21 6Z" />
    <path fill-rule="evenodd" clip-rule="evenodd" d="M7 18C7 17.4477 7.44772 17 8 17L18 17C18.5523 17 19 17.4477 19 18C19 18.5523 18.5523 19 18 19L8 19C7.44772 19 7 18.5523 7 18Z" />
    <path fill-rule="evenodd" clip-rule="evenodd" d="M19 10C19 10.5523 18.5523 11 18 11H8C7.44771 11 7 10.5523 7 10C7 9.44772 7.44771 9 8 9H18C18.5523 9 19 9.44772 19 10Z" />
    <path fill-rule="evenodd" clip-rule="evenodd" d="M21 14C21 14.5523 20.5523 15 20 15L8 15C7.44771 15 7 14.5523 7 14C7 13.4477 7.44771 13 8 13L20 13C20.5523 13 21 13.4477 21 14Z" />
    <path d="M3 18.2C3 17.5373 3.53726 17 4.2 17C4.86274 17 5.4 17.5373 5.4 18.2C5.4 18.8627 4.86274 19.4 4.2 19.4C3.53726 19.4 3 18.8627 3 18.2Z" />
    <path d="M3 10.2C3 9.53726 3.53726 9 4.2 9C4.86274 9 5.4 9.53726 5.4 10.2C5.4 10.8627 4.86274 11.4 4.2 11.4C3.53726 11.4 3 10.8627 3 10.2Z" />
    <path d="M3 14.2C3 13.5373 3.53726 13 4.2 13C4.86274 13 5.4 13.5373 5.4 14.2C5.4 14.8627 4.86274 15.4 4.2 15.4C3.53726 15.4 3 14.8627 3 14.2Z" />
    <path d="M3 6.2C3 5.53726 3.53726 5 4.2 5C4.86274 5 5.4 5.53726 5.4 6.2C5.4 6.86274 4.86274 7.4 4.2 7.4C3.53726 7.4 3 6.86274 3 6.2Z" />
</svg>
