<svg fill="currentColor" xmlns="http://www.w3.org/2000/svg" viewBox="0 0 24 24">
	<path fill-rule="nonzero" d="M16.287 11.28l-1.808-1.808a.711.711 0 0 1 .002-1.009.716.716 0 0 1 1.008-.001l3.034 3.033c.139.14.208.32.207.506a.71.71 0 0 1-.207.502l-3.034 3.033a.711.711 0 0 1-1.008-.001.716.716 0 0 1-.002-1.01l1.818-1.817h-6.182a.711.711 0 0 1-.71-.714c0-.394.317-.714.71-.714h6.172zM14.62 3.668a.85.85 0 1 1 0 1.7h-5.5a2.15 2.15 0 0 0-2.15 2.15v9a2.15 2.15 0 0 0 2.15 2.15h5.5a.85.85 0 0 1 0 1.7h-5.5a3.85 3.85 0 0 1-3.85-3.85v-9a3.85 3.85 0 0 1 3.85-3.85h5.5z" />
</svg>
