<svg fill="currentColor" viewBox="0 0 21 18" version="1.1" xmlns="http://www.w3.org/2000/svg" xmlns:xlink="http://www.w3.org/1999/xlink">
    <path
        fill-rule="evenodd"
        clip-rule="evenodd"
        d="M19.9399 0.487882C19.6391 0.139564 19.1129 0.10106 18.7645 0.40188L17.1889 1.76271C16.8296 1.56299 16.416 1.44923 15.9759 1.44923H4.3092C2.92849 1.44923 1.8092 2.56852 1.8092 3.94923V13.9492C1.8092 14.2812 1.8739 14.598 1.99137 14.8878L0.431242 16.2352C0.0829239 16.536 0.0444192 17.0622 0.345239 17.4106C0.646059 17.7589 1.17229 17.7974 1.52061 17.4966L3.09626 16.1358C3.45548 16.3355 3.86906 16.4492 4.3092 16.4492H15.9759C17.3566 16.4492 18.4758 15.3299 18.4758 13.9492V3.94923C18.4758 3.61731 18.4112 3.30049 18.2937 3.0107L19.8539 1.66325C20.2022 1.36243 20.2407 0.8362 19.9399 0.487882ZM15.622 3.1159H4.30916C3.84893 3.1159 3.47583 3.48899 3.47583 3.94923V13.6058L15.622 3.1159ZM4.66315 14.7825L16.8091 4.29282V13.9492C16.8091 14.4095 16.4361 14.7825 15.9758 14.7825H4.66315Z"
    />
</svg>
