<svg fill="currentColor" viewBox="0 0 24 24" version="1.1" xmlns="http://www.w3.org/2000/svg" xmlns:xlink="http://www.w3.org/1999/xlink">
    <path d="M11.2,15.9436963 C10.7018322,15.6555218 10.3666667,15.116902 10.3666667,14.5 C10.3666667,13.5795254 11.1128588,12.8333333 12.0333333,12.8333333 C12.9538079,12.8333333 13.7,13.5795254 13.7,14.5 C13.7,15.116902 13.3648345,15.6555218 12.8666667,15.9436963 L12.8666667,17 C12.8666667,17.4602373 12.4935706,17.8333333 12.0333333,17.8333333 C11.573096,17.8333333 11.2,17.4602373 11.2,17 L11.2,15.9436963 Z M15.3666667,8.66666667 L15.3666667,6.16666667 C15.3666667,4.78595479 14.2473785,3.66666667 12.8666667,3.66666667 L11.2,3.66666667 C9.81928813,3.66666667 8.7,4.78595479 8.7,6.16666667 C8.7,6.62690396 8.32690396,7 7.86666667,7 C7.40642938,7 7.03333333,6.62690396 7.03333333,6.16666667 C7.03333333,3.86548021 8.89881354,2 11.2,2 L12.8666667,2 C15.1678531,2 17.0333333,3.86548021 17.0333333,6.16666667 L17.0333333,8.66666667 L17.8666667,8.66666667 C19.2473785,8.66666667 20.3666667,9.78595479 20.3666667,11.1666667 L20.3666667,19.5 C20.3666667,20.8807119 19.2473785,22 17.8666667,22 L6.2,22 C4.81928813,22 3.7,20.8807119 3.7,19.5 L3.7,11.1666667 C3.7,9.78595479 4.81928813,8.66666667 6.2,8.66666667 L15.3666667,8.66666667 Z M6.2,10.3333333 C5.73976271,10.3333333 5.36666667,10.7064294 5.36666667,11.1666667 L5.36666667,19.5 C5.36666667,19.9602373 5.73976271,20.3333333 6.2,20.3333333 L17.8666667,20.3333333 C18.326904,20.3333333 18.7,19.9602373 18.7,19.5 L18.7,11.1666667 C18.7,10.7064294 18.326904,10.3333333 17.8666667,10.3333333 L6.2,10.3333333 Z" id="Icon_OpenLock" ></path>
</svg>
