<svg viewBox="0 0 24 24" version="1.1" xmlns="http://www.w3.org/2000/svg" xmlns:xlink="http://www.w3.org/1999/xlink">
    <path d="M12,22 C10.6197848,22 9.32096963,21.7395859 8.10351562,21.21875 C6.88606162,20.6979141 5.82487432,19.9850306 4.91992188,19.0800781 C4.01496943,18.1751257 3.30208594,17.1139384 2.78125,15.8964844 C2.26041406,14.6790304 2,13.3802152 2,12 C2,10.6197848 2.26041406,9.32096963 2.78125,8.10351562 C3.30208594,6.88606162 4.01496943,5.82487432 4.91992188,4.91992188 C5.82487432,4.01496943 6.88606162,3.30208594 8.10351562,2.78125 C9.32096963,2.26041406 10.6197848,2 12,2 C13.3802152,2 14.6790304,2.26041406 15.8964844,2.78125 C17.1139384,3.30208594 18.1751257,4.01496943 19.0800781,4.91992188 C19.9850306,5.82487432 20.6979141,6.88606162 21.21875,8.10351562 C21.7395859,9.32096963 22,10.6197848 22,12 C22,13.3802152 21.7395859,14.6790304 21.21875,15.8964844 C20.6979141,17.1139384 19.9850306,18.1751257 19.0800781,19.0800781 C18.1751257,19.9850306 17.1139384,20.6979141 15.8964844,21.21875 C14.6790304,21.7395859 13.3802152,22 12,22 Z M12,20.5742188 C13.1849018,20.5742188 14.2981719,20.3496116 15.3398438,19.9003906 C16.3815156,19.4511696 17.2897097,18.8391966 18.0644531,18.0644531 C18.8391966,17.2897097 19.4511696,16.3815156 19.9003906,15.3398438 C20.3496116,14.2981719 20.5742188,13.1849018 20.5742188,12 C20.5742188,10.8150982 20.3496116,9.70182813 19.9003906,8.66015625 C19.4511696,7.61848437 18.8391966,6.71029033 18.0644531,5.93554688 C17.2897097,5.16080342 16.3815156,4.54883037 15.3398438,4.09960938 C14.2981719,3.65038838 13.1849018,3.42578125 12,3.42578125 C10.8150982,3.42578125 9.70182813,3.65038838 8.66015625,4.09960938 C7.61848437,4.54883037 6.71029033,5.16080342 5.93554688,5.93554688 C5.16080342,6.71029033 4.54883037,7.61848437 4.09960938,8.66015625 C3.65038838,9.70182813 3.42578125,10.8150982 3.42578125,12 C3.42578125,13.1849018 3.65038838,14.2981719 4.09960938,15.3398438 C4.54883037,16.3815156 5.16080342,17.2897097 5.93554688,18.0644531 C6.71029033,18.8391966 7.61848437,19.4511696 8.66015625,19.9003906 C9.70182813,20.3496116 10.8150982,20.5742188 12,20.5742188 Z M15.5351562,15.5351562 L15.5351562,15.5351562 C15.2546992,15.8156133 14.7999883,15.8156133 14.5195312,15.5351562 L12,13.015625 L9.48046875,15.5351562 C9.20001165,15.8156133 8.74530085,15.8156133 8.46484375,15.5351562 L8.46484375,15.5351562 C8.18438665,15.2546992 8.18438665,14.7999883 8.46484375,14.5195312 L10.984375,12 L8.46484375,9.48046875 C8.18438665,9.20001165 8.18438665,8.74530085 8.46484375,8.46484375 L8.46484375,8.46484375 C8.74530085,8.18438665 9.20001165,8.18438665 9.48046875,8.46484375 L12,10.984375 L14.5195312,8.46484375 C14.7999883,8.18438665 15.2546992,8.18438665 15.5351562,8.46484375 L15.5351562,8.46484375 C15.8156133,8.74530085 15.8156133,9.20001165 15.5351562,9.48046875 L13.015625,12 L15.5351562,14.5195312 C15.8156133,14.7999883 15.8156133,15.2546992 15.5351562,15.5351562 Z" id="Icon_Reject" ></path>
</svg>
