<svg xmlns="http://www.w3.org/2000/svg" viewBox="0 0 24 24">
    <path d="M5.15589082,13.631361 C5.34139787,13.6499117 5.50835422,13.7797666 5.56400634,13.9652736 C5.69386128,14.3733892 5.86081763,14.7815047 6.06487539,15.1525188 C6.15762891,15.3194751 6.13907821,15.5420836 6.00922327,15.6904893 C5.74951339,15.9873005 5.52690493,16.2470104 5.32284717,16.4881696 C5.06313729,16.8035316 5.081688,17.2487485 5.37849928,17.5270091 L6.47299091,18.6215007 C6.75125149,18.8997613 7.21501912,18.9368627 7.51183041,18.6771528 C7.75298958,18.4730951 8.03125016,18.2504866 8.30951074,17.9907767 C8.45791639,17.8609218 8.66197415,17.8423711 8.8474812,17.9351246 C9.21849531,18.1391824 9.62661083,18.3061387 10.0347264,18.417443 C10.2202334,18.4730951 10.3500883,18.6400514 10.368639,18.8255585 C10.3871898,19.1965726 10.4242912,19.549036 10.4428419,19.864398 C10.4799433,20.2725135 10.813856,20.5693248 11.2219715,20.5693248 L12.7802308,20.5693248 C13.1883463,20.5693248 13.522259,20.2725135 13.5593604,19.864398 C13.5964618,19.549036 13.6150125,19.1965726 13.6335632,18.8255585 C13.6521139,18.6400514 13.7819688,18.4730951 13.9674759,18.417443 C14.3755914,18.3061387 14.7837069,18.1391824 15.1547211,17.9351246 C15.3216774,17.8423711 15.5442859,17.8609218 15.6926915,17.9907767 C15.9709521,18.2319359 16.2492127,18.4730951 16.4903718,18.6771528 C16.8057338,18.9368627 17.2509508,18.918312 17.5292113,18.6215007 L18.623703,17.5270091 C18.9019636,17.2487485 18.939065,16.7849809 18.6793551,16.4881696 C18.4752973,16.2470104 18.2526889,15.9873005 17.992979,15.6904893 C17.863124,15.5235329 17.8445733,15.3194751 17.9373269,15.1525188 C18.1413846,14.7815047 18.308341,14.3733892 18.4196452,13.9652736 C18.4752973,13.7797666 18.6422537,13.6499117 18.8277607,13.631361 C19.1987748,13.6128102 19.5512382,13.5757088 19.8666002,13.5571581 C20.2747158,13.5200567 20.571527,13.186144 20.571527,12.7780285 L20.571527,11.2197692 C20.571527,10.8116537 20.2747158,10.477741 19.8666002,10.4406396 C19.5512382,10.4035382 19.1987748,10.3849875 18.8277607,10.3664368 C18.6422537,10.3478861 18.4752973,10.2180312 18.4196452,10.0325241 C18.308341,9.62440858 18.1413846,9.21629306 17.9373269,8.84527895 C17.8445733,8.6783226 17.863124,8.45571413 17.992979,8.30730849 C18.2526889,8.0104972 18.4752973,7.75078733 18.6793551,7.50962816 C18.939065,7.19426616 18.9205143,6.74904923 18.623703,6.47078865 L17.5292113,5.37629703 C17.2509508,5.09803645 16.7871831,5.06093504 16.4903718,5.32064491 C16.2492127,5.52470267 15.9895028,5.74731114 15.6926915,6.00702102 C15.5257352,6.13687595 15.3216774,6.15542666 15.1547211,6.06267313 C14.7837069,5.85861537 14.3755914,5.69165902 13.9674759,5.58035479 C13.7819688,5.52470267 13.6521139,5.35774632 13.6335632,5.17223927 C13.6150125,4.80122516 13.5779111,4.44876176 13.5593604,4.13339977 C13.522259,3.72528425 13.1883463,3.42847296 12.7802308,3.42847296 L11.2219715,3.42847296 C10.813856,3.42847296 10.4799433,3.72528425 10.4428419,4.13339977 C10.4057405,4.44876176 10.3871898,4.80122516 10.368639,5.17223927 C10.3500883,5.35774632 10.2202334,5.52470267 10.0347264,5.58035479 C9.62661083,5.69165902 9.21849531,5.85861537 8.8474812,6.06267313 C8.68052485,6.15542666 8.45791639,6.13687595 8.30951074,6.00702102 C8.01269946,5.74731114 7.75298958,5.52470267 7.51183041,5.32064491 C7.19646842,5.06093504 6.75125149,5.07948574 6.47299091,5.37629703 L5.37849928,6.47078865 C5.1002387,6.74904923 5.06313729,7.21281687 5.32284717,7.50962816 C5.52690493,7.75078733 5.74951339,8.0104972 6.00922327,8.30730849 C6.13907821,8.45571413 6.15762891,8.65977189 6.06487539,8.84527895 C5.86081763,9.21629306 5.69386128,9.62440858 5.58255704,10.0325241 C5.52690493,10.2180312 5.35994858,10.3478861 5.17444152,10.3664368 C4.80342742,10.3849875 4.45096401,10.4220889 4.13560202,10.4406396 C3.7274865,10.477741 3.43067521,10.8116537 3.43067521,11.2197692 L3.43067521,12.7780285 C3.41212451,13.186144 3.70893579,13.5200567 4.11705131,13.5571581 C4.43241331,13.5942595 4.78487671,13.6128102 5.15589082,13.631361 Z M2.00220225,12.7780285 L2.00220225,11.2197692 C2.00220225,10.0752359 2.85988964,9.12224987 4.0517192,9.01463167 C4.16329667,9.00806829 4.19366492,9.00574041 4.52023834,8.97961453 C4.76768828,8.95981854 4.92687776,8.94855755 5.03230315,8.94505307 C4.65146973,8.98313642 4.3276636,9.24427039 4.20441801,9.656668 C4.34477298,9.14203311 4.5535991,8.6289175 4.78721033,8.20644642 C4.6280692,8.52472869 4.67022568,8.94629351 4.93418781,9.24796452 C4.68767536,8.96623599 4.46179445,8.70347658 4.24781171,8.45028418 C3.48479387,7.57826379 3.56597384,6.26314827 4.36841637,5.46070574 L5.43086674,4.39930562 C6.22879434,3.54818285 7.52775081,3.48323503 8.43454144,4.23016825 C8.70567883,4.4595922 8.96843825,4.6854731 9.25016677,4.93198556 C8.93918689,4.65987817 8.50700215,4.6177138 8.1590733,4.8110224 C8.63111975,4.55139685 9.14423537,4.34257073 9.62425767,4.21212584 C9.24647264,4.32546135 8.98533867,4.64926748 8.94194834,5.10090474 C8.96952454,4.54938071 8.9877619,4.27582027 9.02023535,4.0040719 C9.12445213,2.85768738 10.0774381,2 11.2219715,2 L12.7802308,2 C13.9247641,2 14.8777501,2.85768738 14.9853683,4.04951695 C14.9919317,4.16109441 14.9942596,4.19146267 15.0203855,4.51803608 C15.0401815,4.76548603 15.0514425,4.9246755 15.0549469,5.0301009 C15.0168636,4.64926748 14.7557296,4.32546135 14.343332,4.20221576 C14.8579669,4.34257073 15.3710825,4.55139685 15.8484488,4.8139631 C15.5047476,4.62301798 15.0923766,4.66425508 14.8156939,4.87945272 L15.6926915,6.00702102 L14.7520355,4.93198556 C15.033764,4.6854731 15.2965234,4.4595922 15.5497158,4.24560946 C16.4217362,3.48259161 17.7368517,3.56377158 18.5392943,4.36621411 L19.6006944,5.42866448 C20.4518172,6.22659208 20.516765,7.52554855 19.7698318,8.43233918 C19.5404078,8.70347658 19.3145269,8.96623599 19.0680144,9.24796452 C19.3401218,8.93698464 19.3822862,8.50479989 19.1889776,8.15687105 C19.4486032,8.6289175 19.6574293,9.14203311 19.7878742,9.62205541 C19.6745387,9.24427039 19.3507325,8.98313642 18.8990953,8.93974609 C19.4506193,8.96732229 19.7241797,8.98555965 19.9959281,9.0180331 C21.1423126,9.12224987 22,10.0752359 22,11.2197692 L22,12.7780285 C22,13.9225619 21.1423126,14.8755479 19.9504831,14.9831661 C19.8389056,14.9897295 19.8085373,14.9920573 19.4819639,15.0181832 C19.234514,15.0379792 19.0753245,15.0492402 18.9698991,15.0527447 C19.3507325,15.0146613 19.6745387,14.7535274 19.7977842,14.3411297 C19.6574293,14.8557646 19.4486032,15.3688802 19.1860369,15.8462466 C19.376982,15.5025454 19.3357449,15.0901744 19.1205473,14.8134917 L17.992979,15.6904893 L19.0680144,14.7498332 C19.3145269,15.0315618 19.5404078,15.2943212 19.7543905,15.5475136 C20.5174084,16.419534 20.4362284,17.7346495 19.6337859,18.537092 L18.5713355,19.5984921 C17.7734079,20.4496149 16.4744514,20.5145627 15.5676608,19.7676295 C15.3607728,19.5925704 15.1790836,19.4359418 14.7630536,19.0753543 C15.0630154,19.3379196 15.4952001,19.3800839 15.843129,19.1867753 C15.3710825,19.4464009 14.8579669,19.655227 14.3779446,19.7856719 C14.7557296,19.6723364 15.0168636,19.3485303 15.0602539,18.896893 C15.0326777,19.448417 15.0144404,19.7219775 14.9819669,19.9937258 C14.8777501,21.1401104 13.9247641,21.9977977 12.7802308,21.9977977 L11.2219715,21.9977977 C10.0774381,21.9977977 9.12445213,21.1401104 9.01683392,19.9482808 C9.01027054,19.8367033 9.00794266,19.8063351 8.98181679,19.4797617 C8.96202079,19.2323117 8.9507598,19.0731222 8.94725533,18.9676968 C8.98533867,19.3485303 9.24647264,19.6723364 9.65887025,19.795582 C9.14423537,19.655227 8.63111975,19.4464009 8.20864867,19.2127897 C8.52693094,19.3719308 8.94849576,19.3297743 9.30818138,19.0121444 C9.14001154,19.1696303 8.99363772,19.2981686 8.81862493,19.4460243 C8.74632298,19.507107 8.48949859,19.7211273 8.45248644,19.7521883 C7.58046604,20.5152061 6.26535052,20.4340262 5.46290799,19.6315836 L4.40150788,18.5691333 C3.5503851,17.7712057 3.48543728,16.4722492 4.2323705,15.5654586 C4.46179445,15.2943212 4.68767536,15.0315618 4.93418781,14.7498332 C4.66208042,15.0608131 4.61991605,15.4929979 4.81322465,15.8409267 C4.57030738,15.3992589 4.36575441,14.9106046 4.19577739,14.3757423 C4.3091129,14.7535274 4.63291902,15.0146613 5.08455628,15.0580517 C4.53303226,15.0304755 4.25947182,15.0122381 3.95014675,14.9758469 C2.82177295,14.8737691 1.9503101,13.8872074 2.00220225,12.7780285 Z M12.0006893,16.2847296 C9.63391779,16.2847296 7.71527041,14.3660822 7.71527041,11.9993107 C7.71527041,9.63253922 9.63391779,7.71389184 12.0006893,7.71389184 C14.3674608,7.71389184 16.2861082,9.63253922 16.2861082,11.9993107 C16.2861082,14.3660822 14.3674608,16.2847296 12.0006893,16.2847296 Z M12.0006893,14.8562566 C13.5785369,14.8562566 14.8576352,13.5771584 14.8576352,11.9993107 C14.8576352,10.4214631 13.5785369,9.1423648 12.0006893,9.1423648 C10.4228416,9.1423648 9.14374337,10.4214631 9.14374337,11.9993107 C9.14374337,13.5771584 10.4228416,14.8562566 12.0006893,14.8562566 Z"/>
</svg>
