<svg fill="currentColor" xmlns="http://www.w3.org/2000/svg" viewBox="0 0 24 24">
    <path d="M15.1365279,6.44161208 L14.9474277,4.67313408 L18.6320694,1 L19.2524414,4.88415126 L23,5.35428904 L19.2868324,9.05585994 L17.5863998,8.87305266 C18.4718281,10.2096644 18.9872634,11.8112745 18.9872634,13.5328949 C18.9872634,18.2091479 15.184535,22 10.4936317,22 C5.80272844,22 2,18.2091479 2,13.5328949 C2,8.8566419 5.80272844,5.06578983 10.4936317,5.06578983 C12.207123,5.06578983 13.8021058,5.57160013 15.1365279,6.44161208 Z M14.8234399,8.11390968 C13.6358051,7.16965348 12.1308351,6.60526348 10.4936317,6.60526348 C6.65561995,6.60526348 3.54429667,9.70686972 3.54429667,13.5328949 C3.54429667,17.3589201 6.65561995,20.4605263 10.4936317,20.4605263 C14.3316435,20.4605263 17.4429667,17.3589201 17.4429667,13.5328949 C17.4429667,11.8935825 16.8717868,10.3872597 15.9169971,9.20091075 L14.8186329,10.300763 C15.4968219,11.2011665 15.8986701,12.3202489 15.8986701,13.5328949 C15.8986701,16.5086923 13.478752,18.9210527 10.4936317,18.9210527 C7.50851145,18.9210527 5.08859335,16.5086923 5.08859335,13.5328949 C5.08859335,10.5570975 7.50851145,8.14473713 10.4936317,8.14473713 C11.7053383,8.14473713 12.8239179,8.54221545 13.7253243,9.21351306 L14.8234399,8.11390968 Z M12.6201734,10.3201612 C12.0103582,9.91822693 11.2794093,9.68421078 10.4936317,9.68421078 C8.36140295,9.68421078 6.63289002,11.4073254 6.63289002,13.5328949 C6.63289002,15.6584645 8.36140295,17.381579 10.4936317,17.381579 C12.6258605,17.381579 14.3543734,15.6584645 14.3543734,13.5328949 C14.3543734,12.7473686 14.1183019,12.0168075 13.713025,11.4078688 L12.5845805,12.5378422 C12.7291342,12.8391623 12.8100767,13.1766055 12.8100767,13.5328949 C12.8100767,14.8082366 11.772969,15.8421054 10.4936317,15.8421054 C9.21429445,15.8421054 8.17718669,14.8082366 8.17718669,13.5328949 C8.17718669,12.2575532 9.21429445,11.2236844 10.4936317,11.2236844 C10.85146,11.2236844 11.1903383,11.3045651 11.4928741,11.4489879 L12.6201734,10.3201612 Z M10.4936317,14.3026317 C10.9200775,14.3026317 11.26578,13.9580088 11.26578,13.5328949 C11.26578,13.107781 10.9200775,12.7631581 10.4936317,12.7631581 C10.067186,12.7631581 9.72148337,13.107781 9.72148337,13.5328949 C9.72148337,13.9580088 10.067186,14.3026317 10.4936317,14.3026317 Z M17.5793265,4.22659953 L16.5561593,5.24657128 L16.7777184,7.22118647 L18.71948,7.45080718 L19.7665577,6.40699967 L17.8267955,6.17538572 L17.5793265,4.22659953 Z"/>
</svg>
