<svg viewBox="0 0 24 24" version="1.1" xmlns="http://www.w3.org/2000/svg" xmlns:xlink="http://www.w3.org/1999/xlink">
    <path d="M20.4615385,6.54615385 L20.4615385,5.00769231 C20.4615385,4.58285788 20.1171421,4.23846154 19.6923077,4.23846154 L4.30769231,4.23846154 C3.88285788,4.23846154 3.53846154,4.58285788 3.53846154,5.00769231 L3.53846154,6.54615385 L20.4615385,6.54615385 Z M20.4615385,8.08461538 L3.53846154,8.08461538 L3.53846154,18.8538462 C3.53846154,19.2786806 3.88285788,19.6230769 4.30769231,19.6230769 L19.6923077,19.6230769 C20.1171421,19.6230769 20.4615385,19.2786806 20.4615385,18.8538462 L20.4615385,8.08461538 Z M4.30769231,2.7 L19.6923077,2.7 C20.966811,2.7 22,3.73318904 22,5.00769231 L22,18.8538462 C22,20.1283494 20.966811,21.1615385 19.6923077,21.1615385 L4.30769231,21.1615385 C3.03318904,21.1615385 2,20.1283494 2,18.8538462 L2,5.00769231 C2,3.73318904 3.03318904,2.7 4.30769231,2.7 Z M11.5341748,16.8901643 C11.344183,17.2701478 10.8821268,17.4241665 10.5021434,17.2341748 C10.1221599,17.044183 9.9681412,16.5821268 10.1581329,16.2021434 L12.4658252,11.5867588 C12.655817,11.2067753 13.1178732,11.0527566 13.4978566,11.2427483 C13.8778401,11.43274 14.0318588,11.8947962 13.8418671,12.2747797 L11.5341748,16.8901643 Z M15.0171478,16.0344727 L17.5092786,13.8700286 L15.0133991,11.6699395 C14.7326169,11.4224333 14.7056415,10.9941709 14.9531477,10.7133888 C15.200654,10.4326067 15.6289163,10.4056312 15.9096984,10.6531374 L18.9866215,13.3654098 C19.2942213,13.6365555 19.2924571,14.1166144 18.9828727,14.385492 L15.9059497,17.057835 C15.623356,17.3032708 15.1953035,17.2731484 14.9498676,16.9905548 C14.7044318,16.7079611 14.7345542,16.2799086 15.0171478,16.0344727 Z M8.98286245,16.0344727 C9.26545613,16.2799086 9.2955785,16.7079611 9.05014265,16.9905548 C8.8047068,17.2731484 8.3766543,17.3032708 8.09406063,17.057835 L5.01713755,14.385492 C4.70755318,14.1166144 4.70578899,13.6365555 5.01338879,13.3654098 L8.09031187,10.6531374 C8.371094,10.4056312 8.79935633,10.4326067 9.04686256,10.7133888 C9.29436879,10.9941709 9.26739334,11.4224333 8.98661121,11.6699395 L6.49073173,13.8700286 L8.98286245,16.0344727 Z" id="Icon_UIPattern" ></path>
</svg>
