<svg viewBox="0 0 24 24" version="1.1" xmlns="http://www.w3.org/2000/svg" xmlns:xlink="http://www.w3.org/1999/xlink">
    <path d="M12,22 C10.6197848,22 9.32096963,21.7395859 8.10351562,21.21875 C6.88606162,20.6979141 5.82487432,19.9850306 4.91992188,19.0800781 C4.01496943,18.1751257 3.30208594,17.1139384 2.78125,15.8964844 C2.26041406,14.6790304 2,13.3802152 2,12 C2,10.6197848 2.26041406,9.32096963 2.78125,8.10351562 C3.30208594,6.88606162 4.01496943,5.82487432 4.91992188,4.91992188 C5.82487432,4.01496943 6.88606162,3.30208594 8.10351562,2.78125 C9.32096963,2.26041406 10.6197848,2 12,2 C13.3802152,2 14.6790304,2.26041406 15.8964844,2.78125 C17.1139384,3.30208594 18.1751257,4.01496943 19.0800781,4.91992188 C19.9850306,5.82487432 20.6979141,6.88606162 21.21875,8.10351562 C21.7395859,9.32096963 22,10.6197848 22,12 C22,13.3802152 21.7395859,14.6790304 21.21875,15.8964844 C20.6979141,17.1139384 19.9850306,18.1751257 19.0800781,19.0800781 C18.1751257,19.9850306 17.1139384,20.6979141 15.8964844,21.21875 C14.6790304,21.7395859 13.3802152,22 12,22 Z M12,20.5742188 C13.1849018,20.5742188 14.2981719,20.3496116 15.3398438,19.9003906 C16.3815156,19.4511696 17.2897097,18.8391966 18.0644531,18.0644531 C18.8391966,17.2897097 19.4511696,16.3815156 19.9003906,15.3398438 C20.3496116,14.2981719 20.5742188,13.1849018 20.5742188,12 C20.5742188,10.8150982 20.3496116,9.70182813 19.9003906,8.66015625 C19.4511696,7.61848437 18.8391966,6.71029033 18.0644531,5.93554688 C17.2897097,5.16080342 16.3815156,4.54883037 15.3398438,4.09960938 C14.2981719,3.65038838 13.1849018,3.42578125 12,3.42578125 C10.8150982,3.42578125 9.70182813,3.65038838 8.66015625,4.09960938 C7.61848437,4.54883037 6.71029033,5.16080342 5.93554688,5.93554688 C5.16080342,6.71029033 4.54883037,7.61848437 4.09960938,8.66015625 C3.65038838,9.70182813 3.42578125,10.8150982 3.42578125,12 C3.42578125,13.1849018 3.65038838,14.2981719 4.09960938,15.3398438 C4.54883037,16.3815156 5.16080342,17.2897097 5.93554688,18.0644531 C6.71029033,18.8391966 7.61848437,19.4511696 8.66015625,19.9003906 C9.70182813,20.3496116 10.8150982,20.5742188 12,20.5742188 Z M11.0820312,15.3984375 C11.0820312,15.1249986 11.1764313,14.8938812 11.3652344,14.7050781 C11.5540374,14.5162751 11.7851549,14.421875 12.0585938,14.421875 C12.3190117,14.421875 12.5436188,14.5162751 12.7324219,14.7050781 C12.9212249,14.8938812 13.015625,15.1249986 13.015625,15.3984375 C13.015625,15.6718764 12.9212249,15.906249 12.7324219,16.1015625 C12.5436188,16.296876 12.3190117,16.3945312 12.0585938,16.3945312 C11.7851549,16.3945312 11.5540374,16.296876 11.3652344,16.1015625 C11.1764313,15.906249 11.0820312,15.6718764 11.0820312,15.3984375 Z M14.8710938,9.91015625 C14.8710938,10.4440131 14.7115901,10.906248 14.3925781,11.296875 C14.0735661,11.687502 13.7447934,12.0520816 13.40625,12.390625 C13.1588529,12.651043 12.9960941,12.8691397 12.9179688,13.0449219 C12.8398434,13.220704 12.8007813,13.3802076 12.8007813,13.5234375 L11.4140625,13.5234375 C11.4270834,13.1328105 11.4954421,12.8138033 11.6191406,12.5664063 C11.7428392,12.3190092 11.9609359,12.0260434 12.2734375,11.6875 C12.5208346,11.4140611 12.7714831,11.1471367 13.0253906,10.8867188 C13.2792981,10.6263008 13.40625,10.3072936 13.40625,9.9296875 C13.40625,9.56510234 13.2890637,9.26562617 13.0546875,9.03125 C12.8203113,8.79687383 12.4947938,8.6796875 12.078125,8.6796875 C11.6354145,8.6796875 11.3001313,8.81966006 11.0722656,9.09960938 C10.8443999,9.37955869 10.7109377,9.7278625 10.671875,10.1445313 L9.12890625,10.1445313 C9.22005254,9.32421465 9.52929424,8.65690361 10.0566406,8.14257813 C10.583987,7.62825264 11.2578084,7.37109375 12.078125,7.37109375 C12.9505252,7.37109375 13.6341121,7.59895605 14.1289063,8.0546875 C14.6237004,8.51041895 14.8710938,9.12890234 14.8710938,9.91015625 Z" id="Icon_Unknown" ></path>
</svg>
