<svg xmlns="http://www.w3.org/2000/svg" width="20" height="20" viewBox="0 0 20 20"><path fill="currentColor" fill-rule="evenodd" d="M5.797 12.692v-1.5H3a.5.5 0 01-.5-.5V5a.5.5 0 01.5-.5h9.846a.5.5 0 01.5.5v5.692a.5.5 0 01-.5.5H7.975l-.437.423-1.741 1.688zm7.049 0H8.582l-2.59 2.51c-.634.615-1.695.165-1.695-.718v-1.792H3a2 2 0 01-2-2V5a2 2 0 012-2h9.846a2 2 0 012 2v5.692a2 2 0 01-2 2m-1.428 3.323H7.23l1.56-1.5h3.217l.432.402 1.763 1.643v-2.045H17a.5.5 0 00.5-.5V8.7a.5.5 0 00-.5-.5h-.77V6.7H17a2 2 0 012 2v5.315a2 2 0 01-2 2h-1.297v1.694c0 .874-1.042 1.327-1.681.732z" clip-rule="evenodd"/></svg>