<svg xmlns="http://www.w3.org/2000/svg" width="20" height="20" viewBox="0 0 20 20"><path fill="currentColor" fill-rule="evenodd" d="M2.75 2a.75.75 0 01.75.75v14.5a.75.75 0 01-1.5 0V2.75A.75.75 0 012.75 2m12.379 7.25H5.75a.75.75 0 000 1.5h9.379l-.01.01-.016.016-.015.015-.015.015-.015.015-.015.015-.015.015-.015.015-.015.015-.015.015-.015.015-.015.014-.014.015-.015.015-.015.015-.015.015-.015.014-.014.015-.015.015-.015.015-.014.014-.015.015-.015.015-.014.014-.015.015-.014.014-.015.015-.014.014-.015.015-.014.014-.015.015-.014.014-.015.014-.014.015-.014.014-.015.014-.014.015-.014.014-.014.014-.015.014-.014.015-.014.014-.014.014-.014.014-.014.014-.014.014-.014.014-.014.014-.014.014-.014.014-.014.014-.014.014-.014.014-.014.014-.014.014-.014.014-.013.013-.014.014-.014.014-.014.014-.013.013-.014.014-.014.014-.013.013-.014.014-.014.013-.013.014-.014.013-.013.014-.013.013-.014.014-.013.013-.014.014-.013.013-.013.013-.014.014-.013.013-.013.013-.013.013-.014.013-.013.014-.013.013-.013.013-.013.013-.013.013-.013.013-.013.013-.013.013-.013.013-.013.013-.013.013-.013.013-.013.013-.013.012-.012.013-.013.013-.013.013-.013.012-.012.013-.013.013-.012.012-.013.013-.012.012-.013.013-.013.012-.012.013-.012.012-.013.013-.012.012-.013.013-.012.012-.012.012-.013.012-.012.013-.012.012-.012.012-.012.012-.012.012-.013.012-.012.013-.012.012-.012.012-.012.012-.012.012-.012.011-.011.012-.012.012-.012.012-.012.012-.012.012-.012.011-.011.012-.012.012-.012.012-.011.011-.012.012-.011.011-.012.012-.011.011-.012.012-.011.011-.012.012-.011.011-.012.011-.01.012-.012.011-.011.011-.012.011-.01.012-.012.01-.011.012-.011.011-.011.011-.011.011-.011.011-.011.011-.011.011-.011.011-.011.011-.011.01-.01.012-.012.01-.01.011-.011.011-.01.01-.011.011-.011.011-.01.01-.011.011-.01.01-.011.011-.01.01-.011.011-.01.01-.011.01-.01.011-.01.01-.011.01-.01.011-.01.01-.01.01-.01.01-.01.01-.01.01-.011.01-.01.01-.01.01-.01.01-.01.01-.01.01-.01.01-.01.01-.01.01-.009.01-.01.01-.01.01-.009.009-.01.01-.01.009-.009.01-.01.01-.009.008-.01.01-.009.01-.009.009-.01.01-.008.008-.01.01-.009.009-.01.01-.008.008-.01.01-.009.008-.009.01-.009.009-.009.009-.009.008-.009.01-.008.008-.01.01-.008.008-.009.009-.009.008-.008.01-.009.008-.009.009-.008.008-.009.009-.008.008-.009.009-.008.008-.009.009-.008.008-.009.008-.008.009-.008.008-.008.008-.008.008-.009.009-.008.008-.008.008-.008.008-.008.008-.008.008-.008.008-.008.008-.008.008-.008.008-.007.007-.008.008-.008.008-.008.008-.007.007-.008.008-.007.007-.008.008-.007.007-.008.008-.007.007-.008.008-.007.007-.008.007-.007.008-.007.007-.007.007-.007.007-.008.007-.007.007-.007.008-.007.007-.007.006-.006.007-.007.007-.007.007-.007.007-.007.007-.007.007-.006.006-.007.007-.007.006-.006.007-.007.007-.006.006-.007.007-.006.006-.007.006-.006.007-.006.006-.007.006-.006.007-.006.006-.006.006-.006.006-.006.006-.006.006-.006.006-.006.006-.006.006-.006.006-.006.006-.006.006-.005.005-.006.006-.006.006-.006.005-.005.006-.006.006-.005.005-.006.006-.005.005-.005.005-.006.006-.005.005-.005.005-.006.006-.005.005-.005.005-.005.005-.005.005-.005.005-.005.005-.005.005-.005.005-.005.005-.005.005-.005.004-.004.005-.005.005-.005.005-.004.004-.005.005-.004.004-.005.005-.004.004-.005.005-.004.004-.004.004-.005.004-.004.005-.004.004-.004.004-.004.004-.004.004-.004.004-.004.004-.004.004-.004.004-.004.004-.004.004-.003.003-.004.004-.004.004-.004.003-.003.004-.004.003-.003.004-.004.004-.003.003-.003.003-.004.004-.003.003-.003.003-.003.003-.004.004-.003.003-.003.003-.003.003-.003.003-.003.003-.003.002-.002.003-.003.003-.003.003-.003.003-.002.002-.003.003-.002.002-.003.003-.003.002-.002.003-.002.002-.003.003-.002.002-.002.002-.002.002-.003.002-.002.003-.002.002-.002.002-.002.002-.002.002-.002.002-.002.002-.001.001-.002.002-.002.002-.002.001-.001.002-.002.002-.001.001-.002.002-.001.001-.002.002-.002.002-.002.001v.002h-.002l-.001.002h-.001l-.001.002h-.001v.002h-.002v.002h-.001l-.001.001-.002.001v.001l-.001.001h-.001v.001l-.001.001.53.53-.53-.53a.75.75 0 001.06 1.061l-.53-.53.53.53h.001v-.001h.001v-.001h.001v-.001l.001-.001.002-.001v-.001h.001v-.002h.002v-.002h.002v-.001l.002-.002.002-.002.001-.001.001-.001.002-.002h.001l.002-.002v-.002l.002-.001.002-.002.002-.001.001-.002.002-.002.002-.001.001-.002.002-.002.002-.002.002-.002.002-.002.002-.002.002-.002.002-.002.002-.002.002-.002.002-.002.003-.002.002-.003.002-.002.003-.003.002-.002.003-.002.002-.003.003-.003.002-.002.003-.003.003-.002.002-.003.003-.003.003-.003.003-.003.003-.003.003-.003.003-.003.003-.003.003-.003.003-.003.003-.003.004-.003.003-.004.003-.003.004-.003.003-.004.004-.003.003-.004.004-.003.003-.004.004-.004.003-.003.004-.004.004-.004.004-.004.004-.003.003-.004.004-.004.004-.004.004-.004.004-.004.004-.004.005-.005.004-.004.004-.004.004-.004.005-.005.004-.004.004-.004.005-.005.004-.004.005-.005.004-.004.005-.005.005-.005.004-.004.005-.005.005-.005.005-.005.005-.004.005-.005.004-.005.005-.005.005-.005.006-.005.005-.005.005-.006.005-.005.005-.005.006-.005.005-.006.005-.005.006-.005.005-.006.005-.005.006-.006.006-.005.005-.006.006-.006.005-.005.006-.006.006-.006.006-.005.005-.006.006-.006.006-.006.006-.006.006-.006.006-.006.006-.006.006-.006.007-.007.006-.006.006-.006.006-.006.007-.007L13 15l.007-.006.006-.007.006-.006.007-.007.006-.006.007-.007.007-.006.006-.007.007-.007.007-.007.006-.006.007-.007.007-.007.007-.007.007-.007.007-.007.007-.007.007-.007.007-.007.007-.007.008-.007.007-.007.007-.008.007-.007.008-.007.007-.008.007-.007.008-.008.007-.007.008-.008.007-.007.008-.008.007-.007.008-.008.008-.008.008-.007.007-.008.008-.008.008-.008.008-.008.008-.007.008-.008.008-.008.008-.008.008-.008.008-.009.008-.008.008-.008.008-.008.009-.008.008-.009.008-.008.008-.008.009-.009.008-.008.009-.009.008-.008.009-.009.008-.008.009-.009.009-.008.008-.01.009-.008.009-.009.008-.008.01-.01.008-.008.01-.009.008-.009.009-.009.009-.009.009-.009.009-.009.01-.009.008-.01.01-.008.009-.01.009-.009.01-.009.008-.01.01-.009.01-.009.009-.01.009-.009.01-.01.009-.009.01-.01.01-.009.009-.01.01-.01.009-.009.01-.01.01-.01.01-.01.01-.009.009-.01.01-.01.01-.01.01-.01.01-.01.01-.01.01-.01.01-.01.01-.01.01-.01.01-.01.01-.01.01-.01.011-.01.01-.011.01-.01.011-.01.01-.011.01-.01.011-.011.01-.01L14 14l.01-.01.011-.011.011-.011.01-.01.011-.011.011-.011.011-.01.01-.012.012-.01.01-.011.011-.011.011-.011.011-.011.011-.011.011-.011.011-.011.011-.011.011-.011.012-.011.01-.012.012-.01.011-.012.011-.011.012-.012.011-.01.011-.012.012-.012.011-.011.012-.011.011-.012.012-.011.011-.012.012-.012.011-.011.012-.012.012-.011.011-.012.012-.012.012-.012.012-.011.011-.012.012-.012.012-.012.012-.012.012-.012.012-.012.012-.012.012-.012.012-.012.012-.012.012-.012.012-.012.012-.012.013-.012.012-.013.012-.012.012-.012.013-.013.012-.012.012-.012.013-.012.012-.013.013-.012.012-.013.013-.012.012-.013.013-.012.012-.013.013-.013.012-.012.013-.013.013-.013.013-.012.012-.013.013-.013.013-.013.013-.013.013-.012.013-.013.012-.013.013-.013.013-.013.013-.013.013-.013.014-.013.013-.013.013-.014.013-.013.013-.013.013-.013.013-.013.014-.013.013-.014.013-.013.014-.013.013-.014.013-.013.014-.014.013-.013.014-.013.013-.014.014-.013.013-.014.014-.013.013-.014.014-.014.013-.013.014-.014.014-.014.014-.013.013-.014.014-.014.014-.014.014-.014.014-.013.014-.014.013-.014.014-.014.014-.014.014-.014.014-.014.014-.014.014-.014.014-.014.014-.014.014-.014.015-.014.014-.015.014-.014.014-.014.014-.014.015-.014.014-.015.014-.014.015-.014.014-.015.014-.014.015-.015.014-.014.015-.014.014-.015.015-.014.014-.015.015-.015.014-.014.015-.015.015-.014.014-.015.015-.015.015-.014.014-.015.015-.015.015-.015.015-.014.014-.015L16 12l.015-.015.015-.015.015-.015.015-.015.015-.014.015-.015.015-.016.015-.014.015-.015.015-.016.015-.015.015-.015.015-.015.015-.015.015-.015.016-.015.015-.016.015-.015.015-.015.015-.015.016-.016.015-.015.015-.015.016-.016.015-.015.016-.015.015-.016.015-.015.016-.016.015-.015.016-.016.015-.015.016-.016.016-.015.015-.016.016-.016.015-.015.016-.016.016-.016.015-.015.016-.016.016-.016.016-.016.015-.015.016-.016.016-.016.016-.016.016-.015.016-.016.015-.016.016-.016.016-.016.016-.016.016-.016.016-.016.016-.016.016-.016.016-.016.016-.016.017-.016.016-.016.016-.017.016-.016.016-.016.016-.016.017-.016.016-.016.016-.017.016-.016.016-.016.017-.017.016-.016.016-.016.017-.017.016-.016.017-.016.016-.017.016-.016.017-.017.016-.016.017-.017.016-.016.017-.017.016-.016.017-.017.016-.016.017-.017.017-.016.016-.017.017-.017.016-.016.017-.017.017-.017L18 10l-.53-.53-4.95-4.95a.75.75 0 10-1.06 1.06z" clip-rule="evenodd"/></svg>