<svg xmlns="http://www.w3.org/2000/svg" width="12" height="12" viewBox="0 0 12 12"><path fill="currentColor" fill-rule="evenodd" d="M1.5 1a.5.5 0 01.5.5v9a.5.5 0 01-1 0v-9a.5.5 0 01.5-.5m7.59 4.5H3.5a.5.5 0 000 1h5.59l-.004.004-.009.008-.008.009-.008.008-.009.008-.008.009-.009.008-.008.009-.008.008-.009.008-.008.009-.008.008-.009.008-.008.009-.008.008-.008.008-.009.008-.008.009-.008.008-.008.008-.009.008-.008.008-.008.009-.008.008-.008.008-.008.008-.008.008-.008.008-.009.008-.008.008-.008.008-.008.008-.008.008-.008.008-.008.008-.008.008-.008.008-.008.008-.008.008-.008.008-.007.008-.008.008-.008.008-.008.008-.008.008-.008.007-.008.008-.007.008-.008.008-.008.008-.008.007-.008.008-.007.008-.008.008-.008.007-.007.008-.008.008-.008.007-.007.008-.008.008-.008.007-.007.008L8.588 7l-.007.008-.008.008-.007.007-.008.008-.007.007-.008.008-.007.007-.008.008-.007.007-.008.007-.007.008-.008.007-.007.008-.007.007-.008.007-.007.008-.007.007-.008.007-.007.008-.007.007-.007.007-.008.007-.007.008-.007.007-.007.007-.008.007-.007.007-.007.007-.007.008-.007.007-.007.007-.007.007-.007.007-.007.007-.007.007-.007.007-.007.007-.007.007-.007.007-.007.007-.007.007-.007.007-.007.007-.007.007-.007.006-.007.007-.006.007-.007.007-.007.007-.007.007-.007.006-.006.007-.007.007-.007.006-.007.007-.006.007-.007.006-.007.007-.006.007-.007.006-.006.007-.007.007-.006.006-.007.007-.007.006-.006.007-.007.006-.006.007-.006.006-.007.007-.006.006-.007.006-.006.007-.006.006-.007.006-.006.007-.006.006-.007.006-.006.007-.006.006-.007.006-.006.006-.006.007-.006.006-.006.006-.006.006-.007.006-.006.006-.006.006-.006.006-.006.007-.006.006-.006.006-.006.006-.006.006-.006.006-.006.006-.006.005-.006.006-.006.006-.005.006-.006.006-.006.006-.006.006-.006.005-.006.006-.005.006-.006.006-.006.005-.005.006-.006.006-.006.005-.005.006-.006.006-.006.005-.005.006-.006.006-.005.005-.006.006-.005.005-.006.006-.005.005-.006.006-.005.005-.006.005-.005.006-.005.005-.006.006-.005.005-.006.005-.005.005-.005.006-.005.005-.006.005-.005.005-.005.006-.005.005-.005.005-.005.005-.006.005-.005.005-.005.005-.005.005-.005.006-.005.005-.005.005-.005.004-.005.005-.005.005-.005.005-.005.005-.004.005-.005.005-.005.005-.005.005-.005.004-.004.005-.005.005-.005.005-.005.004L7.59 8l-.005.005-.005.004-.004.005-.005.005-.005.004-.004.005-.005.004-.004.005-.005.004-.004.005-.005.004-.004.005-.004.004-.005.004-.004.005-.005.004-.004.005-.004.004-.004.004-.005.004-.004.005-.004.004-.004.004-.005.004-.004.004-.004.005-.004.004-.004.004-.004.004-.004.004-.004.004-.004.004-.004.004-.004.004-.004.004-.004.004-.004.004-.004.004-.004.003-.004.004-.003.004-.004.004-.004.004-.004.003-.003.004-.004.004-.004.003-.003.004-.004.004-.004.003-.003.004-.004.003-.003.004-.004.004-.003.003-.004.003-.003.004-.004.003-.003.004-.003.003-.004.003-.003.004-.003.003-.004.003-.003.004-.003.003-.004.003-.003.003-.003.004-.003.003-.003.003-.003.003-.003.003-.003.003-.003.003-.003.003-.003.003-.003.003-.003.003-.003.003-.003.003-.003.003-.003.003-.003.002-.003.003-.002.003-.003.003-.003.002-.002.003-.003.003-.003.002-.002.003-.003.003-.003.002-.002.003-.003.002-.002.003-.003.002-.002.003-.003.002-.002.003-.002.002-.003.002-.002.003-.003.002-.002.002-.002.003-.002.002-.003.002-.002.002-.002.003-.002.002-.002.002-.002.002-.002.002-.002.002-.002.002-.002.002-.002.002-.002.002-.002.002-.002.002-.002.002-.002.002-.002.001-.002.002-.001.002-.002.002-.002.001-.001.002-.002.002-.002.001-.001.002-.002.002-.002.001-.001.002-.002.001-.001.002-.002.001-.001.002-.002.001v.002H7.15l-.002.002v.002h-.002l-.002.002v.001l-.002.002h-.001l-.001.002-.001.001-.002.001v.001l-.002.001v.001l-.002.001v.001l-.002.001v.001l-.001.001-.001.001h-.001l-.001.002-.002.001v.001h-.001v.001l-.001.001h-.001v.001H7.12v.001l-.001.001h-.001v.001h-.001v.001h-.001v.001h-.001v.001h-.001l.353.354-.353-.353a.5.5 0 10.707.707l-.354-.354.354.354.001-.001V9.18h.001v-.001h.001v-.001h.001l.001-.001v-.001h.001l.001-.001.001-.002h.001l.002-.002.001-.001v-.001h.002v-.002h.002v-.002h.001l.001-.002h.001l.001-.002h.001l.002-.002.002-.002.001-.001.001-.001.001-.002h.002V9.15l.002-.001.001-.002.002-.001.001-.001.002-.002.001-.001.001-.002.002-.001.001-.002.002-.001.001-.002.002-.001.002-.002.001-.001.002-.002.002-.002.001-.001.002-.002.002-.002.002-.002.001-.002.002-.001.002-.002.002-.002.002-.002.002-.002.002-.002.002-.002.002-.002.002-.002.002-.002.002-.002.002-.002.002-.002.002-.002.002-.003.003-.002.002-.002.002-.002.002-.002.003-.003.002-.002.002-.002.003-.003.002-.002.002-.003.003-.002.002-.002.003-.003.002-.002.003-.003.002-.003.003-.002.003-.003.002-.002.003-.003.003-.003.002-.002.003-.003.003-.003.003-.003.002-.003.003-.002.003-.003.003-.003.003-.003.003-.003.003-.003L8 9.003 8.004 9l.003-.003.003-.003.003-.003.003-.003.003-.003.003-.003.003-.003.003-.004.004-.003.003-.003.003-.003.003-.003.004-.004.003-.003.003-.003.004-.004.003-.003.003-.004.004-.003.003-.003.004-.004.003-.003.004-.004.003-.003.004-.004.003-.004.004-.003.004-.004.003-.004.004-.003.004-.004.003-.004.004-.003.004-.004.004-.004.004-.004.003-.004.004-.003.004-.004.004-.004.004-.004.004-.004.004-.004.004-.004.004-.004.004-.004.004-.004.004-.004.004-.004.004-.004.004-.004.005-.005.004-.004.004-.004.004-.004.004-.005.005-.004.004-.004.004-.004.005-.005.004-.004.004-.004.005-.005.004-.004.005-.005.004-.004.004-.005.005-.004.004-.005.005-.004.005-.005.004-.004.005-.005.004-.005.005-.004.005-.005.004-.005.005-.004.005-.005.005-.005.004-.005.005-.004.005-.005.005-.005.005-.005.005-.005.004-.005.005-.005.005-.004.005-.005.005-.005.005-.005.005-.005.005-.005.005-.005.005-.006.006-.005.005-.005.005-.005.005-.005.005-.005.005-.005.006-.006.005-.005.005-.005.005-.005.006-.006.005-.005.005-.005.006-.006.005-.005.005-.006.006-.005.005-.005.006-.006.005-.005.006-.006.005-.005.006-.006.005-.005.006-.006.005-.006.006-.005.006-.006.005-.005.006-.006.006-.006.005-.005.006-.006.006-.006.006-.006.005-.005.006-.006.006-.006.006-.006.006-.006.006-.006.005-.006.006-.005.006-.006.006-.006.006-.006.006-.006.006-.006.006-.006.006-.006.006-.006.006-.006.006-.007.007-.006.006-.006.006-.006.006-.006.006-.006.006-.007.007-.006.006-.006.006-.006.006-.007.007-.006.006-.006.006-.006.007-.007.006-.006.006-.007.007-.006.006-.006.007-.007.006-.006.007-.007.006-.006.007-.007.006-.006.007-.007.006-.006.007-.007.006-.007.007-.006.007-.007.006-.006.007-.007.007-.007.006-.006.007-.007.007-.007.006-.007.007-.006.007-.007.007-.007.007-.007.006-.007.007-.006.007-.007.007-.007.007-.007.007-.007.007-.007.007-.007.007-.007.007-.007.007-.007.007-.007.007-.007.007-.007.007-.007.007-.007.007-.007.007-.007.007-.007.007-.008.008-.007.007-.007.007-.007.007-.007.007-.008.008-.007.007-.007.007-.007.007-.008.008-.007.007-.007.007-.008.008-.007.007-.007.008-.008.007-.007.007-.007.008-.008.007-.007.008-.008.007-.007.008-.008.007-.007.008-.008.007-.007.008-.008.007-.007.008-.008.008-.008.007-.007.008-.008.007-.008.008-.007.008-.008.007-.008.008-.007.008-.008.008-.008.007-.007.008-.008.008-.008.008-.008.008-.008.007-.007.008-.008.008-.008.008-.008.008-.008.008-.008.008-.008.007-.008.008-.008.008-.008.008-.008.008-.007.008-.008.008-.008.008-.009.008-.008.008-.008.009-.008.008-.008.008-.008.008-.008.008-.008.008-.008.008-.008.008-.009.009-.008.008-.008.008-.008.008-.008.008-.009.009-.008.008-.008.008-.008.009-.009.008-.008.008-.008.008-.009.009-.008.008-.008.009-.009.008-.008.008-.008.009-.009.008-.008.009-.009.008-.008.008-.009.009-.008.008-.009.009-.008.008-.009.009-.008.008-.009.01-.008.008-.009.008-.008.009-.009.008-.009.009-.008.009-.009.008-.008.009-.01.009-.008.008-.008.009-.01.009-.008.008-.009.01-.008.008-.009.009-.009.008-.009.01-.008.008-.01.009-.008.008-.009.01-.009.008-.008.01-.01.008-.008.009-.009.009-.009.009-.009.008-.009.01-.009.008-.008.01-.01.008-.008.01-.01.008-.008.01-.01.008-.008.01-.01.008-.008.01-.01.008-.008.01-.01.008-.009.01-.009.009-.009.009-.009.009-.009.009-.01.01-.008.008-.01.01-.009.009-.009.009-.009.009-.01.01-.008.008-.01.01-.009.009-.009.01-.01.008-.008.01-.01.009-.01.01-.008.008-.01.01-.009.01-.01.008-.009.01-.009.01-.01.008-.009.01-.01.01-.008.009-.01.01-.01.008-.009.01-.01.01-.009.009-.009.01-.01.009-.009.01-.01.009-.009.01-.01.009-.009.01-.01.009-.009.01-.01.353-.353-.354-.354-2.828-2.828a.5.5 0 10-.707.707z" clip-rule="evenodd"/></svg>