<svg xmlns="http://www.w3.org/2000/svg" width="16" height="16" viewBox="0 0 16 16"><path fill="currentColor" fill-rule="evenodd" d="M3 2.5a.5.5 0 00-1 0v11a.5.5 0 001 0zm6.402 1.61a.5.5 0 01.707 0l3.536 3.536.353.354-.353.353-.012.012-.012.012-.012.012-.012.012-.012.012-.012.012-.011.012-.012.011-.012.012-.012.012-.012.012-.011.012-.012.011-.012.012-.012.012-.011.012-.012.011-.012.012-.011.012-.012.011-.012.012-.011.012-.012.011-.012.012-.011.012-.012.011-.012.012-.011.011-.012.012-.011.012-.012.011-.011.012-.012.011-.011.012-.012.011-.011.012-.012.011-.011.011-.012.012-.011.011-.011.012-.012.011-.011.011-.011.012-.012.011-.011.011-.011.012-.012.011-.011.011-.011.012-.012.01-.01.012-.012.011-.011.012-.011.01-.012.012-.01.011-.012.011-.011.011-.011.011-.011.012-.011.01-.011.012-.011.01-.012.012-.01.01-.012.012-.01.01-.012.012-.01.01-.011.012-.012.01-.01.012-.011.01-.011.011-.011.011-.011.011-.01.011-.012.01-.01.012-.011.01-.011.011-.01.011-.012.01-.01.012-.011.01-.01.011-.011.01-.011.011-.01.011-.011.01-.011.011-.01.01-.011.011-.01.011-.011.01-.01.011-.011.01-.01.011-.011.01-.01.011-.011.01-.01.011-.011.01-.01.01-.011.011-.01.01-.01.011-.011.01-.01.01-.01.011-.011.01-.01.01-.01.01-.01.011-.011.01-.01.01-.01.01-.01.01-.01.011-.01.01-.011.01-.01.01-.01.01-.01.01-.01.01-.01.01-.01.01-.01.01-.01.01-.01.01-.01.01-.01.01-.01.01-.01.01-.01.01-.01.01-.01.01-.01.01-.01.01-.009.01-.01.009-.01.01-.01.01-.009.01-.01.009-.01.01-.009.01-.01.009-.01.01-.009.009-.01.01-.009.01-.01.009-.009.01-.01.009-.009.01-.01.009-.009.009-.01.01-.009.009-.009.01-.01.009-.009.009-.009.01-.01.009-.009.009-.009.01-.01.008-.008.01-.01.009-.009.009-.009.01-.01.008-.008.01-.01.009-.008.009-.01.009-.008.009-.01.009-.009.009-.009.009-.009.009-.008.009-.01.009-.008.009-.01.008-.008.01-.009.008-.009.01-.009.008-.008.009-.01.008-.008.01-.009.008-.008.009-.009.008-.009.009-.008.009-.009.008-.009.009-.008.008-.009.009-.008.008-.009.009-.008.009-.009.008-.008.008-.009.009-.008.008-.008.009-.009.008-.008.008-.008.009-.009.008-.008.008-.008.009-.009.008-.008.008-.008.008-.008.008-.008.009-.008.008-.009.008-.008.008-.008.008-.008.008-.008.008-.008.008-.008.008-.008.008-.008.008-.008.008-.008.008-.007.008-.008.007-.008.008-.008.008-.008.008-.007.008-.008.007-.008.008-.007.008-.008.007-.008.008-.007.008-.008.007-.007.008-.008.007-.008.008-.007.007-.008.008-.007.007-.007.008-.008.007-.007.008-.008.007-.007.007-.007.008-.008.007-.007.007-.007.007-.007.008-.008.007-.007.007-.007.007-.007.007-.007.007-.007.008-.007.007-.007.007-.007.007-.007.007-.007.007-.007.007-.007.006-.007.007-.007.007-.007.007-.006.007-.007.007-.007.006-.007.007-.007.007-.006.006-.007.007-.007.007-.006.006-.007.007-.006.007-.007.006-.006.007-.007.006-.006.007-.007.006-.006.007-.007.006-.006.006-.006.007-.007.006-.006.006-.006.006-.007.007-.006.006-.006.006-.006.006-.006.006-.006.007-.006.006-.006.006-.006.006-.007.006-.006.006-.005.006-.007.006-.005.006-.006.005-.006.006-.006.006-.006.006-.006.006-.005.006-.006.005-.006.006-.005.006-.006.005-.006.006-.005.006-.006.005-.005.006-.006.005-.005.006-.006.005-.005.006-.006.005-.005.005-.005.006-.006.005-.005.005-.005.006-.006.005-.005.005-.005.005-.005.006-.005.005-.006.005-.005.005-.005.005-.005.005-.005.005-.005.005-.005.005-.005.005-.005.005-.004.005-.005.005-.005.004-.005.005-.005.005-.004.005-.005.004-.005.005-.004.005-.005.004-.005.005-.004.004-.005.005-.004.005-.005.004-.004.004-.005.005-.004.004-.004.005-.005.004-.004.004-.004.005-.005.004-.004.004-.004.004-.004.004-.004.005-.004.004-.005.004-.003.004-.005.004-.004.004-.004.004-.003.004-.004.004-.004.003-.004.004-.004.004-.004.004-.004.004-.003.003-.004.004-.004.004-.003.004-.004.003-.003.004-.004.003-.004.004-.003.003-.004.004-.003.003-.003.004-.004.003-.003.003-.003.004-.004.003-.003.003-.003.004-.003.003-.004.003-.003.003-.003.003-.003.003-.003.003-.003.003-.003.003-.003.003-.003.003-.003.003-.003.003-.002.003-.003.003-.003.002-.003.003-.003.003-.002.002-.003.003-.002.003-.003.002-.003.003-.002.002-.003.003-.002.002-.003.003-.002.002-.002.003-.003.002-.002.002-.002.003-.003.002-.002.002-.002.002-.002.002-.002.002-.002.003-.002.002-.002.002-.003.002-.001.002-.002.002-.002.002-.002.001-.002.002-.002.002-.002.002-.001.002-.002.001-.002.002-.001.002-.002.001-.002.002-.001.001-.002.002-.001.001-.002.002-.001.001-.001.002-.002.001-.001.001-.001.002h-.002v.002l-.002.001-.001.001-.001.002h-.001l-.001.002h-.001l-.001.002h-.001l-.001.002h-.001l-.001.001v.001l-.002.001-.001.002h-.002v.002h-.001v.001h-.001v.001h-.001l-.001.001v.001h-.001l-.354-.353-.354-.353.001-.001.001-.001.001-.001.001-.001.001-.001.001-.001.001-.001.001-.001.001-.001h.001v-.002h.002v-.002h.002v-.001l.001-.001.001-.001.002-.002.002-.002.002-.002.001-.001.002-.002.002-.002.002-.002.002-.002.002-.002.001-.001.002-.002.001-.001.002-.002.002-.002.001-.001.002-.002.002-.002.001-.001.002-.002.002-.002.002-.002.002-.002.002-.002.001-.001.002-.002.002-.002.002-.002.003-.002.002-.003.002-.002.002-.002.002-.002.002-.002.003-.003.002-.002.002-.002.002-.002.003-.003.002-.002.003-.003.002-.002.003-.003.002-.002.003-.003.002-.002.003-.003.003-.003.002-.002.003-.003.003-.003.003-.002.002-.003.003-.003.003-.003.003-.003.003-.003.003-.003.003-.003.003-.003.003-.003.003-.003.003-.003.003-.003.003-.003.004-.004.003-.003.003-.003.003-.003.004-.004.003-.003.004-.003.003-.004.003-.003.004-.004.003-.003.004-.004.003-.003.004-.004.004-.004.003-.003.004-.004.004-.004.003-.003.004-.004.004-.004.004-.004.004-.004.004-.004.003-.003.004-.004.004-.004.004-.004.004-.004.004-.004.005-.004.004-.005.004-.004.004-.004.004-.004.004-.004.005-.005.004-.004.004-.004.005-.005.004-.004.004-.004.005-.005.004-.004.005-.005.004-.004.005-.005.004-.004.005-.005.005-.005.004-.004.005-.005.005-.005.004-.004.005-.005.005-.005.005-.005.005-.004.004-.005.005-.005.005-.005.005-.005.005-.005.005-.005.005-.005.005-.005.005-.005.005-.005.006-.005.005-.006.005-.005.005-.005.005-.005.006-.006.005-.005.005-.005.006-.006.005-.005.006-.005.005-.006.005-.005.006-.006.005-.005.006-.006.006-.005.005-.006.006-.006.005-.005.006-.006.006-.006.006-.006.005-.005.006-.006.006-.006.006-.006.006-.006.005-.006.006-.005.006-.006.006-.006.006-.006.006-.006.006-.006.007-.006.005-.007.007-.006.006-.006.006-.006.006-.006.006-.006.007-.007.006-.006.006-.006.006-.006.007-.007.006-.006.007-.007.006-.006.006-.006.007-.007.006-.006.007-.007.007-.006.006-.007.007-.007.006-.006.007-.007.007-.007.006-.006.007-.007.007-.007.007-.007.006-.006.007-.007.007-.007.007-.007.007-.007.007-.007.007-.007.007-.007.007-.006.007-.008.007-.007.007-.007.007-.007.007-.007.007-.007.007-.007.007-.007.007-.008.008-.007.007-.007.007-.007.008-.008.007-.007.007-.007.008-.008.007-.007.007-.007.008-.008.007-.007.008-.008.007-.007.008-.008.007-.007.008-.008.008-.008.007-.007.008-.008.007-.007.008-.008.008-.008.008-.008.007-.007.008-.008.008-.008.008-.008.008-.008.007-.007.008-.008.008-.008.008-.008.008-.008.008-.008.008-.008.008-.008.008-.008.008-.008.008-.008.008-.008.009-.009.008-.008.008-.008.008-.008.008-.008.009-.009.008-.008.008-.008.008-.008.009-.009.008-.008.008-.008.009-.009.008-.008.009-.009.008-.008.009-.009.008-.008.009-.009.008-.008.009-.009.008-.008.009-.009.009-.008.008-.01.009-.008.009-.008.008-.01.009-.008.009-.009.008-.008.01-.01.008-.008.009-.009.009-.009.009-.009.008-.008.01-.01.008-.008.01-.01.008-.008.01-.01.008-.008.01-.01.008-.008.01-.01.009-.009.009-.009.009-.009.009-.009.01-.01.008-.008.01-.01.009-.009.009-.009.01-.01.009-.009.009-.009.01-.01.008-.008.01-.01.01-.01.009-.009.01-.01.009-.009.009-.009.01-.01.009-.009.01-.01.01-.009.009-.01.01-.01.009-.009.01-.01.009-.009.01-.01.01-.01.009-.009.01-.01.01-.01.01-.01.009-.009.01-.01.01-.01.01-.01.01-.01.01-.009.009-.01.01-.01.01-.01.01-.01.01-.01.01-.01.01-.01.01-.01.01-.01.01-.01.01-.01.01-.01.01-.01.01-.01.01-.01.01-.01.01-.01.01-.01.01-.01.01-.01.011-.011.01-.01.01-.01.01-.01.011-.011.01-.01.01-.01.011-.011.01-.01.01-.01.011-.011.01-.01.011-.011.01-.01.011-.01.01-.011.011-.01.01-.011.011-.01.01-.011.011-.011.01-.01.011-.011.01-.01.011-.011.011-.011.01-.01.011-.011.011-.011.01-.01.012-.012.01-.01.011-.011.01-.01.012-.012.01-.01.011-.011.011-.011.01-.01.012-.012.01-.01.004-.004H4.5a.5.5 0 010-1h7.584L9.402 4.818a.5.5 0 010-.707m.354 7.425.353.354a.5.5 0 01-.707-.707z" clip-rule="evenodd"/></svg>