<svg width="512" height="512" viewBox="0 0 512 512" fill="none" xmlns="http://www.w3.org/2000/svg">
<rect width="512" height="512" fill="#FAFAFA"/>
<path d="M382.629 286.366L353.127 269.348C351.828 268.599 350.749 267.521 349.997 266.224C349.245 264.927 348.847 263.456 348.843 261.957V227.921C348.84 224.439 347.921 221.02 346.178 218.005C344.434 214.99 341.928 212.487 338.91 210.746L309.408 193.728C308.112 192.972 307.036 191.891 306.287 190.591C305.539 189.292 305.143 187.819 305.141 186.32V152.284C305.139 148.797 304.221 145.372 302.477 142.352C300.734 139.331 298.227 136.822 295.208 135.074L255.772 112.36L216.337 135.074C213.324 136.826 210.824 139.338 209.087 142.358C207.35 145.378 206.437 148.801 206.439 152.284V186.32C206.436 187.819 206.041 189.292 205.293 190.591C204.544 191.891 203.468 192.972 202.172 193.728L172.635 210.746C169.623 212.492 167.122 214.997 165.382 218.011C163.642 221.025 162.724 224.442 162.72 227.921V261.957C162.719 263.455 162.324 264.926 161.576 266.223C160.827 267.52 159.75 268.598 158.453 269.348L128.933 286.366C125.918 288.115 123.415 290.623 121.672 293.639C119.93 296.656 119.008 300.076 119 303.559V348.986L158.435 371.7C161.452 373.443 164.875 374.36 168.359 374.36C171.844 374.36 175.267 373.443 178.284 371.7L207.786 354.682C209.087 353.936 210.561 353.543 212.062 353.543C213.562 353.543 215.036 353.936 216.337 354.682L245.839 371.7C248.86 373.441 252.286 374.357 255.772 374.357C259.259 374.357 262.685 373.441 265.706 371.7L295.208 354.682C296.509 353.936 297.983 353.543 299.483 353.543C300.984 353.543 302.458 353.936 303.759 354.682L333.261 371.7C336.278 373.443 339.701 374.36 343.186 374.36C346.67 374.36 350.093 373.443 353.11 371.7L392.545 348.986V303.559C392.54 300.077 391.622 296.657 389.883 293.641C388.143 290.624 385.642 288.116 382.629 286.366ZM293.879 152.284V186.32C293.886 189.801 294.808 193.218 296.551 196.232C298.294 199.246 300.797 201.75 303.812 203.495L333.314 220.513C334.614 221.265 335.694 222.345 336.446 223.645C337.198 224.945 337.595 226.42 337.598 227.921V261.957C337.602 265.437 338.52 268.854 340.26 271.868C342 274.882 344.501 277.387 347.514 279.132L377.016 296.15C378.317 296.901 379.399 297.981 380.151 299.281C380.903 300.582 381.299 302.057 381.3 303.559V336.005L261.421 266.884V128.661L289.559 144.893C290.866 145.637 291.953 146.712 292.712 148.009C293.47 149.307 293.873 150.781 293.879 152.284ZM134.582 296.15L164.084 279.132C167.098 277.387 169.602 274.883 171.345 271.869C173.088 268.856 174.009 265.438 174.017 261.957V227.921C174.016 226.421 174.41 224.947 175.159 223.647C175.908 222.347 176.985 221.266 178.284 220.513L207.786 203.495C210.8 201.75 213.304 199.246 215.047 196.232C216.79 193.218 217.711 189.801 217.719 186.32V152.284C217.723 150.787 218.119 149.318 218.868 148.021C219.616 146.724 220.691 145.646 221.986 144.893L250.159 128.661V266.884L130.315 336.005V303.559C130.314 302.058 130.708 300.585 131.457 299.284C132.206 297.984 133.283 296.903 134.582 296.15ZM347.461 362.021C346.16 362.767 344.686 363.16 343.186 363.16C341.685 363.16 340.211 362.767 338.91 362.021L309.408 345.003C306.391 343.26 302.968 342.343 299.483 342.343C295.999 342.343 292.576 343.26 289.559 345.003L260.057 362.021C258.756 362.767 257.282 363.16 255.781 363.16C254.281 363.16 252.807 362.767 251.505 362.021L222.003 345.003C218.983 343.261 215.558 342.344 212.07 342.344C208.583 342.344 205.157 343.261 202.137 345.003L172.635 362.021C171.334 362.767 169.86 363.16 168.359 363.16C166.859 363.16 165.385 362.767 164.084 362.021L135.963 345.789L255.772 276.599L375.582 345.719L347.461 362.021Z" fill="#2D3232"/>
</svg>
