<svg xmlns="http://www.w3.org/2000/svg" width="16" height="16" viewBox="0 0 16 16"><path fill="currentColor" fill-rule="evenodd" d="M3.5 3h2a.5.5 0 01.5.5v2a.5.5 0 01-.5.5h-2a.5.5 0 01-.5-.5v-2a.5.5 0 01.5-.5M2 3.5A1.5 1.5 0 013.5 2h2A1.5 1.5 0 017 3.5v2A1.5 1.5 0 015.5 7h-2A1.5 1.5 0 012 5.5zM3.5 10h2a.5.5 0 01.5.5v2a.5.5 0 01-.5.5h-2a.5.5 0 01-.5-.5v-2a.5.5 0 01.5-.5m-1.5.5A1.5 1.5 0 013.5 9h2A1.5 1.5 0 017 10.5v2A1.5 1.5 0 015.5 14h-2A1.5 1.5 0 012 12.5zm10.5-.5h-2a.5.5 0 00-.5.5v2a.5.5 0 00.5.5h2a.5.5 0 00.5-.5v-2a.5.5 0 00-.5-.5m-2-1A1.5 1.5 0 009 10.5v2a1.5 1.5 0 001.5 1.5h2a1.5 1.5 0 001.5-1.5v-2A1.5 1.5 0 0012.5 9zm0-6h2a.5.5 0 01.5.5v2a.5.5 0 01-.5.5h-2a.5.5 0 01-.5-.5v-2a.5.5 0 01.5-.5M9 3.5A1.5 1.5 0 0110.5 2h2A1.5 1.5 0 0114 3.5v2A1.5 1.5 0 0112.5 7h-2A1.5 1.5 0 019 5.5z" clip-rule="evenodd"/></svg>