<svg xmlns="http://www.w3.org/2000/svg" width="20" height="20" viewBox="0 0 20 20"><path fill="currentColor" fill-rule="evenodd" d="M3.5 3.5h4v4h-4zM2 3.5A1.5 1.5 0 013.5 2h4A1.5 1.5 0 019 3.5v4A1.5 1.5 0 017.5 9h-4A1.5 1.5 0 012 7.5zm10.5 0h4v4h-4zm-1.5 0A1.5 1.5 0 0112.5 2h4A1.5 1.5 0 0118 3.5v4A1.5 1.5 0 0116.5 9h-4A1.5 1.5 0 0111 7.5zm-3.5 9h-4v4h4zm-4-1.5A1.5 1.5 0 002 12.5v4A1.5 1.5 0 003.5 18h4A1.5 1.5 0 009 16.5v-4A1.5 1.5 0 007.5 11zm9 1.5h4v4h-4zm-1.5 0a1.5 1.5 0 011.5-1.5h4a1.5 1.5 0 011.5 1.5v4a1.5 1.5 0 01-1.5 1.5h-4a1.5 1.5 0 01-1.5-1.5z" clip-rule="evenodd"/></svg>