<svg xmlns="http://www.w3.org/2000/svg" width="16" height="16" viewBox="0 0 16 16"><path fill="currentColor" fill-rule="evenodd" d="M3.5 2A1.5 1.5 0 002 3.5v2A1.5 1.5 0 003.5 7h2A1.5 1.5 0 007 5.5v-2A1.5 1.5 0 005.5 2zm0 7A1.5 1.5 0 002 10.5v2A1.5 1.5 0 003.5 14h2A1.5 1.5 0 007 12.5v-2A1.5 1.5 0 005.5 9zM9 10.5A1.5 1.5 0 0110.5 9h2a1.5 1.5 0 011.5 1.5v2a1.5 1.5 0 01-1.5 1.5h-2A1.5 1.5 0 019 12.5zM10.5 2A1.5 1.5 0 009 3.5v2A1.5 1.5 0 0010.5 7h2A1.5 1.5 0 0014 5.5v-2A1.5 1.5 0 0012.5 2z" clip-rule="evenodd"/></svg>