<svg xmlns="http://www.w3.org/2000/svg" width="24" height="24" viewBox="0 0 24 24"><path fill="currentColor" fill-rule="evenodd" d="M5 4.5h4a.5.5 0 01.5.5v4a.5.5 0 01-.5.5H5a.5.5 0 01-.5-.5V5a.5.5 0 01.5-.5M3 5a2 2 0 012-2h4a2 2 0 012 2v4a2 2 0 01-2 2H5a2 2 0 01-2-2zm12-.5h4a.5.5 0 01.5.5v4a.5.5 0 01-.5.5h-4a.5.5 0 01-.5-.5V5a.5.5 0 01.5-.5M13 5a2 2 0 012-2h4a2 2 0 012 2v4a2 2 0 01-2 2h-4a2 2 0 01-2-2zm-4 9.5H5a.5.5 0 00-.5.5v4a.5.5 0 00.5.5h4a.5.5 0 00.5-.5v-4a.5.5 0 00-.5-.5M5 13a2 2 0 00-2 2v4a2 2 0 002 2h4a2 2 0 002-2v-4a2 2 0 00-2-2zm10 1.5h4a.5.5 0 01.5.5v4a.5.5 0 01-.5.5h-4a.5.5 0 01-.5-.5v-4a.5.5 0 01.5-.5m-2 .5a2 2 0 012-2h4a2 2 0 012 2v4a2 2 0 01-2 2h-4a2 2 0 01-2-2z" clip-rule="evenodd"/></svg>