<svg xmlns="http://www.w3.org/2000/svg" width="24" height="24" viewBox="0 0 24 24"><path fill="currentColor" fill-rule="evenodd" d="M9.25 4.5h8.5c.966 0 1.75.784 1.75 1.75v8.5a1.75 1.75 0 01-1.5 1.732V9.25A3.25 3.25 0 0014.75 6H7.518A1.75 1.75 0 019.25 4.5M21 14.75a3.25 3.25 0 01-3.009 3.241A3.25 3.25 0 0114.75 21h-8.5A3.25 3.25 0 013 17.75v-8.5a3.25 3.25 0 013.009-3.241A3.25 3.25 0 019.25 3h8.5A3.25 3.25 0 0121 6.25zM14.75 7.5h-8.5A1.75 1.75 0 004.5 9.25v8.5c0 .966.784 1.75 1.75 1.75h8.5a1.75 1.75 0 001.75-1.75v-8.5a1.75 1.75 0 00-1.75-1.75M10.5 10a.75.75 0 01.75.75v2h2a.75.75 0 010 1.5h-2v2a.75.75 0 01-1.5 0v-2h-2a.75.75 0 010-1.5h2v-2a.75.75 0 01.75-.75" clip-rule="evenodd"/></svg>