<svg xmlns="http://www.w3.org/2000/svg" width="20" height="20" viewBox="0 0 20 20"><path fill="currentColor" fill-rule="evenodd" d="M7.75 3.5h7.5c.69 0 1.25.56 1.25 1.25v7.5c0 .69-.56 1.25-1.25 1.25H15V7.75A2.75 2.75 0 0012.25 5H6.5v-.25c0-.69.56-1.25 1.25-1.25m7.5 11.5H15v.25A2.75 2.75 0 0112.25 18h-7.5A2.75 2.75 0 012 15.25v-7.5A2.75 2.75 0 014.75 5H5v-.25A2.75 2.75 0 017.75 2h7.5A2.75 2.75 0 0118 4.75v7.5A2.75 2.75 0 0115.25 15m-3-8.5h-7.5c-.69 0-1.25.56-1.25 1.25v7.5c0 .69.56 1.25 1.25 1.25h7.5c.69 0 1.25-.56 1.25-1.25v-7.5c0-.69-.56-1.25-1.25-1.25M8.584 8.389a.75.75 0 01.75.75v1.694h1.527a.75.75 0 010 1.5H9.334v1.528a.75.75 0 01-1.5 0v-1.528H6.139a.75.75 0 010-1.5h1.694V9.14a.75.75 0 01.75-.75" clip-rule="evenodd"/></svg>