<svg xmlns="http://www.w3.org/2000/svg" width="12" height="12" viewBox="0 0 12 12"><g fill="none"><g clip-path="url(#svgID0)"><path fill="currentColor" fill-rule="evenodd" d="M3.214 1H10.5a.5.5 0 01.5.5v7.286a.5.5 0 01-.5.5h-.214V3.214a1.5 1.5 0 00-1.5-1.5H2.714V1.5a.5.5 0 01.5-.5m7.286 9.286h-.214v.214a1.5 1.5 0 01-1.5 1.5H1.5A1.5 1.5 0 010 10.5V3.214a1.5 1.5 0 011.5-1.5h.214V1.5a1.5 1.5 0 011.5-1.5H10.5A1.5 1.5 0 0112 1.5v7.286a1.5 1.5 0 01-1.5 1.5M8.786 2.714H1.5a.5.5 0 00-.5.5V10.5a.5.5 0 00.5.5h7.286a.5.5 0 00.5-.5V3.214a.5.5 0 00-.5-.5m-3.643 1.81a.5.5 0 01.5.5v1.333h1.333a.5.5 0 110 1H5.643v1.334a.5.5 0 11-1 0V7.357H3.309a.5.5 0 110-1h1.334V5.024a.5.5 0 01.5-.5" clip-rule="evenodd"/></g><defs><clipPath id="svgID0"><path fill="#fff" d="M0 0h12v12H0z"/></clipPath></defs></g></svg>