<svg xmlns="http://www.w3.org/2000/svg" width="16" height="16" viewBox="0 0 16 16"><path fill="currentColor" fill-rule="evenodd" d="M5 2h8a1 1 0 011 1v8a1 1 0 01-1 1V5a2 2 0 00-2-2H4a1 1 0 011-1m10 9a2 2 0 01-2 2 2 2 0 01-2 2H3a2 2 0 01-2-2V5a2 2 0 012-2 2 2 0 012-2h8a2 2 0 012 2zM3 4h8a1 1 0 011 1v8a1 1 0 01-1 1H3a1 1 0 01-1-1V5a1 1 0 011-1m3.917 2.278a.5.5 0 01.5.5v1.639h1.805a.5.5 0 110 1H7.417v1.805a.5.5 0 11-1 0V9.417h-1.64a.5.5 0 010-1h1.64v-1.64a.5.5 0 01.5-.5" clip-rule="evenodd"/></svg>