<svg xmlns="http://www.w3.org/2000/svg" width="20" height="20" viewBox="0 0 20 20"><path fill="currentColor" fill-rule="evenodd" d="M3.5 3.5h13v1.444h-13zM2 3.5A1.5 1.5 0 013.5 2h13A1.5 1.5 0 0118 3.5v1.444a1.5 1.5 0 01-1.5 1.5h-13a1.5 1.5 0 01-1.5-1.5zm14.5 5.778h-13v1.444h13zm-13-1.5a1.5 1.5 0 00-1.5 1.5v1.444a1.5 1.5 0 001.5 1.5h13a1.5 1.5 0 001.5-1.5V9.278a1.5 1.5 0 00-1.5-1.5zm13 7.278h-13V16.5h13zm-13-1.5a1.5 1.5 0 00-1.5 1.5V16.5A1.5 1.5 0 003.5 18h13a1.5 1.5 0 001.5-1.5v-1.444a1.5 1.5 0 00-1.5-1.5z" clip-rule="evenodd"/></svg>