<svg xmlns="http://www.w3.org/2000/svg" width="16" height="16" viewBox="0 0 16 16"><path fill="currentColor" fill-rule="evenodd" d="M3 3h1a1 1 0 011 1v8a1 1 0 01-1 1H3a1 1 0 01-1-1V4a1 1 0 011-1M1 4a2 2 0 012-2h1a2 2 0 012 2v8a2 2 0 01-2 2H3a2 2 0 01-2-2zm7.013-.5a.5.5 0 01.5-.5h5.98a.5.5 0 110 1h-5.98a.5.5 0 01-.5-.5m0 4a.5.5 0 01.5-.5h5.98a.5.5 0 110 1h-5.98a.5.5 0 01-.5-.5m.5-2.5a.5.5 0 000 1H12.1a.5.5 0 100-1zm-.5 4.5a.5.5 0 01.5-.5H12.1a.5.5 0 110 1H8.513a.5.5 0 01-.5-.5" clip-rule="evenodd"/></svg>