<svg xmlns="http://www.w3.org/2000/svg" width="12" height="12" viewBox="0 0 12 12"><path fill="currentColor" fill-rule="evenodd" d="M1.5 2h1a.5.5 0 01.5.5v7a.5.5 0 01-.5.5h-1a.5.5 0 01-.5-.5v-7a.5.5 0 01.5-.5M0 2.5A1.5 1.5 0 011.5 1h1A1.5 1.5 0 014 2.5v7A1.5 1.5 0 012.5 11h-1A1.5 1.5 0 010 9.5zm6.01 0a.5.5 0 01.5-.5h4.972a.5.5 0 010 1H6.51a.5.5 0 01-.5-.5m0 4a.5.5 0 01.5-.5h4.972a.5.5 0 010 1H6.51a.5.5 0 01-.5-.5m.5-2.5a.5.5 0 000 1h2.486a.5.5 0 000-1zm-.5 4.5a.5.5 0 01.5-.5h2.486a.5.5 0 010 1H6.509a.5.5 0 01-.5-.5" clip-rule="evenodd"/></svg>