<svg xmlns="http://www.w3.org/2000/svg" width="12" height="12" viewBox="0 0 12 12"><path fill="currentColor" fill-rule="evenodd" d="M8.474 3.354a.5.5 0 01-.707 0L6.5 2.087v5.681a.5.5 0 01-1 0V2.085L4.231 3.354a.5.5 0 01-.707-.707L5.645.525 6 .172l.353.353 2.122 2.122a.5.5 0 010 .707M1 6.5A1.5 1.5 0 012.5 5h.875a.5.5 0 010 1H2.5a.5.5 0 00-.5.5v3a.5.5 0 00.5.5h7a.5.5 0 00.5-.5v-3a.5.5 0 00-.5-.5h-.875a.5.5 0 110-1H9.5A1.5 1.5 0 0111 6.5v3A1.5 1.5 0 019.5 11h-7A1.5 1.5 0 011 9.5z" clip-rule="evenodd"/></svg>