<svg xmlns="http://www.w3.org/2000/svg" width="24" height="24" viewBox="0 0 24 24"><path fill="currentColor" fill-rule="evenodd" d="M15.712 7.712a.75.75 0 01-1.06 0L12.75 5.811V15a.75.75 0 01-1.5 0V5.81L9.348 7.712a.75.75 0 11-1.06-1.06L11.47 3.47l.53-.53.53.53 3.182 3.182a.75.75 0 010 1.06M4 13a3.25 3.25 0 013.25-3.25h.784a.75.75 0 010 1.5H7.25A1.75 1.75 0 005.5 13v4.75c0 .967.784 1.75 1.75 1.75h9.5a1.75 1.75 0 001.75-1.75V13a1.75 1.75 0 00-1.75-1.75h-.474a.75.75 0 010-1.5h.474A3.25 3.25 0 0120 13v4.75A3.25 3.25 0 0116.75 21h-9.5A3.25 3.25 0 014 17.75z" clip-rule="evenodd"/></svg>