<svg xmlns="http://www.w3.org/2000/svg" width="24" height="24" viewBox="0 0 24 24"><path fill="currentColor" fill-rule="evenodd" d="M10.102 5.5H5a.5.5 0 00-.5.5v1h7.16l-1.184-1.332a.5.5 0 00-.374-.168M3 6v4.75a.75.75 0 001.5 0V8.5H18a1.5 1.5 0 011.5 1.5v7a1.5 1.5 0 01-1.5 1.5H6A1.5 1.5 0 014.5 17v-.03a.75.75 0 00-1.5 0V17a3 3 0 003 3h12a3 3 0 003-3v-7a3 3 0 00-3-3h-4.333l-2.07-2.329A2 2 0 0010.102 4H5a2 2 0 00-2 2m4.284 10.655a.75.75 0 010-1.06l.85-.85H3.758a.75.75 0 110-1.5h4.358l-.832-.832a.75.75 0 111.06-1.061l2.122 2.121.53.53-.53.53-2.121 2.122a.75.75 0 01-1.061 0" clip-rule="evenodd"/></svg>