<svg xmlns="http://www.w3.org/2000/svg" width="16" height="16" viewBox="0 0 16 16"><path fill="currentColor" fill-rule="evenodd" d="M6.197 4H3.5a.5.5 0 00-.5.5V5h4.131l-.518-.777A.5.5 0 006.197 4M2 4.5V7a.5.5 0 001 0V6h9a1 1 0 011 1v5a1 1 0 01-1 1H4a1 1 0 01-1-1v-.02a.5.5 0 10-1 0V12a2 2 0 002 2h8a2 2 0 002-2V7a2 2 0 00-2-2H8.333l-.888-1.332A1.5 1.5 0 006.197 3H3.5A1.5 1.5 0 002 4.5m2.728 6.762a.5.5 0 010-.707l.556-.557H2.5a.5.5 0 010-1h2.792l-.564-.564a.5.5 0 01.707-.708l1.414 1.415.353.353-.353.354-1.414 1.414a.5.5 0 01-.707 0" clip-rule="evenodd"/></svg>