<svg xmlns="http://www.w3.org/2000/svg" width="32" height="32" viewBox="0 0 32 32"><path fill="currentColor" fill-rule="evenodd" d="M12.394 8H7a1 1 0 00-1 1v1h8.263l-1.037-1.555A1 1 0 0012.394 8m4.273 2L14.89 7.336A3 3 0 0012.394 6H7a3 3 0 00-3 3v6a1 1 0 102 0v-3h18a2 2 0 012 2v9a2 2 0 01-2 2H8c-1.105 0-2-.894-2-1.998v-.042a1 1 0 10-2 0v.042A4 4 0 008 27h16a4 4 0 004-4v-9a4 4 0 00-4-4zM9.058 21.13a1 1 0 101.415 1.414l2.828-2.828.707-.707-.707-.708-2.828-2.828a1 1 0 10-1.415 1.414l1.11 1.11H5a1 1 0 100 2h5.191z" clip-rule="evenodd"/></svg>