<svg xmlns="http://www.w3.org/2000/svg" width="12" height="12" viewBox="0 0 12 12"><path fill="currentColor" fill-rule="evenodd" d="M2 3h3.023l.61 1H2zM1 4V3a1 1 0 011-1h3.023a1 1 0 01.853.479L6.806 4H9.5A1.5 1.5 0 0111 5.5v4A1.5 1.5 0 019.5 11h-7A1.5 1.5 0 011 9.5v-.02a.5.5 0 011 0v.02a.5.5 0 00.5.5h7a.5.5 0 00.5-.5v-4a.5.5 0 00-.5-.5H2v.5a.5.5 0 01-1 0zm2.379 4.207a.5.5 0 10.707.707l1.06-1.06L5.5 7.5l-.354-.354-1.06-1.06a.5.5 0 00-.707.707l.217.218H1.5a.5.5 0 000 1h2.075z" clip-rule="evenodd"/></svg>