<svg xmlns="http://www.w3.org/2000/svg" width="12" height="12" viewBox="0 0 12 12"><path fill="currentColor" fill-rule="evenodd" d="M1 2.5a.5.5 0 01.5-.5H4a.5.5 0 010 1H1.5a.5.5 0 01-.5-.5m0 4a.5.5 0 01.5-.5H4a.5.5 0 010 1H1.5a.5.5 0 01-.5-.5M1.5 4a.5.5 0 000 1H3a.5.5 0 000-1zM1 8.5a.5.5 0 01.5-.5H3a.5.5 0 010 1H1.5a.5.5 0 01-.5-.5m6.5-6A.5.5 0 018 2h2.5a.5.5 0 010 1H8a.5.5 0 01-.5-.5m0 4A.5.5 0 018 6h2.5a.5.5 0 010 1H8a.5.5 0 01-.5-.5M8 4a.5.5 0 000 1h1.5a.5.5 0 000-1zm-.5 4.5A.5.5 0 018 8h1.5a.5.5 0 010 1H8a.5.5 0 01-.5-.5" clip-rule="evenodd"/></svg>