<svg xmlns="http://www.w3.org/2000/svg" width="16" height="16" viewBox="0 0 16 16"><path fill="currentColor" fill-rule="evenodd" d="M3.5 5a.5.5 0 000 1h3a.5.5 0 000-1zm0 4a.5.5 0 000 1h3a.5.5 0 000-1zM3 7.5a.5.5 0 01.5-.5H5a.5.5 0 010 1H3.5a.5.5 0 01-.5-.5m.5 3.5a.5.5 0 000 1H5a.5.5 0 000-1zM9 5.5a.5.5 0 01.5-.5h3a.5.5 0 010 1h-3a.5.5 0 01-.5-.5M9.5 9a.5.5 0 000 1h3a.5.5 0 000-1zM9 7.5a.5.5 0 01.5-.5H11a.5.5 0 010 1H9.5a.5.5 0 01-.5-.5m.5 3.5a.5.5 0 000 1H11a.5.5 0 000-1z" clip-rule="evenodd"/></svg>