<svg xmlns="http://www.w3.org/2000/svg" width="20" height="20" viewBox="0 0 20 20"><path fill="currentColor" fill-rule="evenodd" d="M3 5.75A.75.75 0 013.75 5H8a.75.75 0 010 1.5H3.75A.75.75 0 013 5.75m0 5.997A.75.75 0 013.753 11l4.25.016a.75.75 0 01-.006 1.5l-4.25-.016A.75.75 0 013 11.747M3.75 8a.75.75 0 000 1.5h2.5a.75.75 0 000-1.5zM3 14.75a.75.75 0 01.75-.75h2.5a.75.75 0 010 1.5h-2.5a.75.75 0 01-.75-.75m8.25-9A.75.75 0 0112 5h4.25a.75.75 0 010 1.5H12a.75.75 0 01-.75-.75m0 5.998a.75.75 0 01.752-.748l4.25.014a.75.75 0 01-.005 1.5l-4.25-.014a.75.75 0 01-.747-.752M12 8a.75.75 0 000 1.5h2.5a.75.75 0 000-1.5zm-.75 6.75A.75.75 0 0112 14h2.5a.75.75 0 010 1.5H12a.75.75 0 01-.75-.75" clip-rule="evenodd"/></svg>