<svg xmlns="http://www.w3.org/2000/svg" width="12" height="12" viewBox="0 0 12 12"><path fill="currentColor" fill-rule="evenodd" d="M3.5 2h-1a.5.5 0 00-.5.5V3h2v-.5a.5.5 0 00-.5-.5M1 3v.085A1.5 1.5 0 000 4.5v5A1.5 1.5 0 001.5 11h9A1.5 1.5 0 0012 9.5v-5a1.5 1.5 0 00-1-1.415V2.5A1.5 1.5 0 009.5 1h-1A1.5 1.5 0 007 2.5V3H5v-.5A1.5 1.5 0 003.5 1h-1A1.5 1.5 0 001 2.5zm7 0h2v-.5a.5.5 0 00-.5-.5h-1a.5.5 0 00-.5.5zM7 4H1.5a.5.5 0 00-.5.5v5a.5.5 0 00.5.5h9a.5.5 0 00.5-.5v-5a.5.5 0 00-.5-.5z" clip-rule="evenodd"/></svg>