<svg xmlns="http://www.w3.org/2000/svg" width="24" height="24" viewBox="0 0 24 24"><path fill="currentColor" d="M5.813 16.137c-.037.948-.496 1.98-.868 2.687a14 14 0 01-.708 1.195l-.051.076-.015.022-.004.005-.002.002v.002a.9.9 0 01-1.476-1.032l.001-.002.01-.014.04-.058q.053-.08.149-.232c.125-.2.294-.48.463-.801.357-.68.642-1.404.663-1.92.018-.472-.207-.838-.666-1.47-.41-.566-1.059-1.4-1.065-2.56-.006-1.18.649-2.02 1.064-2.588.462-.634.688-1 .667-1.48-.024-.52-.312-1.255-.67-1.945a13 13 0 00-.61-1.052l-.04-.06-.01-.014-.001-.002a.9.9 0 011.43-1.089l.056.073v.001l.002.002.005.007.013.022.051.077a15 15 0 01.703 1.208c.37.714.826 1.75.868 2.69.054 1.195-.587 2.044-1.01 2.623-.471.645-.72 1.02-.717 1.518.003.49.251.866.72 1.51.419.577 1.055 1.422 1.008 2.6M16.347 12a4.348 4.348 0 11-8.696 0 4.348 4.348 0 018.696 0m-1.8 0a2.549 2.549 0 10-5.097.002A2.549 2.549 0 0014.547 12m7.162.04c-.006 1.16-.654 1.994-1.064 2.559-.46.633-.685.999-.666 1.47.02.516.305 1.24.663 1.92a12 12 0 00.612 1.034l.039.058.01.014v.002a.901.901 0 01-1.474 1.032v-.002l-.003-.002-.004-.005-.014-.022-.052-.076a14 14 0 01-.708-1.195c-.372-.708-.83-1.74-.868-2.687-.046-1.177.59-2.022 1.009-2.599.468-.644.716-1.02.72-1.51.002-.499-.247-.873-.718-1.518-.422-.58-1.064-1.428-1.01-2.623.042-.94.498-1.976.868-2.69a15 15 0 01.754-1.286l.013-.021.005-.007.001-.002h.001l.056-.074a.9.9 0 011.43 1.089l-.001.002-.01.014-.04.06-.149.236c-.125.204-.293.49-.462.816-.357.69-.645 1.425-.668 1.944-.022.482.204.847.666 1.48.415.569 1.07 1.409 1.064 2.589"/></svg>