<svg xmlns="http://www.w3.org/2000/svg" width="32" height="32" viewBox="0 0 32 32"><path fill="currentColor" d="M7.752 10.516c.072 1.593-.785 2.724-1.349 3.497-.627.86-.958 1.36-.955 2.025.004.653.336 1.154.96 2.014.559.77 1.407 1.896 1.345 3.465-.05 1.264-.662 2.638-1.157 3.581a19 19 0 01-1.013 1.695l-.02.029-.007.011-.001.001-.076.098a1.2 1.2 0 01-1.957-1.368l.065-.105v.001l.015-.021.052-.078a16 16 0 00.816-1.379c.477-.908.857-1.872.884-2.56.025-.629-.275-1.116-.887-1.96-.547-.753-1.411-1.866-1.42-3.413-.007-1.573.865-2.693 1.418-3.451.617-.845.919-1.331.89-1.974-.032-.692-.416-1.67-.892-2.591a17 17 0 00-.816-1.403l-.052-.08-.013-.02-.002-.002-.064-.105a1.2 1.2 0 011.971-1.346l.075.097v.001l.008.012.02.028a13 13 0 01.3.47c.19.309.445.743.705 1.244.492.952 1.1 2.333 1.157 3.587M21.797 16a5.797 5.797 0 11-11.594 0 5.797 5.797 0 0111.594 0m-2.4 0a3.396 3.396 0 10-6.793 0 3.396 3.396 0 006.793 0m9.55.051c-.009 1.547-.873 2.66-1.42 3.413-.612.844-.912 1.331-.887 1.96.027.688.407 1.652.883 2.56a16 16 0 00.87 1.457l.013.02.001.001.065.104a1.2 1.2 0 01-1.956 1.368l-.076-.098h-.002l-.007-.012-.02-.029-.068-.101q-.089-.132-.235-.363a19 19 0 01-.71-1.231c-.495-.943-1.107-2.317-1.157-3.581-.061-1.57.786-2.696 1.345-3.465.624-.86.956-1.361.96-2.015.003-.664-.328-1.164-.955-2.024-.564-.773-1.42-1.904-1.349-3.497.057-1.254.665-2.635 1.157-3.587a19 19 0 01.938-1.611l.067-.103.02-.028.008-.012.075-.099a1.2 1.2 0 011.971 1.347l-.064.105-.002.003-.013.018-.052.081a17 17 0 00-.816 1.402c-.476.921-.86 1.9-.891 2.592-.03.643.272 1.129.89 1.974.552.758 1.424 1.878 1.416 3.451"/></svg>