<svg xmlns="http://www.w3.org/2000/svg" width="20" height="20" viewBox="0 0 20 20"><path fill="currentColor" d="M4.845 6.572c.045.996-.49 1.704-.843 2.187-.392.537-.599.85-.597 1.264.003.409.21.723.6 1.26.349.48.878 1.185.84 2.165-.031.79-.413 1.65-.723 2.239a12 12 0 01-.59.996l-.043.063-.012.018-.004.006-.001.002-.616-.43.615.43a.75.75 0 01-1.229-.86h.001l.008-.013.033-.048q.045-.067.124-.193c.105-.167.245-.401.386-.669.298-.567.536-1.17.553-1.6.015-.393-.173-.698-.556-1.225-.342-.47-.88-1.166-.886-2.133-.005-.983.54-1.683.885-2.157.385-.528.575-.832.557-1.233-.02-.433-.26-1.045-.558-1.62a11 11 0 00-.51-.876l-.033-.051-.008-.012V4.08a.75.75 0 011.238-.846v.001l.002.002q0 .002.003.005l.012.018.042.064q.055.084.146.23c.119.193.278.464.44.777.308.595.688 1.458.724 2.241M13.623 10a3.623 3.623 0 11-7.246 0 3.623 3.623 0 017.246 0m-1.5 0a2.123 2.123 0 10-4.246 0 2.123 2.123 0 004.246 0m5.969.032c-.005.967-.544 1.662-.886 2.133-.383.528-.571.832-.556 1.226.018.43.255 1.032.553 1.6a10 10 0 00.51.86l.033.05.008.011v.001a.75.75 0 01-1.228.86l.615-.43-.616.43v-.003q-.003-.001-.005-.005l-.012-.018-.042-.063q-.056-.082-.148-.227c-.12-.19-.28-.46-.443-.77-.31-.589-.691-1.448-.723-2.238-.038-.98.491-1.684.84-2.165.39-.537.598-.851.6-1.26.002-.415-.205-.727-.597-1.264-.352-.483-.888-1.19-.843-2.187.036-.784.416-1.646.724-2.241a12 12 0 01.586-1.007l.042-.064.012-.018.004-.005v-.002h.002a.75.75 0 111.238.845l-.001.002-.008.012-.033.05q-.046.069-.125.197c-.105.17-.244.408-.385.68-.298.575-.538 1.187-.558 1.62-.018.401.172.705.557 1.233.346.474.89 1.174.885 2.157"/></svg>