<svg xmlns="http://www.w3.org/2000/svg" width="24" height="24" viewBox="0 0 24 24"><path fill="currentColor" fill-rule="evenodd" d="M17.5 15.061V9a5.5 5.5 0 10-11 0v6.061c0 .795.644 1.439 1.439 1.439h8.122c.795 0 1.439-.644 1.439-1.439M7.939 18H9.5v1.5a2.5 2.5 0 005 0V18h1.561A2.94 2.94 0 0019 15.061V9A7 7 0 105 9v6.061A2.94 2.94 0 007.939 18M11 19.5V18h2v1.5a1 1 0 11-2 0M9.75 7a.75.75 0 01.75.75v6.5a.75.75 0 01-1.5 0v-6.5A.75.75 0 019.75 7m4.5 0a.75.75 0 01.75.75v6.5a.75.75 0 01-1.5 0v-6.5a.75.75 0 01.75-.75" clip-rule="evenodd"/></svg>