<svg xmlns="http://www.w3.org/2000/svg" width="20" height="20" viewBox="0 0 20 20"><path fill="currentColor" fill-rule="evenodd" d="M14.5 13.5V7a4.5 4.5 0 10-9 0v6.5a1 1 0 001 1h7a1 1 0 001-1m-8 2.5h1.357v.857a2.143 2.143 0 104.286 0V16H13.5a2.5 2.5 0 002.5-2.5V7A6 6 0 004 7v6.5A2.5 2.5 0 006.5 16m2.857.857V16h1.286v.857a.643.643 0 11-1.286 0M8.25 5.5a.75.75 0 01.75.75v5.7a.75.75 0 01-1.5 0v-5.7a.75.75 0 01.75-.75m3.5 0a.75.75 0 01.75.75v5.7a.75.75 0 01-1.5 0v-5.7a.75.75 0 01.75-.75" clip-rule="evenodd"/></svg>