<svg xmlns="http://www.w3.org/2000/svg" width="20" height="20" viewBox="0 0 20 20"><g fill="none"><g clip-path="url(#svgID0)"><path fill="currentColor" fill-rule="evenodd" d="M16.77 4.89 15 3.123l-1.283 1.282 1.77 1.77zM4.824 13.298l7.831-7.832 1.77 1.77-7.832 7.83-2.268.5zm9.184-3.525 3.82-3.82a1.5 1.5 0 000-2.122l-1.768-1.77a1.5 1.5 0 00-2.122 0l-3.82 3.821-3.666-3.665a2 2 0 00-2.828 0L2.211 3.63a2 2 0 000 2.828l3.665 3.666-2.422 2.422-.762 3.46a1 1 0 001.192 1.192l3.46-.762 2.423-2.422 3.676 3.676a2 2 0 002.828 0l1.414-1.414a2 2 0 000-2.828zm-1.06 1.06-2.122 2.122 3.676 3.675a.5.5 0 00.707 0l1.415-1.414a.5.5 0 000-.707l-1.036-1.035-1.057 1.058a.75.75 0 01-1.06-1.061l1.057-1.058zm-6.011-1.77L3.271 5.398a.5.5 0 010-.707l1.415-1.415a.5.5 0 01.707 0l1.136 1.136L5.47 5.47a.75.75 0 001.06 1.06l1.06-1.057 1.47 1.469z" clip-rule="evenodd"/></g><defs><clipPath id="svgID0"><path fill="#fff" d="M0 0h20v20H0z"/></clipPath></defs></g></svg>