<svg xmlns="http://www.w3.org/2000/svg" width="16" height="16" viewBox="0 0 16 16"><path fill="currentColor" fill-rule="evenodd" d="M4.007 1.993v4.541a.5.5 0 01-1 0V3.259l-.721.172a.5.5 0 01-.232-.973l1.337-.318zm-.533 7.632c-.375 0-.663.242-.799.461a.5.5 0 11-.85-.525c.258-.42.829-.936 1.65-.936.34 0 .699.113.975.385.28.276.427.667.427 1.127 0 .798-.385 1.567-.831 2.198a8 8 0 01-.578.72h1.327a.5.5 0 110 1H2.25a.5.5 0 01-.33-.877 8.5 8.5 0 001.31-1.42c.4-.567.647-1.128.647-1.62 0-.245-.073-.36-.128-.415a.38.38 0 00-.275-.098M15.008 3.5a.5.5 0 01-.5.5H8.38a.5.5 0 010-1h6.128a.5.5 0 01.5.5m-1.414 3a.5.5 0 01-.5.5H8.38a.5.5 0 110-1h4.714a.5.5 0 01.5.5m.914 3.5a.5.5 0 100-1H8.38a.5.5 0 100 1zm-.914 2.5a.5.5 0 01-.5.5H8.38a.5.5 0 010-1h4.714a.5.5 0 01.5.5" clip-rule="evenodd"/></svg>