<svg xmlns="http://www.w3.org/2000/svg" width="12" height="12" viewBox="0 0 12 12"><path fill="currentColor" d="M8.33 1.469a2.7 2.7 0 012.424 2.686l-.015.275a2.7 2.7 0 01-2.685 2.425l-.277-.014a3 3 0 01-.262-.041L6.098 9.419h3.59a.45.45 0 010 .9H2.31a.45.45 0 010-.9h1.704L2.426 7.042a.451.451 0 01.748-.501l1.91 2.858 1.584-2.927a2.7 2.7 0 01-1.3-2.042l-.014-.275a2.7 2.7 0 012.7-2.7zm-.276.886a1.8 1.8 0 100 3.6 1.8 1.8 0 000-3.6M1.296 4.471a.45.45 0 01.624.124l.284.425a.45.45 0 01-.749.5l-.283-.425a.45.45 0 01.124-.624"/></svg>