<svg xmlns="http://www.w3.org/2000/svg" width="24" height="24" viewBox="0 0 24 24"><path fill="currentColor" d="M16.385 2.917a5.4 5.4 0 015.122 5.393l-.007.278a5.4 5.4 0 01-5.393 5.122l-.278-.007a5.4 5.4 0 01-.8-.102l-2.833 5.236h7.183a.9.9 0 010 1.801H4.62a.9.9 0 010-1.8h3.407l-3.176-4.754a.901.901 0 011.498-1.001l3.819 5.716 3.169-5.854a5.4 5.4 0 01-2.623-4.357l-.007-.278a5.4 5.4 0 015.4-5.4zm-.278 1.793a3.601 3.601 0 000 7.2 3.6 3.6 0 000-7.2M2.592 8.943a.9.9 0 011.249.248l.567.85a.901.901 0 01-1.497 1l-.568-.849a.9.9 0 01.249-1.249"/></svg>