<svg xmlns="http://www.w3.org/2000/svg" width="32" height="32" viewBox="0 0 32 32"><path fill="currentColor" d="M21.846 3.89a7.2 7.2 0 016.83 7.19l-.01.37a7.2 7.2 0 01-7.19 6.83l-.371-.01a7 7 0 01-1.067-.136l-3.778 6.983h9.577a1.2 1.2 0 010 2.4H6.159a1.2 1.2 0 010-2.4h4.545l-4.236-6.34a1.2 1.2 0 111.996-1.333l5.094 7.623 4.224-7.808a7.2 7.2 0 01-3.497-5.809l-.01-.37a7.2 7.2 0 017.2-7.2zm-.37 2.39a4.8 4.8 0 100 9.6 4.8 4.8 0 000-9.6m-18.02 5.644a1.2 1.2 0 011.664.33l.757 1.133a1.2 1.2 0 01-1.996 1.334l-.757-1.132a1.2 1.2 0 01.331-1.665"/></svg>