<svg xmlns="http://www.w3.org/2000/svg" width="20" height="20" viewBox="0 0 20 20"><path fill="currentColor" d="M14.428 2.92c.92-.914 2.486-.263 2.487 1.034v11.983c0 1.291-1.555 1.946-2.478 1.043l-2.636-2.575-.011-.012h-.001l-.003-.004-.01-.01-.035-.037q-.05-.049-.139-.142l-.497-.512-.48-.489v2.735c0 1.292-1.555 1.946-2.478 1.042l-6.064-5.94a1.46 1.46 0 01-.01-2.074l6.065-6.038c.92-.916 2.487-.264 2.488 1.034v1.985h-.002l-.004.693.507-.476.498-.467.138-.129.036-.034.006-.004zm1.237 1.034a.209.209 0 00-.356-.148L12.68 6.42l-.014.012v.001h-.001l-.011.011-.036.034-.139.13c-.12.11-.29.27-.498.465l-1.57 1.469a.627.627 0 01-1.052-.46l.017-2.253V3.958a.209.209 0 00-.355-.149L2.956 9.847a.21.21 0 00.002.297l6.063 5.939a.208.208 0 00.354-.149v-4.267a.625.625 0 011.07-.439 345 345 0 012.054 2.102l.14.143.036.037.01.01.003.004h.001l2.622 2.563a.208.208 0 00.354-.15z"/></svg>