<svg xmlns="http://www.w3.org/2000/svg" width="12" height="12" viewBox="0 0 12 12"><g fill="none"><g clip-path="url(#svgID0)"><path fill="currentColor" d="M6.022 0a1 1 0 01.854.479L7.806 2H10.5A1.5 1.5 0 0112 3.5v4A1.5 1.5 0 0110.5 9H10v1.5A1.5 1.5 0 018.5 12h-7A1.5 1.5 0 010 10.5V4a1 1 0 011-1h1V1a1 1 0 011-1zM1 10.5a.5.5 0 00.5.5h7a.5.5 0 00.5-.5v-4a.5.5 0 00-.5-.5H1zM4.022 3a1 1 0 01.854.479L5.806 5H8.5A1.5 1.5 0 0110 6.5V8h.5a.5.5 0 00.5-.5v-4a.5.5 0 00-.5-.5zM1 5h3.634l-.612-1H1zm2-3h3.634l-.612-1H3z"/></g><defs><clipPath id="svgID0"><path fill="#fff" d="M0 0h12v12H0z"/></clipPath></defs></g></svg>