<svg xmlns="http://www.w3.org/2000/svg" width="16" height="16" viewBox="0 0 16 16"><path fill="currentColor" d="M7.197 1c.502 0 .97.25 1.248.668L9.333 3H13a2 2 0 012 2v5a2 2 0 01-2 2v1a2 2 0 01-2 2H3a2 2 0 01-2-2V5.5A1.5 1.5 0 012.5 4H3V2.5A1.5 1.5 0 014.5 1zM2 13a1 1 0 001 1h8a1 1 0 001-1V8a1 1 0 00-1-1H2zm3.197-9c.502 0 .97.25 1.248.668L7.333 6H11a2 2 0 012 2v3a1 1 0 001-1V5a1 1 0 00-1-1zM2.5 5a.5.5 0 00-.5.5V6h4.132l-.519-.777A.5.5 0 005.197 5zm2-3a.5.5 0 00-.5.5V3h4.132l-.519-.777A.5.5 0 007.197 2z"/></svg>