<svg xmlns="http://www.w3.org/2000/svg" width="12" height="12" viewBox="0 0 12 12"><g fill="none"><g clip-path="url(#svgID0)"><path fill="currentColor" fill-rule="evenodd" d="M5.405 1.065c-.317.067-.574.184-.712.346-.147.172-.212.26-.238.298l-.002.003a.5.5 0 01-.948-.283L4 1.5c-.495-.07-.495-.072-.495-.073v-.002l.001-.004.002-.008.003-.015a.5.5 0 01.05-.139 1 1 0 01.068-.113c.054-.08.145-.199.303-.384.353-.415.876-.593 1.266-.675A4.2 4.2 0 016.081 0h.02l.04.001A2.86 2.86 0 019 2.861V4h.5A1.5 1.5 0 0111 5.5v5A1.5 1.5 0 019.5 12h-7A1.5 1.5 0 011 10.5v-5A1.5 1.5 0 012.5 4H8V2.86A1.86 1.86 0 006.079 1h-.013a3.2 3.2 0 00-.66.065M9.5 5h-7a.5.5 0 00-.5.5v5a.5.5 0 00.5.5h7a.5.5 0 00.5-.5v-5a.5.5 0 00-.5-.5M6 9a1 1 0 100-2 1 1 0 000 2" clip-rule="evenodd"/></g><defs><clipPath id="svgID0"><path fill="#fff" d="M0 0h12v12H0z"/></clipPath></defs></g></svg>