<svg xmlns="http://www.w3.org/2000/svg" width="12" height="12" viewBox="0 0 12 12"><g fill="none"><g clip-path="url(#svgID0)"><path fill="currentColor" fill-rule="evenodd" d="M4.693 1.41c.138-.161.395-.278.712-.345.303-.064.579-.066.661-.065h.013l.062.001A1.86 1.86 0 018 2.861V4H2.5A1.5 1.5 0 001 5.5v5A1.5 1.5 0 002.5 12h7a1.5 1.5 0 001.5-1.5v-5A1.5 1.5 0 009.5 4H9V2.86A2.86 2.86 0 006.14.002h-.059c-.119-.002-.478 0-.883.086-.39.082-.913.26-1.266.675a5 5 0 00-.303.384 1 1 0 00-.098.18l-.02.072-.003.015-.002.008v.006c0 .001-.001.002.494.073l-.495-.07a.5.5 0 00.948.282l.002-.003c.026-.038.091-.126.238-.298M7 8a1 1 0 11-2 0 1 1 0 012 0" clip-rule="evenodd"/></g><defs><clipPath id="svgID0"><path fill="#fff" d="M0 0h12v12H0z"/></clipPath></defs></g></svg>