<svg xmlns="http://www.w3.org/2000/svg" width="32" height="32" viewBox="0 0 32 32"><path fill="currentColor" fill-rule="evenodd" d="M14.19 5.17c-.81.175-1.52.488-1.922.97a10 10 0 00-.666.876q-.075.118-.088.145l-.002.004a1 1 0 01-1.84-.785l.928.375a99 99 0 01-.927-.376l.001-.002.002-.004.003-.008.007-.016a2 2 0 01.066-.135 4 4 0 01.174-.289c.155-.239.405-.585.806-1.065.829-.995 2.072-1.437 3.034-1.645a10 10 0 012.164-.217h.051l.105.002A6.914 6.914 0 0123 9.914V11a4 4 0 014 4v9a4 4 0 01-4 4H9a4 4 0 01-4-4v-9a4 4 0 014-4h12V9.914C21 7.2 18.8 5 16.086 5c-.052 0-.107 0-.151-.002H15.9a8 8 0 00-1.71.172M22 13h1a2 2 0 012 2v9a2 2 0 01-2 2H9a2 2 0 01-2-2v-9a2 2 0 012-2zm-5.031 7.75a2 2 0 10-1.938 0q-.03.12-.031.25v1a1 1 0 102 0v-1q0-.13-.031-.25" clip-rule="evenodd"/></svg>