<svg xmlns="http://www.w3.org/2000/svg" width="12" height="12" viewBox="0 0 12 12"><path fill="currentColor" fill-rule="evenodd" d="M10.5 1a.5.5 0 01.5.5v9a.5.5 0 01-1 0v-9a.5.5 0 01.5-.5M7.2 5.5H1.5a.5.5 0 000 1h5.7l-.004.004-.008.008-.009.009-.008.008-.009.008-.008.009-.008.008-.009.009-.008.008-.009.008-.008.009-.008.008-.008.008-.009.009-.008.008-.008.008-.009.008-.008.009-.008.008-.008.008-.008.008-.009.008-.008.009-.008.008-.008.008-.008.008-.008.008-.008.008-.008.008-.009.008-.008.008-.008.008-.008.008-.008.008-.008.008-.008.008L6.9 6.8l-.008.008-.008.008-.007.008-.008.008-.008.008-.008.008-.008.008-.008.008-.008.007-.007.008-.008.008-.008.008-.008.008-.008.007-.007.008-.008.008-.008.008-.008.007-.007.008-.008.008-.008.007-.007.008-.008.008-.007.007-.008.008L6.698 7l-.007.008-.008.008-.007.007-.008.008-.007.007-.008.008-.007.007-.008.008-.007.007-.008.007-.007.008-.007.007-.009.01-.007.007-.008.007-.007.008-.007.007-.008.007-.007.008-.007.007-.007.007-.008.007-.007.008-.007.007-.007.007-.007.007-.008.007-.007.007-.007.008-.007.007-.007.007-.007.007-.007.007-.007.007-.007.007-.007.007-.007.007-.007.007-.007.007-.007.007L6.4 7.3l-.007.007-.007.007-.007.007-.007.006-.007.007-.006.007-.007.007-.007.007-.007.007-.007.006-.006.007-.007.007-.007.006-.006.007-.007.007-.007.006-.006.007-.007.007-.007.006-.006.007-.007.007-.006.006-.007.007-.006.006-.007.007-.006.006-.007.007-.006.006-.007.007L6.2 7.5l-.007.006-.006.007-.006.006-.007.006-.006.007-.006.006-.007.006-.006.007-.006.006-.006.006-.007.006-.006.007-.006.006-.006.006-.006.006L6.1 7.6l-.007.006-.006.006-.006.006-.006.007-.006.006-.006.006-.006.006-.006.006-.006.006-.006.006-.006.005-.006.006-.005.006-.006.006-.006.006-.006.006-.006.006-.006.005-.005.006-.006.006-.006.006-.006.005-.005.006-.006.006-.006.005-.005.006-.006.006-.006.005-.005.006-.006.006-.005.005-.006.006-.005.005-.006.006-.005.005-.006.006-.005.005-.006.005-.005.006-.005.005-.006.006-.005.005-.005.005-.006.005-.005.006-.005.005-.005.005-.006.005-.005.006-.005.005-.005.005-.005.005-.005.005-.006.005-.005.005-.005.005-.005.006-.005.005-.005.005-.005.004-.005.005-.005.005-.005.005-.004.005-.005.005-.005.005-.005.005-.005.005-.005.004-.004.005-.005.005-.005.005-.005.004L5.7 8l-.005.005-.005.004-.004.005-.005.005-.004.004-.005.005-.005.004-.004.005-.005.004-.004.005-.004.004-.005.005-.004.004-.005.004-.004.005-.004.004-.005.005-.004.004-.004.004-.005.004-.004.005-.004.004-.004.004-.005.004-.004.004-.004.005-.004.004-.004.004-.004.004-.004.004-.004.004-.004.004-.004.004-.004.004-.004.004-.004.004-.004.004-.004.004-.004.003-.003.004-.004.004-.004.004-.004.004-.004.003-.003.004-.004.004-.004.003L5.5 8.2l-.004.004-.004.003-.003.004-.004.003-.003.004-.004.003-.003.004-.004.003-.003.004-.004.003-.003.004-.003.003-.004.003-.003.004-.003.003-.004.003-.003.004-.003.003-.003.003-.004.003-.003.004-.003.003-.003.003-.003.003-.003.003-.003.003-.003.003-.003.003-.003.003L5.4 8.3l-.003.003-.003.003-.003.003-.003.003-.003.003-.003.002-.002.003-.003.003-.003.003-.003.002-.002.003-.003.003-.003.002-.002.003-.003.003-.003.002-.002.003-.003.002-.002.003-.003.002-.002.003-.003.002-.002.003-.002.002-.003.002-.002.003-.002.002-.003.002-.002.003-.002.002-.002.002-.003.002-.002.003-.002.002-.002.002-.002.002-.002.002-.002.002-.002.002-.002.002L5.3 8.4l-.002.002-.002.002-.002.002-.002.002-.002.002-.002.001-.001.002-.002.002-.002.002-.002.001-.001.002-.002.002-.002.001-.001.002-.002.002-.002.001-.001.002-.002.001-.001.002-.002.001-.001.002-.001.001-.002.002H5.26l-.002.002v.002h-.002l-.001.002-.002.001v.002H5.25l-.001.002-.001.001-.001.001-.002.001v.001l-.002.001v.001l-.002.001v.001l-.001.001-.001.001-.001.001h-.001v.002h-.002v.001l-.001.001-.002.001v.001l-.002.001v.001l-.001.001h-.001v.001h-.001v.001h-.001v.001h-.001v.001h-.001l.353.354-.353-.353a.5.5 0 00.707.707l-.354-.354.354.354.001-.001.001-.001.001-.001v-.001h.001l.001-.001.001-.001.001-.001.001-.002h.001l.002-.002.001-.001.001-.001.002-.002.002-.002.001-.002h.001l.002-.002.002-.002.002-.002.001-.001.001-.001.001-.002h.002l.001-.002.001-.001.002-.002v-.001l.002-.001.002-.002.001-.001.002-.002.001-.001.002-.002.001-.001.002-.002.001-.001.002-.002.001-.001.002-.002.002-.002.001-.001.002-.002.002-.002.002-.002.001-.002.002-.001L6 9.115l.002-.002.002-.002.002-.002.002-.002.002-.002.002-.002.002-.002.002-.002.002-.002.002-.002.002-.002.002-.002.002-.003.003-.002.002-.002.002-.002.002-.002.003-.003.002-.002.002-.002.003-.003.002-.002.003-.003.002-.002.002-.002.003-.003.002-.002.003-.003.003-.003.002-.002.003-.003.002-.002.003-.003.003-.003.002-.002.003-.003.003-.003.003-.003.002-.003.003-.002.003-.003.003-.003.003-.003.003-.003.003-.003.003-.003L6.114 9l.003-.003.003-.003.003-.003.003-.003.003-.003.003-.003.003-.003.003-.004.004-.003.003-.003.003-.003.003-.003.004-.004.003-.003.003-.003.004-.004.003-.003.004-.004.003-.003.003-.003.004-.004.003-.003.004-.004.003-.003.004-.004.004-.004.003-.003.004-.004.003-.004.004-.003.004-.004.004-.004.003-.003.004-.004.004-.004.004-.004.003-.004.004-.003.004-.004.004-.004.004-.004.004-.004.004-.004.004-.004.004-.004.004-.004.004-.004.004-.004.004-.004.004-.004.004-.004.005-.005.004-.004.004-.004.004-.004.004-.005.005-.004.004-.004.004-.004.005-.005.004-.004.004-.004.005-.005.004-.004.005-.005.004-.004.005-.005.004-.004.005-.005.004-.004.005-.005.004-.004.005-.005.005-.005.004-.004.005-.005.005-.005.004-.004.005-.005.005-.005.004-.005.005-.004.005-.005.005-.005.005-.005.005-.005.005-.005.004-.005.005-.004.005-.005.005-.005.005-.005.005-.005.005-.005.005-.005.006-.006.005-.005.005-.005.005-.005.005-.005.005-.005.005-.005.006-.006.005-.005.005-.005.005-.005.006-.006.005-.005.005-.005.006-.006.005-.005.005-.006.006-.005.005-.005.006-.006.005-.005.006-.006.005-.005.006-.006.005-.005.006-.006.006-.006.005-.005.006-.006.005-.005.006-.006.006-.006.005-.005.006-.006.006-.006.006-.006.005-.005.006-.006.006-.006.006-.006.006-.006.006-.006.006-.006.005-.005.006-.006.006-.006.006-.006.006-.006.006-.006.006-.006.006-.006.006-.006.006-.006.007-.007.006-.006.006-.006.006-.006.006-.006.006-.006.006-.007.007-.006.006-.006.006-.006.006-.007.007-.006.006-.006.006-.006.007-.007.006-.006.007-.007.006-.006.006-.006.007-.007.006-.006.007-.007.006-.006.007-.007.006-.006.007-.007.006-.006.007-.007.006-.007.007-.006.007-.007.006-.006.007-.007.007-.007.006-.006.007-.007.007-.007.007-.007.006-.006.007-.007.007-.007.007-.007.007-.007.006-.006.007-.007.007-.007.007-.007.007-.007.007-.007.007-.007.007-.007.007-.007.007-.007.007-.007.007-.007.007-.007.007-.007.007-.007.007-.007.007-.007.007-.007.008-.008.007-.007.007-.007.007-.007.007-.007.007-.008.008-.007.007-.007.007-.007.008-.008.007-.007.007-.007.008-.008.007-.007.007-.007.008-.008.007-.007.007-.007.008-.008.007-.007.008-.008.007-.007.008-.008.007-.007.008-.008.007-.007.008-.008.007-.007.008-.008.008-.008.007-.007.008-.008.008-.008.007-.007.008-.008.008-.008.007-.007.008-.008.008-.008.007-.007.008-.008.008-.008.008-.008.008-.008.007-.007.008-.008.008-.008.008-.008.008-.008.008-.008.008-.008.008-.008.008-.008.007-.008.008-.008.008-.007.008-.008.008-.008.008-.009.009-.008.008-.008.008-.008.008-.008.008-.008.008-.008.008-.008.008-.008.008-.008.009-.009.008-.008.008-.008.008-.008.008-.008.009-.009.008-.008.008-.008.008-.008.009-.009.008-.008.008-.008.009-.009.008-.008.008-.008.009-.009.008-.008.008-.008.009-.009.008-.008.009-.009.008-.008.009-.009.008-.008.009-.009.008-.008.009-.009.008-.008.009-.009.008-.008.009-.009.008-.008.009-.009.008-.009.01-.008.008-.009.008-.008.009-.01.009-.008.008-.008.01-.01.008-.008.008-.009.01-.008.008-.009.009-.009.008-.009.01-.008.008-.01.009-.008.009-.009.008-.009.01-.008.008-.01.009-.008.009-.009.009-.009.009-.009.009-.009.009-.009.008-.008.01-.01.008-.008.01-.01.008-.008.01-.01.008-.008.01-.01.008-.008.01-.01.008-.008.01-.01.009-.009.009-.009.009-.009.009-.009.009-.009.01-.01.008-.008.01-.01.009-.009.009-.009.009-.009.01-.01.008-.008.01-.01.009-.009.009-.009.01-.01.008-.008.01-.01.009-.01.01-.008.009-.01.009-.009.01-.01.009-.009.009-.009.01-.01.009-.009.009-.01.01-.008.009-.01.01-.01.009-.009.01-.01.008-.009.01-.009.01-.01.009-.009.01-.01.009-.009.01-.01.009-.009.01-.01.009-.009.01-.01L9.113 6l-.354-.354-2.828-2.828a.5.5 0 00-.707.707z" clip-rule="evenodd"/></svg>