<svg xmlns="http://www.w3.org/2000/svg" width="16" height="16" viewBox="0 0 16 16"><path fill="currentColor" fill-rule="evenodd" d="M13.5 2a.5.5 0 01.5.5v11a.5.5 0 01-1 0v-11a.5.5 0 01.5-.5m-3.386 5.5H2.5a.5.5 0 000 1h7.614l-.004.003-.01.011-.011.011-.011.011-.011.01-.01.012-.012.01-.01.011-.011.011-.01.01-.012.012-.01.01-.011.011-.01.01-.011.011-.011.011-.01.01-.011.011-.01.01-.012.011-.01.011-.01.01-.011.011-.01.01-.011.011-.01.01-.011.011-.01.01-.011.011-.01.01-.011.01-.01.011-.01.01-.011.011-.01.01-.01.01-.011.011-.01.01-.01.01-.01.01-.011.011-.01.01-.01.01-.01.01-.01.01-.011.011-.01.01-.01.01-.01.01-.01.01-.01.01-.01.01-.01.01-.01.01-.01.01-.01.01-.01.01-.01.01-.01.01-.01.01-.01.01-.01.01-.01.01-.01.01-.01.01-.01.01-.01.01-.009.009-.01.01-.01.01-.01.01-.009.009-.01.01-.01.01-.009.009-.01.01-.009.009-.01.01-.01.01-.009.009-.01.01-.009.009-.01.01-.009.009-.01.01-.009.008-.009.01-.01.01-.009.009-.009.009-.01.01-.009.009-.009.009-.01.01-.008.008-.01.01-.009.009-.01.01-.008.008-.01.01-.009.008-.009.01-.009.009-.009.009-.009.009-.009.009-.009.009-.009.009-.009.009-.009.009-.009.009-.009.009-.009.009-.008.008-.01.01-.008.008-.009.009-.009.009-.008.008-.01.01-.008.008-.009.009-.008.008-.009.009-.009.009-.008.008-.009.009-.008.008-.009.009-.009.009-.008.008-.009.009-.008.008-.009.008-.008.009-.008.008-.009.009-.008.008-.008.008-.009.009-.008.008-.008.008-.009.009-.008.008-.008.008-.008.008-.008.008-.009.009-.008.008-.008.008-.008.008-.008.008-.008.008-.008.008-.008.008-.008.008-.008.008-.008.008-.008.008-.008.008-.008.008-.007.007-.008.008-.008.008-.008.008-.008.008-.007.007-.008.008-.008.008-.007.007-.008.008-.008.008-.007.007-.008.008-.007.007-.008.008-.007.007-.008.008-.007.007-.008.008-.007.007-.008.008-.007.007-.007.007-.008.008-.007.007-.007.007-.007.007-.008.008-.007.007-.007.007-.007.007-.007.007-.007.007-.008.008-.007.006-.007.008-.007.007-.007.007-.007.006-.007.008-.006.006-.007.007-.007.007-.007.007-.007.007-.007.007-.006.006-.007.007-.007.007-.007.007-.006.006-.007.007-.006.006-.007.007-.007.007-.006.006-.007.007-.006.006-.007.007-.006.006-.007.007-.006.006-.006.006-.007.007-.006.006-.006.006-.007.007-.006.006-.006.006-.006.006-.006.006-.007.007-.006.006-.006.006-.006.006-.006.006-.006.006-.006.006-.006.006-.006.006-.006.006-.006.005-.005.006-.006.006-.006.006-.006.006-.006.006-.005.005-.006.006-.006.006-.005.005-.006.006-.006.006-.005.005-.006.006-.005.005-.006.006-.005.005-.006.006-.005.005-.005.005-.006.006-.005.005-.005.005-.006.006-.005.005-.005.005-.005.005-.006.006-.005.005-.005.005-.005.005-.005.005-.005.005-.005.005-.005.005-.005.005-.005.005-.005.005-.005.005-.005.004-.004.005-.005.005-.005.005-.005.005-.004.004-.005.005-.005.005-.004.004-.005.005-.004.004-.005.005-.005.005-.004.004-.004.004-.005.005-.004.004-.005.005-.004.004-.004.004-.005.005-.004.004-.004.004-.004.004-.004.004-.005.005-.004.004-.004.004-.004.004-.004.004-.004.004-.004.004-.004.004-.004.004-.004.004-.003.003-.004.004-.004.004-.004.004-.004.004-.003.003-.004.004-.004.004-.003.003-.004.004-.003.003-.004.004-.003.003-.004.004-.003.003-.004.004-.003.003-.003.003-.004.004-.003.003-.003.003-.004.004-.003.003-.003.003-.003.003-.003.003-.003.003-.003.003-.003.003-.003.003-.003.003-.003.003-.003.003-.003.003-.003.003-.003.003-.002.002-.003.003-.003.003-.003.002-.002.003-.003.003-.002.002-.003.003-.003.003-.002.002-.002.002-.003.003-.002.002-.003.003-.002.002-.002.002-.003.003-.002.002-.002.002-.002.002-.002.002-.003.003-.002.002-.002.002-.002.002-.002.002-.002.002-.002.002-.002.002-.001.001-.002.002-.002.002-.002.002-.002.002-.001.001-.002.002-.002.002-.001.001-.002.002-.001.001-.002.002-.001.001-.002.002-.001.001-.002.002-.001.001-.001.001-.002.002-.002.002-.001.001-.001.001-.002.002-.002.002-.002.002-.002.002-.001.001-.001.001-.001.001-.002.002-.002.002-.001.001-.001.001-.001.001-.001.001-.001.001.354.354-.354-.354a.5.5 0 10.707.707l-.353-.353.353.353.001-.001.001-.001h.001v-.001l.001-.001h.001v-.001l.001-.001.002-.001v-.001h.001v-.002h.002v-.001l.001-.001.001-.001.001-.001.001-.001.001-.001.001-.001.002-.001v-.002h.002l.001-.002.001-.001.001-.001.002-.002h.001l.001-.002.002-.002.001-.001.002-.002.001-.001.002-.002.001-.001.002-.002.001-.001.002-.002.002-.002.001-.001.002-.002.002-.002.002-.002.002-.002.002-.001.001-.002.002-.002.002-.002.002-.002.002-.002.002-.002.003-.002.002-.002.002-.003.002-.002.002-.002.002-.002.003-.003.002-.002.002-.002.003-.003.002-.002.003-.002.002-.003.003-.002.002-.003.003-.002.002-.003.003-.003.003-.002.002-.003.003-.003.003-.002.002-.003.003-.003.003-.003.003-.003.003-.003.003-.003.003-.003.003-.003.003-.003.003-.003.003-.003.003-.003.003-.003.003-.003.004-.003.003-.004.003-.003.003-.003.004-.004.003-.003.003-.003.004-.004.003-.003.004-.004.003-.003.004-.004.003-.003.004-.004.004-.003.003-.004.004-.004.004-.003.003-.004.004-.004.004-.004.004-.004.004-.003.003-.004.004-.004.004-.004.004-.004.004-.004.004-.004.004-.004.004-.004.005-.004.004-.005.004-.004.004-.004.004-.004.005-.004.004-.005.004-.004.004-.004.005-.005.004-.004.005-.005.004-.004.005-.004.004-.005.005-.004.004-.005.005-.005.004-.004.005-.005.005-.005.004-.004.005-.005.005-.005.005-.005.005-.004.004-.005.005-.005.005-.005.005-.005.005-.005.005-.005.005-.005.005-.005.005-.005.005-.005.005-.005.005-.005.006-.005.005-.006.005-.005.005-.005.006-.005.005-.006.005-.005.006-.005.005-.006.005-.005.006-.006.005-.005.006-.006.005-.005.006-.006.005-.005.006-.006.006-.005.005-.006.006-.006.006-.006.005-.005.006-.006.006-.006.006-.006.006-.005.006-.006.005-.006.006-.006.006-.006.006-.006.006-.006.006-.006.006-.006.006-.006.006-.006.007-.006.006-.007.006-.006.006-.006.006-.006.007-.006.006-.007.006-.006.006-.006.007-.007.006-.006.007-.006.006-.007.006-.006.007-.007.006-.006.007-.007.006-.006.007-.007.007-.006.006-.007.007-.007.007-.006.006-.007.007-.007.007-.006.006-.007.007-.007.007-.007.007-.007.007-.007.007-.007.007-.006.007-.007.006-.007.007-.007.008-.007.007-.007.007-.007.007-.007.007-.008.007-.007.007-.007.007-.007.007-.007.008-.008.007-.007.007-.007.007-.007.008-.008.007-.007.007-.007.008-.008.007-.007.008-.008.007-.007.008-.008.007-.007.008-.008.007-.007.008-.008.007-.007.008-.008.008-.008.007-.007.008-.008.008-.008.007-.007.008-.008.008-.008.008-.008.008-.007.007-.008.008-.008.008-.008.008-.008.008-.008.008-.008.008-.008.008-.008.008-.008.008-.008.008-.008.008-.008.008-.008.008-.008.009-.008.008-.009.008-.008.008-.008.008-.008.009-.008.008-.009.008-.008.009-.008.008-.009.008-.008.009-.009.008-.008.009-.008.008-.009.009-.008.008-.009.009-.008.008-.009.009-.008.008-.009.009-.009.008-.008.01-.009.008-.009.008-.008.01-.009.008-.009.009-.008.008-.01.01-.008.008-.009.009-.009.009-.008.009-.01.008-.008.01-.01.008-.008.01-.01.008-.008.01-.009.008-.009.01-.01.008-.008.01-.01.008-.008.01-.01.009-.008.009-.01.009-.009.01-.009.008-.01.01-.008.009-.01.01-.009.008-.01.01-.009.01-.009.008-.01.01-.009.01-.009.009-.01.009-.009.01-.01.009-.009.01-.01.009-.009.01-.01.009-.009.01-.01.01-.009.009-.01.01-.01.009-.009.01-.01.01-.01.009-.009.01-.01.01-.01.01-.009.009-.01.01-.01.01-.01.01-.01.01-.009.009-.01.01-.01.01-.01.01-.01.01-.01.01-.01.01-.01.01-.01.01-.01.01-.01.01-.01.01-.01.01-.01.01-.01.01-.01.01-.01.01-.01.01-.01.01-.01.01-.01.01-.01.011-.01.01-.011.01-.01.01-.01.011-.01.01-.011.01-.01.011-.01.01-.011.01-.01.011-.011.01-.01.011-.01.01-.011.01-.01.011-.011.01-.01.011-.011.01-.01.011-.011.011-.01.01-.011.011-.011.01-.01.011-.011.011-.01.01-.012.011-.01.011-.01.01-.012.011-.01.011-.011.011-.01.01-.012.011-.01.011-.011.011-.011.011-.01.01-.012.012-.01.01-.011.011-.011.011-.011.011-.011.011-.011.011-.011.011-.011.011-.011.011-.011.011-.011.011-.011.011-.011.011-.011.011-.011.011-.011.012-.011.01-.012.012-.01.011-.012.011-.011.011-.011.011-.011.012-.012.011-.01.011-.012.011-.011.012-.012.011-.01.011-.012.012-.011.011-.012.011-.011.012-.011.011-.012.011-.011.012-.012.011-.011.012-.011.011-.012.011-.011.012-.012.011-.011.012-.012.011-.011.012-.012.011-.011.012-.012.012-.011.011-.012.012-.012.011-.011.012-.012.012-.011.011-.012.012-.012.012-.011.011-.012.012-.012.012-.011.011-.012.012-.012.012-.012.012-.011.011-.012.012-.012.012-.012.012-.012.012-.011.011-.012.012-.012.012-.012.012-.012.012-.012.012-.012.012-.012.012-.011.353-.354-.353-.354-3.536-3.535a.5.5 0 00-.707.707z" clip-rule="evenodd"/></svg>