<svg xmlns="http://www.w3.org/2000/svg" width="24" height="24" viewBox="0 0 24 24"><path fill="currentColor" fill-rule="evenodd" d="M7 3.5A1.5 1.5 0 005.5 5v2.5a.75.75 0 01-1.5 0V5a3 3 0 013-3h10a3 3 0 013 3v2.5a.75.75 0 01-1.5 0V5A1.5 1.5 0 0017 3.5zm0 17A1.5 1.5 0 015.5 19v-2.5a.75.75 0 00-1.5 0V19a3 3 0 003 3h10a3 3 0 003-3v-2.5a.75.75 0 00-1.5 0V19a1.5 1.5 0 01-1.5 1.5zm-2.25-9.25a.75.75 0 000 1.5h2.5a.75.75 0 000-1.5zM10 12a.75.75 0 01.75-.75h2.5a.75.75 0 010 1.5h-2.5A.75.75 0 0110 12m6.75-.75a.75.75 0 000 1.5h2.5a.75.75 0 000-1.5z" clip-rule="evenodd"/></svg>