<svg xmlns="http://www.w3.org/2000/svg" width="16" height="16" viewBox="0 0 16 16"><path fill="currentColor" d="M11.334 1.334a2 2 0 012 2v7.333l-.011.205a2 2 0 01-1.797 1.786l-.192.008-.011.206a2 2 0 01-1.99 1.794H4.668l-.205-.01a2 2 0 01-1.795-1.99V5.333a2 2 0 011.795-1.989l.205-.01a2 2 0 011.795-1.99l.205-.01zM3.667 7.547v5.12a1 1 0 001 1h4.667a1 1 0 001-1v-5.12zm5.2 3.763a.5.5 0 010 1H5.143a.5.5 0 010-1zm2.467.356.102-.004a1 1 0 00.898-.996V5.833h-1zm-3.8-2.642a.5.5 0 010 1h-2.39a.5.5 0 010-1zm-2.867-4.69a1 1 0 00-.996.897l-.004.103v1.213h6.667V5.334a1 1 0 00-1-1zm2-2a1 1 0 00-.996.897l-.005.103h3.668a2 2 0 011.934 1.5h1.066v-1.5a1 1 0 00-1-1z"/></svg>