<svg xmlns="http://www.w3.org/2000/svg" width="32" height="32" viewBox="0 0 32 32"><path fill="currentColor" d="M22.667 2.667a4 4 0 014 4v14.667l-.005.205a4 4 0 01-3.796 3.79l-.2.005-.004.205a4 4 0 01-3.995 3.794H9.333l-.207-.005a4 4 0 01-3.789-3.79l-.005-.204V10.667A4 4 0 019.128 6.67l.207-.005a4 4 0 013.793-3.995l.207-.004zM7.333 25.334a2 2 0 002 2h9.333a2 2 0 002-2V15.095H7.333zm10.399-2.714a1 1 0 110 2h-7.447a1 1 0 010-2zm4.933-10.954v11.668l.205-.011a2 2 0 001.796-1.99v-9.666zm-7.6 6.381a1 1 0 010 2h-4.78a1 1 0 010-2zm-5.732-9.38a2 2 0 00-2 2v2.428h13.333v-2.429a2 2 0 00-2-2zm4-4a2 2 0 00-1.99 1.795l-.01.205h7.333a4 4 0 013.874 3h2.125v-3a2 2 0 00-2-2z"/></svg>