<svg xmlns="http://www.w3.org/2000/svg" width="24" height="24" viewBox="0 0 24 24"><path fill="currentColor" d="M17 2a3 3 0 013 3v11a3 3 0 01-2.846 2.996L17 19a3 3 0 01-3 3H7l-.154-.004A3 3 0 014 19V8a3 3 0 013-3 3 3 0 013-3zM5.5 11.321V19A1.5 1.5 0 007 20.5h7a1.5 1.5 0 001.5-1.5v-7.679zm7.8 5.644a.75.75 0 010 1.5H7.716a.75.75 0 010-1.5zm3.7.535.153-.008A1.5 1.5 0 0018.5 16V8.75H17zm-5.7-3.964a.75.75 0 010 1.5H7.716a.75.75 0 010-1.5zM7 6.5A1.5 1.5 0 005.5 8v1.821h10V8A1.5 1.5 0 0014 6.5zm3-3A1.5 1.5 0 008.5 5H14c1.398 0 2.569.956 2.902 2.25H18.5V5A1.5 1.5 0 0017 3.5z"/></svg>