<svg xmlns="http://www.w3.org/2000/svg" width="20" height="20" viewBox="0 0 20 20"><path fill="currentColor" d="M14.167 1.667a2.5 2.5 0 012.5 2.5v9.167l-.013.254a2.5 2.5 0 01-2.248 2.235l-.24.01-.012.255a2.5 2.5 0 01-2.488 2.246H5.833l-.255-.014a2.5 2.5 0 01-2.232-2.232l-.013-.255V6.667A2.5 2.5 0 015.579 4.18l.255-.013A2.5 2.5 0 018.079 1.68l.256-.012zM4.583 9.434v6.4c0 .69.56 1.25 1.25 1.25h5.833c.69 0 1.25-.56 1.25-1.25v-6.4zm6.499 4.703a.625.625 0 110 1.25H6.427a.626.626 0 010-1.25zm3.083.447.128-.006a1.25 1.25 0 001.122-1.244V7.292h-1.25zm-4.75-3.304a.625.625 0 010 1.25H6.429a.625.625 0 010-1.25zM5.833 5.417c-.69 0-1.25.56-1.25 1.25v1.517h8.333V6.667c0-.69-.56-1.25-1.25-1.25zm2.5-2.5c-.69 0-1.25.56-1.25 1.25h4.583a2.5 2.5 0 012.419 1.875h1.331V4.167c0-.69-.56-1.25-1.25-1.25z"/></svg>