<svg xmlns="http://www.w3.org/2000/svg" width="12" height="12" viewBox="0 0 12 12"><path fill="currentColor" d="M8.5 1A1.5 1.5 0 0110 2.5V8a1.5 1.5 0 01-1.347 1.492L8.5 9.5l-.008.153A1.5 1.5 0 017 11H3.5l-.153-.008A1.5 1.5 0 012 9.5V4a1.5 1.5 0 011.347-1.492L3.5 2.5A1.5 1.5 0 015 1zM2.75 5.66V9.5c0 .414.336.75.75.75H7a.75.75 0 00.75-.75V5.66zm3.9 2.822a.375.375 0 010 .75H3.857a.375.375 0 010-.75zm1.85.268.076-.004A.75.75 0 009.25 8V4.375H8.5zM5.65 6.768a.376.376 0 010 .75H3.857a.375.375 0 010-.75zM3.5 3.25a.75.75 0 00-.75.75v.91h5V4A.75.75 0 007 3.25zM5 1.75a.75.75 0 00-.75.75H7a1.5 1.5 0 011.451 1.125h.799V2.5a.75.75 0 00-.75-.75z"/></svg>