<svg xmlns="http://www.w3.org/2000/svg" width="32" height="32" viewBox="0 0 32 32"><path fill="currentColor" fill-rule="evenodd" d="M7 8h18a2 2 0 012 2v10.962l-8.732-2.425-.45-.125-.385.264L9.69 24H7a2 2 0 01-2-2V10a2 2 0 012-2m19.732 14.964.018.004A2 2 0 0125 24H13.22l4.962-3.412zM25 26H7a4 4 0 01-4-4V10a4 4 0 014-4h18a4 4 0 014 4v12a4 4 0 01-4 4m-2-12.5a1.5 1.5 0 11-3 0 1.5 1.5 0 013 0m2 0a3.5 3.5 0 11-7 0 3.5 3.5 0 017 0M8 10a1 1 0 100 2h5a1 1 0 100-2zm-1 5a1 1 0 011-1h5a1 1 0 110 2H8a1 1 0 01-1-1m1 3a1 1 0 100 2h2a1 1 0 100-2z" clip-rule="evenodd"/></svg>