<svg xmlns="http://www.w3.org/2000/svg" width="16" height="16" viewBox="0 0 16 16"><path fill="currentColor" fill-rule="evenodd" d="M13 3H3a1 1 0 00-1 1v8a1 1 0 001 1h1.75L7.6 9.2l.227-.302.352.135L14 11.272V4a1 1 0 00-1-1m2 8.99V4a2 2 0 00-2-2H3a2 2 0 00-2 2v8a2 2 0 002 2h10a2 2 0 002-1.988zM6 13l2.173-2.898 5.774 2.22A1 1 0 0113 13zm4.75-6a.75.75 0 100-1.5.75.75 0 000 1.5m0 1a1.75 1.75 0 100-3.5 1.75 1.75 0 000 3.5M3 5.5a.5.5 0 01.5-.5h3a.5.5 0 010 1h-3a.5.5 0 01-.5-.5M3.5 7a.5.5 0 000 1h2a.5.5 0 000-1z" clip-rule="evenodd"/></svg>