<svg xmlns="http://www.w3.org/2000/svg" width="24" height="24" viewBox="0 0 24 24"><path fill="currentColor" fill-rule="evenodd" d="M5 5.5h14A1.5 1.5 0 0120.5 7v9.256l-7.304-1.98-.367-.1-.298.238-5 4a1 1 0 00-.09.086H5A1.5 1.5 0 013.5 17V7A1.5 1.5 0 015 5.5m8.171 10.324 7.126 1.93A1.5 1.5 0 0119 18.5H9.826zM2 7a3 3 0 013-3h14a3 3 0 013 3v10a3 3 0 01-3 3H5a3 3 0 01-3-3zm15 3a1 1 0 11-2 0 1 1 0 012 0m1.5 0a2.5 2.5 0 11-5 0 2.5 2.5 0 015 0M5.75 7.5a.75.75 0 000 1.5h4.5a.75.75 0 000-1.5zM5 11.25a.75.75 0 01.75-.75h4.5a.75.75 0 010 1.5h-4.5a.75.75 0 01-.75-.75m.75 2.25a.75.75 0 000 1.5h1.5a.75.75 0 000-1.5z" clip-rule="evenodd"/></svg>