<svg xmlns="http://www.w3.org/2000/svg" width="12" height="12" viewBox="0 0 12 12"><g fill="none"><g clip-path="url(#svgID0)"><path fill="currentColor" fill-rule="evenodd" d="M10.5 2h-9a.5.5 0 00-.5.5v7a.5.5 0 00.5.5h1.293l2.854-2.854.205-.205.28.077L11 8.345V2.5a.5.5 0 00-.5-.5M12 8.982V2.5A1.5 1.5 0 0010.5 1h-9A1.5 1.5 0 000 2.5v7A1.5 1.5 0 001.5 11h9A1.5 1.5 0 0012 9.5zm-1 .4L6.148 8.059 4.208 10H10.5a.5.5 0 00.5-.5zM8.5 5a.5.5 0 100-1 .5.5 0 000 1m0 1a1.5 1.5 0 100-3 1.5 1.5 0 000 3M2 3.5a.5.5 0 01.5-.5h3a.5.5 0 010 1h-3a.5.5 0 01-.5-.5M2.5 5a.5.5 0 000 1h2a.5.5 0 000-1z" clip-rule="evenodd"/></g><defs><clipPath id="svgID0"><path fill="#fff" d="M0 0h12v12H0z"/></clipPath></defs></g></svg>