<svg xmlns="http://www.w3.org/2000/svg" width="20" height="20" viewBox="0 0 20 20"><path fill="currentColor" fill-rule="evenodd" d="M16.5 4.5h-13a1 1 0 00-1 1v9a1 1 0 001 1h1.941l.029-.03 4-4 .32-.321.434.135 7.276 2.274V5.5a1 1 0 00-1-1m.82 10.573-7.11-2.222L7.56 15.5h8.94c.34 0 .639-.169.82-.427M3.5 3A2.5 2.5 0 001 5.5v9A2.5 2.5 0 003.5 17h13a2.5 2.5 0 002.5-2.5v-9A2.5 2.5 0 0016.5 3zm10.25 6a.75.75 0 100-1.5.75.75 0 000 1.5m0 1.5a2.25 2.25 0 100-4.5 2.25 2.25 0 000 4.5M4 6.75A.75.75 0 014.75 6h4.5a.75.75 0 010 1.5h-4.5A.75.75 0 014 6.75M4.75 9a.75.75 0 000 1.5h2.5a.75.75 0 000-1.5z" clip-rule="evenodd"/></svg>