<svg xmlns="http://www.w3.org/2000/svg" width="24" height="24" viewBox="0 0 24 24"><path fill="currentColor" fill-rule="evenodd" d="M11 20.5v-17a.75.75 0 011.5 0v17a.75.75 0 01-1.5 0m-3-3v-11a.75.75 0 011.5 0v11a.75.75 0 01-1.5 0m6-11v11a.75.75 0 001.5 0v-11a.75.75 0 00-1.5 0M5.75 9.25a.75.75 0 01.75.75v4A.75.75 0 015 14v-4a.75.75 0 01.75-.75M18.5 10a.75.75 0 00-1.5 0v4a.75.75 0 001.5 0zm-15.75.75a.75.75 0 01.75.75v1a.75.75 0 01-1.5 0v-1a.75.75 0 01.75-.75m18.75.75a.75.75 0 00-1.5 0v1a.75.75 0 001.5 0z" clip-rule="evenodd"/></svg>