<svg xmlns="http://www.w3.org/2000/svg" width="20" height="20" viewBox="0 0 20 20"><path fill="currentColor" fill-rule="evenodd" d="M8.25 4h-3.5a.75.75 0 000 1.5h3.5a.75.75 0 000-1.5m-3.5-1.5a2.25 2.25 0 000 4.5h3.5a2.25 2.25 0 002.122-1.5h6.378a.75.75 0 000-1.5h-6.378A2.25 2.25 0 008.25 2.5zm12 8.5a.75.75 0 000-1.5h-2.878A2.25 2.25 0 0011.75 8h-3.5a2.25 2.25 0 00-2.122 1.5H3.25a.75.75 0 000 1.5h2.878a2.25 2.25 0 002.122 1.5h3.5a2.25 2.25 0 002.122-1.5zm-8.5-1.5h3.5a.75.75 0 010 1.5h-3.5a.75.75 0 010-1.5m1.378 7A2.25 2.25 0 0011.75 18h3.5a2.25 2.25 0 000-4.5h-3.5A2.25 2.25 0 009.628 15H3.25a.75.75 0 000 1.5zM11.75 15h3.5a.75.75 0 010 1.5h-3.5a.75.75 0 010-1.5" clip-rule="evenodd"/></svg>