<svg xmlns="http://www.w3.org/2000/svg" width="16" height="16" viewBox="0 0 16 16"><path fill="currentColor" fill-rule="evenodd" d="M6.5 3h-3a.5.5 0 000 1h3a.5.5 0 000-1m0 2a1.5 1.5 0 001.415-1H13.5a.5.5 0 000-1H7.915A1.5 1.5 0 006.5 2h-3a1.5 1.5 0 100 3zm3 8a.5.5 0 010-1h3a.5.5 0 010 1zm-1.467-1h.052A1.5 1.5 0 019.5 11h3a1.5 1.5 0 010 3h-3a1.5 1.5 0 01-1.415-1H2.5v-1zm-5.533.5v.5a.5.5 0 010-1zm7-5h-3a.5.5 0 000 1h3a.5.5 0 000-1m-4.415 0a1.5 1.5 0 011.415-1h3a1.5 1.5 0 011.415 1H13.5a.5.5 0 010 1h-2.585a1.5 1.5 0 01-1.415 1h-3a1.5 1.5 0 01-1.415-1H2.5a.5.5 0 010-1z" clip-rule="evenodd"/></svg>