<svg xmlns="http://www.w3.org/2000/svg" width="24" height="24" viewBox="0 0 24 24"><path fill="currentColor" fill-rule="evenodd" d="M9.75 5.5h-3.5a.75.75 0 000 1.5h3.5a.75.75 0 000-1.5M6.25 4a2.25 2.25 0 000 4.5h3.5A2.25 2.25 0 0011.872 7h7.378a.75.75 0 000-1.5h-7.378A2.25 2.25 0 009.75 4zm12.95 9a.75.75 0 000-1.5h-3.328A2.25 2.25 0 0013.75 10h-3.5a2.25 2.25 0 00-2.122 1.5H4.75a.75.75 0 000 1.5h3.378a2.25 2.25 0 002.122 1.5h3.5a2.25 2.25 0 002.122-1.5zm-8.95-1.5h3.5a.75.75 0 010 1.5h-3.5a.75.75 0 010-1.5m1.878 7.5a2.25 2.25 0 002.122 1.5h3.5a2.25 2.25 0 000-4.5h-3.5a2.25 2.25 0 00-2.122 1.5H4.75a.75.75 0 000 1.5zm2.122-1.5h3.5a.75.75 0 010 1.5h-3.5a.75.75 0 010-1.5" clip-rule="evenodd"/></svg>