<svg xmlns="http://www.w3.org/2000/svg" width="32" height="32" viewBox="0 0 32 32"><path fill="currentColor" fill-rule="evenodd" d="M13 8H9a1 1 0 000 2h4a1 1 0 100-2m0-2c1.306 0 2.418.835 2.83 2H25a1 1 0 110 2h-9.17A3 3 0 0113 12H9a3 3 0 110-6zm13 10a1 1 0 01-1 1h-4.17A3 3 0 0118 19h-4a3 3 0 01-2.83-2H7a1 1 0 110-2h4.17A3 3 0 0114 13h4c1.306 0 2.418.835 2.83 2H25a1 1 0 011 1m-12 1a1 1 0 110-2h4a1 1 0 110 2zm4 6a1 1 0 001 1h4a1 1 0 100-2h-4a1 1 0 00-1 1M7 24h9.17A3 3 0 0019 26h4a3 3 0 100-6h-4a3 3 0 00-2.83 2H7a1 1 0 100 2" clip-rule="evenodd"/></svg>