<svg xmlns="http://www.w3.org/2000/svg" width="16" height="16" viewBox="0 0 16 16"><path fill="currentColor" fill-rule="evenodd" d="M6 1a1.5 1.5 0 00-1.415 1H4a2 2 0 00-2 2v9a2 2 0 002 2h8a2 2 0 002-2V4a2 2 0 00-2-2h-.585A1.5 1.5 0 0010 1zM4 3h.585A1.5 1.5 0 006 4h4a1.5 1.5 0 001.415-1H12a1 1 0 011 1v9a1 1 0 01-1 1H4a1 1 0 01-1-1V4a1 1 0 011-1m1.5-.5A.5.5 0 016 2h4a.5.5 0 010 1H6a.5.5 0 01-.5-.5M8 6a.5.5 0 01.5.5v2h2a.5.5 0 010 1h-2v2a.5.5 0 01-1 0v-2h-2a.5.5 0 010-1h2v-2A.5.5 0 018 6" clip-rule="evenodd"/></svg>