<svg xmlns="http://www.w3.org/2000/svg" width="24" height="24" viewBox="0 0 24 24"><path fill="currentColor" fill-rule="evenodd" d="M9 2.5A1.75 1.75 0 007.268 4H7a3 3 0 00-3 3v11a3 3 0 003 3h10a3 3 0 003-3V7a3 3 0 00-3-3h-.268A1.75 1.75 0 0015 2.5zm-2 3h.268C7.389 6.348 8.118 7 9 7h6a1.75 1.75 0 001.732-1.5H17A1.5 1.5 0 0118.5 7v11a1.5 1.5 0 01-1.5 1.5H7A1.5 1.5 0 015.5 18V7A1.5 1.5 0 017 5.5m1.75-1.25A.25.25 0 019 4h6a.25.25 0 01.25.25v1a.25.25 0 01-.25.25H9a.25.25 0 01-.25-.25zm3.25 5a.75.75 0 01.75.75v2.5h2.5a.75.75 0 010 1.5h-2.5v2.5a.75.75 0 01-1.5 0V14h-2.5a.75.75 0 010-1.5h2.5V10a.75.75 0 01.75-.75" clip-rule="evenodd"/></svg>