<svg xmlns="http://www.w3.org/2000/svg" width="20" height="20" viewBox="0 0 20 20"><path fill="currentColor" fill-rule="evenodd" d="M7.5 1.25A1.75 1.75 0 005.75 3H5.5A2.5 2.5 0 003 5.5v10A2.5 2.5 0 005.5 18h9a2.5 2.5 0 002.5-2.5v-10A2.5 2.5 0 0014.5 3h-.25a1.75 1.75 0 00-1.75-1.75zm-2 3.25h.322A1.75 1.75 0 007.5 5.75h5a1.75 1.75 0 001.678-1.25h.322a1 1 0 011 1v10a1 1 0 01-1 1h-9a1 1 0 01-1-1v-10a1 1 0 011-1M7.25 3a.25.25 0 01.25-.25h5a.25.25 0 01.25.25v1a.25.25 0 01-.25.25h-5A.25.25 0 017.25 4zM10 7.5a.75.75 0 01.75.75v2h2a.75.75 0 010 1.5h-2v2a.75.75 0 01-1.5 0v-2h-2a.75.75 0 010-1.5h2v-2A.75.75 0 0110 7.5" clip-rule="evenodd"/></svg>