<svg xmlns="http://www.w3.org/2000/svg" width="12" height="12" viewBox="0 0 12 12"><path fill="currentColor" fill-rule="evenodd" d="M4.5 0a1.5 1.5 0 00-1.415 1H2.5A1.5 1.5 0 001 2.5v8A1.5 1.5 0 002.5 12h7a1.5 1.5 0 001.5-1.5v-8A1.5 1.5 0 009.5 1h-.585A1.5 1.5 0 007.5 0zm-2 2h.585A1.5 1.5 0 004.5 3h3a1.5 1.5 0 001.415-1H9.5a.5.5 0 01.5.5v8a.5.5 0 01-.5.5h-7a.5.5 0 01-.5-.5v-8a.5.5 0 01.5-.5m2-1a.5.5 0 000 1h3a.5.5 0 000-1zM6 4.5a.5.5 0 01.5.5v1.5H8a.5.5 0 010 1H6.5V9a.5.5 0 11-1 0V7.5H4a.5.5 0 010-1h1.5V5a.5.5 0 01.5-.5" clip-rule="evenodd"/></svg>