<svg xmlns="http://www.w3.org/2000/svg" width="32" height="32" viewBox="0 0 32 32"><path fill="currentColor" fill-rule="evenodd" d="M20.94 4.108c1.332-.832 3.06.125 3.06 1.696v15.392c0 1.57-1.728 2.528-3.06 1.696L14.713 19H12v6.335a2.665 2.665 0 01-5.266.578L5.09 18.515A4 4 0 013 15v-3a4 4 0 014-4h7.713zM15 17h-2v-7h2.287l.243-.152L22 5.804v15.392l-6.47-4.044-.243-.152zm-8-7h4v7H7a2 2 0 01-2-2v-3a2 2 0 012-2m.247 9 1.44 6.48A.665.665 0 0010 25.335V19zM29 10a1 1 0 10-2 0v7a1 1 0 102 0z" clip-rule="evenodd"/></svg>