<svg xmlns="http://www.w3.org/2000/svg" width="12" height="12" viewBox="0 0 12 12"><g fill="none"><g clip-path="url(#svgID0)"><path fill="currentColor" fill-rule="evenodd" d="M5.254 1.046a.5.5 0 010 .708l-2.8 2.8-.354.353-.354-.353-1.4-1.4a.5.5 0 01.707-.707L2.1 3.493l2.447-2.447a.5.5 0 01.707 0M3.5 7h-2a.5.5 0 00-.5.5v2a.5.5 0 00.5.5h2a.5.5 0 00.5-.5v-2a.5.5 0 00-.5-.5m-2-1A1.5 1.5 0 000 7.5v2A1.5 1.5 0 001.5 11h2A1.5 1.5 0 005 9.5v-2A1.5 1.5 0 003.5 6zm10.53-4.5a.5.5 0 01-.5.5H7.485a.5.5 0 110-1h4.045a.5.5 0 01.5.5m-.934 3a.5.5 0 01-.5.5H7.485a.5.5 0 010-1h3.111a.5.5 0 01.5.5M11.53 8a.5.5 0 000-1H7.485a.5.5 0 000 1zm-.434 2.5a.5.5 0 01-.5.5H7.485a.5.5 0 010-1h3.111a.5.5 0 01.5.5" clip-rule="evenodd"/></g><defs><clipPath id="svgID0"><path fill="#fff" d="M0 0h12v12H0z"/></clipPath></defs></g></svg>