<svg xmlns="http://www.w3.org/2000/svg" width="20" height="20" viewBox="0 0 20 20"><path fill="currentColor" fill-rule="evenodd" d="M19.014 4.75a.75.75 0 01-.75.75H9.585a.75.75 0 010-1.5h8.679a.75.75 0 01.75.75m-2.003 3.5a.75.75 0 01-.75.75H9.585a.75.75 0 010-1.5h6.676a.75.75 0 01.75.75m1.253 4.25a.75.75 0 000-1.5H9.585a.75.75 0 000 1.5zm-1.253 2.75a.75.75 0 01-.75.75H9.585a.75.75 0 010-1.5h6.676a.75.75 0 01.75.75M6.6 4.87a.75.75 0 010 1.06l-2.8 2.8-.531.53-.53-.53-1.4-1.4A.75.75 0 012.4 6.27l.87.87 2.27-2.27a.75.75 0 011.06 0M4.5 12.5h-2v2h2zm-2-1.5A1.5 1.5 0 001 12.5v2A1.5 1.5 0 002.5 16h2A1.5 1.5 0 006 14.5v-2A1.5 1.5 0 004.5 11z" clip-rule="evenodd"/></svg>