<svg xmlns="http://www.w3.org/2000/svg" width="16" height="16" viewBox="0 0 16 16"><path fill="currentColor" fill-rule="evenodd" d="M6.254 2.546a.5.5 0 010 .708l-2.8 2.8-.354.353-.354-.353-1.4-1.4a.5.5 0 01.707-.707L3.1 4.993l2.447-2.447a.5.5 0 01.707 0M4.5 9h-2a.5.5 0 00-.5.5v2a.5.5 0 00.5.5h2a.5.5 0 00.5-.5v-2a.5.5 0 00-.5-.5m-2-1A1.5 1.5 0 001 9.5v2A1.5 1.5 0 002.5 13h2A1.5 1.5 0 006 11.5v-2A1.5 1.5 0 004.5 8zm12.508-4.5a.5.5 0 01-.5.5H8.38a.5.5 0 010-1h6.128a.5.5 0 01.5.5m-1.414 3a.5.5 0 01-.5.5H8.38a.5.5 0 110-1h4.714a.5.5 0 01.5.5m.914 3.5a.5.5 0 100-1H8.38a.5.5 0 000 1zm-.914 2.5a.5.5 0 01-.5.5H8.38a.5.5 0 010-1h4.714a.5.5 0 01.5.5" clip-rule="evenodd"/></svg>