<svg xmlns="http://www.w3.org/2000/svg" width="12" height="12" viewBox="0 0 12 12"><path fill="currentColor" fill-rule="evenodd" d="M8.5 2h2a.5.5 0 01.5.5v7a.5.5 0 01-.5.5h-2a.5.5 0 01-.5-.5v-7a.5.5 0 01.5-.5M7 2.5A1.5 1.5 0 018.5 1h2A1.5 1.5 0 0112 2.5v7a1.5 1.5 0 01-1.5 1.5h-2A1.5 1.5 0 017 9.5zm-7 0A.5.5 0 01.5 2h4a.5.5 0 010 1h-4a.5.5 0 01-.5-.5M2.5 4a.5.5 0 000 1h2a.5.5 0 000-1zM0 6.5A.5.5 0 01.5 6h4a.5.5 0 010 1h-4a.5.5 0 01-.5-.5m2 2a.5.5 0 01.5-.5h2a.5.5 0 010 1h-2a.5.5 0 01-.5-.5" clip-rule="evenodd"/></svg>