<svg xmlns="http://www.w3.org/2000/svg" width="24" height="24" viewBox="0 0 24 24"><path fill="currentColor" fill-rule="evenodd" d="M16 4.5h3A1.5 1.5 0 0120.5 6v12a1.5 1.5 0 01-1.5 1.5h-3a1.5 1.5 0 01-1.5-1.5V6A1.5 1.5 0 0116 4.5M13 6a3 3 0 013-3h3a3 3 0 013 3v12a3 3 0 01-3 3h-3a3 3 0 01-3-3zM2 5.75A.75.75 0 012.75 5h7.015a.75.75 0 010 1.5H2.75A.75.75 0 012 5.75m0 6a.75.75 0 01.75-.75h7.015a.75.75 0 010 1.5H2.75a.75.75 0 01-.75-.75M5.75 8a.75.75 0 100 1.5h4.015a.75.75 0 000-1.5zM5 14.75a.75.75 0 01.75-.75h4.015a.75.75 0 010 1.5H5.75a.75.75 0 01-.75-.75" clip-rule="evenodd"/></svg>