<svg xmlns="http://www.w3.org/2000/svg" width="20" height="20" viewBox="0 0 20 20"><path fill="currentColor" fill-rule="evenodd" d="M14.5 3.5h2a1 1 0 011 1v11a1 1 0 01-1 1h-2a1 1 0 01-1-1v-11a1 1 0 011-1m-2.5 1A2.5 2.5 0 0114.5 2h2A2.5 2.5 0 0119 4.5v11a2.5 2.5 0 01-2.5 2.5h-2a2.5 2.5 0 01-2.5-2.5zM1.048 3.75a.75.75 0 01.75-.75h6.394a.75.75 0 010 1.5H1.798a.75.75 0 01-.75-.75m0 6a.75.75 0 01.75-.75h6.394a.75.75 0 010 1.5H1.798a.75.75 0 01-.75-.75M3.928 6a.75.75 0 000 1.5h4.274a.75.75 0 000-1.5zm-.75 6.75a.75.75 0 01.75-.75h4.274a.75.75 0 010 1.5H3.927a.75.75 0 01-.75-.75" clip-rule="evenodd"/></svg>