<svg xmlns="http://www.w3.org/2000/svg" width="16" height="16" viewBox="0 0 16 16"><path fill="currentColor" fill-rule="evenodd" d="M12.5 4a.5.5 0 100-1 .5.5 0 000 1m0 1a1.5 1.5 0 10-1.415-2H10a2 2 0 00-2 2v2.5H6v-2A1.5 1.5 0 004.5 4h-1A1.5 1.5 0 002 5.5v5A1.5 1.5 0 003.5 12h1A1.5 1.5 0 006 10.5v-2h2V11a2 2 0 002 2h1.085a1.5 1.5 0 100-1H10a1 1 0 01-1-1V8.5h2.085a1.5 1.5 0 100-1H9V5a1 1 0 011-1h1.085A1.5 1.5 0 0012.5 5m-9 0h1a.5.5 0 01.5.5v5a.5.5 0 01-.5.5h-1a.5.5 0 01-.5-.5v-5a.5.5 0 01.5-.5M13 8a.5.5 0 11-1 0 .5.5 0 011 0m0 4.5a.5.5 0 11-1 0 .5.5 0 011 0" clip-rule="evenodd"/></svg>