<svg xmlns="http://www.w3.org/2000/svg" width="12" height="12" viewBox="0 0 12 12"><path fill="currentColor" fill-rule="evenodd" d="M9.5 2a.5.5 0 100-1 .5.5 0 000 1m0 1a1.5 1.5 0 10-1.415-2H7.5A1.5 1.5 0 006 2.5v3H5V3a1 1 0 00-1-1H2a1 1 0 00-1 1v6a1 1 0 001 1h2a1 1 0 001-1V6.5h1v3A1.5 1.5 0 007.5 11h.585a1.5 1.5 0 100-1H7.5a.5.5 0 01-.5-.5v-3h1.085a1.5 1.5 0 100-1H7v-3a.5.5 0 01.5-.5h.585A1.5 1.5 0 009.5 3M2 3h2v6H2zm8 3a.5.5 0 11-1 0 .5.5 0 011 0m0 4.5a.5.5 0 11-1 0 .5.5 0 011 0" clip-rule="evenodd"/></svg>