<svg xmlns="http://www.w3.org/2000/svg" width="32" height="32" viewBox="0 0 32 32"><path fill="currentColor" fill-rule="evenodd" d="M26 8a1 1 0 11-2 0 1 1 0 012 0m2 0a3 3 0 01-5.83 1H21a2 2 0 00-2 2v4h3.17a3.001 3.001 0 110 2H19v4a2 2 0 002 2h1.17a3.001 3.001 0 110 2H21a4 4 0 01-4-4v-4h-3v4a3 3 0 01-3 3H7a3 3 0 01-3-3V11a3 3 0 013-3h4a3 3 0 013 3v4h3v-4a4 4 0 014-4h1.17A3.001 3.001 0 0128 8m-4 16a1 1 0 102 0 1 1 0 00-2 0M7 10h4a1 1 0 011 1v10a1 1 0 01-1 1H7a1 1 0 01-1-1V11a1 1 0 011-1m18 7a1 1 0 100-2 1 1 0 000 2" clip-rule="evenodd"/></svg>