<svg xmlns="http://www.w3.org/2000/svg" width="24" height="24" viewBox="0 0 24 24"><path fill="currentColor" fill-rule="evenodd" d="M18.5 6a1 1 0 100-2 1 1 0 000 2m0 1.5a2.5 2.5 0 10-2.393-3.226A3.25 3.25 0 0013.25 7.5v3.75H10V7.5A2.5 2.5 0 007.5 5h-2A2.5 2.5 0 003 7.5v9A2.5 2.5 0 005.5 19h2a2.5 2.5 0 002.5-2.5v-3.75h3.25v3.75a3.25 3.25 0 003.082 3.246A2.499 2.499 0 0021 18.5a2.5 2.5 0 00-4.98-.317 1.75 1.75 0 01-1.27-1.683v-3.75h1.364a2.501 2.501 0 100-1.5H14.75V7.5c0-.839.59-1.54 1.377-1.71A2.5 2.5 0 0018.5 7.5m-13-1h2a1 1 0 011 1v9a1 1 0 01-1 1h-2a1 1 0 01-1-1v-9a1 1 0 011-1m14 5.5a1 1 0 11-2 0 1 1 0 012 0m0 6.5a1 1 0 11-2 0 1 1 0 012 0" clip-rule="evenodd"/></svg>