<svg xmlns="http://www.w3.org/2000/svg" width="12" height="12" viewBox="0 0 12 12"><path fill="currentColor" d="M9.5 2A1.5 1.5 0 0111 3.5v5a1.5 1.5 0 01-1.347 1.492L9.5 10h-7l-.153-.008A1.5 1.5 0 011 8.5v-5A1.5 1.5 0 012.5 2zm-7 .75a.75.75 0 00-.75.75v5c0 .414.336.75.75.75h7a.75.75 0 00.75-.75v-5a.75.75 0 00-.75-.75zm1.783 1.34q.393 0 .684.083.297.082.455.234a.45.45 0 01.166.352q0 .138-.083.262a.28.28 0 01-.241.118.6.6 0 01-.187-.029.6.6 0 01-.124-.082.6.6 0 00-.345-.152A1.13 1.13 0 003.8 5q-.24.152-.372.414-.131.255-.131.594 0 .33.13.594.139.255.374.406.24.152.552.152.173 0 .296-.02a.7.7 0 00.207-.063q.098-.055.173-.117.076-.062.228-.063.179 0 .275.119a.4.4 0 01.097.275q0 .172-.193.317a1.7 1.7 0 01-.51.228 2.6 2.6 0 01-.677.083q-.545 0-.945-.248-.4-.255-.621-.69a2.2 2.2 0 01-.214-.973q0-.566.227-.993.235-.435.642-.677.414-.249.945-.248m3.93 0q.394 0 .683.083.297.082.456.234a.45.45 0 01.166.352q0 .138-.083.262a.28.28 0 01-.242.118.6.6 0 01-.186-.029.6.6 0 01-.124-.082.6.6 0 00-.345-.152A1.13 1.13 0 007.73 5q-.24.152-.373.414-.13.255-.13.594 0 .33.13.594.138.255.373.406.242.152.552.152.173 0 .297-.02a.7.7 0 00.207-.063 1.3 1.3 0 00.173-.117q.075-.062.228-.063.178 0 .275.119a.4.4 0 01.097.275q0 .172-.194.317a1.7 1.7 0 01-.51.228 2.6 2.6 0 01-.676.083q-.546 0-.946-.248-.4-.255-.62-.69a2.2 2.2 0 01-.215-.973q0-.566.228-.993.235-.435.643-.677.413-.249.945-.248"/></svg>