<svg xmlns="http://www.w3.org/2000/svg" width="16" height="16" viewBox="0 0 16 16"><path fill="currentColor" d="M12.666 2.667a2 2 0 012 2v6.667l-.01.204a2 2 0 01-1.785 1.785l-.205.01H3.333l-.204-.01a2 2 0 01-1.785-1.785l-.011-.204V4.667a2 2 0 012-2zm-9.333 1a1 1 0 00-1 1v6.667a1 1 0 001 1h9.333a1 1 0 001-1V4.667a1 1 0 00-1-1zm2.379 1.786q.525 0 .91.11.396.112.607.313a.6.6 0 01.221.47.6.6 0 01-.11.349.37.37 0 01-.322.156.7.7 0 01-.248-.037.8.8 0 01-.166-.11.8.8 0 00-.46-.202 1.6 1.6 0 00-.276-.038q-.47.001-.8.203-.322.203-.498.552a1.7 1.7 0 00-.174.791q0 .441.174.791.185.34.497.543.322.202.737.202.23 0 .395-.027a1 1 0 00.277-.083q.128-.073.23-.156.1-.083.303-.083a.45.45 0 01.368.157q.129.147.129.367 0 .23-.258.424a2.2 2.2 0 01-.68.304q-.415.11-.903.11-.726 0-1.26-.331a2.3 2.3 0 01-.828-.92 2.9 2.9 0 01-.285-1.298q0-.754.304-1.324.312-.58.855-.902.553-.331 1.26-.331m5.24 0q.524 0 .91.11.396.112.607.313a.6.6 0 01.221.47.6.6 0 01-.11.349.37.37 0 01-.322.156.7.7 0 01-.25-.037.8.8 0 01-.164-.11.8.8 0 00-.46-.202 1.6 1.6 0 00-.277-.038q-.468.001-.8.203-.322.203-.496.552-.175.34-.175.791 0 .442.175.791.183.34.497.543.322.202.735.202.23 0 .396-.027a1 1 0 00.276-.083q.128-.073.23-.156.1-.083.303-.083a.45.45 0 01.368.157q.129.147.13.367 0 .23-.259.424a2.2 2.2 0 01-.68.304 3.5 3.5 0 01-.902.11q-.727 0-1.26-.331a2.3 2.3 0 01-.829-.92A2.9 2.9 0 018.53 8.01q0-.754.304-1.324a2.3 2.3 0 01.855-.902q.552-.331 1.261-.331"/></svg>