<svg xmlns="http://www.w3.org/2000/svg" width="32" height="32" viewBox="0 0 32 32"><path fill="currentColor" d="M25.54 5.338a4 4 0 013.794 3.996v13.333l-.006.206a4 4 0 01-3.789 3.789l-.205.005H6.667l-.206-.005a4 4 0 01-3.794-3.995V9.333a4 4 0 014-4h18.667zM6.666 7.333a2 2 0 00-2 2v13.333a2 2 0 002 2h18.667a2 2 0 002-2V9.334a2 2 0 00-2-2zm4.756 3.573q1.049 0 1.821.22.792.222 1.215.626.441.386.441.938 0 .367-.22.7-.22.312-.644.313-.294 0-.497-.075a1.6 1.6 0 01-.331-.22 2 2 0 00-.35-.24q-.183-.11-.57-.165a3 3 0 00-.553-.074q-.938 0-1.6.406-.644.405-.993 1.103-.35.681-.35 1.583 0 .883.35 1.582.367.681.993 1.086.645.404 1.472.404.46 0 .791-.054.332-.056.552-.166.258-.148.46-.313.203-.165.608-.166.477 0 .735.314.258.293.258.735 0 .46-.515.847-.515.368-1.362.607a7 7 0 01-1.803.22q-1.454 0-2.52-.661a4.6 4.6 0 01-1.657-1.841q-.57-1.159-.57-2.594 0-1.509.607-2.65a4.6 4.6 0 011.711-1.803q1.104-.663 2.52-.662m10.48 0q1.048 0 1.82.22.792.222 1.216.626.44.386.44.938 0 .367-.22.7-.22.312-.643.313-.295 0-.497-.075a1.6 1.6 0 01-.331-.22 2 2 0 00-.35-.24q-.184-.11-.57-.165a3 3 0 00-.553-.074q-.94 0-1.6.406-.644.405-.994 1.103-.35.681-.35 1.583 0 .883.35 1.582.367.681.993 1.086.645.404 1.472.404.46 0 .792-.054.33-.056.552-.166.257-.148.46-.313.202-.165.607-.166.478 0 .735.314.258.293.258.735 0 .46-.514.847-.517.368-1.363.607a7 7 0 01-1.802.22q-1.455 0-2.521-.661a4.6 4.6 0 01-1.656-1.841q-.57-1.159-.57-2.594 0-1.509.606-2.65a4.6 4.6 0 011.712-1.803q1.104-.663 2.52-.662"/></svg>