<svg xmlns="http://www.w3.org/2000/svg" width="20" height="20" viewBox="0 0 20 20"><path fill="currentColor" d="M16.089 3.346a2.5 2.5 0 012.245 2.488v8.333l-.014.255a2.5 2.5 0 01-2.231 2.232l-.255.012H4.167l-.256-.012a2.5 2.5 0 01-2.244-2.488V5.834a2.5 2.5 0 012.5-2.5h11.667zM4.167 4.583c-.69 0-1.25.56-1.25 1.25v8.333c0 .69.56 1.25 1.25 1.25h11.667c.69 0 1.25-.56 1.25-1.25V5.834c0-.69-.56-1.25-1.25-1.25zM7.14 6.817q.655 0 1.138.138.495.138.76.391.274.241.274.586 0 .23-.137.438a.46.46 0 01-.403.195.9.9 0 01-.31-.046 1 1 0 01-.207-.138 1 1 0 00-.575-.253 2 2 0 00-.345-.046q-.587 0-1.001.253a1.7 1.7 0 00-.62.69 2.14 2.14 0 00-.219.99q0 .551.219.988.23.426.62.678.402.253.92.253.288 0 .495-.034.207-.035.345-.104.161-.09.288-.195.126-.103.379-.103.298 0 .46.195a.67.67 0 01.16.46q0 .288-.321.53-.323.228-.851.378-.517.138-1.127.139-.908 0-1.575-.414a2.9 2.9 0 01-1.035-1.15 3.6 3.6 0 01-.357-1.622q0-.942.38-1.656A2.86 2.86 0 015.562 7.23q.69-.414 1.577-.414m6.55 0q.654 0 1.137.138.495.138.76.391.276.241.275.586 0 .23-.137.438a.46.46 0 01-.403.195.9.9 0 01-.31-.046 1 1 0 01-.207-.138 1 1 0 00-.575-.253 2 2 0 00-.345-.046q-.587 0-1.001.253a1.7 1.7 0 00-.621.69 2.14 2.14 0 00-.218.99q0 .551.218.988.23.426.62.678.404.253.92.253.289 0 .496-.034.207-.035.345-.104.16-.09.287-.195.126-.103.38-.103.298 0 .46.195a.67.67 0 01.16.46q0 .288-.322.53-.322.228-.85.378-.518.138-1.127.139-.91 0-1.576-.414a2.9 2.9 0 01-1.035-1.15 3.6 3.6 0 01-.357-1.622q0-.942.38-1.656a2.86 2.86 0 011.07-1.127q.69-.414 1.576-.414"/></svg>