<svg xmlns="http://www.w3.org/2000/svg" width="24" height="24" viewBox="0 0 24 24"><path fill="currentColor" d="M19 4a3 3 0 013 3v10a3 3 0 01-2.846 2.996L19 20H5l-.154-.004A3 3 0 012 17V7a3 3 0 013-3zM5 5.5A1.5 1.5 0 003.5 7v10A1.5 1.5 0 005 18.5h14a1.5 1.5 0 001.5-1.5V7A1.5 1.5 0 0019 5.5zm3.567 2.679q.787 0 1.367.166.594.165.91.47.332.29.332.703a.93.93 0 01-.166.524.55.55 0 01-.483.234q-.22 0-.373-.054a1.2 1.2 0 01-.248-.166 1.5 1.5 0 00-.262-.179 1.2 1.2 0 00-.428-.125 2.3 2.3 0 00-.414-.055q-.705 0-1.2.304-.482.304-.746.828-.262.51-.262 1.187 0 .662.262 1.186.276.51.746.815.483.303 1.103.303.345 0 .594-.042.248-.041.414-.124.193-.11.345-.234.15-.124.455-.124.36 0 .552.234a.8.8 0 01.193.552q0 .345-.386.635-.387.276-1.021.456-.621.165-1.353.165-1.09 0-1.89-.496a3.47 3.47 0 01-1.243-1.381q-.428-.87-.428-1.945 0-1.132.457-1.988.468-.87 1.283-1.352.828-.497 1.89-.497m7.86 0q.787 0 1.366.166.594.165.911.47.33.29.331.703a.93.93 0 01-.166.524.55.55 0 01-.482.234 1.1 1.1 0 01-.373-.054 1.2 1.2 0 01-.248-.166 1.5 1.5 0 00-.263-.179 1.2 1.2 0 00-.428-.125 2.3 2.3 0 00-.414-.055q-.704 0-1.2.304-.483.304-.745.828-.263.51-.263 1.187 0 .662.263 1.186.276.51.745.815.483.303 1.103.303.346 0 .594-.042.249-.041.414-.124.194-.11.345-.234.152-.124.456-.124.358 0 .552.234a.8.8 0 01.193.552q0 .345-.387.635-.386.276-1.021.456-.621.165-1.353.165-1.09 0-1.89-.496a3.47 3.47 0 01-1.241-1.381q-.428-.87-.428-1.945 0-1.132.455-1.988.469-.87 1.283-1.352.828-.497 1.89-.497"/></svg>