<svg xmlns="http://www.w3.org/2000/svg" width="12" height="12" viewBox="0 0 12 12"><path fill="currentColor" fill-rule="evenodd" d="M6.5 2h-5a.5.5 0 00-.5.5v7a.5.5 0 00.5.5h5a.5.5 0 00.5-.5v-7a.5.5 0 00-.5-.5m-5-1A1.5 1.5 0 000 2.5v7A1.5 1.5 0 001.5 11h5A1.5 1.5 0 008 9.5v-7A1.5 1.5 0 006.5 1zM10 2.5a.5.5 0 01.5-.5h1a.5.5 0 010 1h-1a.5.5 0 01-.5-.5m.5 1.5a.5.5 0 000 1h1a.5.5 0 000-1zM10 6.5a.5.5 0 01.5-.5h1a.5.5 0 010 1h-1a.5.5 0 01-.5-.5m.5 1.5a.5.5 0 000 1h1a.5.5 0 000-1z" clip-rule="evenodd"/></svg>