<svg xmlns="http://www.w3.org/2000/svg" width="20" height="20" viewBox="0 0 20 20"><path fill="currentColor" fill-rule="evenodd" d="M3.5 3.5h8a1 1 0 011 1v11a1 1 0 01-1 1h-8a1 1 0 01-1-1v-11a1 1 0 011-1M1 4.5A2.5 2.5 0 013.5 2h8A2.5 2.5 0 0114 4.5v11a2.5 2.5 0 01-2.5 2.5h-8A2.5 2.5 0 011 15.5zM16.033 4a.75.75 0 01.75-.75h1.44a.75.75 0 010 1.5h-1.44a.75.75 0 01-.75-.75m0 5.75a.75.75 0 01.75-.75h1.508a.75.75 0 010 1.5h-1.508a.75.75 0 01-.75-.75m.75-3.75a.75.75 0 000 1.5h.938a.75.75 0 100-1.5zm-.75 6.75a.75.75 0 01.75-.75h.938a.75.75 0 010 1.5h-.938a.75.75 0 01-.75-.75" clip-rule="evenodd"/></svg>