<svg xmlns="http://www.w3.org/2000/svg" width="24" height="24" viewBox="0 0 24 24"><path fill="currentColor" fill-rule="evenodd" d="M17 17.5v-6.444a2 2 0 00-.582-1.41l-.145-.147H18.5V16a1.5 1.5 0 01-1.5 1.5m-2.49-9.773v-3.89l3.845 3.866a.5.5 0 01.142.296h-3.715zm-1.5-1.509-.623-.628A2 2 0 0010.968 5H8.5A1.5 1.5 0 0110 3.5h3.01zM7 5a3 3 0 013-3h3.968a2 2 0 011.418.59l4.032 4.056A2 2 0 0120 8.056V16a3 3 0 01-3 3 3 3 0 01-3 3H7a3 3 0 01-3-3V8a3 3 0 013-3m0 15.5h7a1.5 1.5 0 001.5-1.5v-6.5h-5.49v-6H7A1.5 1.5 0 005.5 8v11A1.5 1.5 0 007 20.5m8.355-9.797a.5.5 0 01.142.296H11.51V6.837z" clip-rule="evenodd"/></svg>