<svg xmlns="http://www.w3.org/2000/svg" width="16" height="16" viewBox="0 0 16 16"><path fill="currentColor" fill-rule="evenodd" d="M14 11a2 2 0 01-2 2 2 2 0 01-2 2H4a2 2 0 01-2-2V5a2 2 0 012-2 2 2 0 012-2h3.218a2 2 0 011.357.53l2.782 2.568A2 2 0 0114 5.568zM5 4H4a1 1 0 00-1 1v8a1 1 0 001 1h6a1 1 0 001-1V8.214H7.071V4zm0-1h2.218a2 2 0 011.357.53l.496.459V2H6a1 1 0 00-1 1m5.399 2.214-.327-.302V2.427l2.606 2.406a1 1 0 01.257.381zm1.073 1A2 2 0 0112 7.568V12a1 1 0 001-1V6.214zm-.794.62a1 1 0 01.257.38H8.071V4.427z" clip-rule="evenodd"/></svg>