<svg xmlns="http://www.w3.org/2000/svg" width="12" height="12" viewBox="0 0 12 12"><path fill="currentColor" fill-rule="evenodd" d="M9.5 9H9V5.928a2 2 0 00-.614-1.441l-.174-.168H10V8.5a.5.5 0 01-.5.5M7.014 3.167V1H4.5a.5.5 0 00-.5.5V2h.994a2 2 0 011.387.558zM3 2v-.5A1.5 1.5 0 014.5 0h2.494a2 2 0 011.387.558l2.005 1.929A2 2 0 0111 3.928V8.5A1.5 1.5 0 019.5 10H9v.5A1.5 1.5 0 017.5 12h-5A1.5 1.5 0 011 10.5v-7A1.5 1.5 0 012.5 2zm0 1h-.5a.5.5 0 00-.5.5v7a.5.5 0 00.5.5h5a.5.5 0 00.5-.5V6.32H5.014V3zm6.793.32a1 1 0 00-.1-.112l-1.68-1.615v1.726zm-2.1 1.888a1 1 0 01.1.111h-1.78V3.593z" clip-rule="evenodd"/></svg>