<svg xmlns="http://www.w3.org/2000/svg" width="16" height="16" viewBox="0 0 16 16"><path fill="currentColor" fill-rule="evenodd" d="M13 13a1 1 0 01-1 1H4a1 1 0 01-1-1V3a1 1 0 011-1h4v5h5zm-.02-7H9V2.175a1 1 0 01.102.08l.668-.743-.668.744 3.566 3.2A1 1 0 0112.98 6m.356-1.288-3.566-3.2A2 2 0 008.434 1H4a2 2 0 00-2 2v10a2 2 0 002 2h8a2 2 0 002-2V6.2a2 2 0 00-.664-1.488M7 9.5a.5.5 0 01.5-.5h3a.5.5 0 010 1h-3a.5.5 0 01-.5-.5m.5 1.5a.5.5 0 000 1h3a.5.5 0 000-1zM6 9.5a.5.5 0 11-1 0 .5.5 0 011 0M5.5 12a.5.5 0 100-1 .5.5 0 000 1" clip-rule="evenodd"/></svg>