<svg xmlns="http://www.w3.org/2000/svg" width="20" height="20" viewBox="0 0 20 20"><path fill="currentColor" fill-rule="evenodd" d="M14.5 17.5h-9a1 1 0 01-1-1v-13a1 1 0 011-1h4.507v5.993H15.5V16.5a1 1 0 01-1 1m.826-10.507-3.82-3.778v3.778zM5.5 19h9a2.5 2.5 0 002.5-2.5V7.373a2 2 0 00-.594-1.422l-4.422-4.373A2 2 0 0010.578 1H5.5A2.5 2.5 0 003 3.5v13A2.5 2.5 0 005.5 19m2.75-4.25A.75.75 0 019 14h4a.75.75 0 010 1.5H9a.75.75 0 01-.75-.75M9 10.5A.75.75 0 009 12h4a.75.75 0 000-1.5zm-1.5.75a.75.75 0 11-1.5 0 .75.75 0 011.5 0m-.75 4.25a.75.75 0 100-1.5.75.75 0 000 1.5" clip-rule="evenodd"/></svg>