<svg xmlns="http://www.w3.org/2000/svg" width="12" height="12" viewBox="0 0 12 12"><path fill="currentColor" fill-rule="evenodd" d="M5.917 1H2.5a.5.5 0 00-.5.5v9a.5.5 0 00.5.5h7a.5.5 0 00.5-.5V5.083H5.917zm3.958 3.083a1 1 0 00-.197-.25l-2.761-2.55v2.8zM2.5 12h7a1.5 1.5 0 001.5-1.5V4.568a2 2 0 00-.643-1.47L7.575.53A2 2 0 006.218 0H2.5A1.5 1.5 0 001 1.5v9A1.5 1.5 0 002.5 12m3-4.5A.5.5 0 016 7h2a.5.5 0 010 1H6a.5.5 0 01-.5-.5M6 9a.5.5 0 000 1h2a.5.5 0 000-1zM4.5 7.5a.5.5 0 11-1 0 .5.5 0 011 0M4 10a.5.5 0 100-1 .5.5 0 000 1" clip-rule="evenodd"/></svg>