<svg xmlns="http://www.w3.org/2000/svg" width="20" height="20" viewBox="0 0 20 20"><path fill="currentColor" d="M11.416 9.6a.65.65 0 00-.003.806l2.564 3.205a.641.641 0 001.001-.8l-1.735-2.17h4.443a.641.641 0 000-1.282H13.25l1.731-2.164a.64.64 0 10-1-.8zM9.353 4.206c0-.34.287-.616.64-.616a.63.63 0 01.642.616v11.588c0 .34-.287.616-.641.616a.63.63 0 01-.641-.616zm-4.24 9.485a.64.64 0 00.9-.1l2.565-3.196a.64.64 0 00-.066-.87l-2.505-3.13a.641.641 0 10-1.001.8l1.73 2.164H2.302a.641.641 0 000 1.282H6.74l-1.726 2.152a.64.64 0 00.1.898"/></svg>