<svg xmlns="http://www.w3.org/2000/svg" width="12" height="12" viewBox="0 0 12 12"><g fill="none"><g clip-path="url(#svgID0)"><path fill="currentColor" fill-rule="evenodd" d="M11.5 6.5a.5.5 0 000-1H8.837l1.267-1.267a.5.5 0 00-.708-.707l-2.12 2.122L6.921 6l.353.354 2.121 2.121a.5.5 0 00.708-.707L8.834 6.5zM6 1a.5.5 0 01.5.5v9a.5.5 0 01-1 0v-9A.5.5 0 016 1M-.078 6.002a.5.5 0 01.5-.5h2.665L1.818 4.233a.5.5 0 11.707-.707l2.121 2.122L5 6l-.354.354-2.12 2.121a.5.5 0 11-.708-.707l1.267-1.267H.422a.5.5 0 01-.5-.5" clip-rule="evenodd"/></g><defs><clipPath id="svgID0"><path fill="#fff" d="M0 0h12v12H0z"/></clipPath></defs></g></svg>