<svg xmlns="http://www.w3.org/2000/svg" width="24" height="24" viewBox="0 0 24 24"><path fill="currentColor" fill-rule="evenodd" d="M21.25 12.75a.75.75 0 000-1.5h-4.94l2.22-2.22a.75.75 0 00-1.06-1.06l-3.536 3.535-.53.53.53.53 3.536 3.536a.75.75 0 101.06-1.06l-2.29-2.291zM12 4a.75.75 0 01.75.75v14.5a.75.75 0 01-1.5 0V4.75A.75.75 0 0112 4M2 12.071a.75.75 0 01.75-.75h5.01l-2.29-2.29A.75.75 0 016.53 7.97l3.536 3.535.53.53-.53.53-3.536 3.536a.75.75 0 11-1.06-1.06l2.22-2.22H2.75a.75.75 0 01-.75-.75" clip-rule="evenodd"/></svg>