<svg xmlns="http://www.w3.org/2000/svg" width="20" height="20" viewBox="0 0 20 20"><path fill="currentColor" fill-rule="evenodd" d="M3.5 4.5h13a1 1 0 011 1v9a1 1 0 01-1 1h-13a1 1 0 01-1-1v-9a1 1 0 011-1M1 5.5A2.5 2.5 0 013.5 3h13A2.5 2.5 0 0119 5.5v9a2.5 2.5 0 01-2.5 2.5h-13A2.5 2.5 0 011 14.5zm6.25 1a3.5 3.5 0 100 7H8.5a.75.75 0 000-1.5H7.25a2 2 0 110-4H8.5a.75.75 0 000-1.5zm5.5 7a3.5 3.5 0 100-7H11.5a.75.75 0 000 1.5h1.25a2 2 0 110 4H11.5a.75.75 0 000 1.5zM7.25 10A.75.75 0 018 9.25h4a.75.75 0 010 1.5H8a.75.75 0 01-.75-.75" clip-rule="evenodd"/></svg>