<svg xmlns="http://www.w3.org/2000/svg" width="24" height="24" viewBox="0 0 24 24"><path fill="currentColor" fill-rule="evenodd" d="M5 5.5h14A1.5 1.5 0 0120.5 7v10a1.5 1.5 0 01-1.5 1.5H5A1.5 1.5 0 013.5 17V7A1.5 1.5 0 015 5.5M2 7a3 3 0 013-3h14a3 3 0 013 3v10a3 3 0 01-3 3H5a3 3 0 01-3-3zm7 1.25a3.75 3.75 0 100 7.5h1a.75.75 0 000-1.5H9a2.25 2.25 0 010-4.5h1a.75.75 0 000-1.5zm6 7.5a3.75 3.75 0 100-7.5h-1a.75.75 0 000 1.5h1a2.25 2.25 0 010 4.5h-1a.75.75 0 000 1.5zM9 12a.75.75 0 01.75-.75h4.5a.75.75 0 010 1.5h-4.5A.75.75 0 019 12" clip-rule="evenodd"/></svg>