<svg xmlns="http://www.w3.org/2000/svg" width="12" height="12" viewBox="0 0 12 12"><path fill="currentColor" fill-rule="evenodd" d="M10.5 2h-9a.5.5 0 00-.5.5v7a.5.5 0 00.5.5h9a.5.5 0 00.5-.5v-7a.5.5 0 00-.5-.5m-9-1A1.5 1.5 0 000 2.5v7A1.5 1.5 0 001.5 11h9A1.5 1.5 0 0012 9.5v-7A1.5 1.5 0 0010.5 1zm3 2.5a2.5 2.5 0 000 5H5a.5.5 0 000-1h-.5a1.5 1.5 0 110-3H5a.5.5 0 000-1zm.25 2a.5.5 0 000 1h2.5a.5.5 0 000-1zm2.75 3a2.5 2.5 0 000-5H7a.5.5 0 000 1h.5a1.5 1.5 0 110 3H7a.5.5 0 000 1z" clip-rule="evenodd"/></svg>