<svg xmlns="http://www.w3.org/2000/svg" width="12" height="12" viewBox="0 0 12 12"><g fill="none"><g clip-path="url(#svgID0)"><path fill="currentColor" fill-rule="evenodd" d="M6 12A6 6 0 106 0a6 6 0 000 12M3.525 3.525a.5.5 0 01.707 0L6 5.293l1.768-1.768a.5.5 0 01.707.707L6.707 6l1.768 1.768a.5.5 0 01-.707.707L6 6.707 4.232 8.475a.5.5 0 01-.707-.707L5.293 6 3.525 4.232a.5.5 0 010-.707" clip-rule="evenodd"/></g><defs><clipPath id="svgID0"><path fill="#fff" d="M0 0h12v12H0z"/></clipPath></defs></g></svg>