<svg xmlns="http://www.w3.org/2000/svg" width="20" height="20" viewBox="0 0 20 20"><path fill="currentColor" fill-rule="evenodd" d="M7.58 5.9H4a.5.5 0 00-.5.5V16a.5.5 0 00.5.5h1.94v-.54a2.86 2.86 0 015.72 0v.54h1.94a.5.5 0 00.5-.5v-3.58h2.18a1.22 1.22 0 100-2.44H14.1V6.4a.5.5 0 00-.5-.5h-3.58V3.72a1.22 1.22 0 00-2.44 0zm8.02 9.52v-1.5h.68a2.72 2.72 0 100-5.44h-.68V6.4a2 2 0 00-2-2h-2.08v-.68a2.72 2.72 0 00-5.44 0v.68H4a2 2 0 00-2 2V16a2 2 0 002 2h3.44v-2.04a1.36 1.36 0 012.72 0V18h3.44a2 2 0 002-2z" clip-rule="evenodd"/></svg>