<svg xmlns="http://www.w3.org/2000/svg" width="12" height="12" viewBox="0 0 12 12"><g fill="none"><g clip-path="url(#svgID0)"><path fill="currentColor" fill-rule="evenodd" d="M3.88 3.4H1.5a.5.5 0 00-.5.5v6.6a.5.5 0 00.5.5h1.34v-.44a1.96 1.96 0 113.92 0V11H8.1a.5.5 0 00.5-.5V8.12h1.48a.92.92 0 000-1.84H8.6V3.9a.5.5 0 00-.5-.5H5.72V1.92a.92.92 0 00-1.84 0zm5.72 6.72v-1h.48a1.92 1.92 0 100-3.84H9.6V3.9a1.5 1.5 0 00-1.5-1.5H6.72v-.48a1.92 1.92 0 00-3.84 0v.48H1.5A1.5 1.5 0 000 3.9v6.6A1.5 1.5 0 001.5 12h2.34v-1.44a.96.96 0 111.92 0V12H8.1a1.5 1.5 0 001.5-1.5z" clip-rule="evenodd"/></g><defs><clipPath id="svgID0"><path fill="#fff" d="M0 0h12v12H0z"/></clipPath></defs></g></svg>