<svg xmlns="http://www.w3.org/2000/svg" width="16" height="16" viewBox="0 0 16 16"><path fill="currentColor" fill-rule="evenodd" d="M12.558 10.945a.75.75 0 101.5 0 .75.75 0 00-1.5 0m-1.5 3.113a.5.5 0 100-1h-6a.5.5 0 100 1zM7.308 2.695a.75.75 0 101.5 0 .75.75 0 00-1.5 0m3.5.75a.75.75 0 110-1.5.75.75 0 010 1.5m-8.003 8.25a.75.75 0 110-1.5.75.75 0 010 1.5m9.753-3.75a.75.75 0 101.5 0 .75.75 0 00-1.5 0m-9.753.75a.75.75 0 110-1.5.75.75 0 010 1.5m9.753-3.75a.75.75 0 101.5 0 .75.75 0 00-1.5 0m-9.753.75a.75.75 0 110-1.5.75.75 0 010 1.5m1.753-3a.75.75 0 101.5 0 .75.75 0 00-1.5 0" clip-rule="evenodd"/></svg>