<svg xmlns="http://www.w3.org/2000/svg" width="32" height="32" viewBox="0 0 32 32"><path fill="currentColor" fill-rule="evenodd" d="M25.5 11.25a1.25 1.25 0 110-2.5 1.25 1.25 0 010 2.5M24.25 15a1.25 1.25 0 102.5 0 1.25 1.25 0 00-2.5 0m-19 0a1.25 1.25 0 102.5 0 1.25 1.25 0 00-2.5 0m20.25 6.25a1.25 1.25 0 110-2.5 1.25 1.25 0 010 2.5M5.25 20a1.25 1.25 0 102.5 0 1.25 1.25 0 00-2.5 0m14-14a1.25 1.25 0 102.5 0 1.25 1.25 0 00-2.5 0M10.5 7.25a1.25 1.25 0 110-2.5 1.25 1.25 0 010 2.5M14.25 6a1.25 1.25 0 102.5 0 1.25 1.25 0 00-2.5 0M6.5 11.25a1.25 1.25 0 110-2.5 1.25 1.25 0 010 2.5m3.25 13.5a1 1 0 100 2h12a1 1 0 100-2z" clip-rule="evenodd"/></svg>