<svg xmlns="http://www.w3.org/2000/svg" width="12" height="12" viewBox="0 0 12 12"><path fill="currentColor" fill-rule="evenodd" d="M10.235 4.54a.75.75 0 110-1.5.75.75 0 010 1.5m-.75 1.475a.75.75 0 101.5 0 .75.75 0 00-1.5 0m-.5 5.17a.5.5 0 100-1h-6a.5.5 0 000 1zm-1.5-9.62a.75.75 0 101.5 0 .75.75 0 00-1.5 0m-1.5.75a.75.75 0 110-1.5.75.75 0 010 1.5m-3-.75a.75.75 0 101.5 0 .75.75 0 00-1.5 0m-1.25 5.2a.75.75 0 110-1.5.75.75 0 010 1.5m7.75 1.475a.75.75 0 101.5 0 .75.75 0 00-1.5 0m-7.75.75a.75.75 0 110-1.5.75.75 0 010 1.5m-.75-5.2a.75.75 0 101.5 0 .75.75 0 00-1.5 0" clip-rule="evenodd"/></svg>