<svg xmlns="http://www.w3.org/2000/svg" width="12" height="12" viewBox="0 0 12 12"><path fill="currentColor" fill-rule="evenodd" d="M4.429 10V9H1.5a.5.5 0 01-.5-.5v-6a.5.5 0 01.5-.5h9a.5.5 0 01.5.5v6a.5.5 0 01-.5.5H6.613l-.286.26-1.898 1.728zm6.071 0H7l-1.898 1.727a1 1 0 01-1.673-.74V10H1.5A1.5 1.5 0 010 8.5v-6A1.5 1.5 0 011.5 1h9A1.5 1.5 0 0112 2.5v6a1.5 1.5 0 01-1.5 1.5M3.25 6.5a.75.75 0 100-1.5.75.75 0 000 1.5M6 6.5A.75.75 0 106 5a.75.75 0 000 1.5m3.5-.75a.75.75 0 11-1.5 0 .75.75 0 011.5 0" clip-rule="evenodd"/></svg>