<svg xmlns="http://www.w3.org/2000/svg" width="32" height="32" viewBox="0 0 32 32"><path fill="currentColor" fill-rule="evenodd" d="M9 4a2 2 0 00-2 2v2.053a2 2 0 002 2h3.5a2 2 0 002-2V6a2 2 0 00-2-2zm0 4.053V6h3.5v2.053zM9 13a2 2 0 00-2 2v2.053a2 2 0 002 2h3.5a2 2 0 002-2V15a2 2 0 00-2-2zm0 4.053V15h3.5v2.053zM7 24a2 2 0 012-2h3.5a2 2 0 012 2v2.053a2 2 0 01-2 2H9a2 2 0 01-2-2zm2 0v2.053h3.5V24zm8-11a1 1 0 102 0v-2.745A6.99 6.99 0 0122 16a6.99 6.99 0 01-3 5.746v-2.502a1 1 0 10-2 0V25h6a1 1 0 100-2h-2.342A8.98 8.98 0 0024 16a8.98 8.98 0 00-3.342-7H23a1 1 0 100-2h-6z" clip-rule="evenodd"/></svg>