<svg xmlns="http://www.w3.org/2000/svg" width="16" height="16" viewBox="0 0 16 16"><path fill="currentColor" fill-rule="evenodd" d="M4 1a1 1 0 00-1 1v1.5a1 1 0 001 1h2.5a1 1 0 001-1V2a1 1 0 00-1-1zm0 1h2.5v1.5H4zm0 4.25a1 1 0 00-1 1v1.5a1 1 0 001 1h2.5a1 1 0 001-1v-1.5a1 1 0 00-1-1zm0 1h2.5v1.5H4zM3 12.5a1 1 0 011-1h2.5a1 1 0 011 1V14a1 1 0 01-1 1H4a1 1 0 01-1-1zm3.5 0H4V14h2.5zm2.5-6a.5.5 0 001 0V4.536a4 4 0 011.999 3.463c0 1.48-.804 2.772-1.999 3.464V9.5a.5.5 0 00-1 0V13h3.5a.5.5 0 000-1h-1.502a5 5 0 002-4A5 5 0 0011 4h1.5a.5.5 0 000-1H9z" clip-rule="evenodd"/></svg>