<svg xmlns="http://www.w3.org/2000/svg" width="12" height="12" viewBox="0 0 12 12"><path fill="currentColor" fill-rule="evenodd" d="M2.5 1a1 1 0 00-1 1v1a1 1 0 001 1h2a1 1 0 001-1V2a1 1 0 00-1-1zm0 1h2v1h-2zm0 3a1 1 0 00-1 1v1a1 1 0 001 1h2a1 1 0 001-1V6a1 1 0 00-1-1zm0 1h2v1h-2zm-1 4a1 1 0 011-1h2a1 1 0 011 1v1a1 1 0 01-1 1h-2a1 1 0 01-1-1zm3 0h-2v1h2zM7 5a.5.5 0 001 0V3.627A3.5 3.5 0 019.5 6.5c0 1.19-.593 2.24-1.5 2.873V8a.5.5 0 10-1 0v3h3a.5.5 0 000-1H8.83a4.5 4.5 0 001.67-3.5A4.5 4.5 0 008.83 3H10a.5.5 0 000-1H7z" clip-rule="evenodd"/></svg>