<svg xmlns="http://www.w3.org/2000/svg" width="24" height="24" viewBox="0 0 24 24"><path fill="currentColor" fill-rule="evenodd" d="M6 2.5A1.5 1.5 0 004.5 4v2A1.5 1.5 0 006 7.5h3.25a1.5 1.5 0 001.5-1.5V4a1.5 1.5 0 00-1.5-1.5zM6 4h3.25v2H6zm0 5.5A1.5 1.5 0 004.5 11v2A1.5 1.5 0 006 14.5h3.25a1.5 1.5 0 001.5-1.5v-2a1.5 1.5 0 00-1.5-1.5zM6 11h3.25v2H6zm-1.5 7A1.5 1.5 0 016 16.5h3.25a1.5 1.5 0 011.5 1.5v2a1.5 1.5 0 01-1.5 1.5H6A1.5 1.5 0 014.5 20zm4.75 0H6v2h3.25zM13 9.25a.75.75 0 001.5 0V6.956A6 6 0 0117.25 12a6 6 0 01-2.75 5.045V14.75a.75.75 0 00-1.5 0v4.75h4.75a.75.75 0 000-1.5h-1.999a7.49 7.49 0 002.999-6 7.49 7.49 0 00-3-6h2a.75.75 0 000-1.5H13z" clip-rule="evenodd"/></svg>