<svg xmlns="http://www.w3.org/2000/svg" width="20" height="20" viewBox="0 0 20 20"><path fill="currentColor" fill-rule="evenodd" d="M4 3a1.5 1.5 0 011.5-1.5H8A1.5 1.5 0 019.5 3v1.5A1.5 1.5 0 018 6H5.5A1.5 1.5 0 014 4.5zm4 0H5.5v1.5H8zM5.5 7.75A1.5 1.5 0 004 9.25v1.5a1.5 1.5 0 001.5 1.5H8a1.5 1.5 0 001.5-1.5v-1.5A1.5 1.5 0 008 7.75zm0 1.5H8v1.5H5.5zm0 4.75A1.5 1.5 0 004 15.5V17a1.5 1.5 0 001.5 1.5H8A1.5 1.5 0 009.5 17v-1.5A1.5 1.5 0 008 14zm0 1.5H8V17H5.5zM11 7.75a.75.75 0 001.5 0V6c1.214.912 2 2.364 2 4a5 5 0 01-2 4v-1.75a.75.75 0 00-1.5 0v4.25h4.25a.75.75 0 000-1.5h-1.596A6.49 6.49 0 0016 10c0-2.01-.913-3.808-2.346-5h1.596a.75.75 0 000-1.5H11z" clip-rule="evenodd"/></svg>