<svg xmlns="http://www.w3.org/2000/svg" width="32" height="32" viewBox="0 0 32 32"><path fill="currentColor" fill-rule="evenodd" d="M6.5 20.25a1.25 1.25 0 110 2.5 1.25 1.25 0 010-2.5m1.25-3.75a1.25 1.25 0 10-2.5 0 1.25 1.25 0 002.5 0m19 0a1.25 1.25 0 10-2.5 0 1.25 1.25 0 002.5 0M6.5 10.25a1.25 1.25 0 110 2.5 1.25 1.25 0 010-2.5m20.25 1.25a1.25 1.25 0 10-2.5 0 1.25 1.25 0 002.5 0m-14 14a1.25 1.25 0 10-2.5 0 1.25 1.25 0 002.5 0m8.75-1.25a1.25 1.25 0 110 2.5 1.25 1.25 0 010-2.5m-3.75 1.25a1.25 1.25 0 10-2.5 0 1.25 1.25 0 002.5 0m7.75-5.25a1.25 1.25 0 110 2.5 1.25 1.25 0 010-2.5m-3.25-13.5a1 1 0 100-2h-12a1 1 0 100 2z" clip-rule="evenodd"/></svg>