<svg xmlns="http://www.w3.org/2000/svg" width="16" height="16" viewBox="0 0 16 16"><path fill="currentColor" fill-rule="evenodd" d="M3.555 5.058a.75.75 0 10-1.5 0 .75.75 0 001.5 0m1.5-3.113a.5.5 0 000 1h6a.5.5 0 100-1zm3.75 11.363a.75.75 0 10-1.5 0 .75.75 0 001.5 0m-3.5-.75a.75.75 0 110 1.5.75.75 0 010-1.5m8.003-8.25a.75.75 0 110 1.5.75.75 0 010-1.5m-9.753 3.75a.75.75 0 10-1.5 0 .75.75 0 001.5 0m9.753-.75a.75.75 0 110 1.5.75.75 0 010-1.5m-9.753 3.75a.75.75 0 10-1.5 0 .75.75 0 001.5 0m9.753-.75a.75.75 0 110 1.5.75.75 0 010-1.5m-1.753 3a.75.75 0 10-1.5 0 .75.75 0 001.5 0" clip-rule="evenodd"/></svg>