<svg xmlns="http://www.w3.org/2000/svg" width="24" height="24" viewBox="0 0 24 24"><path fill="currentColor" d="M5.958 3.503C4.853 2.407 2.974 3.19 2.974 4.746v14.38c0 1.548 1.865 2.333 2.973 1.251l3.163-3.09.018-.019.011-.012.044-.045.165-.17.598-.616.576-.588v.663h-.001v2.622c0 1.55 1.867 2.334 2.975 1.25l7.277-7.127a1.75 1.75 0 00.01-2.49l-7.278-7.246c-1.103-1.098-2.984-.317-2.984 1.24v2.383h.002l.006.83-.609-.57-.6-.56-.164-.155-.044-.04-.014-.013zM4.474 4.746a.25.25 0 01.426-.178l3.157 3.136.017.016.014.014.044.04.165.154.599.56 1.883 1.763a.752.752 0 001.264-.553l-.022-2.703V4.75a.25.25 0 01.427-.178l7.276 7.246a.25.25 0 010 .355L12.445 19.3a.25.25 0 01-.425-.178V17h.001v-3a.75.75 0 00-1.284-.526 422 422 0 00-2.466 2.523l-.167.172-.044.044-.01.012-.005.004-3.147 3.075a.25.25 0 01-.425-.178z"/></svg>