<svg xmlns="http://www.w3.org/2000/svg" width="12" height="12" viewBox="0 0 12 12"><path fill="currentColor" d="M2.979 1.752c-.552-.548-1.491-.158-1.492.62v7.19c0 .775.933 1.167 1.487.627l1.58-1.545.016-.016.022-.023.083-.084.299-.308.287-.293v1.64a.874.874 0 001.487.625l3.639-3.563a.875.875 0 00.005-1.245l-3.64-3.623c-.55-.549-1.491-.158-1.491.62v1.129l.003.477-.304-.285-.299-.279-.083-.077-.02-.02zm-.742.62c0-.11.134-.166.213-.088l1.578 1.568.01.007.001.002.006.005.021.02.083.078.3.28.94.881a.376.376 0 00.632-.276l-.01-1.352V2.374c0-.111.134-.166.213-.088l3.638 3.622c.05.05.049.13 0 .178L6.223 9.649a.125.125 0 01-.213-.088V7a.375.375 0 00-.642-.264 211 211 0 00-1.233 1.262l-.083.086-.022.022-1.58 1.545a.125.125 0 01-.212-.088z"/></svg>