<svg xmlns="http://www.w3.org/2000/svg" width="32" height="32" viewBox="0 0 32 32"><path fill="currentColor" d="M7.943 4.67c-1.472-1.46-3.977-.417-3.977 1.658V25.5c0 2.065 2.486 3.112 3.964 1.669l4.217-4.12.04-.04.057-.06.22-.228.798-.82c.23-.237.49-.5.767-.784v4.378c0 2.067 2.488 3.113 3.965 1.667l9.703-9.503c.929-.91.935-2.403.014-3.32l-9.703-9.66c-1.472-1.465-3.98-.423-3.98 1.653v3.177h.002l.008 1.107-.811-.76-.798-.747-.221-.206-.073-.068zM5.966 6.328c0-.296.358-.446.568-.237l4.21 4.182.022.021.005.004.014.014.058.054.22.206.798.745c.666.623 1.568 1.467 2.511 2.352a1.002 1.002 0 001.685-.737l-.028-3.605V6.332c0-.297.358-.445.568-.236l9.703 9.66c.131.13.13.345-.002.474l-9.703 9.503a.333.333 0 01-.567-.238v-2.828h.001v-4a1 1 0 00-1.712-.702 569 569 0 00-3.288 3.363l-.221.23-.059.06-.016.015-.004.005h-.002l-4.195 4.1a.334.334 0 01-.566-.238z"/></svg>