<svg xmlns="http://www.w3.org/2000/svg" width="16" height="16" viewBox="0 0 16 16"><path fill="currentColor" d="M3.972 2.335c-.736-.73-1.99-.209-1.99.829v9.587c.001 1.032 1.245 1.555 1.983.834l2.108-2.06.02-.02.029-.03.11-.115.398-.41.384-.39v2.188c0 1.033 1.245 1.556 1.984.833l4.85-4.751a1.167 1.167 0 00.007-1.66l-4.85-4.83c-.736-.733-1.99-.212-1.99.826v1.588l.003.553-.404-.38-.4-.373-.11-.102-.03-.028-.008-.008h-.001zm-.99.829c0-.149.18-.223.285-.119l2.105 2.09.02.02.03.027.11.104.398.372c.333.31.784.733 1.256 1.175a.501.501 0 00.842-.368l-.014-1.802V3.166c0-.148.18-.223.284-.119l4.852 4.831a.167.167 0 01-.001.238l-4.852 4.75a.167.167 0 01-.283-.118V9.334a.5.5 0 00-.855-.352c-.463.47-.912.929-1.244 1.27l-.4.413-.111.114-.03.03-2.108 2.06a.167.167 0 01-.283-.118z"/></svg>