<svg xmlns="http://www.w3.org/2000/svg" width="20" height="20" viewBox="0 0 20 20"><path fill="currentColor" d="M4.965 2.92c-.92-.914-2.486-.263-2.486 1.034v11.984c0 1.29 1.554 1.945 2.478 1.042l2.635-2.575.012-.011v-.001h.001l.003-.003.009-.01.036-.037.139-.143c.119-.123.29-.3.497-.511.143-.148.306-.313.48-.49v2.736c0 1.292 1.555 1.945 2.478 1.042l6.064-5.94a1.46 1.46 0 00.009-2.075l-6.065-6.038c-.92-.916-2.487-.264-2.487 1.034v1.985h.001l.005.693-.507-.476-.499-.467-.138-.129-.036-.034-.006-.004zM3.73 3.954c0-.185.224-.278.355-.147l2.63 2.613.015.013h.001l.01.011.037.035.139.128.498.466c.416.39.98.916 1.569 1.469a.627.627 0 001.053-.46l-.018-2.253V3.958c0-.185.224-.279.355-.148l6.065 6.038a.21.21 0 01-.002.297l-6.063 5.938a.208.208 0 01-.355-.148v-4.268a.625.625 0 00-1.07-.438 357 357 0 00-2.054 2.101l-.14.144-.036.037-.009.01-.003.003h-.001l-2.622 2.563a.208.208 0 01-.354-.15z"/></svg>