<svg xmlns="http://www.w3.org/2000/svg" width="12" height="12" viewBox="0 0 12 12"><g fill="none"><g clip-path="url(#svgID0)"><path fill="currentColor" fill-rule="evenodd" d="M6 11.143a5.1 5.1 0 001.572-.245v-1.22H6.5A1.43 1.43 0 015.072 8.25V5.748l.22-.123 4.28-2.377V2.3a5.1 5.1 0 00-1.893-1.163v2.128l-.237.118-1 .5-.242.121-.213-.166-1.558-1.212v2.079c0 .789-.64 1.428-1.429 1.428H1a.4.4 0 01-.142-.024A5.143 5.143 0 006 11.143M.906 5.286A.4.4 0 011 5.276h2a.57.57 0 00.572-.571v-3.24A5.15 5.15 0 00.906 5.286m3.139-4.044a5.13 5.13 0 012.777-.32v1.813l-.522.261-2.037-1.584zM8.429 9.25v1.284a5.14 5.14 0 002-7.15v.368l-.22.123-4.28 2.377V8.25a.57.57 0 00.571.571h1.93zM6 12A6 6 0 106 0a6 6 0 000 12" clip-rule="evenodd"/></g><defs><clipPath id="svgID0"><path fill="#fff" d="M0 0h12v12H0z"/></clipPath></defs></g></svg>