<svg xmlns="http://www.w3.org/2000/svg" width="32" height="32" viewBox="0 0 32 32"><path fill="currentColor" d="M17.06 2.667c.688 0 1.351.266 1.848.744l6.94 6.674c.523.502.819 1.197.819 1.922v13.327l-.005.205a4 4 0 01-3.995 3.794H9.333l-.207-.005a4 4 0 01-3.789-3.79l-.005-.204V6.666a4 4 0 014-4zm-7.726 2a2 2 0 00-2 2v18.667a2 2 0 002 2h13.333a2 2 0 002-2V13.999h-8.652V4.666zm10.213 14.87a1 1 0 01-1.415 1.414L17 19.818v4.358a1 1 0 01-2 0V19.84l-1.109 1.11a1 1 0 01-1.414-1.413L16.011 16zm-1.532-7.538h6.65a.67.67 0 00-.203-.472l-6.447-6.2z"/></svg>