<svg xmlns="http://www.w3.org/2000/svg" width="20" height="20" viewBox="0 0 20 20"><path fill="currentColor" d="M10.663 1.667c.43 0 .845.166 1.155.464l4.338 4.172c.326.314.51.748.51 1.201v8.33l-.012.254a2.5 2.5 0 01-2.488 2.246H5.834l-.256-.014a2.5 2.5 0 01-2.232-2.232l-.013-.255V4.167a2.5 2.5 0 012.5-2.5zm-4.83 1.25c-.69 0-1.25.56-1.25 1.25v11.667c0 .69.56 1.25 1.25 1.25h8.333c.69 0 1.25-.56 1.25-1.25V8.749H10.01V2.916zm6.383 9.293a.625.625 0 01-.883.884l-.709-.709v2.725l-.012.126a.625.625 0 01-1.225 0l-.012-.126V12.4l-.694.694a.625.625 0 01-.884-.884l2.21-2.21zM11.26 7.5h4.156a.42.42 0 00-.126-.295L11.26 3.33z"/></svg>