<svg xmlns="http://www.w3.org/2000/svg" width="16" height="16" viewBox="0 0 16 16"><path fill="currentColor" d="M8.53 1.333c.345 0 .676.133.924.372l3.47 3.337c.262.251.41.598.41.96v6.664l-.01.205a2 2 0 01-1.99 1.795H4.667a2 2 0 01-2-2V3.333a2 2 0 011.796-1.99l.204-.01zm-3.863 1a1 1 0 00-1 1v9.333a1 1 0 001 1h6.667a1 1 0 001-1V6.999H8.008V2.333zm5.107 7.435a.501.501 0 01-.708.707L8.5 9.908v2.18l-.01.1a.501.501 0 01-.98 0l-.01-.1V9.919l-.555.556a.5.5 0 01-.707-.707L8.006 8zm-.766-3.769h3.326a.33.33 0 00-.103-.236l-3.223-3.1z"/></svg>