<svg xmlns="http://www.w3.org/2000/svg" width="12" height="12" viewBox="0 0 12 12"><path fill="currentColor" d="M6.397 1c.259 0 .508.1.694.28l2.602 2.502a1 1 0 01.307.72V9.5l-.008.153A1.5 1.5 0 018.5 11h-5l-.153-.008A1.5 1.5 0 012 9.5v-7A1.5 1.5 0 013.5 1zM3.5 1.75a.75.75 0 00-.75.75v7c0 .414.336.75.75.75h5a.75.75 0 00.75-.75V5.25H6.006v-3.5zm3.83 5.576a.375.375 0 01-.53.53l-.425-.425v1.634a.375.375 0 01-.75 0V7.44l-.416.416a.375.375 0 01-.53-.53L6.005 6zM6.756 4.5H9.25a.25.25 0 00-.077-.178L6.756 1.997z"/></svg>