<svg xmlns="http://www.w3.org/2000/svg" width="24" height="24" viewBox="0 0 24 24"><path fill="currentColor" fill-rule="evenodd" d="M5 6.5h14A1.5 1.5 0 0120.5 8v4a1.5 1.5 0 01-1.312 1.488l1.469 1.013A3 3 0 0022 12V8a3 3 0 00-3-3H5a3 3 0 00-3 3v4a3 3 0 003 3h4v-1.5H5A1.5 1.5 0 013.5 12V8A1.5 1.5 0 015 6.5m6.717 3.67a.75.75 0 00-1.175.618l-.01 8.588a.75.75 0 001.321.488l2.603-3.048 3.987-.412a.75.75 0 00.348-1.364zm1.793 5.444-1.475 1.727.005-5.127 4.223 2.907-2.26.234a.75.75 0 00-.493.259" clip-rule="evenodd"/></svg>