<svg xmlns="http://www.w3.org/2000/svg" width="20" height="20" viewBox="0 0 20 20"><path fill="currentColor" fill-rule="evenodd" d="M4 5.5h12A1.5 1.5 0 0117.5 7v3c0 .51-.254.96-.643 1.231l1.275.88A3 3 0 0019 10V7a3 3 0 00-3-3H4a3 3 0 00-3 3v3a3 3 0 003 3h3.5v-1.5H4A1.5 1.5 0 012.5 10V7A1.5 1.5 0 014 5.5m6.117 2.776a.75.75 0 00-1.175.617l-.008 7.515a.75.75 0 001.32.488l2.254-2.639 3.451-.356a.75.75 0 00.348-1.364zm1.445 4.78-1.126 1.317.004-4.053 3.34 2.298-1.725.178a.75.75 0 00-.493.26" clip-rule="evenodd"/></svg>