<svg xmlns="http://www.w3.org/2000/svg" width="12" height="12" viewBox="0 0 12 12"><path fill="currentColor" fill-rule="evenodd" d="M3.115 10.07h3.24a3.5 3.5 0 003.5-3.5V3.206a.5.5 0 111 0V6.57a4.5 4.5 0 01-4.5 4.5h-3.24a.5.5 0 110-1m5.006-7.695a.75.75 0 110-1.5.75.75 0 010 1.5m-3-.75a.75.75 0 101.5 0 .75.75 0 00-1.5 0m-1.5.75a.75.75 0 110-1.5.75.75 0 010 1.5M.943 6.074a.75.75 0 101.5 0 .75.75 0 00-1.5 0m.75 2.974a.75.75 0 110-1.5.75.75 0 010 1.5m-.75-5.199a.75.75 0 101.5 0 .75.75 0 00-1.5 0" clip-rule="evenodd"/></svg>