<svg xmlns="http://www.w3.org/2000/svg" width="16" height="16" viewBox="0 0 16 16"><path fill="currentColor" fill-rule="evenodd" d="M8.319 12.681h-3a.5.5 0 100 1h3a5.5 5.5 0 005.5-5.5v-3a.5.5 0 00-1 0v3a4.5 4.5 0 01-4.5 4.5m2.612-9.5a.75.75 0 110-1.5.75.75 0 010 1.5m-3 0a.75.75 0 110-1.5.75.75 0 010 1.5m-5.75 4.25a.75.75 0 101.5 0 .75.75 0 00-1.5 0m.75-2.25a.75.75 0 110-1.5.75.75 0 010 1.5m-.75 5.25a.75.75 0 101.5 0 .75.75 0 00-1.5 0m2.75-7.25a.75.75 0 110-1.5.75.75 0 010 1.5" clip-rule="evenodd"/></svg>