<svg xmlns="http://www.w3.org/2000/svg" width="16" height="16" viewBox="0 0 16 16"><path fill="currentColor" fill-rule="evenodd" d="M5.113 12.502a.75.75 0 100 1.5.75.75 0 000-1.5M2 11.002a.5.5 0 101 0v-6a.5.5 0 00-1 0zm11.363-3.75a.75.75 0 100 1.5.75.75 0 000-1.5m-.75 3.5a.75.75 0 111.5 0 .75.75 0 01-1.5 0M4.363 2.75a.75.75 0 111.5 0 .75.75 0 01-1.5 0m3.75 9.752a.75.75 0 100 1.5.75.75 0 000-1.5m-.75-9.752a.75.75 0 111.5 0 .75.75 0 01-1.5 0m3.75 9.752a.75.75 0 100 1.5.75.75 0 000-1.5m-.75-9.752a.75.75 0 111.5 0 .75.75 0 01-1.5 0m3 1.752a.75.75 0 100 1.5.75.75 0 000-1.5" clip-rule="evenodd"/></svg>