<svg xmlns="http://www.w3.org/2000/svg" width="32" height="32" viewBox="0 0 32 32"><path fill="currentColor" fill-rule="evenodd" d="M20.5 25.25a1.25 1.25 0 112.5 0 1.25 1.25 0 01-2.5 0M16.75 24a1.25 1.25 0 100 2.5 1.25 1.25 0 000-2.5m0-19a1.25 1.25 0 100 2.5 1.25 1.25 0 000-2.5M10.5 25.25a1.25 1.25 0 112.5 0 1.25 1.25 0 01-2.5 0M11.75 5a1.25 1.25 0 100 2.5 1.25 1.25 0 000-2.5m14 14a1.25 1.25 0 100 2.5 1.25 1.25 0 000-2.5m-1.25-8.75a1.25 1.25 0 112.5 0 1.25 1.25 0 01-2.5 0M25.75 14a1.25 1.25 0 100 2.5 1.25 1.25 0 000-2.5M20.5 6.25a1.25 1.25 0 112.5 0 1.25 1.25 0 01-2.5 0M7 9.5a1 1 0 10-2 0v12a1 1 0 102 0z" clip-rule="evenodd"/></svg>