<svg xmlns="http://www.w3.org/2000/svg" width="12" height="12" viewBox="0 0 12 12"><path fill="currentColor" fill-rule="evenodd" d="M7.445 10.25a.75.75 0 111.5 0 .75.75 0 01-1.5 0M5.97 9.5a.75.75 0 100 1.5.75.75 0 000-1.5M.8 9a.5.5 0 001 0V3a.5.5 0 10-1 0zm9.62-1.5a.75.75 0 100 1.5.75.75 0 000-1.5M9.67 6a.75.75 0 111.5 0 .75.75 0 01-1.5 0m.75-3a.75.75 0 100 1.5.75.75 0 000-1.5m-5.2-1.25a.75.75 0 111.5 0 .75.75 0 01-1.5 0M3.745 9.5a.75.75 0 100 1.5.75.75 0 000-1.5m-.75-7.75a.75.75 0 111.5 0 .75.75 0 01-1.5 0m5.2-.75a.75.75 0 100 1.5.75.75 0 000-1.5" clip-rule="evenodd"/></svg>