<svg xmlns="http://www.w3.org/2000/svg" width="24" height="24" viewBox="0 0 24 24"><path fill="currentColor" fill-rule="evenodd" d="M6.5 11V4a.5.5 0 01.5-.5h4a.5.5 0 01.5.5v1.5H9.75a.75.75 0 000 1.5h1.75v1.5H9.75a.75.75 0 000 1.5h1.75v1zM5 11V4a2 2 0 012-2h4a2 2 0 012 2v7h7a2 2 0 012 2v4a2 2 0 01-2 2h-7v1a2 2 0 01-2 2H7a2 2 0 01-2-2v-1H4a2 2 0 01-2-2v-4a2 2 0 012-2zm1.5 9v-1h5v1a.5.5 0 01-.5.5H7a.5.5 0 01-.5-.5M20 17.5H4a.5.5 0 01-.5-.5v-4a.5.5 0 01.5-.5h1.5v1.75a.75.75 0 001.5 0V12.5h1.5v1.75a.75.75 0 001.5 0V12.5h1.5v1.75a.75.75 0 001.5 0V12.5h1.5v1.75a.75.75 0 001.5 0V12.5h1.5v1.75a.75.75 0 001.5 0V12.5h1a.5.5 0 01.5.5v4a.5.5 0 01-.5.5" clip-rule="evenodd"/></svg>