<svg xmlns="http://www.w3.org/2000/svg" width="16" height="16" viewBox="0 0 16 16"><path fill="currentColor" fill-rule="evenodd" d="M4 2.5V8h3V7H5.5a.5.5 0 010-1H7V5H5.5a.5.5 0 010-1H7V2.5a.5.5 0 00-.5-.5h-2a.5.5 0 00-.5.5M4 9v1.5a.5.5 0 001 0V9h1v1.5a.5.5 0 001 0V9h1v1.5a.5.5 0 001 0V9h1v1.5a.5.5 0 001 0V9h1.5a.5.5 0 01.5.5v2a.5.5 0 01-.5.5h-10a.5.5 0 01-.5-.5v-2a.5.5 0 01.5-.5zm8.5-1H8V2.5A1.5 1.5 0 006.5 1h-2A1.5 1.5 0 003 2.5V8h-.5A1.5 1.5 0 001 9.5v2A1.5 1.5 0 002.5 13H3v.5A1.5 1.5 0 004.5 15h2A1.5 1.5 0 008 13.5V13h4.5a1.5 1.5 0 001.5-1.5v-2A1.5 1.5 0 0012.5 8M4 13v.5a.5.5 0 00.5.5h2a.5.5 0 00.5-.5V13z" clip-rule="evenodd"/></svg>