<svg xmlns="http://www.w3.org/2000/svg" width="12" height="12" viewBox="0 0 12 12"><path fill="currentColor" fill-rule="evenodd" d="M3 1.5V6h2V5h-.5a.5.5 0 010-1H5V3h-.5a.5.5 0 010-1H5v-.5a.5.5 0 00-.5-.5h-1a.5.5 0 00-.5.5m3 3v-3A1.5 1.5 0 004.5 0h-1A1.5 1.5 0 002 1.5V6h-.5A1.5 1.5 0 000 7.5v1A1.5 1.5 0 001.5 10H2v.5A1.5 1.5 0 003.5 12h1A1.5 1.5 0 006 10.5V10h3.5A1.5 1.5 0 0011 8.5v-1A1.5 1.5 0 009.5 6H6zm-2 3V7H3v.5a.5.5 0 01-1 0V7h-.5a.5.5 0 00-.5.5v1a.5.5 0 00.5.5h8a.5.5 0 00.5-.5v-1a.5.5 0 00-.5-.5H9v.5a.5.5 0 01-1 0V7H7v.5a.5.5 0 01-1 0V7H5v.5a.5.5 0 01-1 0M3 10v.5a.5.5 0 00.5.5h1a.5.5 0 00.5-.5V10z" clip-rule="evenodd"/></svg>