<svg xmlns="http://www.w3.org/2000/svg" width="32" height="32" viewBox="0 0 32 32"><path fill="currentColor" fill-rule="evenodd" d="M11.5 6.25a1.25 1.25 0 11-2.5 0 1.25 1.25 0 012.5 0m3.75 1.25a1.25 1.25 0 100-2.5 1.25 1.25 0 000 2.5m0 19a1.25 1.25 0 100-2.5 1.25 1.25 0 000 2.5M21.5 6.25a1.25 1.25 0 11-2.5 0 1.25 1.25 0 012.5 0M20.25 26.5a1.25 1.25 0 100-2.5 1.25 1.25 0 000 2.5m-14-14a1.25 1.25 0 100-2.5 1.25 1.25 0 000 2.5m1.25 8.75a1.25 1.25 0 11-2.5 0 1.25 1.25 0 012.5 0M6.25 17.5a1.25 1.25 0 100-2.5 1.25 1.25 0 000 2.5m5.25 7.75a1.25 1.25 0 11-2.5 0 1.25 1.25 0 012.5 0M25 22a1 1 0 102 0V10a1 1 0 10-2 0z" clip-rule="evenodd"/></svg>