<svg xmlns="http://www.w3.org/2000/svg" width="16" height="16" viewBox="0 0 16 16"><path fill="currentColor" fill-rule="evenodd" d="M11 3.5A.75.75 0 1011 2a.75.75 0 000 1.5M14.113 5a.5.5 0 10-1 0v6a.5.5 0 001 0zM2.75 8.75a.75.75 0 100-1.5.75.75 0 000 1.5m.75-3.5a.75.75 0 11-1.5 0 .75.75 0 011.5 0m8.25 8.002a.75.75 0 11-1.5 0 .75.75 0 011.5 0M8 3.5A.75.75 0 108 2a.75.75 0 000 1.5m.75 9.752a.75.75 0 11-1.5 0 .75.75 0 011.5 0M5 3.5A.75.75 0 105 2a.75.75 0 000 1.5m.75 9.752a.75.75 0 11-1.5 0 .75.75 0 011.5 0m-3-1.752a.75.75 0 100-1.5.75.75 0 000 1.5" clip-rule="evenodd"/></svg>