<svg xmlns="http://www.w3.org/2000/svg" width="12" height="12" viewBox="0 0 12 12"><path fill="currentColor" fill-rule="evenodd" d="M4.525 1.75a.75.75 0 11-1.5 0 .75.75 0 011.5 0M6 2.5A.75.75 0 106 1a.75.75 0 000 1.5m5.17.5a.5.5 0 10-1 0v6a.5.5 0 001 0zM1.55 4.5a.75.75 0 100-1.5.75.75 0 000 1.5M2.3 6A.75.75 0 11.8 6a.75.75 0 011.5 0m-.75 3a.75.75 0 100-1.5.75.75 0 000 1.5m5.2 1.25a.75.75 0 11-1.5 0 .75.75 0 011.5 0M8.225 2.5a.75.75 0 100-1.5.75.75 0 000 1.5m.75 7.75a.75.75 0 11-1.5 0 .75.75 0 011.5 0m-5.2.75a.75.75 0 100-1.5.75.75 0 000 1.5" clip-rule="evenodd"/></svg>