<svg xmlns="http://www.w3.org/2000/svg" width="20" height="20" viewBox="0 0 20 20"><path fill="currentColor" fill-rule="evenodd" d="M8.6 4.5a2 2 0 012 2h1.5a3.5 3.5 0 10-5.834 2.608A5.6 5.6 0 003 14.2V17h4.9v-1.5H4.5v-1.3a4.1 4.1 0 013.4-4.04V8.374A2 2 0 018.6 4.5m7 5.5-.002-.1A2.8 2.8 0 0010 10v.254A2.5 2.5 0 008.6 12.5v2a2.5 2.5 0 002.5 2.5h3.4a2.5 2.5 0 002.5-2.5v-2a2.5 2.5 0 00-1.4-2.246zm-2.8-1.3a1.3 1.3 0 00-1.296 1.2h2.592A1.3 1.3 0 0012.8 8.7m-1.7 2.8h3.4a1 1 0 011 1v2a1 1 0 01-1 1h-3.4a1 1 0 01-1-1v-2a1 1 0 011-1m2.4 2a.7.7 0 11-1.4 0 .7.7 0 011.4 0" clip-rule="evenodd"/></svg>