<svg xmlns="http://www.w3.org/2000/svg" width="32" height="32" viewBox="0 0 32 32"><path fill="currentColor" fill-rule="evenodd" d="M14 8a3 3 0 013 3h2a5 5 0 10-8.334 3.726A8 8 0 006 22v4h7v-2H8v-2a6 6 0 015-5.917v-2.254A3.001 3.001 0 0114 8m6 6a2 2 0 012 2h-4a2 2 0 012-2m-4 2.535V16a4 4 0 018 0v.535c1.196.692 2 1.984 2 3.465v2a4 4 0 01-4 4h-4a4 4 0 01-4-4v-2c0-1.48.804-2.773 2-3.465M18 18a2 2 0 00-2 2v2a2 2 0 002 2h4a2 2 0 002-2v-2a2 2 0 00-2-2zm3 3a1 1 0 11-2 0 1 1 0 012 0" clip-rule="evenodd"/></svg>