<svg xmlns="http://www.w3.org/2000/svg" width="12" height="12" viewBox="0 0 12 12"><path fill="currentColor" fill-rule="evenodd" d="M5 2a1.5 1.5 0 011.5 1.5h1a2.5 2.5 0 10-4.167 1.863A4 4 0 001 9v2h3.5v-1H2V9a3 3 0 012.5-2.959V4.915A1.5 1.5 0 015 2m3 3a1 1 0 011 1H7a1 1 0 011-1M6 6a2 2 0 114 0v.085A1.5 1.5 0 0111 7.5v2A1.5 1.5 0 019.5 11h-3A1.5 1.5 0 015 9.5v-2a1.5 1.5 0 011-1.415zm0 1.5a.5.5 0 01.5-.5h3a.5.5 0 01.5.5v2a.5.5 0 01-.5.5h-3a.5.5 0 01-.5-.5zm2.5 1a.5.5 0 11-1 0 .5.5 0 011 0" clip-rule="evenodd"/></svg>