<svg xmlns="http://www.w3.org/2000/svg" width="16" height="16" viewBox="0 0 16 16"><path fill="currentColor" fill-rule="evenodd" d="m6.056 6.857.144-.02V7.94a3 3 0 01-.216-.052A3.8 3.8 0 003 11.6V13h3.2v1H2v-2.4a4.8 4.8 0 012.8-4.364A3 3 0 119.8 5h-1a2 2 0 10-2.744 1.857M8 8.167V8a2.4 2.4 0 014.8 0v.166A2 2 0 0114 10v2a2 2 0 01-2 2H8.8a2 2 0 01-2-2v-2A2 2 0 018 8.166M8.2 9.2a1 1 0 00-.4.8v2a1 1 0 001 1H12a1 1 0 001-1v-2a1 1 0 00-.4-.8zM11.8 8A1.4 1.4 0 109 8zm-.8 3a.6.6 0 11-1.2 0 .6.6 0 011.2 0" clip-rule="evenodd"/></svg>