<svg xmlns="http://www.w3.org/2000/svg" width="24" height="24" viewBox="0 0 24 24"><path fill="currentColor" fill-rule="evenodd" d="M15.46 5.459a.75.75 0 00-1.061 1.06l4.73 4.73H13.5a.75.75 0 100 1.5h5.629l-.01.01-.018.018-.019.02-.018.018-.019.018-.019.02-.018.018-.019.018-.018.019-.019.018-.018.019-.019.018-.018.019-.019.018-.018.018-.018.019-.019.018-.018.018-.018.019-.019.018-.018.018-.018.018-.018.019-.018.018-.019.018-.018.018-.018.018-.018.018-.018.018-.018.018-.018.018-.017.018-.018.018-.018.018-.018.018-.018.017-.018.018-.017.018-.018.018-.018.017-.018.018-.017.018-.018.017-.017.018-.018.017-.018.018-.017.017-.017.018-.018.017-.017.018-.018.017-.017.018-.017.017-.018.017-.017.017-.017.018-.017.017-.017.017-.018.017-.017.017-.017.017-.017.017-.017.017-.017.017-.017.017-.017.017-.017.017-.017.017-.016.017-.017.017-.017.017-.017.016-.017.017-.016.017-.017.016-.017.017-.016.017-.017.016-.016.017-.017.016-.016.017-.017.016-.016.016-.016.017-.017.016-.016.016-.016.017-.017.016-.016.016-.016.016-.016.016-.016.017-.016.016-.016.016-.016.016-.016.016-.016.016-.016.016-.016.015-.016.016-.016.016-.015.016-.016.016-.016.016-.016.015-.015.016-.016.015-.016.016-.015.016-.016.015-.015.016-.016.015-.015.016-.015.015-.016.015-.015.016-.015.015-.016.015-.015.015-.015.015-.015.016-.015.015-.015.015-.015.015-.015.015-.015.015-.015.015-.015.015-.015.015-.015.014-.015.015-.014.015-.015.015-.015.014-.015.015-.014.015-.015.014-.014.015-.015.014-.014.015-.015.014-.014.015-.015.014-.014.014-.014.015-.015.014-.014.014-.014.014-.014.015-.014.014-.014.014-.014.014-.014.014-.014.014-.014.014-.014.014-.014.013-.014.014-.014.014-.013.014-.014.014-.014.013-.013.014-.014.013-.014.014-.013.014-.014.013-.013.013-.014.014-.013.013-.013.014-.013.013-.014.013-.013.013-.013.014-.013.013-.013.013-.014.013-.012.013-.014.013-.012.013-.013.013-.013.013-.013.013-.013.012-.013.013-.012.013-.013.013-.013.012-.012.013-.013.012-.012.013-.013.012-.012.013-.013.012-.012.013-.012.012-.013.012-.012.012-.012.012-.012.013-.012.012-.012.012-.012.012-.012.012-.012.012-.012.012-.012.012-.012.011-.012.012-.012.012-.011.012-.012.011-.012.012-.011.012-.012.011-.011.012-.012.011-.011.012-.012.01-.01.012-.012.012-.011.01-.012.012-.01.011-.012.011-.011.011-.011.012-.011.01-.011.011-.01.011-.012.011-.01.011-.011.01-.011.012-.01.01-.011.011-.011.01-.01.011-.011.01-.01.011-.011.01-.01.011-.01.01-.011.01-.01.011-.01.01-.01.01-.011.01-.01.01-.01.01-.01.01-.01.01-.01.01-.01.01-.01.01-.01.01-.01.01-.01.01-.009.01-.01.009-.009.01-.01.009-.009.01-.01.009-.009.01-.01.008-.008.01-.01.01-.009.008-.009.01-.01.008-.008.01-.01.009-.008.009-.01.009-.008.008-.009.01-.009.008-.008.009-.009.009-.009.008-.008.009-.009.008-.008.009-.009.008-.008.009-.009.008-.008.008-.008.009-.008.008-.009.008-.008.008-.008.008-.008.008-.008.008-.008.008-.008.008-.008.008-.007.008-.008.008-.008.008-.008.007-.007.008-.008.007-.007.008-.008.007-.007.008-.008.007-.007.008-.007.007-.008.007-.007.007-.007.007-.007.007-.007.007-.007.007-.007.007-.007.007-.007.007-.006.007-.007.007-.007.006-.006.007-.007.007-.007.006-.006.007-.007.006-.006.006-.006.007-.007.006-.006.006-.006.007-.006.006-.006.006-.006.006-.007.006-.005.006-.006.006-.006.006-.006.005-.006.006-.005.006-.006.005-.006.006-.005.006-.006.005-.005.006-.005.005-.006.005-.005.006-.005.005-.006.005-.005.005-.005.005-.005.005-.005.005-.005.005-.005.005-.005.005-.004.005-.005.004-.005.005-.004.005-.005.004-.004.005-.005.004-.004.005-.005.004-.004.004-.004.005-.004.004-.004.004-.005.004-.004.004-.004.004-.004.004-.003.004-.004.004-.004.003-.004.004-.003.004-.004.003-.004.004-.003.003-.003.004-.004.003-.003.004-.003.003-.004.003-.003.003-.003.003-.003.004-.003.003-.003.003-.003.003-.003.002-.003.003-.002.003-.003.003-.003.002-.002.003-.003.002-.002.003-.003.002-.002.003-.002.002-.003.002-.002.002-.002.002-.002.002-.002.003-.002.002-.002.001-.002.002-.002.002-.001.002-.002.002-.002.001-.001.002-.002.001-.001.002-.002.001-.001.002h-.001l-.002.002v.001l-.002.001v.001l-.002.001v.001l-.002.001v.001h-.001l-.001.002h-.001v.001H14.4v.002h-.001l.53.531-.53-.53a.75.75 0 001.06 1.06l-.53-.53.53.53h.001v-.001h.001v-.001h.001v-.001h.002v-.002h.001v-.001l.002-.001v-.001l.002-.001v-.001l.002-.001.001-.001.001-.002h.002l.001-.002.001-.002.002-.001.001-.002.002-.001.002-.002.001-.001.002-.002.002-.002.002-.002.002-.002.002-.002.002-.002.002-.002.002-.002.002-.002.002-.003.003-.002.002-.002.002-.003.003-.002.002-.003.003-.002.003-.003.002-.003.003-.002.003-.003.003-.003.003-.003.002-.003.004-.003.003-.003.003-.003.003-.003.003-.003.003-.004.004-.003.003-.003.004-.004.003-.003.004-.004.003-.003.004-.004.004-.004.004-.004.003-.003.004-.004.004-.004.004-.004.004-.004.004-.004.004-.005.005-.004.004-.004.004-.004.005-.005.004-.004.004-.005.005-.004.004-.005.005-.004.005-.005.004-.005.005-.004.005-.005.005-.005.005-.005.005-.005.005-.005.005-.005.005-.005.005-.005.005-.006.006-.005.005-.005.005-.006.006-.005.005-.006.006-.005.006-.006.005-.006.006-.005.006-.006.005-.006.006-.006.006-.006.006-.005.006-.006.006-.006.006-.007.006-.006.007-.006.006-.006.006-.007.007-.006.006-.006.006-.007.007-.006.006-.007.007-.006.007-.007.007-.007.006-.006.007-.007.007-.007.007-.007.007-.007.007-.007.007-.007.007-.007.007-.007.007-.007.007-.008.008-.007.007-.007.007-.008.008-.007.007-.008.008-.007.007-.008.008-.007.008-.008.007-.008.008-.007.008-.008.008-.008.008-.008.008-.008.008-.008.008-.008.008-.008.008-.008.008-.008.008-.009.009-.008.008-.008.008-.009.009-.008.008-.009.009-.008.008-.009.009-.008.009-.009.008-.009.01-.008.008-.01.009-.008.009-.009.009-.009.009-.009.009-.009.009-.009.009-.009.009-.01.01-.008.008-.01.01-.009.009-.01.01-.009.009-.009.01-.01.009-.009.01-.01.009-.01.01-.009.01-.01.009-.01.01-.009.01-.01.01-.01.01-.01.01-.01.01-.01.01-.01.01-.01.01-.01.01-.01.01-.01.01-.01.01-.01.011-.011.01-.01.01-.011.011-.01.01-.011.011-.01.011-.011.01-.011.011-.01.011-.012.011-.01.01-.011.012-.011.01-.01.012-.012.01-.01.012-.012.01-.011.012-.011.011-.011.011-.012.011-.01.012-.012.011-.011.012-.012.011-.011.011-.012.012-.011.012-.012.011-.011.012-.012.011-.012.012-.011.012-.012.012-.012.011-.012.012-.012.012-.011.012-.012.012-.012.012-.012.012-.013.013-.012.012-.012.012-.012.012-.012.012-.013.013-.012.012-.012.012-.013.013-.012.012-.013.013-.012.012-.013.013-.012.013-.013.012-.013.013-.012.013-.013.013-.013.012-.013.013-.013.013-.012.013-.013.013-.013.013-.013.013-.014.013-.013.013-.013.014-.013.013-.013.013-.013.014-.014.013-.013.013-.013.014-.014.013-.013.014-.014.013-.013.014-.014.013-.014.014-.013.014-.014.013-.014.014-.013.014-.014.014-.014.014-.014.013-.014.014-.014.014-.014.014-.014.014-.014.014-.014.014-.014.015-.014.014-.014.014-.014.014-.015.015-.014.014-.014.014-.015.015-.014.014-.015.015-.014.014-.015.015-.014.014-.015.015-.014.015-.015.014-.015.015-.014.015-.015.015-.015.014-.015.015-.015.015-.014.015-.015.015-.015.015-.015.015-.015.015-.016.015-.015.016-.015.015-.015.015-.015.015-.015.016-.016.015-.015.015-.016.016-.015.015-.015.016-.016.015-.015.015-.016.016-.015.016-.016.015-.015.016-.016.016-.016.015-.016.016-.015.016-.016.016-.016.016-.016.015-.016.016-.016.016-.016.016-.016.016-.016.016-.016.016-.016.017-.016.016-.016.016-.016.016-.016.016-.017.017-.016.016-.016.016-.017.017-.016.016-.016.017-.017.016-.016.016-.017.017-.016.017-.017.016-.016.017-.017.017-.017.016-.016.017-.017.017-.017.016-.017.017-.017.017-.016.017-.017.017-.017.017-.017.017-.017.017-.017.017-.017.017-.017.017-.017.017-.017.017-.017.017-.018.018-.017.017-.017.017-.017.017-.018.018-.017.017-.017.017-.018.018-.017.017-.017.018-.018.017-.017.018-.018.017-.018.018-.017.017-.018.018-.017.018-.018.018-.018.017-.017.018-.018.018-.018.017-.018.018-.018.018-.018.018-.017.018-.018.018-.018.018-.018.018-.018.018-.018.018-.018.018-.018.018-.019.018-.018.019-.018.018-.018.018-.018.018-.018.019-.019.018-.018.018-.018.019-.019.018-.018.018-.019.019-.018.018-.018.019-.019.018-.018.019-.02.018-.018.019-.018.019-.019.018-.018.019-.02.019-.018.018-.019.02-.018.018-.02.019-.018.019-.019.018-.019.02-.019.018-.018.02-.02.018-.018.02-.02.018-.018.02-.02.018-.018.02-.02.018-.019.02-.019.019-.019.019-.02.02-.018.018-.02.02-.019.019-.019.02-.02.018-.019.02-.019.02-.02.019-.019.019-.02.02-.019.019-.02.02-.019.019-.02.02-.019.019-.02.02-.019.02-.02.019-.019.02-.02.02-.02.019-.02.02-.019.02-.02.02-.02.019-.02.02-.019.02-.02.02-.02.02-.02.02-.02.02-.02.019-.02.02-.02.02-.02.02-.02.02-.02.02-.02.02-.02.02-.02.02-.02.02-.02.02-.02.02-.02.021-.02.02-.02.02-.02.02-.021L22 12l-.53-.53zM2.53 12.53l6.01 6.01a.75.75 0 101.061-1.06l-4.73-4.73h5.63a.75.75 0 000-1.5H4.87l.01-.01.018-.018.019-.019.018-.018.02-.02.018-.018.018-.018.019-.019.018-.018.019-.019.018-.018.019-.019.018-.018.019-.019.018-.018.019-.018.018-.019.018-.018.018-.018.019-.019.018-.018.018-.018.018-.018.018-.019.019-.018.018-.018.018-.018.018-.018.018-.018.018-.018.018-.018.018-.018.018-.018.017-.017.018-.018.018-.018.018-.018.018-.018.017-.017.018-.018.018-.018.017-.017.018-.018.018-.018.017-.017.018-.018.017-.017.018-.018.017-.017.017-.017.018-.018.017-.017.017-.018.018-.017.017-.017.017-.017.017-.018.018-.017.017-.017.017-.017.017-.017.017-.017.017-.017.017-.017.017-.017.017-.017.017-.017.017-.017.017-.017.016-.016.017-.017.017-.017.017-.017.016-.016.017-.017.017-.017.016-.016.017-.017.016-.016.017-.017.016-.016.017-.017.016-.016.016-.016.017-.017.016-.016.016-.016.017-.017.016-.016.016-.016.016-.016.016-.016.016-.016.016-.016.016-.016.016-.016.016-.016.016-.016.016-.016.016-.016.016-.016.016-.016.015-.015.016-.016.016-.016.015-.016.016-.015.016-.016.015-.015.016-.016.015-.015.016-.016.015-.015.016-.016.015-.015.015-.015.015-.016.016-.015.015-.015.015-.015.015-.015.015-.015.016-.016.015-.015.015-.015.015-.015.014-.014.015-.015.015-.015.015-.015.015-.015.015-.015.014-.014.015-.015.015-.015.014-.014.015-.015.015-.015.014-.014.015-.015.014-.014.014-.014.015-.015.014-.014.014-.014.015-.015.014-.014.014-.014.014-.014.014-.014.014-.014.014-.014.014-.014.014-.014.014-.014.014-.014.014-.014.014-.014.014-.014.014-.014.013-.013.014-.014.014-.014.013-.013.014-.014.013-.013.014-.014.013-.013.014-.014.013-.013.013-.013.014-.014.013-.013.013-.013.013-.013.013-.013.014-.014.013-.013.013-.013.013-.013.013-.013.012-.012.013-.013.013-.013.013-.013.013-.013.012-.012.013-.013.013-.013.012-.012.013-.013.012-.012.013-.013.012-.012.013-.013.012-.012.012-.012.013-.013.012-.012.012-.012.012-.012.012-.012.013-.013.012-.012.012-.012.011-.012.012-.011.012-.012.012-.012.012-.012.012-.012.011-.011.012-.012.012-.012.011-.011.012-.012.011-.011.012-.012.011-.011.012-.012.01-.011.012-.011.011-.011.012-.012.01-.01.012-.012.011-.011.011-.011.011-.011.011-.011.011-.011.01-.01.012-.012.01-.01.011-.011.011-.011.01-.01.011-.011.01-.01.011-.011.01-.01.011-.011.01-.01.011-.011.01-.01.01-.01.01-.01.011-.011.01-.01.01-.01.01-.01.01-.01.01-.01.01-.01.01-.01.01-.01.01-.01.01-.01.01-.01.009-.009.01-.01.009-.009.01-.01.009-.009.01-.01.009-.009.01-.01.008-.008.01-.01.009-.009.01-.01.008-.008.01-.01.008-.008.01-.01.008-.008.01-.01.008-.008.009-.009.008-.008.01-.01.008-.008.008-.008.009-.009.008-.009.009-.008.008-.008.009-.009.008-.008.008-.008.009-.009.008-.008.008-.008.008-.008.008-.008.008-.008.008-.008.008-.008.008-.008.008-.008.007-.007.008-.008.008-.008.007-.007.008-.008.007-.008.008-.007.007-.007.008-.008.007-.007.007-.007.008-.008.007-.007.007-.007L9.121 7l.007-.007.007-.007.007-.007.007-.007.007-.007.007-.007.006-.006.007-.007.007-.007.006-.006.007-.007.006-.006.007-.007.006-.006.007-.007.006-.006.006-.006.006-.006.006-.006.007-.007.006-.006.006-.006.006-.006.005-.005.006-.006.006-.006.006-.006.006-.006.005-.005.006-.006.005-.005.006-.006.005-.005.006-.006.005-.005.005-.005.006-.006.005-.005.005-.005.005-.005.005-.005.005-.005.005-.005.005-.005.005-.005.004-.004.005-.005.005-.005.004-.004.005-.005.004-.004.005-.005.004-.004.005-.005.004-.004.004-.004.004-.004.005-.005.004-.004.004-.004.004-.004.004-.004.003-.003.004-.004.004-.004.004-.004.003-.003.004-.004.004-.004.003-.003.004-.004.003-.003.003-.003.004-.004.003-.003.003-.003.003-.003.003-.003.003-.003.003-.003.003-.003.003-.003.003-.003.003-.003.002-.002.003-.003.002-.002.003-.003.002-.002.003-.003.002-.002.002-.002.003-.003.002-.002.002-.002.002-.002.002-.002.002-.002.002-.002.002-.002.002-.002.001-.001.002-.002.002-.002.001-.001.002-.002.001-.001.002-.002.001-.001.001-.001.002-.002.002-.002.001-.001.001-.001.001-.001.002-.002.001-.001.001-.002H9.6V6.52l.001-.001-.53-.53.53.53a.75.75 0 00-1.06-1.061l.53.53-.53-.53H8.54v.001h-.001v.001h-.001v.001l-.001.001h-.001v.002h-.002v.001l-.002.001v.001l-.002.001v.002h-.002l-.001.002-.002.001v.002l-.002.001-.002.001-.001.002-.002.002-.002.001-.001.002-.002.002-.002.001-.002.002-.002.002-.001.002-.003.002-.002.002L8.5 5.5l-.002.003-.002.002-.002.002-.003.003-.002.002-.003.002-.002.003-.003.002-.002.003-.003.003-.003.003-.003.002-.003.003-.002.003-.003.003-.003.003-.004.003-.003.003-.003.003-.003.004-.003.003-.004.003-.003.004-.004.003-.003.004-.004.003-.003.004-.004.004-.004.003-.003.004-.004.004-.004.004-.004.004-.004.004-.004.004-.004.004-.004.004-.004.004-.005.004-.004.005-.004.004-.005.004-.004.005-.005.004-.004.005-.005.005-.005.004-.004.005-.005.005-.005.005-.005.004-.005.005-.005.005-.005.005-.005.005-.005.006-.005.005-.005.005-.006.005-.005.006-.005.005-.006.006-.005.005-.006.006-.005.005-.006.006-.006.006-.006.005-.005.006-.006.006-.006.006-.006.006-.006.006-.006.006-.006.006-.006.006-.007.006-.006.007-.006.006-.007.006-.006.007-.006.006-.007.007-.006.006-.007.007-.007.006-.006.007-.007.007-.007.007-.007.006-.007.007-.007.007-.007.007-.007.007-.007.007-.007.008-.007.007-.007.007-.008.007-.007.008-.007.007-.008.007-.007.008-.008.007-.007.008-.008.008-.008.007-.007.008-.008.008-.008.008-.008.007-.008.008-.008.008-.008.008-.008.008-.008.008-.008.009-.008.008-.008.008-.009.008-.008.009-.008.008-.009.008-.008.009-.009.008-.008.009-.009.009-.008.008-.01.009-.008.009-.009.008-.009.01-.008.008-.01.01-.008.008-.01.01-.008.008-.01.01-.009.008-.009.01-.01.009-.008.01-.01.009-.01.009-.009.01-.01.009-.009.01-.01.009-.009.01-.01.01-.01.009-.009.01-.01.01-.01.01-.01.01-.01.009-.01.01-.01.01-.01.01-.01.01-.01.01-.01.01-.01.01-.01.011-.01.01-.011.01-.01.011-.01.01-.011.011-.01.01-.011.011-.011.01-.01.011-.011.011-.011.01-.01.012-.012.01-.01.011-.012.011-.01.011-.012.011-.01.011-.012.011-.01.011-.012.012-.011.01-.011.012-.012.011-.011.012-.011.011-.012.012-.011.011-.012.011-.011.012-.012.012L7.1 6.9l-.011.012-.012.012-.012.011-.012.012-.011.012-.012.012-.012.012-.012.012-.012.012-.012.012-.012.012-.012.012-.013.012-.012.012-.012.013-.012.012-.013.012-.012.013-.012.012-.013.012-.012.013-.013.012-.012.013-.013.013-.013.012-.012.013-.013.013-.013.012-.012.013-.013.013-.013.013-.013.013-.013.013-.013.013-.013.013-.013.013-.013.013-.013.013-.014.013-.013.013-.013.014-.013.013-.014.013-.013.014-.013.013-.014.014-.013.013-.014.014-.014.013-.013.014-.014.013-.013.014-.014.014-.014.014-.014.013-.014.014-.013.014-.014.014-.014.014-.014.014-.014.014-.014.014-.014.014-.014.014-.015.014-.014.014-.014.015-.014.014-.015.014-.014.015-.014.014-.015.014-.014.015-.015.014-.014.015-.015.014-.014.015-.015.015-.015.014-.014.015-.015.015-.015.014-.015.015-.014.015-.015.015-.015.015-.015.015-.015.015-.015.015-.015.015-.015.015-.015.015-.016.015-.015.015-.015.016-.015.015-.015.015-.016.015-.015.016-.016.015-.015.016-.015.015-.016.016-.015.015-.016.016-.016.015-.015.016-.016.015L5.6 8.4l-.015.016-.016.016-.016.015-.016.016-.015.016-.016.016-.016.016-.016.016-.016.016-.016.016-.016.016-.016.016-.016.016-.017.016-.016.017-.016.016-.016.016-.017.016-.016.017-.016.016-.017.016-.016.017-.016.016-.017.017-.016.016-.017.017-.016.016-.017.017-.017.016-.016.017-.017.017-.017.016-.017.017-.016.017-.017.017-.017.017-.017.016-.017.017-.017.017-.017.017-.017.017-.017.017-.017.017-.017.017-.017.018-.017.017-.017.017-.017.017-.018.017-.017.018-.017.017-.018.017-.017.018-.017.017-.018.017-.017.018-.018.017-.017.018-.018.017-.017.018-.018.017-.017.018-.018.018-.018.017-.017.018-.018.018-.018.018-.018.017-.017.018-.018.018-.018.018-.018.018-.018.018-.018.018-.018.018-.018.018-.018.018-.018.018-.018.018-.018.018-.018.018-.019.018-.018.018-.018.019-.018.018-.018.018-.019.018-.018.019-.018.018-.019.019-.018.018-.019.018-.018.019-.019.018-.018.019-.019.018-.018.019-.019.019-.019.018-.018.019-.019.019-.019.018-.018.019-.02.019-.018.018-.019.02-.018.018-.02.019-.018.019-.02.019-.018.019-.019.019-.019.019-.019.019-.019.019-.02.019-.018.019-.02.019-.018.02-.02.018-.019.02-.019.019-.02.019-.018.02-.02.018-.019.02-.02.019-.019.02-.02.019-.018.02-.02.018-.02.02-.019.02-.02.019-.019.02-.02.019-.019.02-.02.02-.02.019-.019.02-.02.019-.019.02-.02.02-.02.02-.02.019-.019.02-.02.02-.02.02-.02.02-.02.019-.02.02-.019.02-.02.02-.02.02-.02.02-.02.02-.02.02-.02.02-.02.02-.02.02-.02.02-.02.02-.02.02-.02.02-.02.02-.02.02-.021.02-.02.021-.02.02L2 12z" clip-rule="evenodd"/></svg>