<svg xmlns="http://www.w3.org/2000/svg" width="12" height="12" viewBox="0 0 12 12"><g fill="none"><g clip-path="url(#svgID0)"><path fill="currentColor" fill-rule="evenodd" d="M8.693 2.693a.5.5 0 00-.707.707l2.1 2.1H7.1a.5.5 0 100 1h2.986l-.006.006-.01.01-.008.008-.009.009-.009.009-.008.009-.01.008-.008.01-.009.008-.009.009-.008.008-.01.01-.008.008-.008.009-.01.008-.008.009-.009.009-.008.008-.009.009-.008.009-.01.008-.008.009-.008.008-.009.009-.008.009-.009.008-.008.009-.009.008-.008.009-.009.008-.008.009-.009.008-.008.008-.009.009-.008.008-.009.009-.008.008-.008.008-.009.009-.008.008-.008.008-.009.009-.008.008-.008.008-.008.009-.009.008-.008.008-.008.008-.008.008-.008.009-.009.008-.008.008-.008.008-.008.008-.008.008-.008.008-.008.008-.008.009-.008.008-.008.008-.008.008-.008.008-.008.008-.008.008-.008.008-.008.007-.008.008-.008.008-.008.008-.008.008-.008.008-.008.008-.007.008-.008.007-.008.008-.008.008-.008.008-.007.007-.008.008-.008.008-.007.008-.008.007-.008.008-.007.008-.008.007-.008.008-.007.007-.008.008-.007.008-.008.007-.007.008-.008.007-.007.008-.008.007-.007.008-.008.007-.007.007-.008.008-.007.007-.007.008-.008.007-.007.007-.007.008-.008.007-.007.007-.007.007-.008.008-.007.007-.007.007-.007.007-.007.008-.008.007-.007.007-.007.007-.007.007-.007.007-.007.007-.007.007-.007.007-.007.007-.007.007-.007.007-.007.007-.007.007-.007.007-.007.007-.007.007-.007.007-.007.007-.007.007-.006.007-.007.006-.007.007-.007.007-.007.007-.006.006-.007.007-.007.007L9 7.588l-.007.006-.007.007-.006.007-.007.006-.007.007-.006.006-.007.007-.006.006-.007.007-.006.006-.007.007-.006.006-.007.007-.006.006-.006.007-.007.006-.006.006-.007.007-.006.006-.006.006-.006.007-.007.006-.006.006-.006.006-.006.007-.007.006-.006.006-.006.006-.006.006-.006.006-.006.006-.006.006-.006.007-.006.006-.006.006-.006.006-.006.006-.006.005-.006.006-.006.006-.006.006-.006.006-.006.006-.006.006-.005.006-.006.005-.006.006-.006.006-.006.006-.005.005-.006.006-.006.006-.005.005-.006.006-.006.006-.005.005-.006.006-.005.005-.006.006-.005.005-.006.006-.005.005-.006.006-.005.005-.006.006-.005.005-.005.005-.006.006-.005.005-.005.005-.006.006-.005.005-.005.005-.005.005-.005.006-.006.005-.005.005-.005.005-.005.005-.005.005-.005.005-.005.005-.005.005-.005.005-.005.005-.005.005-.005.005-.005.005-.005.005-.005.005-.005.005-.004.005-.005.004-.005.005-.005.005-.005.005-.004.004-.005.005-.005.005-.004.005-.005.004-.005.005-.004.004-.005.005-.004.004-.005.005-.004.004-.005.005-.004.004-.005.005-.004.004-.004.005-.005.004-.004.004-.005.005-.004.004-.004.004-.004.005-.005.004-.004.004-.004.004-.004.004-.004.004-.004.005-.004.004-.005.004-.004.004-.004.004-.004.004-.004.004-.004.004-.003.004-.004.004-.004.003-.004.004-.004.004-.004.004-.004.004-.003.003-.004.004-.004.004-.004.004-.003.003-.004.004-.003.004-.004.003-.004.004-.003.003-.004.004-.003.003-.004.004-.003.003-.004.004-.003.003-.003.004-.004.003-.003.003-.003.004-.004.003-.003.003-.003.003-.003.004-.004.003-.003.003-.003.003-.003.003-.003.003-.003.003-.003.003-.003.003-.003.003-.003.003-.003.003-.003.003-.003.003-.003.003-.003.003-.003.003-.002.003-.003.002-.003.003-.003.003-.002.003-.003.002-.003.003-.002.002-.003.003-.002.003-.003.002-.003.003-.002.002-.003.003-.002.002-.002.003-.003.002-.002.002-.003.003-.002.002-.002.002-.002.003-.003.002-.002.002-.002.002-.002.002-.002.003-.002.002-.003.002-.002.002-.002.002-.002.002-.002.002-.002.002-.002.002-.001.002-.002.001-.002.002-.002.002-.002.002-.002.002-.001.002-.002.001-.002.002-.001.002-.002.001-.002.002-.001.001-.002.002-.001.002-.002.001-.001.002-.002.001-.001.001-.002.002-.001.001-.001.002h-.002l-.001.002-.001.001-.002.002-.002.002-.001.001-.001.001-.001.001-.001.002h-.001l-.001.002h-.001l-.001.002h-.001L8 8.586l-.001.001v.001h-.002v.002h-.001v.001h-.002v.002h-.001l-.001.001-.001.001-.001.001-.001.001-.001.001V8.6h-.001l.353.354-.354-.353a.5.5 0 00.707.707l-.353-.354.353.354h.001v-.001h.001v-.001h.001v-.001h.001v-.001h.001v-.001H8.7v-.005h.002v-.002h.002v-.001h.001l.001-.002h.001v-.001l.002-.001V9.29l.002-.001v-.001l.002-.001v-.001l.002-.001v-.002h.002l.001-.002.001-.001.002-.001v-.001l.002-.002.001-.001.002-.001.001-.002.001-.001.002-.001.001-.002.002-.001.001-.002.002-.001.001-.002.002-.001.001-.002.002-.002.002-.001.001-.002.002-.002.002-.001.002-.002.001-.002.002-.002.002-.002.002-.001.002-.002.002-.002.001-.002.002-.002.002-.002.002-.002.002-.002.003-.002.002-.002.002-.002.002-.003.002-.002.002-.002.002-.002.003-.002.002-.003.002-.002.003-.002.002-.003L8.8 9.2l.003-.002.002-.003.003-.002.002-.003.003-.002.002-.003.003-.002.002-.003.003-.002.002-.003.003-.003.003-.002.002-.003.003-.003.003-.003.003-.002.002-.003.003-.003.003-.003.003-.003.003-.003.003-.002.003-.003.003-.003.003-.003.003-.003.003-.003.003-.004.003-.003.003-.003.003-.003.003-.003.004-.003.003-.004.003-.003.003-.003.004-.003.003-.004.003-.003.004-.003.003-.004.003-.003.004-.004.003-.003.004-.003.003-.004.004-.004.003-.003.004-.004.004-.003.003-.004.004-.004.004-.003.003-.004.004-.004.004-.003.004-.004.003-.004.004-.004.004-.004.004-.003.004-.004L9 9l.004-.004.004-.004.003-.004.004-.004.005-.004.004-.004.004-.004.004-.004.004-.004.004-.005.004-.004.004-.004.005-.004.004-.004.004-.005.004-.004.005-.004.004-.005.004-.004.005-.004.004-.005.004-.004.005-.004L9.1 8.9l.005-.004.004-.005.005-.004.004-.005.005-.005.005-.004.004-.005.005-.004.004-.005.005-.005.005-.004.005-.005.004-.005.005-.005.005-.004.005-.005.004-.005.005-.005.005-.005.005-.005.005-.005.005-.005.005-.005.005-.005.005-.005.005-.005.005-.005.005-.005.005-.005.005-.005.005-.005.006-.005.005-.005.005-.006.005-.005.005-.005.006-.005.005-.006.005-.005.006-.005.005-.005.005-.006.006-.005.005-.006.005-.005.006-.006.005-.005.006-.005.005-.006.006-.006.005-.005.006-.006.006-.005.005-.006.006-.005.005-.006.006-.006.006-.005.006-.006.005-.006.006-.006.006-.005.006-.006.005-.006.006-.006.006-.006.006-.006.006-.006.006-.005.006-.006.006-.006.006-.006.006-.006.006-.006.006-.006.006-.006.006-.007.006-.006.006-.006.006-.006.006-.006.007-.006.006-.006.006-.007.006-.006.006-.006.007-.006.006-.007.006-.006.007-.006.006-.007L9.6 8.4l.007-.006.006-.007.007-.006.006-.007.006-.006.007-.007.006-.006.007-.007.006-.006.007-.007.007-.006.006-.007.007-.006.006-.007.007-.007.007-.006.006-.007.007-.007.007-.006.007-.007.006-.007.007-.007.007-.006.007-.007.007-.007.006-.007.007-.007.007-.007.007-.007L9.8 8.2l.007-.006.007-.007.007-.007.007-.007.007-.007.007-.007.007-.007.007-.008.007-.007.007-.007.007-.007.007-.007.008-.007L9.9 8.1l.007-.007.007-.008.007-.007.008-.007.007-.007.007-.008.007-.007.008-.007.007-.008.007-.007.008-.007.007-.008.007-.007.008-.007.007-.008.008-.007.007-.008.008-.007.007-.008.008-.007.007-.008.008-.007.007-.008.008-.008.008-.007.007-.008.008-.007.007-.008.008-.008.008-.007.007-.008.008-.008.008-.007.008-.008.007-.008.008-.008.008-.008.008-.007.008-.008.007-.008.008-.008.008-.008.008-.008.008-.008.008-.007.008-.008.008-.008.008-.008.008-.008.008-.008.008-.008.008-.008.008-.008.008-.008.008-.008.008-.009.008-.008.008-.008.008-.008.008-.008.009-.008.008-.008.008-.009.008-.008.008-.008.009-.008.008-.009.008-.008.008-.008.009-.008.008-.009.008-.008.009-.008.008-.009.009-.008.008-.009.008-.008.009-.008.008-.009.009-.008.008-.009.009-.008.008-.009.009-.008.008-.009.009-.008.008-.009.009-.008.008-.01.009-.008.009-.008.008-.009.009-.009.009-.008.008-.009.009-.009.009-.008.008-.009.01-.009.008-.008.008-.01.01-.008.008-.009.009-.009.009-.008.008-.01.01-.008.008-.009.01-.009.008-.009.009-.008.009-.01.009-.008.009-.01.008-.008.01-.01.008-.008.01-.009.008-.009.01-.01.008-.008.01-.01.008-.008.01-.01.009-.008.009-.01.009-.008.009-.01.01-.009.008-.009.01-.009.008-.01.01-.008.009-.01.01-.009.008-.009.01-.01.009-.008.009-.01.01-.009.009-.01.009-.009.01-.009.009-.01.009-.008.01-.01.008-.01.01-.009.01-.009.009-.01.009-.009.01-.01.009-.009.01-.009.009-.01.01-.009.009-.01.01-.009.009-.01.01-.009.009-.01.01-.009.009-.01.01-.009.009-.01.01-.01.01-.009.009-.01.01-.009.009-.01.01-.01.01-.009.009-.01.01-.01.01-.009.009-.01.01-.01.01-.009.009-.01.01-.01.01-.01.01-.009.009-.01.01-.01.01-.01.01-.009.01-.01.009-.01.01-.01.01-.01.01-.01.01-.009.01-.01.01-.01.01-.01.009-.01.01-.01.01-.01.01-.01.01-.01.01-.01L12 6l-.353-.353zm-8.34 3.66 2.954 2.954a.5.5 0 00.707-.707l-2.1-2.1H4.9a.5.5 0 000-1H1.915l.005-.006.01-.009.008-.009.009-.009.009-.008.009-.01.008-.008.01-.009.008-.009L2 5.415l.009-.01.008-.008.009-.009.009-.008.008-.009.01-.009.008-.008.008-.009.009-.009.009-.008.008-.009.009-.008.008-.009.009-.009.009-.008.008-.009.009-.008.008-.009.009-.008.008-.009.009-.008.008-.009.008-.008.009-.008.008-.009.009-.008.008-.009.008-.008.009-.008.008-.009.008-.008.009-.008.008-.009.008-.008.009-.008.008-.008.008-.009.008-.008.008-.008.009-.008.008-.008.008-.009.008-.008.008-.008.008-.008.008-.008.009-.008.008-.008.008-.008.008-.008.008-.008.008-.008.008-.008.008-.008.008-.008.008-.008.007-.008.008-.008.008-.008.008-.008.008-.008.008-.007.008-.008.007-.008.008-.008.008-.008.008-.007.007-.008.008-.008.008-.007.008-.008.007-.008.008-.008.008-.007.007-.008.008-.007.007-.008.008-.008.008-.007.007-.008.008-.007.007-.008.008-.007.007-.008.008-.007.007-.008.007-.007.008-.007.007-.008.008-.007.007-.008.007-.007.008-.007.007-.008.007-.007.008-.007.007-.007.007-.008.007-.007.007-.007.008-.007.007-.007.007-.008.007-.007.007-.007.007-.007.007-.007.007-.007.007-.007.008-.007.007-.007.007-.007.006-.007.007-.007.007-.007.007-.007.007-.007.007-.007.007-.007.007-.006.007-.007.006-.007.007-.007.007-.007.007-.006.007-.007.006-.007.007-.006.007-.007.006-.007.007-.006.007-.007.006-.007.007-.006.006-.007.007-.006.006-.007.007-.006.006-.007.007-.006.006-.007.007-.006.006-.007.007-.006.006-.007.006-.006.007-.006.006-.007.006-.006.007-.006.006-.006.006-.007.006-.006.007-.006.006-.006.006-.007.006-.006.006-.006.006-.006.006-.006.007-.006.006-.006.006-.006.006-.006.006-.006.006-.006.006-.006.005-.006.006-.006.006-.006.006-.006.006-.006.006-.005.006-.006.005-.006.006-.006.006-.006.006-.005.005-.006.006-.006.006-.005.005-.006.006-.006.006-.005.005-.006.006-.005.005-.006.006-.006.005-.005.006-.006.005-.005.006-.005.005-.006.006-.005.005-.006.005-.005.006-.005.005-.006.005-.005.006-.005.005-.006.005-.005.005-.005.006-.005.005-.005.005-.006.005-.005.005-.005.005-.005.005-.005.005-.005.005-.005.005-.005.005-.005.005-.005.005-.005.005-.005.005-.005.005-.005.005-.004.005-.005.005-.005.004-.005.005-.005.005-.004.005-.005.004-.005.005-.004.005-.005.004-.005.005-.004.004-.005.005-.005.005-.004.004-.005.005-.004.004-.005.004-.004.005-.004.004-.005.005-.004.004-.005.004-.004.005-.004.004-.005.004-.004.005-.004.004-.004.004-.005.004-.004.004-.004.004-.004.005-.004.004-.004.004-.004.004-.004.004-.004.004-.004.004-.004.004-.004.004-.004.004-.004.003-.004.004-.004.004-.004.004-.004.004-.003.004-.004.003-.004.004-.004.004-.003.003-.004.004-.004.004-.003.003-.004.004-.003.003-.004.004-.003.003-.004.004-.003.003-.004.004-.003.003-.004.004-.003.003-.004.003-.003.004-.003.003-.003.003-.004.003-.003.004-.003.003-.003.003-.004.003-.003.003-.003.003-.003.003-.003.003-.003.004-.003.003-.003.002-.003.003-.003.003-.003.003-.003.003-.003.003-.003.003-.002.003-.003.002-.003.003-.003.003-.002.003-.003.002-.003.003-.002.003-.003.002-.003.003-.002.002-.003.003-.002.002-.003.003-.002.002-.003.003-.002.002-.003.002-.002.003-.002.002-.003.002-.002.003-.002.002-.002.002-.003.002-.002.002-.002.003-.002.002-.002.002-.002.002-.002.002-.002.002-.002.002-.002.002-.002.002-.002.002-.002.002-.002.001-.002.002-.002.002-.002.002-.001.002-.002.001-.002.002-.002.002-.001.001-.002.002-.001.001-.002.002-.002.002-.001.001-.002.002-.001.001-.002.001-.001.002-.001.001-.002.002-.001v-.001l.002-.002.001-.001.002-.001v-.001l.002-.002h.001l.001-.002.002-.001V3.42l.002-.001v-.001l.002-.001v-.001H4v-.001l.001-.002h.001v-.001l.002-.001.001-.002.001-.001h.001v-.001h.001v-.001h.001v-.001h.001v-.001h.001v-.001h.001v-.001h.001V3.4l-.353-.354.354.353a.5.5 0 00-.707-.707l.353.354-.353-.354v.001h-.001v.001h-.001l-.001.001v.001h-.001v.001h-.001V2.7H3.3l-.001.002h-.001v.001h-.001l-.001.001-.001.001v.001l-.002.001-.002.002-.001.002h-.001l-.001.002h-.002v.002h-.002v.002l-.002.001-.001.001-.001.002h-.002v.002l-.002.001-.002.002v.001l-.002.001-.002.002-.001.001-.002.002-.001.001-.002.002-.001.001-.002.002-.001.001-.002.002-.001.002-.002.001-.002.002-.002.002-.001.002-.002.001-.002.002-.002.002-.002.002-.001.002-.002.002-.002.002-.002.001-.002.002-.002.002-.002.002-.002.003-.002.002-.003.002-.002.002-.002.002-.002.002-.002.002-.002.003-.003.002-.002.002-.002.003-.003.002L3.2 2.8l-.003.003-.002.002-.002.003-.003.002-.002.003-.003.002-.002.003-.003.002-.003.003-.002.002-.003.003-.003.003-.002.002-.003.003-.003.003-.002.003-.003.003-.003.002-.003.003-.003.003-.003.003-.003.003-.003.003-.003.003-.003.003-.003.003-.003.003-.003.003-.003.003-.003.003-.003.003-.003.003-.003.004-.004.003-.003.003-.003.003-.003.004-.004.003-.003.003-.003.004-.004.003-.003.004-.004.003-.003.003-.004.004-.003.003-.004.004-.003.003-.004.004-.003.004-.004.003-.004.004-.003.004-.004.003-.004.004-.004.004-.003.004-.004.003-.004.004-.004.004-.004.004-.004.004L3.001 3l-.004.004-.004.004-.004.004-.004.004-.004.004-.004.004-.004.004-.005.004-.004.004-.004.004-.004.004-.004.004-.004.005-.005.004-.004.004-.004.004-.004.005-.005.004-.004.004-.004.005-.005.004-.004.004-.005.005L2.9 3.1l-.005.005-.004.004-.005.005-.004.004-.005.005-.004.005-.005.004-.005.005-.004.004-.005.005-.005.005-.004.005-.005.004-.005.005-.005.005-.004.005-.005.004-.005.005-.005.005-.005.005-.005.005-.005.005-.005.005-.005.005-.005.005-.005.005-.005.005-.005.005-.005.005-.005.005-.005.005-.005.006-.005.005-.006.005-.005.005-.005.005-.005.006-.006.005-.005.005-.005.006-.006.005-.005.005-.005.006-.006.005-.005.005-.006.006-.005.005-.006.006-.005.005-.006.006-.005.005-.006.006-.005.006-.006.005-.006.006-.005.006-.006.005-.006.006-.005.006-.006.005-.006.006-.006.006-.005.006-.006.005-.006.006-.006.006-.006.006-.006.006-.006.006-.006.006-.006.006-.005.006-.006.006-.006.006-.007.006-.006.006-.006.006-.006.006-.006.006-.006.006-.006.006-.006.007-.007.006-.006.006-.006.006-.006.006-.006.007-.007.006-.006.006-.006.007-.007.006-.006.006-.006.007-.007.006-.006.007-.007.006-.006.006-.007.007-.006.006-.007.007-.006.006-.007.007-.006.007-.007.006-.007.007-.006.006L2.3 3.7l-.006.007-.007.006-.007.007-.007.007-.006.007-.007.006-.007.007-.007.007-.006.007-.007.007-.007.006-.007.007-.007.007-.007.007-.007.007-.007.007-.007.007-.007.007-.007.007-.007.007-.007.007-.007.007-.007.007-.007.007-.007.007-.007.007-.007.007-.007.008L2.1 3.9l-.008.007-.007.007-.007.007-.007.008-.008.007-.007.007-.007.007-.007.008-.008.007-.007.007-.007.008-.008.007-.007.007-.008.008-.007.007-.008.008-.007.007-.007.008-.008.007-.007.008-.008.007-.008.008-.007.007-.008.008-.007.007-.008.008L1.9 4.1l-.008.007-.008.008-.007.008-.008.007-.008.008-.008.008-.007.008-.008.007-.008.008-.008.008-.007.008-.008.008L1.8 4.2l-.008.008-.008.008-.008.008-.008.008-.008.008-.008.008-.007.008-.008.008-.008.008-.008.008-.008.008-.008.008-.009.008-.008.008-.008.008-.008.008-.008.008-.008.008-.008.008-.008.008-.008.009-.009.008-.008.008-.008.008-.008.008-.009.009-.008.008-.008.008-.008.009-.009.008-.008.008-.008.009-.009.008-.008.008-.008.009-.009.008-.008.008-.009.009-.008.008-.008.009-.009.008-.008.009-.009.008-.008.009-.009.008-.009.009-.008.008-.009.009-.008.008-.009.01-.008.008-.01.008-.008.009-.008.009-.009.008-.009.009-.008.009-.01.008-.008.01-.009.008-.008.009-.01.008-.008.01-.009.008-.008.009-.01.009-.008.008-.009.01-.009.008-.009.009-.009.009-.009.009-.008.009-.01.009-.008.009-.01.008-.008.01-.01.008-.008.01-.01.008-.008.01-.01.008-.008.01-.01.009-.008.009-.01.009-.009.009-.009.009-.009.01-.009.008-.01.01-.008.009-.01.009-.009.009-.009.01-.01.008-.008.01-.01.009-.009.01-.01.008-.008.01-.01.009-.009.01-.01.009-.009.009-.009.01-.01.009-.009.009-.01.01-.008.009-.01.01-.01.008-.009.01-.01.01L.8 5.2l-.009.01-.01.009-.009.01-.01.009-.009.01-.01.009-.009.01-.01.009-.01.01-.009.009-.01.01-.009.01-.01.009-.01.01-.009.009-.01.01-.009.01-.01.009-.01.01-.009.01-.01.009-.01.01-.01.01-.009.009-.01.01-.01.01-.009.01-.01.009-.01.01-.01.01-.01.01-.009.01-.01.009-.01.01-.01.01-.01.01-.01.01-.01.01-.009.01-.01.01-.01.009-.01.01-.01.01-.01.01-.01.01-.01.01L0 6z" clip-rule="evenodd"/></g><defs><clipPath id="svgID0"><path fill="#fff" d="M0 0h12v12H0z"/></clipPath></defs></g></svg>