<svg xmlns="http://www.w3.org/2000/svg" width="16" height="16" viewBox="0 0 16 16"><path fill="currentColor" fill-rule="evenodd" d="M11.11 4.111a.5.5 0 10-.706.707L13.086 7.5H9a.5.5 0 100 1h4.086l-.004.004-.01.01-.011.012-.011.01-.011.011-.011.011-.01.01-.012.012-.01.01-.011.011-.01.01-.012.012-.01.01-.011.011-.01.01-.011.011-.01.011-.012.01-.01.011-.01.01-.011.011-.01.011-.011.01-.011.011-.01.01-.011.011-.01.01-.01.011-.011.01-.01.01-.011.011-.01.01-.011.011-.01.01-.01.01-.011.011-.01.01-.01.01-.01.011-.011.01-.01.01-.01.01-.01.01-.011.011-.01.01-.01.01-.01.01-.01.01-.01.01-.01.01-.01.01-.01.011-.01.01-.01.01-.01.01-.01.01-.01.01-.01.01-.01.01-.01.01-.01.01-.01.01-.01.01-.01.01-.01.009-.01.01-.01.01-.01.01-.009.01-.01.009-.01.01-.01.01-.009.009-.01.01-.009.01-.01.009-.01.01-.009.009-.01.01-.009.009-.01.01-.009.009-.01.01-.009.009-.01.01-.009.009-.01.01-.009.009-.009.009-.01.01-.009.009-.009.009-.01.01-.008.009-.01.009-.009.009-.01.01-.008.008-.01.01-.009.009-.009.009-.009.009-.009.01-.009.008-.01.01-.008.008-.01.01-.008.008-.01.01-.008.008-.009.01-.009.008-.009.009-.009.009-.008.009-.01.008-.008.01-.009.008-.009.009-.008.009-.01.008-.008.009-.009.009-.008.008-.009.009-.008.009-.01.008-.008.009-.008.008-.009.009-.008.008-.009.009-.008.008-.009.009-.008.008-.009.009-.008.008-.008.008-.009.009-.008.008-.008.008-.009.009-.008.008-.008.008-.008.008-.008.009-.009.008-.008.008-.008.008-.008.008-.008.008-.008.008-.008.008-.008.008-.008.008-.008.008-.008.008-.008.008-.008.008-.008.008-.008.008-.008.008-.008.008-.007.007-.008.008-.008.008-.008.008-.007.007-.008.008-.008.008-.007.007-.008.008-.008.008-.007.007-.008.008-.007.007-.008.008-.007.007-.008.008-.007.007-.007.008-.008.007-.007.007-.008.008-.007.007-.007.007-.007.007-.008.008-.007.007-.007.007-.007.007-.007.008-.008.007-.007.007-.007.007-.007.007-.007.007-.007.007-.007.007-.007.007-.007.007-.007.007-.007.007-.006.007-.007.006-.007.007-.007.007-.007.007-.006.006-.007.007-.007.007-.006.007-.007.006-.007.007-.006.006-.007.007-.006.007-.007.006-.006.007-.007.006-.006.006-.007.007-.006.006-.007.007-.006.006-.006.006-.006.007-.007.006-.006.006-.006.006-.007.007-.006.006-.006.006-.006.006-.006.006-.006.006-.006.006-.006.006-.006.006-.006.006-.006.006-.006.006-.006.006-.006.006-.005.006-.006.005-.006.006-.006.006-.006.006-.005.005-.006.006-.006.006-.005.005-.006.006-.005.005-.006.006-.005.006-.006.005-.005.006-.006.005-.005.005-.006.006-.005.005-.005.005-.006.006-.005.005-.005.005-.005.006-.006.005-.005.005-.005.005-.005.005-.005.005-.005.005-.005.005-.005.005-.005.005-.005.005-.005.005-.005.005-.005.005-.005.005-.005.005-.004.005-.005.004-.005.005-.005.005-.004.004-.005.005-.004.005-.005.004-.005.005-.004.004-.005.005-.004.004-.005.005-.004.004-.005.005-.004.004-.004.004-.005.005-.004.004-.004.004-.004.004-.005.005-.004.004-.004.004-.004.004-.004.004-.004.004-.004.004-.004.004-.004.004-.004.004-.004.004-.004.004-.004.004-.003.004-.004.003-.004.004-.004.004-.004.004-.003.003-.004.004-.003.003-.004.004-.004.004-.003.003-.004.004-.003.003-.004.004-.003.003-.003.003-.004.004-.003.003-.003.003-.003.004-.004.003-.003.003-.003.003-.003.003-.003.004-.003.003-.004.003-.003.003-.002.003-.004.003-.002.003-.003.003-.003.002-.003.003-.003.003-.003.003-.002.002-.003.003-.003.003-.002.003-.003.002-.003.003-.002.002-.003.003-.002.002-.003.003-.002.002-.003.003-.002.002-.002.002-.003.003-.002.002-.002.002-.002.002-.002.003-.003.002-.002.002-.002.002-.002.002-.002.002-.002.002-.002.002-.002.002-.002.002-.002.002-.002.002-.001.001-.002.002-.002.002-.002.002-.001.001-.002.002-.002.002-.001.001-.002.002-.001.001-.002.002-.001.001-.002.002v.001l-.002.001-.002.002v.001l-.002.001-.001.001-.002.002-.002.002v.001l-.002.001-.001.001-.001.001v.001l-.002.001-.002.002-.001.001-.001.001-.001.002h-.001l-.001.001v.001h-.001v.001h-.001l-.001.001v.001h-.001l-.001.001.353.354-.353-.354a.5.5 0 10.707.707l-.354-.353.354.353h.001v-.001l.001-.001h.001v-.001h.001v-.002h.002v-.001l.001-.001h.001v-.002h.002v-.001l.001-.001h.001l.001-.002h.001l.001-.002h.001l.001-.002.001-.001.001-.001.002-.001v-.001l.002-.002h.001l.002-.002v-.002h.002l.002-.002.001-.002.002-.001.001-.002.002-.001.001-.002.002-.001.001-.002.002-.002.002-.001.001-.002.002-.002.002-.002.002-.001.001-.002.002-.002.002-.002.002-.002.002-.002.002-.002.002-.002.002-.002.002-.002.002-.002.003-.002.002-.002.002-.003.002-.002.003-.002.002-.002.002-.003.003-.002.002-.003.002-.002.003-.002.002-.003.003-.003.002-.002.003-.003.003-.002.002-.003.003-.003.003-.002.002-.003.003-.003.003-.003.003-.003.003-.002.003-.003.003-.003.003-.003.003-.003.003-.003.003-.003.003-.003.003-.003.003-.004.003-.003.003-.003.004-.003.003-.003.003-.004.003-.003.004-.003.003-.004.004-.003.003-.004.004-.003.003-.004.004-.003.003-.004.004-.003.003-.004.004-.004.004-.003.003-.004.004-.004.004-.004.004-.003.004-.004.003-.004.004-.004.004-.004.004-.004.004-.004.004-.004.004-.004.004-.004.004-.004.004-.004.004-.004.005-.004.004-.005.004-.004.004-.004.005-.004.004-.005.004-.004.005-.004.004-.005.004-.004.005-.005.004-.004.005-.005.004-.004.005-.005.005-.004.004-.005.005-.005.004-.004.005-.005.005-.005.005-.004.004-.005.005-.005.005-.005.005-.005.005-.005.005-.005.005-.004.005-.005.005-.006.005-.005.005-.005.005-.005.005-.005.005-.005.005-.005.006-.005.005-.005.005-.006.005-.005.006-.005.005-.006.005-.005.006-.005.005-.006.006-.005.005-.006.006-.005.005-.006.006-.005.005-.006.006-.005.005-.006.006-.006.006-.005.005-.006.006-.006.006-.006.006-.006.006-.005.005-.006.006-.006.006-.006.006-.006.006-.006.006-.006.006-.006.006-.006.006-.006.006-.006.006-.006.006-.006.007-.006.006-.006.006-.007.006-.006.006-.006.007-.006.006-.007.006-.006.007-.006.006-.007.006-.006.007-.006.006-.007.007-.006.006-.007.007-.006.006-.007.007-.006.006-.007.007-.007.007-.006.006-.007.007-.007.007-.006.006-.007.007-.007.007-.007.007-.006.007-.007.007-.007.007-.007.006-.007.007-.007.007-.007L12 11l.007-.007.007-.007.007-.007.007-.007.008-.007.007-.007.007-.008.007-.007.007-.007.007-.007.008-.007.007-.008.007-.007.008-.007.007-.008.007-.007.008-.007.007-.008.007-.007.008-.008.007-.007.008-.008.008-.007.007-.008.008-.007.007-.008.008-.008.008-.007.007-.008.008-.008.008-.007.007-.008.008-.008.008-.007.008-.008.007-.008.008-.008.008-.008.008-.008.008-.008.008-.008.008-.008.008-.007.008-.008.008-.008.008-.009.008-.008.008-.008.008-.008.008-.008.008-.008.009-.008.008-.008.008-.009.008-.008.008-.008.009-.008.008-.009.008-.008.009-.008.008-.009.008-.008.009-.009.008-.008.009-.009.008-.008.009-.008.008-.009.009-.008.008-.01.009-.008.009-.008.008-.009.009-.009.008-.008.01-.009.008-.009.009-.008.008-.01.01-.008.008-.009.009-.008.009-.01.008-.008.01-.009.008-.009.01-.009.008-.009.009-.009.009-.009.009-.009.009-.009.009-.009.01-.009.008-.009.01-.009.008-.009.01-.01.009-.008.009-.01.009-.009.01-.009.008-.01.01-.008.009-.01.01-.009.008-.01.01-.008.01-.01.009-.01.009-.009.01-.009.009-.01.01-.009.009-.01.01-.009.009-.01.01-.009.009-.01L13 10l.009-.01.01-.01.01-.009.009-.01.01-.009.009-.01.01-.01.01-.01.01-.009.009-.01.01-.01.01-.01.01-.009.009-.01.01-.01.01-.01.01-.01.01-.01.01-.01.01-.009.01-.01.01-.01.01-.01.01-.01.01-.01.01-.01.01-.01.01-.01.01-.01.01-.01.01-.01.01-.01.01-.01.01-.01.01-.011.01-.01.01-.01.011-.01.01-.01.01-.011.01-.01.011-.01.01-.011.01-.01.011-.01.01-.011.01-.01.011-.011.01-.01.011-.01.01-.011.011-.01.01-.011.011-.01.01-.011.011-.01.01-.011.011-.011.01-.01.012-.011.01-.01.01-.011.011-.011.011-.01.01-.012.011-.01.011-.01.011-.012.01-.01.011-.011.011-.011.011-.01.01-.012.012-.01.01-.011.011-.011.011-.011.011-.01.011-.012.011-.01.011-.012.011-.01.011-.012.01-.01.012-.012.011-.01.011-.012.011-.01.011-.012.011-.01.011-.012.011-.011.011-.011.012-.011.01-.011L14 9l.011-.01.011-.012.011-.011.012-.011.011-.012.011-.01.011-.012.012-.011.011-.012.011-.011.012-.011.011-.012.011-.011.012-.011.011-.012.012-.011.011-.012.011-.011.012-.012.011-.011.012-.011.011-.012.012-.011.011-.012.012-.011.011-.012.012-.011.011-.012.012-.012.012-.011.011-.012.012-.011.011-.012.012-.012.012-.011.011-.012.012-.012.012-.011.011-.012.012-.012.012-.012.012-.011.011-.012.012-.012.012-.012.012-.011.012-.012.011-.012.012-.012.012-.012.012-.012.012-.011.012-.012.012-.012.011-.012.012-.012L15 8l-.354-.353zM1.355 8.354 4.89 11.89a.5.5 0 00.707-.708L2.914 8.5H7a.5.5 0 000-1H2.914l.004-.003.01-.011.011-.01.011-.012.011-.01.01-.011.012-.011.01-.01.011-.012.011-.01.01-.011.012-.01.01-.012.01-.01.012-.011.01-.01.01-.011.011-.01.011-.012.01-.01.011-.01.01-.011.011-.01.01-.011.011-.01.01-.011.011-.01.01-.011.011-.01.01-.011.011-.01.01-.01.01-.011.011-.01.01-.011.01-.01.011-.01.01-.01.01-.011.011-.01.01-.01.01-.011.01-.01.01-.01.011-.01.01-.01.01-.01.01-.01.01-.011.01-.01.01-.01.01-.01.01-.01.01-.01.01-.01.01-.01.01-.01.01-.01.01-.01.01-.01.01-.01.01-.01.01-.01.01-.01.01-.01.01-.009.01-.01.01-.01.009-.01.01-.009.01-.01.009-.01.01-.01.01-.009.009-.01.01-.009.01-.01.009-.01.01-.009.009-.01.01-.009.009-.01.01-.009.009-.01.01-.009.009-.01.01-.009.008-.009.01-.01.01-.009.009-.009.009-.01.01-.009.008-.009.01-.009.009-.01.01-.008.008-.01.01-.009.009-.009.009-.01.009-.008.009-.01.009-.008.009-.01.01-.008.008-.01.01-.008.008-.01.009-.008.009-.01.009-.008.009-.01.009-.008.008-.009.01-.009.008-.009.009-.008.009-.01.008-.008.01-.009.008-.008.009-.009.008-.009.009-.008.008-.009.01-.008.008-.01.008-.008.009-.008.008-.009.009-.008.008-.009.009-.008.008-.009.009-.008.008-.008.008-.009.009-.008.008-.008.008-.009.009-.008.008-.008.008-.008.008-.009.008-.008.009-.008.008-.008.008-.008.008-.008.008-.009.008-.008.008-.008.008-.008.008-.008.008-.008.008-.008.008-.008L4.416 6l.008-.008.008-.008.008-.008.007-.008.008-.008.008-.007.008-.008.008-.008.007-.008.008-.007.008-.008.007-.008.008-.007.007-.008.008-.007.008-.008.007-.008.008-.007.007-.008.008-.007.007-.007.007-.008.008-.007.007-.008.007-.007.008-.007.007-.008.007-.007.008-.007.007-.007.007-.007.007-.008.007-.007.008-.007.007-.007.007-.007.007-.007.007-.007.007-.007.007-.007.007-.007.007-.007.007-.007.006-.007.007-.007.007-.007.007-.006.007-.007.007-.007.006-.007.007-.006.007-.007.006-.007.007-.006.007-.007.006-.007.007-.006.006-.007.007-.006.006-.007.007-.006.006-.007.007-.006.006-.007.006-.006.007-.006.006-.007.006-.006.007-.006.006-.006.006-.007.006-.006.007-.006.006-.006.006-.006.006-.006.006-.006.006-.006.006-.006.006-.006.006-.006.006-.006.006-.006.006-.006.006-.006.005-.006.006-.006.006-.005.006-.006.006-.006.005-.006.006-.005.006-.006.005-.006.006-.005.005-.006.006-.005.005-.006.006-.005.005-.006.006-.005.005-.006.006-.005.005-.005.005-.006.006-.005.005-.005.005-.006.005-.005.006-.005.005-.005.005-.005.005-.005.005-.006.005-.005.005-.005.005-.005.005-.005.005-.005.005-.005.005-.004.005-.005.005-.005.005-.005.004-.005.005-.005.005-.004.005-.005.004-.005.005-.004.005-.005.004-.005.005-.004.004-.005.005-.004.004-.005.005-.004.004-.004.004-.005.005-.004.004-.005.004-.004.005-.004.004-.004.004-.005.004-.004.005-.004.004-.004.004-.004.004-.004.004-.004.004-.004.004-.004.004-.004.004-.004.004-.004.004-.004.004-.004.003-.004.004-.004.004-.003.004-.004.003-.004.004-.004.004-.003.003-.004.004-.003.004-.004.003-.003.004-.004.003-.003.003-.004.004-.003L5.415 5l.004-.003.003-.003.003-.004.003-.003.004-.003.003-.003.003-.004.003-.003.003-.003.003-.003.003-.003.004-.003.003-.003.002-.003.003-.003.003-.003.003-.003.003-.002.003-.003.003-.003.002-.003.003-.002.003-.003.002-.003.003-.002.003-.003.002-.003.003-.002.002-.003.003-.002.002-.003.003-.002.002-.002.002-.003.003-.002.002-.002.002-.002.002-.003.002-.002.003-.002.002-.002.002-.002.002-.002.002-.002.002-.002.002-.002.002-.002.002-.002.002-.002.001-.002.002-.002.002-.001.002-.002.002-.002.001-.002.002-.001.001-.002.002-.001.002-.002.001-.002.002-.001.001-.001.001-.002.002-.001.001-.002h.002v-.002l.002-.001.001-.002h.001l.002-.002v-.001l.002-.001v-.001l.002-.001v-.001l.002-.001V4.83l.002-.001v-.001h.001l.001-.002h.001v-.001h.001l.001-.001v-.001h.001v-.001h.001v-.001h.001V4.82h.002v-.001h.001l-.353-.354.353.353a.5.5 0 10-.707-.707l.354.354-.354-.354v.001h-.001v.001h-.001v.001h-.001v.001h-.001v.001h-.001l-.001.001v.001h-.001l-.001.002-.002.001-.001.002h-.001l-.001.002h-.001l-.001.002h-.001l-.001.002H4.87l-.001.002-.002.001v.001l-.002.001-.001.002-.002.001v.001l-.002.002-.002.001-.001.001-.002.002-.001.001-.002.002-.001.001-.002.002-.001.002-.002.001-.002.002-.001.002-.002.001-.002.002-.002.002-.001.002-.002.002-.002.002-.002.002-.002.002-.002.002-.002.002-.002.002-.002.002-.002.002-.003.002-.002.002-.002.002-.002.003-.003.002-.002.002-.002.003L4.8 4.2l-.002.002-.002.003-.003.002-.002.003-.003.002-.003.003-.002.002-.003.003-.002.003-.003.002-.003.003-.003.003-.002.003-.003.002-.003.003-.003.003-.003.003-.003.003-.003.003-.003.003-.003.003-.003.003-.003.003-.003.003-.003.003-.003.004-.003.003-.004.003-.003.003-.003.004-.003.003-.004.003-.003.004-.004.003-.003.003-.004.004-.003.003-.004.004-.003.004-.004.003-.003.004-.004.003-.004.004-.003.004-.004.003-.004.004-.004.004-.003.004-.004.004-.004.004-.004.004-.004.003-.004.004-.004.004-.004.004-.004.005-.004.004-.004.004-.004.004-.005.004-.004.004-.004.004-.004.005-.005.004-.004.004-.004.005-.005.004-.004.004-.004.005-.005.004-.004.005-.005.004-.004.005-.005.004-.005.005-.004.005-.005.004-.005.005-.004.005-.005.004-.005.005-.005.005-.004.005-.005.005-.005.004-.005.005-.005.005-.005.005-.005.005-.005.005-.005.005-.005.005-.005.005-.005.006-.005.005-.005.005-.006.005-.005.005-.005.006-.005.005-.006.005-.005.005-.005.006-.006.005-.005.006-.006.005-.005.006-.006.005-.005.006-.006.005-.005.006-.006.005-.006.006-.005.006-.006.005-.006.006-.005.006-.006.005-.006.006-.006.006-.005.006-.006.006-.006.006-.006.006-.006.005-.006.006-.006.006-.006.006-.006.006-.006.007-.006.006-.006.006-.007.006-.006.006-.006.006-.006.006-.006.007-.007.006-.006.006-.006.007-.007.006-.006.006-.006.007-.007.006-.006.007-.007.006-.006.007-.007.006-.006.007-.007.006-.006.007-.007.006-.007.007-.006.007-.007.006-.007.007-.007.007-.006.007-.007.006-.007.007-.007.007-.007.007-.007.007-.006.007-.007.007-.007.007L4 5l-.007.007-.007.007-.007.007-.008.007-.007.007-.007.007-.007.007-.007.007-.007.008-.007.007-.008.007-.007.007-.007.008-.008.007-.007.007-.007.008-.008.007-.007.007-.008.008-.007.007-.007.008-.008.007-.008.008-.007.007-.008.008-.007.008-.008.007-.007.008-.008.008-.008.007-.008.008-.007.008-.008.007-.008.008-.008.008-.007.008-.008.008-.008.008-.008.007-.008.008-.008.008-.008.008-.008.008-.008.008-.008.008-.008.008-.008.008-.008.008-.008.009-.008.008-.008.008-.009.008-.008.008-.008.008-.008.009-.009.008-.008.008-.008.009-.008.008-.009.008-.008.009-.009.008-.008.008-.008.009-.009.008-.008.009-.009.008-.008.009-.009.008-.008.009-.01.008-.008.009-.008.009-.009.008-.009.009-.008.009-.009.008-.009.01-.008.008-.01.009-.008.008-.009.01-.009.008-.008.009-.01.009-.008.009-.01.009-.008.008-.01.01-.008.008-.009.01-.009.008-.01.01-.008.008-.01.01-.008.009-.01.009-.009.009-.009.01-.009.008-.009.01-.01.009-.008.009-.01.01-.009.008-.01.01-.009.009-.009.01-.01.009-.009.009-.009.01-.01.009-.009.01-.01.009-.009.01-.01.009-.009.01-.01.009-.009.01L3 6l-.009.01-.01.009-.01.01-.009.01-.01.009-.01.01-.009.01-.01.009-.01.01-.009.01-.01.01-.01.009-.01.01-.01.01-.009.01-.01.01-.01.009-.01.01-.01.01-.01.01-.01.01-.01.01-.01.01-.01.01-.01.01-.01.01-.01.01-.01.01-.01.01-.01.01-.01.01-.01.01-.01.01-.01.01-.01.01-.01.011-.01.01-.011.01-.01.01-.01.01-.01.011-.011.01-.01.01-.01.011-.011.01-.01.011-.011.01-.01.01-.01.011-.011.01-.01.011-.011.01-.01.011-.011.01-.01.011-.011.01-.01.011-.011.01-.011.011-.01.011-.011.01-.01.011-.012.01-.01.012-.01.01-.012.011-.01.01-.011.011-.01.011-.012.011-.01.01-.011.012-.011.01-.01.011-.012.011-.01.01-.011.012-.011.01-.011.012-.011.01-.011.011-.011.011-.011.011-.011.011-.011.011-.011.011-.011.011-.011.011-.011.012-.011.01-.011.012-.011.01-.012.012-.01.011-.012.011L2.001 7l-.011.012-.011.01-.012.012-.01.011-.012.011-.011.012-.012.01-.01.012-.012.012-.011.01-.012.012-.011.011-.011.012-.012.011-.011.012-.012.011-.011.011-.011.012-.012.011-.011.012-.012.011-.011.012-.012.011-.011.012-.012.011-.011.012-.012.011-.011.012-.012.011-.012.012-.011.012-.012.011-.011.012-.012.011L1.6 7.4l-.011.012-.012.011-.012.012-.011.012-.012.012-.012.011-.012.012-.011.012-.012.012-.012.011-.012.012-.012.012-.011.012-.012.012-.012.011-.012.012L1.4 7.6l-.012.012-.012.012-.012.012-.011.012L1 8z" clip-rule="evenodd"/></svg>