<svg xmlns="http://www.w3.org/2000/svg" width="12" height="12" viewBox="0 0 12 12"><path fill="currentColor" fill-rule="evenodd" d="M8 8a4 4 0 01-4-4H1.5a.5.5 0 00-.5.5v3.746L2.652 6.64l.381-.37.347.404L6.23 10H7.5a.5.5 0 00.5-.5zM4.126 3a4 4 0 01.41-1H3.5a.5.5 0 00-.5.5V3zm1.228-2A4 4 0 0111 6.646V8.5A1.5 1.5 0 019.5 10h-.585A1.5 1.5 0 017.5 11h-6A1.5 1.5 0 010 9.5v-5A1.5 1.5 0 011.5 3H2v-.5A1.5 1.5 0 013.5 1zM10 7.465q-.466.27-1 .409V9h.5a.5.5 0 00.5-.5zM8 2a.57.57 0 00-.571.571v.858H6.57a.571.571 0 000 1.142h.858v.858a.571.571 0 101.143 0V4.57h.857a.571.571 0 000-1.142h-.857V2.57A.57.57 0 008 2m-6.5 8h3.413L2.967 7.73 1.016 9.624A.5.5 0 001.5 10" clip-rule="evenodd"/></svg>