<svg xmlns="http://www.w3.org/2000/svg" width="32" height="32" viewBox="0 0 32 32"><path fill="currentColor" fill-rule="evenodd" d="M19.257 13a5.5 5.5 0 002.732 1.79q.01.104.011.21v8a2 2 0 01-2 2h-2.586l-7.707-7.707-.633-.633-.699.56L5 19.92V15a2 2 0 012-2zM24 14.978V22a2 2 0 002-2v-5.6a5.5 5.5 0 01-2 .578m4-2.315A5.5 5.5 0 1018.6 7H10a4 4 0 00-4 4v.126c-1.725.444-3 2.01-3 3.874v8a4 4 0 004 4h13a4 4 0 003.874-3H24a4 4 0 004-4zM18.022 9H10a2 2 0 00-2 2h10.207a5.5 5.5 0 01-.185-2M23.5 6.5a.75.75 0 00-.75.75v1.5h-1.5a.75.75 0 000 1.5h1.5v1.5a.75.75 0 001.5 0v-1.5h1.5a.75.75 0 000-1.5h-1.5v-1.5a.75.75 0 00-.75-.75M5 22.48V23a2 2 0 002 2h7.586l-5.66-5.66zM17 19a1 1 0 100-2 1 1 0 000 2m0 2a3 3 0 100-6 3 3 0 000 6" clip-rule="evenodd"/></svg>