<svg xmlns="http://www.w3.org/2000/svg" width="16" height="16" viewBox="0 0 16 16"><g fill="none"><g clip-path="url(#svgID0)"><path fill="currentColor" d="M8.684.895q.076 0 .145.018a7.13 7.13 0 016.336 7.084l-.01.367a7.13 7.13 0 01-6.305 6.714.6.6 0 01-.166.027.6.6 0 01-.6-.6V1.496a.6.6 0 01.6-.6m-2.42.35a.6.6 0 01.6.599v12.31a.6.6 0 01-1.2 0V1.844a.6.6 0 01.6-.6m3.02 12.547a5.93 5.93 0 004.68-5.795 5.93 5.93 0 00-4.68-5.795zM3.851 2.526a.6.6 0 01.6.6v9.748a.6.6 0 11-1.2 0V3.126a.6.6 0 01.6-.6M1.436 4.702a.6.6 0 01.6.6v5.393a.6.6 0 11-1.2 0V5.302a.6.6 0 01.6-.6"/></g><defs><clipPath id="svgID0"><path fill="#fff" d="M0 0h16v16H0z"/></clipPath></defs></g></svg>