<svg xmlns="http://www.w3.org/2000/svg" width="12" height="12" viewBox="0 0 12 12"><g fill="none"><g clip-path="url(#svgID0)"><path fill="currentColor" d="M6.617.683a5.35 5.35 0 014.757 5.315l-.008.275A5.35 5.35 0 016.63 11.31a.5.5 0 01-.118.019.45.45 0 01-.45-.45V1.121a.45.45 0 01.555-.438m-1.919.25a.45.45 0 01.45.45v9.233a.45.45 0 01-.9 0V1.383a.45.45 0 01.45-.45m2.264 9.411a4.447 4.447 0 000-8.693zM2.889 1.895a.45.45 0 01.45.45v7.312a.451.451 0 01-.9 0V2.345a.45.45 0 01.45-.45M1.077 3.527a.45.45 0 01.45.45v4.045a.451.451 0 01-.9 0V3.977a.45.45 0 01.45-.45"/></g><defs><clipPath id="svgID0"><path fill="#fff" d="M0 0h12v12H0z"/></clipPath></defs></g></svg>