<svg xmlns="http://www.w3.org/2000/svg" width="20" height="20" viewBox="0 0 20 20"><path fill="currentColor" d="M14.428 2.92c.92-.914 2.486-.263 2.487 1.034v11.984c0 1.29-1.555 1.945-2.478 1.042l-2.636-2.575-.011-.011v-.001h-.001l-.003-.003-.01-.01-.035-.037-.139-.143-.497-.511-.48-.49v2.736c0 1.292-1.555 1.945-2.478 1.042l-6.064-5.94a1.46 1.46 0 01-.01-2.075l6.065-6.038c.92-.915 2.487-.263 2.488 1.034v1.985h-.002l-.004.693.507-.476.498-.467.138-.129.036-.034q.004-.001.006-.004zm1.237 1.034a.209.209 0 00-.356-.147L12.68 6.42l-.014.013h-.001l-.011.011-.036.035-.139.128-.498.466-1.57 1.469a.627.627 0 01-1.052-.46l.017-2.253V3.958a.209.209 0 00-.355-.148L2.956 9.848a.21.21 0 00.002.297l6.063 5.938c.132.13.354.036.354-.148v-4.268a.625.625 0 011.07-.438c.579.586 1.14 1.16 1.556 1.587l.498.514.14.144.036.037.01.01.003.003h.001l2.622 2.563a.208.208 0 00.354-.15z"/></svg>