<svg xmlns="http://www.w3.org/2000/svg" width="32" height="32" viewBox="0 0 32 32"><path fill="currentColor" d="M23.086 4.67c1.473-1.461 3.978-.418 3.978 1.657V25.5c0 2.065-2.486 3.112-3.964 1.669l-4.217-4.12-.04-.04-.057-.061-.221-.228c-.191-.197-.465-.48-.797-.82-.23-.237-.49-.5-.768-.783V22h.002v3.496c0 2.067-2.49 3.112-3.966 1.667L3.333 17.66a2.334 2.334 0 01-.014-3.32l9.703-9.66c1.471-1.465 3.98-.424 3.98 1.653v3.176H17l-.008 1.107.811-.761.798-.746.22-.206.074-.069zm1.978 1.657a.334.334 0 00-.568-.238l-4.21 4.182-.022.021v.002l-.005.002-.014.015-.058.054-.22.206-.798.745c-.666.622-1.568 1.467-2.511 2.351a1.002 1.002 0 01-1.685-.737L15 9.326h.002V6.333a.333.333 0 00-.569-.237l-9.703 9.66a.334.334 0 00.002.475l9.703 9.503a.334.334 0 00.566-.238v-6.83a1 1 0 011.711-.702A564 564 0 0120 21.328q.145.148.222.23l.059.06.015.014.004.005.001.001h.001l4.196 4.1a.333.333 0 00.566-.238z"/></svg>