<svg xmlns="http://www.w3.org/2000/svg" width="12" height="12" viewBox="0 0 12 12"><path fill="currentColor" d="M8.658 1.752c.552-.548 1.491-.157 1.491.62v7.191c0 .774-.932 1.166-1.486.626L7.082 8.644l-.016-.016-.021-.022-.083-.085-.299-.308-.287-.293v1.641c0 .775-.934 1.167-1.487.625L1.25 6.623a.875.875 0 01-.005-1.246l3.639-3.623c.552-.548 1.492-.158 1.492.62v1.13l-.003.477.304-.285.299-.28.083-.077.02-.02zm.741.62a.125.125 0 00-.212-.087L7.608 3.852 7.6 3.86l-.002.002q-.003.001-.006.005l-.022.02-.083.077-.299.28-.94.881a.376.376 0 01-.633-.276l.011-1.351V2.375a.125.125 0 00-.213-.088L1.774 5.909a.125.125 0 00.001.177L5.413 9.65c.08.077.213.022.213-.089v-2.56a.375.375 0 01.642-.264A211 211 0 017.5 7.999l.083.085.021.023 1.582 1.545c.08.077.212.021.212-.089z"/></svg>