<svg xmlns="http://www.w3.org/2000/svg" width="16" height="16" viewBox="0 0 16 16"><path fill="currentColor" d="M11.543 2.335c.736-.73 1.989-.209 1.99.828v9.587c-.001 1.033-1.244 1.556-1.983.834l-2.108-2.06-.02-.02-.028-.03-.112-.115-.397-.409-.384-.391v2.189c0 1.034-1.245 1.556-1.983.833l-4.851-4.75A1.167 1.167 0 011.66 7.17l4.85-4.83c.736-.733 1.99-.212 1.991.826v1.589H8.5l-.003.552.404-.38.4-.373.11-.103.03-.027.008-.009h.001zm.99.828a.167.167 0 00-.285-.118l-2.104 2.09-.021.02-.03.027-.11.103-.398.372-1.256 1.176a.5.5 0 01-.842-.368l.014-1.803V3.166a.167.167 0 00-.284-.118l-4.852 4.83a.167.167 0 00.001.238l4.852 4.751a.167.167 0 00.283-.119V9.333a.5.5 0 01.855-.352c.463.47.912.93 1.245 1.271l.399.412.111.114.03.03 2.108 2.061a.167.167 0 00.283-.119z"/></svg>