<svg xmlns="http://www.w3.org/2000/svg" width="24" height="24" viewBox="0 0 24 24"><path fill="currentColor" d="M17.315 3.503c1.104-1.096 2.983-.314 2.983 1.242v14.38c0 1.549-1.865 2.334-2.973 1.252l-3.163-3.09-.018-.02-.011-.011-.044-.045-.165-.171-.598-.615-.576-.588v.663h.001v2.621c0 1.55-1.867 2.335-2.975 1.25L2.5 13.244a1.75 1.75 0 01-.01-2.49l7.278-7.245c1.103-1.098 2.984-.317 2.984 1.24v2.383h-.002l-.006.83.609-.57.6-.56.164-.155.044-.04.014-.014zm1.483 1.242a.25.25 0 00-.426-.178l-3.157 3.136-.017.017-.014.013-.044.04-.165.155-.599.56c-.5.466-1.176 1.099-1.883 1.762a.752.752 0 01-1.264-.553l.022-2.703V4.75a.25.25 0 00-.427-.178l-7.276 7.246a.25.25 0 000 .356l7.278 7.127a.25.25 0 00.425-.179V17h-.001v-3a.75.75 0 011.284-.526A421 421 0 0115 15.996l.167.172.044.045.01.012.005.003 3.147 3.076a.25.25 0 00.425-.179z"/></svg>