<svg xmlns="http://www.w3.org/2000/svg" width="32" height="32" viewBox="0 0 32 32"><path fill="currentColor" fill-rule="evenodd" d="M7 10.678V15.5a9 9 0 009 9h4.922a1 1 0 110 2H16c-6.075 0-11-4.925-11-11v-4.822a1 1 0 112 0m7.762-4.457a1.25 1.25 0 112.5 0 1.25 1.25 0 01-2.5 0M11 4.97a1.25 1.25 0 100 2.5 1.25 1.25 0 000-2.5m13.512 16a1.25 1.25 0 112.5 0 1.25 1.25 0 01-2.5 0m1.25-12.25a1.25 1.25 0 100 2.5 1.25 1.25 0 000-2.5m-1.25 6.75a1.25 1.25 0 112.5 0 1.25 1.25 0 01-2.5 0m-3.789-10.5a1.25 1.25 0 100 2.5 1.25 1.25 0 000-2.5" clip-rule="evenodd"/></svg>