<svg xmlns="http://www.w3.org/2000/svg" width="12" height="12" viewBox="0 0 12 12"><path fill="currentColor" fill-rule="evenodd" d="M1.8 3.19v3.238a3.5 3.5 0 003.5 3.5h3.366a.5.5 0 010 1H5.3a4.5 4.5 0 01-4.5-4.5V3.19a.5.5 0 011 0m7.696 5.005a.75.75 0 111.5 0 .75.75 0 01-1.5 0m.75-3a.75.75 0 100 1.5.75.75 0 000-1.5m-.75-1.5a.75.75 0 111.5 0 .75.75 0 01-1.5 0M5.797 1.017a.75.75 0 100 1.5.75.75 0 000-1.5m-2.974.75a.75.75 0 111.5 0 .75.75 0 01-1.5 0m5.199-.75a.75.75 0 100 1.5.75.75 0 000-1.5" clip-rule="evenodd"/></svg>