<svg xmlns="http://www.w3.org/2000/svg" width="16" height="16" viewBox="0 0 16 16"><path fill="currentColor" fill-rule="evenodd" d="M13 7.363v3a.5.5 0 101 0v-3a5.5 5.5 0 00-5.5-5.5h-3a.5.5 0 000 1h3a4.5 4.5 0 014.5 4.5M3.5 4.75a.75.75 0 11-1.5 0 .75.75 0 011.5 0m0 3a.75.75 0 11-1.5 0 .75.75 0 011.5 0m4.25 5.75a.75.75 0 100-1.5.75.75 0 000 1.5m-2.25-.75a.75.75 0 11-1.5 0 .75.75 0 011.5 0m5.25.75a.75.75 0 100-1.5.75.75 0 000 1.5M3.5 10.75a.75.75 0 11-1.5 0 .75.75 0 011.5 0" clip-rule="evenodd"/></svg>