<svg xmlns="http://www.w3.org/2000/svg" width="32" height="32" viewBox="0 0 32 32"><path fill="currentColor" fill-rule="evenodd" d="M25.012 20.792v-4.821a9 9 0 00-9-9H11.09a1 1 0 110-2h4.922c6.075 0 11 4.925 11 11v4.821a1 1 0 11-2 0M17.25 25.25a1.25 1.25 0 11-2.5 0 1.25 1.25 0 012.5 0m3.762 1.25a1.25 1.25 0 100-2.5 1.25 1.25 0 000 2.5M7.5 10.5a1.25 1.25 0 11-2.5 0 1.25 1.25 0 012.5 0M6.25 22.75a1.25 1.25 0 100-2.5 1.25 1.25 0 000 2.5M7.5 16A1.25 1.25 0 115 16a1.25 1.25 0 012.5 0m3.789 10.5a1.25 1.25 0 100-2.5 1.25 1.25 0 000 2.5" clip-rule="evenodd"/></svg>