<svg xmlns="http://www.w3.org/2000/svg" width="12" height="12" viewBox="0 0 12 12"><path fill="currentColor" fill-rule="evenodd" d="M9.996 8.756v-3.24a3.5 3.5 0 00-3.5-3.5H3.132a.5.5 0 010-1h3.364a4.5 4.5 0 014.5 4.5v3.24a.5.5 0 11-1 0M2.301 3.75a.75.75 0 11-1.5 0 .75.75 0 011.5 0m-.75 3a.75.75 0 100-1.5.75.75 0 000 1.5m.75 1.5a.75.75 0 11-1.5 0 .75.75 0 011.5 0M6 10.928a.75.75 0 100-1.5.75.75 0 000 1.5m2.974-.75a.75.75 0 11-1.5 0 .75.75 0 011.5 0m-5.199.75a.75.75 0 100-1.5.75.75 0 000 1.5" clip-rule="evenodd"/></svg>