<svg xmlns="http://www.w3.org/2000/svg" width="32" height="32" viewBox="0 0 32 32"><path fill="currentColor" d="M25.334 5.333A2.67 2.67 0 0128.001 8v14l-.014.273a2.67 2.67 0 01-2.653 2.393h-6.668V26H20a1 1 0 010 2h-8a1 1 0 010-2h1.333v-1.334H6.668l-.273-.013a2.67 2.67 0 01-2.38-2.38L4 22V8c0-1.38 1.05-2.516 2.394-2.653l.273-.014zm-18.666 2A.667.667 0 006.001 8v14c0 .368.299.666.667.666h2.665V7.333zm4.665 15.333h14.001a.667.667 0 00.667-.666V8a.67.67 0 00-.667-.667H11.333zm11.667-6a1 1 0 010 2h-8.667a1 1 0 010-2zm0-5.333a1 1 0 110 2h-8.667a1 1 0 010-2z"/></svg>