<svg xmlns="http://www.w3.org/2000/svg" width="20" height="20" viewBox="0 0 20 20"><path fill="currentColor" d="m10.038 3.002 4.393.508c.093.01.177.06.233.137l3.27 4.51a.35.35 0 01-.015.428l-7.79 9.354a.166.166 0 01-.257 0L2.08 8.586a.35.35 0 01-.014-.429l3.27-4.51a.34.34 0 01.233-.136l4.393-.508a.3.3 0 01.076 0m.912.973a.07.07 0 00-.096-.005.074.074 0 00-.016.094l.006.008L13.32 7.23c.024.03.037.069.037.108a.17.17 0 01-.154.172H6.81a.17.17 0 01-.105-.038.175.175 0 01-.035-.23l.01-.012 2.477-3.157a.074.074 0 00-.006-.097.07.07 0 00-.093-.007l-.008.007L5.694 7.43a.13.13 0 01-.102.04.136.136 0 01-.128-.13v-.014l.116-2.501a.07.07 0 00-.053-.07.07.07 0 00-.078.042l-.002.01-.636 2.879a.27.27 0 01-.188.204l-.018.004-1.575.347a.07.07 0 00-.053.068c0 .035.026.063.058.068h1.58c.092 0 .176.048.226.126l.01.015 3.767 6.88a.1.1 0 00.131.043.104.104 0 00.053-.127l-.004-.01L5.75 8.67a.2.2 0 01-.019-.088c0-.109.083-.198.188-.206h8.146q.045 0 .086.02c.096.046.14.16.102.26l-.005.014-3.047 6.631a.105.105 0 00.042.134.1.1 0 00.132-.03l.006-.01 3.768-6.879a.27.27 0 01.216-.14h1.589c.032 0 .06-.023.066-.055a.07.07 0 00-.043-.079l-.008-.003-1.575-.347a.27.27 0 01-.201-.19l-.005-.018-.636-2.88a.07.07 0 00-.069-.054.07.07 0 00-.064.063v.01l.116 2.501a.14.14 0 01-.04.104.13.13 0 01-.18.01l-.01-.01z"/></svg>