<svg xmlns="http://www.w3.org/2000/svg" width="32" height="32" viewBox="0 0 32 32"><path fill="currentColor" d="M25.55 14.414a5.9 5.9 0 00-.478-4.707c-1.216-2.185-3.662-3.309-6.05-2.78A5.48 5.48 0 0014.831 5c-2.442-.006-4.608 1.616-5.359 4.012a5.57 5.57 0 00-3.714 2.78c-1.226 2.179-.946 4.926.691 6.795a5.9 5.9 0 00.477 4.706c1.217 2.185 3.662 3.31 6.05 2.78A5.48 5.48 0 0017.168 28c2.443.006 4.61-1.617 5.361-4.015a5.57 5.57 0 003.715-2.78c1.224-2.179.944-4.924-.693-6.793zm-8.381 12.083a4.1 4.1 0 01-2.675-.998c.034-.018.093-.052.132-.077l4.44-2.645a.75.75 0 00.364-.652V15.67l1.877 1.117q.03.017.036.054v5.346c-.003 2.378-1.87 4.306-4.174 4.31m-8.977-3.955a4.4 4.4 0 01-.498-2.888l.131.08 4.44 2.646a.7.7 0 00.73 0l5.42-3.229v2.236a.07.07 0 01-.027.06L13.9 24.118c-1.999 1.188-4.552.482-5.707-1.577zm-1.169-9.998a4.2 4.2 0 012.175-1.89l-.002.159v5.29a.75.75 0 00.364.652l5.42 3.228-1.876 1.117a.07.07 0 01-.063.006l-4.489-2.675c-1.995-1.192-2.679-3.825-1.53-5.886zm15.417 3.701-5.42-3.229 1.876-1.117a.07.07 0 01.063-.005l4.489 2.673c1.998 1.19 2.683 3.828 1.529 5.89a4.2 4.2 0 01-2.174 1.888v-5.449a.75.75 0 00-.363-.65m1.867-2.9-.132-.08-4.44-2.646a.7.7 0 00-.729 0l-5.42 3.23v-2.236a.07.07 0 01.027-.06l4.487-2.67c2-1.19 4.555-.482 5.707 1.58a4.43 4.43 0 01.499 2.883zM12.566 17.33l-1.877-1.118a.07.07 0 01-.036-.053v-5.347c.001-2.38 1.873-4.31 4.181-4.308a4.1 4.1 0 012.671.997l-.131.077-4.44 2.645a.75.75 0 00-.365.652l-.003 6.453zm1.02-2.267L16 13.625l2.414 1.437v2.876L16 19.375l-2.415-1.437z"/></svg>