<svg xmlns="http://www.w3.org/2000/svg" width="12" height="12" viewBox="0 0 12 12"><g fill="none"><g clip-path="url(#svgID0)"><path fill="currentColor" fill-rule="evenodd" d="M3.707 8.997a.5.5 0 01-.708 0L.353 6.351l-.354-.354.354-.354 2.646-2.646a.5.5 0 01.708.707L1.413 5.997 3.707 8.29a.5.5 0 010 .707m4.586-6a.5.5 0 01.707 0l2.647 2.646.354.354-.354.354L9 8.997a.5.5 0 01-.707-.707l2.293-2.293-2.293-2.293a.5.5 0 010-.707m-.798.55a.5.5 0 00-.933-.359L4.572 8.37a.5.5 0 00.934.359z" clip-rule="evenodd"/></g><defs><clipPath id="svgID0"><path fill="#fff" d="M0 0h12v12H0z"/></clipPath></defs></g></svg>