<svg xmlns="http://www.w3.org/2000/svg" width="32" height="32" viewBox="0 0 32 32"><path fill="currentColor" d="M26.993 23.333a1 1 0 010 2H5.026a1 1 0 110-2zM15.989 9.866q.485 0 .78.312.295.294.295.746v10.018q0 .45-.312.763-.295.294-.797.294-.416 0-.745-.294a1.04 1.04 0 01-.313-.763v-4.039h-5.53v4.04q0 .45-.328.762a1.1 1.1 0 01-.763.294q-.485 0-.78-.294a1.07 1.07 0 01-.295-.763V10.924q0-.451.312-.746a1.08 1.08 0 01.797-.312q.416 0 .729.312.33.294.329.746v3.986h5.53v-3.986q0-.451.328-.746.33-.312.763-.312m6.722 0q.502 0 .797.312.294.294.294.746v10.018q0 .45-.329.763-.312.295-.815.294-.485 0-.797-.294a1.04 1.04 0 01-.312-.763v-8.175l-1.023.756a.95.95 0 01-.606.19 1 1 0 01-.728-.31 1.02 1.02 0 01-.312-.747q0-.555.537-.901l2.496-1.663q.173-.122.382-.174.225-.052.416-.052"/></svg>