<svg xmlns="http://www.w3.org/2000/svg" width="20" height="20" viewBox="0 0 20 20"><path fill="currentColor" d="M16.87 14.584a.626.626 0 010 1.25H3.142a.625.625 0 010-1.25zM9.994 5.917a.64.64 0 01.488.194.63.63 0 01.184.466v6.261a.65.65 0 01-.195.477q-.185.184-.499.184a.68.68 0 01-.465-.184.65.65 0 01-.196-.477v-2.523H5.855v2.523a.63.63 0 01-.206.477.7.7 0 01-.476.184.66.66 0 01-.488-.184.67.67 0 01-.184-.477V6.577q0-.282.195-.466a.68.68 0 01.498-.194q.26 0 .455.194a.6.6 0 01.206.466v2.492H9.31V6.577q.001-.282.206-.466a.67.67 0 01.477-.194m4.201 0q.314 0 .498.194a.63.63 0 01.185.466v6.261a.63.63 0 01-.206.477.7.7 0 01-.51.184.7.7 0 01-.498-.184.65.65 0 01-.194-.477v-5.11l-.64.474a.6.6 0 01-.379.119.62.62 0 01-.455-.195.64.64 0 01-.195-.465q0-.347.335-.564l1.561-1.04a.7.7 0 01.238-.108q.14-.033.26-.032"/></svg>