<svg xmlns="http://www.w3.org/2000/svg" width="12" height="12" viewBox="0 0 12 12"><path fill="currentColor" d="M10.122 8.75a.375.375 0 010 .75H1.885a.375.375 0 010-.75zm-4.126-5.8q.183 0 .293.117a.38.38 0 01.11.28v3.756a.4.4 0 01-.117.286.4.4 0 01-.299.11.4.4 0 01-.28-.11.4.4 0 01-.116-.286V5.588H3.513v1.515q0 .17-.123.286a.42.42 0 01-.286.11.4.4 0 01-.292-.11.4.4 0 01-.112-.286V3.346q0-.168.117-.28a.4.4 0 01.3-.116q.155 0 .273.117a.36.36 0 01.123.28V4.84h2.074V3.346q0-.168.123-.28a.4.4 0 01.286-.116m2.52 0a.39.39 0 01.41.396v3.757a.38.38 0 01-.123.286.43.43 0 01-.306.11.42.42 0 01-.299-.11.4.4 0 01-.117-.286V4.037l-.384.284a.36.36 0 01-.227.072.37.37 0 01-.273-.117.38.38 0 01-.117-.28q0-.207.201-.337l.937-.624a.4.4 0 01.142-.066.7.7 0 01.157-.02"/></svg>