<svg xmlns="http://www.w3.org/2000/svg" width="16" height="16" viewBox="0 0 16 16"><path fill="currentColor" d="M13.496 11.667a.5.5 0 010 1H2.513a.5.5 0 010-1zm-5.5-6.734q.24 0 .389.156a.5.5 0 01.147.373v5.009a.52.52 0 01-.156.381.54.54 0 01-.398.148.55.55 0 01-.373-.148.52.52 0 01-.156-.381V8.452H4.685v2.019q0 .225-.165.381a.56.56 0 01-.382.148.53.53 0 01-.39-.148.54.54 0 01-.147-.381V5.46q0-.225.156-.372a.54.54 0 01.399-.156.5.5 0 01.364.156.48.48 0 01.165.373v1.993h2.764V5.462q0-.226.165-.373a.54.54 0 01.381-.156m3.36 0a.523.523 0 01.546.529v5.009q0 .225-.165.381a.57.57 0 01-.408.148.56.56 0 01-.398-.148.52.52 0 01-.156-.381V6.383l-.511.379a.48.48 0 01-.304.095.5.5 0 01-.364-.156.5.5 0 01-.155-.373q0-.277.268-.45l1.248-.832a.6.6 0 01.19-.087 1 1 0 01.209-.026"/></svg>