<svg xmlns="http://www.w3.org/2000/svg" width="24" height="24" viewBox="0 0 24 24"><path fill="currentColor" d="M20.244 17.5a.75.75 0 110 1.5H3.77a.75.75 0 010-1.5zM11.992 6.9q.365 0 .585.234.22.22.22.558v7.514a.78.78 0 01-.232.572q-.222.222-.6.222a.82.82 0 01-.558-.222.78.78 0 01-.234-.572v-3.028H7.026v3.028a.76.76 0 01-.247.572.83.83 0 01-.572.222q-.365 0-.585-.222a.8.8 0 01-.22-.572V7.692q0-.337.233-.558a.8.8 0 01.598-.235q.312 0 .546.235a.72.72 0 01.247.558v2.99h4.147v-2.99q0-.337.247-.558a.8.8 0 01.572-.235m5.041 0q.376 0 .598.234.22.22.22.558v7.514a.76.76 0 01-.246.572.85.85 0 01-.61.222.84.84 0 01-.6-.222.78.78 0 01-.233-.572V9.074l-.767.569a.7.7 0 01-.455.142.75.75 0 01-.546-.233.76.76 0 01-.234-.56q0-.415.402-.676l1.873-1.248a.9.9 0 01.286-.13 1.4 1.4 0 01.312-.039"/></svg>