<svg xmlns="http://www.w3.org/2000/svg" width="12" height="12" viewBox="0 0 12 12"><path fill="currentColor" fill-rule="evenodd" d="M4.429 10V9H1.5a.5.5 0 01-.5-.5v-6a.5.5 0 01.5-.5h9a.5.5 0 01.5.5v6a.5.5 0 01-.5.5H6.613l-.286.26-1.898 1.728zm6.071 0H7l-1.898 1.727a1 1 0 01-1.673-.74V10H1.5A1.5 1.5 0 010 8.5v-6A1.5 1.5 0 011.5 1h9A1.5 1.5 0 0112 2.5v6a1.5 1.5 0 01-1.5 1.5M5.179 4.98l.01-.003a.5.5 0 00-.295-.955l.142.468-.143-.468H4.89l-.004.002-.012.004a1 1 0 00-.146.056c-.09.039-.21.098-.34.183a1.9 1.9 0 00-.755.91c-.16.427-.148.844-.105 1.137q.028.182.063.307a.96.96 0 10.998-1.138.9.9 0 01.344-.378 1.3 1.3 0 01.246-.124m3 0 .01-.003a.5.5 0 00-.295-.955l.142.468-.143-.468H7.89l-.004.002-.012.004a1 1 0 00-.146.056c-.09.039-.21.098-.34.183a1.9 1.9 0 00-.755.91c-.16.427-.148.844-.105 1.137q.028.182.063.307a.96.96 0 10.998-1.138.9.9 0 01.344-.378 1.3 1.3 0 01.246-.124" clip-rule="evenodd"/></svg>