<svg xmlns="http://www.w3.org/2000/svg" width="24" height="24" viewBox="0 0 24 24"><path fill="currentColor" fill-rule="evenodd" d="M9.288 16.774a.75.75 0 01-1.06 0L3.983 12.53l-.53-.53.53-.53.013-.013.012-.012.012-.012.012-.012.012-.013.012-.012.013-.012.012-.012.012-.012.012-.013.012-.012.013-.012.012-.012.012-.012.012-.013.012-.012.012-.012.013-.012.012-.012.012-.012.012-.013.012-.012.013-.012.012-.012.012-.012.012-.013.012-.012.013-.012.012-.012.012-.012.012-.012.012-.013.012-.012.013-.012.012-.012.012-.012.012-.012.012-.013.012-.012.013-.012.012-.012.012-.012.012-.012.012-.013.012-.012.013-.012.012-.012.012-.012.012-.012.012-.013.012-.012.012-.012.013-.012.012-.012.012-.012.012-.012.012-.012.012-.013.012-.012.012-.012.013-.012.012-.012.012-.012.012-.012.012-.012.012-.012.012-.012.012-.013.012-.012.012-.012.012-.012.012-.012.013-.012.012-.012.012-.012.012-.012.012-.012.012-.012.012-.012.012-.012.012-.012.012-.012.012-.012.012-.012.012-.012.012-.012.012-.012.012-.012.012-.012.011-.012.012-.012.012-.012.012-.012.012-.011.012-.013.012-.011.012-.012.012-.012.012-.012.012-.012.011-.012.012-.012.012-.011.012-.012.012-.012.012-.012.011-.012.012-.012.012-.011.012-.012.012-.012.011-.012.012-.011.012-.012.012-.012.011-.012.012-.011.012-.012.011-.012.012-.011.012-.012.011-.012.012-.012.012-.011.011-.012.012-.011.012-.012.011-.012.012-.011.011-.012.012-.011.012-.012.011-.012.012-.011.011-.012.012-.011.011-.012.012-.011.011-.012.012-.011.011-.012.012-.011.011-.011.011-.012.012-.011.011-.012.012-.011.011-.011.011-.012.012-.011.011-.011.011-.012.012-.011.011-.011.011-.012.012-.01.01-.012.012-.011.011-.012.011-.01.012-.012.01-.011.012-.011.011-.012.011-.01.011-.012.012-.011.01-.011.012-.011.01-.011.012-.011.01-.011.012-.011.01-.011.012-.011.01-.011.012-.011.01-.011.012-.011.01-.011.012-.01.01-.012.011-.01.011-.011.011-.011.01-.011.012-.01.01-.012.011-.01.01-.011.012-.01.01-.012.011-.01.01-.011.011-.01.011-.011.01-.01.011-.012.01-.01.011-.01.01-.011.011-.01.01-.011.011-.01.01-.011.011-.01.01-.011.011-.01.01-.011.011-.01.01-.01.01-.011.011-.01.01-.01.01-.011.01-.01.011-.01.01-.01.01-.011.01-.01.011-.01.01-.01.01-.01.01-.01.01-.01.01-.01.01-.01.01-.01.01-.01.01-.01.01-.01.01-.01.01-.01.01-.01.01-.01.01-.01.01-.01.01-.01.01-.01.01-.01.009-.01.01-.009.01-.01.009-.01.01-.01.01-.009.009-.01.01-.009.01-.01.009-.009.01-.01.009-.009.01-.01.009-.009.009-.01.01-.009.009-.01.01-.008.008-.01.01-.01.009-.008.01-.01.009-.009.009-.01.009-.008.01-.01.008-.009.01-.009.008-.009.01-.009.008-.009.01-.009.008-.009.01-.009.008-.009.01-.009.008-.009.009-.008.009-.01.009-.008.008-.009.01-.009.008-.008.009-.009.008-.009.009-.008.008-.009.01-.008.008-.009.008-.009.009-.008.008-.009.009-.008.008-.008.008-.009.009-.008.008-.009.008-.008.009-.008.008-.008.008-.009.008-.008.009-.008.008-.008.008-.008.008-.008.008-.008.008-.008.008-.008.008-.008.008-.008.008-.008.008-.008.008-.008.007-.008.008-.008.008-.007.008-.008.007-.008.008-.008.008-.007.007-.008L7.455 8l.008-.008.007-.007.008-.008.007-.007.007-.008.008-.007.007-.008.008-.007.007-.007.007-.008.007-.007.008-.007.007-.007.007-.007.007-.007.007-.008.007-.007.007-.007.007-.007.007-.007.007-.006.007-.007.007-.007.007-.007.006-.007.007-.007.007-.006.007-.007.006-.007.007-.006.006-.007.007-.006.007-.007.006-.006.007-.007.006-.006.006-.007.007-.006.006-.006.006-.007.007-.006.006-.006.006-.006.006-.006.006-.007.006-.006.006-.006.006-.006.006-.006.006-.006.006-.005.006-.006.006-.006.006-.006.005-.006.006-.005.006-.006.005-.006.006-.005.006-.006.005-.006.006-.005.005-.005.006-.006.005-.005.005-.006.006-.005.005-.005.005-.005.005-.006.006-.005.005-.005.005-.005.005-.005.005-.005.005-.005.005-.005.005-.005.004-.005.005-.005.005-.004.005-.005.005-.005.004-.005.005-.004.004-.005.005-.004.005-.005.004-.004L8 7.454l.005-.004.004-.005.004-.004.005-.004.004-.004.004-.005.004-.004.004-.004.005-.004.004-.004.004-.004.003-.004.004-.004.004-.004.004-.003.004-.004.004-.004.003-.004.004-.003.004-.004.003-.004.004-.003.003-.004.004-.003.003-.004.003-.003.004-.003.003-.003.003-.004.004-.003.003-.003.003-.003.003-.003.003-.003.003-.003.003-.003.003-.003.003-.003.002-.003.003-.003.003-.002.003-.003.002-.003.003-.002.002-.003.003-.002.002-.003.003-.002.002-.003.003-.002.002-.002.002-.002.002-.003.002-.002.003-.002.002-.002.002-.002.002-.002.001-.002.002-.002.002-.002.002-.001.002-.002.001-.002.002-.001.002-.002.001-.002.002-.001.001-.002.002-.001.001-.001.001-.002.002-.001v-.001l.002-.001.001-.002h.001l.001-.002h.001l.001-.002h.001l.001-.001v-.001h.002v-.002h.002V7.23h.001v-.001h.001v-.001h.001l.53.53.53.53v.001l-.001.001-.001.001-.001.001-.001.001-.002.001v.001l-.001.001-.001.001-.001.001-.001.001-.001.001-.001.001-.001.001-.001.001-.002.002H9.27l-.001.002-.002.002-.001.001-.002.002-.001.001-.002.002-.001.001-.002.002-.002.002-.001.001-.002.002-.002.002-.002.002-.002.002-.002.002-.002.002-.002.002-.002.002-.002.002-.002.002-.003.002-.002.003-.002.002-.003.002-.002.003-.002.002-.003.003-.002.002-.003.003-.003.003-.002.002-.003.003-.003.003-.003.003-.003.002-.002.003-.003.003-.003.003-.003.003-.004.003-.003.004-.003.003-.003.003-.003.003-.004.003-.003.004-.003.003-.004.004-.003.003-.004.004-.003.003-.004.004-.003.003-.004.004-.004.004-.003.003-.004.004-.004.004-.004.004-.004.004-.004.004-.004.004-.004.004-.004.004-.004.004-.004.004-.004.004-.005.005-.004.004-.004.004-.005.004-.004.005-.004.004-.005.005-.004.004-.005.005-.004.004-.005.005-.005.005-.005.004-.004.005-.005.005-.005.005-.005.005L9 8.576l-.005.005-.005.005-.005.005-.005.005-.005.005-.005.005-.005.005-.005.005-.005.005-.006.006-.005.005-.005.005-.006.006-.005.005-.006.006-.005.005-.006.006-.005.005-.006.006-.006.006-.005.005-.006.006-.006.006-.006.005-.005.006-.006.006-.006.006-.006.006-.006.006-.006.006-.006.006-.006.006-.006.006-.006.006-.007.007-.006.006-.006.006-.006.006-.007.007-.006.006-.006.006-.007.007-.006.006-.007.007-.006.006-.007.007-.006.006-.007.007-.007.007-.006.006-.007.007-.007.007-.007.007-.007.006-.006.007-.007.007-.007.007-.007.007-.007.007-.007.007-.007.007-.007.007-.007.007-.008.007-.007.008-.007.007-.007.007-.007.007-.008.008-.007.007-.007.007-.008.008-.007.007-.008.008-.007.007-.008.008-.007.007-.008.008-.008.007-.007.008-.008.008-.008.008-.007.007-.008.008-.008.008-.008.008-.008.007-.007.008-.008.008-.008.008-.008.008-.008.008-.008.008-.008.008-.008.008-.009.009-.008.008-.008.008-.008.008-.008.008-.009.009-.008.008-.008.008-.009.008-.008.009-.008.008-.009.009-.008.008-.009.009-.008.008-.009.009-.008.008-.009.009-.008.008-.01.01-.008.008-.008.008-.01.01-.008.008-.009.009-.009.008-.008.01-.01.008-.008.009-.009.009-.009.009-.009.009-.009.009-.009.009-.009.009-.009.009-.009.009-.01.01-.008.008-.01.01-.009.009-.009.009-.01.009-.008.01-.01.009-.009.009-.01.01-.009.009-.009.009-.01.01-.009.009-.01.01-.009.009-.01.01-.009.009-.01.01-.009.009-.01.01-.009.009-.01.01-.01.01-.009.009-.01.01-.01.01-.01.01-.009.009-.01.01-.01.01-.01.01-.01.01-.01.009-.009.01-.01.01-.01.01-.01.01-.01.01-.01.01-.01.01-.01.01-.01.01-.01.01-.01.01-.01.01-.01.01-.01.01-.01.01-.01.01-.011.011-.01.01-.01.01-.011.01-.01.011-.01.01-.011.01-.01.011-.01.01-.011.011-.01.01-.011.01-.01.011-.01.01-.011.011-.01.01-.011.011-.011.01-.01.011-.011.011-.01.01-.011.011-.011.011-.01.01-.011.011-.011.011-.01.01-.011.011-.011.011-.011.01-.01.012-.012.01-.01.011-.011.011-.011.011-.01.01-.012.012-.01.01-.012.012-.01.01-.011.011-.011.011-.011.011-.011.011-.011.011-.011.011-.011.011-.012.011-.01.011-.012.012-.01.01-.012.012-.011.01-.011.012-.011.011-.011.011-.012.012-.01.01-.012.012-.011.011-.012.012-.01.01-.012.012-.011.011-.012.012-.01.01-.012.012-.012.011-.01.012-.012.011-.012.012-.011.011-.011.011-.012.012-.011.011-.012.012-.011.011-.012.012-.011.011-.012.011-.011.012-.012.011-.011.012-.012.012-.011.011-.012.012-.011.011-.012.012-.011.011-.012.012-.012.012-.011.011-.012.012-.012.012-.011.011-.012.012-.012.011-.011.012-.012.012-.012.011-.011.012-.012.012-.012.012-.012.011-.011.012-.012.012-.012.012-.012.011-.011.012-.012.012-.012.012-.012.012h11.349l-2.963-2.962a.75.75 0 011.061-1.06l4.243 4.242.53.53-.53.53-.012.013-.013.012-.012.012-.012.012-.012.013-.012.012-.013.012-.012.012-.012.012-.012.013-.012.012-.013.012-.012.012-.012.012-.012.012-.012.013-.012.012-.013.012-.012.012-.012.012-.012.013-.012.012-.013.012-.012.012-.012.012-.012.013-.012.012-.012.012-.013.012-.012.012-.012.012-.012.013-.012.012-.012.012-.013.012-.012.012-.012.013-.012.012-.012.012-.013.012-.012.012-.012.012-.012.013-.012.012-.012.012-.012.012-.013.012-.012.012-.012.012-.012.013-.012.012-.012.012-.012.012-.013.012-.012.012-.012.012-.012.013-.012.012-.012.012-.012.012-.013.012-.012.012-.012.012-.012.012-.012.012-.012.013-.012.011-.012.013-.012.012-.012.012-.012.012-.012.012-.012.012-.013.012-.011.012-.012.012-.013.012-.012.012-.012.012-.012.012-.012.012-.012.012-.012.012-.012.012-.012.012-.012.012-.012.012-.012.012-.011.012-.012.012-.012.012-.012.012-.012.012-.012.012-.012.011-.012.012-.012.012-.012.012-.012.012-.011.012-.012.012-.012.012-.012.011-.012.012-.012.012-.011.012-.012.012-.012.012-.012.011-.012.012-.012.012-.011.012-.012.012-.012.011-.012.012-.011.012-.012.011-.012.012-.011.012-.012.012-.012.011-.011.012-.012.012-.012.011-.011.012-.012.011-.012.012-.011.012-.012.011-.011.012-.012.011-.012.012-.011.012-.012.011-.011.012-.012.011-.011.012-.012.011-.011.012-.012.011-.011.012-.012.011-.011.011-.011.012-.012.011-.011.012-.012.011-.011.011-.011.012-.012.011-.011.012-.011.01-.012.012-.01.011-.012.012-.011.011-.012.011-.011.011-.011.012-.011.01-.012.012-.01.011-.012.011-.011.012-.011.01-.011.012-.012.011-.01.011-.012.011-.01.011-.012.011-.01.011-.012.011-.01.011-.012.011-.01.011-.012.011-.01.011-.012.011-.01.011-.011.011-.011.01-.011.012-.011.01-.01.011-.012.011-.01.011-.011.01-.011.011-.01.011-.012.011-.01.01-.01.011-.012.011-.01.01-.01.011-.012.011-.01.01-.01.011-.011.01-.01.011-.011.01-.01.011-.011.01-.01.011-.011.01-.01.011-.011.01-.01.011-.01.01-.011.01-.01.011-.011.01-.01.01-.01.011-.01.01-.011.01-.01.01-.01.011-.01.01-.01.01-.011.01-.01.01-.01.01-.01.01-.01.01-.01.011-.01.01-.01.01-.01.01-.01.01-.01.01-.01.01-.01.01-.01.01-.01.01-.01.01-.01.01-.01.009-.01.01-.009.01-.01.01-.01.009-.009.01-.01.01-.01.009-.009.01-.01.009-.009.01-.01.009-.01.01-.009.01-.009.008-.01.01-.009.01-.01.009-.009.01-.009.008-.01.01-.009.01-.009.008-.01.01-.008.009-.01.01-.009.008-.009.01-.01.009-.008.009-.01.009-.008.009-.01.009-.008.009-.01.009-.008.009-.01.009-.008.009-.009.009-.009.008-.009.01-.008.008-.01.009-.008.009-.009.008-.008.009-.01.009-.008.008-.008.009-.009.008-.009.01-.008.008-.009.008-.008.009-.009.008-.008.009-.008.008-.009.008-.008.009-.008.008-.009.008-.008.008-.008.009-.008.008-.008.008-.009.008-.008.008-.008.008-.008.008-.008.008-.008.008-.008.008-.008.008-.008.008-.008.008-.008.008-.007.008-.008.008-.008.007-.008.008-.007.008-.008.008-.008.007-.007.008-.008.007-.008.008-.007.008-.008.007-.007.007-.007.008-.008.007-.007.008-.008.007-.007.007-.007.008-.007.007-.008.007-.007.007-.007.007-.007.008-.007.007-.007.007-.007.007-.007.007-.007.007-.007.007-.007.006-.007.007-.007.007-.006.007-.007.007-.007.006-.006.007-.007.007-.007.006-.006.007-.007.006-.006.007-.007.006-.006.007-.007.006-.006.007-.007.006-.006.006-.006.007-.006.006-.007.006-.006.006-.006.006-.006.007-.006.006-.006.006-.006.006-.006.006-.006.006-.006.006-.006.005-.006.006-.006.006-.005.006-.006.006-.006.005-.005.006-.006.006-.006.005-.005.006-.006.005-.005.005-.005.006-.006.005-.005.006-.006.005-.005.005-.005.005-.005.006-.005.005-.006.005-.005.005-.005.005-.005.005-.005.005-.005.005-.005.005-.004.005-.005.005-.005.005-.005.004-.005.005-.004.005-.005.004-.004.005-.005.004-.004.005-.005.004-.004.005-.005.004-.004.005-.004.004-.005.004-.004.004-.004.005-.004.004-.004.004-.004.004-.005.004-.004.004-.003.004-.004.004-.004.004-.004.003-.004.004-.004.004-.003.004-.004.003-.004.004-.003.004-.004.003-.003.004-.004.003-.003.004-.003.003-.004.003-.003.003-.003.004-.003.003-.004.003-.003.003-.003.003-.003.003-.003.003-.003.003-.003.003-.003.003-.002.003-.003.003-.003.002-.003.003-.002.003-.003.002-.002.003-.003.002-.002.003-.003.002-.002.003-.002.002-.003.002-.002.003-.002.002-.002.002-.002.002-.002.002-.002.002-.003.002-.001.002-.002.002-.002.002-.002.001-.002.002-.001.002-.002.002-.002.001-.001.002-.002.001-.001.002-.002.001v.001l-.002.002-.002.001v.001l-.002.001-.001.002h-.001l-.001.002h-.001l-.001.002h-.001v.001l-.002.001v.001h-.001v.001l-.001.001h-.001v.001h-.001v.001h-.001v.001h-.001l-.53-.53-.53-.53v-.001l.001-.001.001-.001.002-.001v-.001l.002-.001v-.001l.001-.001.001-.001h.001l.001-.002.001-.001.001-.001.001-.001.002-.001v-.002h.002l.001-.002.002-.002.001-.001.002-.002.001-.001.002-.002.001-.001.002-.002.002-.002.001-.001.002-.002.002-.002.002-.002.002-.002.002-.002.002-.002.002-.002.002-.002.002-.002.002-.002.003-.002.002-.003.002-.002.003-.002.002-.003.003-.002.002-.003.003-.002.002-.003.003-.003.003-.002.002-.003.003-.003.003-.003.003-.003.002-.002.004-.003.002-.003.004-.003.003-.003.003-.003.003-.004.003-.003.003-.003.004-.003.003-.004.003-.003.004-.003.003-.004.004-.004.003-.003.004-.004.003-.003.004-.004.004-.004.004-.003.003-.004.004-.004.004-.004.004-.004.004-.004.004-.004.004-.004.004-.004.004-.004.004-.004.004-.004.005-.004.004-.005.004-.004.005-.004.004-.005.005-.004.004-.005.004-.004.005-.005.005-.004.004-.005.005-.005.005-.004.004-.005.005-.005.005-.005.005-.005.005-.005.005-.005.005-.004.005-.005.005-.005.005-.006.005-.005.005-.005.005-.005.006-.005.005-.006.005-.005.006-.005.005-.006.005-.005.006-.006.005-.005.006-.006.005-.005.006-.006.006-.005.005-.006.006-.006.006-.006.006-.005.005-.006.006-.006.006-.006.006-.006.006-.006.006-.006.006-.006.006-.006.006-.006.006-.006.007-.007.006-.006.006-.006.006-.006.007-.007.006-.006.006-.006.007-.007.006-.006.007-.007.006-.006.007-.007.006-.006.007-.007.007-.007.006-.006.007-.007.007-.007.007-.007.007-.006.006-.007.007-.007.007-.007.007-.007.007-.007.007-.007.007-.007.007-.007.008-.007.007-.008.007-.007.007-.007.007-.007.008-.007.007-.008.007-.007.008-.007.007-.008.007-.007.008-.008.007-.007.008-.008.007-.007.008-.008.008-.007.007-.008.008-.008.008-.008.007-.007.008-.008.008-.008.008-.008.008-.008.008-.007.007-.008.008-.008.008-.008.008-.008.008-.008.008-.008.008-.008.009-.009.008-.008.008-.008.008-.008.008-.008.009-.008.008-.009.008-.008.009-.008.008-.009.008-.008.009-.009.008-.008.009-.009.008-.008.009-.009.008-.008.009-.009.009-.008.008-.009.009-.009.009-.008.008-.01.009-.008.009-.009.009-.008.008-.01.01-.008.008-.009.01-.009.008-.009.009-.009.009-.009.009-.009.009-.009.009-.009.01-.009.008-.01.01-.008.009-.01.009-.008.009-.01.01-.009.008-.01.01-.008.009-.01.01-.01.009-.008.009-.01.01-.01.009-.009.01-.01.009-.009.01-.01.009-.009.01-.01.009-.009.01-.01.01-.009.009-.01.01-.01.01-.009.009-.01.01-.01.01-.009.009-.01.01-.01.01-.01.01-.01.01-.01.01-.009.01-.01.009-.01.01-.01.01-.01.01-.01.01-.01.01-.01.01-.01.01-.01.01-.01.01-.01.01-.01.01-.01.01-.01.01-.01.011-.01.01-.011.01-.01.01-.01.011-.01.01-.011.01-.01.011-.01.01-.011.01-.01.011-.011.01-.01.011-.01.01-.011.011-.01.01-.011.011-.01.01-.011.011-.01.01-.011.011-.011.01-.01.011-.011.011-.01.01-.012.011-.01.011-.011.01-.01.012-.011.01-.011.011-.01.01-.012.012-.01.01-.011.011-.011.011-.011.011-.01.01-.012.012-.01.01-.011.012-.011.01-.011.012-.011.01-.011.011-.011.012-.011.01-.011.012-.011.01-.011.012-.011.01-.012.012-.01.011-.012.011-.01.011-.012.011-.011.012-.011.01-.011.012-.012.011-.011.011-.011.012-.011.01-.012.012-.01.011-.012.012-.011.011-.012.011-.011.012-.011.011-.012.011-.011.012-.012.011-.01.012-.012.01-.012.012-.011.012-.012.011-.011.012-.011.011-.012.012-.011.011-.012.012-.011.011-.012.012-.011.011-.012.012-.012.011-.011.012-.012.011-.011.012-.012.012-.011.011-.012.012-.012.012-.011.011-.012.012-.012.012-.011.011-.012.012-.012.012-.011.011-.012.012-.012.012-.012.012-.011.011-.012.012-.012.012-.012.012-.011.011-.012.012-.012.012-.012.012-.012H6.326l2.963 2.962a.75.75 0 010 1.06m5.955-.53.53.53a.75.75 0 11-1.06-1.061zM8.757 7.757l-.53-.53a.75.75 0 011.06 1.06z" clip-rule="evenodd"/></svg>