<svg xmlns="http://www.w3.org/2000/svg" width="16" height="16" viewBox="0 0 16 16"><path fill="currentColor" fill-rule="evenodd" d="M6.171 11.535a.5.5 0 01-.707 0L2.282 8.353 1.93 8l.353-.354.01-.009.009-.01.009-.008.009-.01.009-.009.009-.009.01-.009.008-.009.01-.01.009-.008.009-.01.009-.008.009-.01.01-.009.008-.009.01-.009.009-.01.009-.008.009-.01.009-.009.01-.009.008-.009.01-.009.009-.01.009-.008.009-.01.009-.009.01-.009.008-.009.01-.009.008-.01.01-.008.009-.01.009-.009.009-.009.01-.009.008-.009.01-.01.009-.008.009-.01.009-.008.009-.01.009-.009.01-.009.008-.009.01-.009.009-.01.009-.008.009-.01.009-.008.009-.01.01-.009.008-.009.01-.009.008-.009.01-.01.009-.008.009-.01.009-.008.009-.01.009-.008.009-.01.009-.009.01-.009.008-.009.01-.009.008-.009.01-.009.008-.009.01-.01L2.928 7l.01-.01.009-.008.009-.01.009-.008.009-.01.009-.008.009-.01.009-.008.009-.01.009-.008.009-.01.009-.008.009-.01.009-.008.009-.01.009-.008.009-.01.009-.008.009-.01.008-.008.01-.01.008-.008.01-.009.008-.009.01-.009.008-.009.009-.009.009-.009.009-.008.009-.01.009-.008.009-.01.008-.008.01-.009.008-.009.009-.009.009-.008.009-.01.009-.008.008-.009.01-.009.008-.009.009-.008.009-.01.008-.008.01-.009.008-.009.009-.008.009-.01.008-.008.01-.009.008-.008.009-.01.008-.008.009-.009.009-.008.008-.009.01-.009.008-.008.008-.01.01-.008.008-.008.008-.01.01-.008.008-.008.008-.009.009-.009.009-.008.008-.009.009-.008.008-.01.009-.008.009-.008.008-.009.009-.008.008-.009.009-.008.008-.009.009-.008.008-.009.009-.008.008-.009.009-.008.008-.009.009-.008.008-.009.008-.008.009-.009.008-.008.009-.008.008-.009.008-.008.009-.008.008-.009.009-.008.008-.008.008-.009.009-.008.008-.008.008-.009.008-.008.009-.008.008-.009.008-.008.008-.008.009-.008.008-.008.008-.009.008-.008.008-.008.009-.008.008-.008.008-.008.008-.009.008-.008.008-.008.008-.008.008-.008.008-.008.008-.008.008-.008.008-.008.008-.008.008-.008.008-.008.008-.008.008-.008.008-.008.008-.008.008-.008.008-.008.008-.008.008-.007.008-.008.007-.008.008-.008.008-.008.008-.008.008-.007.007-.008.008-.008.008-.008.008-.007.007-.008.008-.008.008-.007.007-.008.008-.008.008-.007.007-.008.008-.008.008-.007.007-.008.008-.007.007-.008.008-.007.007-.008.008-.007.007-.008.008-.007.007-.008.008-.007.007-.008.008-.007.007-.008.007-.007.008-.007.007-.008.007-.007.008-.007.007-.008.007-.007.007-.007.008-.007.007-.008.007-.007.007-.007.007-.007.008-.007.007-.007.007-.008.007-.007.007-.007.007-.007.007-.007.007-.007.007-.007.007-.007.007-.007.007-.007.007-.007.007-.007.007-.007.007-.006.007-.007.007-.007.006-.007.007-.007.007-.007.007-.006.007-.007.006-.007.007-.007.007-.006.006-.007.007-.007.007-.006.006-.007.007-.007.006-.006.007-.007.007-.006.006-.007.007-.006.006-.007.007-.006.006-.007.006-.006.007-.006.006-.007.007-.006.006-.007.006-.006.007-.006.006-.006.006-.007.006-.006.007-.006.006-.006.006-.007.006-.006.006-.006.006-.006.006-.006.006-.006.006-.006.006-.006.006-.006.006-.006.006-.006.006-.006.006-.006.006-.006.006-.006.006-.006.006-.005.006-.006.005-.006.006-.006.006-.005.006-.006.005-.006.006-.005.005-.006.006-.006.006-.005.005-.006.006-.005.005-.006L4.929 5l.005-.006.006-.005.005-.006.006-.005.005-.006.005-.005.006-.005.005-.006.005-.005.006-.005.005-.005.005-.006.005-.005.005-.005.006-.005.005-.005.005-.005.005-.005.005-.006.005-.005.005-.005.005-.004.005-.005.005-.005.005-.005.004-.005.005-.005.005-.005.005-.005.005-.004.004-.005.005-.005.005-.004.005-.005.004-.005.005-.004.004-.005.005-.005.004-.004.005-.005.004-.004.005-.004.004-.005.005-.004.004-.005.004-.004.005-.004.004-.005.004-.004.005-.004.004-.004.004-.005.004-.004.004-.004.004-.004.004-.004.004-.004.004-.004.004-.004.004-.004.004-.004.004-.004.004-.004.004-.004.004-.003.004-.004.003-.004.004-.004.004-.003.003-.004.004-.004.004-.003.003-.004.004-.003.003-.004.004-.003.003-.004.004-.003.003-.004.004-.003.003-.004.003-.003.004-.003.003-.003.003-.004.003-.003.003-.003.004-.003.003-.003.003-.003.003-.003.003-.003.003-.003.003-.003.003-.003.003-.003.003-.003.002-.003.003-.003.003-.003.003-.002.002-.003.003-.003.003-.002.002-.003.003-.003.003-.002.002-.003.003-.002.002-.003.002-.002.003-.002.002-.003.003-.002.002-.002.002-.003.002-.002.003-.002.002-.002.002-.003.002-.002.002-.002.002-.002.002-.002.002-.002.002-.002.002-.002.002-.002.002-.001.002-.002.001-.002.002-.002.002-.001.001-.002.002-.002.002-.001.001-.002.002-.002.001-.001.002-.001.001-.002.002-.001.001-.002.001-.001.002-.001.001-.002h.001l.001-.002.002-.001v-.001l.002-.001V4.48h.002v-.002h.002v-.001l.002-.001v-.001l.001-.001h.001V4.47h.002v-.002h.002v-.001h.001v-.001h.001v-.001h.001v-.001h.001l.354.353.353.353v.002h-.001v.001h-.001v.001h-.001l-.001.002h-.001l-.001.002-.002.001-.001.002H6.16l-.001.002h-.001l-.001.002h-.001l-.001.002h-.001l-.001.002-.001.001-.002.001v.001l-.002.002-.001.001-.002.001-.001.002-.002.001-.001.002-.002.001-.001.002-.002.001-.001.002-.002.001-.001.002-.002.002-.002.001-.002.002-.001.002-.002.002-.002.002-.002.001-.002.002-.002.002-.002.002-.002.002-.002.002-.002.002-.002.003-.002.002-.002.002-.003.002-.002.002-.002.003-.002.002-.003.002-.002.003-.002.002-.003.002-.002.003-.003.002-.002.003-.003.003-.003.002-.002.003-.003.002-.002.003-.003.003-.003.003-.003.002-.003.003-.002.003-.003.003-.003.003-.003.003-.003.003-.003.003-.003.003-.003.003-.003.003-.003.003-.003.003-.004.003-.003.003-.003.004-.003.003L6 5.34l-.003.004-.003.003-.004.003-.003.004-.004.003-.003.004-.004.003-.003.004-.004.003-.003.004-.004.003-.003.004-.004.004-.004.003-.004.004-.003.004-.004.004-.004.004-.004.003-.004.004-.004.004-.004.004-.003.004-.004.004-.004.004-.005.004-.004.004-.004.004-.004.004-.004.005-.004.004-.004.004-.005.004-.004.004-.004.005-.005.004-.004.004-.004.005-.005.004-.004.005-.004.004-.005.005-.004.004-.005.005-.005.004-.004.005-.005.004-.004.005-.005.005-.005.004-.004.005-.005.005-.005.005-.005.004-.005.005-.004.005-.005.005-.005.005-.005.005-.005.005-.005.005-.005.005-.005.005-.005.005-.005.005-.005.005-.005.005-.005.005-.006.005-.005.005-.005.006-.005.005-.006.005-.005.005-.005.006-.005.005-.006.005-.005.006-.006.005-.005.006-.006.005-.005.006-.006.005-.005.006-.006.005-.005.006-.006.005-.005.006-.006.006-.006.005-.005.006-.006.006-.006.005-.006.006-.005.006-.006.006-.006.006-.006.005-.006.006-.006.006-.006.006-.005.006-.006.006-.006.006-.006.006-.006.006-.006.006-.007.006-.006.006-.006.006-.006.006-.006.007-.006.006-.006.006-.007.006-.006.006-.006.007-.006.006-.007.006-.006.007-.006.006-.007.006-.006.007-.006.006-.007.006-.006.007-.007.006-.006.007-.007.006-.006.007L5.34 6l-.006.007-.007.007-.007.006-.006.007-.007.006-.007.007-.006.007-.007.006-.007.007-.006.007-.007.007-.007.006-.007.007-.006.007-.007.007-.007.007-.007.007-.007.006-.007.007-.007.007-.007.007-.007.007-.007.007-.007.007-.007.007-.007.007-.007.007-.007.007-.007.007-.007.008-.007.007-.007.007-.007.007-.008.007-.007.007-.007.008-.007.007-.007.007-.008.007-.007.008-.007.007-.008.007-.007.007-.007.008-.008.007-.007.008-.007.007-.008.007-.007.008-.008.007-.007.008-.008.007-.007.008-.008.007-.007.008-.008.007-.007.008-.008.007-.007.008-.008.007-.007.008-.008.008-.008.007-.007.008-.008.008-.008.007-.007.008-.008.008-.008.007-.008.008-.007.008-.008.008-.008.008-.008.007-.008.008-.007.008-.008.008-.008.008-.008.008-.008.007-.008.008-.008.008-.008.008-.008.008-.008.008-.007.008-.008.008-.008.008-.008.008-.008.008-.009.008-.008.008-.008.008-.008.008-.008.008-.008.008-.008.009-.008.008-.008.008-.008.008-.009.008-.008.008-.008.008-.008.009-.008.008-.009.008-.008.008-.008.009-.008.008-.009.008-.008.008-.008.009-.008.008-.009.008-.008.009-.008.008-.009.008-.008.009-.008.008-.009.008-.008.009-.009.008-.008.009-.008.008-.009.008-.008.009-.009.008-.008.009-.009.008-.008.009L4.34 7l-.008.009-.009.008-.008.009-.009.008-.008.009-.009.008-.008.009-.009.008-.008.01-.01.008-.008.008-.008.009-.009.008-.008.01-.01.008-.008.008-.008.009-.01.009-.008.008-.008.009-.01.009-.008.008-.008.01-.01.008-.008.008-.009.01-.008.008-.01.009-.008.008-.009.01-.008.008-.01.009-.008.008-.009.01-.008.008-.01.009-.008.009-.009.008-.009.01-.009.008-.008.009-.01.009-.008.009-.009.008-.009.01-.009.008-.009.01-.008.008-.01.009-.008.009-.01.009-.008.009-.009.008-.009.01-.009.008-.009.01-.009.008h8.314L9.828 5.172a.5.5 0 11.707-.707l3.182 3.182.354.354-.354.353-.009.01-.009.008-.01.01-.008.009-.01.009-.008.009-.01.01-.009.008-.009.01-.009.009-.01.009-.008.009-.01.009-.009.01-.009.008-.009.01-.009.008-.01.01-.008.009-.01.009-.009.01-.009.008-.009.01-.009.008-.01.01-.008.009-.01.009-.009.009-.009.01-.009.008-.009.01-.01.009-.008.009-.01.009-.008.009-.01.01-.009.008-.009.01-.009.008-.01.01-.008.009-.01.009-.008.009-.01.01-.009.008-.009.01-.009.008-.01.01-.008.009-.01.009-.008.009-.01.009-.009.01-.009.008-.009.01-.009.008-.009.01-.01.009-.008.009-.01.009-.008.009-.01.009-.008.009-.01.009-.009.01-.009.008-.009.01-.009.008-.009.01-.009.008-.009.01-.009.008-.009.01-.009.009-.01.009-.008.009-.01.009-.008.009-.01.009-.008.009-.01.009-.008.009-.01.009-.008.009-.01.009-.008.009-.01.009-.008.009-.009.009-.009.008-.009.01-.009.008-.009.01-.009.008-.009.01-.009.008-.009.01-.008.008-.01.009-.008.009-.01.009-.008.009-.009.008-.009.01-.009.008-.009.01-.008.008-.01.009-.008.009-.009.008-.009.01-.009.008-.008.009-.01.009-.008.009-.009.008-.009.01-.008.008-.01.009-.008.008-.009.01-.008.008-.01.009-.008.008-.009.01-.008.008-.01.009-.008.008-.009.01-.008.008-.009.008-.009.01-.008.008-.009.008-.009.01-.008.008-.009.008-.008.009-.01.009-.008.008-.008.009-.009.008-.008.009-.009.009-.009.008-.008.009-.009.008-.008.009-.009.008-.008.009-.009.008-.008.009-.009.008-.008.009-.009.008-.008.009-.008.008-.009.008-.008.009-.009.008-.008.009-.008.008-.009.008-.008.009-.009.008-.008.008-.008.009-.009.008-.008.008-.008.009-.008.008-.009.008-.008.009-.008.008-.009.008-.008.008-.008.009-.008.008-.008.008-.009.008-.008.008-.008.008-.008.009-.008.008-.008.008-.008.008-.009.008-.008.008-.008.008-.008.008-.008.008-.008.008-.008.008-.008.008-.008.008-.008.008-.008.008-.008.008-.008.008-.008.008-.008.008-.008.008-.007.008-.008.008-.008.008-.008.007-.008.008-.008.008-.007.008-.008.008-.008.007-.008.008-.007.008-.008.008-.008.007-.008.008-.007.008-.008.007-.008.008-.007.008-.008.007-.008.008-.007.008-.008.007-.007.008-.008.007-.007.008-.008.007-.007.008-.008.007-.007.008-.008.007-.007.008-.008.007-.007.008-.007.007-.008.007-.007.008-.008.007-.007.007-.007.008-.007.007-.008.007-.007.007-.007.008-.007.007-.008.007-.007.007-.007.008-.007.007-.007.007-.007.007-.008.007-.007.007-.007.007-.007.007-.007.007-.007.007-.007.007-.007.007-.007.007-.007.007-.007.007-.006.007-.007.007-.007.007-.007.006-.007.007-.007.007-.007.007-.006.007-.007.007-.007.006-.006.007-.007.007-.007.006-.006.007-.007.007-.007.006-.006.007-.007.006-.006.007-.007.006-.007.007-.006.007-.007.006-.006.007-.006.006-.007.006-.006.007-.007.006-.006.007-.006.006-.007.006-.006.007-.006.006-.006.006-.007.006-.006.006-.006.007-.006.006-.006.006-.007.006-.006.006-.006.006-.006.006-.006.006-.006.006-.006.006-.006.006-.006.006-.006.006-.006.006-.006.006-.005.006-.006.006-.006.006-.006.005-.006.006-.005.006-.006.006-.006.005-.006.006-.005.006-.006.005-.006.006-.005.006-.006.005-.005.006-.006.005-.005.006-.006.005-.005.006-.006.005-.005.006-.005.005-.006.005-.005.006-.005.005-.006.005-.005.006-.005.005-.005.005-.006.005-.005.005-.005.006-.005.005-.005.005-.005.005-.005.005-.005.005-.005.005-.005.005-.005.005-.005.005-.005.005-.005.004-.005.005-.005.005-.004.005-.005.005-.005.004-.005.005-.004.005-.005.005-.005.004-.004.005-.005.004-.004.005-.005.004-.004.005-.005.004-.004.005-.005.004-.004.005-.005.004-.004.004-.004.005-.004.004-.005.004-.004.005-.004.004-.004.004-.005.004-.004.004-.004.004-.004.004-.004.004-.004.004-.004.004-.004.004-.004.004-.004.004-.003.004-.004.004-.004.004-.004.004-.004.003-.003.004-.004.004-.004.003-.004.004-.003.004-.004.003-.003.004-.004.003-.003.004-.004.003-.003.004-.004.003-.003.003-.003.004-.004.003-.003.003-.003.004-.004.003-.003.003-.003.003-.003.003-.003.004-.003.003-.003.003-.003.003-.003.003-.003.003-.003.003-.003.003-.003.002-.003.003-.003.003-.002.003-.003.003-.003.002-.002.003-.003.003-.003.002-.002.003-.003.002-.002.003-.003.002-.003.003-.002.002-.002.003-.003.002-.002.003-.002.002-.003.002-.002.002-.002.002-.002.003-.002.002-.002.002-.003.002-.002.002-.002.002-.002.002-.002.002-.002.002-.001.002-.002.002-.002.002-.002.001-.002.002-.001.002-.002.001-.002.002-.001.002-.002.001-.001.002-.002.001-.001.002-.002.001-.001.002-.002.001v.001l-.002.002-.002.001v.001l-.002.001-.001.002h-.001l-.001.002h-.001l-.001.002h-.001l-.001.002h-.001l-.001.002h-.001v.001l-.002.001-.001.002h-.001l-.001.002h-.001v.001h-.001v.001h-.001v.001h-.001v.001l-.354-.353-.354-.354h.001v-.001h.001v-.001l.001-.001.001-.001.002-.001v-.002h.002v-.001h.001v-.002h.002v-.001l.002-.001v-.001l.002-.001v-.001l.002-.001v-.001l.002-.002h.001l.001-.002.001-.001.002-.001.001-.002.001-.001.002-.001.001-.002.002-.001.001-.002.002-.001.001-.002.002-.001.001-.002.002-.002.002-.001.001-.002.002-.002.002-.002.002-.001.002-.002.001-.002.002-.002.002-.002.002-.002.002-.002.002-.002.002-.002.003-.002.002-.002.002-.003.002-.002.002-.002.003-.002.002-.003.002-.002.003-.002.002-.003.002-.002.003-.003.002-.002.003-.003.002-.002.003-.003.003-.002.002-.003.003-.003.003-.002.002-.003.003-.003.003-.003.003-.003.003-.003.003-.002.003-.003.003-.003.003-.003.003-.003.003-.003.003-.003.003-.004.003-.003.003-.003.003-.003.004-.003.003-.004.003-.003.004-.003.003-.004.003-.003.004-.003.003-.004.004-.003.003-.004.004-.003.003-.004.004-.004.003-.003.004-.004.004-.003.003-.004.004-.004.004-.004.004-.003.004-.004.003-.004.004-.004.004-.004.004-.004.004-.004.004-.004.004-.004.004-.004.004-.004.004-.004.004-.004.005-.004.004-.004.004-.005.004-.004.004-.004.005-.004.004-.005.004-.004.005-.005.004-.004.005-.004.004-.005.005-.004.004-.005.005-.004.004-.005.005-.004.004-.005.005-.005.005-.004.004-.005.005-.005.005-.005.005-.004.004-.005.005-.005.005-.005.005-.005.005-.004.005-.005.005-.005.005-.005.005-.005.005-.005.005-.005.005-.005.005-.005.005-.006.005-.005.005-.005.005-.005.006-.005.005-.006.005-.005.005-.005.006-.005.005-.006.005-.005.006-.005.005-.006.006-.005.005-.006.006-.005.005-.006.006-.005.005-.006.006-.005.005-.006.006-.006.006-.005.005-.006.006-.006.006-.005.005-.006.006-.006.006-.006.006-.005.006-.006.005-.006.006-.006.006-.006.006-.006.006-.006.006-.006.006-.006.006-.006.006-.006.006-.006.006-.006.006-.006.006-.006.006-.006.007-.006.006-.006.006-.007.006-.006.006-.006.007-.006.006-.007.006-.006.007-.006.006-.007.006-.006.007-.006.006-.007.006-.006.007-.007.006-.006.007-.006.006-.007.007-.007.006-.006.007-.007.007-.006.006-.007.007-.006.006-.007.007-.007.007-.006.006-.007.007-.007.007-.007.007-.006.006-.007.007-.007.007-.007.007-.007.007-.006.007-.007.007-.007.006-.007.007-.007.007-.007.007-.007.007-.007.007-.007.007-.007.007-.007.007-.007.007-.007.007-.007.008-.007.007-.007.007-.008.007-.007.007-.007.007-.007.008-.007.007-.007.007-.008.007-.007.007-.007.008-.008.007-.007.007-.007.008-.007.007-.008.008-.007.007-.008.007-.007.008-.007.007-.008.008-.007.007-.008.008-.007.007-.008.008-.007.007-.008.008-.007.007-.008.008-.008.007-.007.008-.008.008-.007.007-.008.008-.008.008-.007.007-.008.008-.008.008-.007.007-.008.008-.008.008-.008.008-.007.008-.008.007-.008.008-.008.008-.008.008-.008.008-.007.008-.008.007-.008.008-.008.008-.008.008-.008.008-.008.008-.008.008-.008.008-.008.008-.008.008-.008.008-.008.008-.008.008-.008.008-.008.008-.008.008-.008.008-.008.008-.008.009-.008.008-.009.008-.008.008-.008.008-.008.008-.008.009-.008.008-.009.008-.008.008-.008.009-.008.008-.009.008-.008.008-.008.009-.008.008-.009.008-.008.009-.008.008-.009.008-.008.009-.008.008-.009.008-.008.009-.008.008-.009.008-.008.009-.009.008-.008.009-.009.008-.008.009-.008.008-.009.009-.008.008-.009.009-.008.008-.009.009-.008.008-.009.009-.008.008-.009.009-.009.008-.008.009-.009.009-.008.008-.009.009-.009.008-.008.01-.009.008-.008.008-.009.009-.009.009-.008.008-.009.009-.009.009-.008.008-.009.009-.009.009-.008.008-.01.01-.008.008-.009.009-.008.008-.01.01-.008.008-.009.009-.008.008-.01.01-.008.008-.009.009-.009.009-.008.008-.01.01-.008.008-.009.009-.009.009-.008.009-.01.008-.008.01-.009.008-.009.01-.009.008-.009.009-.009.009-.008.009-.01.008-.008.01-.01.008-.008.01-.009.008-.009.01-.009H3.843l2.328 2.328a.5.5 0 010 .707m4.01-.353.354.353a.5.5 0 11-.707-.707zM5.819 4.818l-.354-.354a.5.5 0 11.707.707z" clip-rule="evenodd"/></svg>