<svg xmlns="http://www.w3.org/2000/svg" width="32" height="32" viewBox="0 0 32 32"><path fill="currentColor" fill-rule="evenodd" d="M13.344 23.07a1 1 0 01-1.414 0l-6.364-6.364L4.858 16l.708-.707.018-.018.018-.018.018-.018.019-.019.018-.018.018-.018.018-.019.019-.018.018-.018.018-.018.018-.019.019-.018.018-.018.018-.018.019-.019.018-.018.018-.018.018-.019.019-.018.018-.018.018-.018.018-.019.019-.018.018-.018.018-.019.019-.018.018-.018.018-.018.018-.019.019-.018.018-.018.018-.019.018-.018.019-.018.018-.018.018-.019.019-.018.018-.018.018-.018.018-.019.019-.018.018-.018.018-.018.018-.019.019-.018.018-.018.018-.018.018-.018.018-.019.019-.018.018-.018.018-.018.018-.019.018-.018.019-.018.018-.018.018-.018.018-.019.018-.018.019-.018.018-.018.018-.018.018-.018.018-.018.018-.019.018-.018.019-.018.018-.018.018-.018.018-.018.018-.018.018-.018.018-.018.018-.018.018-.019.018-.018.018-.018.018-.018.018-.018.018-.018.018-.018.018-.018.018-.018.018-.018.018-.018.018-.018.018-.018.018-.018.018-.017.018-.018.018-.018.018-.018.018-.018.018-.018.017-.018.018-.018.018-.018.018-.017.018-.018.018-.018.017-.018.018-.018.018-.017.018-.018.017-.018.018-.018.018-.017.018-.018.017-.018.018-.017.018-.018.017-.018.018-.017.018-.018.017-.018.018-.017.017-.018.018-.017.018-.018.017-.017.018-.018.017-.017.018-.018.017-.017.018-.018.017-.017.017-.018.018-.017.017-.018.018-.017.017-.017.017-.018.018-.017.017-.017.017-.018.018-.017.017-.017.017-.017.017-.018.017-.017.018-.017.017-.017.017-.017.017-.017.017-.018.017-.017.017-.017.017-.017.017-.017.018-.017.017-.017.016-.017.017-.017.017-.017.017-.017.017-.016.017-.017.017-.017.017-.017.017-.017.016-.017.017-.017.017-.016.017-.017.016-.017.017-.016.017-.017.016-.017.017-.016.017-.017.016-.016.017-.017.016-.017.017-.016.016-.016.017-.017.016-.016.017-.017.016-.016.016-.017.017-.016.016-.016.016-.016.017-.017.016-.016.016-.016.016-.016.016-.017.017-.016.016-.016.016-.016.016-.016.016-.016.016-.016.016-.016.016-.016.016-.016.016-.016.016-.016.015-.016.016-.015.016-.016.016-.016.016-.016.015-.015.016-.016.016-.016.015-.016.016-.015.015-.016.016-.015.015-.016.016-.015.015-.016.016-.015.015-.015.016-.016.015-.015.015-.016.016-.015.015-.015.015-.015.015-.016.015-.015.016-.015.015-.015.015-.015.015-.015.015-.015.015-.015.015-.015.015-.015.014-.015.015-.014.015-.015.015-.015.015-.015.014-.015.015-.014.015-.015.014-.014.015-.015.014-.015.015-.014.014-.015.015-.014.014-.015.015-.014.014-.014.014-.015.015-.014.014-.014.014-.014.014-.014.014-.015.014-.014.014-.014.015-.014.014-.014.013-.014.014-.014.014-.014.014-.013.014-.014.014-.014.013-.014.014-.013.014-.014.013-.014.014-.013.014-.014.013-.013.014-.014.013-.013.013-.014.014-.013.013-.013.013-.014.014-.013.013-.013.013-.013.013-.013.013-.013.013-.014.013-.012.013-.014.013-.012.013-.013.013-.013.013-.013.012-.013.013-.012.013-.013.012-.013.013-.012.013-.013.012-.012.013-.013.012-.012.012-.013.013-.012.012-.012.012-.013.012-.012.013-.012.012-.012.012-.012.012-.012.012-.012.012-.012.012-.012.012-.012.011-.012.012-.012.012-.011.012-.012.011-.012.012-.011.012-.012.011-.011.011-.012.012-.011.011-.012.012-.011.011-.011.011-.011.011-.012.011-.01.012-.012.01-.011.012-.011.01-.01.012-.012.01-.01.011-.012.011-.01.01-.011.011-.01.011-.011.01-.01.011-.011.01-.01.011-.011.01-.01.01-.011.011-.01.01-.01.01-.01.01-.01.01-.011.01-.01.01-.01.01-.01.01-.01.01-.01.01-.01.01-.01.01-.009.01-.01.009-.01.01-.009.009-.01.01-.009.009-.009.009-.01.01-.009.009-.009.009-.009.009-.01.009-.008.009-.01.009-.008.009-.009.008-.009.01-.009.008-.008.009-.01.008-.008.009-.008.008-.009.009-.008.008-.009.009-.008.008-.008.008-.009.008-.008.009-.008.008-.008.008-.008.008-.008.008-.008.008-.008.007-.008.008-.007.008-.008.007-.008.008-.007.007-.008.008-.007.007-.008.008-.007.007-.007.007-.008.008-.007.007-.007.007-.007.007-.007.007-.007.007-.007.006-.007.007-.006.007-.007.006-.007.007-.006.007-.007.006-.006.007-.007.006-.006.006-.006.006-.007.006-.006.007-.006.006-.006.006-.006.006-.006.006-.006.005-.006.006-.005.006-.006.005-.006.006-.005.005-.006.006-.005.005-.005.005-.006.006-.005.005-.005.005-.005.005-.005.005-.005.005-.005.005-.005.005-.005.004-.005.005-.004.005-.005.004-.005.005-.004.004-.004.005-.005.004-.004.004-.004.004-.004.004-.005.004-.004.004-.004.004-.003.004-.004.004-.004.003-.004.004-.003.004-.004.003-.003.004-.004.003-.003.003-.004.004-.003.003-.003.003-.003.003-.003.003-.003.003-.003.002-.003.003-.002.003-.003.002-.003.003-.002.002-.003.003-.002.002-.002.003-.003.002-.002.002-.002.002-.002.002-.002.002-.002.002-.002.001-.002.002-.001.002-.002.001-.002.002-.001.001-.002h.002V8.94l.002-.001.001-.001.001-.002h.001l.001-.001.001-.001v-.001h.002V8.93l.001-.001v-.001h.001l.708.706.707.707v.001h-.001l-.001.001-.001.002h-.001l-.002.002-.002.002-.002.002v.001l-.002.001-.002.002-.001.001-.002.002-.001.001-.002.002-.001.002-.002.001-.002.002-.002.002-.002.002-.002.002-.002.002-.002.002-.003.003-.002.002-.002.002-.003.003-.002.002-.003.003-.003.003-.002.003-.003.002-.003.003-.003.003-.003.003-.003.003-.003.003-.004.004-.003.003-.003.003-.004.004-.003.003-.004.004-.003.004-.004.003-.004.004-.004.004-.003.004-.005.004-.004.004-.004.004-.004.004-.004.004-.004.004-.005.005-.004.004-.005.005-.004.004-.005.005-.004.005-.005.004-.005.005-.005.005-.005.005-.005.005-.005.005-.005.005-.005.005-.005.005-.006.006-.005.005-.005.006-.006.005-.005.006-.006.005-.006.006-.005.006-.006.005-.006.006-.006.006-.006.006-.006.006-.006.006-.006.007-.007.006-.006.006-.006.006-.007.007-.006.006-.007.007-.006.006-.007.007-.007.007-.007.007-.006.006-.007.007-.007.007-.007.007-.007.007-.007.008-.008.007-.007.007-.007.007-.007.008-.008.007-.007.007-.008.008-.007.008-.008.007-.008.008-.007.008-.008.007-.008.008-.008.008-.008.008-.008.008-.008.008-.008.008-.008.009-.009.008-.008.008-.008.008-.009.009-.008.008-.009.009-.008.008-.009.01-.009.008-.008.009-.01.008-.008.01-.009.008-.009.01-.009.008-.009.01-.01.008-.008.01-.01.009-.009.009-.01.01-.008.009-.01.01-.01.009-.009.01-.01.009-.01.01-.009.009-.01.01-.01.01-.01.01-.01.01-.009.01-.01.01-.01.01-.01.01-.01.01-.01.01-.01.01-.011.01-.01.01-.01.01-.011.011-.01.01-.011.011-.01.01-.011.011-.011.011-.01.01-.011.012-.011.01-.011.011-.011.011-.011.011-.011.011-.011.011-.011.011-.011.011-.012.012-.01.011-.012.011-.011.012-.012.011-.011.011-.012.012-.011.011-.012.012-.011.011-.012.012-.012.012-.011.012-.012.011-.012.012-.012.012-.012.012-.012.012-.012.012-.012.012-.012.012-.012.012-.012.012-.012.013-.013.012-.012.012-.012.013-.013.012-.012.012-.013.013-.012.012-.013.013-.012.012-.013.013-.013.013-.012.012-.013.013-.013.013-.013.013-.013.013-.013.013-.013.013-.013.013-.013.013-.013.013-.013.013-.013.013-.013.013-.013.014-.014.013-.013.013-.013.014-.014.013-.013.013-.014.014-.013.013-.014.014-.013.014-.014.013-.014.014-.013.013-.014.014-.014.014-.014.014-.013.014-.014.014-.014.013-.014.014-.014.014-.014.014-.014.014-.014.015-.015.014-.014.014-.014.014-.014.014-.014.015-.015.014-.014.014-.014.015-.015.014-.014.014-.015.015-.014.014-.015.015-.014.015-.015.014-.015.015-.015.015-.014.014-.015.015-.015.015-.014.015-.015.014-.015.015-.015.015-.015.015-.015.015-.015.015-.015.015-.015.015-.015.015-.015.016-.016.015-.015.015-.015.015-.015.015-.015.016-.016.015-.015.015-.016.016-.015.015-.015.015-.016.016-.015.015-.016.016-.015.016-.016.015-.016.016-.015.015-.016.016-.016.016-.015.015-.016.016-.016.016-.016.016-.015.016-.016.015-.016.016-.016.016-.016.016-.016.016-.016.016-.016.016-.016.016-.016.016-.016.016-.016.016-.016.017-.017.016-.016.016-.016.016-.016.016-.017.017-.016.016-.016.016-.016.017-.017.016-.016.016-.017.017-.016.016-.017.017-.016.016-.017.017-.016.016-.017.017-.016.016-.017.017-.016.017-.017.016-.017.017-.016.017-.017.016-.017.017-.017.017-.016.017-.017.016-.017.017-.017.017-.017.017-.017.017-.016.017-.017.016-.017.018-.017.016-.017.017-.017.017-.017.017-.017.018-.017.016-.017.018-.018.017-.017.017-.017.017-.017.017-.017.017-.017.018-.018.017-.017.017-.017.017-.017.017-.018.018-.017.017-.017.017-.017.018-.018.017-.017.017-.018.018-.017.017-.017.018-.018.017-.017.017-.018.018-.017.017-.018.018-.017.017-.018.018-.017.017-.018.018-.017.018-.018.017-.018.018-.017.017-.018.018-.017.018-.018.017-.018.018-.017.018-.018.017-.018.018-.018.018-.017.017-.018.018-.018.018-.018.018-.017.018-.018.017-.018.018-.018.018-.018.018-.017.018-.018.017-.018.018-.001.001h14.627l-4.657-4.657a1 1 0 011.415-1.414l6.364 6.364.707.707-.707.707-.019.019-.018.018-.018.018-.018.018-.019.019-.018.018-.018.018-.018.018-.019.019-.018.018-.018.018-.019.019-.018.018-.018.018-.018.018-.019.019-.018.018-.018.018-.019.018-.018.019-.018.018-.018.018-.019.019-.018.018-.018.018-.018.018-.019.019-.018.018-.018.018-.019.019-.018.018-.018.018-.018.018-.019.019-.018.018-.018.018-.018.018-.019.019-.018.018-.018.018-.018.018-.019.019-.018.018-.018.018-.019.018-.018.019-.018.018-.018.018-.018.018-.019.019-.018.018-.018.018-.018.018-.018.018-.019.019-.018.018-.018.018-.018.018-.018.018-.019.018-.018.019-.018.018-.018.018-.018.018-.018.018-.018.018-.018.018-.019.019-.018.018-.018.018-.018.018-.018.018-.018.018-.018.018-.018.018-.018.018-.018.018-.018.018-.018.018-.018.018-.018.018-.018.018-.018.018-.018.018-.018.018-.018.018-.018.018-.018.018-.018.018-.018.018-.018.018-.018.018-.018.018-.018.018-.017.017-.018.018-.018.018-.018.018-.018.018-.018.018-.017.017-.018.018-.018.018-.018.018-.017.017-.018.018-.018.018-.018.018-.017.017-.018.018-.018.018-.017.017-.018.018-.018.018-.017.017-.018.018-.017.017-.018.018-.017.017-.018.018-.017.017-.018.018-.017.017-.018.018-.017.017-.018.018-.017.017-.018.018-.017.017-.017.017-.018.018-.017.017-.018.018-.017.017-.017.017-.017.017-.018.018-.017.017-.017.017-.017.017-.018.018-.017.017-.017.017-.017.017-.017.017-.017.017-.017.017-.017.017-.017.017-.017.017-.017.017-.017.017-.017.017-.017.017-.017.017-.017.017-.017.017-.017.017-.017.017-.017.017-.016.016-.017.017-.017.017-.017.017-.016.016-.017.017-.017.017-.016.016-.017.017-.016.017-.017.016-.017.017-.016.016-.017.017-.016.016-.017.017-.016.016-.017.017-.016.016-.016.016-.017.017-.016.016-.016.016-.017.016-.016.017-.016.016-.016.016-.016.016-.016.016-.017.017-.016.016-.016.016-.016.016-.016.016-.016.016-.016.016-.016.016-.016.016-.015.015-.016.016-.016.016-.016.016-.016.016-.015.015-.016.016-.016.016-.015.015-.016.016-.016.016-.015.015-.016.016-.015.015-.016.016-.015.015-.016.016-.015.015-.015.015-.016.016-.015.015-.015.015-.016.016-.015.015-.015.015-.015.015-.015.015-.016.015-.015.016-.015.015-.015.015-.015.015-.015.015-.015.015-.014.014-.015.015-.015.015-.015.015-.014.014-.015.015-.015.015-.015.015-.014.014-.015.015-.014.014-.015.015-.014.014-.015.015-.014.014-.015.015-.014.014-.014.014-.014.014-.015.015-.014.014-.014.014-.014.014-.014.014-.014.014-.014.014-.014.014-.014.014-.014.014-.014.014-.014.014-.014.014-.014.014-.013.013-.014.014-.014.014-.013.013-.014.014-.014.014-.013.013-.013.014-.014.013-.013.013-.014.014-.013.013-.013.013-.014.014-.013.013-.013.013-.013.013-.013.013-.013.013-.013.013-.013.013-.013.013-.013.013-.013.013-.013.012-.012.013-.013.013-.013.013-.012.012-.013.013-.013.012-.012.013-.012.012-.013.013-.012.012-.013.013-.012.012-.012.012-.013.012-.012.013-.012.012-.012.012-.012.012-.012.012-.012.012-.012.012-.012.012-.011.012-.012.011-.012.012-.012.012-.011.011-.012.012-.011.011-.012.012-.011.012-.012.01-.011.012-.012.012-.01.01-.012.012-.011.011-.011.011-.012.012-.01.01-.012.012-.01.01-.011.011-.011.011-.011.011-.011.011-.01.01-.011.011-.011.011-.01.01-.011.011-.01.01-.011.011-.01.01-.01.01-.011.011-.01.01-.01.01-.01.01-.01.01-.01.01-.01.01-.01.01-.01.01-.01.01-.01.01-.01.01-.01.01-.01.01-.009.009-.01.01-.009.009-.01.01-.009.009-.009.009-.01.01-.008.008-.01.01-.009.009-.009.009-.009.009-.009.009-.009.009-.009.008-.008.01-.009.008-.009.009-.008.008-.009.009-.008.008-.009.009-.008.008-.009.009-.008.008-.008.008-.009.008-.008.009-.008.008-.008.008-.008.008-.008.008-.008.007-.007.008-.008.008-.008.008-.007.007-.008.008-.008.008-.007.007-.007.007-.008.008-.007.007-.007.007-.007.007-.008.008-.007.007-.007.007-.007.006-.006.007-.007.007-.007.007-.007.007-.006.006-.007.007-.007.007-.006.006-.006.006-.007.007-.006.006-.006.006-.007.006-.006.007-.006.006-.006.006-.005.005-.006.006-.006.006-.006.006-.006.006-.005.005-.006.006-.005.005-.006.006-.005.005-.005.005-.006.006-.005.005-.005.005-.005.005-.005.005-.005.005-.005.005-.005.005-.004.004-.005.005-.005.005-.004.004-.005.005-.004.004-.005.005-.004.004-.004.004-.004.004-.004.004-.004.004-.004.004-.004.004-.004.004-.004.004-.003.003-.004.004-.004.004-.003.003-.004.003-.003.004-.003.003-.003.003-.004.003-.003.004-.003.003-.003.003-.003.002-.002.003-.003.003-.003.003-.002.002-.003.003-.002.002-.003.003-.002.002-.002.002-.003.003-.002.002-.002.002-.002.002-.002.002-.002.002-.001.001-.002.002-.002.002-.001.001-.002.002-.001.001-.002.002-.002.002-.001.001-.001.001-.001.001-.001.001-.002.002-.001.001-.001.001-.001.001-.707-.707-.708-.707h.001v-.001h.001v-.001h.001l.001-.002.002-.001v-.001l.002-.001v-.001l.002-.001.001-.001.001-.002.002-.001.001-.002.002-.001.001-.002.002-.001.002-.002.001-.002.002-.002.002-.001.002-.002.002-.003.002-.002.002-.002.003-.002.002-.002.002-.003.003-.002.002-.003.003-.003.003-.002.002-.003.003-.003.003-.003.003-.003.003-.003.003-.003.003-.003.004-.003.003-.003.003-.004.004-.003.003-.004.004-.003.003-.004.004-.004.004-.003.004-.004.004-.004.003-.004.005-.004.004-.004.004-.004.004-.005.004-.004.005-.004.004-.005.005-.004.004-.005.005-.004.004-.005.005-.005.005-.004.005-.005.005-.005.005-.005.005-.005.005-.005.005-.005.005-.006.006-.005.005-.006.006-.005.005-.005.005-.006.006-.006.006-.005.006-.006.005-.006.006-.006.006-.006.006-.006.006-.006.006-.006.006-.006.007-.006.006-.006.006-.007.007-.006.006-.007.007-.006.006-.007.007-.006.007-.007.006-.007.007-.007.007-.007.007-.007.007-.007.007-.007.007-.007.008-.007.007-.007.007-.007.007-.008.008-.007.007-.008.008-.007.007-.008.008-.008.008-.007.008-.008.007-.008.008-.008.008-.008.008-.008.008-.008.008-.008.008-.008.009-.008.008-.008.008-.009.008-.008.009-.008.008-.009.009-.008.008-.009.01-.008.008-.01.009-.008.008-.009.01-.009.008-.008.009-.01.009-.008.01-.01.008-.009.01-.009.009-.009.009-.01.01-.009.009-.009.009-.01.01-.009.009-.01.01-.009.01-.01.009-.01.01-.01.01-.009.01-.01.01-.01.01-.01.01-.01.01-.01.01-.01.01-.01.01-.01.01-.01.01-.01.01-.01.01-.011.011-.01.01-.011.011-.01.01-.011.011-.01.011-.012.01-.01.012-.011.01-.01.011-.012.011-.01.011-.012.011-.01.011-.012.011-.01.011-.012.012-.011.01-.011.012-.012.012-.01.01-.012.012-.012.012-.011.011-.012.012-.011.011-.012.012-.011.012-.012.011-.012.012-.012.012-.012.012-.012.012-.011.012-.012.012-.012.012-.012.012-.012.012-.013.012-.012.013-.012.012-.012.012-.013.012-.012.013-.012.012-.013.013-.012.012-.013.013-.012.012-.013.013-.012.013-.013.012-.013.013-.013.013-.012.013-.013.013-.013.013-.013.013-.013.013-.013.013-.013.013-.013.013-.013.013-.014.013-.013.014-.013.013-.013.013-.014.014-.013.013-.013.013-.014.014-.013.013-.014.014-.013.013-.014.014-.014.014-.013.013-.014.014-.014.014-.013.014-.014.014-.014.014-.014.013-.014.014-.014.014-.014.014-.014.014-.014.015-.014.014-.014.014-.014.014-.015.014-.014.015-.014.014-.014.014-.015.015-.014.014-.014.014-.015.015-.014.015-.015.014-.014.015-.015.014-.015.015-.014.014-.015.015-.015.015-.014.015-.015.015-.015.014-.015.015-.015.015-.015.015-.015.015-.015.015-.015.015-.015.015-.015.015-.015.016-.015.015-.015.015-.015.015-.015.015-.016.016-.015.015-.015.015-.016.016-.015.015-.015.015-.016.016-.015.015-.016.016-.015.016-.016.015-.015.016-.016.015-.016.016-.015.016-.016.015-.016.016-.015.016-.016.016-.016.016-.016.015-.016.016-.016.016-.016.016-.016.016-.015.016-.017.016-.015.016-.017.016-.016.016-.016.016-.016.016-.016.017-.016.016-.016.016-.017.016-.016.017-.016.016-.016.016-.017.017-.016.016-.016.016-.017.017-.016.016-.017.017-.016.016-.017.017-.016.016-.017.017-.016.016-.017.017-.016.017-.017.016-.017.017-.016.016-.017.017-.017.017-.016.017-.017.016-.017.017-.017.017-.017.017-.016.017-.017.017-.017.017-.017.017-.017.016-.017.017-.017.017-.017.017-.017.017-.017.017-.017.018-.017.017-.017.017-.017.017-.017.017-.017.017-.017.017-.018.017-.017.018-.017.017-.017.017-.018.017-.017.018-.017.017-.017.017-.018.018-.017.017-.017.017-.018.018-.017.017-.017.017-.018.018-.017.017-.018.018-.017.017-.018.018-.017.017-.018.018-.017.017-.018.018-.017.017-.018.018-.018.018-.017.017-.018.018-.017.018-.018.017-.018.018-.017.018-.018.017-.018.018-.017.018-.018.017-.018.018-.018.018-.017.018-.018.017-.018.018-.018.018-.017.018-.018.018-.018.017-.018.018-.018.018-.018h.001H8.687l4.657 4.656a1 1 0 010 1.414m6.02-.707.708.707a1 1 0 01-1.415-1.414zM12.638 9.635l-.707-.707a1 1 0 111.414 1.414z" clip-rule="evenodd"/></svg>