<svg xmlns="http://www.w3.org/2000/svg" width="12" height="12" viewBox="0 0 12 12"><path fill="currentColor" fill-rule="evenodd" d="M4.378 8.828a.5.5 0 01-.707 0L1.196 6.353.843 6l.353-.354.007-.007.008-.007.007-.007.007-.007.007-.007.007-.007.007-.008.007-.007.007-.007.007-.007.007-.007.008-.007.007-.007.007-.007.007-.007.007-.007.007-.008.007-.007.007-.007.007-.007.008-.007.007-.007.007-.007.007-.007.007-.007.007-.008.007-.007.007-.007.007-.007.008-.007.007-.007.007-.007.007-.007.007-.007.007-.008.007-.007.007-.007.007-.007.007-.007.008-.007.007-.007.007-.007.007-.007.007-.007.007-.007.007-.008.007-.007.007-.007.007-.007.007-.007.008-.007.007-.007.007-.007.007-.007.007-.007.007-.007.007-.007.007-.008.007-.007.007-.007.007-.007.007-.007.007-.007.007-.007.007-.007.008-.007.007-.007.007-.007.007-.007.007-.007.007-.007.007-.007.007-.007.007-.007.007-.007.007-.007.007-.007.007-.007.007-.007.007-.007.007-.007.007-.007.007-.007.007-.007.007-.007.007-.007.007-.007.007-.007.007-.007.007-.007.007-.007.007-.007.007-.007.007-.007.007-.007.006-.007.007-.007.007-.007.007-.007.007-.007.007-.007.007-.007.007-.006.007-.007.007-.007.007-.007.007-.007.006-.007.007-.007.007-.007.007-.007.007-.006.007-.007.007-.007.006-.007.007-.007.007-.007.007-.007.007-.006.007-.007.006-.007.007-.007.007-.007.007-.006.007-.007.006-.007.007-.007.007-.006.007-.007.007-.007.006-.007.007-.007.007-.006.006-.007.007-.007.007-.006.007-.007.006-.007.007-.007.007-.006.006-.007.007-.007.007-.006.006-.007.007-.007.007-.006.006-.007.007-.007.007-.006.006-.007.007-.006.006-.007.007-.007.007-.006.006-.007.007-.006.006-.007.007-.006.006-.007.007-.007.007-.006.006-.007.007-.006.006-.007.007-.006.006-.007.007-.006.006-.007.007-.006.006-.006.006-.007.007-.006.006-.007.007-.006.006-.007.007-.006.006-.006.006-.007.007-.006.006-.007.006-.006.007-.006.006-.007.006-.006.007-.006.006-.007.006-.006.007-.006.006-.006.006-.007.006-.006.007-.006.006-.006.006-.007.006-.006.007-.006.006-.006.006-.006.006-.007.006-.006.006-.006.007-.006.006-.006.006-.006.006-.006.006-.007.006-.006.006-.006.006-.006.006-.006.006-.006.006-.006.006-.006.006-.006.006-.006.006-.006.006-.006.006-.006.006-.006.006-.006.006-.006.006-.006.006-.006.006-.005.006-.006.006-.006.006-.006.005-.006.006-.006.006-.006.006-.005.006-.006.005-.006.006-.006.006-.005.006-.006.005-.006.006-.006.006-.005.006-.006.005-.006.006-.005.006-.006.005-.006.006-.005.006-.006.005-.006L2.844 4l.005-.006.006-.005.005-.006.006-.005.005-.006.006-.005.005-.006.006-.005.005-.006.006-.005.005-.006.006-.005.005-.006.006-.005.005-.005.005-.006.006-.005.005-.006.005-.005.006-.005.005-.005.005-.006.006-.005.005-.005.005-.006.005-.005.005-.005.006-.005L3 3.843l.005-.005.005-.006.005-.005.005-.005.005-.005.006-.005.005-.005.005-.005.005-.005.005-.005.005-.005.005-.005.005-.005.005-.005.005-.005.005-.005.005-.005.004-.005.005-.005.005-.005.005-.005.005-.004.005-.005.004-.005.005-.005.005-.005.005-.004.005-.005.004-.005.005-.004.005-.005.004-.005.005-.004.005-.005.004-.005.005-.004.004-.005.005-.004.004-.005.005-.005.005-.004.004-.005.004-.004.005-.004.004-.005.005-.004.004-.005.005-.004.004-.004.004-.005.005-.004.004-.004.004-.005.005-.004.004-.004.004-.005.004-.004.005-.004.004-.004.004-.004.004-.005.004-.004.004-.004.004-.004.004-.004.004-.004.005-.004.004-.004.004-.004.004-.004.003-.004.004-.004.004-.004.004-.004.004-.004.004-.003.004-.004.004-.004.003-.004.004-.004.004-.004.004-.003.004-.004.003-.004.004-.003.004-.004.003-.004.004-.003.003-.004.004-.004.004-.003.003-.004.004-.003.003-.004.004-.003.003-.004.004-.003.003-.003.003-.004.004-.003.003-.004.003-.003.004-.003.003-.004.003-.003.004-.003.003-.003.003-.004.003-.003.003-.003.004-.003.003-.003.003-.003.003-.003.003-.003.003-.003.003-.003.003-.003.003-.003.003-.003.003-.003.003-.003.003-.003.002-.003.003-.003.003-.003.003-.002.003-.003.002-.003.003-.003.003-.002.002-.003.003-.003.003-.002.002-.003.003-.002.003-.003.002-.003.003-.002.002-.003.003-.002.002-.002.002-.003.003-.002.002-.003.003-.002.002-.002.002-.003.002-.002.003-.002.002-.002.002-.003.002-.002.003-.002.002-.002.002-.002.002-.002.002-.002.002-.002.002-.002.002-.002.002-.002.002-.002.002-.002.002-.002.002-.002.001-.002.002-.002.002-.002.002-.001.002-.002.001-.002.002-.001.002-.002.001-.002.002-.001.001-.002.002-.002.002-.001.001-.002.002-.001.001-.002.001-.001.002-.001.001-.002.002-.001.001-.001.001-.002.002-.001V3.2l.002-.002h.001l.001-.002.002-.001v-.001l.002-.001v-.001l.002-.001V3.19l.002-.001v-.001l.002-.001v-.001l.002-.001.001-.002h.001v-.001l.002-.001.001-.002h.001v-.001l.001-.001h.001v-.001h.001v-.001h.001v-.001h.001v-.001h.001v-.001h.001l.354.353.353.353v.001h-.001v.001h-.001v.001l-.001.001-.001.001-.001.001h-.001v.001l-.001.001-.002.001v.001h-.001v.002h-.002v.001l-.001.001h-.001l-.001.002h-.001l-.001.002H4.36l-.001.002h-.001l-.001.002h-.001l-.001.002-.001.001-.002.001v.002H4.35l-.001.002-.002.001v.002l-.002.001-.002.001-.001.002-.001.001-.002.002-.001.001-.002.002-.001.001-.002.002-.001.001-.002.002-.002.001-.001.002-.002.002-.002.001-.001.002-.002.002-.002.002-.002.001-.001.002-.002.002-.002.002-.002.002-.002.002-.002.002-.002.002-.002.002-.002.002-.002.002-.002.002-.002.002-.002.002-.002.002-.003.002-.002.002-.002.003-.002.002-.002.002-.003.002-.002.003-.002.002-.003.002-.002.003-.002.002-.003.003-.002.002-.003.003-.002.002-.003.003-.002.002-.003.003-.003.002-.002.003-.003.002-.002.003-.003.003-.003.003-.003.002-.002.003-.003.003-.003.003-.003.002-.002.003-.003.003-.003.003-.003.003-.003.003-.003.003-.003.003-.003.003-.003.003-.003.003-.003.003-.003.003-.003.003-.003.003-.003.003-.004.003-.003.004-.003.003-.003.003-.004.003-.003.004-.003.003-.003.003-.004.003-.003.004-.004.003-.003.004-.003.003-.004.003-.003.004-.004.003-.003.004-.004.003-.003.004-.004.004-.003.003-.004.004-.004.003-.003.004-.004.004-.004.003-.003.004-.004.004-.004.004-.004.003-.003.004-.004.004-.004.004-.004.004-.004.003-.004.004-.004.004-.003.004-.004.004-.004.004-.004.004-.004.004-.004.004-.004.004-.004.004-.005.004L4 4.256l-.004.004-.004.005-.004.004-.004.004-.004.004-.005.004-.004.005-.004.004-.004.004-.005.004-.004.005-.004.004-.005.004-.004.005-.004.004-.005.004-.004.005-.004.004-.005.005-.004.004-.005.005-.004.004-.005.005-.004.004-.005.005-.005.004-.004.005-.005.004-.004.005-.005.005-.005.004-.004.005-.005.005-.005.004-.004.005-.005.005-.005.005-.005.004-.004.005-.005.005-.005.005-.005.005-.005.004-.005.005-.004.005-.005.005-.005.005-.005.005-.005.005-.005.005-.005.005-.005.005-.005.005-.005.005-.005.005-.005.005-.005.005-.005.005-.006.005-.005.005-.005.005-.005.006-.005.005-.005.005-.005.005-.006.005-.005.006-.005.005-.005.005-.006.005-.005.006-.005.005-.006.005-.005.006-.005.005-.006.005-.005.006-.005.005-.006.005-.005.006-.006.005-.005.006-.005.005-.006.006-.005.005-.006.006-.005.005-.006.006-.005.005-.006.006-.006.005-.005.006-.006.005-.005.006-.006.006-.006.005-.005.006-.006.006-.006.005-.005.006-.006.006-.006.005-.005.006-.006.006-.006.006-.006.005-.005.006-.006.006-.006.006-.006.006-.006.005-.005.006-.006.006-.006.006-.006.006-.006.006-.006.006-.006.005-.006.006-.006.006-.006.006-.006.006-.005.006-.006.006-.006.006-.006.006-.006.006-.006.006-.007.006-.006.006-.006.006-.006.006-.006.006-.006.007-.006.006-.006.006-.006.006-.006.006-.006.006-.007.006-.006.007L3.256 5l-.006.006-.006.006-.007.006-.006.006-.006.007-.006.006-.006.006-.007.006-.006.007-.006.006-.007.006-.006.007-.006.006-.006.006-.007.007-.006.006-.007.006-.006.007-.006.006-.007.006-.006.007-.006.006-.007.006-.006.007-.007.006-.006.007-.006.006-.007.007-.006.006-.007.007-.006.006-.007.007-.006.006-.007.007-.006.006-.007.007-.006.006-.007.007-.006.006L3 5.256l-.006.006-.007.007-.007.006-.006.007-.007.007-.006.006-.007.007-.007.006-.006.007-.007.007-.006.006-.007.007-.007.007-.006.006-.007.007-.007.006-.006.007-.007.007-.007.007-.007.006-.006.007-.007.007-.007.006-.006.007-.007.007-.007.007-.007.006-.006.007-.007.007-.007.007-.007.006-.006.007-.007.007-.007.007-.007.007-.007.006-.003.004h6.485l-1.62-1.622a.5.5 0 01.707-.707l2.475 2.475.353.354-.353.353-.007.007-.007.007-.007.008-.008.007-.007.007-.007.007-.007.007-.007.007-.007.007-.007.007-.007.007-.007.008-.007.007-.008.007-.007.007-.007.007-.007.007-.007.007-.007.007-.007.007-.007.008-.007.007-.008.007-.007.007-.007.007-.007.007-.007.007-.007.007-.007.007-.007.007-.007.008-.008.007-.007.007-.007.007-.007.007-.007.007-.007.007-.007.007-.007.007-.007.008-.007.007-.008.007-.007.007-.007.007-.007.007-.007.007-.007.007-.007.007-.007.007-.007.007-.007.007-.007.008-.007.007-.008.007-.007.007-.007.007-.007.007-.007.007-.007.007-.007.007-.007.007-.007.007-.007.007-.007.007-.007.007-.007.007-.007.008-.007.007-.007.007-.007.007-.008.007-.006.007-.007.007-.008.007-.007.007-.007.007-.007.007-.007.007-.007.007-.007.007-.007.007-.007.007-.007.007-.007.007-.007.007-.007.007-.007.007-.007.007-.006.007-.008.007-.007.007-.006.007-.007.007-.007.007-.007.006-.007.007-.007.007-.007.007-.007.007-.007.007-.007.007-.007.007-.007.007-.007.007-.007.007-.006.007-.007.007-.007.006-.007.007-.007.007-.007.007-.007.007-.006.007-.007.007-.007.006-.007.007-.007.007-.007.007-.007.007-.006.007-.007.006-.007.007-.007.007-.007.007-.006.007-.007.006-.007.007-.007.007-.007.007-.006.006-.007.007-.007.007-.007.007-.006.006-.007.007-.007.007-.006.007-.007.006-.007.007-.006.007-.007.006-.007.007-.007.007-.006.006-.007.007-.007.007-.006.006-.007.007-.006.007-.007.006-.007.007-.006.006-.007.007-.006.007-.007.006-.007.007-.006.006-.007.007-.006.006-.007.007-.006.007-.007.006-.006.007-.007.006-.006.007-.007.006-.006.007-.007.006-.006.006-.007.007-.006.006-.007.007-.006.006-.006.007-.007.006-.006.006-.007.007-.006.006-.006.007-.007.006-.006.006-.006.007-.007.006-.006.006-.006.007-.007.006-.006.006-.006.007-.007.006-.006.006-.006.006-.006.007-.007.006-.006.006-.006.006-.006.007-.006.006-.007.006-.006.006-.006.006-.006.006-.006.007-.006.006-.007.006-.006.006-.006.006-.006.006-.006.006-.006.006-.006.006-.006.006-.006.006-.006.006-.006.006-.006.006-.006.006-.006.006-.006.006-.006.006-.006.006-.006.006-.006.006-.006.006-.006.006-.006.006-.005.006-.006.006-.006.005-.006.006-.006.006-.006.006-.005.006-.006.005-.006.006-.006.006-.005.006-.006.005-.006.006-.006.006-.005.006-.006.005-.006.006-.005.006-.006.005-.006.006-.005.005-.006.006-.005.006-.006.005-.006.006-.005.005-.006.006-.005.005-.006.006-.005.005-.006.006-.005.005-.006.006-.005.005-.006.006-.005.005-.005.006-.006.005-.005.005-.005.006-.006.005-.005.005-.005.006-.006.005-.005.005-.005.005-.006.006-.005.005-.005.005-.005.005-.005.006-.006.005-.005.005-.005.005-.005.005-.005.005-.005.005-.005.006-.005.005-.005.005-.005.005-.006.005-.005.005-.005.005-.005.005-.004.005-.005.005-.005.005-.005.004-.005.005-.005.005-.005.005-.005.005-.005.005-.004.005-.005.004-.005.005-.005.005-.005.005-.004.004-.005.005-.005.005-.004.005-.005.004-.005.005-.004.005-.005.004-.005.005-.004.004-.005.005-.004.004-.005.005-.004.004-.005.005-.004.004-.005.005-.004.004-.005.005-.004.004-.004.005-.005.004-.004.004-.004.005-.005.004-.004.004-.004.005-.005.004-.004.004-.004.004-.004.004-.004.005-.005.004-.004.004-.004.004-.004.004-.004.004-.004.004-.004.004-.004.004-.004.005-.004.004-.004.003-.004.004-.004.004-.004.004-.004.004-.004.004-.004.004-.004.004-.003.004-.004.003-.004.004-.004.004-.004.004-.003.003-.004.004-.004.004-.003.004-.004.003-.004.004-.003.003-.004.004-.003.004-.004.003-.003.004-.004.003-.003.004-.004.003-.003.004-.004.003-.003.003-.004.004-.003.003-.003.003-.004.004-.003.003-.003.003-.003.004-.004.003-.003.003-.003.003-.003.003-.003.003-.003.004-.004.003-.003.003-.003.003-.003.003-.003.003-.003.003-.003.003-.003.003-.003.003-.002.003-.003.003-.003.002-.003.003-.003.003-.003.003-.002.003-.003.002-.003.003-.003.003-.002.002-.003.003-.003.003-.002.002-.003.003-.002.002-.003.003-.002.003-.003.002-.002.003-.003.002-.002.002-.003.003-.002.002-.002.003-.003.002-.002.002-.002.002-.002.003-.003.002-.002.002-.002.002-.002.002-.002.003-.003.002-.002.002-.002.002-.002.002-.002.002-.002.002-.002.002-.002.002-.002.002-.001.002-.002.002-.002.001-.002.002-.002.002-.002.002-.001.002-.002.001-.002.002-.001.002-.002.001-.002.002-.001.001-.002.002-.001.002-.002.001-.001.002-.002.001-.001.001-.002.002-.001.001-.001.002H8.36l-.001.002-.001.002h-.002v.002l-.002.001-.001.001-.001.002H8.35l-.002.002-.002.002-.002.002-.002.002-.001.002H8.34l-.001.001v.001h-.002v.002h-.001v.001h-.001l-.001.001-.001.001v.001h-.001v.001h-.001l-.001.001v.002h-.001v.001l-.355-.353-.353-.354.001-.001.001-.001.001-.001.001-.001.001-.001.001-.001.001-.001.001-.001.002-.002.001-.001.002-.002.001-.001.001-.001.001-.001.001-.001.001-.001.001-.001.001-.001.001-.001.001-.001.002-.002.002-.002.001-.001.001-.001.002-.002.002-.002.002-.002.002-.002.002-.002.001-.001.002-.002.001-.001.002-.002.001-.001.002-.002.001-.001.002-.002.002-.002.001-.001.002-.002.002-.002.001-.001.002-.002.002-.002.002-.002.002-.002.001-.001.002-.002.002-.002.002-.002.002-.002.002-.002.002-.002.002-.002.002-.002.002-.002.002-.002.003-.003.002-.002.002-.002.002-.002.002-.002.003-.003.002-.002.002-.002.003-.003.002-.002.002-.002.003-.003.002-.002L7.741 8h.002l.003-.003.002-.002.003-.003.002-.002.003-.003.002-.002.003-.003.003-.003.002-.002.003-.003.003-.003.003-.002.002-.003.003-.003.003-.003.003-.003.003-.003.002-.002.003-.003.003-.003.003-.003.003-.003.003-.003.003-.003.003-.003.003-.003.003-.003.003-.003.004-.004.003-.003.003-.003.003-.003.003-.003.004-.004.003-.003.003-.003.003-.003.004-.004.003-.003.003-.003.004-.004.003-.003.004-.004.003-.003.003-.003.004-.004.003-.003.004-.004.004-.004.003-.003.004-.004.003-.003.004-.004.004-.004.003-.003.004-.004.004-.004.003-.003.004-.004.004-.004.004-.004.003-.003.004-.004.004-.004.004-.004.004-.004.004-.004.004-.004.004-.004.004-.004.004-.004.004-.004.004-.004.004-.004.004-.004.004-.004.004-.004.004-.004.004-.004.004-.004.004-.004.005-.005.004-.004.004-.004.004-.004.005-.005.004-.004.004-.004.004-.004.005-.005.004-.004.005-.005.004-.004.004-.004.005-.005.004-.004.005-.005.004-.004.005-.005.004-.004.005-.005.004-.004.005-.005.004-.004.005-.005.005-.005.004-.004.005-.005.005-.005.004-.004.005-.005.005-.005.004-.004.005-.005.005-.005.005-.005.004-.004.005-.005.005-.005.005-.005.005-.005.005-.005.005-.005.005-.005.004-.004.005-.005.005-.005.005-.005.005-.005.005-.005.005-.005.005-.005.006-.005.005-.006.005-.005.005-.005.005-.005.005-.005.005-.005.005-.005.006-.006.005-.005.005-.005.005-.005.005-.005.006-.006.005-.005.005-.005.005-.005.006-.006.005-.005.005-.005.006-.006.005-.005.006-.006.005-.005.005-.005.006-.006.005-.005.006-.006.005-.005.006-.006.005-.005.006-.006.005-.005.006-.006.005-.005.006-.006.005-.005.006-.006.006-.006.005-.005.006-.006.006-.006.005-.005.006-.006.006-.006.005-.005.006-.006.006-.006.005-.005.006-.006.006-.006.006-.006.005-.005.006-.006.006-.006.006-.006.006-.006.006-.006.005-.005.006-.006.006-.006.006-.006.006-.006.006-.006.006-.006.006-.006.006-.006.006-.006.006-.006.006-.006.006-.006.006-.006.006-.006.006-.006.006-.006.006-.006.006-.006.006-.006.006-.006.006-.006.006-.006.006-.006.007-.007.006-.006.006-.006.006-.006L8.743 7l.006-.006.007-.007.006-.006.006-.006.006-.006.006-.006.007-.007.006-.006.006-.006.007-.007.006-.006.006-.006.006-.006.007-.007.006-.006.006-.006.007-.007.006-.006.006-.006.007-.007.006-.006.007-.007.006-.006.006-.006.007-.007.006-.006.007-.007.006-.006.007-.007.006-.006.007-.007.006-.006.007-.007.006-.006.007-.007.006-.006.007-.007.006-.006.007-.007.006-.006.007-.007.006-.006.007-.007.006-.006.007-.007.007-.007.006-.006.007-.007.006-.006.007-.007.007-.007.006-.006.007-.007.007-.007.006-.006.007-.007.007-.007.006-.006.007-.007.007-.007.006-.006.007-.007.007-.007.007-.007.006-.006.007-.007.007-.007.007-.007.006-.006.007-.007.007-.007.007-.007.006-.006.007-.007.007-.007.007-.007.003-.003H2.757L4.378 8.12a.5.5 0 010 .707m3.597-.353.353.353a.5.5 0 01-.707-.707zm-3.95-4.95L3.67 3.17a.5.5 0 01.707.707z" clip-rule="evenodd"/></svg>