<svg xmlns="http://www.w3.org/2000/svg" width="12" height="12" viewBox="0 0 12 12"><g fill="none"><g clip-path="url(#svgID0)"><path fill="currentColor" fill-rule="evenodd" d="M1 5.028V1h4.028a.5.5 0 01.353.146l5.562 5.562a.5.5 0 010 .707l-3.528 3.528a.5.5 0 01-.707 0L1.146 5.38A.5.5 0 011 5.028m-.56 1.06A1.5 1.5 0 010 5.028V1a1 1 0 011-1h4.028a1.5 1.5 0 011.06.44L11.65 6a1.5 1.5 0 010 2.122L8.122 11.65a1.5 1.5 0 01-2.121 0zm3.503-2.643a.498.498 0 11-.996 0 .498.498 0 01.996 0m1 0a1.498 1.498 0 11-2.996 0 1.498 1.498 0 012.996 0" clip-rule="evenodd"/></g><defs><clipPath id="svgID0"><path fill="#fff" d="M0 0h12v12H0z"/></clipPath></defs></g></svg>