<svg xmlns="http://www.w3.org/2000/svg" width="20" height="20" viewBox="0 0 20 20"><path fill="currentColor" fill-rule="evenodd" d="m17.275 12.764-4.51 4.51a1 1 0 01-1.415 0L3.793 9.718A1 1 0 013.5 9.01V3.5h5.51a1 1 0 01.707.293l7.558 7.557a1 1 0 010 1.414M2.732 10.778A2.5 2.5 0 012 9.01V3.5A1.5 1.5 0 013.5 2h5.51a2.5 2.5 0 011.768.732l7.557 7.557a2.5 2.5 0 010 3.536l-4.51 4.51a2.5 2.5 0 01-3.536 0zM7.54 6.907a.633.633 0 11-1.267 0 .633.633 0 011.267 0m1.5 0a2.133 2.133 0 11-4.267 0 2.133 2.133 0 014.267 0" clip-rule="evenodd"/></svg>