<svg xmlns="http://www.w3.org/2000/svg" width="16" height="16" viewBox="0 0 16 16"><path fill="currentColor" fill-rule="evenodd" d="m13.653 10.36-3.293 3.293a1 1 0 01-1.415 0L3.293 8.001A1 1 0 013 7.294V3h4.294A1 1 0 018 3.293l5.652 5.652a1 1 0 010 1.415M2.586 8.708A2 2 0 012 7.294V3a1 1 0 011-1h4.294a2 2 0 011.414.586l5.652 5.652a2 2 0 010 2.829l-3.293 3.293a2 2 0 01-2.829 0zm3.77-2.975a.623.623 0 11-1.246 0 .623.623 0 011.247 0m1 0a1.623 1.623 0 11-3.246 0 1.623 1.623 0 013.247 0" clip-rule="evenodd"/></svg>