<svg xmlns="http://www.w3.org/2000/svg" width="24" height="24" viewBox="0 0 24 24"><path fill="currentColor" fill-rule="evenodd" d="M4.5 10.79V4.5h6.29a1.5 1.5 0 011.06.44l8.29 8.29a1.5 1.5 0 010 2.121l-4.789 4.79a1.5 1.5 0 01-2.121 0l-8.29-8.29a1.5 1.5 0 01-.44-1.061m-.621 2.121A3 3 0 013 10.79V4.5A1.5 1.5 0 014.5 3h6.29a3 3 0 012.121.879l8.29 8.29a3 3 0 010 4.243l-4.79 4.79a3 3 0 01-4.242 0zm5.524-4.403a.895.895 0 11-1.79 0 .895.895 0 011.79 0m1.5 0a2.395 2.395 0 11-4.79 0 2.395 2.395 0 014.79 0" clip-rule="evenodd"/></svg>