<svg xmlns="http://www.w3.org/2000/svg" width="20" height="20" viewBox="0 0 20 20"><path fill="currentColor" fill-rule="evenodd" d="M8.9 2.5h2.2a1 1 0 011 1V5H7.9V3.5a1 1 0 011-1M6.4 5V3.5A2.5 2.5 0 018.9 1h2.2a2.5 2.5 0 012.5 2.5V5h2.9A2.5 2.5 0 0119 7.5v8a2.5 2.5 0 01-2.5 2.5h-13A2.5 2.5 0 011 15.5v-8A2.5 2.5 0 013.5 5zm.1 1.5v3.7a1.5 1.5 0 010 2.6v3.7h7v-3.7a1.5 1.5 0 010-2.6V6.5zm8.5 6.3a1.5 1.5 0 000-2.6V6.5h1.5a1 1 0 011 1v8a1 1 0 01-1 1H15zM5 6.5v3.7a1.5 1.5 0 000 2.6v3.7H3.5a1 1 0 01-1-1v-8a1 1 0 011-1z" clip-rule="evenodd"/></svg>