<svg xmlns="http://www.w3.org/2000/svg" width="24" height="24" viewBox="0 0 24 24"><path fill="currentColor" fill-rule="evenodd" d="M11 4.5h2A1.5 1.5 0 0114.5 6v1h-5V6A1.5 1.5 0 0111 4.5M8 7V6a3 3 0 013-3h2a3 3 0 013 3v1h3a3 3 0 013 3v8a3 3 0 01-3 3H5a3 3 0 01-3-3v-8a3 3 0 013-3zm8 1.5H8v4.2a1.5 1.5 0 010 2.6v4.2h8v-4.2a1.5 1.5 0 010-2.6zm1.5 6.8a1.5 1.5 0 000-2.6V8.5H19a1.5 1.5 0 011.5 1.5v8a1.5 1.5 0 01-1.5 1.5h-1.5zm-11-6.8v4.2a1.5 1.5 0 000 2.6v4.2H5A1.5 1.5 0 013.5 18v-8A1.5 1.5 0 015 8.5z" clip-rule="evenodd"/></svg>