<svg xmlns="http://www.w3.org/2000/svg" width="12" height="12" viewBox="0 0 12 12"><path fill="currentColor" fill-rule="evenodd" d="M5.5 1h1a.5.5 0 01.5.5V3H5V1.5a.5.5 0 01.5-.5M4 3V1.5A1.5 1.5 0 015.5 0h1A1.5 1.5 0 018 1.5V3h2.5A1.5 1.5 0 0112 4.5v5a1.5 1.5 0 01-1.5 1.5h-9A1.5 1.5 0 010 9.5v-5A1.5 1.5 0 011.5 3zm4 1H4v2.134a1 1 0 010 1.732V10h4V7.866a1 1 0 010-1.732zm1 3.866a1 1 0 000-1.732V4h1.5a.5.5 0 01.5.5v5a.5.5 0 01-.5.5H9zM3 4v2.134a1 1 0 000 1.732V10H1.5a.5.5 0 01-.5-.5v-5a.5.5 0 01.5-.5z" clip-rule="evenodd"/></svg>