<svg xmlns="http://www.w3.org/2000/svg" width="12" height="12" viewBox="0 0 12 12"><g fill="none"><g clip-path="url(#svgID0)"><path fill="currentColor" fill-rule="evenodd" d="M10.88 6.556C10.069 7.89 8.483 9.75 6.039 9.75S2.008 7.89 1.196 6.556a1.06 1.06 0 010-1.112C2.007 4.11 3.593 2.25 6.038 2.25s4.03 1.86 4.843 3.194c.21.347.21.765 0 1.112m-10.54.52a2.06 2.06 0 010-2.152c.854-1.401 2.7-3.674 5.698-3.674s4.843 2.273 5.697 3.674a2.06 2.06 0 010 2.152c-.854 1.401-2.7 3.674-5.697 3.674-2.998 0-4.844-2.273-5.698-3.674m5.268.506a1.64 1.64 0 01-1.18-2.007.496.496 0 00-.353-.61.504.504 0 00-.614.354c-.384 1.412.467 2.854 1.885 3.228s2.885-.454 3.268-1.866c.384-1.412-.467-2.854-1.884-3.228a2.7 2.7 0 00-1.38 0 .498.498 0 10.252.965 1.7 1.7 0 01.865 0 1.64 1.64 0 011.18 2.007 1.666 1.666 0 01-2.04 1.157" clip-rule="evenodd"/></g><defs><clipPath id="svgID0"><path fill="#fff" d="M0 0h12v12H0z"/></clipPath></defs></g></svg>