<svg xmlns="http://www.w3.org/2000/svg" width="20" height="20" viewBox="0 0 20 20"><path fill="currentColor" fill-rule="evenodd" d="M17.432 10.472c-1.06 1.937-3.484 5.257-7.407 5.257s-6.348-3.32-7.407-5.257a.73.73 0 010-.715C3.677 7.82 6.1 4.5 10.025 4.5s6.348 3.32 7.407 5.257a.73.73 0 010 .715m-16.13.719a2.23 2.23 0 010-2.153C2.387 7.049 5.193 3 10.024 3s7.636 4.05 8.723 6.038a2.23 2.23 0 010 2.153c-1.087 1.989-3.893 6.038-8.723 6.038S2.388 13.179 1.3 11.19m8.088 1.291A2.45 2.45 0 017.657 9.48a.75.75 0 10-1.449-.388 3.952 3.952 0 102.794-2.795.75.75 0 00.389 1.449 2.451 2.451 0 110 4.737" clip-rule="evenodd"/></svg>