<svg xmlns="http://www.w3.org/2000/svg" width="24" height="24" viewBox="0 0 24 24"><path fill="currentColor" fill-rule="evenodd" d="M20.35 12.367c-1.13 2.107-3.857 5.972-8.35 5.972s-7.22-3.865-8.35-5.972a.76.76 0 010-.735C4.78 9.525 7.507 5.66 12 5.66s7.22 3.865 8.35 5.972a.76.76 0 010 .735m-18.022.71a2.26 2.26 0 010-2.154C3.481 8.774 6.587 4.16 12 4.16s8.519 4.614 9.672 6.763a2.26 2.26 0 010 2.154c-1.153 2.148-4.259 6.762-9.672 6.762s-8.519-4.614-9.672-6.762m8.953 1.606a2.78 2.78 0 01-1.964-3.402.75.75 0 00-1.449-.389 4.278 4.278 0 103.024-3.025.75.75 0 10.39 1.449 2.778 2.778 0 110 5.367" clip-rule="evenodd"/></svg>