<svg xmlns="http://www.w3.org/2000/svg" width="16" height="16" viewBox="0 0 16 16"><path fill="currentColor" fill-rule="evenodd" d="M4.11 6.596a.5.5 0 010-.707l3.536-3.535L8 2l.354.354.011.011.012.012.012.012.012.012.012.012.012.012.012.012.012.012.011.011.012.012.012.012.012.012.012.012.011.011.012.012.012.012.012.012.011.011.012.012.012.012.011.011.012.012.012.012.011.011.012.012.011.011.012.012.012.012.011.011.012.012.011.011.012.012.011.011.012.012.011.011.012.012.011.011.012.012.011.011.011.011.012.012.011.011.012.012.01.01.012.012.012.012.01.01.012.012.011.011.012.012.011.011.011.011.011.011.012.012.01.01.012.012.011.011.011.011.011.011.012.012.01.01.012.012.01.01.012.012.011.011.011.011.011.011.011.011.011.011.011.011.01.01.012.012.01.01.012.012.01.01.011.011.011.011.011.011.011.011.01.01.012.012.01.01.011.011.01.01.012.012.01.01.011.011.01.01.011.011.011.011.01.01.011.011.011.011.01.01.011.011.01.01.011.011.01.01.011.011.01.01.011.011.01.01.011.011.01.01.011.011.01.01.01.01.011.011.01.01.01.01.011.011.01.01.01.01.011.011.01.01.01.01.01.01.01.01.011.011.01.01.01.01.01.01.01.01.01.01.01.01.01.01.01.01.01.01.01.01.01.01.01.01.01.01.01.01.01.01.01.01.01.01.01.01.01.01.01.01.01.01.01.01.01.01.009.009.01.01.01.01.009.009.01.01.01.01.009.009.01.01.01.01L10 4l.01.01.009.009.01.01.009.009.01.01.009.009.01.01.009.009.009.009.01.01.009.009.01.01.008.008.01.01.009.009.01.01.008.009.01.009.009.009.01.01.008.008.01.01.009.009.009.009.009.009.009.009.009.009.009.009.009.009.009.009.009.009.009.009.009.009.009.009.009.009.008.008.01.01.008.008.009.009.009.009.008.009.01.008.008.009.009.009.008.008.01.01.008.008.008.008.009.009.008.009.01.008.008.009.008.008.009.009.008.008.009.009.008.008.008.008.009.009.008.008.008.009.009.008.008.008.008.008.009.009.008.008.008.008.008.008.009.009.008.008.008.008.008.008.008.008.008.008.008.008.008.008.008.008.008.008.008.008.008.008.008.008.008.008.008.008.008.008.007.007.008.008.008.008.008.008.007.007.008.008.008.008.007.008.008.007.008.008.007.007.008.008.008.007.007.008.008.008.007.007.007.007.008.008.007.007.008.008.007.007.007.007.008.008.007.007.007.007.008.008.007.007.007.007.007.007.007.007.007.007.008.007.007.008.007.007.007.007L11 5l.007.007.007.007.007.007.006.006.007.007.007.007.007.007.007.007.007.007.007.006.006.007.007.007.007.007.006.006.007.007.007.007.006.006.007.007.006.006.007.007.006.006.007.007.006.006.007.007.006.006.006.006.007.007.006.006.006.006.007.007.006.006.006.006.006.006.006.006.007.007.006.006.006.006.006.006.006.006.006.006.006.006.006.006.006.006.006.006.006.006.006.006.005.005.006.006.006.006.006.006.005.005.006.006.006.006.005.005.006.006.006.006.005.005.006.006.005.005.006.006.005.005.006.006.005.005.005.006.006.005.005.005.005.006.006.005.005.005.005.005.005.006.006.005.005.005.005.005.005.005.005.005.005.005.005.005.005.005.005.005.005.005.005.005.005.005.005.005.004.004.005.005.005.005.005.005.004.004.005.005.005.005.004.004.005.005.005.005.004.004.005.005.004.004.005.005.004.004.004.004.005.005.004.004.004.004.005.005.004.004.004.004.004.004.005.005.004.004.004.004.004.004.004.004.004.004.004.004.004.004.004.004.004.004.004.004.003.003.004.004.004.004.004.004.004.004.003.003.004.004.004.004.003.003.004.004.003.003.004.004.003.003.004.004.003.003.004.004.003.003.003.004.004.003.003.003.003.003.004.004.003.003.003.003.003.003.003.003.003.003.003.003.003.003.003.003.003.003.003.003.003.003.003.003.003.003.003.003.003.002.002.003.003.003.003.003.002.002.003.003.003.002.002.003.003.003.002.002.003.003.002.002.002.002.003.003.002.002.002.002.003.003.002.002.002.002.002.002.002.003.003.002.002.002.002.002.002.002.002.002.002.002.002.002.002.002.001.002.002.001.002.002.002.002.002.002.001.001.002.002.002.002.001.001.002.002.002.001.001.002.002.001v.002l.002.001.002.002.001.001.001.001.002.002h.001l.001.002.001.001.002.002.002.002.002.002.002.002.002.002.001.001.001.001.002.002.002.002.001.001.001.001.001.001.001.001.001.001-.353.354-.354.353h-.001v-.001h-.001v-.001l-.001-.001-.001-.001-.002-.001V6.59l-.002-.001v-.001h-.001v-.002h-.002v-.001l-.001-.001-.001-.001-.001-.001-.001-.001-.001-.001-.001-.001-.001-.001-.002-.001v-.002h-.002l-.001-.002-.001-.001-.002-.001-.001-.002-.001-.001-.002-.002-.001-.001-.002-.001-.001-.002-.002-.001-.001-.002-.002-.002-.001-.001-.002-.002-.002-.002-.001-.001-.002-.002-.002-.002-.002-.002-.002-.001-.002-.002-.001-.002-.002-.002-.002-.002-.002-.002-.002-.002-.002-.002-.002-.002-.003-.002-.002-.003-.002-.002-.002-.002-.002-.002-.003-.002-.002-.003-.002-.002-.003-.002-.002-.003-.002-.002-.003-.003-.002-.002-.003-.003-.003-.002-.002-.003-.003-.003-.003-.002-.002-.003-.003-.003-.003-.002-.002-.003-.003-.003-.003-.003-.003-.003-.003-.003-.003-.003-.003-.002-.003-.003-.003-.004-.003-.003-.003-.003-.003-.003-.003-.003-.003-.003-.004-.003-.003-.004-.003-.003-.003-.003-.004-.003-.003-.004-.003-.003-.004-.004-.003-.003-.004-.003-.003-.004-.004-.003-.003-.004-.004-.004-.004-.003-.003-.004-.004-.004-.003-.003-.004-.004-.004-.004-.004-.004-.004-.003-.003-.004-.004-.004-.004-.004-.004-.004-.004-.004-.004-.004-.004-.004-.004-.004-.004-.004-.004-.004-.005-.004-.004-.005-.004-.004-.004-.004-.004-.004-.005-.005-.004-.004-.004-.004-.005-.005-.004-.004-.005-.004-.004-.005-.005-.004-.004-.005-.005-.004-.004-.005-.005-.005-.004-.004-.005-.005-.005-.004-.004-.005-.005-.005-.005-.005-.005-.004-.005-.005-.004-.005-.005-.005-.005-.005-.005-.005-.005-.005-.005-.005-.005-.005-.005-.005-.005-.005-.005-.005-.005-.005-.005-.005-.006-.005-.005-.006-.005-.005-.005-.005-.006-.005-.005-.006-.005-.005-.006-.005-.005-.006-.005-.005-.006-.006-.005-.005-.006-.006-.005-.005-.006-.006-.005-.005-.006-.006-.006-.005-.005-.006-.006-.006-.006-.005-.005-.006-.006-.006-.006-.006-.006-.006-.006-.005-.005-.006-.006-.006-.006-.006-.006-.006-.006-.006-.006-.006-.006-.006-.006-.006-.006-.006-.006-.006-.006-.006-.007-.006-.006-.007-.006-.006-.006-.006-.006-.006-.007-.007-.006-.006-.006-.006-.007-.006-.006-.007-.007-.006-.006-.007-.006-.006-.007-.007-.006-.006-.007-.007-.006-.006-.007-.007-.007-.006-.006-.007-.007-.007-.006-.006-.007-.007-.007-.007-.007-.006-.006-.007-.007-.007-.007-.007-.007-.007-.007-.007-.007-.006-.007-.007-.007-.007-.006-.007-.007-.007-.007-.007-.008-.007-.007-.007-.007-.007-.007-.008-.007-.007-.007-.007-.007-.007-.007-.007-.008-.007-.007-.008-.007-.007-.007-.007-.008-.008-.007-.007-.007-.007-.008-.008-.007-.007-.008-.007-.007-.008-.008-.007-.007-.008-.008-.007-.007-.008-.008-.008-.007-.007-.008-.008-.008-.007-.007-.008-.008-.008-.008-.007-.007-.008-.008-.008-.008-.008-.008-.008-.008-.007-.007-.008-.008-.008-.008-.008-.008-.008-.008-.008-.008-.008-.008-.008-.008-.008-.008-.008-.008-.008-.008-.008-.008-.008-.008-.008-.008-.008-.009-.008-.008-.009-.008-.008-.008-.008-.008-.008-.009-.008-.008-.009-.008-.008-.009-.008-.008-.009-.008-.008-.009-.008-.008-.009-.009-.008-.008-.009-.008-.008-.009-.009-.008-.008-.009-.009-.009-.008-.008-.009-.009-.009-.008-.008-.009-.009-.009-.008-.008-.01-.01-.008-.008-.009-.009-.008-.008-.01-.01-.008-.008-.009-.009-.009-.009-.008-.008-.01-.01-.008-.008-.01-.01-.008-.008-.009-.01-.009-.008-.009-.01-.009-.008-.009-.01-.009-.008-.01-.01-.008-.008-.01-.01-.008-.009-.01-.009-.009-.01-.009-.008-.01-.01-.008-.009-.01-.01-.009-.008-.01-.01-.008-.009-.01-.01-.01-.009-.009-.01-.009-.009-.01-.009-.009-.01-.01-.009-.009-.01-.01-.009-.009-.01-.01-.009-.009-.01-.01-.009-.009-.01-.01-.01-.009-.009-.01-.01-.01-.01-.009-.009-.01-.01-.01-.01-.01-.009-.009-.01-.01-.01-.01-.01-.01-.01-.009-.009-.01-.01-.01-.01-.01-.01-.01-.01-.01-.01-.01-.01-.01-.01-.01-.01-.01-.01-.01-.01-.01-.01-.01-.01-.01-.01-.01-.01-.01-.01-.01-.01-.01-.01-.01-.01-.01-.01-.01-.01-.01-.01-.01-.01-.01-.011-.01-.01-.011-.01-.01-.011-.01-.01-.011-.01-.01-.01-.01-.011-.011-.01-.01-.011-.01-.01-.011-.01-.01-.011-.011-.01-.01-.011-.011-.01-.01-.011-.011-.01-.01-.011-.011-.01-.01-.012-.011-.01-.01-.01-.011-.011-.011-.011-.01-.01-.011-.011-.011-.011-.01-.01-.011-.011-.011-.011-.011-.01-.01-.012-.011-.01-.011-.011-.011-.011-.01-.01-.012-.012-.01-.01-.011-.012-.011-.003-.004v7.584a.5.5 0 11-1 0V3.914L4.818 6.596a.5.5 0 01-.707 0m7.426-.353.353-.354a.5.5 0 01-.707.707zM2.5 12.998a.5.5 0 000 1h11a.5.5 0 100-1z" clip-rule="evenodd"/></svg>