<svg xmlns="http://www.w3.org/2000/svg" width="24" height="24" viewBox="0 0 24 24"><path fill="currentColor" fill-rule="evenodd" d="M5.46 9.54a.75.75 0 101.06 1.06l4.73-4.73v11.38a.75.75 0 001.5 0V5.87l.009.01.019.018.018.019.02.018.018.02.018.018.019.018.019.019.018.018.019.019.018.018.019.019.018.018.019.019.018.018.018.019.018.018.019.018.018.018.018.019.019.018.018.018.018.018.018.018.018.019.018.018.018.018.018.018.018.018.018.018.018.018.018.018.018.018.018.017.018.018.018.018.018.018.017.018.018.017.018.018.017.018.018.017.018.018.017.018.018.017.017.018.018.017.017.018.018.017.017.017.018.018.017.017.017.017.017.018.018.017.017.017.017.017.017.018.017.017.018.017.017.017.017.017.017.017.017.017.017.017.017.017.017.017.016.017.017.017.017.016.017.017.017.017.016.017.017.016.017.017.016.017.017.016.016.017.017.016.016.017.017.016.016.017.017.016.016.016.017.017.016.016.016.016.016.017.016.016.017.016.016.016.016.016.016.016.016.016.016.016.016.016.016.016.016.016.016.016.016.016.015.016.016.016.016.015.016.016.016.016.015.016.016.015.015.016.016.015.015.016.016.015.015.016.016.015.015.016.016.015.015.015.015.016.015.015.016.015.015.015.015.015.015.015.015.016.015.015.015.015.015.015.015.014.015.015.015.015.015.015.015.015.014.015.015.014.015.015.014.015.015.014.015.015.014.015.015.014.014.015.015.014.014.014.014.015.015.014.014.014.014.015.015.014.014.014.014.014.014.014.014.014.014.014.014.015.014.013.014.014.014.014.014.014.014.014.013.014.014.014.014.013.014.014.013.014.014.013.013.014.014.013.013.014.014.013.013.014.014.013.013.013.013.014.014.013.013.013.013.013.013.013.013.014.013.013.013.013.013.013.013.013.013.012.013.013.013.013.013.013.012.013.013.012.013.013.012.013.013.012.013.013.012.012.013.013.012.012.012.013.013.012.012.012.012.013.013.012.012.012.012.012.012.012.012.013.012.012.012.012.012.012.012.011.012.012.012.012.012.012.011.012.012.011.012.012.011.012.012.011.011.012.012.011.011.012.012.011.011.012.012.011.01.011.012.012.011.01.012.012.01.011.012.011.01.011.012.011.01.011.012.011.01.01.011.012.011.01.01.011.012.011.01.01.01.011.012.01.01.011.01.01.011.011.01.01.01.011.011.01.01.01.01.01.01.011.01.01.011.01.01.01.01.01.01.01.01.01.01.01.01.01.01.01.01.01.009.01.01.009.01.01.009.009.01.01.009.009.01.01.008.009.01.01.01.008.008.01.01.009.009.01.009.008.009.01.009.008.009.01.009.008.009.01.009.008.008.009.01.008.008.01.009.008.008.008.009.009.008.009.009.008.008.008.008.009.009.008.008.008.008.009.009.008.008.008.008.008.008.008.008.008.008.008.008.008.008.008.007.008.008.007.008.008.008.008.007.007.008.008.007.008.008.007.007.007.007.008.008.007.007.007.007.008.007.007.008.007.007.007.007.007.007.007.007.007.007.007.006.007.007.007.007.006.007.007.006.007.007.006.006.007.007.006.006.007.007.006.006.006.006.007.007.006.006.006.006.006.006.007.006.006.006.006.006.006.006.005.006.006.006.006.005.006.006.006.006.005.005.006.006.005.006.006.005.005.005.006.006.005.005.005.005.005.005.006.006.005.005.005.005.005.005.005.005.005.004.005.005.005.005.004.005.005.004.005.005.004.005.005.004.005.005.004.004.004.004.005.005.004.004.004.004.004.004.005.004.004.004.004.004.004.004.004.004.004.004.003.004.004.003.004.004.003.004.004.003.004.004.003.003.004.004.003.003.003.003.004.003.003.004.003.003.003.003.003.003.003.003.003.003.003.003.003.003.003.002.002.003.003.002.003.003.002.003.003.002.002.003.003.002.002.002.003.002.002.003.002.002.002.002.002.002.002.002.002.002.002.002.002.001.002.002.002.002.001.002.002.001.001.002.002.001.001.001.002.002.001.001.001.001.002h.002v.002l.002.001v.001l.002.001.001.002h.001v.001h.002v.002h.001v.001h.001v.001h.001l.53-.53-.53.53a.75.75 0 101.06-1.06l-.53.53.53-.53v-.001l-.001-.001-.001-.001-.001-.001-.001-.001-.002-.002-.002-.002-.002-.002-.002-.002-.001-.001-.002-.002-.002-.002-.002-.002-.001-.001-.002-.002-.002-.001-.001-.002-.002-.002-.002-.002-.002-.002-.002-.001-.002-.002-.002-.002-.002-.003-.002-.002-.002-.002-.002-.002-.003-.002-.002-.003-.002-.002-.003-.003-.002-.002-.003-.003-.003-.002-.002-.003-.003-.003-.003-.003-.003-.003-.003-.002-.002-.003-.003-.003-.003-.003-.004-.004-.003-.003-.003-.003-.003-.003-.004-.004-.003-.003-.003-.003-.004-.004-.004-.004-.003-.003-.004-.004-.004-.004-.003-.003-.004-.004-.004-.004-.004-.004-.004-.004-.004-.004-.004-.004-.004-.004-.004-.004-.005-.005-.004-.004-.004-.004-.005-.005-.004-.004-.005-.005-.004-.004-.005-.005-.005-.005-.004-.004-.005-.005-.005-.005-.005-.005-.005-.005-.005-.005-.005-.005-.005-.005-.005-.005-.005-.005-.005-.005-.006-.006-.005-.005-.005-.005-.006-.006-.005-.005-.006-.006-.006-.005-.005-.006-.006-.006-.006-.006-.005-.005-.006-.006-.006-.006-.006-.006-.006-.006-.006-.006-.006-.006-.006-.006-.007-.007-.006-.006-.006-.006-.007-.006-.006-.007-.006-.006-.007-.007-.006-.006-.007-.007-.007-.007-.006-.006-.007-.007-.007-.007-.007-.007-.007-.007-.007-.007-.007-.007-.007-.007-.007-.007-.007-.007-.007-.007-.007-.007-.008-.008-.007-.007-.007-.007L18.002 9l-.007-.007-.008-.008-.007-.007-.008-.008-.008-.008-.007-.007-.008-.008-.008-.008-.008-.008-.008-.008-.008-.008-.008-.008-.008-.008-.008-.008-.008-.008-.008-.008-.008-.008-.009-.009-.008-.008-.008-.008-.009-.009-.008-.008-.009-.009-.008-.008-.01-.008-.008-.008-.01-.01-.008-.008-.009-.009-.009-.009-.009-.008-.008-.01-.01-.008-.008-.01-.01-.008-.009-.01-.009-.009-.009-.009-.01-.01-.009-.008-.009-.01-.01-.01-.009-.009-.01-.01-.009-.009-.01-.01L17.6 8.6l-.01-.01-.01-.01-.009-.009-.01-.01-.01-.01-.01-.01-.01-.01-.01-.01-.01-.01-.01-.01-.01-.01-.01-.01-.01-.01-.01-.01-.01-.01-.01-.01-.011-.01-.01-.011-.01-.01-.011-.011-.01-.01-.011-.011-.011-.011-.01-.01-.011-.011-.011-.011-.01-.01-.012-.012-.01-.01-.012-.012-.01-.01-.011-.011-.012-.012-.01-.01-.012-.012-.011-.01-.011-.012-.011-.011-.012-.012-.011-.011-.011-.011-.012-.012-.011-.011-.012-.012-.011-.011-.012-.012-.012-.012-.011-.011-.012-.012-.012-.012-.012-.012-.011-.011-.012-.012-.012-.012-.012-.012-.012-.012-.012-.012-.012-.012-.012-.012-.012-.012-.013-.013-.012-.012-.012-.012-.013-.013-.012-.012-.012-.012-.013-.013-.012-.012-.013-.013-.012-.012-.013-.013-.013-.013-.012-.012-.013-.013-.013-.013-.013-.012-.012-.013-.013-.013-.013-.013-.013-.013-.013-.013-.013-.013-.013-.013-.013-.013-.013-.013-.014-.014-.013-.013-.013-.013-.013-.013-.014-.014-.013-.013-.013-.013-.014-.014-.013-.013-.014-.014-.014-.013-.013-.014-.014-.014-.013-.013-.014-.014-.014-.014-.014-.014-.014-.013-.013-.014-.014-.014-.014-.014-.014-.014-.014-.014L16.3 7.3l-.014-.014-.014-.014-.015-.015-.014-.014-.014-.014-.014-.014L16.2 7.2l-.014-.014-.014-.014-.015-.015-.014-.014-.015-.015-.014-.014-.015-.015-.014-.014-.015-.015-.015-.015-.014-.014-.015-.015-.015-.015-.015-.015-.014-.014-.015-.015-.015-.015-.015-.015-.015-.015-.015-.015-.015-.015-.015-.015-.015-.015-.015-.015-.016-.016-.015-.015-.015-.015-.015-.015-.016-.016-.015-.015-.015-.015-.016-.016-.015-.015-.016-.016-.015-.015-.016-.016-.015-.016-.016-.015-.016-.016-.015-.016-.016-.015-.016-.016-.016-.016-.016-.016-.016-.015-.015-.016-.016-.016-.016-.016-.016-.016-.016-.016-.016-.016-.016-.016-.017-.016-.016-.017-.016-.016-.016-.016-.016-.016-.017-.017-.016-.016-.016-.016-.017-.017-.016-.016-.016-.016-.017-.017-.016-.016-.017-.017-.016-.016-.017-.017-.017-.017-.016-.016-.017-.017-.017-.017-.016-.016-.017-.017-.017-.017-.017-.017-.017-.017-.017-.017-.017-.017-.017-.017-.017-.017-.017-.017-.017-.017-.017-.017-.017-.017-.017-.017-.017-.017-.017-.017-.018-.018-.017-.017-.017-.017-.017-.018-.018-.017-.017-.017-.018-.018-.017-.017-.018-.018-.017-.017-.018-.018L14.6 5.6l-.018-.018-.017-.017-.018-.018-.018-.018-.017-.017-.018-.018-.018-.018-.018-.018-.017-.017-.018-.018-.018-.018-.018-.018-.018-.018-.018-.018-.018-.018-.018-.018-.018-.018-.018-.018-.018-.018-.018-.018-.018-.018-.019-.018-.018-.019-.018-.018-.018-.018-.019-.018-.018-.019-.018-.018-.019-.018-.018-.019-.018-.018-.019-.019-.018-.018-.019-.019-.018-.018-.019-.019-.018-.018-.019-.019-.019-.019-.018-.018-.019-.019-.019-.019-.018-.018-.02-.02-.018-.018-.019-.019-.018-.018-.02-.02-.018-.018-.02-.02-.018-.018-.019-.019-.019-.019-.019-.019-.019-.019-.02-.02-.018-.018-.02-.02-.018-.018-.02-.02-.019-.019-.019-.019-.02-.02-.018-.018-.02-.02-.019-.019-.02-.02-.019-.019-.02-.019-.018-.02-.02-.019-.02-.02-.019-.019-.02-.02-.019-.019-.02-.02-.019-.019-.02-.02-.02-.02-.019-.019-.02-.02-.019-.019-.02-.02-.02-.02-.02-.02-.019-.019-.02-.02-.02-.02-.02-.02-.02-.02-.02-.02-.019-.019-.02-.02-.02-.02-.02-.02-.02-.02-.02-.02-.02-.02-.02-.02-.02-.02-.02-.02-.02-.02-.02-.02-.02-.02-.02-.02-.02-.02-.021-.021-.02-.02-.02-.02-.53-.532-.53.53zM3 20.252a.75.75 0 01.75-.75h16.5a.75.75 0 010 1.5H3.75a.75.75 0 01-.75-.75" clip-rule="evenodd"/></svg>