<svg xmlns="http://www.w3.org/2000/svg" width="20" height="20" viewBox="0 0 20 20"><path fill="currentColor" fill-rule="evenodd" d="m15.315 6.622-5.07-2.56a.5.5 0 00-.45 0l-5.07 2.56 5.07 2.56a.5.5 0 00.45 0zm-4.393-3.9a2 2 0 00-1.804 0L2.812 5.909a.8.8 0 000 1.428l6.306 3.185a2 2 0 001.804 0l6.306-3.185a.8.8 0 000-1.428zM2.034 9.635A.75.75 0 013.04 9.3l6.98 3.49 6.981-3.49a.75.75 0 01.67 1.341l-7.315 3.658-.336.168-.335-.168-7.316-3.658a.75.75 0 01-.335-1.006M3.04 12.58a.75.75 0 10-.67 1.342l7.315 3.658.335.168.336-.168 7.316-3.658A.75.75 0 0017 12.579l-6.98 3.49z" clip-rule="evenodd"/></svg>