<svg xmlns="http://www.w3.org/2000/svg" width="20" height="20" viewBox="0 0 20 20"><path fill="currentColor" fill-rule="evenodd" d="M18.905 4.907a.75.75 0 01-.258 1.029L7.095 12.867a3.138 3.138 0 11-.83-1.252L8.958 10 6.265 8.385a3.138 3.138 0 11.83-1.252l3.32 1.992 7.46-4.476a.75.75 0 011.03.258M4.137 7.716a1.638 1.638 0 110-3.277 1.638 1.638 0 010 3.277m0 7.846a1.638 1.638 0 110-3.277 1.638 1.638 0 010 3.277m8.047-3.625 1.46-.874 5.002 3.002a.75.75 0 01-.772 1.286z" clip-rule="evenodd"/></svg>