<svg xmlns="http://www.w3.org/2000/svg" width="24" height="24" viewBox="0 0 24 24"><path fill="currentColor" fill-rule="evenodd" d="M21.75 6.442a.75.75 0 01-.257 1.029l-12.68 7.608a3.448 3.448 0 11-.83-1.252L11.03 12l-3.046-1.828a3.448 3.448 0 11.83-1.252l3.674 2.205 8.235-4.94a.75.75 0 011.029.257M5.59 18.258a1.948 1.948 0 110-3.896 1.948 1.948 0 010 3.896m0-8.62a1.948 1.948 0 110-3.897 1.948 1.948 0 010 3.897m8.817 4.389 1.46-.874 5.626 3.376a.75.75 0 01-.772 1.286z" clip-rule="evenodd"/></svg>