<svg xmlns="http://www.w3.org/2000/svg" width="16" height="16" viewBox="0 0 16 16"><path fill="currentColor" fill-rule="evenodd" d="M7.33 14.665a1.5 1.5 0 001.34 0l5.777-2.889a1 1 0 00.553-.894V5.427a1.5 1.5 0 00-.83-1.342L8.448 1.224a1 1 0 00-.894 0L1.829 4.085A1.5 1.5 0 001 5.427v5.455a1 1 0 00.553.894zM2.275 11.02A.5.5 0 012 10.573v-4.61a.25.25 0 01.362-.223l4.862 2.43a.5.5 0 01.276.448v4.61a.25.25 0 01-.362.223zm.848-6.464a.25.25 0 000 .447L7.776 7.33a.5.5 0 00.448 0l4.652-2.326a.25.25 0 000-.447L8.224 2.23a.5.5 0 00-.448 0zM13.638 5.74a.25.25 0 01.362.224v4.609a.5.5 0 01-.276.447l-4.862 2.431a.25.25 0 01-.362-.224V8.619a.5.5 0 01.276-.447z" clip-rule="evenodd"/></svg>