<svg width="207px" height="207px" viewBox="0 0 207 207" version="1.1" xmlns="http://www.w3.org/2000/svg" xmlns:xlink="http://www.w3.org/1999/xlink">
    <defs>
        <circle id="path-1" cx="103.565079" cy="103.5" r="103"></circle>
    </defs>
    <g id="UI" stroke="none" stroke-width="1" fill="none" fill-rule="evenodd">
        <g id="Search-Default-State" transform="translate(-238.000000, -184.000000)">
            <g id="Group-3" transform="translate(237.909091, 184.000000)">
                <mask id="mask-2" fill="white">
                    <use xlink:href="#path-1"></use>
                </mask>
                <use id="Oval" fill="#FFFFFF" xlink:href="#path-1"></use>
                <g id="inspect" mask="url(#mask-2)" fill-rule="nonzero">
                    <g transform="translate(108.000000, 221.000000) scale(-1, 1) translate(-108.000000, -221.000000) translate(32.500000, 29.500000)">
                        <path d="M65.1253715,96.807311 C66.3717106,120.371429 85.9143074,165.090075 108.497972,194.769563 C114.413928,192.808656 122.556676,189.285671 123.719926,186.011954 C102.615251,152.643302 91.5311422,93.1015295 88.3903677,87.4016054 C78.76863,69.753444 63.8956503,73.4093719 65.1253715,96.807311 Z" id="Path" fill="#8C909A"></path>
                        <path d="M92.5448313,70.0525654 C92.4514463,70.0697373 92.3557128,70.0697373 92.2623278,70.0525654 C92.0523975,69.9813956 91.880555,69.8277166 91.7864723,69.627007 C91.6923897,69.4262974 91.6841994,69.1959064 91.7637922,68.9890227 C92.2928158,67.398443 92.7038372,65.7710205 92.9935134,64.1199913 C93.0807024,63.6611019 93.5233864,63.3597792 93.9822757,63.4469682 C94.4411651,63.5341572 94.7424878,63.9768412 94.6552988,64.4357306 C94.3469913,66.1724081 93.9081432,67.8833601 93.3424883,69.5540297 C93.2053162,69.8692008 92.8882403,70.0673732 92.5448313,70.0525654 Z" id="Path" fill="#87A159"></path>
                        <path d="M77.9543551,356.810261 C77.1566981,318.855082 66.8037748,241.066905 42.1428788,211.088296 C49.3051741,197.794012 77.173316,172.368695 90.1684781,173.731359 C93.2095455,189.784207 104.808808,289.557805 101.402148,354.084933 C93.8891007,356.73858 85.875758,357.669968 77.9543551,356.810261 L77.9543551,356.810261 Z" id="Path" fill="#1B0F0F"></path>
                        <path d="M26.1232672,174.81152 C22.2845428,191.429374 25.8241458,213.032585 34.0499837,227.074672 C35.8280942,245.586962 34.7977872,299.395574 13.809437,345.427031 C19.0108255,353.403601 26.8045992,357.807333 32.5045233,357.973511 C60.2397223,315.38195 76.3424233,243.775616 80.8957154,203.211433 C89.6200889,189.784207 89.7862675,182.754854 90.2681853,172.352077 C84.5350255,164.774336 26.1232672,174.81152 26.1232672,174.81152 Z" id="Path" fill="#590E0E"></path>
                        <path d="M60.1400152,71.0496366 C73.6004773,69.2216726 79.0677514,72.4621542 85.8146003,81.5687385 C99.1088838,102.756503 91.0658423,148.588545 90.2349496,175.592559 C74.0325415,178.91613 46.347196,179.182015 26.2063564,174.81152 C27.8681419,137.770322 31.6736305,108.506281 44.9679141,87.8835232 C55.7196659,71.0662545 60.1400152,71.0496366 60.1400152,71.0496366 Z" id="Path" fill="#C4C6CD"></path>
                        <path d="M104.808808,30.9009003 C107.434429,36.0358173 115.278056,42.5333984 106.65339,43.8628268 C98.0287233,45.1922551 102.515544,37.6477492 102.515544,37.6477492 L104.808808,30.9009003 Z" id="Path" fill="#D7D9DE"></path>
                        <path d="M83.2720686,81.5521206 C86.8449073,77.630307 87.7588893,68.5569585 87.7588893,68.5569585 C87.7588893,68.5569585 99.0590303,67.3106194 102.997462,64.2030806 C106.935893,61.0955418 106.65339,45.9234407 105.107929,32.52945 C103.562469,19.1354594 100.122573,17.5733811 92.9935134,18.2713309 C85.8644538,18.9692808 57.7470441,29.903829 57.7470441,29.903829 C57.7470441,29.903829 61.070615,55.2959106 61.2534114,58.9684564 C61.4362078,62.6410023 62.1175399,67.7925372 60.0569259,71.0662545 C62.9151969,80.1728387 80.0814405,85.0252522 83.2720686,81.5521206 Z" id="Path" fill="#D7D9DE"></path>
                        <path d="M99.0590303,38.013342 C98.6100413,38.0028025 98.1844355,37.8109802 97.8791626,37.4815707 C97.4798356,37.023317 97.3825931,36.3750332 97.6298948,35.8197852 C97.6376778,35.7702354 97.6376778,35.7197743 97.6298948,35.6702245 C97.4142169,34.830457 97.9201415,33.9748495 98.759909,33.7591715 C99.5996764,33.5434936 100.455284,34.049418 100.670962,34.8891854 C101.050627,35.8361646 100.835566,36.917985 100.122573,37.6477492 C99.827385,37.9003145 99.4471181,38.0310312 99.0590303,38.013342 L99.0590303,38.013342 Z" id="Shape" fill="#3F4553"></path>
                        <path d="M91.1987851,178.467448 C71.7558954,180.727476 36.0275084,180.744094 25.3588459,178.716715 C25.2919817,176.552379 25.5496467,174.390233 26.1232672,172.302224 C37.9551795,174.312984 75.5946198,174.213277 90.5839245,172.302224 C90.9548054,174.337354 91.1604297,176.399154 91.1987851,178.467448 Z" id="Path" fill="#8C909A"></path>
                        <path d="M107.600607,15.2468814 C105.855733,11.2087428 96.233995,10.2615251 87.1274108,12.9702354 C82.0923974,14.7462901 77.3573709,17.2791091 73.0853238,20.4815056 C72.2378132,18.603688 73.9494522,12.6212604 69.7617529,13.5352424 C66.438182,14.2830459 64.0784467,20.8304805 65.0589001,23.8383122 C62.5163684,23.0905087 56.9493871,21.6613733 54.7059768,23.6222801 C53.6424341,24.5694978 54.8555375,29.2058792 58.677644,29.8872112 C47.5436815,39.9908667 53.8252305,48.632151 56.284673,47.1199262 C55.6365766,50.8921792 54.9386267,55.0632607 55.8858445,58.8355136 C56.4342336,61.078924 58.3286691,64.2196984 61.0872329,63.1395379 C64.4108038,61.8433453 66.7539212,55.7778284 67.9670246,52.9029396 C70.1439636,47.7680226 71.5564812,41.2704415 70.2436707,39.1433561 C76.4587482,37.7640742 83.5379542,32.878425 85.0834147,26.1648118 C89.503764,31.6320859 109.59475,19.8334093 107.600607,15.2468814 Z" id="Path" fill="#3F4553"></path>
                        <path d="M75.5447662,38.5617312 C72.4206096,36.2019959 65.5740536,37.8471635 64.1116824,41.2039701 C63.2309361,43.2812019 64.7099252,45.3584337 67.2524569,45.9732943 C71.0867926,47.0504939 75.1999237,45.8513679 77.854648,42.8823734 L75.5447662,38.5617312 Z" id="Path" fill="#D7D9DE"></path>
                        <path d="M60.1400152,6.24000434 C47.9757457,14.6486387 44.3364356,30.5020718 52.0471201,41.66927 L96.1342879,11.2253607 C88.3903677,0.0581624905 72.3375203,-2.16863 60.1400152,6.24000434 Z" id="Path" fill="#C4C6CD"></path>
                        <path d="M90.0521532,73.1268684 L89.8361211,73.1268684 C82.6738258,72.4455364 75.1293199,26.8793795 75.0628485,26.4306975 C75.0153525,26.1338481 75.1298317,25.8342091 75.3631629,25.6446517 C75.5964941,25.4550943 75.9132286,25.4044168 76.1940557,25.5117089 C76.4748828,25.6190009 76.6771381,25.8679624 76.7246339,26.1648118 C79.7324656,44.8432802 86.2632824,71.116108 90.0189175,71.465083 C90.417746,71.5481723 91.0824601,70.8668402 91.78041,68.955787 C91.8752,68.6685698 92.1185739,68.4555469 92.4158137,68.399624 C92.7130534,68.3437012 93.0172032,68.4537129 93.2098916,68.6868437 C93.40258,68.9199746 93.4533676,69.2393964 93.3424883,69.520794 C92.9935134,70.4181582 92.01306,73.1268684 90.0521532,73.1268684 Z" id="Path" fill="#B1B4BD"></path>
                        <path d="M77.9045016,142.606118 C70.7062497,144.654377 63.0896069,144.728994 55.8526087,142.82215 C55.3390501,142.671892 54.7845578,142.778119 54.3628948,143.107543 C53.9412318,143.436968 53.7039932,143.94928 53.7255234,144.483935 L53.7255234,163.843736 C53.7854481,165.100179 54.6420178,166.177583 55.8526087,166.51921 C63.0535181,168.553894 70.6679738,168.622751 77.9045016,166.718625 C79.1234109,166.38294 79.9799594,165.290335 80.015215,164.026532 L80.015215,144.234668 C80.0239906,143.709658 79.7843481,143.211271 79.3686388,142.890487 C78.9529294,142.569704 78.4100653,142.464267 77.9045016,142.606118 Z" id="Path" fill="#9FA2AC"></path>
                        <path d="M40.1985899,51.9058683 C39.5351722,51.8969379 38.9166388,51.5691152 38.5368044,51.025122 C38.2181801,50.5774257 38.0932365,50.0202943 38.1901586,49.4794065 C38.2870807,48.9385188 38.5977041,48.4594369 39.0519579,48.1502332 L106.670008,1.15494088 C107.253581,0.59408299 108.111454,0.426808448 108.862987,0.727337282 C109.61452,1.02786612 110.120515,1.74053467 110.15646,2.54913058 C110.192406,3.3577265 109.751645,4.11248243 109.029743,4.47851177 L41.3950754,51.4738041 C41.0535145,51.7435142 40.6336669,51.8951259 40.1985899,51.9058683 Z" id="Path" fill="#B1B4BD"></path>
                        <path d="M117.238963,39.2098275 C118.618245,42.0348628 120.13047,45.8569693 122.872416,45.8569693 C127.774683,46.0730014 126.345547,38.4952598 124.999501,35.9693459 C128.323072,38.8276169 126.162751,44.2782731 131.28105,44.7768088 C134.438442,45.1257837 134.820653,41.4532379 134.521532,39.3926239 C134.429725,37.9101286 134.218548,36.4374476 133.890053,34.9888925 C134.970214,36.6506779 134.737564,40.1404274 135.917431,41.2205879 C138.509817,43.5803232 140.337781,42.0016271 140.371016,39.3760061 C140.371016,36.0524352 141.052348,29.6711791 138.709231,27.2449723 C134.355353,22.5919731 132.311357,23.4394837 129.868532,25.5831869 C126.94379,24.2703764 122.673001,27.3612973 121.925198,29.8041219 C119.282959,28.6741078 119.233106,31.3828181 117.355288,32.3965072 C117.637792,35.8862566 116.059095,36.418028 117.238963,39.2098275 Z" id="Path" fill="#C4C6CD"></path>
                        <polygon id="Path" fill="#5F6674" points="149.161861 40.6888166 111.505803 40.6223452 111.489185 29.6545612 149.145244 29.7210326"></polygon>
                        <polygon id="Path" fill="#3F4553" points="120.04738 38.013342 107.750168 37.897017 107.73355 32.3965072 120.030763 32.5128322"></polygon>
                        <polygon id="Rectangle" fill="#5F6674" transform="translate(148.155535, 35.153883) rotate(-0.190000) translate(-148.155535, -35.153883) " points="146.377425 28.0165143 149.933646 28.0165143 149.933646 42.2912512 146.377425 42.2912512"></polygon>
                        <path d="M150.607615,35.2049246 C150.607615,39.1433561 150.275258,42.350602 149.876429,42.350602 C149.477601,42.350602 149.145244,39.1433561 149.145244,35.2049246 C149.145244,31.2664931 149.460983,28.0592472 149.876429,28.0592472 C150.291875,28.0592472 150.607615,31.2498753 150.607615,35.2049246 Z" id="Path" fill="#7F8693"></path>
                        <path d="M147.068012,35.2049246 C147.068012,39.1433561 146.735655,42.350602 146.320208,42.350602 C145.904762,42.350602 145.589023,39.1433561 145.589023,35.2049246 C145.589023,31.2664931 145.92138,28.0592472 146.320208,28.0592472 C146.719037,28.0592472 147.068012,31.2498753 147.068012,35.2049246 Z" id="Path" fill="#5F6674"></path>
                        <path d="M114.064953,35.1384532 C114.064953,38.1629027 113.815685,40.6223452 113.499946,40.6223452 C113.184207,40.6223452 112.918321,38.1629027 112.918321,35.1384532 C112.918321,32.1140037 113.184207,29.6545612 113.499946,29.6545612 C113.815685,29.6545612 114.064953,32.1140037 114.064953,35.1384532 Z" id="Path" fill="#5F6674"></path>
                        <path d="M109.993578,35.1384532 C110.090214,36.0633075 109.988233,36.9981352 109.694457,37.8803992 C109.317674,36.071851 109.317674,34.2050554 109.694457,32.3965072 C109.988233,33.2787712 110.090214,34.2135989 109.993578,35.1384532 L109.993578,35.1384532 Z" id="Path" fill="#5F6674"></path>
                        <polygon id="Path" fill="#5F6674" points="144.226359 40.6888166 106.5703 40.6223452 106.537065 29.6545612 144.209741 29.7210326"></polygon>
                        <polygon id="Path" fill="#5F6674" points="115.111878 38.013342 102.814665 37.897017 102.798048 32.3965072 115.09526 32.5128322"></polygon>
                        <polygon id="Rectangle" fill="#5F6674" transform="translate(143.220060, 35.153632) rotate(-0.190000) translate(-143.220060, -35.153632) " points="141.441949 28.0162631 144.99817 28.0162631 144.99817 42.2910001 141.441949 42.2910001"></polygon>
                        <path d="M145.672112,35.2049246 C145.672112,39.1433561 145.339755,42.350602 144.940926,42.350602 C144.542098,42.350602 144.193123,39.1433561 144.193123,35.2049246 C144.193123,31.2664931 144.52548,28.0592472 144.940926,28.0592472 C145.356373,28.0592472 145.672112,31.2498753 145.672112,35.2049246 Z" id="Path" fill="#7F8693"></path>
                        <path d="M142.132509,35.2049246 C142.132509,39.1433561 141.800152,42.350602 141.384705,42.350602 C140.969259,42.350602 140.65352,39.1433561 140.65352,35.2049246 C140.65352,31.2664931 140.985877,28.0592472 141.384705,28.0592472 C141.783534,28.0592472 142.132509,31.2498753 142.132509,35.2049246 Z" id="Path" fill="#5F6674"></path>
                        <path d="M107.11869,35.1384532 C107.11869,38.1629027 106.852804,40.6223452 106.553683,40.6223452 C106.254561,40.6223452 105.972058,38.1629027 105.972058,35.1384532 C105.972058,32.1140037 106.221326,29.6545612 106.553683,29.6545612 C106.88604,29.6545612 107.11869,32.1140037 107.11869,35.1384532 Z" id="Path" fill="#5F6674"></path>
                        <path d="M103.080551,35.1384532 C103.167825,36.0621206 103.07182,36.9939305 102.798048,37.8803992 C102.421264,36.071851 102.421264,34.2050554 102.798048,32.3965072 C103.07182,33.2829759 103.167825,34.2147858 103.080551,35.1384532 Z" id="Path" fill="#5F6674"></path>
                        <path d="M113.566417,44.5607767 C115.228203,47.5686083 118.850895,49.6458401 118.219416,57.2401996 L133.973142,51.8560148 C133.973142,48.9312724 135.501985,42.9322269 136.332878,39.2430632 C137.097299,35.8031674 137.994663,30.7845753 137.080681,27.3446795 C136.399349,24.885237 133.491225,22.3593231 131.148107,24.1706693 C129.999092,23.1506962 128.40418,22.7977485 126.932094,23.2376824 C125.460007,23.6776162 124.320287,24.8478105 123.91934,26.3309903 C122.944758,25.4263694 121.575504,25.0824597 120.289132,25.4192063 C119.00276,25.7559528 117.977647,26.7266601 117.57132,27.9927758 C115.909535,31.9810609 116.790281,40.6555809 116.790281,40.6555809 L112.569346,40.6555809 C112.467437,42.0311702 112.81754,43.4024092 113.566417,44.5607767 Z" id="Path" fill="#D7D9DE"></path>
                        <path d="M40.7802148,97.488643 C48.0089815,120.404664 138.709231,161.118408 135.319189,52.1385183 C128.023951,51.0085042 119.681788,51.4571862 116.790281,53.3848574 C119.282959,79.8404816 99.9730123,125.47311 67.6679032,88.4152945 C49.4048812,67.4601801 36.642369,84.4270094 40.7802148,97.488643 Z" id="Path" fill="#9FA2AC"></path>
                    </g>
                </g>
                <path d="M-1.41693402,104.487774 C0.500054322,101.324744 -5.82600721,98.0658634 -10.3309298,98.0658634 C-15.1234007,98.0658634 -20.9702151,101.420593 -20.2992692,106.500612 C-27.2004272,102.858334 -37.4563149,105.637967 -34.0057359,114.072716 C-30.8427051,121.836519 -19.2449256,122.411615 -15.890196,118.865187 C-18.5739797,123.945206 -16.3694431,127.491635 -13.3022618,128.641828 C-8.12639323,130.654665 -0.170891598,129.216924 0.500054322,123.37011 C3.85478392,126.916538 8.07215828,127.970882 13.056328,127.779183 C16.8903047,127.587484 23.5039144,124.232754 20.9159802,118.481789 C31.2677172,119.152735 38.4564235,113.785168 34.9099951,108.992697 C29.7341266,101.803991 18.2321965,103.62513 11.8102856,107.267407 C12.6729303,106.117214 12.7687797,104.487774 12.0019844,103.145883 C10.2766949,100.749647 3.47138625,100.557948 -1.41693402,104.487774 Z" id="Path" fill="#F5F6F9" fill-rule="nonzero" mask="url(#mask-2)"></path>
                <path d="M177.147085,25.0774624 C179.402089,21.3567063 171.960577,17.5232 166.661318,17.5232 C161.023809,17.5232 154.146048,21.4694565 154.935299,27.4452163 C146.817285,23.1607093 134.753016,26.4304647 138.812022,36.352481 C142.532778,45.485246 156.175551,46.1617471 160.121807,41.9899903 C156.964802,47.9657501 159.558056,52.137507 163.166062,53.4905092 C169.254572,55.8582631 178.612838,54.1670103 179.402089,47.289249 C183.348346,51.4610058 188.309354,52.7012579 194.172363,52.4757575 C198.682371,52.2502571 206.462134,48.3040007 203.417879,41.5389895 C215.594899,42.3282408 224.051163,36.0142304 219.879406,30.3767212 C213.790896,21.9204572 200.260873,24.0627108 192.706611,28.3472178 C193.721363,26.9942156 193.834113,25.0774624 192.932111,23.4989598 C190.902608,20.6802052 182.897345,20.4547048 177.147085,25.0774624 Z" id="Path" fill="#F5F6F9" fill-rule="nonzero" mask="url(#mask-2)" transform="translate(179.478579, 36.011600) scale(-1, 1) translate(-179.478579, -36.011600) "></path>
            </g>
        </g>
    </g>
</svg>