<svg xmlns="http://www.w3.org/2000/svg" width="12" height="12" viewBox="0 0 12 12"><g fill="none"><g clip-path="url(#svgID0)"><path fill="currentColor" fill-rule="evenodd" d="M8.922 10.058a5 5 0 01-2.422.917V6.5h1.019a6.47 6.47 0 001.403 3.558m-.4-3.558a5.47 5.47 0 001.15 2.894A4.98 4.98 0 0010.975 6.5zm2.453-1a4.98 4.98 0 00-1.303-2.894A5.47 5.47 0 008.522 5.5zm-3.456 0a6.47 6.47 0 011.403-3.558A5 5 0 006.5 1.025V5.5zM5.5 5.5V1.025a5 5 0 00-2.422.917A6.47 6.47 0 014.481 5.5zm-2.022 0a5.47 5.47 0 00-1.15-2.894A4.98 4.98 0 001.025 5.5zm-2.453 1a4.98 4.98 0 001.303 2.894A5.47 5.47 0 003.478 6.5zm3.456 0H5.5v4.475a5 5 0 01-2.422-.917A6.47 6.47 0 004.481 6.5M6 12A6 6 0 106 0a6 6 0 000 12" clip-rule="evenodd"/></g><defs><clipPath id="svgID0"><path fill="#fff" d="M0 0h12v12H0z"/></clipPath></defs></g></svg>