<svg xmlns="http://www.w3.org/2000/svg" width="16" height="16" viewBox="0 0 16 16"><path fill="currentColor" fill-rule="evenodd" d="M11.684 12.736A5.97 5.97 0 018.5 13.979V8.5h1.516a7.47 7.47 0 001.668 4.236M11.02 8.5a6.47 6.47 0 001.402 3.557A5.98 5.98 0 0013.98 8.5zm2.96-1h-2.96a6.47 6.47 0 011.402-3.557A5.98 5.98 0 0113.98 7.5m-3.963 0a7.47 7.47 0 011.668-4.236A5.97 5.97 0 008.5 2.021V7.5zM7.5 7.5V2.02a5.97 5.97 0 00-3.131 1.203A7.47 7.47 0 016.07 7.5zm-2.432 0a6.47 6.47 0 00-1.443-3.606A5.98 5.98 0 002.021 7.5zm-3.047 1h3.047a6.47 6.47 0 01-1.443 3.607A5.98 5.98 0 012.021 8.5m4.05 0H7.5v5.48a5.97 5.97 0 01-3.131-1.203A7.47 7.47 0 006.07 8.5M8 15A7 7 0 108 1a7 7 0 000 14" clip-rule="evenodd"/></svg>