<svg xmlns="http://www.w3.org/2000/svg" width="20" height="20" viewBox="0 0 20 20"><path fill="currentColor" fill-rule="evenodd" d="M9.25 10.75v6.713a7.47 7.47 0 01-4.257-1.879 9.7 9.7 0 001.729-4.834zm1.5 0v6.713a7.47 7.47 0 004.257-1.879 9.7 9.7 0 01-1.729-4.834zm2.528-1.5H10.75V2.537a7.47 7.47 0 014.257 1.879 9.7 9.7 0 00-1.729 4.834m1.506 1.5a8.2 8.2 0 001.261 3.69 7.46 7.46 0 001.418-3.69zm2.679-1.5h-2.68a8.2 8.2 0 011.262-3.69 7.46 7.46 0 011.418 3.69m-8.213 0H6.722a9.7 9.7 0 00-1.729-4.834A7.47 7.47 0 019.25 2.537zm-4.034 0a8.2 8.2 0 00-1.261-3.69 7.46 7.46 0 00-1.418 3.69zm-2.679 1.5a7.46 7.46 0 001.418 3.69 8.2 8.2 0 001.261-3.69zm.962 5.473A8.97 8.97 0 0010 19a8.97 8.97 0 006.502-2.777l.54-.517-.044-.046A8.96 8.96 0 0019 10c0-2.145-.75-4.114-2.002-5.66l.044-.046-.544-.52A8.97 8.97 0 0010 1a8.97 8.97 0 00-6.498 2.773l-.544.52.044.047A8.96 8.96 0 001 10c0 2.145.75 4.114 2.002 5.66l-.044.046z" clip-rule="evenodd"/></svg>