<svg xmlns="http://www.w3.org/2000/svg" width="20" height="20" viewBox="0 0 20 20"><path fill="currentColor" fill-rule="evenodd" d="M5.656 2.425c-.69 0-1.25.56-1.25 1.25v1.95a.75.75 0 11-1.5 0v-1.95a2.75 2.75 0 012.75-2.75h8.688a2.75 2.75 0 012.75 2.75v1.95a.75.75 0 01-1.5 0v-1.95c0-.69-.56-1.25-1.25-1.25zm0 15.15c-.69 0-1.25-.56-1.25-1.25v-1.95a.75.75 0 00-1.5 0v1.95a2.75 2.75 0 002.75 2.75h8.688a2.75 2.75 0 002.75-2.75v-1.95a.75.75 0 00-1.5 0v1.95c0 .69-.56 1.25-1.25 1.25zM3.75 9.25a.75.75 0 000 1.5h12.5a.75.75 0 000-1.5z" clip-rule="evenodd"/></svg>