<svg xmlns="http://www.w3.org/2000/svg" width="24" height="24" viewBox="0 0 24 24"><path fill="currentColor" fill-rule="evenodd" d="M19.25 5.5a.75.75 0 000-1.5 2.75 2.75 0 00-2.75 2.75v10.5A2.75 2.75 0 0019.25 20a.75.75 0 000-1.5c-.69 0-1.25-.56-1.25-1.25V6.75c0-.69.56-1.25 1.25-1.25M12 6.003a.75.75 0 01.75.75V17.25a.75.75 0 01-1.5 0V6.753a.75.75 0 01.75-.75M4 19.25a.75.75 0 01.75-.75c.69 0 1.25-.56 1.25-1.25V6.75c0-.69-.56-1.25-1.25-1.25a.75.75 0 110-1.5A2.75 2.75 0 017.5 6.75v10.5A2.75 2.75 0 014.751 20a.75.75 0 01-.75-.75" clip-rule="evenodd"/></svg>