<svg xmlns="http://www.w3.org/2000/svg" width="20" height="20" viewBox="0 0 20 20"><path fill="currentColor" fill-rule="evenodd" d="M16.25 4.5a.75.75 0 000-1.5H16a2.5 2.5 0 00-2.5 2.5v9.002a2.5 2.5 0 002.5 2.5h.25a.75.75 0 000-1.5H16a1 1 0 01-1-1V5.5a1 1 0 011-1zM10 5.004a.75.75 0 01.75.75v8.496a.75.75 0 01-1.5 0V5.754a.75.75 0 01.75-.75M2.997 16.252a.75.75 0 01.75-.75h.25a1 1 0 001-1V5.5a1 1 0 00-1-1h-.25a.75.75 0 110-1.5h.25a2.5 2.5 0 012.5 2.5v9.002a2.5 2.5 0 01-2.5 2.5h-.25a.75.75 0 01-.75-.75" clip-rule="evenodd"/></svg>