<svg xmlns="http://www.w3.org/2000/svg" width="24" height="24" viewBox="0 0 24 24"><path fill="currentColor" fill-rule="evenodd" d="M16.742 4.106a.75.75 0 10-1.485-.212l-.593 4.156h-4.2l.564-3.944a.75.75 0 00-1.485-.212L8.95 8.05H5.143a.75.75 0 100 1.5h3.592l-.7 4.9H4a.75.75 0 000 1.5h3.821l-.563 3.944a.75.75 0 001.484.212l.594-4.156h4.2l-.564 3.944a.75.75 0 101.485.212l.593-4.156h3.807a.75.75 0 000-1.5h-3.592l.7-4.9H20a.75.75 0 000-1.5h-3.821zM14.45 9.55h-4.198l-.7 4.9h4.198z" clip-rule="evenodd"/></svg>