<svg xmlns="http://www.w3.org/2000/svg" width="20" height="20" viewBox="0 0 20 20"><path fill="currentColor" fill-rule="evenodd" d="M9.242 3.106a.75.75 0 10-1.484-.212L7.25 6.45H4a.75.75 0 100 1.5h3.035l-.585 4.1H3a.75.75 0 000 1.5h3.235l-.477 3.344a.75.75 0 001.484.212l.508-3.556h3.485l-.477 3.344a.75.75 0 101.484.212l.508-3.556H16a.75.75 0 000-1.5h-3.035l.585-4.1H17a.75.75 0 000-1.5h-3.235l.477-3.344a.75.75 0 00-1.485-.212L12.25 6.45H8.766zM8.55 7.95l-.585 4.1h3.485l.585-4.1z" clip-rule="evenodd"/></svg>