<svg xmlns="http://www.w3.org/2000/svg" width="20" height="20" viewBox="0 0 20 20"><g fill="currentColor"><path d="M14.25 6.5a.75.75 0 100-1.5.75.75 0 000 1.5M15 8.75a.75.75 0 11-1.5 0 .75.75 0 011.5 0m.042 3a.75.75 0 00-1.5 0 1.75 1.75 0 01-1.75 1.75H5.75a.75.75 0 000 1.5h6.042a3.25 3.25 0 003.25-3.25"/><path fill-rule="evenodd" d="M2 4.5A2.5 2.5 0 014.5 2h11A2.5 2.5 0 0118 4.5v11a2.5 2.5 0 01-2.5 2.5h-11A2.5 2.5 0 012 15.5zm2.5-1h11a1 1 0 011 1v11a1 1 0 01-1 1h-11a1 1 0 01-1-1v-11a1 1 0 011-1" clip-rule="evenodd"/></g></svg>