<svg xmlns="http://www.w3.org/2000/svg" width="24" height="24" viewBox="0 0 24 24"><g fill="currentColor"><path d="M17.25 7.5a.75.75 0 100-1.5.75.75 0 000 1.5M18 9.75a.75.75 0 11-1.5 0 .75.75 0 011.5 0m0 3a.75.75 0 00-1.5 0 3.75 3.75 0 01-3.75 3.75h-6a.75.75 0 000 1.5h6c2.9 0 5.25-2.35 5.25-5.25"/><path fill-rule="evenodd" d="M3 6.273A3.273 3.273 0 016.273 3h11.454A3.273 3.273 0 0121 6.273v11.454A3.273 3.273 0 0117.727 21H6.273A3.273 3.273 0 013 17.727zM6.273 4.5h11.454c.98 0 1.773.794 1.773 1.773v11.454c0 .98-.794 1.773-1.773 1.773H6.273A1.773 1.773 0 014.5 17.727V6.273c0-.98.794-1.773 1.773-1.773" clip-rule="evenodd"/></g></svg>