<svg xmlns="http://www.w3.org/2000/svg" width="24" height="24" viewBox="0 0 24 24"><path fill="currentColor" fill-rule="evenodd" d="M5.5 5A1.5 1.5 0 017 3.5h10A1.5 1.5 0 0118.5 5v2.5a.75.75 0 001.5 0V5a3 3 0 00-3-3H7a3 3 0 00-3 3v2.5a.75.75 0 001.5 0zm0 14A1.5 1.5 0 007 20.5h10a1.5 1.5 0 001.5-1.5v-2.5a.75.75 0 011.5 0V19a3 3 0 01-3 3H7a3 3 0 01-3-3v-2.5a.75.75 0 011.5 0zm0-7A.75.75 0 114 12a.75.75 0 011.5 0m2.25.75a.75.75 0 100-1.5.75.75 0 000 1.5M11.5 12a.75.75 0 11-1.5 0 .75.75 0 011.5 0m2.25.75a.75.75 0 100-1.5.75.75 0 000 1.5M17.5 12a.75.75 0 11-1.5 0 .75.75 0 011.5 0m2.25.75a.75.75 0 100-1.5.75.75 0 000 1.5" clip-rule="evenodd"/></svg>