<svg xmlns="http://www.w3.org/2000/svg" width="32" height="32" viewBox="0 0 32 32"><path fill="currentColor" fill-rule="evenodd" d="M10 5a2 2 0 00-2 2v3.5a1 1 0 11-2 0V7a4 4 0 014-4h12a4 4 0 014 4v3.5a1 1 0 11-2 0V7a2 2 0 00-2-2zm12 22a2 2 0 002-2v-3.5a1 1 0 112 0V25a4 4 0 01-4 4H10a4 4 0 01-4-4v-3.5a1 1 0 112 0V25a2 2 0 002 2zM7 16a1 1 0 11-2 0 1 1 0 012 0m4 0a1 1 0 11-2 0 1 1 0 012 0m3 1a1 1 0 100-2 1 1 0 000 2m5-1a1 1 0 11-2 0 1 1 0 012 0m3 1a1 1 0 100-2 1 1 0 000 2m5-1a1 1 0 11-2 0 1 1 0 012 0" clip-rule="evenodd"/></svg>