<svg xmlns="http://www.w3.org/2000/svg" width="16" height="16" viewBox="0 0 16 16"><path fill="currentColor" fill-rule="evenodd" d="M4.046 2.007a1 1 0 00-1 1v1.5a.5.5 0 11-1 0v-1.5a2 2 0 012-2h8a2 2 0 012 2v1.5a.5.5 0 01-1 0v-1.5a1 1 0 00-1-1zM4 14a1 1 0 01-1-1v-1.5a.5.5 0 00-1 0V13a2 2 0 002 2h8a2 2 0 002-2v-1.5a.5.5 0 00-1 0V13a1 1 0 01-1 1zm4-5.5a.5.5 0 100-1 .5.5 0 000 1M6.5 8a.5.5 0 11-1 0 .5.5 0 011 0M4 8.5a.5.5 0 100-1 .5.5 0 000 1M2.5 8a.5.5 0 11-1 0 .5.5 0 011 0m7.5.5a.5.5 0 100-1 .5.5 0 000 1m2.5-.5a.5.5 0 11-1 0 .5.5 0 011 0m1.5.5a.5.5 0 100-1 .5.5 0 000 1" clip-rule="evenodd"/></svg>