<svg xmlns="http://www.w3.org/2000/svg" width="24" height="24" viewBox="0 0 24 24"><path fill="currentColor" fill-rule="evenodd" d="m13.67 4.604 2.416 2.416-5.922 5.922-2.416-2.416zm-2.445 9.398 5.922-5.922 2.416 2.416-5.922 5.922zm-4.537-2.416L4.83 13.443a1.5 1.5 0 000 2.12l3.772 3.772a1.5 1.5 0 002.121 0l1.856-1.856zm6.982-9.104 1.06 1.061 5.893 5.893 1.061 1.06-1.06 1.061-8.84 8.839a3 3 0 01-4.242 0l-3.771-3.771a3 3 0 010-4.243l8.839-8.839zM15.75 19.5a.75.75 0 000 1.5h4.5a.75.75 0 000-1.5z" clip-rule="evenodd"/></svg>