<svg xmlns="http://www.w3.org/2000/svg" width="12" height="12" viewBox="0 0 12 12"><g fill="none"><g clip-path="url(#svgID0)"><path fill="currentColor" fill-rule="evenodd" d="m6.74 2.355 1.015 1.014-3.312 3.312-1.015-1.015zM5.15 7.388l3.312-3.311 1.015 1.015-3.312 3.311zM2.721 6.373l-.711.712a.5.5 0 000 .707l2.03 2.03a.5.5 0 00.707 0l.711-.712zM6.74.94l.707.708 2.737 2.736.707.708-.707.707-4.73 4.73a1.5 1.5 0 01-2.122 0l-2.03-2.03a1.5 1.5 0 010-2.121l4.73-4.73zm.915 9.14a.5.5 0 000 1h2.965a.5.5 0 100-1z" clip-rule="evenodd"/></g><defs><clipPath id="svgID0"><path fill="#fff" d="M0 0h12v12H0z"/></clipPath></defs></g></svg>