<svg xmlns="http://www.w3.org/2000/svg" width="20" height="20" viewBox="0 0 20 20"><path fill="currentColor" fill-rule="evenodd" d="M4.45 9.5H2.5v1h1.95zM2.5 8A1.5 1.5 0 001 9.5v1A1.5 1.5 0 002.5 12h1.95a1.5 1.5 0 001.5-1.5v-1A1.5 1.5 0 004.45 8zm8.7 1.5H8.8v1h2.4zM8.8 8a1.5 1.5 0 00-1.5 1.5v1A1.5 1.5 0 008.8 12h2.4a1.5 1.5 0 001.5-1.5v-1A1.5 1.5 0 0011.2 8zm6.75 1.5h1.95v1h-1.95zm-1.5 0a1.5 1.5 0 011.5-1.5h1.95A1.5 1.5 0 0119 9.5v1a1.5 1.5 0 01-1.5 1.5h-1.95a1.5 1.5 0 01-1.5-1.5z" clip-rule="evenodd"/></svg>