<svg xmlns="http://www.w3.org/2000/svg" width="12" height="12" viewBox="0 0 12 12"><g fill="none"><g clip-path="url(#svgID0)"><path fill="currentColor" fill-rule="evenodd" d="M10.703 2.708 9.409 1.414l-.955.955 1.294 1.293zM2.288 8.536l5.46-5.46L9.04 4.37 3.58 9.83l-1.658.364zm1.793 2.207 7.329-7.328a1 1 0 000-1.415L10.116.707a1 1 0 00-1.414 0L1.374 8.035.946 9.98a1 1 0 001.192 1.192zm3.573-.664a.5.5 0 000 1h2.965a.5.5 0 100-1z" clip-rule="evenodd"/></g><defs><clipPath id="svgID0"><path fill="#fff" d="M0 0h12v12H0z"/></clipPath></defs></g></svg>