<svg xmlns="http://www.w3.org/2000/svg" width="20" height="20" viewBox="0 0 20 20"><path fill="currentColor" fill-rule="evenodd" d="M6.5 3.5h-2a1 1 0 00-1 1v11a1 1 0 001 1h2a1 1 0 001-1v-11a1 1 0 00-1-1M4.5 2A2.5 2.5 0 002 4.5v11A2.5 2.5 0 004.5 18h2A2.5 2.5 0 009 15.5v-11A2.5 2.5 0 006.5 2zm6.988 1.75a.75.75 0 01.75-.75h6.006a.75.75 0 010 1.5h-6.006a.75.75 0 01-.75-.75m.75 5.25a.75.75 0 000 1.5h6.006a.75.75 0 000-1.5zm-.75-2.25a.75.75 0 01.75-.75h4.015a.75.75 0 010 1.5h-4.015a.75.75 0 01-.75-.75m.75 5.25a.75.75 0 000 1.5h4.015a.75.75 0 000-1.5z" clip-rule="evenodd"/></svg>