<svg xmlns="http://www.w3.org/2000/svg" width="12" height="12" viewBox="0 0 12 12"><path fill="currentColor" fill-rule="evenodd" d="M1.5 2h9a.5.5 0 01.5.5v7a.5.5 0 01-.5.5h-9a.5.5 0 01-.5-.5v-7a.5.5 0 01.5-.5M0 2.5A1.5 1.5 0 011.5 1h9A1.5 1.5 0 0112 2.5v7a1.5 1.5 0 01-1.5 1.5h-9A1.5 1.5 0 010 9.5zm4.192 4 .912.912a.5.5 0 01-.708.707L2.63 6.351l-.354-.353.354-.354 1.767-1.768a.5.5 0 01.708.708l-.917.916h3.621l-.912-.912a.5.5 0 11.708-.707L9.37 5.649l.354.353-.354.354-1.767 1.768a.5.5 0 01-.708-.708l.917-.916z" clip-rule="evenodd"/></svg>