<svg xmlns="http://www.w3.org/2000/svg" width="16" height="16" viewBox="0 0 16 16"><path fill="currentColor" fill-rule="evenodd" d="M3 3h10a1 1 0 011 1v8a1 1 0 01-1 1H3a1 1 0 01-1-1V4a1 1 0 011-1M1 4a2 2 0 012-2h10a2 2 0 012 2v8a2 2 0 01-2 2H3a2 2 0 01-2-2zm4.584 4.5 1.27 1.27a.5.5 0 01-.708.706l-2.12-2.121L3.671 8l.353-.353 2.121-2.122a.5.5 0 11.708.708L5.587 7.5h4.819l-1.26-1.26a.5.5 0 11.708-.706l2.12 2.121.354.354-.353.353-2.121 2.122a.5.5 0 01-.708-.708L10.423 8.5z" clip-rule="evenodd"/></svg>