<svg xmlns="http://www.w3.org/2000/svg" width="20" height="20" viewBox="0 0 20 20"><path fill="currentColor" fill-rule="evenodd" d="M15.088 15.088a7.5 7.5 0 11.84-2.538A6 6 0 007.45 4.073a7.5 7.5 0 00-2.539.84 7.5 7.5 0 1110.176 10.175M8.5 17.5a6 6 0 100-12 6 6 0 000 12M6.344 9.819a1.1 1.1 0 00-.28.215c-.368.37-.39.644-.318.953.102.43.434.983.992 1.597.537.59 1.174 1.12 1.694 1.51l.068.05.067-.05c.52-.39 1.158-.92 1.694-1.51.559-.614.891-1.167.992-1.597.073-.309.05-.584-.318-.953a1.1 1.1 0 00-.279-.215.2.2 0 00-.086-.028c-.02-.001-.097 0-.248.09-.153.09-.306.226-.431.362a2 2 0 00-.158.189v.001a1.5 1.5 0 01-2.466 0l-.001-.002.001.002v-.001l-.026-.034a2 2 0 00-.132-.155 2 2 0 00-.431-.363c-.152-.089-.228-.09-.248-.089a.2.2 0 00-.086.028m3.267-1.26C8.938 8.936 8.5 9.58 8.5 9.58s-.438-.643-1.111-1.02c-.64-.358-1.492-.478-2.385.415-2.996 2.995 3.496 6.99 3.496 6.99s6.492-3.995 3.496-6.991c-.893-.893-1.745-.773-2.385-.415" clip-rule="evenodd"/></svg>