<svg xmlns="http://www.w3.org/2000/svg" width="16" height="16" viewBox="0 0 16 16"><path fill="currentColor" fill-rule="evenodd" d="M3.389 3H2.5a.5.5 0 00-.5.5v9a.5.5 0 00.5.5h.889a.5.5 0 00.5-.5v-9a.5.5 0 00-.5-.5M2.5 2A1.5 1.5 0 001 3.5v9A1.5 1.5 0 002.5 14h.889a1.5 1.5 0 001.5-1.5v-9a1.5 1.5 0 00-1.5-1.5zm11 1h-.889a.5.5 0 00-.5.5v9a.5.5 0 00.5.5h.889a.5.5 0 00.5-.5v-9a.5.5 0 00-.5-.5m-.889-1a1.5 1.5 0 00-1.5 1.5v9a1.5 1.5 0 001.5 1.5h.889a1.5 1.5 0 001.5-1.5v-9A1.5 1.5 0 0013.5 2zM7.556 3h.888a.5.5 0 01.5.5v9a.5.5 0 01-.5.5h-.888a.5.5 0 01-.5-.5v-9a.5.5 0 01.5-.5m-1.5.5a1.5 1.5 0 011.5-1.5h.888a1.5 1.5 0 011.5 1.5v9a1.5 1.5 0 01-1.5 1.5h-.888a1.5 1.5 0 01-1.5-1.5z" clip-rule="evenodd"/></svg>