<svg xmlns="http://www.w3.org/2000/svg" width="20" height="20" viewBox="0 0 20 20"><path fill="currentColor" fill-rule="evenodd" d="M4 3.5H3a.5.5 0 00-.5.5v12a.5.5 0 00.5.5h1a.5.5 0 00.5-.5V4a.5.5 0 00-.5-.5M3 2a2 2 0 00-2 2v12a2 2 0 002 2h1a2 2 0 002-2V4a2 2 0 00-2-2zm14 1.5h-1a.5.5 0 00-.5.5v12a.5.5 0 00.5.5h1a.5.5 0 00.5-.5V4a.5.5 0 00-.5-.5M16 2a2 2 0 00-2 2v12a2 2 0 002 2h1a2 2 0 002-2V4a2 2 0 00-2-2zM9.5 3.5h1a.5.5 0 01.5.5v12a.5.5 0 01-.5.5h-1A.5.5 0 019 16V4a.5.5 0 01.5-.5m-2 .5a2 2 0 012-2h1a2 2 0 012 2v12a2 2 0 01-2 2h-1a2 2 0 01-2-2z" clip-rule="evenodd"/></svg>