<svg xmlns="http://www.w3.org/2000/svg" width="20" height="20" viewBox="0 0 20 20"><path fill="currentColor" d="M15.068 2.514A2.71 2.71 0 0117.5 5.208v7.084l-.014.276a2.71 2.71 0 01-2.418 2.418l-.079.003-.003.08a2.71 2.71 0 01-2.418 2.417l-.276.014H5.208a2.71 2.71 0 01-2.694-2.432l-.014-.276V7.708A2.706 2.706 0 015.01 5.01 2.706 2.706 0 017.708 2.5h7.084zm-4.146 11.792A3.73 3.73 0 018.75 15c-.81 0-1.56-.258-2.173-.694L4.72 16.164q.23.084.489.086h7.084c.172 0 .335-.032.488-.086zM3.835 7.219a1.5 1.5 0 00-.085.489v7.084q.001.257.085.488l1.858-1.858A3.73 3.73 0 015 11.25c0-.81.257-1.56.693-2.173zm7.97 1.858c.437.613.695 1.363.695 2.173s-.258 1.559-.694 2.172l1.858 1.858q.084-.23.086-.488V7.708q-.002-.258-.086-.49zm-4.324 4.324a2.49 2.49 0 002.537 0l-1.269-1.268zm.227-9.651c-.734 0-1.34.543-1.441 1.25h6.025l.276.014A2.71 2.71 0 0115 7.708v6.025a1.46 1.46 0 001.25-1.441V5.208c0-.805-.653-1.458-1.458-1.458zm-1.11 6.231a2.49 2.49 0 000 2.537l1.267-1.269zm3.035 1.268 1.268 1.269a2.49 2.49 0 000-2.537zM8.75 8.75a2.5 2.5 0 00-1.269.348l1.268 1.267 1.269-1.267A2.5 2.5 0 008.75 8.75m-3.542-2.5q-.258.001-.49.085l1.86 1.858A3.73 3.73 0 018.75 7.5c.81 0 1.559.257 2.172.693l1.858-1.858a1.5 1.5 0 00-.488-.085z"/></svg>