<svg xmlns="http://www.w3.org/2000/svg" width="24" height="24" viewBox="0 0 24 24"><path fill="currentColor" d="M17.75 3A3.25 3.25 0 0121 6.25v8.5a3.25 3.25 0 01-3.01 3.24 3.25 3.25 0 01-3.073 3.006L14.75 21h-8.5l-.167-.004a3.25 3.25 0 01-3.08-3.079L3 17.75v-8.5a3.25 3.25 0 013.009-3.241A3.25 3.25 0 019.25 3zm-4.645 14.167A4.5 4.5 0 0110.5 18c-.972 0-1.87-.31-2.606-.833l-2.23 2.23c.183.065.38.103.586.103h8.5c.206 0 .402-.038.585-.104zM4.603 8.663q-.101.276-.103.587v8.5c0 .206.037.403.103.586l2.229-2.23A4.5 4.5 0 016 13.5c0-.972.308-1.87.832-2.606zm9.564 2.23c.524.736.833 1.635.833 2.607s-.31 1.87-.833 2.605l2.23 2.23c.065-.183.103-.38.103-.585v-8.5c0-.206-.038-.402-.104-.586zm-5.188 5.189a2.98 2.98 0 003.042 0l-1.522-1.522zM9.25 4.5c-.882 0-1.609.652-1.73 1.5h7.23A3.25 3.25 0 0118 9.25v7.23a1.75 1.75 0 001.5-1.73v-8.5a1.75 1.75 0 00-1.75-1.75zm-1.333 7.479a2.98 2.98 0 000 3.042l1.52-1.522zm3.643 1.52 1.522 1.521a2.98 2.98 0 000-3.041zM10.5 10.5c-.556 0-1.075.153-1.521.417l1.52 1.52 1.521-1.52a3 3 0 00-1.52-.417m-4.25-3c-.206 0-.403.037-.587.103l2.23 2.229A4.5 4.5 0 0110.5 9c.971 0 1.87.309 2.605.832l2.23-2.23a1.7 1.7 0 00-.585-.102z"/></svg>