<svg xmlns="http://www.w3.org/2000/svg" width="12" height="12" viewBox="0 0 12 12"><path fill="currentColor" d="M8.875 1.5c.897 0 1.625.728 1.625 1.625v4.25c0 .841-.64 1.533-1.459 1.616l-.048.002a1.62 1.62 0 01-1.452 1.498l-.166.009h-4.25l-.166-.009a1.625 1.625 0 01-1.45-1.45L1.5 8.875v-4.25c0-.857.664-1.558 1.506-1.62A1.624 1.624 0 014.625 1.5zM6.552 8.582a2.24 2.24 0 01-2.605 0L2.831 9.698q.138.05.294.052h4.25q.155-.002.293-.052zM2.3 4.331a.9.9 0 00-.051.294v4.25q.001.155.05.293l1.117-1.116a2.24 2.24 0 010-2.605zm4.781 1.116a2.24 2.24 0 010 2.605l1.116 1.116a.9.9 0 00.052-.293v-4.25a.9.9 0 00-.052-.294zM4.488 8.041a1.49 1.49 0 001.523 0l-.762-.762zm.137-5.791A.874.874 0 003.76 3h3.615C8.272 3 9 3.728 9 4.625v3.614a.874.874 0 00.75-.864v-4.25a.875.875 0 00-.875-.875zm-.667 3.738a1.49 1.49 0 000 1.523l.76-.762zm1.821.761.762.762a1.49 1.49 0 000-1.523zM5.25 5.25c-.278 0-.538.076-.762.208l.761.76.762-.76a1.5 1.5 0 00-.761-.208m-2.125-1.5a.9.9 0 00-.294.05l1.116 1.117a2.24 2.24 0 012.605 0l1.116-1.116a.9.9 0 00-.293-.051z"/></svg>