<svg xmlns="http://www.w3.org/2000/svg" width="32" height="32" viewBox="0 0 32 32"><path fill="currentColor" d="M23.89 4.006A4.333 4.333 0 0128 8.333v11.334l-.006.223a4.33 4.33 0 01-4.008 4.096 4.33 4.33 0 01-4.096 4.008l-.223.006H8.333a4.333 4.333 0 01-4.327-4.11L4 23.667V12.333a4.333 4.333 0 014.013-4.32A4.333 4.333 0 0112.333 4h11.334zm-6.415 18.883A5.97 5.97 0 0114 24a5.97 5.97 0 01-3.476-1.111l-2.973 2.973c.245.088.507.138.782.138h11.334c.274 0 .537-.05.781-.138zM6.137 11.55a2.3 2.3 0 00-.137.782v11.334c0 .274.05.537.137.781l2.973-2.973A5.97 5.97 0 018 18c0-1.296.412-2.495 1.11-3.476zm12.752 2.973A5.97 5.97 0 0120 18a5.97 5.97 0 01-1.111 3.475l2.973 2.973c.087-.244.138-.507.138-.781V12.333c0-.275-.05-.537-.138-.782zm-6.921 6.921A4 4 0 0014 22a4 4 0 002.031-.555L14 19.413zM12.333 6c-1.175 0-2.145.87-2.307 2h9.641l.223.006A4.333 4.333 0 0124 12.333v9.64a2.33 2.33 0 002-2.306V8.333A2.333 2.333 0 0023.667 6zm-1.78 9.968A4 4 0 0010 18c0 .742.202 1.436.554 2.031L12.585 18zm4.86 2.031 2.032 2.032A4 4 0 0018 18a4 4 0 00-.555-2.032zM14 14c-.742 0-1.437.202-2.032.554l2.031 2.031 2.032-2.031A4 4 0 0014 14m-5.667-4c-.275 0-.537.05-.782.137l2.973 2.973A5.97 5.97 0 0114 12a5.97 5.97 0 013.475 1.11l2.973-2.973a2.3 2.3 0 00-.781-.137z"/></svg>