<svg xmlns="http://www.w3.org/2000/svg" width="16" height="16" viewBox="0 0 16 16"><path fill="currentColor" d="M11.833 2C13.03 2 14 2.97 14 4.167v5.666a2.166 2.166 0 01-2.008 2.16A2.166 2.166 0 019.833 14H4.167l-.222-.01A2.17 2.17 0 012 11.832V6.167c0-1.122.853-2.045 1.945-2.156l.062-.004A2.17 2.17 0 015.945 2.01L6.167 2zm-3.097 9.443a2.98 2.98 0 01-3.473 0l-1.488 1.488c.123.043.254.069.392.069h5.666c.137 0 .268-.026.39-.07zM3.068 5.775A1.2 1.2 0 003 6.167v5.666q.002.206.068.39l1.488-1.487A3 3 0 014 9c0-.648.207-1.247.556-1.737zm6.375 1.488a2.98 2.98 0 010 3.473l1.488 1.488c.043-.123.069-.254.069-.391V6.167c0-.138-.026-.269-.07-.392zM5.985 10.72a1.99 1.99 0 002.029 0L6.999 9.706zM6.167 3c-.588 0-1.073.435-1.154 1h4.82C11.03 4 12 4.97 12 6.167v4.82c.565-.082 1-.566 1-1.154V4.167C13 3.523 12.477 3 11.833 3zm-.889 4.985a1.99 1.99 0 000 2.029l1.014-1.015zM7.706 9l1.015 1.015a1.99 1.99 0 000-2.029zM7 7a2 2 0 00-1.015.278L7 8.292l1.015-1.014A2 2 0 007 7M4.167 5q-.207.002-.392.068l1.488 1.488A2.98 2.98 0 017 6a3 3 0 011.736.556l1.488-1.488A1.2 1.2 0 009.833 5z"/></svg>