<svg xmlns="http://www.w3.org/2000/svg" width="20" height="20" viewBox="0 0 20 20"><path fill="currentColor" fill-rule="evenodd" d="M3.5 4.5h13a1 1 0 011 1v9a1 1 0 01-1 1h-13a1 1 0 01-1-1v-9a1 1 0 011-1M1 5.5A2.5 2.5 0 013.5 3h13A2.5 2.5 0 0119 5.5v9a2.5 2.5 0 01-2.5 2.5h-13A2.5 2.5 0 011 14.5zm4.908 1.53a.75.75 0 011.06 0l2.618 2.617.53.53-.53.531-2.617 2.618a.75.75 0 11-1.06-1.061l2.086-2.087L5.908 8.09a.75.75 0 010-1.06m3.862 5.73a.75.75 0 01.75-.75h2.943a.75.75 0 010 1.5H10.52a.75.75 0 01-.75-.75" clip-rule="evenodd"/></svg>