<svg xmlns="http://www.w3.org/2000/svg" width="24" height="24" viewBox="0 0 24 24"><path fill="currentColor" fill-rule="evenodd" d="M5 5.5h14A1.5 1.5 0 0120.5 7v10a1.5 1.5 0 01-1.5 1.5H5A1.5 1.5 0 013.5 17V7A1.5 1.5 0 015 5.5M2 7a3 3 0 013-3h14a3 3 0 013 3v10a3 3 0 01-3 3H5a3 3 0 01-3-3zm5.4 1.47a.75.75 0 011.06 0l2.992 2.991.53.53-.53.53-2.992 2.992a.75.75 0 01-1.06-1.06l2.46-2.461L7.4 9.53a.75.75 0 010-1.06m4.338 6.28a.75.75 0 01.75-.75h3.576a.75.75 0 110 1.5h-3.576a.75.75 0 01-.75-.75" clip-rule="evenodd"/></svg>