<svg xmlns="http://www.w3.org/2000/svg" width="12" height="12" viewBox="0 0 12 12"><path fill="currentColor" fill-rule="evenodd" d="M1.5 2h9a.5.5 0 01.5.5v7a.5.5 0 01-.5.5h-9a.5.5 0 01-.5-.5v-7a.5.5 0 01.5-.5M0 2.5A1.5 1.5 0 011.5 1h9A1.5 1.5 0 0112 2.5v7a1.5 1.5 0 01-1.5 1.5h-9A1.5 1.5 0 010 9.5zm3.146 1.566a.5.5 0 01.708 0l1.59 1.591.354.354-.353.353-1.591 1.591a.5.5 0 11-.708-.707l1.238-1.237-1.238-1.238a.5.5 0 010-.707M6 7.5a.5.5 0 01.5-.5h2a.5.5 0 010 1h-2a.5.5 0 01-.5-.5" clip-rule="evenodd"/></svg>