<svg xmlns="http://www.w3.org/2000/svg" width="12" height="12" viewBox="0 0 12 12"><g fill="none"><g clip-path="url(#svgID0)"><path fill="currentColor" fill-rule="evenodd" d="M1.5 1h4a.5.5 0 01.5.5v7a.5.5 0 01-.5.5h-4a.5.5 0 01-.5-.5v-7a.5.5 0 01.5-.5m.5 9h-.5A1.5 1.5 0 010 8.5v-7A1.5 1.5 0 011.5 0h4A1.5 1.5 0 017 1.5V5h3.5A1.5 1.5 0 0112 6.5v4a1.5 1.5 0 01-1.5 1.5h-7A1.5 1.5 0 012 10.5zm1 0v.5a.5.5 0 00.5.5h7a.5.5 0 00.5-.5v-4a.5.5 0 00-.5-.5H7v2.5A1.5 1.5 0 015.5 10z" clip-rule="evenodd"/></g><defs><clipPath id="svgID0"><path fill="#fff" d="M0 0h12v12H0z"/></clipPath></defs></g></svg>