<svg xmlns="http://www.w3.org/2000/svg" width="12" height="12" viewBox="0 0 12 12"><g fill="none"><g clip-path="url(#svgID0)"><path fill="currentColor" fill-rule="evenodd" d="M5.5 10a4.5 4.5 0 100-9 4.5 4.5 0 000 9m4.203-.952a5.5 5.5 0 10-.655.655q.036.088.108.16l1.77 1.77a.5.5 0 10.706-.708l-1.77-1.77a.5.5 0 00-.16-.107M6 3.5a.5.5 0 00-1 0V5H3.5a.5.5 0 000 1H5v1.5a.5.5 0 001 0V6h1.5a.5.5 0 000-1H6z" clip-rule="evenodd"/></g><defs><clipPath id="svgID0"><path fill="#fff" d="M0 0h12v12H0z"/></clipPath></defs></g></svg>