<svg xmlns="http://www.w3.org/2000/svg" width="12" height="12" viewBox="0 0 12 12"><g fill="none"><g clip-path="url(#svgID0)"><path fill="currentColor" fill-rule="evenodd" d="M11.354 1.354a.5.5 0 00-.707-.708L8 3.293V1.5h-.5.5a.5.5 0 00-1 0h.5H7V5h3.5a.5.5 0 000-1H8.707zm-10.708 10a.5.5 0 010-.707L3.293 8H1.5a.5.5 0 010-1H5v3.5H4V8.706l-2.646 2.647a.5.5 0 01-.708 0M4.5 10.5H5a.5.5 0 01-1 0z" clip-rule="evenodd"/></g><defs><clipPath id="svgID0"><path fill="#fff" d="M0 0h12v12H0z"/></clipPath></defs></g></svg>