<svg xmlns="http://www.w3.org/2000/svg" width="12" height="12" viewBox="0 0 12 12"><path fill="currentColor" fill-rule="evenodd" d="M3.5 2h-2a.5.5 0 00-.5.5v7a.5.5 0 00.5.5h2a.5.5 0 00.5-.5v-7a.5.5 0 00-.5-.5m-2-1A1.5 1.5 0 000 2.5v7A1.5 1.5 0 001.5 11h2A1.5 1.5 0 005 9.5v-7A1.5 1.5 0 003.5 1zM7 2.5a.5.5 0 01.5-.5h4a.5.5 0 010 1h-4a.5.5 0 01-.5-.5M7.5 6a.5.5 0 000 1h4a.5.5 0 000-1zM7 4.5a.5.5 0 01.5-.5h2a.5.5 0 010 1h-2a.5.5 0 01-.5-.5M7.5 8a.5.5 0 000 1h2a.5.5 0 000-1z" clip-rule="evenodd"/></svg>