<svg xmlns="http://www.w3.org/2000/svg" width="20" height="20" viewBox="0 0 20 20"><path fill="currentColor" fill-rule="evenodd" d="M3.5 3.5h2a1 1 0 011 1v11a1 1 0 01-1 1h-2a1 1 0 01-1-1v-11a1 1 0 011-1M1 4.5A2.5 2.5 0 013.5 2h2A2.5 2.5 0 018 4.5v11A2.5 2.5 0 015.5 18h-2A2.5 2.5 0 011 15.5zm10.049-.75a.75.75 0 01.75-.75h6.396a.75.75 0 110 1.5h-6.396a.75.75 0 01-.75-.75m0 6a.75.75 0 01.75-.75h6.396a.75.75 0 110 1.5h-6.396a.75.75 0 01-.75-.75m.75-3.75a.75.75 0 000 1.5h4.276a.75.75 0 000-1.5zm-.75 6.75a.75.75 0 01.75-.75h4.276a.75.75 0 010 1.5h-4.276a.75.75 0 01-.75-.75" clip-rule="evenodd"/></svg>