<svg xmlns="http://www.w3.org/2000/svg" width="24" height="24" viewBox="0 0 24 24"><path fill="currentColor" fill-rule="evenodd" d="M8 4.5H5A1.5 1.5 0 003.5 6v12A1.5 1.5 0 005 19.5h3A1.5 1.5 0 009.5 18V6A1.5 1.5 0 008 4.5M5 3a3 3 0 00-3 3v12a3 3 0 003 3h3a3 3 0 003-3V6a3 3 0 00-3-3zm8.488 2.75a.75.75 0 01.75-.75h7.015a.75.75 0 010 1.5h-7.015a.75.75 0 01-.75-.75m.75 5.25a.75.75 0 000 1.5h7.015a.75.75 0 000-1.5zm-.75-2.25a.75.75 0 01.75-.75h4.015a.75.75 0 010 1.5h-4.015a.75.75 0 01-.75-.75m.75 5.25a.75.75 0 000 1.5h4.015a.75.75 0 000-1.5z" clip-rule="evenodd"/></svg>