<svg width="150" height="150" viewBox="0 0 150 150" fill="none" xmlns="http://www.w3.org/2000/svg">
    <path d="M52.4152 8.18307L51.1817 20.7986L49.9595 36.3534L46.7641 53.769L47.7749 67.4908L46 83L57.1902 77.6319L69.1112 73.5824L80.1716 67.6794L91.4402 62.2153L102.689 56.6857L114 51.7107L106.793 46.2762L98.8041 38.4261L77.5538 24.485L61.5477 13.9246L53.3635 8L52.4152 8.18307Z" fill="#F1F1F1"/>
    <path d="M56.3854 143L67.3806 135.631L78 117.827L72.3067 93.164L58.2509 81.2836L48.6021 80L37.4608 81.1273L22.428 90.2226L14 104.983L22.7436 112.33L28.4891 117.764L31.0033 120.83L35.5167 123.971L46.8077 134.394L51.4577 139.817L55.7638 142.939L56.3854 143Z" fill="#F1F1F1"/>
    <path d="M126.4 102.61L131.339 98.4674L137 90.2832L136.746 84.4591L136.169 77.644L131.944 73.8088L117.027 64.8149L105.081 61.391L95.1543 58L90.8586 69.9936L86.0928 82.0488L82.6509 94.5653L77.852 106.614L75 118.711L84.248 122.746L94.4221 126.266L118.166 127L127.493 117.808L128.153 110.062L127.175 106.101L126.4 102.61Z" fill="#F1F1F1"/>
</svg>
