<svg width="102" height="98" viewBox="0 0 102 98" fill="none" xmlns="http://www.w3.org/2000/svg">
    <mask id="path-1-outside-1" maskUnits="userSpaceOnUse" x="0" y="0" width="102" height="98" fill="black">
        <rect fill="white" width="102" height="98"/>
        <path d="M98.2916 67.2138L87.0423 60.6769C86.2179 60.1983 85.5335 59.5095 85.058 58.6798C84.5825 57.8501 84.3327 56.9089 84.3339 55.9511V42.8826C84.3347 41.9248 84.0848 40.9838 83.6093 40.1542C83.1339 39.3245 82.4496 38.6356 81.6255 38.1567L70.3761 31.6199C69.5518 31.1413 68.8674 30.4525 68.3919 29.6228C67.9164 28.7931 67.6666 27.8519 67.6678 26.8941V13.8272C67.6686 12.8695 67.4187 11.9284 66.9432 11.0988C66.4678 10.2692 65.7835 9.58027 64.9594 9.1014L50.9983 1L37.0406 9.10984C36.2162 9.58844 35.5318 10.2773 35.0563 11.107C34.5808 11.9367 34.3311 12.8779 34.3322 13.8357V26.9093C34.333 27.867 34.0831 28.8081 33.6077 29.6377C33.1322 30.4673 32.448 31.1562 31.6238 31.6351L20.3745 38.1719C19.5504 38.6508 18.8661 39.3397 18.3907 40.1693C17.9152 40.999 17.6653 41.94 17.6661 42.8977V55.9714C17.6669 56.9291 17.417 57.8702 16.9416 58.6998C16.4661 59.5294 15.7819 60.2183 14.9577 60.6972L3.70837 67.2138C2.88521 67.6925 2.20164 68.3806 1.72626 69.2092C1.25088 70.0378 1.00042 70.9777 1 71.9345L1 88.1593L14.9577 96.2691C15.7811 96.7479 16.7152 97 17.6661 97C18.617 97 19.5511 96.7479 20.3745 96.2691L31.6238 89.7323C32.4472 89.2535 33.3813 89.0014 34.3322 89.0014C35.2831 89.0014 36.2172 89.2535 37.0406 89.7323L48.2916 96.2691C49.115 96.7479 50.0491 97 51 97C51.9509 97 52.885 96.7479 53.7084 96.2691L64.9577 89.7323C65.7811 89.2535 66.7152 89.0014 67.6661 89.0014C68.617 89.0014 69.5511 89.2535 70.3745 89.7323L81.6238 96.2691C82.4472 96.7479 83.3813 97 84.3322 97C85.2831 97 86.2172 96.7479 87.0406 96.2691L101 88.1559V71.9345C101 70.9777 100.749 70.0378 100.274 69.2092C99.7984 68.3806 99.1148 67.6925 98.2916 67.2138V67.2138ZM2.34161 71.9345C2.34443 71.2162 2.53398 70.5111 2.89143 69.8893C3.24888 69.2675 3.76179 68.7507 4.37917 68.3902L15.6285 61.8449C16.6542 61.2466 17.5059 60.3878 18.0986 59.3545C18.6913 58.3211 19.0042 57.1493 19.006 55.9562V42.8826C19.0074 42.1628 19.1963 41.4559 19.5538 40.8325C19.9113 40.2091 20.425 39.691 21.0436 39.3298L32.2946 32.7929C33.3203 32.1946 34.1721 31.3359 34.7647 30.3025C35.3574 29.2692 35.6703 28.0974 35.6721 26.9042V13.8272C35.675 13.1089 35.8645 12.4038 36.222 11.782C36.5794 11.1602 37.0923 10.6434 37.7097 10.2829L50.3275 2.95109V58.7225L2.34161 86.5997V71.9345ZM86.3698 95.1011C85.7504 95.4616 85.0476 95.6514 84.3322 95.6514C83.6168 95.6514 82.914 95.4616 82.2946 95.1011L71.0436 88.5643C70.0168 87.9673 68.8519 87.653 67.6661 87.653C66.4803 87.653 65.3154 87.9673 64.2886 88.5643L53.0376 95.1011C52.4182 95.4616 51.7154 95.6514 51 95.6514C50.2846 95.6514 49.5818 95.4616 48.9624 95.1011L37.7114 88.5643C36.6846 87.9673 35.5197 87.653 34.3339 87.653C33.1481 87.653 31.9832 87.9673 30.9564 88.5643L19.7053 95.1011C19.086 95.4616 18.3832 95.6514 17.6678 95.6514C16.9523 95.6514 16.2495 95.4616 15.6302 95.1011L3.01241 87.7694L50.9966 59.8837L98.9842 87.7694L86.3698 95.1011ZM99.6601 86.6048L51.6658 58.7225V2.94602L64.2903 10.2829C64.9077 10.6434 65.4206 11.1602 65.778 11.782C66.1355 12.4038 66.325 13.1089 66.3278 13.8272V26.9009C66.3297 28.094 66.6426 29.2658 67.2353 30.2991C67.8279 31.3325 68.6797 32.1912 69.7053 32.7896L80.9564 39.3264C81.575 39.6876 82.0887 40.2058 82.4462 40.8291C82.8037 41.4525 82.9926 42.1594 82.994 42.8792V55.9528C82.9958 57.146 83.3087 58.3177 83.9014 59.3511C84.494 60.3844 85.3458 61.2432 86.3715 61.8415L97.6208 68.3783C98.2386 68.7385 98.752 69.2552 99.1097 69.877C99.4675 70.4989 99.6572 71.2042 99.6601 71.9227V86.6048Z"/>
    </mask>
    <path d="M98.2916 67.2138L87.0423 60.6769C86.2179 60.1983 85.5335 59.5095 85.058 58.6798C84.5825 57.8501 84.3327 56.9089 84.3339 55.9511V42.8826C84.3347 41.9248 84.0848 40.9838 83.6093 40.1542C83.1339 39.3245 82.4496 38.6356 81.6255 38.1567L70.3761 31.6199C69.5518 31.1413 68.8674 30.4525 68.3919 29.6228C67.9164 28.7931 67.6666 27.8519 67.6678 26.8941V13.8272C67.6686 12.8695 67.4187 11.9284 66.9432 11.0988C66.4678 10.2692 65.7835 9.58027 64.9594 9.1014L50.9983 1L37.0406 9.10984C36.2162 9.58844 35.5318 10.2773 35.0563 11.107C34.5808 11.9367 34.3311 12.8779 34.3322 13.8357V26.9093C34.333 27.867 34.0831 28.8081 33.6077 29.6377C33.1322 30.4673 32.448 31.1562 31.6238 31.6351L20.3745 38.1719C19.5504 38.6508 18.8661 39.3397 18.3907 40.1693C17.9152 40.999 17.6653 41.94 17.6661 42.8977V55.9714C17.6669 56.9291 17.417 57.8702 16.9416 58.6998C16.4661 59.5294 15.7819 60.2183 14.9577 60.6972L3.70837 67.2138C2.88521 67.6925 2.20164 68.3806 1.72626 69.2092C1.25088 70.0378 1.00042 70.9777 1 71.9345L1 88.1593L14.9577 96.2691C15.7811 96.7479 16.7152 97 17.6661 97C18.617 97 19.5511 96.7479 20.3745 96.2691L31.6238 89.7323C32.4472 89.2535 33.3813 89.0014 34.3322 89.0014C35.2831 89.0014 36.2172 89.2535 37.0406 89.7323L48.2916 96.2691C49.115 96.7479 50.0491 97 51 97C51.9509 97 52.885 96.7479 53.7084 96.2691L64.9577 89.7323C65.7811 89.2535 66.7152 89.0014 67.6661 89.0014C68.617 89.0014 69.5511 89.2535 70.3745 89.7323L81.6238 96.2691C82.4472 96.7479 83.3813 97 84.3322 97C85.2831 97 86.2172 96.7479 87.0406 96.2691L101 88.1559V71.9345C101 70.9777 100.749 70.0378 100.274 69.2092C99.7984 68.3806 99.1148 67.6925 98.2916 67.2138V67.2138ZM2.34161 71.9345C2.34443 71.2162 2.53398 70.5111 2.89143 69.8893C3.24888 69.2675 3.76179 68.7507 4.37917 68.3902L15.6285 61.8449C16.6542 61.2466 17.5059 60.3878 18.0986 59.3545C18.6913 58.3211 19.0042 57.1493 19.006 55.9562V42.8826C19.0074 42.1628 19.1963 41.4559 19.5538 40.8325C19.9113 40.2091 20.425 39.691 21.0436 39.3298L32.2946 32.7929C33.3203 32.1946 34.1721 31.3359 34.7647 30.3025C35.3574 29.2692 35.6703 28.0974 35.6721 26.9042V13.8272C35.675 13.1089 35.8645 12.4038 36.222 11.782C36.5794 11.1602 37.0923 10.6434 37.7097 10.2829L50.3275 2.95109V58.7225L2.34161 86.5997V71.9345ZM86.3698 95.1011C85.7504 95.4616 85.0476 95.6514 84.3322 95.6514C83.6168 95.6514 82.914 95.4616 82.2946 95.1011L71.0436 88.5643C70.0168 87.9673 68.8519 87.653 67.6661 87.653C66.4803 87.653 65.3154 87.9673 64.2886 88.5643L53.0376 95.1011C52.4182 95.4616 51.7154 95.6514 51 95.6514C50.2846 95.6514 49.5818 95.4616 48.9624 95.1011L37.7114 88.5643C36.6846 87.9673 35.5197 87.653 34.3339 87.653C33.1481 87.653 31.9832 87.9673 30.9564 88.5643L19.7053 95.1011C19.086 95.4616 18.3832 95.6514 17.6678 95.6514C16.9523 95.6514 16.2495 95.4616 15.6302 95.1011L3.01241 87.7694L50.9966 59.8837L98.9842 87.7694L86.3698 95.1011ZM99.6601 86.6048L51.6658 58.7225V2.94602L64.2903 10.2829C64.9077 10.6434 65.4206 11.1602 65.778 11.782C66.1355 12.4038 66.325 13.1089 66.3278 13.8272V26.9009C66.3297 28.094 66.6426 29.2658 67.2353 30.2991C67.8279 31.3325 68.6797 32.1912 69.7053 32.7896L80.9564 39.3264C81.575 39.6876 82.0887 40.2058 82.4462 40.8291C82.8037 41.4525 82.9926 42.1594 82.994 42.8792V55.9528C82.9958 57.146 83.3087 58.3177 83.9014 59.3511C84.494 60.3844 85.3458 61.2432 86.3715 61.8415L97.6208 68.3783C98.2386 68.7385 98.752 69.2552 99.1097 69.877C99.4675 70.4989 99.6572 71.2042 99.6601 71.9227V86.6048Z" fill="#EAEBEB"/>
    <path d="M98.2916 67.2138L87.0423 60.6769C86.2179 60.1983 85.5335 59.5095 85.058 58.6798C84.5825 57.8501 84.3327 56.9089 84.3339 55.9511V42.8826C84.3347 41.9248 84.0848 40.9838 83.6093 40.1542C83.1339 39.3245 82.4496 38.6356 81.6255 38.1567L70.3761 31.6199C69.5518 31.1413 68.8674 30.4525 68.3919 29.6228C67.9164 28.7931 67.6666 27.8519 67.6678 26.8941V13.8272C67.6686 12.8695 67.4187 11.9284 66.9432 11.0988C66.4678 10.2692 65.7835 9.58027 64.9594 9.1014L50.9983 1L37.0406 9.10984C36.2162 9.58844 35.5318 10.2773 35.0563 11.107C34.5808 11.9367 34.3311 12.8779 34.3322 13.8357V26.9093C34.333 27.867 34.0831 28.8081 33.6077 29.6377C33.1322 30.4673 32.448 31.1562 31.6238 31.6351L20.3745 38.1719C19.5504 38.6508 18.8661 39.3397 18.3907 40.1693C17.9152 40.999 17.6653 41.94 17.6661 42.8977V55.9714C17.6669 56.9291 17.417 57.8702 16.9416 58.6998C16.4661 59.5294 15.7819 60.2183 14.9577 60.6972L3.70837 67.2138C2.88521 67.6925 2.20164 68.3806 1.72626 69.2092C1.25088 70.0378 1.00042 70.9777 1 71.9345L1 88.1593L14.9577 96.2691C15.7811 96.7479 16.7152 97 17.6661 97C18.617 97 19.5511 96.7479 20.3745 96.2691L31.6238 89.7323C32.4472 89.2535 33.3813 89.0014 34.3322 89.0014C35.2831 89.0014 36.2172 89.2535 37.0406 89.7323L48.2916 96.2691C49.115 96.7479 50.0491 97 51 97C51.9509 97 52.885 96.7479 53.7084 96.2691L64.9577 89.7323C65.7811 89.2535 66.7152 89.0014 67.6661 89.0014C68.617 89.0014 69.5511 89.2535 70.3745 89.7323L81.6238 96.2691C82.4472 96.7479 83.3813 97 84.3322 97C85.2831 97 86.2172 96.7479 87.0406 96.2691L101 88.1559V71.9345C101 70.9777 100.749 70.0378 100.274 69.2092C99.7984 68.3806 99.1148 67.6925 98.2916 67.2138V67.2138ZM2.34161 71.9345C2.34443 71.2162 2.53398 70.5111 2.89143 69.8893C3.24888 69.2675 3.76179 68.7507 4.37917 68.3902L15.6285 61.8449C16.6542 61.2466 17.5059 60.3878 18.0986 59.3545C18.6913 58.3211 19.0042 57.1493 19.006 55.9562V42.8826C19.0074 42.1628 19.1963 41.4559 19.5538 40.8325C19.9113 40.2091 20.425 39.691 21.0436 39.3298L32.2946 32.7929C33.3203 32.1946 34.1721 31.3359 34.7647 30.3025C35.3574 29.2692 35.6703 28.0974 35.6721 26.9042V13.8272C35.675 13.1089 35.8645 12.4038 36.222 11.782C36.5794 11.1602 37.0923 10.6434 37.7097 10.2829L50.3275 2.95109V58.7225L2.34161 86.5997V71.9345ZM86.3698 95.1011C85.7504 95.4616 85.0476 95.6514 84.3322 95.6514C83.6168 95.6514 82.914 95.4616 82.2946 95.1011L71.0436 88.5643C70.0168 87.9673 68.8519 87.653 67.6661 87.653C66.4803 87.653 65.3154 87.9673 64.2886 88.5643L53.0376 95.1011C52.4182 95.4616 51.7154 95.6514 51 95.6514C50.2846 95.6514 49.5818 95.4616 48.9624 95.1011L37.7114 88.5643C36.6846 87.9673 35.5197 87.653 34.3339 87.653C33.1481 87.653 31.9832 87.9673 30.9564 88.5643L19.7053 95.1011C19.086 95.4616 18.3832 95.6514 17.6678 95.6514C16.9523 95.6514 16.2495 95.4616 15.6302 95.1011L3.01241 87.7694L50.9966 59.8837L98.9842 87.7694L86.3698 95.1011ZM99.6601 86.6048L51.6658 58.7225V2.94602L64.2903 10.2829C64.9077 10.6434 65.4206 11.1602 65.778 11.782C66.1355 12.4038 66.325 13.1089 66.3278 13.8272V26.9009C66.3297 28.094 66.6426 29.2658 67.2353 30.2991C67.8279 31.3325 68.6797 32.1912 69.7053 32.7896L80.9564 39.3264C81.575 39.6876 82.0887 40.2058 82.4462 40.8291C82.8037 41.4525 82.9926 42.1594 82.994 42.8792V55.9528C82.9958 57.146 83.3087 58.3177 83.9014 59.3511C84.494 60.3844 85.3458 61.2432 86.3715 61.8415L97.6208 68.3783C98.2386 68.7385 98.752 69.2552 99.1097 69.877C99.4675 70.4989 99.6572 71.2042 99.6601 71.9227V86.6048Z" stroke="#EAEBEB" stroke-width="1.2" mask="url(#path-1-outside-1)"/>
</svg>