<svg xmlns="http://www.w3.org/2000/svg" width="24" height="24" viewBox="0 0 24 24"><path fill="currentColor" fill-rule="evenodd" d="M19 5.5H8A1.5 1.5 0 006.5 7H16a3 3 0 013 3v5.5a1.5 1.5 0 001.5-1.5V7A1.5 1.5 0 0019 5.5M19 17a3 3 0 01-3 3H5a3 3 0 01-3-3v-7a3 3 0 013-3 3 3 0 013-3h11a3 3 0 013 3v7a3 3 0 01-3 3M5 8.5h11a1.5 1.5 0 011.5 1.5v7a1.5 1.5 0 01-1.5 1.5H5A1.5 1.5 0 013.5 17v-7A1.5 1.5 0 015 8.5m.616 3.25a.75.75 0 01.75-.75H14.5a.75.75 0 010 1.5H6.366a.75.75 0 01-.75-.75M6.5 14.5a.75.75 0 000 1.5h3.74a.75.75 0 000-1.5z" clip-rule="evenodd"/></svg>