<svg xmlns="http://www.w3.org/2000/svg" width="20" height="20" viewBox="0 0 20 20"><path fill="currentColor" fill-rule="evenodd" d="M16.5 4.5h-10a1 1 0 00-1 1V6h8A2.5 2.5 0 0116 8.5v4h.5a1 1 0 001-1v-6a1 1 0 00-1-1M16 14h.5a2.5 2.5 0 002.5-2.5v-6A2.5 2.5 0 0016.5 3h-10A2.5 2.5 0 004 5.5V6h-.5A2.5 2.5 0 001 8.5v6A2.5 2.5 0 003.5 17h10a2.5 2.5 0 002.5-2.5zM3.5 7.5h10a1 1 0 011 1v6a1 1 0 01-1 1h-10a1 1 0 01-1-1v-6a1 1 0 011-1m.75 2.25A.75.75 0 015 9h7a.75.75 0 010 1.5H5a.75.75 0 01-.75-.75M5 12a.75.75 0 000 1.5h3.416a.75.75 0 000-1.5z" clip-rule="evenodd"/></svg>