<svg xmlns="http://www.w3.org/2000/svg" width="12" height="12" viewBox="0 0 12 12"><g fill="none"><g clip-path="url(#svgID0)"><path fill="currentColor" fill-rule="evenodd" d="M10.5 3h-7a.5.5 0 00-.5.5V4h5.5A1.5 1.5 0 0110 5.5V8h.5a.5.5 0 00.5-.5v-4a.5.5 0 00-.5-.5M10 9h.5A1.5 1.5 0 0012 7.5v-4A1.5 1.5 0 0010.5 2h-7A1.5 1.5 0 002 3.5V4h-.5A1.5 1.5 0 000 5.5v4A1.5 1.5 0 001.5 11h7A1.5 1.5 0 0010 9.5zM1.5 5h7a.5.5 0 01.5.5v4a.5.5 0 01-.5.5h-7a.5.5 0 01-.5-.5v-4a.5.5 0 01.5-.5m1 1.5A.5.5 0 013 6h4.286a.5.5 0 010 1H3a.5.5 0 01-.5-.5M3 8a.5.5 0 000 1h2.571a.5.5 0 100-1z" clip-rule="evenodd"/></g><defs><clipPath id="svgID0"><path fill="#fff" d="M0 0h12v12H0z"/></clipPath></defs></g></svg>