<svg xmlns="http://www.w3.org/2000/svg" width="12" height="12" viewBox="0 0 12 12"><g fill="none"><g clip-path="url(#svgID0)"><path fill="currentColor" fill-rule="evenodd" d="M1 6a4 4 0 118 0 4 4 0 01-8 0m4-5a5 5 0 100 10A5 5 0 005 1m.5 2.5a.5.5 0 10-1 0v3H7a.5.5 0 100-1H5.5zm6-1.5H9.472a6 6 0 00-1.154-1H11.5a.5.5 0 110 1m0 3h-.583a6 6 0 00-.258-1h.841a.5.5 0 110 1m-.841 3q.17-.484.258-1h.583a.5.5 0 110 1zm-1.187 2a6 6 0 01-1.154 1H11.5a.5.5 0 100-1z" clip-rule="evenodd"/></g><defs><clipPath id="svgID0"><path fill="#fff" d="M0 0h12v12H0z"/></clipPath></defs></g></svg>