<svg xmlns="http://www.w3.org/2000/svg" width="20" height="20" viewBox="0 0 20 20"><path fill="currentColor" fill-rule="evenodd" d="M2.5 10a5.5 5.5 0 1111 0 5.5 5.5 0 01-11 0M8 3a7 7 0 100 14A7 7 0 008 3m.75 3.75a.75.75 0 00-1.5 0v3.75H10A.75.75 0 0010 9H8.75zM17.25 9h-1.312a8 8 0 00-.336-1.5h1.648a.75.75 0 010 1.5m0-3.5h-2.635A8 8 0 0013.292 4h3.958a.75.75 0 010 1.5M15.938 11a8 8 0 01-.336 1.5h1.648a.75.75 0 000-1.5zm-1.323 3.5a8 8 0 01-1.323 1.5h3.958a.75.75 0 000-1.5z" clip-rule="evenodd"/></svg>