<svg xmlns="http://www.w3.org/2000/svg" width="32" height="32" viewBox="0 0 32 32"><path fill="currentColor" fill-rule="evenodd" d="M15.25 4a3 3 0 00-2.955 2.477q-.209.08-.413.167a3 3 0 00-3.837.34l-1.06 1.061a3 3 0 00-.34 3.837 10 10 0 00-.168.413A3 3 0 004 15.25v1.5a3 3 0 002.62 2.976q.055.134.117.266a3 3 0 00.247 3.963l1.06 1.06a3 3 0 004.115.122l.096.037A3 3 0 0015.25 28h1.5a3 3 0 003-2.948 3 3 0 004.205-.036l1.06-1.061a3 3 0 00.037-4.205 3 3 0 002.948-3v-1.5a3 3 0 00-2.826-2.995l-.037-.096a3 3 0 00-.122-4.114l-1.06-1.06a3 3 0 00-3.963-.248 10 10 0 00-.266-.117A3 3 0 0016.75 4zm-1 3a1 1 0 011-1h1.5a1 1 0 011 1v.316a1 1 0 00.676.947q.658.225 1.259.557a1 1 0 001.19-.17l.251-.251a1 1 0 011.415 0l1.06 1.06a1 1 0 010 1.415l-.359.358a1 1 0 00-.194 1.14q.27.56.45 1.165a1 1 0 00.959.713H25a1 1 0 011 1v1.5a1 1 0 01-1 1h-.65a1 1 0 00-.946.676 8 8 0 01-.454 1.066 1 1 0 00.182 1.165l.47.47a1 1 0 010 1.414L22.54 23.6a1 1 0 01-1.415 0l-.47-.47a1 1 0 00-1.164-.181 8 8 0 01-1.066.454 1 1 0 00-.676.946V25a1 1 0 01-1 1h-1.5a1 1 0 01-1-1v-.543a1 1 0 00-.713-.958 8 8 0 01-1.165-.45 1 1 0 00-1.14.194l-.359.358a1 1 0 01-1.414 0l-.707.707.707-.707-1.06-1.06a1 1 0 010-1.415l.252-.252a1 1 0 00.169-1.189q-.332-.601-.558-1.259a1 1 0 00-.946-.676H7a1 1 0 01-1-1v-1.5a1 1 0 011-1h.21a1 1 0 00.957-.713q.214-.713.55-1.362a1 1 0 00-.182-1.165l-.136-.136a1 1 0 010-1.415l1.06-1.06a1 1 0 011.414 0l.137.136a1 1 0 001.165.182 8 8 0 011.362-.55 1 1 0 00.713-.957zM19 16a3 3 0 11-6 0 3 3 0 016 0m2 0a5 5 0 11-10 0 5 5 0 0110 0" clip-rule="evenodd"/></svg>