<svg xmlns="http://www.w3.org/2000/svg" width="16" height="16" viewBox="0 0 16 16"><path fill="currentColor" fill-rule="evenodd" d="M7.375 1a1.5 1.5 0 00-1.5 1.5v.197l-.122.05-.14-.139a1.5 1.5 0 00-2.12 0l-.885.884a1.5 1.5 0 000 2.122l.14.139-.05.122H2.5a1.5 1.5 0 00-1.5 1.5v1.25a1.5 1.5 0 001.5 1.5h.215l.046.109-.153.152.354.354-.354-.354a1.5 1.5 0 000 2.122l.354-.354-.354.354.884.884a1.5 1.5 0 002.122 0l.17-.171.091.037v.242a1.5 1.5 0 001.5 1.5h1.25a1.5 1.5 0 001.5-1.5v-.26l.078-.032.184.184a1.5 1.5 0 002.12 0l.885-.884a1.5 1.5 0 000-2.121l-.184-.184.032-.078h.26a1.5 1.5 0 001.5-1.5v-1.25a1.5 1.5 0 00-1.5-1.5h-.242l-.037-.09.17-.171a1.5 1.5 0 000-2.122l-.883-.884a1.5 1.5 0 00-2.121 0l-.153.153-.109-.046V2.5a1.5 1.5 0 00-1.5-1.5zm-.5 1.5a.5.5 0 01.5-.5h1.25a.5.5 0 01.5.5v.563a.5.5 0 00.341.474q.335.112.645.271a.5.5 0 00.581-.091l.402-.402a.5.5 0 01.707 0l.884.884a.5.5 0 010 .707l-.416.417a.5.5 0 00-.095.575q.15.305.258.632a.5.5 0 00.476.345h.592a.5.5 0 01.5.5v1.25a.5.5 0 01-.5.5h-.607a.5.5 0 00-.474.341q-.108.32-.258.618a.5.5 0 00.093.579l.43.43a.5.5 0 010 .708l-.883.884a.5.5 0 01-.707 0l-.431-.431a.5.5 0 00-.579-.093q-.298.15-.618.258a.5.5 0 00-.34.474v.607a.5.5 0 01-.5.5h-1.25a.5.5 0 01-.5-.5v-.592a.5.5 0 00-.346-.476 5 5 0 01-.632-.258.5.5 0 00-.575.095l-.417.416a.5.5 0 01-.707 0l-.883-.884a.5.5 0 010-.707l.4-.402a.5.5 0 00.092-.582 5 5 0 01-.271-.644.5.5 0 00-.474-.341H2.5a.5.5 0 01-.5-.5v-1.25a.5.5 0 01.5-.5h.548a.5.5 0 00.476-.346q.111-.341.27-.657a.5.5 0 00-.092-.58l-.387-.386a.5.5 0 010-.707l.884-.884a.5.5 0 01.707 0l.387.387a.5.5 0 00.579.093q.316-.16.658-.271a.5.5 0 00.345-.476zm2.859 5.521a1.712 1.712 0 11-3.424 0 1.712 1.712 0 013.424 0m1 0a2.712 2.712 0 11-5.424 0 2.712 2.712 0 015.424 0" clip-rule="evenodd"/></svg>