<svg xmlns="http://www.w3.org/2000/svg" width="12" height="12" viewBox="0 0 12 12"><g fill="none"><g clip-path="url(#svgID0)"><path fill="currentColor" fill-rule="evenodd" d="M5.625 0a1.5 1.5 0 00-1.5 1.461l-.009.004a1.5 1.5 0 00-2.093.027l-.53.53a1.5 1.5 0 00-.028 2.094l-.004.01A1.5 1.5 0 000 5.624v.75a1.5 1.5 0 001.474 1.5 1.5 1.5 0 00.018 2.102l.53.53a1.5 1.5 0 002.104.019A1.5 1.5 0 005.626 12h.75a1.5 1.5 0 001.5-1.474 1.5 1.5 0 002.102-.018l.53-.53a1.5 1.5 0 00.018-2.103A1.5 1.5 0 0012 6.375v-.75a1.5 1.5 0 00-1.474-1.5 1.5 1.5 0 00-.018-2.102l-.53-.53a1.5 1.5 0 00-2.103-.02A1.5 1.5 0 006.375 0zm-.5 1.5a.5.5 0 01.5-.5h.75a.5.5 0 01.5.5v.322a.5.5 0 00.341.475q.278.092.535.225a.5.5 0 00.581-.092l.231-.23a.5.5 0 01.707 0l.346-.346-.346.345.53.53a.5.5 0 010 .708l-.242.243a.5.5 0 00-.095.576q.126.252.214.524a.5.5 0 00.476.345h.347a.5.5 0 01.5.5v.75a.5.5 0 01-.5.5h-.36a.5.5 0 00-.474.341q-.089.265-.214.513a.5.5 0 00.093.578l.256.256a.5.5 0 010 .707l-.53.53a.5.5 0 01-.708 0l-.255-.255a.5.5 0 00-.58-.093 4 4 0 01-.512.214.5.5 0 00-.34.474v.36a.5.5 0 01-.5.5h-.75a.5.5 0 01-.5-.5v-.348a.5.5 0 00-.346-.475 4 4 0 01-.524-.214.5.5 0 00-.576.094l-.243.244a.5.5 0 01-.707 0l-.53-.53-.354.353.353-.354a.5.5 0 010-.707l.231-.23a.5.5 0 00.092-.582 4 4 0 01-.225-.535.5.5 0 00-.474-.341H1.5a.5.5 0 01-.5-.5v-.75a.5.5 0 01.5-.5h.31a.5.5 0 00.476-.345q.091-.284.225-.546a.5.5 0 00-.093-.58L2.2 3.438a.5.5 0 010-.707l.53-.53a.5.5 0 01.707 0l.218.218a.5.5 0 00.579.092q.263-.132.546-.225a.5.5 0 00.345-.475zm2.218 4.518a1.325 1.325 0 11-2.65 0 1.325 1.325 0 012.65 0m1 0a2.325 2.325 0 11-4.65 0 2.325 2.325 0 014.65 0" clip-rule="evenodd"/></g><defs><clipPath id="svgID0"><path fill="#fff" d="M0 0h12v12H0z"/></clipPath></defs></g></svg>