<svg xmlns="http://www.w3.org/2000/svg" width="24" height="24" viewBox="0 0 24 24"><path fill="currentColor" fill-rule="evenodd" d="M11.187 2a2.25 2.25 0 00-2.239 2.025q-.222.08-.439.17a2.25 2.25 0 00-3.006.16L4.354 5.502a2.25 2.25 0 00-.199 2.955q-.11.245-.205.5A2.25 2.25 0 002 11.187v1.624c0 1.181.91 2.15 2.065 2.243q.082.196.173.385a2.25 2.25 0 00.116 3.057l1.15 1.149a2.25 2.25 0 003.181 0l.036-.036.216.081v.059a2.25 2.25 0 002.25 2.25h1.625a2.25 2.25 0 002.25-2.25v-.259l.068-.03.184.185a2.25 2.25 0 003.183 0l1.148-1.15a2.25 2.25 0 000-3.181l-.228-.23.01-.023h.323a2.25 2.25 0 002.25-2.25v-1.624a2.25 2.25 0 00-2.25-2.25h-.212l-.04-.105.147-.148a2.25 2.25 0 000-3.182l-1.149-1.149a2.25 2.25 0 00-3.174-.007 8 8 0 00-.26-.119A2.25 2.25 0 0012.812 2zm-.75 2.25a.75.75 0 01.75-.75h1.625a.75.75 0 01.75.75v.487a.75.75 0 00.496.706q.541.196 1.037.476a.75.75 0 00.9-.123l.38-.38a.75.75 0 011.06 0l1.15 1.148a.75.75 0 010 1.06l-.507.507a.75.75 0 00-.149.848q.209.446.352.923a.75.75 0 00.718.536h.751a.75.75 0 01.75.75v1.624a.75.75 0 01-.75.75h-.84a.75.75 0 00-.71.508q-.15.435-.353.84a.75.75 0 00.14.867l.598.598a.75.75 0 010 1.06l-1.15 1.15a.75.75 0 01-1.06 0l-.562-.562a.75.75 0 00-.881-.133q-.42.224-.874.387a.75.75 0 00-.496.705v.768a.75.75 0 01-.75.75h-1.625a.75.75 0 01-.75-.75v-.606a.75.75 0 00-.546-.722 7 7 0 01-1.024-.38.75.75 0 00-.848.149l-.394.394a.75.75 0 01-1.061 0l-1.149-1.15a.75.75 0 010-1.06l.269-.268a.75.75 0 00.122-.9 7 7 0 01-.51-1.137.75.75 0 00-.71-.508H4.25a.75.75 0 01-.75-.75v-1.624a.75.75 0 01.75-.75h.246a.75.75 0 00.718-.536 7 7 0 01.503-1.227.75.75 0 00-.132-.88l-.17-.17a.75.75 0 010-1.06l1.15-1.15a.75.75 0 011.06 0l.205.205a.75.75 0 00.867.14q.57-.285 1.194-.463a.75.75 0 00.546-.722zM14.5 12a2.5 2.5 0 11-5 0 2.5 2.5 0 015 0m1.5 0a4 4 0 11-8 0 4 4 0 018 0" clip-rule="evenodd"/></svg>