<svg xmlns="http://www.w3.org/2000/svg" width="16" height="16" viewBox="0 0 16 16"><path fill="currentColor" fill-rule="evenodd" d="M7.181 2.681h3a.5.5 0 000-1h-3a5.5 5.5 0 00-5.5 5.5v3a.5.5 0 001 0v-3a4.5 4.5 0 014.5-4.5m-2.112 10a.75.75 0 110 1.5.75.75 0 010-1.5m3 0a.75.75 0 110 1.5.75.75 0 010-1.5m5.75-4.25a.75.75 0 10-1.5 0 .75.75 0 001.5 0m-.75 2.25a.75.75 0 110 1.5.75.75 0 010-1.5m.75-5.25a.75.75 0 10-1.5 0 .75.75 0 001.5 0m-2.75 7.25a.75.75 0 110 1.5.75.75 0 010-1.5" clip-rule="evenodd"/></svg>