<svg xmlns="http://www.w3.org/2000/svg" width="32" height="32" viewBox="0 0 32 32"><path fill="currentColor" fill-rule="evenodd" d="M21.063 6.73h-4.821a9 9 0 00-9 9v4.921a1 1 0 11-2 0V15.73c0-6.075 4.924-11 11-11h4.821a1 1 0 110 2m4.458 7.762a1.25 1.25 0 110 2.5 1.25 1.25 0 010-2.5m1.25-3.763a1.25 1.25 0 10-2.5 0 1.25 1.25 0 002.5 0m-16 13.513a1.25 1.25 0 110 2.5 1.25 1.25 0 010-2.5m12.25 1.25a1.25 1.25 0 10-2.5 0 1.25 1.25 0 002.5 0m-6.75-1.25a1.25 1.25 0 110 2.5 1.25 1.25 0 010-2.5m10.5-3.79a1.25 1.25 0 10-2.5 0 1.25 1.25 0 002.5 0" clip-rule="evenodd"/></svg>