<svg xmlns="http://www.w3.org/2000/svg" width="12" height="12" viewBox="0 0 12 12"><path fill="currentColor" fill-rule="evenodd" d="M8.682 1.875h-3.24a3.5 3.5 0 00-3.5 3.5v3.364a.5.5 0 01-1 0V5.376a4.5 4.5 0 014.5-4.5h3.24a.5.5 0 010 1M3.676 9.57a.75.75 0 110 1.5.75.75 0 010-1.5m3 .75a.75.75 0 10-1.5 0 .75.75 0 001.5 0m1.5-.75a.75.75 0 110 1.5.75.75 0 010-1.5m2.678-3.699a.75.75 0 10-1.5 0 .75.75 0 001.5 0m-.75-2.974a.75.75 0 110 1.5.75.75 0 010-1.5m.75 5.199a.75.75 0 10-1.5 0 .75.75 0 001.5 0" clip-rule="evenodd"/></svg>