<svg xmlns="http://www.w3.org/2000/svg" width="32" height="32" viewBox="0 0 32 32"><path fill="currentColor" fill-rule="evenodd" d="M25 6H7a2 2 0 00-2 2v1h22V8a2 2 0 00-2-2m2 5H5v13a2 2 0 002 2h18a2 2 0 002-2zM7 4a4 4 0 00-4 4v16a4 4 0 004 4h18a4 4 0 004-4V8a4 4 0 00-4-4zm5.207 10.293a1 1 0 010 1.414L9.38 18.535l2.828 2.829a1 1 0 11-1.414 1.414l-3.536-3.535-.707-.707.707-.708 3.536-3.535a1 1 0 011.414 0m7.586 0a1 1 0 000 1.414l2.828 2.828-2.828 2.829a1 1 0 001.414 1.414l3.536-3.535.707-.707-.707-.708-3.536-3.535a1 1 0 00-1.414 0m-1.516 1.101a1 1 0 00-1.867-.717l-2.687 7.002a1 1 0 101.867.717z" clip-rule="evenodd"/></svg>