<svg xmlns="http://www.w3.org/2000/svg" width="20" height="20" viewBox="0 0 20 20"><path fill="currentColor" fill-rule="evenodd" d="M16.5 3.5h-13a1 1 0 00-1 1v1h15v-1a1 1 0 00-1-1m1 3.5h-15v8.5a1 1 0 001 1h13a1 1 0 001-1zm-14-5A2.5 2.5 0 001 4.5v11A2.5 2.5 0 003.5 18h13a2.5 2.5 0 002.5-2.5v-11A2.5 2.5 0 0016.5 2zm4.034 6.92a.75.75 0 010 1.06l-1.823 1.824 1.823 1.824a.75.75 0 01-1.06 1.06L4.12 12.334l-.53-.53.53-.53L6.474 8.92a.75.75 0 011.06 0m4.932 0a.75.75 0 000 1.06l1.824 1.824-1.824 1.824a.75.75 0 001.06 1.06l2.354-2.354.53-.53-.53-.53-2.354-2.354a.75.75 0 00-1.06 0m-.823.931a.75.75 0 10-1.4-.537l-1.73 4.505a.75.75 0 101.401.537z" clip-rule="evenodd"/></svg>