<svg xmlns="http://www.w3.org/2000/svg" width="16" height="16" viewBox="0 0 16 16"><path fill="currentColor" fill-rule="evenodd" d="M3.5 3.5a.75.75 0 11-1.5 0 .75.75 0 011.5 0m10 .5a.5.5 0 000-1H5.475a.5.5 0 100 1zm-1.852 3a.5.5 0 100-1H5.475a.5.5 0 000 1zM14 9.5a.5.5 0 01-.5.5H5.475a.5.5 0 010-1H13.5a.5.5 0 01.5.5M11.648 13a.5.5 0 000-1H5.475a.5.5 0 100 1zM2.75 7.25a.75.75 0 100-1.5.75.75 0 000 1.5M3.5 9.5a.75.75 0 11-1.5 0 .75.75 0 011.5 0m-.75 3.75a.75.75 0 100-1.5.75.75 0 000 1.5" clip-rule="evenodd"/></svg>