<svg xmlns="http://www.w3.org/2000/svg" width="20" height="20" viewBox="0 0 20 20"><path fill="currentColor" fill-rule="evenodd" d="M4 4.75a1 1 0 11-2 0 1 1 0 012 0m13.288.75a.75.75 0 000-1.5H6.213a.75.75 0 000 1.5zM14.732 9a.75.75 0 000-1.5h-8.52a.75.75 0 000 1.5zm3.306 2.75a.75.75 0 01-.75.75H6.213a.75.75 0 010-1.5h11.075a.75.75 0 01.75.75M14.732 16a.75.75 0 000-1.5h-8.52a.75.75 0 000 1.5zM3 9.25a1 1 0 100-2 1 1 0 000 2m1 2.5a1 1 0 11-2 0 1 1 0 012 0m-1 4.5a1 1 0 100-2 1 1 0 000 2" clip-rule="evenodd"/></svg>