<svg xmlns="http://www.w3.org/2000/svg" width="12" height="12" viewBox="0 0 12 12"><path fill="currentColor" fill-rule="evenodd" d="M2.5 1.5a.75.75 0 11-1.5 0 .75.75 0 011.5 0m8.009.5a.5.5 0 100-1H4.487a.5.5 0 000 1zm-1.39 3a.5.5 0 100-1H4.487a.5.5 0 100 1zm1.89 2.5a.5.5 0 01-.5.5H4.487a.5.5 0 010-1h6.022a.5.5 0 01.5.5M9.119 11a.5.5 0 000-1H4.487a.5.5 0 000 1zM1.75 5.25a.75.75 0 100-1.5.75.75 0 000 1.5M2.5 7.5a.75.75 0 11-1.5 0 .75.75 0 011.5 0m-.75 3.75a.75.75 0 100-1.5.75.75 0 000 1.5" clip-rule="evenodd"/></svg>