<svg xmlns="http://www.w3.org/2000/svg" width="24" height="24" viewBox="0 0 24 24"><path fill="currentColor" fill-rule="evenodd" d="M5 6.75a1 1 0 11-2 0 1 1 0 012 0m15.198.75a.75.75 0 000-1.5H7.25a.75.75 0 100 1.5zM17.21 11a.75.75 0 000-1.5H7.25a.75.75 0 000 1.5zm3.738 2.75a.75.75 0 01-.75.75H7.25a.75.75 0 010-1.5h12.947a.75.75 0 01.75.75M17.21 18a.75.75 0 000-1.5H7.25a.75.75 0 000 1.5zM4 11.25a1 1 0 100-2 1 1 0 000 2m1 2.5a1 1 0 11-2 0 1 1 0 012 0m-1 4.5a1 1 0 100-2 1 1 0 000 2" clip-rule="evenodd"/></svg>