<svg xmlns="http://www.w3.org/2000/svg" width="32" height="32" viewBox="0 0 32 32"><path fill="currentColor" fill-rule="evenodd" d="M7.5 8A1.25 1.25 0 115 8a1.25 1.25 0 012.5 0m18.576 1a1 1 0 100-2H10.424a1 1 0 100 2zm0 10a1 1 0 100-2H10.424a1 1 0 100 2zm-1.762-6a1 1 0 01-1 1h-12.89a1 1 0 010-2h12.89a1 1 0 011 1m-1 11a1 1 0 100-2h-12.89a1 1 0 000 2zM6.25 14.25a1.25 1.25 0 100-2.5 1.25 1.25 0 000 2.5M7.5 18A1.25 1.25 0 115 18a1.25 1.25 0 012.5 0m-1.25 6.25a1.25 1.25 0 100-2.5 1.25 1.25 0 000 2.5" clip-rule="evenodd"/></svg>