<svg xmlns="http://www.w3.org/2000/svg" width="16" height="16" viewBox="0 0 16 16"><path fill="currentColor" fill-rule="evenodd" d="M3 3h10a1 1 0 011 1v8a1 1 0 01-1 1H3a1 1 0 01-1-1V4a1 1 0 011-1M1 4a2 2 0 012-2h10a2 2 0 012 2v8a2 2 0 01-2 2H3a2 2 0 01-2-2zm10 4a3 3 0 11-6 0 3 3 0 016 0m1 0a4 4 0 11-8 0 4 4 0 018 0M9.354 6.646a.5.5 0 010 .708L8.707 8l.647.646a.5.5 0 11-.708.708L8 8.707l-.646.647a.5.5 0 11-.708-.708L7.293 8l-.647-.646a.5.5 0 11.708-.708L8 7.293l.646-.647a.5.5 0 01.708 0" clip-rule="evenodd"/></svg>