<svg xmlns="http://www.w3.org/2000/svg" width="32" height="32" viewBox="0 0 32 32"><path fill="currentColor" fill-rule="evenodd" d="M25 7H7a2 2 0 00-2 2v14a2 2 0 002 2h18a2 2 0 002-2V9a2 2 0 00-2-2M7 5a4 4 0 00-4 4v14a4 4 0 004 4h18a4 4 0 004-4V9a4 4 0 00-4-4zm9 16a5 5 0 100-10 5 5 0 000 10m0 2a7 7 0 100-14 7 7 0 000 14m2.454-9.457a1 1 0 010 1.414L17.413 16l1.041 1.042a1 1 0 01-1.414 1.415L16 17.414l-1.042 1.042a1 1 0 11-1.414-1.415L14.585 16l-1.042-1.042a1 1 0 011.414-1.414l1.042 1.042 1.041-1.042a1 1 0 011.414 0" clip-rule="evenodd"/></svg>