<svg xmlns="http://www.w3.org/2000/svg" width="20" height="20" viewBox="0 0 20 20"><path fill="currentColor" fill-rule="evenodd" d="M3.5 3.5h13a1 1 0 011 1v11a1 1 0 01-1 1h-13a1 1 0 01-1-1v-11a1 1 0 011-1M1 4.5A2.5 2.5 0 013.5 2h13A2.5 2.5 0 0119 4.5v11a2.5 2.5 0 01-2.5 2.5h-13A2.5 2.5 0 011 15.5zM13.5 10a3.5 3.5 0 11-7 0 3.5 3.5 0 017 0m1.5 0a5 5 0 11-10 0 5 5 0 0110 0m-3.47-1.53a.75.75 0 010 1.06l-.53.53.53.53a.75.75 0 11-1.06 1.061l-.53-.53-.531.53a.75.75 0 01-1.06-1.06l.53-.53-.53-.53a.75.75 0 011.06-1.062l.53.53.53-.53a.75.75 0 011.061 0" clip-rule="evenodd"/></svg>