<svg xmlns="http://www.w3.org/2000/svg" width="24" height="24" viewBox="0 0 24 24"><path fill="currentColor" fill-rule="evenodd" d="M19 4.5H5A1.5 1.5 0 003.5 6v12A1.5 1.5 0 005 19.5h14a1.5 1.5 0 001.5-1.5V6A1.5 1.5 0 0019 4.5M5 3a3 3 0 00-3 3v12a3 3 0 003 3h14a3 3 0 003-3V6a3 3 0 00-3-3zm7 13.5a4.5 4.5 0 100-9 4.5 4.5 0 000 9m0 1.5a6 6 0 100-12 6 6 0 000 12m2.03-8.03a.764.764 0 01-.008 1.069l-.961.961.977.978a.736.736 0 01-.008 1.052.764.764 0 01-1.069-.008L12 13.061l-.978.978a.736.736 0 01-1.052-.009.764.764 0 01.008-1.069l.961-.961-.977-.978A.736.736 0 019.97 9.97a.764.764 0 011.069.008l.96.961.978-.977a.736.736 0 011.053.008" clip-rule="evenodd"/></svg>