<svg xmlns="http://www.w3.org/2000/svg" width="12" height="12" viewBox="0 0 12 12"><path fill="currentColor" fill-rule="evenodd" d="M1.5 2h9a.5.5 0 01.5.5v7a.5.5 0 01-.5.5h-9a.5.5 0 01-.5-.5v-7a.5.5 0 01.5-.5M0 2.5A1.5 1.5 0 011.5 1h9A1.5 1.5 0 0112 2.5v7a1.5 1.5 0 01-1.5 1.5h-9A1.5 1.5 0 010 9.5zM8.5 6a2.5 2.5 0 11-5 0 2.5 2.5 0 015 0m1 0a3.5 3.5 0 11-7 0 3.5 3.5 0 017 0M7.104 4.896a.5.5 0 010 .708L6.707 6l.397.396a.5.5 0 01-.708.708L6 6.707l-.397.397a.5.5 0 11-.707-.708L5.293 6l-.397-.396a.5.5 0 11.708-.708L6 5.293l.396-.397a.5.5 0 01.708 0" clip-rule="evenodd"/></svg>