<svg xmlns="http://www.w3.org/2000/svg" width="32" height="32" viewBox="0 0 32 32">
  <path fill="#363D4A" d="M14,27.3333333 C12.159713,27.3333333 10.4279595,26.9861146 8.8046875,26.2916667 C7.18141549,25.5972188 5.76649909,24.6467074 4.55989583,23.4401042 C3.35329258,22.2335009 2.40278125,20.8185845 1.70833333,19.1953125 C1.01388542,17.5720405 0.666666667,15.840287 0.666666667,14 C0.666666667,12.159713 1.01388542,10.4279595 1.70833333,8.8046875 C2.40278125,7.18141549 3.35329258,5.76649909 4.55989583,4.55989583 C5.76649909,3.35329258 7.18141549,2.40278125 8.8046875,1.70833333 C10.4279595,1.01388542 12.159713,0.666666667 14,0.666666667 C15.840287,0.666666667 17.5720405,1.01388542 19.1953125,1.70833333 C20.8185845,2.40278125 22.2335009,3.35329258 23.4401042,4.55989583 C24.6467074,5.76649909 25.5972188,7.18141549 26.2916667,8.8046875 C26.9861146,10.4279595 27.3333333,12.159713 27.3333333,14 C27.3333333,15.840287 26.9861146,17.5720405 26.2916667,19.1953125 C25.5972188,20.8185845 24.6467074,22.2335009 23.4401042,23.4401042 C22.2335009,24.6467074 20.8185845,25.5972188 19.1953125,26.2916667 C17.5720405,26.9861146 15.840287,27.3333333 14,27.3333333 Z M14,25.4322917 C15.579869,25.4322917 17.0642292,25.1328155 18.453125,24.5338542 C19.8420208,23.9348928 21.0529462,23.1189288 22.0859375,22.0859375 C23.1189288,21.0529462 23.9348928,19.8420208 24.5338542,18.453125 C25.1328155,17.0642292 25.4322917,15.579869 25.4322917,14 C25.4322917,12.420131 25.1328155,10.9357708 24.5338542,9.546875 C23.9348928,8.15797917 23.1189288,6.94705378 22.0859375,5.9140625 C21.0529462,4.88107122 19.8420208,4.06510716 18.453125,3.46614583 C17.0642292,2.86718451 15.579869,2.56770833 14,2.56770833 C12.420131,2.56770833 10.9357708,2.86718451 9.546875,3.46614583 C8.15797917,4.06510716 6.94705378,4.88107122 5.9140625,5.9140625 C4.88107122,6.94705378 4.06510716,8.15797917 3.46614583,9.546875 C2.86718451,10.9357708 2.56770833,12.420131 2.56770833,14 C2.56770833,15.579869 2.86718451,17.0642292 3.46614583,18.453125 C4.06510716,19.8420208 4.88107122,21.0529462 5.9140625,22.0859375 C6.94705378,23.1189288 8.15797917,23.9348928 9.546875,24.5338542 C10.9357708,25.1328155 12.420131,25.4322917 14,25.4322917 Z M14,20.6659546 C13.471165,20.6659546 13.0424596,20.2372491 13.0424596,19.7084141 L13.0424596,14.9575404 L13.0424596,14.9575404 L8.29158588,14.9575404 C7.7627509,14.9575404 7.33404545,14.528835 7.33404545,14 C7.33404545,13.471165 7.7627509,13.0424596 8.29158588,13.0424596 L13.0424596,13.0424596 L13.0424596,13.0424596 L13.0424596,8.29158588 C13.0424596,7.7627509 13.471165,7.33404545 14,7.33404545 C14.528835,7.33404545 14.9575404,7.7627509 14.9575404,8.29158588 L14.9575404,13.0424596 L14.9575404,13.0424596 L19.7084141,13.0424596 C20.2372491,13.0424596 20.6659546,13.471165 20.6659546,14 C20.6659546,14.528835 20.2372491,14.9575404 19.7084141,14.9575404 L14.9575404,14.9575404 L14.9575404,14.9575404 L14.9575404,19.7084141 C14.9575404,20.2372491 14.528835,20.6659546 14,20.6659546 Z" transform="translate(2 2)"/>
</svg>
