<svg fill="currentColor" viewBox="0 0 24 24" version="1.1" xmlns="http://www.w3.org/2000/svg" xmlns:xlink="http://www.w3.org/1999/xlink">
    <path d="M13.5005163,7.45760066 C13.4827173,7.29563045 13.4738179,7.13079399 13.4738179,6.96309106 C13.4738179,6.19268806 13.6647973,5.48056152 14.0467618,4.82669007 C14.4287263,4.17281862 14.9466365,3.65490841 15.600508,3.2729439 C16.2479054,2.89097939 16.960032,2.7 17.7369089,2.7 C18.5073119,2.7 19.2194385,2.89097939 19.8733099,3.2729439 C20.5271814,3.65490841 21.0450916,4.17281862 21.4270561,4.82669007 C21.8090206,5.48056152 22,6.19268806 22,6.96309106 C22,7.73996803 21.8090206,8.45533151 21.4270561,9.10920296 C21.0450916,9.75660043 20.5271814,10.2712737 19.8733099,10.6532382 C19.2194385,11.0352027 18.5073119,11.2261821 17.7369089,11.2261821 C17.4531268,11.2261821 17.1779846,11.200699 16.9114813,11.1497326 L16.9114813,17.2193098 C16.9114813,17.685436 16.7434095,18.0865674 16.4072608,18.4227161 C16.0711121,18.7588648 15.6654988,18.9269366 15.1904086,18.9269366 L14.6256816,18.9269366 L14.6256816,19.5051094 C14.6256816,19.9801996 14.4576098,20.3858129 14.1214611,20.7219616 C13.7853124,21.0581103 13.3796991,21.2261821 12.9046089,21.2261821 L3.72107268,21.2261821 C3.24598254,21.2261821 2.8403692,21.0581103 2.50422051,20.7219616 C2.16807182,20.3858129 2,19.9801996 2,19.5051094 L2,11.464473 C2,10.9983468 2.16807182,10.5972154 2.50422051,10.2610667 C2.8403692,9.92491802 3.24598254,9.75684619 3.72107268,9.75684619 L4.29924554,9.75684619 L4.29924554,9.17867334 C4.29924554,8.70358319 4.46731736,8.29796986 4.80346605,7.96182117 C5.13961474,7.62567248 5.54522807,7.45760066 6.02031822,7.45760066 L13.5005163,7.45760066 Z M15.7685815,10.74734 C15.7120804,10.7173788 15.6560559,10.6860115 15.600508,10.6532382 C14.9466365,10.2712737 14.4287263,9.75660043 14.0467618,9.10920296 C13.9500122,8.9435808 13.8655159,8.77401343 13.7932727,8.60050049 L6.58504519,8.60050049 C6.27130642,8.60050049 6.0023915,8.71254837 5.77829237,8.93664749 C5.55419325,9.16074662 5.44214536,9.42966154 5.44214536,9.74340031 L12.9046089,9.75684619 C13.3796991,9.75684619 13.7853124,9.92491802 14.1214611,10.2610667 C14.4576098,10.5972154 14.6256816,10.9983468 14.6256816,11.464473 L14.6256816,17.7840368 C14.9394204,17.7840368 15.2083353,17.6719889 15.4324345,17.4478897 C15.6565336,17.2237906 15.7685815,16.9548757 15.7685815,16.6411369 L15.7685815,10.74734 Z M11.6541421,20.0832823 L12.3264361,20.0832823 C12.6401749,20.0832823 12.9090898,19.9712344 13.1331889,19.7471353 C13.357288,19.5230362 13.4693359,19.2541212 13.4693359,18.9403825 L13.4693359,12.0426459 C13.4693359,11.7289071 13.357288,11.4599922 13.1331889,11.235893 C12.9090898,11.0117939 12.6401749,10.899746 12.3264361,10.899746 L4.28579966,10.899746 C3.97206088,10.899746 3.70314596,11.0117939 3.47904684,11.235893 C3.25494771,11.4599922 3.14289983,11.7289071 3.14289983,12.0426459 L3.14289983,17.8781579 L6.30268171,16.0360723 L11.6541421,20.0832823 Z M9.57003063,20.0832823 L6.27578995,17.528565 L3.18323747,19.1958542 C3.23702126,19.4468452 3.3669968,19.6574952 3.573168,19.8278106 C3.77933919,19.9981259 4.01688071,20.0832823 4.28579966,20.0832823 L9.57003063,20.0832823 Z M10.0271906,16.6411369 C9.39971301,16.6411369 8.86188317,16.4170412 8.41368492,15.9688429 C7.96548667,15.5206447 7.7413909,14.9783329 7.7413909,14.3418914 C7.7413909,13.7054499 7.96548667,13.1631381 8.41368492,12.7149399 C8.86188317,12.2667416 9.39971301,12.0426459 10.0271906,12.0426459 C10.6636321,12.0426459 11.2059438,12.2667416 11.6541421,12.7149399 C12.1023403,13.1631381 12.3264361,13.7054499 12.3264361,14.3418914 C12.3264361,14.9783329 12.1023403,15.5206447 11.6541421,15.9688429 C11.2059438,16.4170412 10.6636321,16.6411369 10.0271906,16.6411369 Z M10.0271906,15.4847912 C10.3498933,15.4847912 10.6232901,15.3727433 10.8473893,15.1486442 C11.0714884,14.9245451 11.1835363,14.6556302 11.1835363,14.3418914 C11.1835363,14.0281526 11.0714884,13.7592377 10.8473893,13.5351386 C10.6232901,13.3110394 10.3498933,13.1989916 10.0271906,13.1989916 C9.71345178,13.1989916 9.44453686,13.3110394 9.22043774,13.5351386 C8.99633861,13.7592377 8.88429073,14.0281526 8.88429073,14.3418914 C8.88429073,14.6556302 8.99633861,14.9245451 9.22043774,15.1486442 C9.44453686,15.3727433 9.71345178,15.4847912 10.0271906,15.4847912 Z M20.2229028,7.32239486 L20.2229028,6.61349817 C20.2229028,6.51638855 20.1872965,6.43222814 20.1160828,6.36101442 C20.044869,6.28980069 19.9607086,6.25419437 19.863599,6.25419437 L18.4458056,6.25419437 L18.4458056,4.83640099 C18.4458056,4.73929136 18.4101993,4.65513096 18.3389856,4.58391723 C18.2677719,4.51270351 18.1836115,4.47709718 18.0865018,4.47709718 L17.3776051,4.47709718 C17.2804955,4.47709718 17.199572,4.51270351 17.1348323,4.58391723 C17.0636186,4.65513096 17.0280123,4.73929136 17.0280123,4.83640099 L17.0280123,6.25419437 L15.600508,6.25419437 C15.5098723,6.25419437 15.4289488,6.28980069 15.3577351,6.36101442 C15.2865214,6.43222814 15.2509151,6.51638855 15.2509151,6.61349817 L15.2509151,7.32239486 C15.2509151,7.41950448 15.2865214,7.50366489 15.3577351,7.57487861 C15.4289488,7.63961836 15.5098723,7.67198775 15.600508,7.67198775 L17.0280123,7.67198775 L17.0280123,9.09949204 C17.0280123,9.19660167 17.0636186,9.27752514 17.1348323,9.34226488 C17.199572,9.41347861 17.2804955,9.44908493 17.3776051,9.44908493 L18.0865018,9.44908493 C18.1836115,9.44908493 18.2677719,9.41347861 18.3389856,9.34226488 C18.4101993,9.27752514 18.4458056,9.19660167 18.4458056,9.09949204 L18.4458056,7.67198775 L19.863599,7.67198775 C19.9607086,7.67198775 20.044869,7.63961836 20.1160828,7.57487861 C20.1872965,7.50366489 20.2229028,7.41950448 20.2229028,7.32239486 Z" id="Icon_AddToCollection" ></path>
</svg>
