<svg width="24" height="24" viewBox="0 0 24 24" fill="currentColor" xmlns="http://www.w3.org/2000/svg">
<path d="M10.9749 6.00176L7.52575 9.45047C7.12521 9.85101 6.47581 9.85101 6.07527 9.45047C5.67473 9.04994 5.67473 8.40054 6.07527 8L11.2753 2.8004C11.6759 2.39987 12.3253 2.39987 12.7258 2.8004L17.9254 8C18.3259 8.40054 18.3259 9.04994 17.9254 9.45047C17.5249 9.85101 16.8755 9.85101 16.4749 9.45047L13.0262 6.00176L13.0255 18.4982L16.5237 15C16.9243 14.5995 17.5737 14.5995 17.9742 15C18.3747 15.4005 18.3747 16.0499 17.9742 16.4505L12.7251 21.6996C12.3246 22.1001 11.6751 22.1001 11.2746 21.6996L6.02575 16.4505C5.62521 16.0499 5.62521 15.4005 6.02575 15C6.42628 14.5995 7.07568 14.5995 7.47622 15L10.9742 18.4982L10.9749 6.00176Z" />
</svg>
