<svg fill="currentColor" viewBox="0 0 24 24" version="1.1" xmlns="http://www.w3.org/2000/svg" xmlns:xlink="http://www.w3.org/1999/xlink">
    <path d="M18.9545455,10.4615385 L12.7691709,10.4615385 C12.3443695,10.4615385 12,10.120104 12,9.69230769 L12,8.92307692 L12,3.53846154 L6.59561222,3.53846154 C5.74262916,3.53846154 5.04545455,4.22420805 5.04545455,5.07011923 L5.04545455,18.9298808 C5.04545455,19.7771739 5.7356792,20.4615385 6.58711445,20.4615385 L17.4128855,20.4615385 C18.2647915,20.4615385 18.9545455,19.7757912 18.9545455,18.9298792 L18.9545455,10.4615385 Z M18.9545455,8.92307692 L18.9545455,8.74556213 L13.5454545,3.68310322 L13.5454545,8.92307692 L18.9545455,8.92307692 Z M3.5,5.08116942 C3.5,3.37948654 4.88903319,2 6.58746248,2 L13.3523176,2 C13.7790583,2 14.3749076,2.23520711 14.6907387,2.53245998 L19.9342613,7.46754002 C20.2467101,7.76160955 20.5,8.34606934 20.5,8.77264264 L20.5,18.9276406 C20.5,20.6244578 19.1088187,22 17.4017053,22 L6.59829475,22 C4.88715381,22 3.5,20.625319 3.5,18.9188305 L3.5,5.08116942 Z M7.68995305,16.4883189 L10.1934116,14.3238748 L7.68618725,12.1237856 C7.40412883,11.8762794 7.37703077,11.4480171 7.62566203,11.1672349 C7.87429329,10.8864528 8.30450227,10.8594774 8.58656068,11.1069836 L11.6774697,13.819256 C11.9864678,14.0904017 11.9846955,14.5704605 11.673704,14.8393382 L8.58279489,17.5116811 C8.29891669,17.7571169 7.8689185,17.7269946 7.62236704,17.4444009 C7.37581557,17.1618072 7.40607486,16.7337548 7.68995305,16.4883189 Z M12.7727273,17.3846154 C12.3459618,17.3846154 12,17.040219 12,16.6153846 C12,16.1905502 12.3459618,15.8461538 12.7727273,15.8461538 L15.8636364,15.8461538 C16.2904018,15.8461538 16.6363636,16.1905502 16.6363636,16.6153846 C16.6363636,17.040219 16.2904018,17.3846154 15.8636364,17.3846154 L12.7727273,17.3846154 Z" id="attributes_icon" ></path>
</svg>
