<svg fill="currentColor" viewBox="0 0 24 24" version="1.1" xmlns="http://www.w3.org/2000/svg" xmlns:xlink="http://www.w3.org/1999/xlink">
    <path d="M19.5330085,5 C20.0024505,5 20.3830085,5.38055796 20.3830085,5.85 C20.3830085,6.31944204 20.0024505,6.7 19.5330085,6.7 L19.5330085,6.7 L15.0330085,6.7 C13.8455963,6.7 12.8830085,7.66258779 12.8830085,8.85 L12.8830085,8.85 L12.8830085,12.85 C12.8830085,14.0374122 13.8455963,15 15.0330085,15 L15.0330085,15 L18.4610085,15 L16.7494377,13.2884329 C16.4713202,13.0103154 16.470047,12.560671 16.7509377,12.2797803 C17.0298837,12.0008344 17.4848319,12.0035219 17.7595902,12.2782803 L20.7930479,15.311738 C20.9318591,15.4505491 21.0017054,15.6320896 20.9999684,15.8171176 C20.9995399,15.999738 20.9301811,16.1817573 20.7930479,16.3188905 L17.7595902,19.3523481 C17.4814727,19.6304656 17.0318284,19.6317388 16.7509377,19.3508481 C16.4719918,19.0719022 16.4746793,18.616954 16.7494377,18.3421956 L18.3900085,16.7 L15.0330085,16.7 C12.973159,16.7 11.2911331,15.0823445 11.1880181,13.0481205 L11.1830085,12.85 L11.1830085,8.85 C11.1830085,6.72370371 12.9067122,5 15.0330085,5 L15.0330085,5 Z" id="Icon_Return" transform="translate(16.091504, 12.280613) rotate(-180.000000) translate(-16.091504, -12.280613) "></path>
    <path d="M5.789,16.165 C4.425,16.165 3.292,15.428 3.083,14.35 L4.436,13.976 C4.634,14.548 5.184,14.889 5.811,14.889 C6.647,14.889 7.186,14.295 7.186,13.514 C7.186,12.678 6.614,12.106 5.778,12.106 C5.228,12.106 4.766,12.359 4.568,12.799 L3.347,12.799 L3.347,8.3 L8.264,8.3 L8.264,9.598 L4.667,9.598 L4.667,11.457 C4.92,11.127 5.437,10.83 6.207,10.83 C7.67,10.83 8.682,11.886 8.682,13.393 C8.682,15.01 7.483,16.165 5.789,16.165 Z" id="5" ></path>
</svg>
