<svg fill="currentColor" viewBox="0 0 24 24" version="1.1" xmlns="http://www.w3.org/2000/svg" xmlns:xlink="http://www.w3.org/1999/xlink">
    <path d="M8.64939551,11.8066406 L6.47322971,9.59179687 L7.56131261,8.484375 L10.8255613,11.8066406 L7.56131261,15.1113281 L6.47322971,14.0039062 L8.64939551,11.8066406 Z M2,5.35546875 C2,4.69921547 2.2245228,4.14258041 2.67357513,3.68554688 C3.12262746,3.22851334 3.66954197,3 4.31433506,3 L19.6856649,3 C20.3189439,3 20.8629799,3.22851334 21.3177893,3.68554688 C21.7725987,4.14258041 22,4.69921547 22,5.35546875 L22,18.6445312 C22,19.3007845 21.7725987,19.8574196 21.3177893,20.3144531 C20.8629799,20.7714867 20.3189439,21 19.6856649,21 L4.31433506,21 C3.66954197,21 3.12262746,20.7714867 2.67357513,20.3144531 C2.2245228,19.8574196 2,19.3007845 2,18.6445312 L2,5.35546875 Z M3.53713299,6.12890625 L3.53713299,17.8710937 C3.53713299,18.3046897 3.68681485,18.6738266 3.98618307,18.9785156 C4.2855513,19.2832046 4.64824197,19.4355469 5.07426598,19.4355469 L18.925734,19.4355469 C19.351758,19.4355469 19.7144487,19.2832046 20.0138169,18.9785156 C20.3131851,18.6738266 20.462867,18.3046897 20.462867,17.8710937 L20.462867,6.12890625 C20.462867,5.69531033 20.3131851,5.3261734 20.0138169,5.02148438 C19.7144487,4.71679535 19.351758,4.56445312 18.925734,4.56445312 L5.07426598,4.56445312 C4.64824197,4.56445312 4.2855513,4.71679535 3.98618307,5.02148438 C3.68681485,5.3261734 3.53713299,5.69531033 3.53713299,6.12890625 Z M12,14.7421875 L12,13.1777344 L17.3713299,13.1777344 L17.3713299,14.7421875 L12,14.7421875 Z" id="Icon_Builder" ></path>
</svg>
