<svg viewBox="0 0 24 24" version="1.1" xmlns="http://www.w3.org/2000/svg" xmlns:xlink="http://www.w3.org/1999/xlink">
    <path d="M9.5,14.5813512 L8.66666667,14.5813512 L8.66666667,21.1757057 C8.66666667,21.6309509 8.29357062,22 7.83333333,22 L5.67870256,22 C5.29297823,22 4.95766344,21.7381593 4.86812965,21.3670397 L3.13425013,14.1800695 C2.45129395,13.7386307 2,12.9756805 2,12.1084682 L2,7.98699664 C2,6.6212611 3.11928813,5.51411369 4.5,5.51411369 L9.5,5.51411369 L11.1666667,5.51411369 L16.0754997,2.27705518 C16.8413808,1.772006 17.8761631,1.97671762 18.3867505,2.7342914 C18.56927,3.00510096 18.6666667,3.32329125 18.6666667,3.64876383 L18.6666667,16.446701 C18.6666667,17.3571914 17.9204746,18.0952897 17,18.0952897 C16.6709584,18.0952897 16.3492789,17.9989494 16.0754997,17.8184097 L11.1666667,14.5813512 L9.5,14.5813512 Z M7.83333333,12.9327625 L7.83333333,7.16270232 L4.5,7.16270232 C4.03976271,7.16270232 3.66666667,7.53175146 3.66666667,7.98699664 L3.66666667,12.1084682 C3.66666667,12.5637134 4.03976271,12.9327625 4.5,12.9327625 L7.83333333,12.9327625 Z M6.33657178,20.3514114 L7,20.3514114 L7,14.5813512 L4.94452632,14.5813512 L6.33657178,20.3514114 Z M9.5,7.16270232 L9.5,12.9327625 L11.6712927,12.9327625 L17,16.446701 L17,3.64876383 L11.6712927,7.16270232 L9.5,7.16270232 Z M21.1666667,7.16270232 C21.626904,7.16270232 22,7.53579836 22,7.99603566 L22,12.0994292 C22,12.5596665 21.626904,12.9327625 21.1666667,12.9327625 C20.7064294,12.9327625 20.3333333,12.5596665 20.3333333,12.0994292 L20.3333333,7.99603566 C20.3333333,7.53579836 20.7064294,7.16270232 21.1666667,7.16270232 Z" id="Icon_Campaign" ></path>
</svg>
