<svg fill="currentColor" viewBox="0 0 24 24" version="1.1" xmlns="http://www.w3.org/2000/svg" xmlns:xlink="http://www.w3.org/1999/xlink">
    <path d="M18.7,8.25 L18.7,4.5 C18.7,4.03976271 18.326904,3.66666667 17.8666667,3.66666667 L6.2,3.66666667 C5.73976271,3.66666667 5.36666667,4.03976271 5.36666667,4.5 L5.36666667,8.25 L18.7,8.25 Z M18.7,9.91666667 L5.36666667,9.91666667 L5.36666667,19.5 C5.36666667,19.9602373 5.73976271,20.3333333 6.2,20.3333333 L17.8666667,20.3333333 C18.326904,20.3333333 18.7,19.9602373 18.7,19.5 L18.7,9.91666667 Z M6.2,2 L17.8666667,2 C19.2473785,2 20.3666667,3.11928813 20.3666667,4.5 L20.3666667,19.5 C20.3666667,20.8807119 19.2473785,22 17.8666667,22 L6.2,22 C4.81928813,22 3.7,20.8807119 3.7,19.5 L3.7,4.5 C3.7,3.11928813 4.81928813,2 6.2,2 Z M7.86666667,13.25 C7.40642938,13.25 7.03333333,12.876904 7.03333333,12.4166667 C7.03333333,11.9564294 7.40642938,11.5833333 7.86666667,11.5833333 L11.2,11.5833333 C11.6602373,11.5833333 12.0333333,11.9564294 12.0333333,12.4166667 C12.0333333,12.876904 11.6602373,13.25 11.2,13.25 L7.86666667,13.25 Z M7.86666667,16.5833333 C7.40642938,16.5833333 7.03333333,16.2102373 7.03333333,15.75 C7.03333333,15.2897627 7.40642938,14.9166667 7.86666667,14.9166667 L15.3666667,14.9166667 C15.826904,14.9166667 16.2,15.2897627 16.2,15.75 C16.2,16.2102373 15.826904,16.5833333 15.3666667,16.5833333 L7.86666667,16.5833333 Z" id="Icon_Cards" ></path>
</svg>
