<svg viewBox="0 0 24 24" version="1.1" xmlns="http://www.w3.org/2000/svg" xmlns:xlink="http://www.w3.org/1999/xlink">
    <path d="M8.72806172,13.9773399 L5.81195757,13.9773399 C5.59209148,13.9773399 5.40405093,13.8975377 5.24783028,13.737931 C5.09160963,13.5783243 5.01350048,13.3802967 5.01350048,13.1438424 C5.01350048,12.9192107 5.09160963,12.7270944 5.24783028,12.5674877 C5.40405093,12.407881 5.59209148,12.3280788 5.81195757,12.3280788 L10.6721311,12.3280788 C10.7762782,12.3280788 10.8775308,12.3487683 10.975892,12.3901478 C11.0742531,12.4315273 11.163934,12.4876844 11.2449373,12.5586207 C11.3143687,12.6413797 11.3693344,12.7330044 11.4098361,12.8334975 C11.4503377,12.9339907 11.4705882,13.0374379 11.4705882,13.1438424 L11.4705882,18.1093596 C11.4705882,18.3339913 11.3924791,18.5261076 11.2362584,18.6857143 C11.0800378,18.845321 10.8919972,18.9251232 10.6721311,18.9251232 C10.4406932,18.9251232 10.2468667,18.845321 10.0906461,18.6857143 C9.93442545,18.5261076 9.8563163,18.3339913 9.8563163,18.1093596 L9.8563163,15.1477833 L4.38862102,20.7517241 C4.22661443,20.9172422 4.03278801,21 3.80713597,21 C3.58148392,21 3.38765751,20.9172422 3.22565092,20.7517241 C3.07521622,20.5862061 3,20.3911341 3,20.1665025 C3,19.9418708 3.08100208,19.7467989 3.24300868,19.5812808 L8.72806172,13.9773399 Z M15.2719383,10.0226601 L18.1880424,10.0226601 C18.4079085,10.0226601 18.5959491,10.1024623 18.7521697,10.262069 C18.9083904,10.4216757 18.9864995,10.6197033 18.9864995,10.8561576 C18.9864995,11.0807893 18.9083904,11.2729056 18.7521697,11.4325123 C18.5959491,11.592119 18.4079085,11.6719212 18.1880424,11.6719212 L13.3278689,11.6719212 C13.2237218,11.6719212 13.1224692,11.6512317 13.024108,11.6098522 C12.9257469,11.5684727 12.8418518,11.5123156 12.7724204,11.4413793 C12.6914171,11.3586203 12.6306656,11.2669956 12.5901639,11.1665025 C12.5496623,11.0660093 12.5294118,10.9625621 12.5294118,10.8561576 L12.5294118,5.89064039 C12.5294118,5.66600873 12.6075209,5.47389242 12.7637416,5.31428571 C12.9199622,5.154679 13.1080028,5.07487685 13.3278689,5.07487685 C13.5593068,5.07487685 13.7531333,5.154679 13.9093539,5.31428571 C14.0655746,5.47389242 14.1436837,5.66600873 14.1436837,5.89064039 L14.1436837,8.85221675 L19.6287367,3.24827586 C19.7791714,3.08275779 19.967212,3 20.192864,3 C20.4185161,3 20.6123425,3.08275779 20.7743491,3.24827586 C20.9247838,3.41379393 21,3.60886587 21,3.83349754 C21,4.0581292 20.9189979,4.25320114 20.7569913,4.41871921 L15.2719383,10.0226601 Z" id="Icon_Collapse" ></path>
</svg>
