<svg viewBox="0 0 24 24" version="1.1" xmlns="http://www.w3.org/2000/svg" xmlns:xlink="http://www.w3.org/1999/xlink">
    <path d="M4.34432234,9.6 C3.89925771,9.6 3.53846154,9.9581722 3.53846154,10.4 L3.53846154,13.6 C3.53846154,14.0418278 3.89925771,14.4 4.34432234,14.4 L19.6556777,14.4 C20.1007423,14.4 20.4615385,14.0418278 20.4615385,13.6 L20.4615385,10.4 C20.4615385,9.9581722 20.1007423,9.6 19.6556777,9.6 L4.34432234,9.6 Z M4.4,8 L19.6,8 C20.9254834,8 22,9.0745166 22,10.4 L22,13.6 C22,14.9254834 20.9254834,16 19.6,16 L4.4,16 C3.0745166,16 2,14.9254834 2,13.6 L2,10.4 C2,9.0745166 3.0745166,8 4.4,8 Z" id="Icon_ColorscaleTall" ></path>
</svg>
