<svg fill="currentColor" viewBox="0 0 24 24" version="1.1" xmlns="http://www.w3.org/2000/svg" xmlns:xlink="http://www.w3.org/1999/xlink">
    <path d="M4.34432234,11.1666667 C3.89925771,11.1666667 3.53846154,11.5397627 3.53846154,12 C3.53846154,12.4602373 3.89925771,12.8333333 4.34432234,12.8333333 L19.6556777,12.8333333 C20.1007423,12.8333333 20.4615385,12.4602373 20.4615385,12 C20.4615385,11.5397627 20.1007423,11.1666667 19.6556777,11.1666667 L4.34432234,11.1666667 Z M4.4,9.5 L19.6,9.5 C20.9254834,9.5 22,10.6192881 22,12 C22,13.3807119 20.9254834,14.5 19.6,14.5 L4.4,14.5 C3.0745166,14.5 2,13.3807119 2,12 C2,10.6192881 3.0745166,9.5 4.4,9.5 Z" id="Icon_ColorscaleSmall" ></path>
</svg>
