<svg viewBox="0 0 24 24" version="1.1" xmlns="http://www.w3.org/2000/svg" xmlns:xlink="http://www.w3.org/1999/xlink">
    <path d="M5.81818182,3.54545455 C5.39141633,3.54545455 5.04545455,3.89141633 5.04545455,4.31818182 L5.04545455,19.7727273 C5.04545455,20.1994928 5.39141633,20.5454545 5.81818182,20.5454545 L18.1818182,20.5454545 C18.6085837,20.5454545 18.9545455,20.1994928 18.9545455,19.7727273 L18.9545455,4.31818182 C18.9545455,3.89141633 18.6085837,3.54545455 18.1818182,3.54545455 L5.81818182,3.54545455 Z M5.81818182,2 L18.1818182,2 C19.4621146,2 20.5,3.03788535 20.5,4.31818182 L20.5,19.7727273 C20.5,21.0530237 19.4621146,22.0909091 18.1818182,22.0909091 L5.81818182,22.0909091 C4.53788535,22.0909091 3.5,21.0530237 3.5,19.7727273 L3.5,4.31818182 C3.5,3.03788535 4.53788535,2 5.81818182,2 Z M7.36363636,12.8181818 C6.93687088,12.8181818 6.59090909,12.47222 6.59090909,12.0454545 C6.59090909,11.6186891 6.93687088,11.2727273 7.36363636,11.2727273 L16.6363636,11.2727273 C17.0631291,11.2727273 17.4090909,11.6186891 17.4090909,12.0454545 C17.4090909,12.47222 17.0631291,12.8181818 16.6363636,12.8181818 L7.36363636,12.8181818 Z" id="Icon_Divider" ></path>
</svg>
