<svg fill="currentColor" viewBox="0 0 24 24" version="1.1" xmlns="http://www.w3.org/2000/svg" xmlns:xlink="http://www.w3.org/1999/xlink">
    <path d="M20.1672634,5.11667637 L4.33334247,18.7914263 L4.33334247,6.95000856 C4.33334247,5.93748715 5.15415325,5.11667637 6.16667466,5.11667637 L20.1672634,5.11667637 Z M17.8333253,18.7833271 L3.8327366,18.7833271 L19.6666575,5.10857716 L19.6666575,16.9499949 C19.6666575,17.9625163 18.8458468,18.7833271 17.8333253,18.7833271 Z M19.0253333,5.89595533 L18.5604044,5.63748599 C18.3401256,5.51502574 18.0925898,5.45001199 17.8333253,5.45001199 L6.16667466,5.45001199 C5.33824943,5.45001199 4.66667809,6.12158333 4.66667809,6.95000856 L4.66667809,16.9499949 C4.66667809,17.1465318 4.70397413,17.3362095 4.77559646,17.5129124 L4.97466666,18.0040481 L5.43959562,18.2625174 C5.65987443,18.3849777 5.90741025,18.4499914 6.16667466,18.4499914 L17.8333253,18.4499914 C18.6617506,18.4499914 19.3333219,17.7784201 19.3333219,16.9499949 L19.3333219,6.95000856 C19.3333219,6.75347162 19.2960259,6.56379392 19.2244035,6.38709102 L19.0253333,5.89595533 Z" id="icon_DodontsStrikethrough" stroke-width="2" ></path>
</svg>
