<svg fill="currentColor" viewBox="0 0 24 24" version="1.1" xmlns="http://www.w3.org/2000/svg" xmlns:xlink="http://www.w3.org/1999/xlink">
    <path d="M7.25974026,12.7217391 L8.50197628,12.7217391 L8.50197628,14.1503106 L4.58893281,14.1503106 L4.58893281,12.7217391 L5.83116883,12.7217391 L5.83116883,7.62857143 L4.01298701,7.62857143 L4.01298701,8.56024845 L2.58441558,8.56024845 L2.58441558,6.2 L4.01298701,6.2 L9.07792208,6.2 L10.5064935,6.2 L10.5064935,8.56024845 L9.07792208,8.56024845 L9.07792208,7.62857143 L7.25974026,7.62857143 L7.25974026,12.7217391 Z M2.90909091,17.8374929 C2.40701386,17.8374929 2,17.4304791 2,16.928402 C2,16.426325 2.40701386,16.0193111 2.90909091,16.0193111 L21.0909091,16.0193111 C21.5929861,16.0193111 22,16.426325 22,16.928402 C22,17.4304791 21.5929861,17.8374929 21.0909091,17.8374929 L2.90909091,17.8374929 Z" id="Icon_Dodonts_underline" ></path>
</svg>
