<svg fill="currentColor" viewBox="0 0 24 24" version="1.1" xmlns="http://www.w3.org/2000/svg" xmlns:xlink="http://www.w3.org/1999/xlink">
    <path d="M7.07498216,6.14253366 L7.72769611,5.4898197 C7.98518466,5.23233116 8.40265607,5.23233116 8.66014461,5.4898197 C8.91763316,5.74730825 8.91763316,6.16477966 8.66014461,6.42226821 L8.00743066,7.07498216 L8.66014461,7.72769611 C8.91763316,7.98518466 8.91763316,8.40265607 8.66014461,8.66014461 C8.40265607,8.91763316 7.98518466,8.91763316 7.72769611,8.66014461 L7.07498216,8.00743066 L6.42226821,8.66014461 C6.16477966,8.91763316 5.74730825,8.91763316 5.4898197,8.66014461 C5.23233116,8.40265607 5.23233116,7.98518466 5.4898197,7.72769611 L6.14253366,7.07498216 L5.4898197,6.42226821 C5.23233116,6.16477966 5.23233116,5.74730825 5.4898197,5.4898197 C5.74730825,5.23233116 6.16477966,5.23233116 6.42226821,5.4898197 L7.07498216,6.14253366 Z M11.128861,4.30769231 L18.4077524,4.30769231 C18.9386044,4.30769231 19.391825,4.49549091 19.7674279,4.87109375 C20.1430307,5.24669659 20.3308293,5.69991722 20.3308293,6.23076923 L20.3308293,13.3505265 C21.3545807,14.2565287 22,15.580364 22,17.0549451 C22,19.7860235 19.7860235,22 17.0549451,22 C15.2934772,22 13.7471177,21.0790117 12.871139,19.6923077 L5.5922476,19.6923077 C5.06139558,19.6923077 4.60817495,19.5045091 4.23257212,19.1289062 C3.85696928,18.7533034 3.66917067,18.3000828 3.66917067,17.7692308 L3.66917067,10.6494735 C2.64541931,9.74347127 2,8.41963598 2,6.94505495 C2,4.21397651 4.21397651,2 6.94505495,2 C8.70652276,2 10.2528823,2.92098825 11.128861,4.30769231 Z M11.730046,5.69230769 C11.8345039,6.09239983 11.8901099,6.51223365 11.8901099,6.94505495 C11.8901099,9.67613338 9.67613338,11.8901099 6.94505495,11.8901099 C6.27517513,11.8901099 5.63640544,11.7569117 5.05378606,11.5155554 L5.05378606,17.7692308 C5.05378606,17.9327957 5.09566056,18.0338528 5.21164304,18.1498353 C5.32762553,18.2658178 5.42868266,18.3076923 5.5922476,18.3076923 L12.269954,18.3076923 C12.1654961,17.9076002 12.1098901,17.4877664 12.1098901,17.0549451 C12.1098901,14.3238666 14.3238666,12.1098901 17.0549451,12.1098901 C17.7248249,12.1098901 18.3635946,12.2430883 18.9462139,12.4844446 L18.9462139,6.23076923 C18.9462139,6.06720429 18.9043394,5.96614716 18.788357,5.85016468 C18.6723745,5.73418219 18.5713173,5.69230769 18.4077524,5.69230769 L11.730046,5.69230769 Z M17.0549451,20.6813187 C19.0577359,20.6813187 20.6813187,19.0577359 20.6813187,17.0549451 C20.6813187,15.0521542 19.0577359,13.4285714 17.0549451,13.4285714 C15.0521542,13.4285714 13.4285714,15.0521542 13.4285714,17.0549451 C13.4285714,19.0577359 15.0521542,20.6813187 17.0549451,20.6813187 Z M6.94505495,10.5714286 C8.9478458,10.5714286 10.5714286,8.9478458 10.5714286,6.94505495 C10.5714286,4.94226409 8.9478458,3.31868132 6.94505495,3.31868132 C4.94226409,3.31868132 3.31868132,4.94226409 3.31868132,6.94505495 C3.31868132,8.9478458 4.94226409,10.5714286 6.94505495,10.5714286 Z M18.361714,15.6070507 C18.6151483,15.3455708 19.0325687,15.3390484 19.2940487,15.5924827 C19.5555286,15.845917 19.562051,16.2633374 19.3086167,16.5248174 L16.9682839,18.9394479 C16.7010793,19.2151354 16.2557666,19.2051192 16.0012277,18.9176965 L15.0448572,17.8377729 C14.8034359,17.5651625 14.8287196,17.1484574 15.1013301,16.9070361 C15.3739405,16.6656148 15.7906456,16.6908986 16.0320669,16.963509 L16.5166473,17.5106921 L18.361714,15.6070507 Z" id="Icon_DoandDont_image" ></path>
</svg>
