<svg viewBox="0 0 24 24" version="1.1" xmlns="http://www.w3.org/2000/svg" xmlns:xlink="http://www.w3.org/1999/xlink">
    <path d="M17.4191617,18.997006 C17.8682657,18.997006 18.2899182,18.9121765 18.6841317,18.742515 C19.0783453,18.5728534 19.4226532,18.3408198 19.7170659,18.0464072 C20.0114785,17.7519945 20.2435121,17.4051916 20.4131737,17.005988 C20.5828352,16.6067844 20.6676647,16.182637 20.6676647,15.7335329 C20.6676647,15.1147674 20.5104806,14.5509007 20.1961078,14.0419162 C19.881735,13.5329316 19.4700624,13.138724 18.9610778,12.8592814 C19.0209584,12.6397195 19.0658681,12.4176658 19.0958084,12.1931138 C19.1257487,11.9685618 19.1407186,11.7415181 19.1407186,11.511976 C19.1407186,10.7934096 19.0059894,10.1197636 18.7365269,9.49101796 C18.4670645,8.86227231 18.1003017,8.3133756 17.6362275,7.84431138 C17.1721534,7.37524716 16.6257516,7.00598937 15.997006,6.73652695 C15.3682603,6.46706452 14.6996043,6.33233533 13.991018,6.33233533 C13.2025909,6.33233533 12.4665703,6.49949933 11.7829341,6.83383234 C11.099298,7.16816534 10.5229564,7.61975763 10.0538922,8.18862275 C9.86427051,8.11876213 9.66966168,8.06387246 9.47005988,8.0239521 C9.27045808,7.98403174 9.06586931,7.96407186 8.85628743,7.96407186 C8.40718338,7.96407186 7.98553091,8.04890135 7.59131737,8.21856287 C7.19710382,8.3882244 6.85529087,8.62275299 6.56586826,8.92215569 C6.27644566,9.22155838 6.04690704,9.5683613 5.87724551,9.96257485 C5.70758398,10.3567884 5.62275449,10.7784409 5.62275449,11.2275449 C5.62275449,11.4670671 5.64520936,11.6941107 5.69011976,11.9086826 C5.73503016,12.1232546 5.80239476,12.3353283 5.89221557,12.5449102 C5.16366901,12.6946115 4.55489266,13.0663643 4.06586826,13.6601796 C3.57684386,14.253995 3.33233533,14.9451058 3.33233533,15.7335329 C3.33233533,16.1726569 3.41466984,16.5893194 3.57934132,16.9835329 C3.7440128,17.3777465 3.96856145,17.7195594 4.25299401,18.008982 C4.53742657,18.2984046 4.86925958,18.5329332 5.24850299,18.7125749 C5.62774641,18.8922165 6.03692395,18.9870259 6.4760479,18.997006 L17.4191617,18.997006 Z M20.4281437,12.260479 C20.907188,12.6896229 21.2889207,13.2035898 21.5733533,13.8023952 C21.8577859,14.4012006 22,15.0449067 22,15.7335329 C22,16.3622786 21.8827357,16.9510951 21.6482036,17.5 C21.4136715,18.0489049 21.0943134,18.5304371 20.6901198,18.9446108 C20.2859261,19.3587845 19.811879,19.6906175 19.2679641,19.9401198 C18.7240492,20.189622 18.1427177,20.3193612 17.5239521,20.3293413 L6.56586826,20.3293413 C5.9371226,20.3293413 5.34581115,20.209582 4.79191617,19.9700599 C4.23802118,19.7305377 3.75399409,19.4011997 3.33982036,18.9820359 C2.92564663,18.5628722 2.59880359,18.0738551 2.35928144,17.5149701 C2.11975928,16.956085 2,16.3622786 2,15.7335329 C2,15.3043891 2.05488967,14.8927165 2.16467066,14.498503 C2.27445165,14.1042894 2.4316357,13.7350317 2.63622754,13.3907186 C2.84081939,13.0464055 3.08532792,12.7320374 3.36976048,12.4476048 C3.65419304,12.1631722 3.96606617,11.9261487 4.30538922,11.7365269 C4.30538922,11.6467061 4.30289424,11.5618766 4.29790419,11.4820359 C4.29291415,11.4021952 4.29041916,11.3173657 4.29041916,11.2275449 C4.29041916,10.5987993 4.41017844,10.0049928 4.6497006,9.44610778 C4.88922275,8.88722275 5.21357081,8.39820569 5.62275449,7.97904192 C6.03193817,7.55987814 6.51596527,7.23054012 7.0748503,6.99101796 C7.63373533,6.75149581 8.22754177,6.63173653 8.85628743,6.63173653 C8.98602859,6.63173653 9.11576781,6.6367265 9.24550898,6.64670659 C9.37525015,6.65668668 9.50498937,6.67664656 9.63473054,6.70658683 C9.92415314,6.4371244 10.2360263,6.19760584 10.5703593,5.98802395 C10.9046923,5.77844207 11.2539902,5.60129813 11.6182635,5.45658683 C11.9825368,5.31187552 12.3642695,5.1996012 12.7634731,5.11976048 C13.1626766,5.03991976 13.5718542,5 13.991018,5 C14.889226,5 15.732531,5.16965898 16.5209581,5.50898204 C17.3093852,5.84830509 17.9955061,6.31486729 18.5793413,6.90868263 C19.1631766,7.50249798 19.6247488,8.19360883 19.9640719,8.98203593 C20.3033949,9.77046302 20.4730539,10.613768 20.4730539,11.511976 C20.4730539,11.6417172 20.4680639,11.7689615 20.4580838,11.8937126 C20.4481037,12.0184637 20.4381238,12.140718 20.4281437,12.260479 Z M12.6586826,14.7005988 L13.9011976,13.4730539 C14.0309388,13.3333326 14.1881228,13.265968 14.3727545,13.2709581 C14.5573862,13.2759481 14.7145702,13.3433127 14.8443114,13.4730539 C14.9740525,13.6027951 15.0389222,13.7599791 15.0389222,13.9446108 C15.0389222,14.1292424 14.9740525,14.2864265 14.8443114,14.4161677 L12.5389222,16.7065868 C12.4790416,16.7964076 12.4016971,16.8662672 12.3068862,16.9161677 C12.2120754,16.9660681 12.109781,16.991018 12,16.991018 C11.9001991,16.991018 11.8053897,16.9710581 11.7155689,16.9311377 C11.6257481,16.8912174 11.5508985,16.8363277 11.491018,16.7664671 L9.14071856,14.4161677 C9.00099731,14.2764464 8.93363271,14.1167674 8.93862275,13.9371257 C8.9436128,13.7574841 9.0109774,13.6027951 9.14071856,13.4730539 C9.27045973,13.3433127 9.42764379,13.2784431 9.61227545,13.2784431 C9.79690711,13.2784431 9.95409117,13.3433127 10.0838323,13.4730539 L11.3263473,14.7155689 L11.3263473,10.988024 C11.3263473,10.8083823 11.3912169,10.6536933 11.5209581,10.5239521 C11.6506993,10.3942109 11.8103783,10.3293413 12,10.3293413 C12.1796416,10.3293413 12.3343307,10.3942109 12.4640719,10.5239521 C12.593813,10.6536933 12.6586826,10.8083823 12.6586826,10.988024 L12.6586826,14.7005988 Z"/>
</svg>
