<svg fill="currentColor" viewBox="0 0 24 24" version="1.1" xmlns="http://www.w3.org/2000/svg" xmlns:xlink="http://www.w3.org/1999/xlink">
    <path d="M9.44242424,21 C8.80645999,21 8.29090909,20.6133368 8.29090909,20.1363636 C8.29090909,19.6593904 8.80645999,19.2727273 9.44242424,19.2727273 L14.0484848,19.2727273 C14.6844491,19.2727273 15.2,19.6593904 15.2,20.1363636 C15.2,20.6133368 14.6844491,21 14.0484848,21 L9.44242424,21 Z M7.50578512,17.5454545 C6.98545073,17.5454545 6.56363636,17.1587914 6.56363636,16.6818182 C6.56363636,16.204845 6.98545073,15.8181818 7.50578512,15.8181818 L15.985124,15.8181818 C16.5054584,15.8181818 16.9272727,16.204845 16.9272727,16.6818182 C16.9272727,17.1587914 16.5054584,17.5454545 15.985124,17.5454545 L7.50578512,17.5454545 Z M11.7454545,14.0909091 C8.40664219,14.0909091 5.7,11.3842669 5.7,8.04545455 C5.7,4.70664219 8.40664219,2 11.7454545,2 C15.0842669,2 17.7909091,4.70664219 17.7909091,8.04545455 C17.7909091,11.3842669 15.0842669,14.0909091 11.7454545,14.0909091 Z M11.7454545,12.3636364 C14.1303205,12.3636364 16.0636364,10.4303205 16.0636364,8.04545455 C16.0636364,5.66058858 14.1303205,3.72727273 11.7454545,3.72727273 C9.36058858,3.72727273 7.42727273,5.66058858 7.42727273,8.04545455 C7.42727273,10.4303205 9.36058858,12.3636364 11.7454545,12.3636364 Z" id="Icon_drops" ></path>
</svg>
