<svg fill="currentColor" viewBox="0 0 24 24" version="1.1" xmlns="http://www.w3.org/2000/svg" xmlns:xlink="http://www.w3.org/1999/xlink">
    <path d="M9.26086957,14.7391304 L7.69565217,14.7391304 C7.26342933,14.7391304 6.91304348,14.3887446 6.91304348,13.9565217 C6.91304348,13.5242989 7.26342933,13.173913 7.69565217,13.173913 L9.26086957,13.173913 L9.26086957,11.6086957 C9.26086957,11.1764728 9.61125541,10.826087 10.0434783,10.826087 C10.4757011,10.826087 10.826087,11.1764728 10.826087,11.6086957 L10.826087,13.173913 L12.3913043,13.173913 C12.8235272,13.173913 13.173913,13.5242989 13.173913,13.9565217 C13.173913,14.3887446 12.8235272,14.7391304 12.3913043,14.7391304 L10.826087,14.7391304 L10.826087,16.3043478 C10.826087,16.7365707 10.4757011,17.0869565 10.0434783,17.0869565 C9.61125541,17.0869565 9.26086957,16.7365707 9.26086957,16.3043478 L9.26086957,14.7391304 Z M8.57033248,6.91304348 L14.601023,6.91304348 C15.9739662,6.91304348 17.0869565,8.02603382 17.0869565,9.39897698 L17.0869565,15.4296675 L18.5140665,15.4296675 C18.9717142,15.4296675 19.342711,15.0586707 19.342711,14.601023 L19.342711,5.4859335 C19.342711,5.02828578 18.9717142,4.657289 18.5140665,4.657289 L9.39897698,4.657289 C8.94132926,4.657289 8.57033248,5.02828578 8.57033248,5.4859335 L8.57033248,6.91304348 Z M17.0869565,17.0869565 L17.0869565,18.5140665 C17.0869565,19.8870097 15.9739662,21 14.601023,21 L5.4859335,21 C4.11299034,21 3,19.8870097 3,18.5140665 L3,9.39897698 C3,8.02603382 4.11299034,6.91304348 5.4859335,6.91304348 L6.91304348,6.91304348 L6.91304348,5.4859335 C6.91304348,4.11299034 8.02603382,3 9.39897698,3 L18.5140665,3 C19.8870097,3 21,4.11299034 21,5.4859335 L21,14.601023 C21,15.9739662 19.8870097,17.0869565 18.5140665,17.0869565 L17.0869565,17.0869565 Z M5.40802676,8.47826087 C4.942556,8.47826087 4.56521739,8.85559948 4.56521739,9.32107023 L4.56521739,18.5919732 C4.56521739,19.057444 4.942556,19.4347826 5.40802676,19.4347826 L14.6789298,19.4347826 C15.1444005,19.4347826 15.5217391,19.057444 15.5217391,18.5919732 L15.5217391,9.32107023 C15.5217391,8.85559948 15.1444005,8.47826087 14.6789298,8.47826087 L5.40802676,8.47826087 Z" id="Icon_duplicate" ></path>
</svg>
