<svg fill="currentColor" viewBox="0 0 24 24" version="1.1" xmlns="http://www.w3.org/2000/svg" xmlns:xlink="http://www.w3.org/1999/xlink">
    <path id="Icon_FigureTextTop" d="M6.79553223,10.5029907 C6.10517629,10.5029907 5.54553223,11.0626348 5.54553223,11.7529907 L5.54553223,18.2470093 C5.54553223,18.9373652 6.10517629,19.4970093 6.79553223,19.4970093 L17.2589111,19.4970093 C17.9492671,19.4970093 18.5089111,18.9373652 18.5089111,18.2470093 L18.5089111,11.7529907 C18.5089111,11.0626348 17.9492671,10.5029907 17.2589111,10.5029907 L6.79553223,10.5029907 Z M6.79553223,9.00299072 L17.2589111,9.00299072 C18.7776942,9.00299072 20.0089111,10.2342077 20.0089111,11.7529907 L20.0089111,18.2470093 C20.0089111,19.7657923 18.7776942,20.9970093 17.2589111,20.9970093 L6.79553223,20.9970093 C5.27674916,20.9970093 4.04553223,19.7657923 4.04553223,18.2470093 L4.04553223,11.7529907 C4.04553223,10.2342077 5.27674916,9.00299072 6.79553223,9.00299072 Z M8.75,4.50299072 C8.33578644,4.50299072 8,4.16720429 8,3.75299072 C8,3.33877716 8.33578644,3.00299072 8.75,3.00299072 L15.25,3.00299072 C15.6642136,3.00299072 16,3.33877716 16,3.75299072 C16,4.16720429 15.6642136,4.50299072 15.25,4.50299072 L8.75,4.50299072 Z M9.69555664,7.25970459 C9.28134308,7.25970459 8.94555664,6.92391815 8.94555664,6.50970459 C8.94555664,6.09549103 9.28134308,5.75970459 9.69555664,5.75970459 L14.1955566,5.75970459 C14.6097702,5.75970459 14.9455566,6.09549103 14.9455566,6.50970459 C14.9455566,6.92391815 14.6097702,7.25970459 14.1955566,7.25970459 L9.69555664,7.25970459 Z"></path>
</svg>
