<svg viewBox="0 0 24 24" version="1.1" xmlns="http://www.w3.org/2000/svg" xmlns:xlink="http://www.w3.org/1999/xlink">
    <path id="Icon_FigureTextLeft" d="M13.7449341,7.51391602 C13.0545781,7.51391602 12.4949341,8.07356008 12.4949341,8.76391602 L12.4949341,15.2579346 C12.4949341,15.9482905 13.0545781,16.5079346 13.7449341,16.5079346 L18.2550659,16.5079346 C18.9454219,16.5079346 19.5050659,15.9482905 19.5050659,15.2579346 L19.5050659,8.76391602 C19.5050659,8.07356008 18.9454219,7.51391602 18.2550659,7.51391602 L13.7449341,7.51391602 Z M13.7449341,6.01391602 L18.2550659,6.01391602 C19.773849,6.01391602 21.0050659,7.24513295 21.0050659,8.76391602 L21.0050659,15.2579346 C21.0050659,16.7767176 19.773849,18.0079346 18.2550659,18.0079346 L13.7449341,18.0079346 C12.226151,18.0079346 10.9949341,16.7767176 10.9949341,15.2579346 L10.9949341,8.76391602 C10.9949341,7.24513295 12.226151,6.01391602 13.7449341,6.01391602 Z M3.7557373,7.51391602 C3.34152374,7.51391602 3.0057373,7.17812958 3.0057373,6.76391602 C3.0057373,6.34970245 3.34152374,6.01391602 3.7557373,6.01391602 L8.7557373,6.01391602 C9.16995087,6.01391602 9.5057373,6.34970245 9.5057373,6.76391602 C9.5057373,7.17812958 9.16995087,7.51391602 8.7557373,7.51391602 L3.7557373,7.51391602 Z M4.7557373,10.513916 C4.34152374,10.513916 4.0057373,10.1781296 4.0057373,9.76391602 C4.0057373,9.34970245 4.34152374,9.01391602 4.7557373,9.01391602 L8.7557373,9.01391602 C9.16995087,9.01391602 9.5057373,9.34970245 9.5057373,9.76391602 C9.5057373,10.1781296 9.16995087,10.513916 8.7557373,10.513916 L4.7557373,10.513916 Z"></path>
</svg>
