<svg fill="currentColor" viewBox="0 0 24 24" version="1.1" xmlns="http://www.w3.org/2000/svg" xmlns:xlink="http://www.w3.org/1999/xlink">
    <path d="M12.9499136,6.07426598 L19.6856649,6.07426598 C20.3189439,6.07426598 20.8629799,6.29878877 21.3177893,6.74784111 C21.7725987,7.19689344 22,7.74380794 22,8.38860104 L22,18.3713299 C22,19.016123 21.7725987,19.5630375 21.3177893,20.0120898 C20.8629799,20.4611421 20.3189439,20.6856649 19.6856649,20.6856649 L4.31433506,20.6856649 C3.66954197,20.6856649 3.12262746,20.4611421 2.67357513,20.0120898 C2.2245228,19.5630375 2,19.016123 2,18.3713299 L2,8.27633851 C2,8.23603895 2.00575699,8.19861848 2.01727116,8.16407599 C2.00575699,8.09499102 2.00575699,8.01727159 2.01727116,7.93091537 C2.02878532,7.84455915 2.0460563,7.76108273 2.06908463,7.68048359 L3.07081174,4.46804836 C3.19746753,4.06505268 3.4565323,3.71963299 3.84801382,3.43177893 C4.23949534,3.14392487 4.64824197,3 5.07426598,3 L10.462867,3 C10.888891,3 11.2947592,3.14392487 11.6804836,3.43177893 C12.066208,3.71963299 12.3223943,4.06505268 12.4490501,4.46804836 L12.9499136,6.07426598 Z M11.2227979,6.07426598 L11.0328152,5.27979275 C10.9752444,5.07253782 10.8543475,4.89694948 10.6701209,4.75302245 C10.4858943,4.60909542 10.2901565,4.53713299 10.0829016,4.53713299 L5.45423143,4.53713299 C5.24697651,4.53713299 5.05123869,4.60909542 4.86701209,4.75302245 C4.68278549,4.89694948 4.5618886,5.07253782 4.50431779,5.27979275 L4.31433506,6.07426598 L11.2227979,6.07426598 Z M3.53713299,9.14853195 L3.53713299,17.611399 C3.53713299,18.037423 3.68681485,18.4001136 3.98618307,18.6994819 C4.2855513,18.9988501 4.64824197,19.148532 5.07426598,19.148532 L18.925734,19.148532 C19.351758,19.148532 19.7144487,18.9988501 20.0138169,18.6994819 C20.3131851,18.4001136 20.462867,18.037423 20.462867,17.611399 L20.462867,9.14853195 C20.462867,8.72250794 20.3131851,8.35981727 20.0138169,8.06044905 C19.7144487,7.76108083 19.351758,7.61139896 18.925734,7.61139896 L5.07426598,7.61139896 C4.64824197,7.61139896 4.2855513,7.76108083 3.98618307,8.06044905 C3.68681485,8.35981727 3.53713299,8.72250794 3.53713299,9.14853195 Z"/>
</svg>
