<svg viewBox="0 0 24 24" xmlns="http://www.w3.org/2000/svg">
 <title>image-text-ratio-25</title>
  <path id="svg_1" d="m5.69202,3.004885l6.02344,0c1.51878,0 2.75,1.23122 2.75,2.75l0,12.49023c0,1.51879 -1.23122,2.75 -2.75,2.75l-6.02344,0c-1.51878,0 -2.75,-1.23121 -2.75,-2.75l0,-12.49023c0,-1.51878 1.23122,-2.75 2.75,-2.75zm0,1.5c-0.69036,0 -1.25,0.55964 -1.25,1.25l0,12.49023c0,0.69036 0.55964,1.25 1.25,1.25l6.02344,0c0.69035,0 1.25,-0.55964 1.25,-1.25l0,-12.49023c0,-0.69036 -0.55965,-1.25 -1.25,-1.25l-6.02344,0zm11.00952,0.96973c-0.41421,0 -0.75,-0.33579 -0.75,-0.75c0,-0.41422 0.33579,-0.75 0.75,-0.75l3.60644,0c0.41422,0 0.75,0.33578 0.75,0.75c0,0.41421 -0.33578,0.75 -0.75,0.75l-3.60644,0zm0,3.03003c-0.41421,0 -0.75,-0.33579 -0.75,-0.75c0,-0.41422 0.33579,-0.75 0.75,-0.75l3.60644,0c0.41422,0 0.75,0.33578 0.75,0.75c0,0.41421 -0.33578,0.75 -0.75,0.75l-3.60644,0zm0.00362,3.03344c-0.41421,0 -0.75,-0.33578 -0.75,-0.75c0,-0.41421 0.33579,-0.75 0.75,-0.75l2.11789,0c0.41421,0 0.75,0.33579 0.75,0.75c0,0.41422 -0.33579,0.75 -0.75,0.75l-2.11789,0z"/>
</svg>
