<svg viewBox="0 0 24 24" fill="currentColor" xmlns="http://www.w3.org/2000/svg">
    <path fill-rule="evenodd" clip-rule="evenodd" d="M12 5.5H4C3.72386 5.5 3.5 5.72386 3.5 6V18C3.5 18.2761 3.72386 18.5 4 18.5H12C12.2761 18.5 12.5 18.2761 12.5 18V6C12.5 5.72386 12.2761 5.5 12 5.5ZM4 4C2.89543 4 2 4.89543 2 6V18C2 19.1046 2.89543 20 4 20H12C13.1046 20 14 19.1046 14 18V6C14 4.89543 13.1046 4 12 4H4Z" />
    <path fill-rule="evenodd" clip-rule="evenodd" d="M22 5.75C22 6.16421 21.6642 6.5 21.25 6.5L16.75 6.5C16.3358 6.5 16 6.16421 16 5.75C16 5.33579 16.3358 5 16.75 5H21.25C21.6642 5 22 5.33579 22 5.75Z" />
    <path fill-rule="evenodd" clip-rule="evenodd" d="M22 11.75C22 12.1642 21.6642 12.5 21.25 12.5H16.75C16.3358 12.5 16 12.1642 16 11.75C16 11.3358 16.3358 11 16.75 11H21.25C21.6642 11 22 11.3358 22 11.75Z" />
    <path fill-rule="evenodd" clip-rule="evenodd" d="M20 8.75C20 9.16421 19.6642 9.5 19.25 9.5H16.75C16.3358 9.5 16 9.16421 16 8.75C16 8.33579 16.3358 8 16.75 8H19.25C19.6642 8 20 8.33579 20 8.75Z" />
    <path fill-rule="evenodd" clip-rule="evenodd" d="M20 14.75C20 15.1642 19.6642 15.5 19.25 15.5H16.75C16.3358 15.5 16 15.1642 16 14.75C16 14.3358 16.3358 14 16.75 14H19.25C19.6642 14 20 14.3358 20 14.75Z" />
</svg>
