<svg viewBox="0 0 24 24" fill="currentColor" xmlns="http://www.w3.org/2000/svg">
    <path fill-rule="evenodd" clip-rule="evenodd" d="M14 5.5H4C3.72386 5.5 3.5 5.72386 3.5 6V18C3.5 18.2761 3.72386 18.5 4 18.5H14C14.2761 18.5 14.5 18.2761 14.5 18V6C14.5 5.72386 14.2761 5.5 14 5.5ZM4 4C2.89543 4 2 4.89543 2 6V18C2 19.1046 2.89543 20 4 20H14C15.1046 20 16 19.1046 16 18V6C16 4.89543 15.1046 4 14 4H4Z" />
    <path fill-rule="evenodd" clip-rule="evenodd" d="M22 5.75C22 6.16421 21.6642 6.5 21.25 6.5H18.75C18.3358 6.5 18 6.16421 18 5.75C18 5.33579 18.3358 5 18.75 5H21.25C21.6642 5 22 5.33579 22 5.75Z" />
    <path fill-rule="evenodd" clip-rule="evenodd" d="M22 11.75C22 12.1642 21.6642 12.5 21.25 12.5H18.75C18.3358 12.5 18 12.1642 18 11.75C18 11.3358 18.3358 11 18.75 11H21.25C21.6642 11 22 11.3358 22 11.75Z" />
    <path fill-rule="evenodd" clip-rule="evenodd" d="M21 8.75C21 9.16421 20.6642 9.5 20.25 9.5H18.75C18.3358 9.5 18 9.16421 18 8.75C18 8.33579 18.3358 8 18.75 8H20.25C20.6642 8 21 8.33579 21 8.75Z" />
    <path fill-rule="evenodd" clip-rule="evenodd" d="M21 14.75C21 15.1642 20.6642 15.5 20.25 15.5H18.75C18.3358 15.5 18 15.1642 18 14.75C18 14.3358 18.3358 14 18.75 14H20.25C20.6642 14 21 14.3358 21 14.75Z" />
</svg>
