<svg fill="currentColor" viewBox="0 0 24 24" version="1.1" xmlns="http://www.w3.org/2000/svg" xmlns:xlink="http://www.w3.org/1999/xlink">
    <path d="M14.9486023,19.9341749 L15.8503156,19.9341749 C16.2711172,19.9341749 16.6317989,19.7838909 16.9323715,19.4833183 C17.2329441,19.1827457 17.3832281,18.822064 17.3832281,18.4012624 L17.3832281,9.1496844 C17.3832281,8.72888278 17.2329441,8.36820108 16.9323715,8.06762849 C16.6317989,7.76705591 16.2711172,7.61677187 15.8503156,7.61677187 L5.06582507,7.61677187 C4.64502344,7.61677187 4.28434175,7.76705591 3.98376916,8.06762849 C3.68319657,8.36820108 3.53291253,8.72888278 3.53291253,9.1496844 L3.53291253,16.9765555 L7.77096483,14.5058611 L14.9486023,19.9341749 Z M12.1532913,19.9341749 L7.7348963,16.5076646 L3.58701533,18.7439134 C3.65915275,19.0805547 3.83348224,19.3630887 4.11000902,19.5915239 C4.3865358,19.8199591 4.70513796,19.9341749 5.06582507,19.9341749 L12.1532913,19.9341749 Z M18.9341749,18.3832281 L18.9341749,19.1587015 C18.9341749,19.7959154 18.7087489,20.3399436 18.25789,20.7908025 C17.8070311,21.2416614 17.2630029,21.4670875 16.625789,21.4670875 L4.30838593,21.4670875 C3.67117205,21.4670875 3.12714382,21.2416614 2.67628494,20.7908025 C2.22542606,20.3399436 2,19.7959154 2,19.1587015 L2,8.374211 C2,7.74902002 2.22542606,7.21100316 2.67628494,6.76014427 C3.12714382,6.30928539 3.67117205,6.08385933 4.30838593,6.08385933 L5.08385933,6.08385933 L5.08385933,5.30838593 C5.08385933,4.67117205 5.30928539,4.12714382 5.76014427,3.67628494 C6.21100316,3.22542606 6.75503138,3 7.39224527,3 L19.6916141,3 C20.328828,3 20.8728562,3.22542606 21.3237151,3.67628494 C21.7745739,4.12714382 22,4.67117205 22,5.30838593 L22,16.0928765 C22,16.7180674 21.7745739,17.2560843 21.3237151,17.7069432 C20.8728562,18.1578021 20.328828,18.3832281 19.6916141,18.3832281 L18.9341749,18.3832281 Z M18.9341749,16.8503156 C19.3549766,16.8503156 19.7156583,16.7000316 20.0162308,16.399459 C20.3168034,16.0988864 20.4670875,15.7382047 20.4670875,15.3174031 L20.4670875,6.06582507 C20.4670875,5.64502344 20.3168034,5.28434175 20.0162308,4.98376916 C19.7156583,4.68319657 19.3549766,4.53291253 18.9341749,4.53291253 L8.1496844,4.53291253 C7.72888278,4.53291253 7.36820108,4.68319657 7.06762849,4.98376916 C6.76705591,5.28434175 6.61677187,5.64502344 6.61677187,6.06582507 L16.625789,6.08385933 C17.2630029,6.08385933 17.8070311,6.30928539 18.25789,6.76014427 C18.7087489,7.21100316 18.9341749,7.74902002 18.9341749,8.374211 L18.9341749,16.8503156 Z M12.7664563,15.3174031 C11.924853,15.3174031 11.2034896,15.016835 10.6023445,14.4156898 C10.0011993,13.8145446 9.7006312,13.0871699 9.7006312,12.2335437 C9.7006312,11.3799176 10.0011993,10.6525428 10.6023445,10.0513977 C11.2034896,9.45025248 11.924853,9.1496844 12.7664563,9.1496844 C13.6200824,9.1496844 14.3474572,9.45025248 14.9486023,10.0513977 C15.5497475,10.6525428 15.8503156,11.3799176 15.8503156,12.2335437 C15.8503156,13.0871699 15.5497475,13.8145446 14.9486023,14.4156898 C14.3474572,15.016835 13.6200824,15.3174031 12.7664563,15.3174031 Z M12.7664563,13.7664563 C13.1992808,13.7664563 13.5659739,13.6161722 13.8665464,13.3155996 C14.167119,13.0150271 14.3174031,12.6543454 14.3174031,12.2335437 C14.3174031,11.8127421 14.167119,11.4520604 13.8665464,11.1514878 C13.5659739,10.8509152 13.1992808,10.7006312 12.7664563,10.7006312 C12.3456546,10.7006312 11.9849729,10.8509152 11.6844004,11.1514878 C11.3838278,11.4520604 11.2335437,11.8127421 11.2335437,12.2335437 C11.2335437,12.6543454 11.3838278,13.0150271 11.6844004,13.3155996 C11.9849729,13.6161722 12.3456546,13.7664563 12.7664563,13.7664563 Z" id="Icon_Image-Library" ></path>
</svg>
