<svg  viewBox="0 0 24 24" fill="currentColor" xmlns="http://www.w3.org/2000/svg">
    <path fill-rule="evenodd" clip-rule="evenodd" d="M22 6.354C22 6.76822 21.6642 7.104 21.25 7.104L17.7636 7.104C17.3494 7.104 17.0136 6.76822 17.0136 6.354C17.0136 5.93979 17.3494 5.604 17.7636 5.604H21.25C21.6642 5.604 22 5.93979 22 6.354Z" />
    <path fill-rule="evenodd" clip-rule="evenodd" d="M22 12.354C22 12.7682 21.6642 13.104 21.25 13.104H17.7636C17.3494 13.104 17.0136 12.7682 17.0136 12.354C17.0136 11.9398 17.3494 11.604 17.7636 11.604H21.25C21.6642 11.604 22 11.9398 22 12.354Z" />
    <path fill-rule="evenodd" clip-rule="evenodd" d="M20.5752 9.354C20.5752 9.76822 20.2394 10.104 19.8252 10.104H17.7635C17.3493 10.104 17.0135 9.76822 17.0135 9.354C17.0135 8.93979 17.3493 8.604 17.7635 8.604H19.8252C20.2394 8.604 20.5752 8.93979 20.5752 9.354Z" />
    <path fill-rule="evenodd" clip-rule="evenodd" d="M20.5752 15.354C20.5752 15.7682 20.2394 16.104 19.8252 16.104H17.7635C17.3493 16.104 17.0135 15.7682 17.0135 15.354C17.0135 14.9398 17.3493 14.604 17.7635 14.604H19.8252C20.2394 14.604 20.5752 14.9398 20.5752 15.354Z" />
    <path fill-rule="evenodd" clip-rule="evenodd" d="M13 6H4C3.72386 6 3.5 6.22386 3.5 6.5V18.5C3.5 18.7761 3.72386 19 4 19H13C13.2761 19 13.5 18.7761 13.5 18.5V6.5C13.5 6.22386 13.2761 6 13 6ZM4 4.5C2.89543 4.5 2 5.39543 2 6.5V18.5C2 19.6046 2.89543 20.5 4 20.5H13C14.1046 20.5 15 19.6046 15 18.5V6.5C15 5.39543 14.1046 4.5 13 4.5H4Z" />
    <path fill-rule="evenodd" clip-rule="evenodd" d="M11.0118 15.5008C11.104 15.5526 11.2188 15.5407 11.2985 15.4713L13.5201 13.5347C13.8323 13.2625 14.3061 13.295 14.5783 13.6072C14.8505 13.9194 14.818 14.3932 14.5058 14.6654L12.2841 16.602C11.7263 17.0882 10.9229 17.1711 10.2776 16.8088L6.06173 14.4424C5.98249 14.3979 5.88534 14.3999 5.80802 14.4477L3.39403 15.9382C3.04159 16.1558 2.57947 16.0465 2.36185 15.6941C2.14423 15.3416 2.25353 14.8795 2.60597 14.6619L5.01996 13.1713C5.56123 12.8371 6.24123 12.823 6.79595 13.1343L11.0118 15.5008Z" />
    <path fill-rule="evenodd" clip-rule="evenodd" d="M9.2 9.5C9.2 9.94183 9.55817 10.3 10 10.3C10.4418 10.3 10.8 9.94183 10.8 9.5C10.8 9.05817 10.4418 8.7 10 8.7C9.55817 8.7 9.2 9.05817 9.2 9.5ZM10 7.5C8.89543 7.5 8 8.39543 8 9.5C8 10.6046 8.89543 11.5 10 11.5C11.1046 11.5 12 10.6046 12 9.5C12 8.39543 11.1046 7.5 10 7.5Z" />
</svg>
