<svg fill="currentColor" viewBox="0 0 24 24" version="1.1" xmlns="http://www.w3.org/2000/svg" xmlns:xlink="http://www.w3.org/1999/xlink">
    <path d="M4.47222222,11.2314815 C4.06312241,11.2314815 3.73148148,11.5631224 3.73148148,11.9722222 C3.73148148,12.381322 4.06312241,12.712963 4.47222222,12.712963 C4.88132204,12.712963 5.21296296,12.381322 5.21296296,11.9722222 C5.21296296,11.5631224 4.88132204,11.2314815 4.47222222,11.2314815 Z M4.47222222,9.75 C5.69952167,9.75 6.69444444,10.7449228 6.69444444,11.9722222 C6.69444444,13.1995217 5.69952167,14.1944444 4.47222222,14.1944444 C3.24492278,14.1944444 2.25,13.1995217 2.25,11.9722222 C2.25,10.7449228 3.24492278,9.75 4.47222222,9.75 Z M9.65740741,11.2314815 C9.24830759,11.2314815 8.91666667,11.5631224 8.91666667,11.9722222 C8.91666667,12.381322 9.24830759,12.712963 9.65740741,12.712963 C10.0665072,12.712963 10.3981481,12.381322 10.3981481,11.9722222 C10.3981481,11.5631224 10.0665072,11.2314815 9.65740741,11.2314815 Z M9.65740741,9.75 C10.8847069,9.75 11.8796296,10.7449228 11.8796296,11.9722222 C11.8796296,13.1995217 10.8847069,14.1944444 9.65740741,14.1944444 C8.43010796,14.1944444 7.43518519,13.1995217 7.43518519,11.9722222 C7.43518519,10.7449228 8.43010796,9.75 9.65740741,9.75 Z M14.8425926,11.2314815 C14.4334928,11.2314815 14.1018519,11.5631224 14.1018519,11.9722222 C14.1018519,12.381322 14.4334928,12.712963 14.8425926,12.712963 C15.2516924,12.712963 15.5833333,12.381322 15.5833333,11.9722222 C15.5833333,11.5631224 15.2516924,11.2314815 14.8425926,11.2314815 Z M14.8425926,9.75 C16.069892,9.75 17.0648148,10.7449228 17.0648148,11.9722222 C17.0648148,13.1995217 16.069892,14.1944444 14.8425926,14.1944444 C13.6152931,14.1944444 12.6203704,13.1995217 12.6203704,11.9722222 C12.6203704,10.7449228 13.6152931,9.75 14.8425926,9.75 Z M20.0277778,11.2314815 C19.618678,11.2314815 19.287037,11.5631224 19.287037,11.9722222 C19.287037,12.381322 19.618678,12.712963 20.0277778,12.712963 C20.4368776,12.712963 20.7685185,12.381322 20.7685185,11.9722222 C20.7685185,11.5631224 20.4368776,11.2314815 20.0277778,11.2314815 Z M20.0277778,9.75 C21.2550772,9.75 22.25,10.7449228 22.25,11.9722222 C22.25,13.1995217 21.2550772,14.1944444 20.0277778,14.1944444 C18.8004783,14.1944444 17.8055556,13.1995217 17.8055556,11.9722222 C17.8055556,10.7449228 18.8004783,9.75 20.0277778,9.75 Z" id="icon_ImageGrid4" ></path>
</svg>
