<svg viewBox="0 0 24 24" version="1.1" xmlns="http://www.w3.org/2000/svg" xmlns:xlink="http://www.w3.org/1999/xlink">
    <path d="M14.1268057,2 C14.5985007,2 14.9483609,2.15582077 15.1749338,2.4674208 C15.4015068,2.77902084 15.458233,3.19971616 15.344905,3.72805438 C15.2500017,4.21954337 15.0332635,4.62040318 14.6933211,4.93204472 C14.3533787,5.24368625 13.9468753,5.39946552 13.4751803,5.39946552 C13.0219514,5.39946552 12.6862002,5.24368625 12.469545,4.93204472 C12.2528898,4.62040318 12.1904785,4.21958487 12.2853819,3.72805438 C12.3987099,3.19971616 12.6253243,2.77906234 12.9652667,2.4674623 C13.3052091,2.15586226 13.691877,2.0000415 14.1267642,2.0000415 L14.1268057,2 Z M10.4724249,13.8412994 C10.6806147,13.1231959 10.8265592,12.5622827 10.9115448,12.1557793 C10.9965304,11.7492759 11.0007631,11.4433194 10.9256953,11.2351296 C10.8506274,11.0268983 10.6848889,10.8951872 10.4299321,10.8385025 C10.1749753,10.7818177 9.81096472,10.7535169 9.33931123,10.7535169 C9.33524454,10.7012308 9.33292072,10.6403134 9.33292072,10.578815 C9.33292072,10.2537285 9.39769734,9.94378833 9.515092,9.66119461 L9.50928244,9.67704642 C9.73589687,9.65862181 10.0008129,9.60621125 10.3024537,9.52122565 C11.0101829,9.32112772 11.6075719,9.09916093 12.1823867,8.83648571 L12.1013433,8.86964172 C12.3747247,8.746396 12.5971064,8.62883535 12.7670776,8.51550738 C13.3520591,8.76054643 13.7061519,9.1712825 13.8293976,9.74779859 C13.9526434,10.3243147 13.8535073,11.1967865 13.531948,12.3682018 L11.9738649,17.8356226 C11.8421538,18.2888929 11.7472089,18.6613689 11.6906072,18.9546273 C11.6340054,19.2478857 11.6155393,19.4687736 11.6339639,19.6203617 C11.6523886,19.7719083 11.7047991,19.8753185 11.7897432,19.9320032 C11.8746873,19.988688 11.9838241,20.0169888 12.1154937,20.0169888 C12.3038895,20.0169888 12.5262298,19.9504278 12.7812281,19.8186753 C13.0362264,19.6869227 13.3053336,19.4787329 13.5885913,19.1954337 C13.8718904,19.383788 14.0418616,19.6869227 14.0985049,20.1019744 C13.5503726,20.7067914 13.007884,21.1742122 12.4695865,21.5042368 C11.9312891,21.8342615 11.3973488,22 10.8690105,22 C9.92425119,22 9.34354392,21.6274826 9.12680574,20.8809953 C8.91006756,20.134508 8.97098497,19.1487082 9.31096887,17.9206497 L10.4724249,13.8413408 L10.4724249,13.8412994 Z" id="Icon_Metadata" ></path>
</svg>
