<svg viewBox="0 0 24 24" fill="currentColor" xmlns="http://www.w3.org/2000/svg">
    <path fill-rule="evenodd" clip-rule="evenodd" d="M18 20.75C18.1381 20.75 18.25 20.6381 18.25 20.5V16.5C18.25 16.0858 18.5858 15.75 19 15.75C19.4142 15.75 19.75 16.0858 19.75 16.5V20.5C19.75 21.4665 18.9665 22.25 18 22.25H6C5.0335 22.25 4.25 21.4665 4.25 20.5V16.5C4.25 16.0858 4.58579 15.75 5 15.75C5.41421 15.75 5.75 16.0858 5.75 16.5V20.5C5.75 20.6381 5.86193 20.75 6 20.75H18Z" />
    <path fill-rule="evenodd" clip-rule="evenodd" d="M18 4.25C18.1381 4.25 18.25 4.36193 18.25 4.5V8.5C18.25 8.91421 18.5858 9.25 19 9.25C19.4142 9.25 19.75 8.91421 19.75 8.5V4.5C19.75 3.5335 18.9665 2.75 18 2.75L6 2.75C5.0335 2.75 4.25 3.5335 4.25 4.5V8.5C4.25 8.91421 4.58579 9.25 5 9.25C5.41421 9.25 5.75 8.91421 5.75 8.5V4.5C5.75 4.36193 5.86193 4.25 6 4.25L18 4.25Z" />
    <path d="M5 12.5C5 11.9477 5.44772 11.5 6 11.5C6.55228 11.5 7 11.9477 7 12.5C7 13.0523 6.55228 13.5 6 13.5C5.44772 13.5 5 13.0523 5 12.5Z" />
    <path d="M11 12.5C11 11.9477 11.4477 11.5 12 11.5C12.5523 11.5 13 11.9477 13 12.5C13 13.0523 12.5523 13.5 12 13.5C11.4477 13.5 11 13.0523 11 12.5Z" />
    <path d="M14 12.5C14 11.9477 14.4477 11.5 15 11.5C15.5523 11.5 16 11.9477 16 12.5C16 13.0523 15.5523 13.5 15 13.5C14.4477 13.5 14 13.0523 14 12.5Z" />
    <path d="M17 12.5C17 11.9477 17.4477 11.5 18 11.5C18.5523 11.5 19 11.9477 19 12.5C19 13.0523 18.5523 13.5 18 13.5C17.4477 13.5 17 13.0523 17 12.5Z" />
    <path d="M8 12.5C8 11.9477 8.44772 11.5 9 11.5C9.55228 11.5 10 11.9477 10 12.5C10 13.0523 9.55228 13.5 9 13.5C8.44772 13.5 8 13.0523 8 12.5Z" />
</svg>
