<svg viewBox="0 0 24 24" fill="currentColor" xmlns="http://www.w3.org/2000/svg">
    <path fill-rule="evenodd" clip-rule="evenodd" d="M21 6C21 6.55228 20.5523 7 20 7L12 7C11.4477 7 11 6.55228 11 6C11 5.44772 11.4477 5 12 5L20 5C20.5523 5 21 5.44772 21 6Z" />
    <path fill-rule="evenodd" clip-rule="evenodd" d="M11 18C11 17.4477 11.4477 17 12 17L18 17C18.5523 17 19 17.4477 19 18C19 18.5523 18.5523 19 18 19L12 19C11.4477 19 11 18.5523 11 18Z" />
    <path fill-rule="evenodd" clip-rule="evenodd" d="M19 10C19 10.5523 18.5523 11 18 11H12C11.4477 11 11 10.5523 11 10C11 9.44772 11.4477 9 12 9H18C18.5523 9 19 9.44772 19 10Z" />
    <path fill-rule="evenodd" clip-rule="evenodd" d="M21 14C21 14.5523 20.5523 15 20 15L12 15C11.4477 15 11 14.5523 11 14C11 13.4477 11.4477 13 12 13L20 13C20.5523 13 21 13.4477 21 14Z" />
    <path d="M8.73941 5.29875C8.39948 4.89145 7.85684 4.90193 7.52737 5.32217L5.12879 8.38161L4.49884 7.5022C4.18499 7.06407 3.64327 7.02344 3.28888 7.41144C2.93449 7.79944 2.90162 8.46915 3.21547 8.90727L4.45875 10.6429C4.78965 11.1048 5.36855 11.1209 5.71592 10.6778L8.75834 6.79716C9.08781 6.37692 9.07933 5.70606 8.73941 5.29875Z" />
    <path d="M8.73941 13.2988C8.39948 12.8914 7.85684 12.9019 7.52737 13.3222L5.12879 16.3816L4.49884 15.5022C4.18499 15.0641 3.64327 15.0234 3.28888 15.4114C2.93449 15.7994 2.90162 16.4691 3.21547 16.9073L4.45875 18.6429C4.78965 19.1048 5.36855 19.1209 5.71592 18.6778L8.75834 14.7972C9.08781 14.3769 9.07933 13.7061 8.73941 13.2988Z" />
</svg>
