<svg viewBox="0 0 24 24" fill="currentColor" xmlns="http://www.w3.org/2000/svg">
    <path fill-rule="evenodd" clip-rule="evenodd" d="M21 6C21 6.55228 20.5523 7 20 7L8 7C7.44771 7 7 6.55228 7 6C7 5.44772 7.44771 5 8 5L20 5C20.5523 5 21 5.44772 21 6Z" />
    <path fill-rule="evenodd" clip-rule="evenodd" d="M7 18C7 17.4477 7.44772 17 8 17L18 17C18.5523 17 19 17.4477 19 18C19 18.5523 18.5523 19 18 19L8 19C7.44772 19 7 18.5523 7 18Z" />
    <path fill-rule="evenodd" clip-rule="evenodd" d="M19 10C19 10.5523 18.5523 11 18 11H8C7.44771 11 7 10.5523 7 10C7 9.44772 7.44771 9 8 9H18C18.5523 9 19 9.44772 19 10Z" />
    <path fill-rule="evenodd" clip-rule="evenodd" d="M21 14C21 14.5523 20.5523 15 20 15L8 15C7.44771 15 7 14.5523 7 14C7 13.4477 7.44771 13 8 13L20 13C20.5523 13 21 13.4477 21 14Z" />
    <path d="M3 6C3 5.44772 3.44772 5 4 5C4.55228 5 5 5.44772 5 6V18C5 18.5523 4.55228 19 4 19C3.44772 19 3 18.5523 3 18V6Z" />
</svg>
