<svg viewBox="0 0 24 24" version="1.1" xmlns="http://www.w3.org/2000/svg" xmlns:xlink="http://www.w3.org/1999/xlink">
    <path d="M5,5 C4.44771525,5 4,5.44771525 4,6 L4,18 C4,18.5522847 4.44771525,19 5,19 L19,19 C19.5522847,19 20,18.5522847 20,18 L20,6 C20,5.44771525 19.5522847,5 19,5 L5,5 Z M5,3 L19,3 C20.6568542,3 22,4.34314575 22,6 L22,18 C22,19.6568542 20.6568542,21 19,21 L5,21 C3.34314575,21 2,19.6568542 2,18 L2,6 C2,4.34314575 3.34314575,3 5,3 Z M9,9 C8.44771525,9 8,9.44771525 8,10 L8,11 C8,11.5522847 8.44771525,12 9,12 L15,12 C15.5522847,12 16,11.5522847 16,11 L16,10 C16,9.44771525 15.5522847,9 15,9 L9,9 Z M9,7 L15,7 C16.6568542,7 18,8.34314575 18,10 L18,11 C18,12.6568542 16.6568542,14 15,14 L9,14 C7.34314575,14 6,12.6568542 6,11 L6,10 C6,8.34314575 7.34314575,7 9,7 Z" id="Icon_MarkArea" ></path>
</svg>
