<svg xmlns="http://www.w3.org/2000/svg" viewBox="0 0 24 24">
    <path d="M16.9958159,19.2154812 L16.2761506,19.2154812 L16.2761506,12.7887029 L7.70711297,12.7887029 L7.70711297,19.2154812 L6.9958159,19.2154812 L16.9958159,19.2154812 Z M6.9958159,19.2154812 L6.28451883,19.2154812 L6.28451883,12.7887029 L3.42259414,12.7887029 L3.42259414,17.792887 C3.42259414,18.183405 3.56206276,18.5181297 3.84100418,18.7970711 C4.11994561,19.0760126 4.46024904,19.2154812 4.86192469,19.2154812 L6.9958159,19.2154812 Z M16.9958159,19.2154812 L19.1380753,19.2154812 C19.5285933,19.2154812 19.863318,19.0760126 20.1422594,18.7970711 C20.4212008,18.5181297 20.5606695,18.183405 20.5606695,17.792887 L20.5606695,12.7887029 L17.7154812,12.7887029 L17.7154812,19.2154812 L16.9958159,19.2154812 Z M12,4.92259414 L12.7112971,4.92259414 L12.7112971,11.3493724 L20.5606695,11.3493724 L20.5606695,6.34518828 C20.5606695,5.95467029 20.4212008,5.61994561 20.1422594,5.34100418 C19.863318,5.06206276 19.5285933,4.92259414 19.1380753,4.92259414 L12,4.92259414 Z M12,4.92259414 L4.86192469,4.92259414 C4.46024904,4.92259414 4.11994561,5.06206276 3.84100418,5.34100418 C3.56206276,5.61994561 3.42259414,5.95467029 3.42259414,6.34518828 L3.42259414,11.3493724 L11.2887029,11.3493724 L11.2887029,4.92259414 L12,4.92259414 Z M2,5.64225941 C2,5.0509036 2.20920293,4.5460272 2.62761506,4.12761506 C3.0460272,3.70920293 3.5509036,3.5 4.14225941,3.5 L19.8577406,3.5 C20.4490964,3.5 20.9539728,3.70920293 21.3723849,4.12761506 C21.7907971,4.5460272 22,5.0509036 22,5.64225941 L22,18.4958159 C22,19.0871717 21.7880077,19.5920481 21.3640167,20.0104603 C20.9400258,20.4288724 20.4379387,20.6380753 19.8577406,20.6380753 L4.14225941,20.6380753 C3.5509036,20.6380753 3.0460272,20.4288724 2.62761506,20.0104603 C2.20920293,19.5920481 2,19.0871717 2,18.4958159 L2,5.64225941 Z"/>
</svg>
