<svg fill="currentColor" width="24px" height="24px" viewBox="0 0 24 24" version="1.1" xmlns="http://www.w3.org/2000/svg" xmlns:xlink="http://www.w3.org/1999/xlink">
    <path d="M18.9545454,10.4615385 L12.7691709,10.4615385 C12.3443695,10.4615385 12,10.120104 12,9.69230773 L12,8.92307691 L12,3.53846154 L6.8769,3.53846154 C5.86084687,3.53846154 5.04545454,4.34930326 5.04545454,5.34952721 L5.04545454,18.6504728 C5.04545454,19.6453033 5.85956686,20.4615385 6.8638253,20.4615385 L17.1361747,20.4615385 C18.1363962,20.4615385 18.9545454,19.6476966 18.9545454,18.6437719 L18.9545454,10.4615385 Z M18.9545454,8.92307691 L18.9545454,8.74556209 L13.5454546,3.68310322 L13.5454546,8.92307691 L18.9545454,8.92307691 Z M3.5,5.64505265 C3.5,3.63194565 5.13687126,2 7.15652226,2 L13.2191185,2 C13.719423,2 14.4154861,2.27339864 14.7832258,2.6195066 L19.8417742,7.38049336 C20.2053023,7.72263745 20.5,8.40389445 20.5,8.907792 L20.5,18.3582116 C20.5,20.3695158 18.8699686,22 16.8530735,22 L7.14692648,22 C5.13278461,22 3.5,20.3633161 3.5,18.3549474 L3.5,5.64505265 Z M12.4332331,13.9172148 C12.1450222,13.6187637 12.1556912,13.1419961 12.4563835,12.8516209 C12.7482819,12.5697379 13.2342296,12.5675371 13.5221363,12.8656732 L15.5955884,15.048326 C15.7408262,15.1987242 15.8101651,15.3944049 15.8047386,15.5886962 C15.7970463,15.775735 15.7187736,15.9726052 15.5652481,16.1208631 L13.3129181,18.2616017 C13.007933,18.5561223 12.5309241,18.5557786 12.2467699,18.2615282 C11.9709259,17.9758834 11.9792413,17.4902367 12.2839045,17.1960269 L13.2237196,16.3227692 L9.04158061,16.2751809 C8.61289345,16.2723405 8.29713807,15.9350645 8.30883225,15.5216718 C8.32018442,15.1203691 8.66754904,14.7753947 9.08392896,14.7781536 L13.276342,14.82581 L12.4332331,13.9172148 Z"></path>
</svg>
