<svg fill="currentColor" viewBox="0 0 24 24" version="1.1" xmlns="http://www.w3.org/2000/svg" xmlns:xlink="http://www.w3.org/1999/xlink">
    <path d="M5,5 C4.44771525,5 4,5.44771525 4,6 L4,18 C4,18.5522847 4.44771525,19 5,19 L19,19 C19.5522847,19 20,18.5522847 20,18 L20,6 C20,5.44771525 19.5522847,5 19,5 L5,5 Z M5,3 L19,3 C20.6568542,3 22,4.34314575 22,6 L22,18 C22,19.6568542 20.6568542,21 19,21 L5,21 C3.34314575,21 2,19.6568542 2,18 L2,6 C2,4.34314575 3.34314575,3 5,3 Z M14.5,14 C12.5670034,14 11,12.4329966 11,10.5 C11,8.56700338 12.5670034,7 14.5,7 C16.4329966,7 18,8.56700338 18,10.5 C18,12.4329966 16.4329966,14 14.5,14 Z M14.5,12 C15.3284271,12 16,11.3284271 16,10.5 C16,9.67157288 15.3284271,9 14.5,9 C13.6715729,9 13,9.67157288 13,10.5 C13,11.3284271 13.6715729,12 14.5,12 Z" id="Icon_PontOut" ></path>
</svg>
