<svg width="24px" height="24px" viewBox="0 0 24 24" version="1.1" xmlns="http://www.w3.org/2000/svg" xmlns:xlink="http://www.w3.org/1999/xlink">
    <path d="M5.41412332,15.7751102 C6.52468322,17.9562457 9.1366642,19.7 12,19.7 C15.7958692,19.7 19.15,16.6354747 19.15,13.55 C19.15,13.080558 19.530558,12.7 20,12.7 C20.469442,12.7 20.85,13.080558 20.85,13.55 C20.85,17.6103377 16.7022048,21.4 12,21.4 C8.59383586,21.4 5.47858187,19.4114864 4.02006564,16.7720083 L3.68722871,18.6596203 C3.60571096,19.1219305 3.16485133,19.4306237 2.70254117,19.349106 C2.24023101,19.2675882 1.93153778,18.8267286 2.01305553,18.3644184 L2.70764824,14.4251874 C2.78916599,13.9628773 3.23002562,13.654184 3.69233578,13.7357018 C3.73487734,13.743203 3.77611813,13.753747 3.81587381,13.7670705 L7.73542697,14.4581934 C8.19773713,14.5397112 8.50643036,14.9805708 8.42491261,15.442881 C8.34339485,15.9051911 7.90253522,16.2138844 7.44022507,16.1323666 L5.41412332,15.7751102 Z M20.0669108,7.48993663 L20.4309818,5.42518742 C20.5124996,4.96287726 20.9533592,4.65418403 21.4156693,4.73570178 C21.8779795,4.81721953 22.1866727,5.25807916 22.105155,5.72038932 L21.4105623,9.65962033 C21.3290445,10.1219305 20.8881849,10.4306237 20.4258747,10.349106 C20.3833332,10.3416047 20.3420924,10.3310608 20.3023367,10.3177373 L16.3827835,9.62661432 C15.9204734,9.54509657 15.6117801,9.10423694 15.6932979,8.64192678 C15.7748157,8.17961662 16.2156753,7.87092339 16.6779854,7.95244114 L18.5655098,8.28526262 C17.4436322,6.12267206 14.8459741,4.4 12,4.4 C8.20413081,4.4 4.85,7.46452528 4.85,10.55 C4.85,11.019442 4.46944204,11.4 4,11.4 C3.53055796,11.4 3.15,11.019442 3.15,10.55 C3.15,6.4896623 7.29779515,2.7 12,2.7 C15.4754827,2.7 18.6480942,4.7702733 20.0669108,7.48993663 Z"></path>
</svg>