<svg fill="currentColor" width="16" height="16" viewBox="0 0 16 16" fill="none" xmlns="http://www.w3.org/2000/svg">
  <path clip-rule="evenodd" d="M5.403 14.1465C6.21463 14.4937 7.08051 14.6673 8.00065 14.6673C8.92079 14.6673 9.78667 14.4937 10.5983 14.1465C11.4099 13.7993 12.1174 13.324 12.7207 12.7207C13.324 12.1174 13.7993 11.4099 14.1465 10.5983C14.4937 9.78667 14.6673 8.92079 14.6673 8.00065C14.6673 7.08051 14.4937 6.21463 14.1465 5.403C13.7993 4.59136 13.324 3.8839 12.7207 3.2806C12.1174 2.6773 11.4099 2.20204 10.5983 1.85482C9.78667 1.50759 8.92079 1.33398 8.00065 1.33398C7.08051 1.33398 6.21463 1.50759 5.403 1.85482C4.59136 2.20204 3.8839 2.6773 3.2806 3.2806C2.6773 3.8839 2.20204 4.59136 1.85482 5.403C1.50759 6.21463 1.33398 7.08051 1.33398 8.00065C1.33398 8.92079 1.50759 9.78667 1.85482 10.5983C2.20204 11.4099 2.6773 12.1174 3.2806 12.7207C3.8839 13.324 4.59136 13.7993 5.403 14.1465ZM10.2272 13.2676C9.53277 13.5671 8.79059 13.7168 8.00065 13.7168C7.21072 13.7168 6.46854 13.5671 5.77409 13.2676C5.07964 12.9681 4.47418 12.5601 3.95768 12.0436C3.44119 11.5271 3.0332 10.9217 2.73372 10.2272C2.43424 9.53277 2.28451 8.79059 2.28451 8.00065C2.28451 7.21072 2.43424 6.46854 2.73372 5.77409C3.0332 5.07964 3.44119 4.47418 3.95768 3.95768C4.47418 3.44119 5.07964 3.0332 5.77409 2.73372C6.46854 2.43424 7.21072 2.28451 8.00065 2.28451C8.79059 2.28451 9.53277 2.43424 10.2272 2.73372C10.9217 3.0332 11.5271 3.44119 12.0436 3.95768C12.5601 4.47418 12.9681 5.07964 13.2676 5.77409C13.5671 6.46854 13.7168 7.21072 13.7168 8.00065C13.7168 8.79059 13.5671 9.53277 13.2676 10.2272C12.9681 10.9217 12.5601 11.5271 12.0436 12.0436C11.5271 12.5601 10.9217 12.9681 10.2272 13.2676ZM7.38867 10.2663C7.38867 10.084 7.45161 9.9299 7.57747 9.80404C7.70334 9.67817 7.85742 9.61523 8.03971 9.61523C8.21333 9.61523 8.36306 9.67817 8.48893 9.80404C8.6148 9.9299 8.67773 10.084 8.67773 10.2663C8.67773 10.4486 8.6148 10.6048 8.48893 10.735C8.36306 10.8652 8.21333 10.9303 8.03971 10.9303C7.85742 10.9303 7.70334 10.8652 7.57747 10.735C7.45161 10.6048 7.38867 10.4486 7.38867 10.2663ZM9.5957 7.5319C9.80838 7.27148 9.91471 6.96333 9.91471 6.60742C9.91471 6.08659 9.74978 5.67426 9.41992 5.37044C9.09006 5.06662 8.63433 4.91471 8.05273 4.91471C7.50586 4.91471 7.05664 5.08615 6.70508 5.42904C6.35351 5.77192 6.14735 6.21679 6.08659 6.76367H7.11523C7.14128 6.48589 7.23025 6.25369 7.38216 6.06706C7.53407 5.88042 7.75759 5.78711 8.05273 5.78711C8.33051 5.78711 8.54753 5.86523 8.70378 6.02148C8.86003 6.17774 8.93815 6.37739 8.93815 6.62044C8.93815 6.87218 8.85352 7.08485 8.68425 7.25846C8.51497 7.43208 8.34787 7.61003 8.18294 7.79232C7.97461 8.01801 7.82921 8.21332 7.74675 8.37826C7.66428 8.54319 7.61871 8.75586 7.61003 9.01628H8.53451C8.53451 8.92079 8.56055 8.81445 8.61263 8.69727C8.66471 8.58008 8.77322 8.43468 8.93815 8.26107C9.16385 8.03537 9.38303 7.79232 9.5957 7.5319Z"/>
</svg>
