<svg viewBox="0 0 24 24" version="1.1" xmlns="http://www.w3.org/2000/svg" xmlns:xlink="http://www.w3.org/1999/xlink">
    <path d="M12,22 C10.6197848,22 9.32096963,21.7395859 8.10351562,21.21875 C6.88606162,20.6979141 5.82487432,19.9850306 4.91992188,19.0800781 C4.01496943,18.1751257 3.30208594,17.1139384 2.78125,15.8964844 C2.26041406,14.6790304 2,13.3802152 2,12 C2,10.6197848 2.26041406,9.32096963 2.78125,8.10351562 C3.30208594,6.88606162 4.01496943,5.82487432 4.91992188,4.91992188 C5.82487432,4.01496943 6.88606162,3.30208594 8.10351562,2.78125 C9.32096963,2.26041406 10.6197848,2 12,2 C13.3802152,2 14.6790304,2.26041406 15.8964844,2.78125 C17.1139384,3.30208594 18.1751257,4.01496943 19.0800781,4.91992188 C19.9850306,5.82487432 20.6979141,6.88606162 21.21875,8.10351562 C21.7395859,9.32096963 22,10.6197848 22,12 C22,13.3802152 21.7395859,14.6790304 21.21875,15.8964844 C20.6979141,17.1139384 19.9850306,18.1751257 19.0800781,19.0800781 C18.1751257,19.9850306 17.1139384,20.6979141 15.8964844,21.21875 C14.6790304,21.7395859 13.3802152,22 12,22 Z M15.5351562,15.5351562 C15.8156133,15.2546992 15.8156133,14.7999883 15.5351562,14.5195312 L13.015625,12 L15.5351562,9.48046875 C15.8156133,9.20001165 15.8156133,8.74530085 15.5351562,8.46484375 C15.2546992,8.18438665 14.7999883,8.18438665 14.5195312,8.46484375 L12,10.984375 L9.48046875,8.46484375 C9.20001165,8.18438665 8.74530085,8.18438665 8.46484375,8.46484375 C8.18438665,8.74530085 8.18438665,9.20001165 8.46484375,9.48046875 L10.984375,12 L8.46484375,14.5195312 C8.18438665,14.7999883 8.18438665,15.2546992 8.46484375,15.5351562 C8.74530085,15.8156133 9.20001165,15.8156133 9.48046875,15.5351562 L12,13.015625 L14.5195312,15.5351562 C14.7999883,15.8156133 15.2546992,15.8156133 15.5351562,15.5351562 Z" id="Icon_Reject_filled" ></path>
</svg>
