<svg fill="currentColor" viewBox="0 0 24 24" version="1.1" xmlns="http://www.w3.org/2000/svg" xmlns:xlink="http://www.w3.org/1999/xlink">
    <path d="M9.69230769,8.625 L9.69230769,11.25 L14.3076923,11.25 L14.3076923,8.625 L9.69230769,8.625 Z M8.15384615,8.625 L3.53846154,8.625 L3.53846154,11.25 L8.15384615,11.25 L8.15384615,8.625 Z M3.53846154,7.125 L20.4615385,7.125 L20.4615385,5.25 C20.4615385,4.83578644 20.1171421,4.5 19.6923077,4.5 L4.30769231,4.5 C3.88285788,4.5 3.53846154,4.83578644 3.53846154,5.25 L3.53846154,7.125 Z M20.4615385,8.625 L15.8461538,8.625 L15.8461538,11.25 L20.4615385,11.25 L20.4615385,8.625 Z M9.69230769,12.75 L9.69230769,15.375 L14.3076923,15.375 L14.3076923,12.75 L9.69230769,12.75 Z M8.15384615,12.75 L3.53846154,12.75 L3.53846154,15.375 L8.15384615,15.375 L8.15384615,12.75 Z M20.4615385,12.75 L15.8461538,12.75 L15.8461538,15.375 L20.4615385,15.375 L20.4615385,12.75 Z M9.69230769,16.875 L9.69230769,19.5 L14.3076923,19.5 L14.3076923,16.875 L9.69230769,16.875 Z M8.15384615,16.875 L3.53846154,16.875 L3.53846154,18.75 C3.53846154,19.1642136 3.88285788,19.5 4.30769231,19.5 L8.15384615,19.5 L8.15384615,16.875 Z M20.4615385,16.875 L15.8461538,16.875 L15.8461538,19.5 L19.6923077,19.5 C20.1171421,19.5 20.4615385,19.1642136 20.4615385,18.75 L20.4615385,16.875 Z M4.30769231,3 L19.6923077,3 C20.966811,3 22,4.00735931 22,5.25 L22,18.75 C22,19.9926407 20.966811,21 19.6923077,21 L4.30769231,21 C3.03318904,21 2,19.9926407 2,18.75 L2,5.25 C2,4.00735931 3.03318904,3 4.30769231,3 Z" id="Icon_Table" ></path>
</svg>
