<svg viewBox="0 0 24 25" fill="currentColor" xmlns="http://www.w3.org/2000/svg">
    <path fill-rule="evenodd" clip-rule="evenodd" d="M11 8.25C11 8.66421 10.6642 9 10.25 9H5.75C5.33579 9 5 8.66421 5 8.25C5 7.83579 5.33579 7.5 5.75 7.5H10.25C10.6642 7.5 11 7.83579 11 8.25Z" />
    <path fill-rule="evenodd" clip-rule="evenodd" d="M9 14.25C9 14.6642 8.66421 15 8.25 15H5.75C5.33579 15 5 14.6642 5 14.25C5 13.8358 5.33579 13.5 5.75 13.5H8.25C8.66421 13.5 9 13.8358 9 14.25Z" />
    <path fill-rule="evenodd" clip-rule="evenodd" d="M11 11.25C11 11.6642 10.6642 12 10.25 12H5.75C5.33579 12 5 11.6642 5 11.25C5 10.8358 5.33579 10.5 5.75 10.5H10.25C10.6642 10.5 11 10.8358 11 11.25Z" />
    <path fill-rule="evenodd" clip-rule="evenodd" d="M14.5 10.5C14.5 11.3284 15.1716 12 16 12C16.8284 12 17.5 11.3284 17.5 10.5C17.5 9.67157 16.8284 9 16 9C15.1716 9 14.5 9.67157 14.5 10.5ZM16 7.5C14.3431 7.5 13 8.84315 13 10.5C13 12.1569 14.3431 13.5 16 13.5C17.6569 13.5 19 12.1569 19 10.5C19 8.84315 17.6569 7.5 16 7.5Z" />
    <path fill-rule="evenodd" clip-rule="evenodd" d="M20 6H4C3.72386 6 3.5 6.22386 3.5 6.5V18.5C3.5 18.7761 3.72386 19 4 19H20C20.2761 19 20.5 18.7761 20.5 18.5V6.5C20.5 6.22386 20.2761 6 20 6ZM4 4.5C2.89543 4.5 2 5.39543 2 6.5V18.5C2 19.6046 2.89543 20.5 4 20.5H20C21.1046 20.5 22 19.6046 22 18.5V6.5C22 5.39543 21.1046 4.5 20 4.5H4Z" />
    <path fill-rule="evenodd" clip-rule="evenodd" d="M5.96821 19.2544L12.7831 15.0606C13.1482 14.8359 13.5831 14.7531 14.0052 14.8278L20.8693 16.0427L20.6078 17.5197L13.7438 16.3048C13.6835 16.2942 13.6214 16.306 13.5692 16.3381L6.75436 20.5319L5.96821 19.2544Z" />
</svg>
