<svg width="24px" height="24px" viewBox="0 0 24 24" version="1.1" xmlns="http://www.w3.org/2000/svg" xmlns:xlink="http://www.w3.org/1999/xlink">
    <path d="M15,8.25 C14.5857864,8.25 14.25,7.91421356 14.25,7.5 C14.25,7.08578644 14.5857864,6.75 15,6.75 L20,6.75 C20.4142136,6.75 20.75,7.08578644 20.75,7.5 C20.75,7.91421356 20.4142136,8.25 20,8.25 L15,8.25 Z M15,11.25 C14.5857864,11.25 14.25,10.9142136 14.25,10.5 C14.25,10.0857864 14.5857864,9.75 15,9.75 L19,9.75 C19.4142136,9.75 19.75,10.0857864 19.75,10.5 C19.75,10.9142136 19.4142136,11.25 19,11.25 L15,11.25 Z M4,8.25 C3.58578644,8.25 3.25,7.91421356 3.25,7.5 C3.25,7.08578644 3.58578644,6.75 4,6.75 L9,6.75 C9.41421356,6.75 9.75,7.08578644 9.75,7.5 C9.75,7.91421356 9.41421356,8.25 9,8.25 L4,8.25 Z M15,14.25 C14.5857864,14.25 14.25,13.9142136 14.25,13.5 C14.25,13.0857864 14.5857864,12.75 15,12.75 L20,12.75 C20.4142136,12.75 20.75,13.0857864 20.75,13.5 C20.75,13.9142136 20.4142136,14.25 20,14.25 L15,14.25 Z M4,14.25 C3.58578644,14.25 3.25,13.9142136 3.25,13.5 C3.25,13.0857864 3.58578644,12.75 4,12.75 L9,12.75 C9.41421356,12.75 9.75,13.0857864 9.75,13.5 C9.75,13.9142136 9.41421356,14.25 9,14.25 L4,14.25 Z M4,11.25 C3.58578644,11.25 3.25,10.9142136 3.25,10.5 C3.25,10.0857864 3.58578644,9.75 4,9.75 L8,9.75 C8.41421356,9.75 8.75,10.0857864 8.75,10.5 C8.75,10.9142136 8.41421356,11.25 8,11.25 L4,11.25 Z M4,17.25 C3.58578644,17.25 3.25,16.9142136 3.25,16.5 C3.25,16.0857864 3.58578644,15.75 4,15.75 L8,15.75 C8.41421356,15.75 8.75,16.0857864 8.75,16.5 C8.75,16.9142136 8.41421356,17.25 8,17.25 L4,17.25 Z M15,17.25 C14.5857864,17.25 14.25,16.9142136 14.25,16.5 C14.25,16.0857864 14.5857864,15.75 15,15.75 L19,15.75 C19.4142136,15.75 19.75,16.0857864 19.75,16.5 C19.75,16.9142136 19.4142136,17.25 19,17.25 L15,17.25 Z"></path>
</svg>
