<svg viewBox="0 0 24 24" version="1.1" xmlns="http://www.w3.org/2000/svg" xmlns:xlink="http://www.w3.org/1999/xlink">
    <g transform="translate(2.000000, 5.000000)">
        <path d="M1,2 C0.44771525,2 3.89965837e-14,1.55228475 0,1 C3.89965837e-14,0.44771525 0.44771525,0 1,0 L19,0 C19.5522847,0 20,0.44771525 20,1 C20,1.55228475 19.5522847,2 19,2 L1,2 Z M0.909090909,6 C0.407013864,6 0,5.55228475 0,5 C0,4.44771525 0.407013864,4 0.909090909,4 L19.0909091,4 C19.5929861,4 20,4.44771525 20,5 C20,5.55228475 19.5929861,6 19.0909091,6 L0.909090909,6 Z M1,10 C0.44771525,10 7.10542736e-14,9.55228475 0,9 C7.10542736e-14,8.44771525 0.44771525,8 1,8 L19,8 C19.5522847,8 20,8.44771525 20,9 C20,9.55228475 19.5522847,10 19,10 L1,10 Z M0.909090909,14 C0.407013864,14 0,13.5522847 0,13 C0,12.4477153 0.407013864,12 0.909090909,12 L19.0909091,12 C19.5929861,12 20,12.4477153 20,13 C20,13.5522847 19.5929861,14 19.0909091,14 L0.909090909,14 Z"></path>
    </g>
</svg>
