<?xml version="1.0" encoding="UTF-8"?>
<svg width="24px" height="24px" viewBox="0 0 24 24" version="1.1" xmlns="http://www.w3.org/2000/svg" xmlns:xlink="http://www.w3.org/1999/xlink">
    <!-- Generator: Sketch 56.3 (81716) - https://sketch.com -->
    <title>Style/Icons/24px/Transfer</title>
    <desc>Created with Sketch.</desc>
    <g id="Style/Icons/24px/Transfer" stroke="none" stroke-width="1" fill="none" fill-rule="evenodd">
        <g transform="translate(2.000000, 2.000000)" fill="#363D4A" fill-rule="nonzero" id="Icon_Transfer">
            <path d="M0.770010132,4.88107549 C0.553865856,4.88107549 0.371496859,4.80524033 0.22289767,4.65356774 C0.0742984802,4.50189514 0,4.3226484 0,4.11582213 C0,3.89520745 0.0742984802,3.7090666 0.22289767,3.557394 C0.371496859,3.40572141 0.553865856,3.32988625 0.770010132,3.32988625 L17.3657548,3.32988625 L15.4204661,1.34436401 C15.2718669,1.19269142 15.1975684,1.00655057 15.1975684,0.785935884 C15.1975684,0.5653212 15.2718669,0.379180352 15.4204661,0.227507756 C15.5690652,0.0758351603 15.7514342,0 15.9675785,0 C16.1837228,0 16.3660918,0.0758351603 16.514691,0.227507756 L19.7771023,3.557394 C19.8446474,3.64012451 19.8986827,3.72974788 19.9392097,3.8262668 C19.9797368,3.92278573 20,4.01930321 20,4.11582213 C20,4.21234105 19.9797368,4.30885853 19.9392097,4.40537746 C19.8986827,4.50189638 19.8446474,4.59151975 19.7771023,4.67425026 L16.514691,8.0041365 C16.3660918,8.1558091 16.1837228,8.23164426 15.9675785,8.23164426 C15.7514342,8.23164426 15.5690652,8.1558091 15.4204661,8.0041365 C15.2718669,7.83867549 15.1975684,7.64908759 15.1975684,7.43536711 C15.1975684,7.22164664 15.2718669,7.03895284 15.4204661,6.88728025 L17.3860182,4.88107549 L0.770010132,4.88107549 Z M2.61398176,16.6494312 L4.57953394,18.655636 C4.72813313,18.8073086 4.80243161,18.9900024 4.80243161,19.2037229 C4.80243161,19.4174433 4.72813313,19.6001371 4.57953394,19.7518097 C4.41742573,19.9172707 4.23167953,20 4.02228977,20 C3.8129,20 3.63390821,19.9241648 3.48530902,19.7724922 L0.22289767,16.4219235 C0.155352584,16.3529814 0.101317325,16.2702521 0.0607902736,16.1737332 C0.0202632219,16.0772143 0,15.9806968 0,15.8841779 C0,15.7738705 0.0168860182,15.6704589 0.0506585613,15.57394 C0.0844311044,15.4774211 0.141843566,15.3946918 0.22289767,15.3257497 L3.48530902,11.9958635 C3.63390821,11.8441909 3.8129,11.7683557 4.02228977,11.7683557 C4.23167953,11.7683557 4.41742573,11.8441909 4.57953394,11.9958635 C4.72813313,12.1475361 4.80243161,12.3302299 4.80243161,12.5439504 C4.80243161,12.7576708 4.72813313,12.9472587 4.57953394,13.1127198 L2.63424519,15.098242 L19.2299899,15.098242 C19.4326251,15.098242 19.6116169,15.1740771 19.7669706,15.3257497 C19.9223243,15.4774223 20,15.6566691 20,15.8634953 C20,16.08411 19.9223243,16.2702509 19.7669706,16.4219235 C19.6116169,16.5735961 19.4326251,16.6494312 19.2299899,16.6494312 L2.61398176,16.6494312 Z"></path>
        </g>
    </g>
</svg>