<svg viewBox="0 0 24 24" version="1.1" xmlns="http://www.w3.org/2000/svg" xmlns:xlink="http://www.w3.org/1999/xlink">
    <path d="M8.92307692,17.3076923 L11.2307692,17.3076923 L11.2307692,18.8461538 L5.07692308,18.8461538 L5.07692308,17.3076923 L7.38461538,17.3076923 L7.38461538,6.53846154 L3.53846154,6.53846154 L3.53846154,8.07692308 L2,8.07692308 L2,5 L14.3076923,5 L14.3076923,8.07692308 L12.7692308,8.07692308 L12.7692308,6.53846154 L8.92307692,6.53846154 L8.92307692,17.3076923 Z M18.1538462,17.3076923 L18.1538462,18.8461538 L16.6153846,18.8461538 L16.6153846,17.3076923 L16.6153846,11.1538462 L14.3076923,11.1538462 L12.7692308,11.1538462 L12.7692308,9.61538462 L22,9.61538462 L22,11.1538462 L20.4615385,11.1538462 L18.1538462,11.1538462 L18.1538462,17.3076923 Z" id="Icon_TypoStyles" ></path>
</svg>
