<svg fill="currentColor" viewBox="0 0 24 24" version="1.1" xmlns="http://www.w3.org/2000/svg" xmlns:xlink="http://www.w3.org/1999/xlink">
    <path d="M20.3408834,5.34808335 L3.65911665,5.34808335 C3.57417894,5.34808335 3.50108103,5.37844096 3.44033769,5.43915616 C3.36723978,5.49987137 3.3312056,5.57910985 3.3312056,5.67584255 L3.3312056,18.3411371 C3.3312056,18.4260355 3.36775456,18.505274 3.44033769,18.5778235 C3.50108103,18.6385387 3.57417894,18.6688963 3.65911665,18.6688963 L20.3408834,18.6688963 C20.4258211,18.6688963 20.5050963,18.6385387 20.5776794,18.5778235 C20.6384227,18.5047595 20.6687944,18.4260355 20.6687944,18.3411371 L20.6687944,5.67584255 C20.6687944,5.57859532 20.6384227,5.49987137 20.5776794,5.43915616 C20.5045815,5.37844096 20.4258211,5.34808335 20.3408834,5.34808335 Z M22,5.67635709 L22,18.3416517 C22,18.7913558 21.8357871,19.1798302 21.507876,19.5081039 C21.179965,19.8363777 20.7907958,20 20.3408834,20 L3.65911665,20 C3.20920416,20 2.82054978,19.8358631 2.49212396,19.5081039 C2.16369814,19.1803447 2,18.7913558 2,18.3416517 L2,5.67635709 C2,5.21481863 2.16421291,4.81965526 2.49212396,4.49189606 C2.820035,4.16413687 3.20920416,4 3.65911665,4 L20.3408834,4 C20.7907958,4 21.1794502,4.16413687 21.507876,4.49189606 C21.8363019,4.81965526 22,5.21481863 22,5.67635709 Z M11.975641,11.2576923 L12.6251282,10.6082051 C12.8815385,10.3517949 13.2969231,10.3517949 13.5533333,10.6082051 C13.8097436,10.8646154 13.8097436,11.28 13.5533333,11.5364103 L12.9038462,12.1858974 L13.5533333,12.8353846 C13.8097436,13.0917949 13.8097436,13.5071795 13.5533333,13.7635897 C13.2969231,14.02 12.8815385,14.02 12.6251282,13.7635897 L11.975641,13.1141026 L11.325641,13.7641026 C11.0692308,14.0205128 10.6538462,14.0205128 10.3974359,13.7641026 C10.1410256,13.5076923 10.1410256,13.0923077 10.3974359,12.8358974 L11.0474359,12.1858974 L10.3974359,11.5358974 C10.1410256,11.2794872 10.1410256,10.8641026 10.3974359,10.6076923 C10.6538462,10.3512821 11.0692308,10.3512821 11.325641,10.6076923 L11.975641,11.2576923 Z M11.8461538,16.9794872 C9.12717949,16.9794872 6.92307692,14.7753846 6.92307692,12.0564103 C6.92307692,9.3374359 9.12717949,7.13333333 11.8461538,7.13333333 C14.5651282,7.13333333 16.7692308,9.3374359 16.7692308,12.0564103 C16.7692308,14.7753846 14.5651282,16.9794872 11.8461538,16.9794872 Z M11.8461538,15.6666667 C13.84,15.6666667 15.4564103,14.0502564 15.4564103,12.0564103 C15.4564103,10.0625641 13.84,8.44615385 11.8461538,8.44615385 C9.85230769,8.44615385 8.23589744,10.0625641 8.23589744,12.0564103 C8.23589744,14.0502564 9.85230769,15.6666667 11.8461538,15.6666667 Z" id="Icons_UploadDontImages" ></path>
</svg>
