<svg viewBox="0 0 24 24" version="1.1" xmlns="http://www.w3.org/2000/svg" xmlns:xlink="http://www.w3.org/1999/xlink">
    <path d="M12.0005034,17.3328299 C9.23908775,17.3328299 7.00075517,15.0944973 7.00075517,12.3330816 C7.00075517,9.57166591 9.23908775,7.33333333 12.0005034,7.33333333 C14.7619191,7.33333333 17.0002517,9.57166591 17.0002517,12.3330816 C17.0002517,15.0944973 14.7619191,17.3328299 12.0005034,17.3328299 Z M12.0005034,15.9991945 C14.0253738,15.9991945 15.6671198,14.3574485 15.6671198,12.3325782 C15.6671198,10.3077078 14.0253738,8.66596184 12.0005034,8.66596184 C9.97563309,8.66596184 8.33388713,10.3077078 8.33388713,12.3325782 C8.33388713,14.3574485 9.97563309,15.9991945 12.0005034,15.9991945 Z M13.3215526,10.869053 C13.577808,10.6047425 13.9996979,10.5981977 14.2640085,10.854453 C14.528319,11.1107084 14.5348638,11.5325983 14.2786085,11.7969088 L11.9123999,14.2381312 C11.642048,14.5170417 11.191965,14.5069728 10.9347027,14.2159795 L9.96757791,13.1239994 C9.72340533,12.848613 9.74908121,12.4272265 10.0244676,12.1830539 C10.299854,11.9388813 10.7212405,11.9645572 10.9654131,12.2399436 L11.4552686,12.7932337 L13.3205457,10.8685496 L13.3215526,10.869053 Z M20.3411368,5.3485 L3.65987011,5.3485 C3.57478729,5.3485 3.50178724,5.379 3.44086996,5.4395 C3.36786991,5.5005 3.33162161,5.579 3.33162161,5.6765 L3.33162161,18.3415 C3.33162161,18.4265 3.36786991,18.5055 3.44086996,18.5785 C3.50178724,18.6395 3.57478729,18.6695 3.65987011,18.6695 L20.3411368,18.6695 C20.4262196,18.6695 20.505261,18.639 20.5782611,18.5785 C20.6391784,18.5055 20.6693853,18.4265 20.6693853,18.3415 L20.6693853,5.6765 C20.6693853,5.5795 20.6391784,5.5005 20.5782611,5.4395 C20.505261,5.3785 20.4262196,5.3485 20.3411368,5.3485 Z M22,5.6765 L22,18.3415 C22,18.791 21.8358757,19.18 21.5076272,19.508 C21.1793787,19.836 20.7907164,20 20.3406333,20 L3.65936666,20 C3.20978704,20 2.82062126,19.836 2.49237275,19.508 C2.16412425,19.18 2,18.791 2,18.3415 L2,5.6765 C2,5.215 2.16412425,4.82 2.49237275,4.492 C2.82062126,4.164 3.20928359,4 3.65936666,4 L20.3406333,4 C20.790213,4 21.1793787,4.164 21.5076272,4.492 C21.8358757,4.82 22,5.215 22,5.6765 Z" id="Icon_UploadDoImages" ></path>
</svg>
