<svg viewBox="0 0 24 24" version="1.1" xmlns="http://www.w3.org/2000/svg" xmlns:xlink="http://www.w3.org/1999/xlink">
    <path d="M16.3122023,13.1835668 C18.9261333,14.5945315 20.7021936,17.3585068 20.7021936,20.5373033 C20.7021936,20.8191523 20.6882311,21.0977402 20.6609599,21.372413 L4.04123374,21.372413 C4.01396257,21.0977402 4,20.8191523 4,20.5373033 C4,17.3350868 5.80232728,14.5538263 8.44790254,13.1526013 C7.28536451,12.0840723 6.55668357,10.5500953 6.55668357,8.84576777 C6.55668357,5.61723938 9.17149576,3 12.3970301,3 C15.6225644,3 18.2373766,5.61723938 18.2373766,8.84576777 C18.2373766,10.5666289 17.4944893,12.1138183 16.3122023,13.1835668 Z M14.6220961,14.2523214 C13.9363142,14.5353867 13.1848905,14.6915355 12.3970301,14.6915355 C11.5929211,14.6915355 10.8267672,14.5288796 10.129618,14.2346462 C7.78430443,15.0612835 6.03892127,17.1599456 5.72190744,19.7021936 L18.9802862,19.7021936 C18.6655076,17.177871 16.9424315,15.0909008 14.6220961,14.2523214 Z M12.3970301,13.0213162 C14.7009831,13.0213162 16.5687061,11.1518595 16.5687061,8.84576777 C16.5687061,6.53967606 14.7009831,4.67021936 12.3970301,4.67021936 C10.093077,4.67021936 8.225354,6.53967606 8.225354,8.84576777 C8.225354,11.1518595 10.093077,13.0213162 12.3970301,13.0213162 Z" id="Icon_User"></path>
</svg>
