<svg fill="currentColor" width="24px" height="24px" viewBox="0 0 24 24" version="1.1" xmlns="http://www.w3.org/2000/svg" xmlns:xlink="http://www.w3.org/1999/xlink">
    <g id="Group-4" transform="translate(4.000000, 4.000000)">
        <path d="M4.44444444,4.44444444 L0.666666667,4.44444444 C0.298476833,4.44444444 -2.0250468e-13,4.74292128 -2.0250468e-13,5.11111111 C-2.0250468e-13,5.47930094 0.298476833,5.77777778 0.666666667,5.77777778 L5.11111111,5.77777778 C5.47930094,5.77777778 5.77777778,5.47930094 5.77777778,5.11111111 L5.77777778,0.666666667 C5.77777778,0.298476833 5.47930094,2.57571742e-14 5.11111111,2.57571742e-14 C4.74292128,2.57571742e-14 4.44444444,0.298476833 4.44444444,0.666666667 L4.44444444,4.44444444 Z" id="Line-15"></path>
        <path d="M14.4444444,4.44444444 L10.6666667,4.44444444 C10.2984768,4.44444444 10,4.74292128 10,5.11111111 C10,5.47930094 10.2984768,5.77777778 10.6666667,5.77777778 L15.1111111,5.77777778 C15.4793009,5.77777778 15.7777778,5.47930094 15.7777778,5.11111111 L15.7777778,0.666666667 C15.7777778,0.298476833 15.4793009,2.57571742e-14 15.1111111,2.57571742e-14 C14.7429213,2.57571742e-14 14.4444444,0.298476833 14.4444444,0.666666667 L14.4444444,4.44444444 Z" id="Line-15" transform="translate(12.888889, 2.888889) scale(-1, 1) translate(-12.888889, -2.888889) "></path>
        <path d="M4.44444444,14.4444444 L0.666666667,14.4444444 C0.298476833,14.4444444 -2.00728323e-13,14.7429213 -2.00728323e-13,15.1111111 C-2.00728323e-13,15.4793009 0.298476833,15.7777778 0.666666667,15.7777778 L5.11111111,15.7777778 C5.47930094,15.7777778 5.77777778,15.4793009 5.77777778,15.1111111 L5.77777778,10.6666667 C5.77777778,10.2984768 5.47930094,10 5.11111111,10 C4.74292128,10 4.44444444,10.2984768 4.44444444,10.6666667 L4.44444444,14.4444444 Z" id="Line-15" transform="translate(2.888889, 12.888889) scale(1, -1) translate(-2.888889, -12.888889) "></path>
        <path d="M14.4444444,14.4444444 L10.6666667,14.4444444 C10.2984768,14.4444444 10,14.7429213 10,15.1111111 C10,15.4793009 10.2984768,15.7777778 10.6666667,15.7777778 L15.1111111,15.7777778 C15.4793009,15.7777778 15.7777778,15.4793009 15.7777778,15.1111111 L15.7777778,10.6666667 C15.7777778,10.2984768 15.4793009,10 15.1111111,10 C14.7429213,10 14.4444444,10.2984768 14.4444444,10.6666667 L14.4444444,14.4444444 Z" id="Line-15" transform="translate(12.888889, 12.888889) scale(-1, -1) translate(-12.888889, -12.888889) "></path>
    </g>
</svg>
