<svg fill="currentColor" viewBox="0 0 24 24" xmlns="http://www.w3.org/2000/svg">
    <path fill-rule="evenodd" clip-rule="evenodd" d="M4.22181 19.778C3.92892 19.4851 3.92892 19.0102 4.22181 18.7173L18.7175 4.22162C19.0104 3.92873 19.4853 3.92873 19.7782 4.22162C20.0711 4.51452 20.0711 4.98939 19.7782 5.28228L18.5754 6.485C20.3563 7.67139 21.7985 9.32596 22.7262 11.2729C22.9453 11.7327 22.9453 12.2669 22.7262 12.7268C20.8177 16.7319 16.7321 19.4998 12 19.4998C10.1235 19.4998 8.34865 19.0646 6.77091 18.2895L5.28247 19.778C4.98958 20.0709 4.51471 20.0709 4.22181 19.778ZM15.3089 9.75158L17.4905 7.56995C18.9267 8.46734 20.1279 9.7065 20.9798 11.1742C21.2762 11.6849 21.2762 12.3148 20.9798 12.8255C19.1831 15.9209 15.8329 17.9998 12 17.9998C10.5447 17.9998 9.15902 17.7001 7.90152 17.1589L9.75177 15.3087C10.3925 15.7448 11.1665 15.9998 12 15.9998C14.2091 15.9998 16 14.2089 16 11.9998C16 11.1663 15.745 10.3923 15.3089 9.75158ZM14.217 10.8434L10.8436 14.2168C11.1894 14.3976 11.5828 14.4998 12 14.4998C13.3807 14.4998 14.5 13.3805 14.5 11.9998C14.5 11.5826 14.3978 11.1892 14.217 10.8434ZM14.5135 6.30639C13.7086 6.10612 12.8666 5.99984 12 5.99984C8.16706 5.99984 4.81689 8.07874 3.02018 11.1742C2.72374 11.6849 2.72374 12.3148 3.02018 12.8255C3.61694 13.8536 4.38508 14.7696 5.28536 15.5345L4.22177 16.5981C2.99118 15.5305 1.9824 14.2139 1.27378 12.7268C1.05466 12.2669 1.05466 11.7327 1.27378 11.2729C3.18224 7.26776 7.26787 4.49984 12 4.49984C13.3009 4.49984 14.5529 4.70902 15.7243 5.09558L14.5135 6.30639Z" />
</svg>
