<svg width="24px" height="24px" viewBox="0 0 24 24" version="1.1" xmlns="http://www.w3.org/2000/svg" xmlns:xlink="http://www.w3.org/1999/xlink">
    <path d="M13.7474093,3.56248 C13.9101214,3.74553113 14,3.98192968 14,4.22684384 L14,19.7731562 C14,20.3254409 13.5522847,20.7731562 13,20.7731562 C12.7550858,20.7731562 12.5186873,20.6832776 12.3356362,20.5205655 L7.25,15.9998331 L5,16 C3.8954305,16 3,15.1045695 3,14 L3,10 C3,8.8954305 3.8954305,8 5,8 L7.249,7.99983313 L12.3356362,3.47943452 C12.7484189,3.11251651 13.3804913,3.14969723 13.7474093,3.56248 Z M16.4091101,5.53810275 C16.6642089,5.21176324 17.1355577,5.15401124 17.4618972,5.40911005 C19.6416031,7.1129809 20.75,9.32977461 20.75,12 C20.75,14.6702254 19.6416031,16.8870191 17.4618972,18.5908899 C17.1355577,18.8459888 16.6642089,18.7882368 16.4091101,18.4618972 C16.1540112,18.1355577 16.2117632,17.6642089 16.5381028,17.4091101 C18.3583969,15.9861905 19.25,14.2029842 19.25,12 C19.25,9.79701575 18.3583969,8.01380947 16.5381028,6.59088995 C16.2117632,6.33579114 16.1540112,5.86444226 16.4091101,5.53810275 Z M12.5,5.34009305 L7.81924705,9.49979082 L5,9.5 C4.72385763,9.5 4.5,9.72385763 4.5,10 L4.5,14 C4.5,14.2761424 4.72385763,14.5 4.99988875,14.5 L7.82026713,14.4997908 L12.5,18.6597069 L12.5,5.34009305 Z M15.5205413,8.42326835 C15.8390614,8.15847065 16.3119339,8.20202125 16.5767316,8.52054134 C17.3598895,9.46258688 17.75,10.6329185 17.75,12 C17.75,13.3670815 17.3598895,14.5374131 16.5767316,15.4794587 C16.3119339,15.7979788 15.8390614,15.8415294 15.5205413,15.5767316 C15.2020212,15.3119339 15.1584706,14.8390614 15.4232684,14.5205413 C15.9734439,13.8587457 16.25,13.0290774 16.25,12 C16.25,10.9709226 15.9734439,10.1412543 15.4232684,9.47945866 C15.1584706,9.16093857 15.2020212,8.68806606 15.5205413,8.42326835 Z" id="Icon_volume_on"></path>
</svg>