<svg xmlns="http://www.w3.org/2000/svg" width="12" height="12" viewBox="0 0 12 12"><g fill="none"><g clip-path="url(#svgID0)"><path fill="currentColor" fill-rule="evenodd" d="M6 11A5 5 0 106 1a5 5 0 000 10m0 1A6 6 0 106 0a6 6 0 000 12m.5-7.268 1.621 1.622a.5.5 0 10.707-.708L6.354 3.172 6 2.818l-.354.354-1.52 1.52-.674.674-.205.205-.056.056-.014.014-.004.004-.001.001.353.354-.353-.354a.5.5 0 10.707.708L3.525 6l.354.354v-.002l.005-.003.014-.015.056-.056.205-.205.675-.674.666-.667v3.84a.5.5 0 001 0z" clip-rule="evenodd"/></g><defs><clipPath id="svgID0"><path fill="#fff" d="M0 0h12v12H0z"/></clipPath></defs></g></svg>