<svg xmlns="http://www.w3.org/2000/svg" width="20" height="20" viewBox="0 0 20 20"><path fill="currentColor" fill-rule="evenodd" d="M10 17.5a7.5 7.5 0 100-15 7.5 7.5 0 000 15m0 1.5a9 9 0 100-18 9 9 0 000 18M9.259 8.028v5.795a.75.75 0 001.5 0V8.046l2.246 2.246a.75.75 0 001.06-1.06l-3.463-3.464a.8.8 0 00-.135-.135L10 5.166l-.53.53-2.172 2.171-.963.963-.293.294-.08.08-.02.02-.006.006-.001.001.53.53-.53-.53a.75.75 0 001.06 1.061l-.53-.53.53.53.002-.002.005-.005.02-.02.08-.08.294-.294.963-.963z" clip-rule="evenodd"/></svg>