<svg xmlns="http://www.w3.org/2000/svg" width="12" height="12" viewBox="0 0 12 12"><g fill="none"><g clip-path="url(#svgID0)"><path fill="currentColor" fill-rule="evenodd" d="M11.854.854a.5.5 0 00-.708-.708l-1.13 1.13A2 2 0 009 1H3a2 2 0 00-2 2v6c0 .37.101.718.277 1.016l-1.13 1.13a.5.5 0 00.707.708l1.13-1.13A2 2 0 003 11h6a2 2 0 002-2V3c0-.37-.101-.718-.277-1.016zm-2.595 1.18A1 1 0 009 2H3a1 1 0 00-1 1v6q0 .135.034.259zM2.741 9.966l7.225-7.225Q10 2.866 10 3v6a1 1 0 01-1 1H3q-.135 0-.259-.034" clip-rule="evenodd"/></g><defs><clipPath id="svgID0"><path fill="#fff" d="M0 0h12v12H0z"/></clipPath></defs></g></svg>