<svg xmlns="http://www.w3.org/2000/svg" width="16" height="16" viewBox="0 0 16 16"><path fill="currentColor" fill-rule="evenodd" d="M13 3H5a1 1 0 00-1 1h7a2 2 0 012 2v5a1 1 0 001-1V4a1 1 0 00-1-1m-1 9V6a1 1 0 00-1-1H3a1 1 0 00-1 1v4.317l2.732-1.739.338-.215.284.283L9.707 13H11a1 1 0 001-1m-2.5 2H11a2 2 0 002-2 2 2 0 002-2V4a2 2 0 00-2-2H5a2 2 0 00-2 2 2 2 0 00-2 2v6a2 2 0 002 2zm-1.207-1H3a1 1 0 01-1-1v-.52a.5.5 0 00.126-.058L4.93 9.637zm.957-4.5a.75.75 0 100-1.5.75.75 0 000 1.5m0 1a1.75 1.75 0 100-3.5 1.75 1.75 0 000 3.5" clip-rule="evenodd"/></svg>