<svg xmlns="http://www.w3.org/2000/svg" width="12" height="12" viewBox="0 0 12 12"><path fill="currentColor" fill-rule="evenodd" d="M10.5 2h-7a.5.5 0 00-.5.5V3h5.5A1.5 1.5 0 0110 4.5V8h.5a.5.5 0 00.5-.5v-5a.5.5 0 00-.5-.5M10 9h.5A1.5 1.5 0 0012 7.5v-5A1.5 1.5 0 0010.5 1h-7A1.5 1.5 0 002 2.5V3h-.5A1.5 1.5 0 000 4.5v5A1.5 1.5 0 001.5 11h7A1.5 1.5 0 0010 9.5zM9 9V4.5a.5.5 0 00-.5-.5h-7a.5.5 0 00-.5.5v3.746L2.652 6.64l.381-.37.347.404L6.23 10H8.5a.5.5 0 00.5-.5zM2.967 7.73 4.913 10H1.5a.5.5 0 01-.484-.375zM7 6.5a.5.5 0 11-1 0 .5.5 0 011 0m1 0a1.5 1.5 0 11-3 0 1.5 1.5 0 013 0" clip-rule="evenodd"/></svg>