<svg xmlns="http://www.w3.org/2000/svg" width="20" height="20" viewBox="0 0 20 20"><path fill="currentColor" fill-rule="evenodd" d="M16.5 3.5h-10a1 1 0 00-1 1V5h8A2.5 2.5 0 0116 7.5v5h.5a1 1 0 001-1v-7a1 1 0 00-1-1M16 14h.5a2.5 2.5 0 002.5-2.5v-7A2.5 2.5 0 0016.5 2h-10A2.5 2.5 0 004 4.5V5h-.5A2.5 2.5 0 001 7.5v7A2.5 2.5 0 003.5 17h10a2.5 2.5 0 002.5-2.5zM3.5 6.5h10a1 1 0 011 1v7a1 1 0 01-1 1h-2.441l-.029-.03-5-5-.449-.45-.517.37L2.5 12.22V7.5a1 1 0 011-1m-1 7.565v.435a1 1 0 001 1h5.44l-3.521-3.52zM10.75 11a.75.75 0 100-1.5.75.75 0 000 1.5m0 1.5a2.25 2.25 0 100-4.5 2.25 2.25 0 000 4.5" clip-rule="evenodd"/></svg>