<svg xmlns="http://www.w3.org/2000/svg" width="32" height="32" viewBox="0 0 32 32"><path fill="currentColor" fill-rule="evenodd" d="M25 7H11a2 2 0 00-2 2h12a4 4 0 014 4v7a2 2 0 002-2V9a2 2 0 00-2-2m-2 15v-9a2 2 0 00-2-2H7a2 2 0 00-2 2v6.131l4.445-2.963.643-.428.577.513L19.38 24H21a2 2 0 002-2m-3.996 4H21a4 4 0 004-4 4 4 0 004-4V9a4 4 0 00-4-4H11a4 4 0 00-4 4 4 4 0 00-4 4v9a4 4 0 004 4h12.005m-2.634-2-6.457-5.74L5 21.535V22a2 2 0 002 2zm2.13-7a1.5 1.5 0 100-3 1.5 1.5 0 000 3m0 2a3.5 3.5 0 100-7 3.5 3.5 0 000 7" clip-rule="evenodd"/></svg>