<svg xmlns="http://www.w3.org/2000/svg" width="12" height="12" viewBox="0 0 12 12"><path fill="currentColor" fill-rule="evenodd" d="M11 1.5a.5.5 0 01-.5.5h-9a.5.5 0 010-1h9a.5.5 0 01.5.5M6.5 9.09V3.506a.5.5 0 00-1 0V9.09l-.004-.004-.008-.008-.009-.009-.008-.008-.008-.009-.009-.008-.008-.008-.009-.009-.008-.008-.008-.009-.009-.008-.008-.008-.008-.008-.009-.009-.008-.008-.008-.008-.008-.009-.009-.008-.008-.008-.008-.008-.008-.008-.008-.009-.009-.008-.008-.008-.008-.008-.008-.008-.008-.008-.008-.008-.008-.008-.008-.009-.008-.008-.008-.008-.008-.008-.008-.008-.008-.008-.008-.008L5.2 8.79l-.008-.008-.008-.007-.008-.008-.008-.008-.008-.008-.008-.008-.008-.008-.008-.008-.007-.008-.008-.007-.008-.008-.008-.008-.008-.008-.007-.008-.008-.007-.008-.008-.008-.008-.007-.008-.008-.007-.008-.008-.007-.008-.008-.007-.008-.008-.007-.007-.008-.008L5 8.588l-.008-.007-.008-.008-.007-.007-.008-.008-.007-.007-.008-.008-.007-.007-.008-.008-.007-.007-.007-.008-.008-.007-.007-.007-.01-.009-.007-.007-.007-.008-.008-.007-.007-.007-.007-.008-.008-.007-.007-.007-.007-.007-.007-.008-.008-.007-.007-.007-.007-.007-.007-.007-.007-.008-.007-.007-.008-.007-.007-.007-.007-.007-.007-.007-.007-.007-.007-.007-.007-.007-.007-.007-.007-.007-.007-.007-.007-.007-.007-.007L4.7 8.29l-.007-.007-.007-.007-.007-.007-.006-.007-.007-.007-.007-.006-.007-.007-.007-.007-.007-.007-.006-.007-.007-.006-.007-.007-.006-.007-.007-.006-.007-.007-.006-.007-.007-.006-.007-.007-.006-.007-.007-.006-.007-.007-.006-.006-.007-.007-.006-.006-.007-.007-.006-.006-.007-.007-.006-.006-.007-.007L4.5 8.09l-.006-.007-.007-.006-.006-.006-.006-.007-.007-.006-.006-.006-.006-.007-.007-.006-.006-.006-.006-.006-.006-.007-.007-.006-.006-.006-.006-.006-.006-.006L4.4 7.99l-.006-.007-.006-.006-.006-.006-.007-.006-.006-.006-.006-.006-.006-.006-.006-.006-.006-.006-.006-.006-.005-.006-.006-.006-.006-.005-.006-.006L4.31 7.9l-.006-.006-.006-.006-.005-.006-.006-.005-.006-.006-.006-.006-.005-.006-.006-.005-.006-.006-.005-.006-.006-.005-.006-.006-.005-.006-.006-.005-.006-.006-.005-.005-.006-.006L4.21 7.8l-.006-.006-.005-.005-.006-.006-.005-.005-.005-.006-.006-.005-.005-.005-.006-.006-.005-.005-.005-.005-.005-.006-.006-.005-.005-.005-.005-.005-.005-.006-.006-.005-.005-.005-.005-.005-.005-.005-.005-.005-.005-.006-.005-.005-.005-.005-.006-.005-.005-.005-.005-.005-.004-.005-.005-.005-.005-.005-.005-.005-.005-.004-.005-.005-.005-.005-.005-.005-.005-.005-.004-.005-.005-.004-.005-.005L4.01 7.6l-.004-.005L4 7.59l-.005-.005-.004-.005-.005-.004-.005-.005-.004-.004-.005-.005-.004-.005-.005-.004-.004-.005-.005-.004-.004-.004-.005-.005-.004-.004-.004-.005-.005-.004-.004-.004-.005-.005-.004-.004-.004-.004L3.91 7.5l-.005-.004-.004-.004-.004-.004-.004-.004-.004-.005-.005-.004-.004-.004-.004-.004-.004-.004-.004-.004-.004-.004-.004-.004-.004-.004-.004-.004-.004-.004-.004-.004-.004-.004-.004-.004-.003-.004-.004-.003-.004-.004-.004-.004-.004-.004-.003-.004-.004-.003-.004-.004-.003-.004L3.8 7.39l-.004-.004-.003-.004-.004-.003-.003-.004-.004-.003-.003-.004-.004-.003-.003-.004-.004-.003-.003-.004-.004-.003-.003-.003-.003-.004-.004-.003-.003-.003-.003-.004-.004-.003-.003-.003-.003-.003-.003-.004-.004-.003-.003-.003-.003-.003-.003-.003-.003-.003-.003-.003L3.71 7.3l-.003-.003-.003-.003L3.7 7.29l-.003-.003-.003-.003-.003-.003-.003-.003-.003-.003-.002-.003-.003-.002-.003-.003-.003-.003-.002-.003-.003-.002-.003-.003-.002-.003-.003-.002-.003-.003-.002-.003-.003-.002-.002-.003-.003-.002-.002-.003-.003-.002-.002-.003-.003-.002-.002-.002-.002-.003-.003-.002-.002-.002-.002-.003-.003-.002-.002-.002-.002-.002-.002-.003-.003-.002-.002-.002-.002-.002L3.61 7.2l-.002-.002-.002-.002-.002-.002-.002-.002L3.6 7.19l-.002-.002-.002-.002-.002-.002-.002-.002-.002-.002-.001-.002-.002-.001-.002-.002-.002-.002-.001-.002-.002-.001-.002-.002-.001-.002-.002-.001-.002-.002-.001-.001-.002-.002-.001-.002-.002-.001-.001-.002-.002-.001-.001-.001-.002-.002V7.15l-.002-.002h-.002v-.002l-.002-.001-.001-.002h-.002V7.14H3.55l-.001-.001-.001-.001-.001-.002h-.001l-.001-.002h-.001l-.001-.002h-.001L3.54 7.13l-.001-.001v-.001h-.002v-.002h-.001l-.001-.001-.001-.002h-.001l-.001-.002H3.53v-.002h-.001v-.001h-.001v-.001h-.001v-.001h-.001v-.001l-.354.353.353-.353a.5.5 0 00-.707.707l.354-.354-.354.354.001.001.001.001.001.001h.001v.001l.001.001.001.001.001.001.002.001v.001l.002.002.001.001.001.001.002.002.002.002.002.001v.002h.002v.002h.002v.002h.002l.001.002.001.001.002.001v.002l.002.001.001.001.002.002.001.001.001.001.002.002.001.001.002.002.001.001.002.002.001.001.002.002.001.001.002.002.001.001.002.002.002.002.001.001.002.002.002.002.002.002.002.001.001.002.002.002.002.002.002.002.002.002.002.002.002.002.002.002.002.002.002.002.002.002.002.002.002.002.002.002.003.002.002.003.002.002.002.002.002.002.003.003.002.002.002.002.003.003.002.002.003.003.002.002.002.002.003.003.002.002.003.003.003.003.002.002.003.003.002.002.003.003.003.003.002.002.003.003.003.003.003.003.003.003.002.002.003.003.003.003.003.003.003.003.003.003.003.003.003.003.003.003.003.003.003.003.003.003.003.003.003.003.003.003.004.004.003.003.003.003.003.003.003.003.004.004.003.003.003.003.004.004.003.003.004.004.003.003.003.003.004.004.003.003.004.004.003.003.004.004.004.004.003.003.004.004.003.003.004.004.004.004.004.004.003.003.004.004.004.004.004.004.004.004.003.003.004.004.004.004.004.004.004.004.004.004.004.004.004.004.004.004.004.004.004.004.004.004.004.004.004.004.005.005.004.004.004.004.004.004.005.004.004.005.004.004.004.004.005.005.004.004.004.004.005.005.004.004.005.005.004.004.005.005.004.004.005.005.004.004.005.005.004.004.005.005.005.005.004.004.005.005.005.005.004.004.005.005.005.005.005.005.004.004.005.005.005.005.005.005.005.005.005.005.005.004.004.005.005.005.005.005.005.005.005.005.005.005.005.005.006.006.005.005.005.005.005.005.005.005.005.005.005.005.006.006.005.005.005.005.005.005.006.006.005.005.005.005.006.006.005.005.006.005.005.006.005.005.006.006.005.005.006.006.005.005.006.006.005.005.006.006.006.006.005.005.006.006.005.005.006.006.006.006.005.005.006.006.006.006.006.006.005.005.006.006.006.006.006.006.006.006.006.006.006.006.005.005.006.006.006.006.006.006.006.006.006.006.006.006.006.006.006.006.006.006.007.007.006.006.006.006.006.006.006.006.006.006.007.007.006.006.006.006.006.006.007.007.006.006.006.006.006.006.007.007.006.006.007.007.006.006.006.006.007.007.006.006.007.007.006.006.007.007.006.006.007.007.006.006.007.007.007.006.006.007.007.007.006.006.007.007.007.007.006.006.007.007.007.007.007.007.006.006.007.007.007.007.007.007.007.007.006.006.007.007.007.007.007.007.007.007.007.007.007.007.007.007.007.007.007.007.007.007.007.007.007.007.007.007.007.007.007.007.007.007.007.007.008.008.007.007.007.007.007.007.007.007.008.008.007.007.007.007.007.007.008.008.007.007.007.007.008.008.007.007.007.007.008.008.007.007.007.007.008.008.007.007.008.008.007.007.008.008.007.007.008.008.007.007.008.008.007.007.008.008.008.008.007.007.008.008.008.008.007.007.008.008.008.008.007.007.008.008.008.008.007.007.008.008.008.008.008.008.008.008.007.007.008.008.008.008.008.008.008.008.008.008.008.008.008.008.008.008.008.008.008.007.007.008.008.008.008.008.009.008.008.009.008.008.008.008.008.008.008.008.008.008.008.008.008.008.008.008.009.009.008.008.008.008.008.008.008.008.009.009.008.008.008.008.008.008.009.009.008.008.008.008.009.009.008.008.008.008.009.009.008.008.008.008.009.009.008.008.009.009.008.008.009.009.008.008.009.009.008.008.009.009.008.008.009.009.008.008.009.009.008.008.009.009.009.009.008.008.009.009.008.008.01.01.008.008.008.008.01.01.008.008.009.008.008.01.009.008.009.009.009.008.008.01.01.008.008.009.009.009.009.008.008.01.01.008.008.009.009.009.009.009.009.009.009.009.009.008.008.01.01.008.008.01.01.008.008.01.01.008.008.01.01.008.008.01.01.008.008.01.01.008.009.01.009.009.009.009.009.009.009.009.01.01.008.008.01.01.009.008.009.01.009.009.01.01.008.008.01.01.009.009.009.009.01.01.008.008.01.01.01.009.008.01.01.009.009.009.01.01.009.009.009.009.01.01.009.009.01.009.008.01.01.009.01.01.009.009.01.01.009.008.009.01.01.01.009.009.01.01.009.009.01.01.009.009.01.01.009.009.01.01.353.353.354-.354 2.828-2.828a.5.5 0 10-.707-.707z" clip-rule="evenodd"/></svg>