<svg xmlns="http://www.w3.org/2000/svg" width="12" height="12" viewBox="0 0 12 12"><path fill="currentColor" d="M8.25 1a2 2 0 011.615.82c.074.102.124.205.16.286l.697 1.597c.02.049.041.083.085.17.126.247.193.523.193.803v.243c0 .704-.432 1.26-1.004 1.499 0 .01.004.022.004.033v2.47c0 .576-.275 1.094-.656 1.46s-.907.616-1.469.616H3.996c-1.135 0-2-1.003-2-2.075v-2.47q0-.019.003-.036A1.61 1.61 0 011 4.919v-.236c0-.281.067-.557.194-.806.049-.095.07-.133.094-.187l.687-1.586c.038-.09.094-.203.177-.313A2 2 0 013.745 1zM3 9c.04.55.498.997.996.997h3.879c.266 0 .553-.123.777-.338.201-.192.32-.43.343-.659zm.987-2.627a.55.55 0 00-.571-.036l-.04.02q-.187.097-.38.142V8H9V6.498a1.7 1.7 0 01-.377-.14l-.039-.021a.55.55 0 00-.571.036l-.04.027a1.48 1.48 0 01-1.697 0 .48.48 0 00-.552 0 1.48 1.48 0 01-1.698 0zm.293-.972q.146.061.28.153l.039.027a.48.48 0 00.552 0q.166-.114.348-.18L5.486 2h-.551zm2.219 0q.184.065.35.18a.48.48 0 00.552 0l.04-.027q.131-.091.277-.152L7.038 2h-.552zM3.745 2a1 1 0 00-.796.396.5.5 0 00-.056.105l-.687 1.587c-.04.093-.097.197-.122.245a.8.8 0 00-.084.35v.236c0 .469.498.77.913.553l.04-.02q.156-.081.322-.123L3.917 2zm4.978 3.33q.166.041.325.121l.039.02A.624.624 0 0010 4.92v-.243a.8.8 0 00-.084-.35c-.023-.044-.073-.138-.11-.223l-.698-1.596a.5.5 0 00-.05-.097A1 1 0 008.25 2h-.192z"/></svg>