<svg xmlns="http://www.w3.org/2000/svg" width="12" height="12" viewBox="0 0 12 12"><path fill="currentColor" d="M3.259 5.419a.5.5 0 10.982.188zm1.718-3.637a.5.5 0 00-.982-.189zM7.76 5.61a.5.5 0 00.98-.196zm.216-4.021a.5.5 0 00-.98.195zm-1.49.096a.5.5 0 10-1 .003zM5.5 5.515a.5.5 0 001-.004zm-2.355.4-.232-.443zm.04-.021.231.443zm1.088.07.287-.41zm.04.027-.287.41zm3.375 0 .286.41zm.039-.028-.287-.41zm1.128-.048.232-.443zm-.04-.021-.231.443zm-2.252.097-.287.41zm-1.125 0 .286.41zM2.496 8a.5.5 0 000 1zM10 6.451a.5.5 0 00-1 0zm-7.004 0a.5.5 0 00-1 0zM1.747 3.889l-.459-.198zm.804-1.796-.399-.302zm7.713 1.81-.459.2zm.097.196-.445.227zm-.794-1.792-.459.2zm-.106-.192-.404.295zm-5.22 3.492.736-3.825-.982-.189-.736 3.826zm4.5-.192L7.975 1.59l-.98.195.764 3.826zM5.485 1.69 5.5 5.515l1-.004-.014-3.825zM3.746 2H8.25V1H3.745zm5.362.507.697 1.596.917-.4-.697-1.596zm-7.133-.403-.687 1.587.918.397.687-1.587zM1 4.682v.237h1v-.237zm9-.006v.243h1v-.243zM3.377 6.358l.04-.021-.465-.886-.039.02zm.61.015.04.028.572-.82-.04-.028zm3.987.028.039-.028-.573-.82-.039.028zm1.113-.93-.04-.02-.463.886.039.02zm-1.074.902a.55.55 0 01.57-.036l.465-.886a1.55 1.55 0 00-1.608.102zm-1.737.028c.51.356 1.188.356 1.698 0L7.4 5.58a.48.48 0 01-.552 0zm-.552 0a.48.48 0 01.552 0l.573-.82a1.48 1.48 0 00-1.698 0zm-1.698 0c.51.356 1.188.356 1.698 0l-.573-.82a.48.48 0 01-.552 0zm-.61-.064a.55.55 0 01.571.036l.573-.82a1.55 1.55 0 00-1.608-.102zM10 4.919c0 .469-.498.77-.913.553l-.464.886A1.624 1.624 0 0011 4.919zm-9 0a1.624 1.624 0 002.377 1.439l-.464-.886A.624.624 0 012 4.919zm.194-1.042A1.8 1.8 0 001 4.682h1q.002-.185.084-.35zm8.722.449a.8.8 0 01.084.35h1c0-.28-.066-.556-.193-.804zM8.25 2a1 1 0 01.807.41l.808-.59A2 2 0 008.25 1zM3.745 1a2 2 0 00-1.593.79l.797.605A1 1 0 013.745 2zM2.496 9H9.5V8H2.496zM9 6.451v2.47h1v-2.47zM7.875 9.997H3.996v1h3.879zM2.996 8.922V6.45h-1v2.47zm1 1.075c-.521 0-1-.491-1-1.075h-1c0 1.072.864 2.075 2 2.075zM9 8.922c0 .253-.124.522-.348.737s-.51.338-.777.338v1c.562 0 1.088-.25 1.47-.616.38-.366.655-.884.655-1.46zM1.288 3.69c-.023.054-.045.091-.094.186l.89.456c.025-.049.082-.152.122-.245zM2.893 2.5a.5.5 0 01.056-.106l-.797-.604c-.083.11-.138.224-.177.313zm6.912 1.602c.037.085.088.179.11.223l.892-.454c-.044-.086-.064-.12-.085-.17zm.22-1.996a1.5 1.5 0 00-.16-.287l-.808.59a.5.5 0 01.051.097z"/></svg>