<svg xmlns="http://www.w3.org/2000/svg" width="20" height="20" viewBox="0 0 20 20"><path fill="currentColor" d="M5.639 8.62a.625.625 0 001.222.26zm2.456-5.55a.625.625 0 00-1.223-.26zm5.044 5.813a.625.625 0 001.222-.266zm-.045-6.076a.625.625 0 00-1.22.267zm-2.485.132a.625.625 0 00-1.25.003zM9.375 8.752a.625.625 0 001.25-.004zm6.504-4.947.55-.295-.02-.036zm1.3 2.429-.551.295.02.036zM4.144 3.78l-.527-.336-.024.041zM2.832 6.228l.527.337.024-.042zm2.41 3.191.29.554zm.065-.034-.29-.554zm1.815.116.358-.513zm.066.045-.358.512zm5.625 0 .357.512zm.065-.045-.358-.513zm1.88-.082-.29.554zm-.065-.034.29-.554zm-3.755.161-.358.512zm-1.876 0 .358.512zm-5.423 3.45a.625.625 0 100 1.25zm13.365-3.504a.625.625 0 00-1.25-.032zm-.764 5.383-.625-.016v.016zm-12.74 0-.625-.016v.016zm.764-5.383a.625.625 0 00-1.25-.032zM6.86 8.88l1.234-5.81-1.223-.26L5.64 8.62zm7.5-.263-1.267-5.81-1.22.267 1.265 5.81zM9.359 2.942l.016 5.81 1.25-.004-.016-5.81zm-3.109.31h7.508v-1.25H6.25zm9.078.848 1.3 2.429 1.102-.59-1.3-2.43zM3.593 3.486 2.282 5.933l1.101.59 1.312-2.446zm-1.718 3.88v.394h1.25v-.394zm15-.011v.405h1.25v-.405zM5.532 9.973l.065-.034-.58-1.108-.065.035zm1.233.04.065.045.715-1.024-.065-.046zm6.405.045.066-.045-.716-1.025-.065.046zm1.878-1.192-.065-.035-.58 1.108.065.034zm-1.812 1.147c.344-.24.794-.27 1.167-.074l.58-1.108a2.38 2.38 0 00-2.463.157zm-2.656.045a2.26 2.26 0 002.59 0l-.715-1.024a1.01 1.01 0 01-1.16 0zm-1.16 0a1.01 1.01 0 011.16 0l.715-1.024a2.26 2.26 0 00-2.59 0zm-2.59 0a2.26 2.26 0 002.59 0l-.715-1.024a1.01 1.01 0 01-1.16 0zm-1.233-.12a1.13 1.13 0 011.168.075l.715-1.025a2.38 2.38 0 00-2.463-.157zM16.875 7.76c0 .938-.996 1.54-1.827 1.106l-.58 1.107c1.663.871 3.657-.335 3.657-2.213zm-15 0c0 1.878 1.994 3.084 3.657 2.213l-.58-1.107A1.248 1.248 0 013.125 7.76zm.43-1.868c-.28.44-.43.951-.43 1.474h1.25c0-.284.081-.562.234-.801zm14.344.673c.148.237.226.51.226.79h1.25c0-.513-.144-1.016-.416-1.452zm-2.892-3.312c.648 0 1.249.334 1.591.883l1.061-.662a3.13 3.13 0 00-2.651-1.471zM6.25 2.003a3.13 3.13 0 00-2.633 1.442l1.053.673c.345-.539.94-.865 1.58-.865zM3.639 14.245h12.74v-1.25H3.639zM15.754 9.46l-.139 5.399 1.25.032.139-5.399zm-2.014 7.29H6V18h7.74zm-9.615-1.859.139-5.399-1.25-.032-.139 5.399zM6 16.75a1.875 1.875 0 01-1.875-1.875h-1.25C2.875 16.601 4.275 18 6 18zm9.615-1.875c0 1.036-.84 1.875-1.875 1.875V18c1.726 0 3.125-1.4 3.125-3.125z"/></svg>