<svg xmlns="http://www.w3.org/2000/svg" width="16" height="16" viewBox="0 0 16 16"><path fill="currentColor" d="M4.513 6.99a.5.5 0 10.974.223zm1.974-4.128a.5.5 0 10-.974-.224zm4.026 4.351a.5.5 0 00.974-.224zm-.026-4.575a.5.5 0 00-.974.224zM8.5 2.75a.5.5 0 00-1 0zm-1 4.351a.5.5 0 001 0zm5.216-3.66.424-.264zm1.027 1.647-.424.265zM3.328 3.423l.421.27zm-1.062 1.66.421.27zm1.927 2.554.232.443zm.053-.028-.232-.443zm1.452.093.286-.41zm.052.036-.286.41zm4.5 0 .286.41zm.052-.036-.286-.41zm1.505-.065-.232.443zm-.053-.028.232-.443zm-3.004.13-.286.409zm-1.5 0 .286.409zM3.5 10a.5.5 0 000 1zM13 7.81a.5.5 0 00-1 0zm-9 0a.5.5 0 00-1 0zm1.487-.597 1-4.351-.974-.224-1 4.351zm6-.224-1-4.351-.974.224 1 4.351zM7.5 2.75v4.351h1V2.75zM5.013 3h6.006V2H5.013zm7.279.706 1.027 1.647.848-.53-1.027-1.646zm-9.385-.553L1.845 4.815l.842.538 1.062-1.66zM1.5 5.993v.317h1v-.316zm12-.008v.325h1v-.325zM4.425 8.08l.053-.028-.464-.886-.053.028zm.987.032.052.036.572-.82-.052-.036zm5.124.036.052-.036-.572-.82-.052.036zm1.503-.954-.053-.028-.464.886.053.028zm-1.45.918a.9.9 0 01.933-.06l.464-.886a1.9 1.9 0 00-1.97.126zm-2.125.036a1.81 1.81 0 002.072 0l-.572-.82a.81.81 0 01-.928 0zm-.928 0a.81.81 0 01.928 0l.572-.82a1.81 1.81 0 00-2.072 0zm-2.072 0a1.81 1.81 0 002.072 0l-.572-.82a.81.81 0 01-.928 0zm-.986-.096a.9.9 0 01.934.06l.572-.82a1.9 1.9 0 00-1.97-.126zM13.5 6.31a.998.998 0 01-1.461.884l-.464.886c1.33.697 2.925-.268 2.925-1.77zm-12 0c0 1.502 1.595 2.467 2.925 1.77l-.464-.886A.998.998 0 012.5 6.31zm.345-1.495A2.2 2.2 0 001.5 5.994h1c0-.227.065-.45.187-.64zm11.474.538c.118.19.181.409.181.632h1c0-.41-.115-.813-.332-1.161zM11.019 3a1.5 1.5 0 011.273.706l.848-.53A2.5 2.5 0 0011.02 2zM5.013 2a2.5 2.5 0 00-2.106 1.153l.842.54A1.5 1.5 0 015.013 3zM3.5 11h9v-1h-9zM12 7.81v3.59h1V7.81zM10.5 13h-5v1h5zM4 11.4V7.81H3v3.59zM5.5 13c-.797 0-1.5-.74-1.5-1.6H3C3 12.749 4.088 14 5.5 14zm6.5-1.6c0 .86-.703 1.6-1.5 1.6v1c1.412 0 2.5-1.251 2.5-2.6z"/></svg>