<svg xmlns="http://www.w3.org/2000/svg" width="24" height="24" viewBox="0 0 24 24"><path fill="currentColor" d="M6.77 10.328a.75.75 0 001.46.344zm2.96-6.031a.75.75 0 00-1.46-.344zm6.04 6.375a.75.75 0 001.46-.344zm-.04-6.719a.75.75 0 00-1.46.344zm-2.98.172a.75.75 0 00-1.5 0zm-1.5 6.375a.75.75 0 001.5 0zm7.824-5.338.636-.397zm1.54 2.47-.636.397zM4.993 5.135l.632.404zM3.399 7.626l.632.404zm2.891 3.83.348.664zm.079-.042-.348-.664zm2.178.139.43-.615zm.078.054-.43.615zm6.75 0 .43.615zm.078-.054-.43-.615zm2.257-.098-.348.665zm-.079-.041.348-.664zm-4.506.193-.43.615zm-2.25 0 .43.615zM4.5 15.5a.75.75 0 000 1.5zm15.75-3.915a.75.75 0 00-1.5 0zm-15 0a.75.75 0 00-1.5 0zm2.98-.913 1.5-6.375-1.46-.344-1.5 6.375zm9-.344-1.5-6.375-1.46.344 1.5 6.375zm-5.98-6.203V10.5h1.5V4.125zM7.52 4.5h9.009V3h-9.01zm10.918 1.06 1.54 2.47 1.273-.794-1.54-2.47zM4.36 4.73 2.767 7.222l1.264.808 1.593-2.492zM2.25 8.99v.474h1.5v-.473zm18-.012v.486h1.5v-.486zM6.638 12.12l.079-.042-.696-1.328-.079.04zm1.48.048.078.054.858-1.23-.078-.054zm7.686.054.079-.054-.86-1.23-.077.054zm2.254-1.431-.079-.041-.696 1.328.079.042zm-2.175 1.377a1.35 1.35 0 011.4-.09l.696-1.328a2.85 2.85 0 00-2.955.188zm-3.187.054a2.715 2.715 0 003.108 0l-.858-1.23a1.215 1.215 0 01-1.392 0zm-1.392 0a1.215 1.215 0 011.392 0l.858-1.23a2.71 2.71 0 00-3.108 0zm-3.108 0a2.715 2.715 0 003.108 0l-.858-1.23a1.215 1.215 0 01-1.392 0zm-1.48-.144a1.35 1.35 0 011.401.09l.86-1.23a2.85 2.85 0 00-2.956-.188zM20.25 9.464a1.497 1.497 0 01-2.192 1.327l-.696 1.329c1.996 1.045 4.388-.403 4.388-2.656zm-18 0c0 2.253 2.392 3.7 4.388 2.656l-.696-1.33A1.497 1.497 0 013.75 9.465zm.517-2.242A3.3 3.3 0 002.25 8.99h1.5c0-.34.097-.674.28-.961zm17.212.807c.177.285.271.613.271.949h1.5a3.3 3.3 0 00-.499-1.742zM16.529 4.5c.776 0 1.498.4 1.909 1.06l1.272-.795A3.75 3.75 0 0016.53 3zM7.519 3A3.75 3.75 0 004.36 4.73l1.264.808A2.25 2.25 0 017.52 4.5zM4.5 17h15v-1.5h-15zm14.25-5.415v5.665h1.5v-5.665zM16.5 19.5h-9V21h9zM5.25 17.25v-5.665h-1.5v5.665zM7.5 19.5a2.25 2.25 0 01-2.25-2.25h-1.5A3.75 3.75 0 007.5 21zm11.25-2.25a2.25 2.25 0 01-2.25 2.25V21a3.75 3.75 0 003.75-3.75z"/></svg>