<svg xmlns="http://www.w3.org/2000/svg" width="32" height="32" viewBox="0 0 32 32"><path fill="currentColor" d="M22.038 4a5 5 0 014.242 2.354l2.055 3.293A4.4 4.4 0 0129 11.971v.648a3.96 3.96 0 01-2 3.46V23a5 5 0 01-5 5H10a5 5 0 01-5-5v-6.922a3.96 3.96 0 01-2-3.459v-.632c0-.835.24-1.654.69-2.358l2.123-3.322A5 5 0 0110.026 4zM7 23a3 3 0 003 3h12a3 3 0 003-3zm16.044-6.895a1.8 1.8 0 00-1.867.119l-.105.072a3.62 3.62 0 01-4.144 0 1.62 1.62 0 00-1.856 0 3.62 3.62 0 01-4.144 0l-.105-.072a1.8 1.8 0 00-1.867-.12l-.105.055A4 4 0 017 16.62V21h18v-4.382a4 4 0 01-1.85-.459zm-12.04-2.007c.338.113.664.276.965.486l.103.072a1.62 1.62 0 001.856 0 3.6 3.6 0 011.083-.512A1 1 0 0115 14V6h-2.09zM17 14q0 .073-.012.144c.38.107.748.277 1.084.512a1.62 1.62 0 001.856 0l.103-.072c.301-.21.626-.373.964-.486L19.09 6H17zm-6.974-8a3 3 0 00-2.528 1.384l-2.123 3.322A2.4 2.4 0 005 11.987v.632c0 1.5 1.594 2.465 2.923 1.769l.104-.055c.312-.163.64-.28.973-.352q.002-.105.026-.21L10.855 6zm12.948 7.77a1 1 0 01.025.211c.334.072.662.189.974.352l.104.055c1.33.696 2.923-.268 2.923-1.769v-.648a2.4 2.4 0 00-.362-1.265l-2.054-3.294A3 3 0 0022.038 6h-.893z"/></svg>