<svg xmlns="http://www.w3.org/2000/svg" width="24" height="24" viewBox="0 0 24 24"><path fill="currentColor" d="M16.528 3a3.75 3.75 0 013.182 1.766l1.541 2.47a3.3 3.3 0 01.499 1.742v.487c0 1.15-.624 2.089-1.5 2.595v5.19A3.75 3.75 0 0116.5 21h-9a3.75 3.75 0 01-3.75-3.75v-5.19a2.97 2.97 0 01-1.5-2.595V8.99c0-.627.179-1.241.517-1.77L4.36 4.73A3.75 3.75 0 017.52 3zM5.25 17.25A2.25 2.25 0 007.5 19.5h9a2.25 2.25 0 002.25-2.25V17H5.25zm12.033-5.172a1.35 1.35 0 00-1.4.089l-.078.055a2.72 2.72 0 01-3.11 0 1.215 1.215 0 00-1.39 0 2.72 2.72 0 01-3.11 0l-.078-.055a1.35 1.35 0 00-1.4-.089l-.08.041a3 3 0 01-1.387.346V15.5h13.5v-3.035c-.461 0-.935-.109-1.388-.346zm-9.03-1.505q.383.129.724.364l.078.055c.417.292.973.292 1.39 0 .253-.176.528-.304.813-.385a1 1 0 01-.008-.107v-6H9.683zm4.497-.073a1 1 0 01-.009.107c.286.081.561.209.814.385.417.292.973.292 1.39 0l.078-.055a3 3 0 01.723-.364L14.317 4.5H12.75zm-5.23-6a2.25 2.25 0 00-1.896 1.038L4.031 8.03c-.183.287-.281.62-.281.961v.474a1.498 1.498 0 002.192 1.326l.079-.041a3 3 0 01.729-.265 1 1 0 01.02-.157L8.14 4.5zm9.71 5.828a1 1 0 01.019.157c.25.054.497.143.73.265l.079.041c.997.522 2.192-.2 2.192-1.326v-.487c0-.336-.094-.664-.271-.949l-1.541-2.47a2.25 2.25 0 00-1.91-1.059h-.669z"/></svg>