<svg xmlns="http://www.w3.org/2000/svg" width="16" height="16" viewBox="0 0 16 16"><path fill="currentColor" d="M11.02 2a2.5 2.5 0 012.12 1.177l1.027 1.646c.217.349.333.752.333 1.162v.325c0 .972-.668 1.718-1.5 1.935V11.4c0 1.349-1.088 2.6-2.5 2.6h-5C4.088 14 3 12.749 3 11.4V8.245A1.994 1.994 0 011.5 6.31v-.316c0-.418.12-.827.345-1.18l1.061-1.66A2.5 2.5 0 015.013 2zM4 11.4c0 .86.703 1.6 1.5 1.6h5c.797 0 1.5-.74 1.5-1.6V11H4zm1.412-3.289a.9.9 0 00-.934-.06l-.052.03q-.21.107-.426.163V10h8V8.244a2 2 0 01-.426-.164l-.051-.028a.9.9 0 00-.935.06l-.052.036a1.81 1.81 0 01-2.072 0 .81.81 0 00-.928 0 1.81 1.81 0 01-2.072 0zm.11-1.055a2 2 0 01.462.236l.052.036a.81.81 0 00.928 0c.166-.116.348-.2.536-.255V3H6.456zm2.978.017c.188.054.37.139.536.255a.81.81 0 00.928 0l.052-.036q.218-.151.46-.236L9.545 3H8.5zM5.013 3a1.5 1.5 0 00-1.264.692L2.688 5.354a1.2 1.2 0 00-.188.64v.316a.998.998 0 001.46.884l.054-.028a2 2 0 01.499-.178L5.43 3zm6.473 3.988a2 2 0 01.5.178l.053.028A.998.998 0 0013.5 6.31v-.325c0-.223-.062-.443-.18-.632l-1.028-1.647A1.5 1.5 0 0011.02 3h-.45z"/></svg>