<svg xmlns="http://www.w3.org/2000/svg" width="32" height="32" viewBox="0 0 32 32"><path fill="currentColor" d="M9.027 13.771a1 1 0 101.946.458zm3.946-8.042a1 1 0 00-1.946-.458zm8.054 8.5a1 1 0 101.946-.458zm-.054-8.958a1 1 0 10-1.946.458zM17 5.5a1 1 0 10-2 0zM15 14a1 1 0 102 0zm10.432-7.117.849-.53zm2.055 3.294-.849.529zM6.656 6.846l.842.538zm-2.124 3.322.843.539zm3.855 5.106.464.885zm.105-.055-.464-.886zm2.904.184.572-.82zm.104.073-.573.82zm9 0 .573.82zm.104-.073-.572-.82zm3.01-.13-.465.886zm-.106-.054.464-.886zm-6.008.257-.573.82zm-3 0 .573.82zM6 21a1 1 0 100 2zm21-5.554a1 1 0 10-2 0zm-20 0a1 1 0 10-2 0zm3.973-1.217 2-8.5-1.946-.458-2 8.5zm12-.458-2-8.5-1.946.458 2 8.5zM15 5.5V14h2V5.5zm-4.974.5h12.012V4H10.026zm14.558 1.412 2.054 3.294 1.697-1.059-2.055-3.293zM5.814 6.307 3.688 9.629l1.686 1.078 2.123-3.323zM3 11.987v.632h2v-.631zm24-.017v.65h2v-.65zM8.85 16.16l.106-.056-.928-1.771-.105.055zm1.973.063.104.073 1.146-1.64-.104-.072zm10.25.073.104-.073-1.145-1.64-.105.073zm3.004-1.908-.105-.055-.928 1.771.105.055zm-2.9 1.835a1.8 1.8 0 011.867-.119l.928-1.771a3.8 3.8 0 00-3.94.25zm-4.25.073c1.245.87 2.9.87 4.146 0l-1.146-1.64a1.62 1.62 0 01-1.854 0zm-1.854 0a1.62 1.62 0 011.854 0l1.146-1.64a3.62 3.62 0 00-4.146 0zm-4.146 0c1.245.87 2.9.87 4.146 0l-1.146-1.64a1.62 1.62 0 01-1.854 0zm-1.971-.192a1.8 1.8 0 011.867.12l1.146-1.64a3.8 3.8 0 00-3.941-.251zM27 12.62c0 1.5-1.593 2.465-2.923 1.769l-.928 1.771C25.81 17.553 29 15.623 29 12.62zm-24 0c0 3.004 3.19 4.934 5.85 3.54l-.927-1.771C6.593 15.084 5 14.12 5 12.619zm.69-2.99A4.4 4.4 0 003 11.988h2c0-.454.13-.899.375-1.281zm22.948 1.077c.237.38.362.817.362 1.264h2c0-.82-.23-1.626-.665-2.323zM22.038 6a3 3 0 012.546 1.412l1.697-1.058A5 5 0 0022.038 4zM10.026 4a5 5 0 00-4.213 2.307l1.685 1.077A3 3 0 0110.026 6zM6 23h20v-2H6zm19-7.554V23h2v-7.554zM22 26H10v2h12zM7 23v-7.554H5V23zm3 3a3 3 0 01-3-3H5a5 5 0 005 5zm15-3a3 3 0 01-3 3v2a5 5 0 005-5z"/></svg>