<svg xmlns="http://www.w3.org/2000/svg" width="20" height="20" viewBox="0 0 20 20"><path fill="currentColor" d="M13.758 2.003c1.01 0 1.955.489 2.539 1.304l.112.167.02.036 1.302 2.428h-.002c.258.428.396.917.396 1.416v.407c0 .905-.465 1.652-1.13 2.088l-.13 5.026A3.124 3.124 0 0113.74 18H6a3.125 3.125 0 01-3.125-3.125v-.016l.128-5.011A2.47 2.47 0 011.875 7.76v-.396c0-.506.141-1.002.406-1.432l1.312-2.447.024-.042a3.13 3.13 0 012.633-1.44zM4.125 14.875c0 1.036.84 1.875 1.875 1.875h7.74c1.036 0 1.875-.84 1.875-1.875v-.016l.016-.614H4.14zm2.64-4.862a1.13 1.13 0 00-1.167-.075l-.066.035c-.42.22-.863.307-1.289.284l-.07 2.738h11.49l.07-2.736a2.5 2.5 0 01-1.265-.286l-.066-.035a1.13 1.13 0 00-1.167.075l-.065.046a2.26 2.26 0 01-2.59 0 1.01 1.01 0 00-1.16 0 2.26 2.26 0 01-2.59 0zM6.9 8.69q.307.106.58.297l.065.045c.348.243.812.243 1.16 0a2.3 2.3 0 01.669-.318l-.015-5.462H8.056zm3.724.024c.235.067.462.173.67.318.35.243.813.243 1.161 0l.065-.045q.272-.19.578-.297l-1.186-5.438H10.61zm3.734-.107q.324.067.624.223l.066.034a1.248 1.248 0 001.827-1.104v-.407a1.5 1.5 0 00-.247-.826l-1.285-2.401a1.88 1.88 0 00-1.585-.874h-.567zM6.25 3.253c-.634 0-1.225.32-1.571.851l-1.295 2.42-.025.04-.054.092c-.118.217-.18.461-.18.71v.395c0 .517.304.93.715 1.126q.043.014.084.035a1.23 1.23 0 001.028-.057l.066-.034q.3-.156.623-.223l1.137-5.355z"/></svg>