<svg xmlns="http://www.w3.org/2000/svg" width="16" height="16" viewBox="0 0 16 16"><path fill="currentColor" fill-rule="evenodd" d="M3.389 7H2.5a.5.5 0 00-.5.5v1a.5.5 0 00.5.5h.889a.5.5 0 00.5-.5v-1a.5.5 0 00-.5-.5M2.5 6A1.5 1.5 0 001 7.5v1A1.5 1.5 0 002.5 10h.889a1.5 1.5 0 001.5-1.5v-1a1.5 1.5 0 00-1.5-1.5zm11 1h-.889a.5.5 0 00-.5.5v1a.5.5 0 00.5.5h.889a.5.5 0 00.5-.5v-1a.5.5 0 00-.5-.5m-.889-1a1.5 1.5 0 00-1.5 1.5v1a1.5 1.5 0 001.5 1.5h.889A1.5 1.5 0 0015 8.5v-1A1.5 1.5 0 0013.5 6zM7.556 7h.889a.5.5 0 01.5.5v1a.5.5 0 01-.5.5h-.89a.5.5 0 01-.5-.5v-1a.5.5 0 01.5-.5m-1.5.5a1.5 1.5 0 011.5-1.5h.889a1.5 1.5 0 011.5 1.5v1a1.5 1.5 0 01-1.5 1.5h-.89a1.5 1.5 0 01-1.5-1.5z" clip-rule="evenodd"/></svg>