<svg xmlns="http://www.w3.org/2000/svg" width="24" height="24" viewBox="0 0 24 24"><path fill="currentColor" fill-rule="evenodd" d="M5.5 10.5h-1a.5.5 0 00-.5.5v2a.5.5 0 00.5.5h1A.5.5 0 006 13v-2a.5.5 0 00-.5-.5M4.5 9a2 2 0 00-2 2v2a2 2 0 002 2h1a2 2 0 002-2v-2a2 2 0 00-2-2zm8 1.5h-1a.5.5 0 00-.5.5v2a.5.5 0 00.5.5h1a.5.5 0 00.5-.5v-2a.5.5 0 00-.5-.5m-1-1.5a2 2 0 00-2 2v2a2 2 0 002 2h1a2 2 0 002-2v-2a2 2 0 00-2-2zm7 1.5h1a.5.5 0 01.5.5v2a.5.5 0 01-.5.5h-1a.5.5 0 01-.5-.5v-2a.5.5 0 01.5-.5m-2 .5a2 2 0 012-2h1a2 2 0 012 2v2a2 2 0 01-2 2h-1a2 2 0 01-2-2z" clip-rule="evenodd"/></svg>