<svg xmlns="http://www.w3.org/2000/svg" width="20" height="20" viewBox="0 0 20 20"><path fill="currentColor" fill-rule="evenodd" d="M2.5 15v2a.5.5 0 00.5.5h14a.5.5 0 00.5-.5v-2a.5.5 0 00-.5-.5H3a.5.5 0 00-.5.5m0-2.12L5.664 7.4H5.5V4a.5.5 0 00-.5-.5H3a.5.5 0 00-.5.5zM7 5.086l.788-1.365a2 2 0 012.733-.733l2.231 1.289a2 2 0 01.732 2.732l-.206.356.367-.211a2 2 0 012.732.732l1.288 2.232a2 2 0 01-.732 2.732l-.26.15H17a2 2 0 012 2v2a2 2 0 01-2 2H3q-.1 0-.2-.01A2 2 0 011 17V4a2 2 0 012-2h2a2 2 0 012 2zm9.183 6.465L13.673 13H6.519l7.876-4.547a.5.5 0 01.683.183l1.288 2.232a.5.5 0 01-.183.683M10.68 8.865l-6.195 3.577 4.602-7.971a.5.5 0 01.683-.184l2.232 1.289a.5.5 0 01.183.683z" clip-rule="evenodd"/></svg>