<svg xmlns="http://www.w3.org/2000/svg" width="16" height="16" viewBox="0 0 16 16"><path fill="currentColor" fill-rule="evenodd" d="M2 11.5v2a.5.5 0 00.5.5h11a.5.5 0 00.5-.5v-2a.5.5 0 00-.5-.5h-11a.5.5 0 00-.5.5m0-1.415a1.5 1.5 0 01.222-.06L5 5.216V3.5a.5.5 0 00-.5-.5h-2a.5.5 0 00-.5.5zm1.56-.377 5.396-3.115.915-1.585a.5.5 0 00-.183-.683L7.856 3.267a.5.5 0 00-.683.183L6 5.483V5.5h-.01zM5.055 10h6.231l1.655-.955a.5.5 0 00.182-.683L12.067 6.53a.5.5 0 00-.683-.183zm8.231 0h.214a1.5 1.5 0 011.5 1.5v2a1.5 1.5 0 01-1.5 1.5h-11A1.5 1.5 0 011 13.5v-10A1.5 1.5 0 012.5 2h2A1.5 1.5 0 016 3.483l.307-.533a1.5 1.5 0 012.05-.549l1.831 1.058a1.5 1.5 0 01.55 2.049l-.05.085.195-.112a1.5 1.5 0 012.049.549l1.057 1.832a1.5 1.5 0 01-.549 2.049z" clip-rule="evenodd"/></svg>