<svg xmlns="http://www.w3.org/2000/svg" width="16" height="16" viewBox="0 0 16 16"><path fill="currentColor" d="M15.166 9.138a.6.6 0 01-.571.627c-.72.033-1.211-.338-1.53-.568-.347-.251-.522-.36-.777-.351-.232.008-.387.112-.697.348-.288.219-.73.567-1.4.57-.677.005-1.128-.347-1.42-.568-.317-.24-.474-.344-.71-.35-.258-.006-.434.1-.769.339-.312.222-.785.579-1.481.58-.7 0-1.174-.357-1.488-.58-.337-.24-.514-.346-.773-.34-.234.008-.39.112-.705.35-.292.221-.74.573-1.416.57a.6.6 0 11.006-1.2c.225.001.377-.093.685-.326.285-.216.728-.573 1.396-.592.705-.02 1.183.333 1.503.56.342.244.524.359.79.359.265 0 .446-.116.787-.359.317-.226.794-.578 1.496-.56.67.017 1.116.374 1.402.59.31.234.463.33.69.329s.376-.097.68-.327c.282-.215.72-.569 1.381-.592.718-.026 1.207.347 1.524.576.345.25.518.354.77.343a.6.6 0 01.627.572M12.89 6.5a3 3 0 00-.472-.053h-.217a3 3 0 00-.576.076 3.946 3.946 0 00-7.32.008 3 3 0 00-.615-.084l-.21-.001q-.228.007-.434.043a5.15 5.15 0 014.92-3.635l.265.007a5.15 5.15 0 014.659 3.64m-.327 3.81a5.14 5.14 0 01-4.596 2.835l-.265-.007A5.15 5.15 0 013.364 10.3q.126-.09.203-.15l.02-.014.039.026c.241.172.83.629 1.694.763.7.633 1.629 1.02 2.647 1.02a3.93 3.93 0 002.635-1.011c.886-.124 1.476-.606 1.713-.786l.007-.006.04.026c.05.037.12.085.201.142"/></svg>