<svg xmlns="http://www.w3.org/2000/svg" width="20" height="20" viewBox="0 0 20 20"><path fill="currentColor" fill-rule="evenodd" d="M5.25 2a.75.75 0 01.75.75V4.5h6.25c.626 0 1.21.177 1.707.484L16.05 2.89a.797.797 0 011.087-.028c.307.278.32.74.026 1.033l-2.147 2.147a3.23 3.23 0 01.484 1.707V14h1.75a.75.75 0 010 1.5H15.5v1.75a.75.75 0 01-1.5 0V15.5H7.75a3.25 3.25 0 01-3.25-3.25V6H2.75a.75.75 0 010-1.5H4.5V2.75A.75.75 0 015.25 2m7.59 4.102A1.8 1.8 0 0012.25 6H6v6.25q.001.311.102.59zm-5.68 7.796 6.738-6.737q.1.277.102.589V14H7.75q-.311-.002-.59-.102" clip-rule="evenodd"/></svg>