<svg xmlns="http://www.w3.org/2000/svg" width="32" height="32" viewBox="0 0 32 32"><path fill="currentColor" fill-rule="evenodd" d="M9 4a1 1 0 011 1v3h9.5c.873 0 1.688.249 2.378.679l3.386-3.386a1 1 0 111.414 1.414l-3.38 3.38c.445.697.702 1.525.702 2.413V22h3a1 1 0 110 2h-3v3a1 1 0 11-2 0v-3h-9.5A4.5 4.5 0 018 19.5V10H5a1 1 0 010-2h3V5a1 1 0 011-1m11.392 6.164A2.5 2.5 0 0019.5 10H10v9.5c0 .321.06.629.171.91a1 1 0 01.122-.146zM11.543 21.81q.087-.055.164-.132L21.82 11.565c.117.29.181.605.181.935V22h-9.5a2.5 2.5 0 01-.957-.19" clip-rule="evenodd"/></svg>