<svg xmlns="http://www.w3.org/2000/svg" width="16" height="16" viewBox="0 0 16 16"><path fill="currentColor" d="M2.33 13.722a.6.6 0 001.2 0v-.412c.489.467 1.112.835 1.735 1.1 1.168.496 2.554.73 3.629.542 1.945-.34 3.234-1.089 3.74-1.594a.6.6 0 00-.848-.85c-.285.285-1.322.952-3.098 1.263-.787.137-1.935-.032-2.955-.465-.719-.306-1.274-.698-1.604-1.114l.904.172a.6.6 0 00.226-1.179l-2.216-.422-.713-.137zm5.684-8.5a2.79 2.79 0 00-2.792 2.793l.013.285a2.792 2.792 0 005.556 0l.015-.285a2.793 2.793 0 00-2.792-2.792m0 1.2a1.592 1.592 0 11-.001 3.185 1.592 1.592 0 010-3.184m2.735-4.804C9.58 1.124 8.194.89 7.119 1.078c-1.945.34-3.234 1.089-3.74 1.594a.6.6 0 00.848.85c.284-.285 1.321-.952 3.098-1.262.787-.137 1.935.032 2.954.465.72.305 1.275.698 1.605 1.113l-.905-.172a.6.6 0 00-.225 1.179l2.216.423.713.136V2.307a.6.6 0 00-1.2 0v.412c-.49-.468-1.112-.836-1.735-1.1"/></svg>