<svg xmlns="http://www.w3.org/2000/svg" width="12" height="12" viewBox="0 0 12 12"><path fill="currentColor" d="M1.736 10.291a.45.45 0 00.9 0v-.309c.367.351.834.626 1.301.825.877.372 1.916.547 2.722.407 1.459-.255 2.425-.817 2.805-1.195a.45.45 0 00-.635-.637c-.214.213-.992.713-2.324.945-.59.103-1.451-.024-2.216-.348-.538-.229-.95-.524-1.198-.834l.673.128a.45.45 0 00.169-.884L2.27 8.07l-.535-.101zM6 3.916A2.095 2.095 0 003.904 6.01l.011.214a2.095 2.095 0 102.084-2.308m0 .9a1.194 1.194 0 110 2.388 1.194 1.194 0 010-2.388m2.052-3.602C7.174.842 6.135.666 5.329.807c-1.459.254-2.425.816-2.805 1.195a.45.45 0 00.635.637c.214-.213.992-.713 2.324-.946.59-.103 1.452.024 2.216.349.538.228.95.524 1.198.834l-.672-.129a.45.45 0 00-.17.885l1.662.317.535.102V1.729a.45.45 0 00-.9 0v.31c-.367-.352-.834-.627-1.301-.825"/></svg>