<svg xmlns="http://www.w3.org/2000/svg" width="16" height="16" viewBox="0 0 16 16"><path fill="currentColor" d="M2.316 13.722a.6.6 0 001.2 0v-.412c.49.467 1.112.835 1.735 1.1 1.168.496 2.554.73 3.629.542 1.945-.34 3.234-1.089 3.74-1.594a.6.6 0 00-.847-.85c-.285.285-1.322.952-3.1 1.263-.786.137-1.934-.032-2.953-.465C5 13 4.445 12.608 4.115 12.192l.905.172a.6.6 0 00.225-1.179l-2.216-.422-.713-.137zM8 5.222a2.79 2.79 0 00-2.792 2.793l.014.285a2.792 2.792 0 005.555 0l.015-.285A2.793 2.793 0 008 5.223m0 1.2a1.592 1.592 0 11-.001 3.185A1.592 1.592 0 018 6.423m2.735-4.803c-1.168-.496-2.554-.73-3.629-.542-1.945.34-3.234 1.089-3.74 1.594a.6.6 0 00.848.85c.285-.285 1.321-.952 3.098-1.262.787-.137 1.935.032 2.955.465.719.305 1.274.698 1.604 1.113l-.904-.172a.6.6 0 00-.226 1.179l2.216.423.713.136V2.308a.6.6 0 00-1.2 0v.412c-.489-.468-1.112-.836-1.735-1.1"/></svg>