<svg xmlns="http://www.w3.org/2000/svg" width="20" height="20" viewBox="0 0 20 20"><path fill="currentColor" fill-rule="evenodd" d="M5.5 17.5h9a1 1 0 001-1V8.493h-5.493V2.5H5.5a1 1 0 00-1 1v13a1 1 0 001 1m6.007-14.285 3.82 3.778h-3.82zM14.5 19h-9A2.5 2.5 0 013 16.5v-13A2.5 2.5 0 015.5 1h5.078a2 2 0 011.406.578l4.422 4.373A2 2 0 0117 7.373V16.5a2.5 2.5 0 01-2.5 2.5M7 14a.75.75 0 000 1.5h6a.75.75 0 000-1.5zm-.75-2.75A.75.75 0 017 10.5h6a.75.75 0 010 1.5H7a.75.75 0 01-.75-.75M7 7a.75.75 0 000 1.5h1A.75.75 0 008 7z" clip-rule="evenodd"/></svg>