<svg xmlns="http://www.w3.org/2000/svg" width="16" height="16" viewBox="0 0 16 16"><path fill="currentColor" fill-rule="evenodd" d="M12 14a1 1 0 001-1V7H8V2H4a1 1 0 00-1 1v10a1 1 0 001 1zM9 6h3.98a1 1 0 00-.312-.544l-3.566-3.2.668-.744 3.566 3.2A2 2 0 0114 6.2V13a2 2 0 01-2 2H4a2 2 0 01-2-2V3a2 2 0 012-2h4.434a2 2 0 011.336.512l-.668.744A1 1 0 009 2.176zM5.5 7a.5.5 0 000 1h1a.5.5 0 000-1zM5 9.5a.5.5 0 01.5-.5h5a.5.5 0 010 1h-5a.5.5 0 01-.5-.5m.5 1.5a.5.5 0 000 1h5a.5.5 0 000-1z" clip-rule="evenodd"/></svg>