<?xml version="1.0" encoding="UTF-8"?>
<!-- Generated by Pixelmator Pro 3.7 -->
<svg width="625" height="150" viewBox="0 0 625 150" xmlns="http://www.w3.org/2000/svg">
    <g id="Group">
        <path id="Path" fill="#ffffff" stroke="none" visibility="hidden" d="M 463.749084 131.803513 L 458.277283 128.644348 C 457.786896 128.361237 457.484192 127.838593 457.482635 127.272354 L 457.482635 120.954018 C 457.481689 119.638565 456.779541 118.423386 455.64032 117.765656 L 450.168549 114.606491 C 449.679382 114.320999 449.378204 113.797623 449.377136 113.231247 L 449.377136 106.912918 C 449.376495 105.59568 448.674591 104.378418 447.534821 103.718063 L 440.220734 99.501526 L 432.906647 103.718063 C 431.769379 104.380066 431.070099 105.597015 431.070831 106.912918 L 431.070831 113.231247 C 431.069763 113.797623 430.768585 114.320999 430.279419 114.606491 L 424.801147 117.765656 C 423.664154 118.425186 422.963684 119.639587 422.962067 120.954018 L 422.962067 127.272354 C 422.961853 127.838104 422.660278 128.360901 422.170654 128.644348 L 416.695648 131.803513 C 415.557861 132.464264 414.856445 133.679398 414.853333 134.995117 L 414.853333 143.428223 L 422.167419 147.64476 C 423.306274 148.303055 424.709961 148.303055 425.848785 147.64476 L 431.320587 144.485596 C 431.811676 144.203598 432.415558 144.203598 432.906647 144.485596 L 438.378418 147.64476 C 439.518616 148.302292 440.922821 148.302292 442.063049 147.64476 L 447.534821 144.485596 C 448.025909 144.203598 448.629791 144.203598 449.12088 144.485596 L 454.592682 147.64476 C 455.731506 148.303055 457.135193 148.303055 458.274048 147.64476 L 465.588135 143.428223 L 465.588135 134.995117 C 465.586365 133.679886 464.886078 132.4646 463.749084 131.803513 Z M 447.28833 106.912918 L 447.28833 113.231247 C 447.29126 114.546165 447.992859 115.760422 449.130615 116.419609 L 454.602417 119.578773 C 455.093292 119.862961 455.395996 120.386795 455.397064 120.954018 L 455.397064 127.272354 C 455.398651 128.586777 456.099121 129.801193 457.236115 130.460709 L 462.707916 133.619873 C 463.19928 133.90358 463.502167 134.427719 463.502563 134.995117 L 463.502563 141.018295 L 441.268372 128.187027 L 441.268372 102.52771 L 446.487183 105.540909 C 446.98053 105.821884 447.286072 106.345154 447.28833 106.912918 Z M 417.743286 133.619873 L 423.215057 130.460709 C 424.352814 129.801529 425.054443 128.587265 425.057373 127.272354 L 425.057373 120.954018 C 425.057129 120.387283 425.358673 119.863297 425.848785 119.578773 L 431.320587 116.419609 C 432.458313 115.760422 433.159943 114.546165 433.162872 113.231247 L 433.162872 106.912918 C 433.164429 106.347519 433.465637 105.825333 433.954285 105.540909 L 439.179565 102.52771 L 439.179565 128.187027 L 416.951874 141.018295 L 416.951874 134.995117 C 416.951599 134.428391 417.253143 133.904404 417.743286 133.619873 Z M 457.226379 145.84787 C 456.735321 146.129868 456.131409 146.129868 455.64032 145.84787 L 450.168549 142.688705 C 449.029694 142.030411 447.626007 142.030411 446.487183 142.688705 L 441.015381 145.84787 C 440.524292 146.129868 439.92041 146.129868 439.429321 145.84787 L 433.95755 142.688705 C 432.817505 142.030502 431.412933 142.030502 430.272919 142.688705 L 424.801147 145.84787 C 424.310059 146.129868 423.706146 146.129868 423.215057 145.84787 L 417.999512 142.834656 L 440.220734 129.990402 L 462.441925 142.821686 Z"/>
        <path id="path1" fill="#ffffff" stroke="none" d="M 479 138.913269 L 484.436096 138.913269 L 484.436096 126.925301 L 495.969971 126.925301 L 495.969971 121.978966 L 484.436096 121.978966 L 484.436096 115.015175 L 496.793823 115.015175 L 496.793823 110.072083 L 479 110.072083 L 479 138.913269 Z"/>
        <path id="path2" fill="#ffffff" stroke="none" d="M 551.621948 119.238205 C 550.361755 118.498314 548.92157 118.121155 547.46051 118.148392 C 544.327271 118.148392 542.225525 119.273888 541.155151 121.524872 L 540.743225 121.524872 L 540.743225 118.475983 L 535.634705 118.475983 L 535.634705 138.910019 L 540.824341 138.910019 L 540.824341 128.368652 C 540.824341 126.474449 541.264343 124.998657 542.144409 123.941284 C 543.024475 122.883896 544.260254 122.354126 545.851746 122.351967 C 547.27887 122.351967 548.360046 122.736862 549.095215 123.506653 C 549.830444 124.276443 550.201294 125.430046 550.207764 126.967468 L 550.207764 138.916504 L 555.397339 138.916504 L 555.397339 126.717712 C 555.42865 125.176544 555.089355 123.650398 554.408081 122.267639 C 553.785217 121.014214 552.81897 119.9636 551.621948 119.238205 Z"/>
        <path id="path3" fill="#ffffff" stroke="none" d="M 566.827454 112.131699 L 561.637817 112.131699 L 561.637817 118.475983 L 556.526123 118.475983 L 556.526123 122.692535 L 561.637817 122.692535 L 561.637817 134.310745 C 561.637817 135.711945 562.049744 136.832031 562.873596 137.671005 C 563.749817 138.529388 564.943787 138.984192 566.169006 138.926239 L 571.935974 138.926239 L 571.935974 134.709702 L 567.982117 134.709702 C 567.212341 134.709702 566.827454 134.297775 566.827454 133.473923 L 566.827454 122.679558 L 572.43219 122.679558 L 572.43219 118.463013 L 566.827454 118.463013 Z"/>
        <path id="path4" fill="#ffffff" stroke="none" d="M 578.254272 109.001724 C 577.286316 108.972488 576.346191 109.328232 575.640015 109.990997 C 574.238831 111.217033 574.238831 113.883194 575.640015 115.099503 C 576.960144 116.419609 579.551697 116.419609 580.871826 115.099503 C 582.27301 113.870224 582.27301 111.207306 580.871826 109.990997 C 580.164673 109.327744 579.223328 108.971985 578.254272 109.001724 Z"/>
        <path id="path5" fill="#ffffff" stroke="none" d="M 575.659485 118.475983 L 580.852356 118.475983 L 580.852356 138.913269 L 575.659485 138.913269 Z"/>
        <path id="path6" fill="#ffffff" stroke="none" d="M 503.835449 121.362701 L 504.247375 121.362701 C 505.032318 119.176582 506.761108 118.394897 509.355896 118.394897 L 511.509583 118.394897 L 511.509583 122.763893 L 508.460693 122.763893 C 505.82373 122.763893 503.9198 124.161835 503.9198 127.048553 L 503.9198 138.913269 L 498.730194 138.913269 L 498.730194 118.479225 L 503.838715 118.479225 Z"/>
        <path id="path7" fill="#ffffff" stroke="none" d="M 614.328491 118.475983 L 608.937805 133.233902 L 608.525879 133.233902 L 603.128662 118.475983 L 593.969055 118.475983 L 593.969055 114.908142 C 593.969055 114.08429 594.352844 113.672363 595.120483 113.672363 L 598.665649 113.672363 L 598.665649 109.455818 L 593.310608 109.455818 C 591.935364 109.455818 590.835815 109.874229 590.011963 110.711044 C 589.18811 111.547874 588.776184 112.676613 588.776184 114.09726 L 588.776184 118.475983 L 583.586609 118.475983 L 583.586609 122.692535 L 588.776184 122.692535 L 588.776184 138.926239 L 593.965759 138.926239 L 593.965759 122.679558 L 599.155396 122.679558 L 606.008911 140.220398 L 605.116943 142.361115 C 604.967773 142.717896 604.659607 142.951431 604.07251 142.951431 L 599.531616 142.951431 L 599.531616 147.167969 L 605.571045 147.167969 C 607.692261 147.167969 609.138855 146.117081 609.755127 144.524521 L 619.939697 118.475983 Z"/>
        <path id="path8" fill="#ffffff" stroke="none" d="M 522.706116 139.490616 C 528.9953 139.490616 533.409668 135.102158 533.409668 128.696243 C 533.409668 122.290344 529.06012 117.901886 522.706116 117.901886 C 516.352112 117.901886 512.002563 122.319534 512.002563 128.696243 C 512.002563 135.072968 516.413757 139.490616 522.706116 139.490616 Z M 517.182434 128.693008 C 517.182434 124.541328 519.653992 122.42981 522.696411 122.42981 C 525.738831 122.42981 528.210327 124.541328 528.210327 128.693008 C 528.210327 132.844681 525.738831 134.956207 522.696411 134.956207 C 519.653992 134.956207 517.182434 132.847931 517.182434 128.693008 Z"/>
    </g>
    <text id="Fondue" xml:space="preserve" x="3" y="89" font-family="ABC Diatype Variable" font-size="116" font-weight="700" fill="#ffffff" letter-spacing="4.64">Fondue</text>
    <text id="by" xml:space="preserve"><tspan x="436" y="140" font-family="ABC Diatype Variable" font-size="28" fill="#ffffff" letter-spacing="2.8" xml:space="preserve">b</tspan><tspan font-family="ABC Diatype Variable" font-size="28" fill="#ffffff" letter-spacing="2.8" xml:space="preserve">y</tspan></text>
    <text id="Design-System" xml:space="preserve" x="9" y="141" font-family="ABC Diatype Variable" font-size="40" fill="#ffffff" letter-spacing="7.6">DESIGN SYSTEM</text>
</svg>
