<svg xmlns="http://www.w3.org/2000/svg" width="12" height="12" viewBox="0 0 12 12"><g fill="none"><g clip-path="url(#svgID0)"><path fill="currentColor" fill-rule="evenodd" d="M2.5 1H4V0H2.5A2.5 2.5 0 000 2.5V4h1V2.5A1.5 1.5 0 012.5 1M7 2.5v-.024 2.042zM2.48 7h2.04zM10 10h.5A1.5 1.5 0 0012 8.5v-7A1.5 1.5 0 0010.5 0h-4A1.5 1.5 0 005 1.5V5H1.5A1.5 1.5 0 000 6.5v4A1.5 1.5 0 001.5 12h7a1.5 1.5 0 001.5-1.5zM6 1.5V5h2.5A1.5 1.5 0 0110 6.5V9h.5a.5.5 0 00.5-.5v-7a.5.5 0 00-.5-.5h-4a.5.5 0 00-.5.5M8.5 6h-7a.5.5 0 00-.5.5v4a.5.5 0 00.5.5h7a.5.5 0 00.5-.5v-4a.5.5 0 00-.5-.5" clip-rule="evenodd"/></g><defs><clipPath id="svgID0"><path fill="#fff" d="M12 0H0v12h12z"/></clipPath></defs></g></svg>