<svg xmlns="http://www.w3.org/2000/svg" width="24" height="24" viewBox="0 0 24 24"><path fill="currentColor" fill-rule="evenodd" d="M18 13v3.5h1a1.5 1.5 0 001.5-1.5V5A1.5 1.5 0 0019 3.5h-6A1.5 1.5 0 0011.5 5v5H15a3 3 0 013 3m1 5h-1v1a3 3 0 01-3 3H5a3 3 0 01-3-3v-6a3 3 0 013-3h5V5a3 3 0 013-3h6a3 3 0 013 3v10a3 3 0 01-3 3M3.5 19v-6A1.5 1.5 0 015 11.5h10a1.5 1.5 0 011.5 1.5v6a1.5 1.5 0 01-1.5 1.5H5A1.5 1.5 0 013.5 19M5.75 2H8.5v1.5H5.75A2.25 2.25 0 003.5 5.75V8.5H2V5.75A3.75 3.75 0 015.75 2" clip-rule="evenodd"/></svg>