<svg xmlns="http://www.w3.org/2000/svg" width="20" height="20" viewBox="0 0 20 20"><path fill="currentColor" fill-rule="evenodd" d="M15 10.5v3h1.5a1 1 0 001-1v-9a1 1 0 00-1-1h-6a1 1 0 00-1 1V8h3a2.5 2.5 0 012.5 2.5m1.5 4.5H15v1.5a2.5 2.5 0 01-2.5 2.5h-9A2.5 2.5 0 011 16.5v-6A2.5 2.5 0 013.5 8H8V3.5A2.5 2.5 0 0110.5 1h6A2.5 2.5 0 0119 3.5v9a2.5 2.5 0 01-2.5 2.5m-14-4.5a1 1 0 011-1h9a1 1 0 011 1v6a1 1 0 01-1 1h-9a1 1 0 01-1-1zM4.421 1H6.5v1.5H4.421C3.404 2.5 2.5 3.284 2.5 4.25V6.5H1V4.25C1 2.455 2.532 1 4.421 1" clip-rule="evenodd"/></svg>