<svg xmlns="http://www.w3.org/2000/svg" width="12" height="12" viewBox="0 0 12 12"><path fill="currentColor" fill-rule="evenodd" d="M1.667 6.033a.333.333 0 11-.667 0 .333.333 0 01.667 0m1 0a1.333 1.333 0 11-2.667 0 1.333 1.333 0 012.667 0m1.777.334a.333.333 0 100-.667.333.333 0 000 .667m0 1a1.333 1.333 0 100-2.667 1.333 1.333 0 000 2.667M7.89 6.033a.333.333 0 11-.667 0 .333.333 0 01.667 0m1 0a1.333 1.333 0 11-2.667 0 1.333 1.333 0 012.667 0m2.111 0a.333.333 0 11-.667 0 .333.333 0 01.667 0m1 0a1.333 1.333 0 11-2.667 0 1.333 1.333 0 012.667 0" clip-rule="evenodd"/></svg>