<svg xmlns="http://www.w3.org/2000/svg" width="16" height="16" viewBox="0 0 16 16"><path fill="currentColor" fill-rule="evenodd" d="M8 3H3a1 1 0 00-.347.062L5.5 7.128l2.847-4.066A1 1 0 008 3m.993.882L6.11 8l2.883 4.118Q9 12.06 9 12V4q0-.06-.007-.118M4.89 8 2.007 3.882A1 1 0 002 4v8q0 .06.007.118zm-2.237 4.938L5.5 8.872l2.847 4.066A1 1 0 018 13H3a1 1 0 01-.347-.062M3 2a2 2 0 00-2 2v8a2 2 0 002 2h5a2 2 0 002-2V4a2 2 0 00-2-2zm9 2a.5.5 0 000 1h2.5a.5.5 0 000-1zm-.5 3.5A.5.5 0 0112 7h1.5a.5.5 0 010 1H12a.5.5 0 01-.5-.5" clip-rule="evenodd"/></svg>