<svg xmlns="http://www.w3.org/2000/svg" width="12" height="12" viewBox="0 0 12 12"><g fill="none"><g clip-path="url(#svgID0)"><path fill="currentColor" fill-rule="evenodd" d="M11 6A5 5 0 111 6a5 5 0 0110 0m1 0A6 6 0 110 6a6 6 0 0112 0m-8.25-.5a.75.75 0 100-1.5.75.75 0 000 1.5M9 4.75a.75.75 0 11-1.5 0 .75.75 0 011.5 0M3.319 9.366a.5.5 0 00.645-.28l.001-.003.012-.026q.019-.04.066-.118c.064-.103.167-.245.32-.388.296-.278.802-.58 1.637-.58s1.34.302 1.638.58a1.9 1.9 0 01.385.506l.012.026v.002a.5.5 0 00.931-.366L8.5 8.9l.466-.182v-.002l-.002-.003-.003-.007-.01-.021-.029-.065a2.9 2.9 0 00-.601-.8C7.854 7.385 7.109 6.972 6 6.972s-1.854.413-2.32.85a2.9 2.9 0 00-.602.799l-.03.065-.009.02-.003.008-.001.003v.002L3.5 8.9l-.466-.181a.5.5 0 00.285.647m4.716-.283" clip-rule="evenodd"/></g><defs><clipPath id="svgID0"><path fill="#fff" d="M0 0h12v12H0z"/></clipPath></defs></g></svg>