<svg xmlns="http://www.w3.org/2000/svg" width="16" height="16" viewBox="0 0 16 16"><path fill="currentColor" fill-rule="evenodd" d="M8 15A7 7 0 108 1a7 7 0 000 14M5.725 7.3a.875.875 0 100-1.75.875.875 0 000 1.75m5.425-.875a.875.875 0 11-1.75 0 .875.875 0 011.75 0M4.82 12.18a.5.5 0 00.646-.28l.002-.006.016-.035q.024-.051.083-.15c.08-.13.21-.308.4-.487C6.34 10.873 6.97 10.5 8 10.5s1.66.373 2.034.722a2.4 2.4 0 01.483.637l.016.035.002.005a.5.5 0 00.931-.366l-.466.181.466-.181v-.001l-.001-.001-.001-.004-.004-.008-.01-.023-.034-.074a3 3 0 00-.13-.238 3.4 3.4 0 00-.57-.692C10.174 9.984 9.305 9.5 8 9.5s-2.173.484-2.716.992c-.268.25-.451.501-.57.692a3 3 0 00-.165.312l-.01.023-.003.008-.001.004v.002l.465.181-.466-.18a.5.5 0 00.285.646" clip-rule="evenodd"/></svg>