<svg xmlns="http://www.w3.org/2000/svg" width="32" height="32" viewBox="0 0 32 32"><path fill="currentColor" fill-rule="evenodd" d="m21.864 7.01 4.325 4.325-8.991 10.608L11.256 16zM10.197 17.77 8.93 21.141l3.127 3.128 3.372-1.267zM20.57 5.484a2 2 0 012.707.112l4.325 4.325a2 2 0 01.111 2.707l-9.48 11.187a2 2 0 01-.823.579l-5.254 1.973a1 1 0 01-.861-.076l-1.332 1.225a2 2 0 01-1.354.528H7.214c-2.249 0-3.354-2.737-1.736-4.299L7.12 22.16l-.06-.06a1 1 0 01-.229-1.059l1.974-5.253a2 2 0 01.579-.823zM8.535 23.574l1.322 1.323-1.247 1.147H7.214a.5.5 0 01-.347-.86zM20 26a1 1 0 000 2h6a1 1 0 100-2z" clip-rule="evenodd"/></svg>