<svg xmlns="http://www.w3.org/2000/svg" width="24" height="24" viewBox="0 0 24 24"><path fill="currentColor" fill-rule="evenodd" d="M3.5 12a8.5 8.5 0 1117 0 8.5 8.5 0 01-17 0M2 12C2 6.477 6.477 2 12 2s10 4.477 10 10-4.477 10-10 10S2 17.523 2 12m14.42.13a.75.75 0 010 1.06l-.53-.53-.531-.53a.75.75 0 011.06 0m-.53.53.53.53h-.001l-.002.002-.005.006-.023.023-.088.088-.323.323-1.06 1.059-2.388 2.388-.53.53-.53-.53-3.89-3.889a.75.75 0 011.061-1.06l2.6 2.6V7.525a.75.75 0 111.5 0v7.222l1.117-1.117 1.06-1.06.322-.322.088-.088.023-.023.006-.005.001-.002z" clip-rule="evenodd"/></svg>