<svg xmlns="http://www.w3.org/2000/svg" width="12" height="12" viewBox="0 0 12 12"><g fill="none"><g clip-path="url(#svgID0)"><path fill="currentColor" fill-rule="evenodd" d="M6 1a5 5 0 100 10A5 5 0 006 1m0-1a6 6 0 100 12A6 6 0 006 0m-.5 7.268L3.879 5.646a.5.5 0 10-.707.708l2.474 2.474.354.354.354-.354 1.52-1.52.674-.674.205-.205.056-.056.014-.014.004-.004.001-.001L8.475 6l.353.354a.5.5 0 10-.707-.708L8.475 6l-.354-.354v.002l-.005.003-.014.015-.056.056-.205.205-.675.674-.666.667v-3.84a.5.5 0 00-1 0z" clip-rule="evenodd"/></g><defs><clipPath id="svgID0"><path fill="#fff" d="M0 0h12v12H0z"/></clipPath></defs></g></svg>