<?xml version="1.0" encoding="UTF-8"?>
<!-- Generated by Pixelmator Pro 3.7 -->
<svg width="625" height="150" viewBox="0 0 625 150" xmlns="http://www.w3.org/2000/svg">
    <g id="Group">
        <path id="Path" fill="#ffffff" stroke="none" visibility="hidden" d="M 468.749084 135.803513 L 463.277283 132.644348 C 462.786896 132.361237 462.484192 131.838593 462.482635 131.272354 L 462.482635 124.954018 C 462.481689 123.638565 461.779541 122.423386 460.64032 121.765656 L 455.168549 118.606491 C 454.679382 118.320999 454.378204 117.797623 454.377136 117.231247 L 454.377136 110.912918 C 454.376495 109.59568 453.674591 108.378418 452.534821 107.718063 L 445.220734 103.501526 L 437.906647 107.718063 C 436.769379 108.380066 436.070099 109.597015 436.070831 110.912918 L 436.070831 117.231247 C 436.069763 117.797623 435.768585 118.320999 435.279419 118.606491 L 429.801147 121.765656 C 428.664154 122.425186 427.963684 123.639587 427.962067 124.954018 L 427.962067 131.272354 C 427.961853 131.838104 427.660278 132.360901 427.170654 132.644348 L 421.695648 135.803513 C 420.557861 136.464264 419.856445 137.679398 419.853333 138.995117 L 419.853333 147.428223 L 427.167419 151.64476 C 428.306274 152.303055 429.709961 152.303055 430.848785 151.64476 L 436.320587 148.485596 C 436.811676 148.203598 437.415558 148.203598 437.906647 148.485596 L 443.378418 151.64476 C 444.518616 152.302292 445.922821 152.302292 447.063049 151.64476 L 452.534821 148.485596 C 453.025909 148.203598 453.629791 148.203598 454.12088 148.485596 L 459.592682 151.64476 C 460.731506 152.303055 462.135193 152.303055 463.274048 151.64476 L 470.588135 147.428223 L 470.588135 138.995117 C 470.586365 137.679886 469.886078 136.4646 468.749084 135.803513 Z M 452.28833 110.912918 L 452.28833 117.231247 C 452.29126 118.546165 452.992859 119.760422 454.130615 120.419609 L 459.602417 123.578773 C 460.093292 123.862961 460.395996 124.386795 460.397064 124.954018 L 460.397064 131.272354 C 460.398651 132.586777 461.099121 133.801193 462.236115 134.460709 L 467.707916 137.619873 C 468.19928 137.90358 468.502167 138.427719 468.502563 138.995117 L 468.502563 145.018295 L 446.268372 132.187027 L 446.268372 106.52771 L 451.487183 109.540909 C 451.98053 109.821884 452.286072 110.345154 452.28833 110.912918 Z M 422.743286 137.619873 L 428.215057 134.460709 C 429.352814 133.801529 430.054443 132.587265 430.057373 131.272354 L 430.057373 124.954018 C 430.057129 124.387283 430.358673 123.863297 430.848785 123.578773 L 436.320587 120.419609 C 437.458313 119.760422 438.159943 118.546165 438.162872 117.231247 L 438.162872 110.912918 C 438.164429 110.347519 438.465637 109.825333 438.954285 109.540909 L 444.179565 106.52771 L 444.179565 132.187027 L 421.951874 145.018295 L 421.951874 138.995117 C 421.951599 138.428391 422.253143 137.904404 422.743286 137.619873 Z M 462.226379 149.84787 C 461.735321 150.129868 461.131409 150.129868 460.64032 149.84787 L 455.168549 146.688705 C 454.029694 146.030411 452.626007 146.030411 451.487183 146.688705 L 446.015381 149.84787 C 445.524292 150.129868 444.92041 150.129868 444.429321 149.84787 L 438.95755 146.688705 C 437.817505 146.030502 436.412933 146.030502 435.272919 146.688705 L 429.801147 149.84787 C 429.310059 150.129868 428.706146 150.129868 428.215057 149.84787 L 422.999512 146.834656 L 445.220734 133.990402 L 467.441925 146.821686 Z"/>
        <path id="path1" fill="#ffffff" stroke="none" d="M 484 142.913269 L 489.436096 142.913269 L 489.436096 130.925293 L 500.969971 130.925293 L 500.969971 125.978966 L 489.436096 125.978966 L 489.436096 119.015175 L 501.793823 119.015175 L 501.793823 114.072083 L 484 114.072083 L 484 142.913269 Z"/>
        <path id="path2" fill="#ffffff" stroke="none" d="M 556.621948 123.238205 C 555.361755 122.498314 553.92157 122.121155 552.46051 122.148392 C 549.327271 122.148392 547.225525 123.273888 546.155151 125.524872 L 545.743225 125.524872 L 545.743225 122.475983 L 540.634705 122.475983 L 540.634705 142.910019 L 545.824341 142.910019 L 545.824341 132.368652 C 545.824341 130.474457 546.264343 128.998657 547.144409 127.941284 C 548.024475 126.883896 549.260254 126.354126 550.851746 126.351967 C 552.27887 126.351967 553.360046 126.736862 554.095215 127.506653 C 554.830444 128.276443 555.201294 129.430054 555.207764 130.967468 L 555.207764 142.916504 L 560.397339 142.916504 L 560.397339 130.717712 C 560.42865 129.176544 560.089355 127.650398 559.408081 126.267639 C 558.785217 125.014214 557.81897 123.9636 556.621948 123.238205 Z"/>
        <path id="path3" fill="#ffffff" stroke="none" d="M 571.827454 116.131699 L 566.637817 116.131699 L 566.637817 122.475983 L 561.526123 122.475983 L 561.526123 126.692535 L 566.637817 126.692535 L 566.637817 138.310745 C 566.637817 139.711945 567.049744 140.832031 567.873596 141.671005 C 568.749817 142.529388 569.943787 142.984192 571.169006 142.926239 L 576.935974 142.926239 L 576.935974 138.709702 L 572.982117 138.709702 C 572.212341 138.709702 571.827454 138.297775 571.827454 137.473923 L 571.827454 126.679558 L 577.43219 126.679558 L 577.43219 122.463013 L 571.827454 122.463013 Z"/>
        <path id="path4" fill="#ffffff" stroke="none" d="M 583.254272 113.001724 C 582.286316 112.972488 581.346191 113.328232 580.640015 113.990997 C 579.238831 115.217033 579.238831 117.883194 580.640015 119.099503 C 581.960144 120.419609 584.551697 120.419609 585.871826 119.099503 C 587.27301 117.870224 587.27301 115.207306 585.871826 113.990997 C 585.164673 113.327744 584.223328 112.971985 583.254272 113.001724 Z"/>
        <path id="path5" fill="#ffffff" stroke="none" d="M 580.659485 122.475983 L 585.852356 122.475983 L 585.852356 142.913269 L 580.659485 142.913269 Z"/>
        <path id="path6" fill="#ffffff" stroke="none" d="M 508.835449 125.362701 L 509.247375 125.362701 C 510.032318 123.176582 511.761108 122.394897 514.355896 122.394897 L 516.509583 122.394897 L 516.509583 126.763893 L 513.460693 126.763893 C 510.82373 126.763893 508.9198 128.161835 508.9198 131.048553 L 508.9198 142.913269 L 503.730194 142.913269 L 503.730194 122.479225 L 508.838715 122.479225 Z"/>
        <path id="path7" fill="#ffffff" stroke="none" d="M 619.328491 122.475983 L 613.937805 137.233902 L 613.525879 137.233902 L 608.128662 122.475983 L 598.969055 122.475983 L 598.969055 118.908142 C 598.969055 118.08429 599.352844 117.672363 600.120483 117.672363 L 603.665649 117.672363 L 603.665649 113.455818 L 598.310608 113.455818 C 596.935364 113.455818 595.835815 113.874229 595.011963 114.711044 C 594.18811 115.547874 593.776184 116.676613 593.776184 118.09726 L 593.776184 122.475983 L 588.586609 122.475983 L 588.586609 126.692535 L 593.776184 126.692535 L 593.776184 142.926239 L 598.965759 142.926239 L 598.965759 126.679558 L 604.155396 126.679558 L 611.008911 144.220398 L 610.116943 146.361115 C 609.967773 146.717896 609.659607 146.951431 609.07251 146.951431 L 604.531616 146.951431 L 604.531616 151.167969 L 610.571045 151.167969 C 612.692261 151.167969 614.138855 150.117081 614.755127 148.524521 L 624.939697 122.475983 Z"/>
        <path id="path8" fill="#ffffff" stroke="none" d="M 527.706116 143.490616 C 533.9953 143.490616 538.409668 139.102158 538.409668 132.696243 C 538.409668 126.290344 534.06012 121.901886 527.706116 121.901886 C 521.352112 121.901886 517.002563 126.319534 517.002563 132.696243 C 517.002563 139.072968 521.413757 143.490616 527.706116 143.490616 Z M 522.182434 132.693008 C 522.182434 128.541321 524.653992 126.42981 527.696411 126.42981 C 530.738831 126.42981 533.210327 128.541321 533.210327 132.693008 C 533.210327 136.844681 530.738831 138.956207 527.696411 138.956207 C 524.653992 138.956207 522.182434 136.847931 522.182434 132.693008 Z"/>
    </g>
    <path id="Fondue" fill="#ffffff" fill-rule="evenodd" stroke="none" d="M 393.014679 98.087997 C 387.369324 98.087997 382.36203 96.889343 377.992676 94.492004 C 373.623322 92.09465 370.220703 88.614685 367.784698 84.052002 C 365.348663 79.489311 364.130676 73.998703 364.130676 67.580002 C 364.130676 61.702637 365.348663 56.482689 367.784698 51.919998 C 370.220703 47.357307 373.604004 43.819344 377.934692 41.306 C 382.265381 38.792656 387.137329 37.536003 392.55069 37.536003 C 398.196045 37.536003 403.067993 38.792656 407.166687 41.306 C 411.265381 43.819344 414.397339 47.37664 416.562683 51.977997 C 418.728027 56.579353 419.810699 61.934639 419.810699 68.043999 L 419.810699 71.175995 L 378.630676 71.175995 C 378.630676 74.114685 379.249359 76.782654 380.486694 79.18 C 381.72403 81.577347 383.425354 83.471992 385.590698 84.863998 C 387.756042 86.256012 390.230682 86.951996 393.014679 86.951996 C 396.185364 86.951996 398.872681 86.120674 401.076691 84.458 C 403.280701 82.795326 404.614685 80.494682 405.078705 77.556 L 419.462677 77.556 C 419.076019 81.422684 417.742035 84.921982 415.460693 88.054001 C 413.179352 91.18602 410.105377 93.641327 406.238678 95.419998 C 402.372009 97.198677 397.96405 98.087997 393.014679 98.087997 Z M 405.310699 60.968002 C 405.156036 57.101311 403.918701 53.988678 401.598694 51.629997 C 399.278687 49.271324 396.22403 48.092003 392.434692 48.092003 C 388.645325 48.092003 385.474701 49.290657 382.922699 51.688004 C 380.370667 54.085342 378.901367 57.17865 378.514679 60.968002 L 405.310699 60.968002 Z M 317.499908 98.087997 C 313.63324 98.087997 310.172607 97.21801 307.11792 95.477997 C 304.063232 93.737991 301.646606 91.166687 299.86792 87.764 C 298.089233 84.361313 297.199921 80.22403 297.199921 75.352005 L 297.199921 39.391998 L 311.467926 39.391998 L 311.467926 73.147995 C 311.467926 77.246689 312.357239 80.533325 314.135925 83.007996 C 315.914612 85.482681 318.466583 86.720001 321.791931 86.720001 C 324.18927 86.720001 326.315918 86.15934 328.171936 85.037994 C 330.027924 83.916656 331.477905 82.312012 332.521912 80.223999 C 333.565918 78.135986 334.087921 75.738678 334.087921 73.031998 L 334.087921 39.391998 L 348.239929 39.391998 L 348.239929 96 L 334.203918 96 L 334.203918 93.68 C 334.203918 92.287994 334.319916 90.896011 334.55191 89.503998 L 334.783936 88.227997 C 333.159912 91.244019 330.975281 93.641327 328.229919 95.419998 C 325.484589 97.198677 321.907959 98.087997 317.499908 98.087997 Z M 247.08847 98.087997 C 242.061783 98.087997 237.595825 96.947342 233.690475 94.666 C 229.785126 92.384659 226.730484 88.982025 224.526474 84.458 C 222.322464 79.933975 221.220474 74.424034 221.220474 67.928001 C 221.220474 61.431969 222.438461 55.902687 224.874481 51.339996 C 227.310486 46.777313 230.519791 43.336014 234.502472 41.015999 C 238.485153 38.695992 242.757782 37.536003 247.32048 37.536003 C 251.419159 37.536003 254.918457 38.444656 257.818481 40.262001 C 260.718475 42.079346 263.0578 44.495987 264.836487 47.512001 C 264.52713 46.119995 264.372467 44.264015 264.372467 41.944 L 264.372467 14.800003 L 278.524475 14.800003 L 278.524475 96 L 264.372467 96 L 264.372467 93.68 C 264.372467 91.359985 264.52713 89.542679 264.836487 88.227997 C 263.444458 90.857346 261.298492 93.15799 258.398468 95.130005 C 255.498459 97.102005 251.7285 98.087997 247.08847 98.087997 Z M 250.452469 86.951996 C 253.236481 86.951996 255.749802 86.140007 257.992493 84.515999 C 260.235138 82.891991 261.994476 80.63002 263.270477 77.729996 C 264.546478 74.829987 265.184479 71.524017 265.184479 67.811996 C 265.184479 62.089302 263.811829 57.488014 261.066467 54.008003 C 258.321106 50.527985 254.783157 48.788002 250.452469 48.788002 C 247.668457 48.788002 245.135818 49.599991 242.854477 51.223999 C 240.573135 52.848007 238.794479 55.090652 237.518478 57.952003 C 236.242462 60.813347 235.604477 64.099983 235.604477 67.811996 C 235.604477 71.601349 236.242462 74.945984 237.518478 77.846001 C 238.794479 80.746017 240.573135 82.988663 242.854477 84.574005 C 245.135818 86.15934 247.668457 86.951996 250.452469 86.951996 Z M 154.753708 39.391998 L 168.905701 39.391998 L 168.905701 41.944 C 168.905701 43.722679 168.751038 45.578659 168.441711 47.512001 C 170.143051 44.418648 172.405029 41.982674 175.227707 40.204002 C 178.050385 38.425323 181.588348 37.536003 185.841705 37.536003 C 189.940399 37.536003 193.497696 38.463989 196.513702 40.32 C 199.529724 42.17601 201.830368 44.805313 203.41571 48.208 C 205.001053 51.610687 205.793701 55.631973 205.793701 60.272003 L 205.793701 96 L 191.641708 96 L 191.641708 62.360001 C 191.641708 58.183983 190.694382 54.878014 188.799713 52.442001 C 186.905029 50.005989 184.295059 48.788002 180.969711 48.788002 C 178.727036 48.788002 176.677719 49.406662 174.821701 50.643997 C 172.965698 51.88134 171.515717 53.563324 170.47171 55.690002 C 169.427704 57.816681 168.905701 60.194656 168.905701 62.823997 L 168.905701 96 L 154.753708 96 Z M 109.747444 98.087997 C 104.102089 98.087997 99.07547 96.87001 94.66745 94.433998 C 90.259422 91.997986 86.837463 88.518021 84.401451 83.994003 C 81.965439 79.469978 80.747444 74.1147 80.747444 67.928001 C 80.747444 61.818634 81.984772 56.482689 84.45945 51.919998 C 86.934128 47.357307 90.356094 43.819344 94.725449 41.306 C 99.094803 38.792656 104.102089 37.536003 109.747444 37.536003 C 115.392807 37.536003 120.419426 38.773323 124.827446 41.248001 C 129.235474 43.722679 132.676773 47.260643 135.151443 51.862 C 137.626129 56.463356 138.863449 61.818634 138.863449 67.928001 C 138.863449 74.1147 137.626129 79.469978 135.151443 83.994003 C 132.676773 88.518021 129.235474 91.997986 124.827446 94.433998 C 120.419426 96.87001 115.392807 98.087997 109.747444 98.087997 Z M 109.747444 86.951996 C 112.686127 86.951996 115.257439 86.198006 117.461449 84.690002 C 119.665459 83.181992 121.386108 80.997345 122.623451 78.136002 C 123.860786 75.274651 124.479446 71.872025 124.479446 67.928001 C 124.479446 61.895973 123.126129 57.198013 120.419449 53.834 C 117.712769 50.469986 114.155472 48.788002 109.747444 48.788002 C 106.886101 48.788002 104.353462 49.541992 102.149445 51.050003 C 99.945435 52.558006 98.224785 54.742653 96.98745 57.603996 C 95.750107 60.465347 95.131447 63.906647 95.131447 67.928001 C 95.131447 73.882698 96.446098 78.541985 99.075447 81.905998 C 101.704796 85.27002 105.262093 86.951996 109.747444 86.951996 Z M 13.932 14.800003 L 70.192001 14.800003 L 70.192001 27.676003 L 29.128 27.676003 L 29.128 49.019997 L 67.987999 49.019997 L 67.987999 61.896004 L 29.128 61.896004 L 29.128 96 L 13.932 96 Z"/>
    <path id="by" fill="#ffffff" fill-rule="evenodd" stroke="none" d="M 464.308014 148.244003 C 464.102661 148.244003 463.883331 148.234665 463.649994 148.216003 C 463.416656 148.197327 463.187988 148.160004 462.963989 148.104004 L 462.963989 145.891998 C 463.299988 146.003998 463.682678 146.059998 464.112 146.059998 C 464.690674 146.059998 465.180664 145.934006 465.582001 145.682007 C 465.983337 145.429993 466.314667 144.977341 466.575989 144.324005 L 467.612 141.524002 L 462.208008 128.503998 L 464.868011 128.503998 L 468.283997 137.156006 C 468.545349 137.865341 468.750671 138.388 468.899994 138.723999 C 469.08667 138.182663 469.273346 137.650665 469.459991 137.128006 L 472.428009 128.503998 L 474.947998 128.503998 L 468.731995 145.080002 C 468.433319 145.845337 468.069336 146.461334 467.640015 146.927994 C 467.210663 147.394669 466.720673 147.730667 466.170013 147.936005 C 465.619324 148.141327 464.998657 148.244003 464.308014 148.244003 Z M 451.876007 142.419998 C 450.942657 142.419998 450.084015 142.210007 449.299988 141.789993 C 448.515991 141.369995 447.909332 140.814667 447.480011 140.123993 C 447.480011 140.49733 447.480011 140.880005 447.480011 141.272003 L 447.480011 142 L 445.071991 142 L 445.071991 122.400002 L 447.480011 122.400002 L 447.480011 129.231995 C 447.480011 129.58667 447.480011 129.950668 447.480011 130.324005 C 447.946655 129.67067 448.567322 129.129333 449.34201 128.699997 C 450.116669 128.27066 450.97998 128.056 451.932007 128.056 C 453.201355 128.056 454.307343 128.363998 455.25 128.979996 C 456.192657 129.596008 456.911316 130.449997 457.406006 131.541992 C 457.900665 132.634003 458.14801 133.870667 458.14801 135.251999 C 458.14801 136.652008 457.891327 137.893326 457.377991 138.975998 C 456.864655 140.05867 456.132019 140.903336 455.179993 141.509995 C 454.227997 142.116669 453.126678 142.419998 451.876007 142.419998 Z M 451.484009 140.544006 C 452.305328 140.544006 453.028656 140.320007 453.653992 139.871994 C 454.279327 139.423996 454.764679 138.803345 455.109985 138.009995 C 455.455322 137.21666 455.627991 136.297333 455.627991 135.251999 C 455.627991 134.225327 455.455322 133.310669 455.109985 132.507996 C 454.764679 131.705322 454.279327 131.080002 453.653992 130.632004 C 453.028656 130.18399 452.305328 129.959991 451.484009 129.959991 C 450.681335 129.959991 449.962677 130.169998 449.328003 130.589996 C 448.693329 131.01001 448.203339 131.621338 447.858002 132.423996 C 447.512665 133.226669 447.339996 134.159988 447.339996 135.223999 C 447.339996 136.269333 447.517334 137.193329 447.872009 137.996002 C 448.226654 138.798676 448.716675 139.423996 449.34201 139.871994 C 449.967346 140.320007 450.681335 140.544006 451.484009 140.544006 Z"/>
    <path id="Design-System" fill="#ffffff" fill-rule="evenodd" stroke="none" d="M 389.679993 114 L 395.359985 114 L 403.76001 135.320007 C 404.160004 136.333344 404.559998 137.346664 404.959991 138.360001 C 405.040009 138.17334 405.106659 137.986664 405.160004 137.800003 C 405.373322 137.23999 405.533325 136.820007 405.640015 136.540009 C 405.746674 136.259995 405.906677 135.853333 406.119995 135.320007 L 414.440002 114 L 420.040009 114 L 420.040009 142 L 416.440002 142 L 416.440002 120.959999 C 416.440002 119.786659 416.440002 118.626671 416.440002 117.479996 L 406.920013 142 L 402.839996 142 L 393.279999 117.520004 C 393.279999 118.666672 393.279999 119.813324 393.279999 120.959999 L 393.279999 142 L 389.679993 142 Z M 357.399994 114 L 375.600006 114 L 375.600006 117.040001 L 361.040009 117.040001 L 361.040009 126.199997 L 374.959991 126.199997 L 374.959991 129.279999 L 361.040009 129.279999 L 361.040009 138.919998 L 376.079987 138.919998 L 376.079987 142 L 357.399994 142 Z M 331.920013 117.040001 L 322.23999 117.040001 L 322.23999 114 L 345.200012 114 L 345.200012 117.040001 L 335.559998 117.040001 L 335.559998 142 L 331.920013 142 Z M 302.040009 142.600006 C 299.799988 142.600006 297.82666 142.213333 296.119995 141.440002 C 294.41333 140.666656 293.093323 139.553345 292.160004 138.100006 C 291.226654 136.646667 290.746674 134.946671 290.720001 133 L 294.440002 133 C 294.519989 134.333344 294.886658 135.493332 295.540009 136.479996 C 296.193329 137.466675 297.079987 138.226669 298.200012 138.759995 C 299.320007 139.293335 300.613312 139.559998 302.079987 139.559998 C 304.34668 139.559998 306.100006 139.100006 307.339996 138.179993 C 308.580017 137.259995 309.200012 136.026672 309.200012 134.479996 C 309.200012 133.226654 308.726685 132.246674 307.779999 131.540009 C 306.833344 130.833328 305.453339 130.266663 303.640015 129.839996 L 299.480011 128.880005 C 297.159973 128.346664 295.279999 127.433342 293.839996 126.139999 C 292.399994 124.846664 291.679993 123.186676 291.679993 121.160004 C 291.679993 119.666656 292.119995 118.326675 293 117.139999 C 293.880005 115.953323 295.100006 115.026672 296.660004 114.360001 C 298.220001 113.693329 299.973328 113.360001 301.920013 113.360001 C 303.920013 113.360001 305.686646 113.706665 307.220001 114.400002 C 308.753326 115.093338 309.959991 116.079994 310.839996 117.360001 C 311.720001 118.640007 312.213318 120.133324 312.320007 121.839996 L 308.600006 121.839996 C 308.519989 120.746658 308.193329 119.793335 307.619995 118.979996 C 307.046661 118.166664 306.266663 117.540001 305.279999 117.099998 C 304.293335 116.659996 303.146667 116.440002 301.839996 116.440002 C 300.639984 116.440002 299.559998 116.626663 298.600006 117 C 297.639984 117.373337 296.886658 117.893326 296.339996 118.559998 C 295.793335 119.226669 295.519989 119.986664 295.519989 120.839996 C 295.519989 122.040009 295.919983 123.013329 296.720001 123.760002 C 297.519989 124.506668 298.746674 125.066666 300.399994 125.440002 L 305.359985 126.559998 C 307.733337 127.120003 309.606659 128.033325 310.980011 129.300003 C 312.353333 130.566681 313.040009 132.213318 313.040009 134.240005 C 313.040009 135.786682 312.593323 137.193329 311.700012 138.460007 C 310.806671 139.726669 309.533356 140.733337 307.880005 141.479996 C 306.226654 142.226669 304.279999 142.600006 302.040009 142.600006 Z M 268.320007 129.919998 L 258.679993 114 L 262.76001 114 L 268.200012 123.400002 C 268.839996 124.520004 269.480011 125.653328 270.119995 126.800003 C 270.466675 126.239998 271.146667 125.106674 272.160004 123.400002 L 277.720001 114 L 281.679993 114 L 271.959991 129.919998 L 271.959991 142 L 268.320007 142 Z M 238.440002 142.600006 C 236.199982 142.600006 234.226669 142.213333 232.520004 141.440002 C 230.813324 140.666656 229.493332 139.553345 228.559998 138.100006 C 227.626663 136.646667 227.146667 134.946671 227.119995 133 L 230.839996 133 C 230.919998 134.333344 231.286667 135.493332 231.940002 136.479996 C 232.593338 137.466675 233.479996 138.226669 234.600006 138.759995 C 235.720001 139.293335 237.013321 139.559998 238.479996 139.559998 C 240.746674 139.559998 242.5 139.100006 243.740005 138.179993 C 244.980011 137.259995 245.600006 136.026672 245.600006 134.479996 C 245.600006 133.226654 245.126678 132.246674 244.179993 131.540009 C 243.233322 130.833328 241.853348 130.266663 240.039993 129.839996 L 235.880005 128.880005 C 233.559982 128.346664 231.680008 127.433342 230.240005 126.139999 C 228.799988 124.846664 228.080002 123.186676 228.080002 121.160004 C 228.080002 119.666656 228.519989 118.326675 229.399994 117.139999 C 230.279999 115.953323 231.499985 115.026672 233.059998 114.360001 C 234.62001 113.693329 236.373322 113.360001 238.320007 113.360001 C 240.320007 113.360001 242.086655 113.706665 243.619995 114.400002 C 245.153336 115.093338 246.360001 116.079994 247.240005 117.360001 C 248.12001 118.640007 248.613327 120.133324 248.720001 121.839996 L 245 121.839996 C 244.919998 120.746658 244.593338 119.793335 244.020004 118.979996 C 243.446671 118.166664 242.666672 117.540001 241.679993 117.099998 C 240.693329 116.659996 239.546677 116.440002 238.240005 116.440002 C 237.039993 116.440002 235.960007 116.626663 235 117 C 234.039993 117.373337 233.286667 117.893326 232.740005 118.559998 C 232.193329 119.226669 231.919998 119.986664 231.919998 120.839996 C 231.919998 122.040009 232.319992 123.013329 233.119995 123.760002 C 233.919998 124.506668 235.146652 125.066666 236.800003 125.440002 L 241.759995 126.559998 C 244.133347 127.120003 246.006653 128.033325 247.380005 129.300003 C 248.753342 130.566681 249.440002 132.213318 249.440002 134.240005 C 249.440002 135.786682 248.993332 137.193329 248.100006 138.460007 C 247.206665 139.726669 245.933334 140.733337 244.279999 141.479996 C 242.626663 142.226669 240.680008 142.600006 238.440002 142.600006 Z M 173.240005 114 L 178.720001 114 L 192.919998 137.880005 C 192.919998 136.706665 192.919998 135.53334 192.919998 134.360001 L 192.919998 114 L 196.600006 114 L 196.600006 142 L 191.520004 142 L 176.880005 117.520004 C 176.880005 118.640007 176.880005 119.773331 176.880005 120.919998 L 176.880005 142 L 173.240005 142 Z M 146.919998 142.600006 C 144.253326 142.600006 141.913345 141.973343 139.899994 140.720001 C 137.886658 139.46666 136.339996 137.740005 135.26001 135.540009 C 134.179993 133.339996 133.639999 130.88002 133.639999 128.160004 C 133.639999 125.06665 134.253326 122.400009 135.480011 120.160004 C 136.706665 117.919991 138.353317 116.226669 140.419998 115.080002 C 142.486679 113.933327 144.759995 113.360001 147.240005 113.360001 C 149.266678 113.360001 151.113327 113.73333 152.779999 114.479996 C 154.446671 115.226669 155.793335 116.259995 156.820007 117.580002 C 157.846664 118.900009 158.46666 120.41333 158.679993 122.120003 L 154.800003 122.120003 C 154.506668 120.439987 153.666672 119.073334 152.279999 118.020004 C 150.893326 116.96666 149.213348 116.440002 147.240005 116.440002 C 145.346664 116.440002 143.666672 116.886658 142.199997 117.779999 C 140.733322 118.67334 139.580002 119.999992 138.740005 121.759995 C 137.899994 123.520004 137.479996 125.65332 137.479996 128.160004 C 137.479996 130.320007 137.87999 132.266663 138.679993 134 C 139.480011 135.733337 140.606659 137.093323 142.059998 138.080002 C 143.513336 139.066666 145.173325 139.559998 147.039993 139.559998 C 148.773346 139.559998 150.266663 139.233337 151.520004 138.580002 C 152.773346 137.926666 153.746658 136.960007 154.440002 135.679993 C 155.133331 134.399994 155.479996 132.826675 155.479996 130.959991 L 155.479996 128.839996 L 157.080002 130.440002 L 146.679993 130.440002 L 146.679993 127.360001 L 158.800003 127.360001 L 158.800003 142 L 155.800003 142 L 155.800003 140.759995 C 155.800003 140.173325 155.800003 139.733337 155.800003 139.440002 C 155.800003 139.146667 155.800003 138.706665 155.800003 138.119995 C 155.026657 139.426666 153.833344 140.5 152.220001 141.339996 C 150.606659 142.180008 148.840012 142.600006 146.919998 142.600006 Z M 116.440002 114 L 120.080002 114 L 120.080002 142 L 116.440002 142 Z M 116.440002 138.919998 L 120.080002 138.919998 L 120.080002 142 L 116.440002 142 Z M 116.440002 114 L 120.080002 114 L 120.080002 117.040001 L 116.440002 117.040001 Z M 92.160004 142.600006 C 89.919991 142.600006 87.946678 142.213333 86.239998 141.440002 C 84.533325 140.666656 83.213341 139.553345 82.279999 138.100006 C 81.346664 136.646667 80.866669 134.946671 80.839996 133 L 84.559998 133 C 84.639999 134.333344 85.00666 135.493332 85.660004 136.479996 C 86.313339 137.466675 87.199997 138.226669 88.32 138.759995 C 89.440002 139.293335 90.73333 139.559998 92.199997 139.559998 C 94.466675 139.559998 96.219994 139.100006 97.459999 138.179993 C 98.700005 137.259995 99.32 136.026672 99.32 134.479996 C 99.32 133.226654 98.846672 132.246674 97.900002 131.540009 C 96.953331 130.833328 95.573341 130.266663 93.760002 129.839996 L 89.599998 128.880005 C 87.279991 128.346664 85.400009 127.433342 83.959999 126.139999 C 82.519989 124.846664 81.800003 123.186676 81.800003 121.160004 C 81.800003 119.666656 82.239998 118.326675 83.120003 117.139999 C 84.000008 115.953323 85.219994 115.026672 86.779999 114.360001 C 88.340012 113.693329 90.093323 113.360001 92.040001 113.360001 C 94.040009 113.360001 95.806656 113.706665 97.339996 114.400002 C 98.873344 115.093338 100.079994 116.079994 100.959999 117.360001 C 101.840004 118.640007 102.333336 120.133324 102.440002 121.839996 L 98.720001 121.839996 C 98.639999 120.746658 98.313339 119.793335 97.739998 118.979996 C 97.166664 118.166664 96.386673 117.540001 95.400002 117.099998 C 94.41333 116.659996 93.26667 116.440002 91.959999 116.440002 C 90.759995 116.440002 89.680008 116.626663 88.720001 117 C 87.759995 117.373337 87.006668 117.893326 86.459999 118.559998 C 85.91333 119.226669 85.639999 119.986664 85.639999 120.839996 C 85.639999 122.040009 86.039993 123.013329 86.839996 123.760002 C 87.640007 124.506668 88.866661 125.066666 90.519997 125.440002 L 95.480003 126.559998 C 97.853348 127.120003 99.726662 128.033325 101.099998 129.300003 C 102.473343 130.566681 103.160004 132.213318 103.160004 134.240005 C 103.160004 135.786682 102.713341 137.193329 101.82 138.460007 C 100.926659 139.726669 99.653343 140.733337 98 141.479996 C 96.346657 142.226669 94.400009 142.600006 92.160004 142.600006 Z M 50.68 114 L 68.880005 114 L 68.880005 117.040001 L 54.32 117.040001 L 54.32 126.199997 L 68.240005 126.199997 L 68.240005 129.279999 L 54.32 129.279999 L 54.32 138.919998 L 69.360001 138.919998 L 69.360001 142 L 50.68 142 Z M 13.639999 114 L 22.040001 114 C 25.160015 114 27.833323 114.479996 30.059999 115.440002 C 32.286678 116.400009 34.013329 117.919991 35.239998 120 C 36.466675 122.080009 37.080002 124.733315 37.080002 127.959999 C 37.080002 130.813354 36.540005 133.29332 35.459999 135.399994 C 34.379997 137.506683 32.786674 139.133331 30.68 140.279999 C 28.573322 141.426666 25.986683 142 22.92 142 L 13.639999 142 Z M 22.48 138.919998 C 24.773346 138.919998 26.719992 138.546677 28.32 137.800003 C 29.920008 137.053329 31.146662 135.866669 32 134.240005 C 32.85334 132.613327 33.279999 130.52002 33.279999 127.959999 C 33.279999 124.38665 32.386673 121.67334 30.6 119.82 C 28.813324 117.96666 26.053352 117.040001 22.32 117.040001 L 17.279999 117.040001 L 17.279999 138.919998 L 22.48 138.919998 Z"/>
</svg>
