<svg xmlns="http://www.w3.org/2000/svg" width="20" height="20" viewBox="0 0 20 20"><path fill="currentColor" fill-rule="evenodd" d="M3.5 3.5H10a1 1 0 011 1v11a1 1 0 01-1 1H3.5a1 1 0 01-1-1v-11a1 1 0 011-1M1 4.5A2.5 2.5 0 013.5 2H10a2.5 2.5 0 012.5 2.5v11A2.5 2.5 0 0110 18H3.5A2.5 2.5 0 011 15.5zm14 1A.75.75 0 0015 7h3.238a.75.75 0 000-1.5zm-.75 4.25A.75.75 0 0115 9h2a.75.75 0 010 1.5h-2a.75.75 0 01-.75-.75m-4.578 1.055a1 1 0 000-1.61L5.593 6.19A1 1 0 004 6.995v6.01a1 1 0 001.593.805zM5.5 7.985 8.236 10 5.5 12.016z" clip-rule="evenodd"/></svg>