<svg xmlns="http://www.w3.org/2000/svg" width="32" height="32" viewBox="0 0 32 32"><path fill="currentColor" fill-rule="evenodd" d="M7 7h8a2 2 0 012 2v14a2 2 0 01-2 2H7a2 2 0 01-2-2V9a2 2 0 012-2M3 9a4 4 0 014-4h8a4 4 0 014 4v14a4 4 0 01-4 4H7a4 4 0 01-4-4zm19-1a1 1 0 100 2h6a1 1 0 100-2zm-1 5a1 1 0 011-1h4a1 1 0 110 2h-4a1 1 0 01-1-1M9.332 20.314l4.599-3.066a1.5 1.5 0 000-2.496l-4.599-3.066C8.335 11.022 7 11.736 7 12.934v6.132c0 1.198 1.335 1.912 2.332 1.248M9 13.868 12.197 16 9 18.131z" clip-rule="evenodd"/></svg>