<svg xmlns="http://www.w3.org/2000/svg" width="24" height="24" viewBox="0 0 24 24"><path fill="currentColor" fill-rule="evenodd" d="M5 4.5h6.5A1.5 1.5 0 0113 6v12a1.5 1.5 0 01-1.5 1.5H5A1.5 1.5 0 013.5 18V6A1.5 1.5 0 015 4.5M2 6a3 3 0 013-3h6.5a3 3 0 013 3v12a3 3 0 01-3 3H5a3 3 0 01-3-3zm15 .5A.75.75 0 0017 8h4.227a.75.75 0 000-1.5zm-.75 4.25A.75.75 0 0117 10h3a.75.75 0 010 1.5h-3a.75.75 0 01-.75-.75m-5.078 2.055a1 1 0 000-1.61L7.093 8.19a1 1 0 00-1.593.805v6.01a1 1 0 001.593.805zM7 9.985 9.736 12 7 14.016z" clip-rule="evenodd"/></svg>