<svg xmlns="http://www.w3.org/2000/svg" width="12" height="12" viewBox="0 0 12 12"><path fill="currentColor" fill-rule="evenodd" d="M1.5 2h4a.5.5 0 01.5.5v7a.5.5 0 01-.5.5h-4a.5.5 0 01-.5-.5v-7a.5.5 0 01.5-.5M0 2.5A1.5 1.5 0 011.5 1h4A1.5 1.5 0 017 2.5v7A1.5 1.5 0 015.5 11h-4A1.5 1.5 0 010 9.5zM9 3a.5.5 0 000 1h2.5a.5.5 0 000-1zm-.5 2.5A.5.5 0 019 5h1.5a.5.5 0 010 1H9a.5.5 0 01-.5-.5M2.975 8.26l2.24-1.791a.6.6 0 000-.938L2.975 3.74A.6.6 0 002 4.208v3.584a.6.6 0 00.975.468M3 5.04 4.2 6 3 6.96z" clip-rule="evenodd"/></svg>