<svg xmlns="http://www.w3.org/2000/svg" width="20" height="20" viewBox="0 0 20 20"><path fill="currentColor" fill-rule="evenodd" d="M14.893 8.5c-.817-2.677-3.493-4.17-6.22-3.44-2.791.748-4.37 3.484-3.622 6.276.748 2.793 3.484 4.373 6.274 3.625a5.4 5.4 0 002.059-1.05 4.4 4.4 0 00.588-.59l.021-.029.002-.003-.002.003h.001l.001-.002v-.001a.75.75 0 011.232.856l-.617-.426.617.427-.001.002-.002.002-.005.008-.015.02-.047.062a4 4 0 01-.169.203 6 6 0 01-.647.623 6.9 6.9 0 01-2.628 1.344c-3.59.962-7.149-1.093-8.111-4.685s1.09-7.151 4.682-8.114c2.856-.765 5.691.379 7.216 2.686V5A.75.75 0 1117 5v5h-5a.75.75 0 110-1.5z" clip-rule="evenodd"/></svg>