<svg xmlns="http://www.w3.org/2000/svg" width="32" height="32" viewBox="0 0 32 32"><path fill="currentColor" fill-rule="evenodd" d="M22.71 14c-1.094-3.695-4.771-5.766-8.521-4.761-3.813 1.021-5.972 4.76-4.95 8.573s4.76 5.971 8.573 4.95a7.3 7.3 0 002.806-1.433c.299-.25.516-.474.653-.63a4 4 0 00.178-.22 1 1 0 011.647 1.135l-.825-.565.825.566-.002.002-.003.004-.006.01-.02.027-.064.085q-.08.107-.228.276a8 8 0 01-.875.847 9.3 9.3 0 01-3.568 1.828C13.45 26 8.615 23.21 7.307 18.33s1.484-9.715 6.364-11.023c4.237-1.135 8.439.819 10.33 4.546V9.5a1 1 0 112 0V16h-6.5a1 1 0 110-2z" clip-rule="evenodd"/></svg>