<svg xmlns="http://www.w3.org/2000/svg" width="32" height="32" viewBox="0 0 32 32"><path fill="currentColor" fill-rule="evenodd" d="M16 10a1 1 0 100-2 1 1 0 000 2m3-1a3 3 0 01-2.013 2.834Q17 11.915 17 12v2h2a1 1 0 110 2h-2v6.885c2.579-.376 4.706-2.185 5.556-4.615a1 1 0 111.888.66c-1.12 3.201-3.98 5.583-7.444 5.971V25a1 1 0 11-2 0v-.099c-3.464-.388-6.324-2.77-7.444-5.97a1 1 0 011.888-.661c.85 2.43 2.978 4.239 5.556 4.615V16h-2a1 1 0 110-2h2v-2q0-.084.014-.166A3.001 3.001 0 1119 9" clip-rule="evenodd"/></svg>