<svg xmlns="http://www.w3.org/2000/svg" width="24" height="24" viewBox="0 0 24 24"><path fill="currentColor" fill-rule="evenodd" d="M12 7.5a1 1 0 100-2 1 1 0 000 2m2.5-1a2.5 2.5 0 01-1.75 2.386V11.5h2a.75.75 0 110 1.5h-2v4.954c2.132-.266 3.867-1.65 4.548-3.467a.75.75 0 111.405.526c-.906 2.417-3.207 4.176-5.953 4.45v.787a.75.75 0 01-1.5 0v-.787c-2.745-.274-5.046-2.033-5.952-4.45a.75.75 0 011.404-.526c.682 1.817 2.416 3.2 4.548 3.467V13h-2a.75.75 0 010-1.5h2V8.886A2.501 2.501 0 1114.5 6.5" clip-rule="evenodd"/></svg>