<svg xmlns="http://www.w3.org/2000/svg" width="24" height="24" viewBox="0 0 24 24"><path fill="currentColor" fill-rule="evenodd" d="M6.268 4A1.75 1.75 0 018 2.5h6A1.75 1.75 0 0115.732 4H16a3 3 0 013 3v3h-1.5V7A1.5 1.5 0 0016 5.5h-.268A1.75 1.75 0 0114 7H8a1.75 1.75 0 01-1.732-1.5H6A1.5 1.5 0 004.5 7v10A1.5 1.5 0 006 18.5h3V20H6a3 3 0 01-3-3V7a3 3 0 013-3zM8 4a.25.25 0 00-.25.25v1c0 .138.112.25.25.25h6a.25.25 0 00.25-.25v-1A.25.25 0 0014 4zm8.939 15.5-6.47-6.47a.75.75 0 111.061-1.06l6.472 6.472V14.25a.75.75 0 011.5 0V21h-6.75a.75.75 0 110-1.5z" clip-rule="evenodd"/></svg>