<svg xmlns="http://www.w3.org/2000/svg" width="16" height="16" viewBox="0 0 16 16"><path fill="currentColor" fill-rule="evenodd" d="M4.085 2A1.5 1.5 0 015.5 1h4a1.5 1.5 0 011.415 1H11a2 2 0 012 2v3h-1V4a1 1 0 00-1-1h-.085A1.5 1.5 0 019.5 4h-4a1.5 1.5 0 01-1.415-1H4a1 1 0 00-1 1v7a1 1 0 001 1h3v1H4a2 2 0 01-2-2V4a2 2 0 012-2zM5 2.5a.5.5 0 00.5.5h4a.5.5 0 000-1h-4a.5.5 0 00-.5.5m2.146 4.646a.5.5 0 01.708 0L13 12.294V9.5a.5.5 0 011 0V14H9.5a.5.5 0 010-1h2.793L7.146 7.854a.5.5 0 010-.708" clip-rule="evenodd"/></svg>