<svg xmlns="http://www.w3.org/2000/svg" width="12" height="12" viewBox="0 0 12 12"><path fill="currentColor" fill-rule="evenodd" d="M3.085 1A1.5 1.5 0 014.5 0h2a1.5 1.5 0 011.415 1H8.5A1.5 1.5 0 0110 2.5V5H9V2.5a.5.5 0 00-.5-.5h-.585A1.5 1.5 0 016.5 3h-2a1.5 1.5 0 01-1.415-1H2.5a.5.5 0 00-.5.5v7a.5.5 0 00.5.5H4v1H2.5A1.5 1.5 0 011 9.5v-7A1.5 1.5 0 012.5 1zM4 1.5a.5.5 0 00.5.5h2a.5.5 0 000-1h-2a.5.5 0 00-.5.5m1.146 4.646a.5.5 0 01.708 0L10 10.293V7.5a.5.5 0 011 0V12H6.5a.5.5 0 010-1h2.793L5.146 6.854a.5.5 0 010-.708" clip-rule="evenodd"/></svg>