<svg xmlns="http://www.w3.org/2000/svg" width="16" height="16" viewBox="0 0 16 16"><path fill="currentColor" fill-rule="evenodd" d="M13 3H3a1 1 0 00-1 1v5.023l3.726-2.441.303-.199.283.227 4.766 3.812L14 9.17V4a1 1 0 00-1-1m2 6.49V4a2 2 0 00-2-2H3a2 2 0 00-2 2v8a2 2 0 002 2h10a2 2 0 002-2zm-1 .768-2.803 1.202-.275.118-.234-.188L5.97 7.617l-3.84 2.516a.5.5 0 01-.131.06V12a1 1 0 001 1h10a1 1 0 001-1zM10.75 7a.75.75 0 100-1.5.75.75 0 000 1.5m0 1a1.75 1.75 0 100-3.5 1.75 1.75 0 000 3.5" clip-rule="evenodd"/></svg>