<svg xmlns="http://www.w3.org/2000/svg" width="12" height="12" viewBox="0 0 12 12"><path fill="currentColor" fill-rule="evenodd" d="M7.389 5.579a2.5 2.5 0 01-.952.382v.601a.437.437 0 11-.875 0V5.438A.44.44 0 016 5h.11a1.504 1.504 0 10-1.614-1.5H3.5a2.5 2.5 0 113.889 2.079M9 9a3 3 0 00-1.274-2.454c.302-.172.576-.387.813-.637A4 4 0 0110 9v2H2V9c0-1.245.569-2.357 1.46-3.091.238.25.512.465.814.637A3 3 0 003 9v1h6zm-3 .25a.437.437 0 00.438-.437v-.626a.438.438 0 00-.875 0v.626c0 .241.195.437.437.437" clip-rule="evenodd"/></svg>