<svg xmlns="http://www.w3.org/2000/svg" width="16" height="16" viewBox="0 0 16 16"><path fill="currentColor" fill-rule="evenodd" d="M9.667 7.494a3 3 0 01-1.167.464V8.5a.5.5 0 01-1 0v-1A.5.5 0 018 7h.029a2 2 0 10-2.03-2H5a3 3 0 114.667 2.494m2.583 4.256c0-1.47-.746-2.765-1.88-3.528q.414-.305.738-.704a5.24 5.24 0 012.142 4.232V14H2.75v-2.25c0-1.736.843-3.276 2.142-4.232q.324.4.737.704A4.25 4.25 0 003.75 11.75V13h8.5zM8 12a.5.5 0 00.5-.5v-1a.5.5 0 00-1 0v1a.5.5 0 00.5.5" clip-rule="evenodd"/></svg>