<svg xmlns="http://www.w3.org/2000/svg" width="20" height="20" viewBox="0 0 20 20"><path fill="currentColor" d="M4.358 2.67A.75.75 0 015.2 3.91l-.015.013-.077.062a6 6 0 00-.297.278 8 8 0 00-.947 1.15c-.696 1.024-1.41 2.562-1.467 4.614-.057 2.026.645 3.495 1.357 4.46.357.486.718.844.985 1.078.134.117.243.203.316.257l.08.058q.014.008.017.012h.002a.75.75 0 01-.812 1.261l.404-.63-.405.63-.002-.002-.005-.003-.012-.007-.037-.026-.124-.089a7 7 0 01-.411-.333 8.3 8.3 0 01-1.204-1.316c-.87-1.18-1.716-2.97-1.649-5.392C.964 7.59 1.8 5.78 2.623 4.57c.41-.604.818-1.06 1.127-1.368a7 7 0 01.527-.474l.011-.01.004-.002.002-.001v-.001zm10.3.19a.75.75 0 01.988-.19l.063.043h.001l.002.002.004.003.01.009a3 3 0 01.148.12c.095.082.225.2.38.354A9.4 9.4 0 0117.38 4.57a10.04 10.04 0 011.726 5.416c.068 2.423-.779 4.212-1.648 5.392a8.3 8.3 0 01-1.204 1.316 7 7 0 01-.535.422l-.037.026-.012.007-.005.003-.002.002-.405-.63.404.63a.75.75 0 01-.812-1.26l.001-.001.017-.012q.026-.017.081-.058c.073-.054.182-.14.316-.257.267-.234.627-.592.985-1.078.711-.966 1.414-2.434 1.357-4.46-.057-2.052-.77-3.59-1.467-4.615a8 8 0 00-.947-1.15 6 6 0 00-.298-.277q-.052-.044-.076-.062l-.015-.013a.75.75 0 01-.147-1.05m-8.41 2.166a.75.75 0 01.773 1.285l-.03.022q-.054.036-.16.128a3.5 3.5 0 00-.541.601c-.401.56-.84 1.479-.879 2.875-.039 1.38.384 2.314.792 2.897.207.295.414.506.564.639.074.066.135.112.172.14l.04.028h.001-.002a.75.75 0 01-.792 1.273l.396-.637c-.371.598-.396.635-.397.637l-.006-.004-.011-.007-.028-.018-.088-.063a4 4 0 01-.28-.227 5.2 5.2 0 01-.797-.9c-.574-.82-1.112-2.066-1.064-3.8.048-1.715.596-2.92 1.16-3.707.28-.39.56-.67.776-.859a4 4 0 01.355-.273l.028-.019.011-.006q.003 0 .004-.003h.002zl.278.461zm6.479.256a.75.75 0 011.029-.256l-.277.461.278-.46.002.001.004.003.01.006.029.019.086.058q.105.075.27.215c.215.188.495.47.775.86.563.786 1.112 1.991 1.16 3.707.048 1.733-.49 2.98-1.064 3.798a5.2 5.2 0 01-.797.9 4 4 0 01-.368.29l-.028.02-.01.006-.007.003v.001l-.397-.637.396.637a.75.75 0 11-.792-1.273h-.002.001l.04-.028c.037-.028.098-.074.172-.14.15-.133.357-.344.564-.639.408-.583.83-1.518.792-2.896-.04-1.397-.478-2.316-.88-2.876a3.5 3.5 0 00-.54-.601 2 2 0 00-.16-.128l-.03-.022a.75.75 0 01-.256-1.029M10 6.778a3.139 3.139 0 110 6.278 3.139 3.139 0 010-6.278m0 1.5a1.639 1.639 0 100 3.278 1.639 1.639 0 000-3.278"/></svg>