<svg xmlns="http://www.w3.org/2000/svg" width="32" height="32" viewBox="0 0 32 32"><path fill="currentColor" d="M6.873 4.34A1.2 1.2 0 018.32 6.254v.002l-.025.02q-.039.03-.121.1c-.11.094-.275.243-.477.444a12.7 12.7 0 00-1.513 1.84c-1.115 1.639-2.257 4.099-2.349 7.383-.09 3.24 1.033 5.59 2.17 7.136a11 11 0 001.578 1.725 8 8 0 00.634.503l.025.018h.001l.003.003a1.2 1.2 0 01-1.3 2.017l.649-1.01c-.597.93-.645 1.004-.65 1.01v-.002l-.004-.002-.006-.003-.019-.013-.06-.04A10 10 0 016 26.709a13.3 13.3 0 01-1.926-2.107c-1.39-1.888-2.747-4.75-2.638-8.626.107-3.833 1.446-6.73 2.762-8.666a15 15 0 011.804-2.19 11 11 0 01.789-.717l.054-.043.017-.013.01-.006zc.002.002.032.04.589.778zm16.581.235a1.2 1.2 0 011.68-.235l-.587.78.589-.78v.002l.01.006.017.013.054.043q.068.054.181.152c.152.13.36.318.608.565A15 15 0 0127.81 7.31c1.316 1.936 2.655 4.833 2.762 8.666.109 3.875-1.248 6.738-2.638 8.626a13.4 13.4 0 01-1.926 2.107 10 10 0 01-.857.676l-.06.04q-.01.008-.018.012l-.007.004-.003.002v.001c-.001 0-.002 0-.65-1.01l.648 1.011a1.2 1.2 0 01-1.3-2.017l.004-.002v-.001l.026-.018q.041-.027.129-.092c.117-.086.292-.224.505-.41.428-.376 1.005-.95 1.577-1.726 1.138-1.546 2.262-3.896 2.17-7.136-.091-3.284-1.233-5.744-2.348-7.384A12.7 12.7 0 0024.31 6.82a9 9 0 00-.597-.545l-.024-.02h-.002v-.001a1.2 1.2 0 01-.234-1.679M9.997 8.042a1.2 1.2 0 011.34 1.987l-.096.065-.002.002-.054.037a3 3 0 00-.255.204c-.225.195-.541.51-.865.963-.642.895-1.345 2.365-1.408 4.6-.062 2.206.614 3.701 1.268 4.634.33.473.662.809.902 1.022a4 4 0 00.339.27l.008.004h-.002a1.2 1.2 0 01-1.275 2.033l.633-1.02a107 107 0 01-.634 1.02l-.001-.002-.01-.006-.016-.01a3 3 0 01-.186-.13 6 6 0 01-.449-.363 8.3 8.3 0 01-1.275-1.44c-.918-1.312-1.779-3.306-1.701-6.08.077-2.744.954-4.673 1.856-5.93a8 8 0 011.24-1.376 6 6 0 01.57-.438l.045-.028.016-.011.007-.004zc.003.003.031.05.444.737zm10.366.41a1.2 1.2 0 011.647-.41l-.444.738c.414-.686.442-.734.445-.737l.004.002.006.004.017.01.045.029q.054.035.138.095c.11.08.259.193.431.343.346.301.793.752 1.24 1.375.903 1.258 1.78 3.187 1.857 5.931.078 2.773-.783 4.768-1.701 6.08a8.3 8.3 0 01-1.275 1.44 6 6 0 01-.635.494l-.017.01-.009.005v.001c-.001 0-.002 0-.635-1.018l.632 1.02a1.2 1.2 0 01-1.275-2.035l-.001.001.008-.005.062-.044c.06-.044.157-.12.277-.225.24-.213.571-.55.902-1.022.653-.933 1.33-2.428 1.268-4.635-.063-2.234-.766-3.704-1.408-4.6a5.6 5.6 0 00-.865-.962 4 4 0 00-.255-.204q-.04-.029-.054-.037l-.002-.002.003.002.002.002a1.2 1.2 0 01-.408-1.646m-4.36 2.393a5.02 5.02 0 015.022 5.021l-.006.259a5.023 5.023 0 01-5.016 4.764l-.258-.007a5.023 5.023 0 01.258-10.037m0 2.4a2.621 2.621 0 100 5.243 2.621 2.621 0 000-5.243"/></svg>