<svg xmlns="http://www.w3.org/2000/svg" width="24" height="24" viewBox="0 0 24 24"><path fill="currentColor" d="M5.154 3.255a.9.9 0 011.084 1.437l-.017.016q-.03.022-.091.075c-.083.07-.206.182-.358.333a9.5 9.5 0 00-1.135 1.379C3.8 7.725 2.945 9.57 2.876 12.033c-.068 2.43.774 4.193 1.628 5.352a8.2 8.2 0 001.183 1.294 6 6 0 00.475.377l.02.014a.9.9 0 01-.973 1.515l.486-.758-.487.757-.003-.002-.005-.003-.013-.01-.045-.03-.149-.107a8 8 0 01-.494-.4 10 10 0 01-1.444-1.58c-1.043-1.415-2.06-3.563-1.979-6.47.08-2.874 1.085-5.046 2.072-6.499.493-.725.982-1.272 1.353-1.642a8 8 0 01.592-.537l.04-.032.013-.01.005-.004h.002l.001-.002.313.414zm12.437.177a.9.9 0 011.26-.177l-.312.415.313-.414v.001l.003.001.004.004.013.01.041.032q.051.04.136.114c.113.097.27.239.456.423.37.37.86.917 1.352 1.642.988 1.453 1.992 3.625 2.073 6.5.081 2.906-.936 5.054-1.979 6.47-.52.705-1.044 1.23-1.444 1.58a8 8 0 01-.643.506l-.045.03-.013.01q-.003 0-.005.003l-.003.002-.487-.757.486.758a.901.901 0 01-.973-1.515l.02-.014q.03-.02.096-.07c.088-.064.22-.166.38-.307a8.2 8.2 0 001.182-1.294c.854-1.159 1.696-2.922 1.628-5.352-.07-2.463-.925-4.309-1.76-5.538a9.5 9.5 0 00-1.137-1.38 7 7 0 00-.357-.332q-.061-.053-.09-.075-.014-.011-.018-.016a.9.9 0 01-.177-1.26M7.499 6.031a.9.9 0 01.933 1.54H8.43l-.002.002-.038.026a3 3 0 00-.192.154 4.2 4.2 0 00-.65.721c-.48.671-1.007 1.774-1.054 3.45-.046 1.655.46 2.776.95 3.476.249.354.497.607.677.767a3 3 0 00.253.2l.001.002h.002a.901.901 0 01-.953 1.528l-.002-.002H7.42l-.005-.004-.012-.008-.034-.022-.106-.075a5 5 0 01-.336-.273 6.2 6.2 0 01-.957-1.08c-.689-.983-1.334-2.48-1.276-4.56.058-2.058.715-3.504 1.392-4.448.335-.467.671-.805.93-1.03a5 5 0 01.427-.329l.035-.021.012-.008.005-.003.002-.002zl.336.556zm7.773.308a.9.9 0 011.235-.308l-.335.558.336-.557.003.002.005.003.012.008.035.021.102.07c.083.06.195.146.324.258.26.226.595.564.93 1.031.677.944 1.335 2.39 1.392 4.449.059 2.08-.586 3.576-1.275 4.56-.34.486-.689.841-.957 1.08a5 5 0 01-.477.37l-.011.007-.005.003-.002.001-.002.002a.9.9 0 01-.953-1.527l.002-.001v-.001l.047-.032a3 3 0 00.207-.17c.18-.159.428-.412.676-.766.49-.7.997-1.82.95-3.476-.046-1.676-.573-2.779-1.054-3.45a4.2 4.2 0 00-.65-.721 3 3 0 00-.229-.18l-.002-.001-.003-.002h.001a.9.9 0 01-.303-1.232m-3.076 1.8A3.767 3.767 0 0115.77 11.9l-.005.193a3.767 3.767 0 01-3.762 3.574l-.194-.005a3.767 3.767 0 01-3.568-3.569l-.005-.193a3.767 3.767 0 013.767-3.767zm-.193 1.794a1.967 1.967 0 100 3.935 1.967 1.967 0 000-3.935"/></svg>