<svg xmlns="http://www.w3.org/2000/svg" width="12" height="12" viewBox="0 0 12 12"><path fill="currentColor" d="M2.578 1.628a.45.45 0 01.542.718l-.01.007-.045.038a3 3 0 00-.178.167 5 5 0 00-.568.69 5.13 5.13 0 00-.88 2.768c-.035 1.215.387 2.097.814 2.676.214.291.43.507.59.648a3 3 0 00.238.188l.01.007a.45.45 0 01-.486.757l.243-.378-.244.378v-.001L2.6 10.29l-.007-.005-.023-.016-.074-.052a4 4 0 01-.247-.2 5 5 0 01-.722-.79C1.007 8.517.498 7.443.54 5.99a6.03 6.03 0 011.035-3.25c.247-.361.492-.636.677-.82a4 4 0 01.296-.269l.02-.016.007-.005.002-.002zm6.218.088a.45.45 0 01.63-.088h.002l.002.003.007.004.02.017.068.057q.087.073.228.212c.185.184.43.459.677.82a6.03 6.03 0 011.035 3.25c.04 1.453-.468 2.527-.99 3.235a5 5 0 01-.721.79c-.1.088-.186.155-.247.2l-.074.053-.023.016-.007.005H9.4v.002l-.244-.378.242.378a.45.45 0 01-.486-.757l.01-.007.049-.034c.043-.033.11-.084.19-.154.16-.141.375-.357.59-.648.427-.58.848-1.46.814-2.676a5.13 5.13 0 00-.88-2.768 5 5 0 00-.568-.69 3 3 0 00-.223-.205l-.01-.007a.45.45 0 01-.088-.63m-5.046 1.3a.45.45 0 01.465.77l-.02.014q-.031.021-.095.077a2 2 0 00-.325.36c-.24.336-.504.887-.528 1.726-.023.827.23 1.387.476 1.737a2.2 2.2 0 00.442.468l.023.016a.45.45 0 01-.394.804l-.082-.04-.001-.001-.003-.001-.023-.016-.053-.037a3.1 3.1 0 01-.646-.677c-.345-.491-.667-1.239-.638-2.279.029-1.03.358-1.753.696-2.224a3 3 0 01.465-.516q.098-.085.162-.129.03-.022.052-.035l.016-.01.01-.007zm3.887.153a.45.45 0 01.617-.154v.001h.002l.009.006.016.011.052.035q.064.045.162.129c.13.113.297.282.465.516.338.471.667 1.195.696 2.224.03 1.04-.293 1.788-.637 2.28a3.1 3.1 0 01-.647.676q-.032.024-.053.037l-.023.016-.003.001-.001.001-.082.04a.45.45 0 01-.394-.804l.023-.016q.036-.025.103-.085c.09-.08.215-.206.34-.383.244-.35.498-.91.475-1.737-.024-.839-.288-1.39-.528-1.726a2.1 2.1 0 00-.42-.437l-.02-.014a.45.45 0 01-.152-.617m-1.635.897c1.04 0 1.883.843 1.884 1.883l-.01.193c-.097.95-.9 1.69-1.874 1.69l-.192-.009a1.884 1.884 0 01.192-3.757m0 .9a.983.983 0 100 1.966.983.983 0 000-1.965"/></svg>