<svg xmlns="http://www.w3.org/2000/svg" width="16" height="16" viewBox="0 0 16 16"><path fill="currentColor" d="M3.436 2.17a.6.6 0 01.722.956v.001l-.012.01-.061.05a5 5 0 00-.238.224 6.3 6.3 0 00-.757.918 6.84 6.84 0 00-1.174 3.692c-.045 1.62.517 2.795 1.086 3.568.286.389.574.676.788.864.107.093.195.161.253.205l.064.046.013.008a.6.6 0 01-.54 1.066l-.108-.056H3.47l-.004-.004-.01-.006-.03-.02-.099-.07A5 5 0 013 13.353a6.7 6.7 0 01-.964-1.053C1.34 11.357.662 9.926.717 7.988a8.04 8.04 0 011.38-4.333c.33-.483.656-.849.903-1.095a6 6 0 01.395-.357q.016-.015.027-.022l.009-.007zm8.29.117a.6.6 0 01.84-.117h.001l.004.004.01.007.026.022q.035.026.091.075.116.097.304.282c.247.246.574.611.902 1.095a8.04 8.04 0 011.381 4.333c.054 1.937-.623 3.37-1.318 4.313-.346.47-.698.82-.964 1.053a5 5 0 01-.328.268q-.062.045-.1.07l-.03.02-.009.006-.004.003-.002.001-.108.056a.6.6 0 01-.54-1.066l.013-.008.064-.046c.058-.044.146-.112.253-.205.214-.188.502-.476.788-.864.57-.773 1.131-1.948 1.086-3.568a6.84 6.84 0 00-1.174-3.692 6.3 6.3 0 00-.757-.918 4 4 0 00-.238-.223l-.062-.05-.011-.01v-.002a.6.6 0 01-.117-.839M4.999 4.022a.6.6 0 11.618 1.026l.001.001h.001l.002-.002v.001l-.028.019q-.043.03-.128.102c-.112.098-.27.256-.433.482-.32.447-.673 1.182-.704 2.3-.03 1.102.307 1.85.634 2.316.165.236.331.405.451.512a2 2 0 00.17.135.6.6 0 01-.635 1.018v-.001h-.002l-.004-.003-.007-.005-.023-.015-.071-.05a3 3 0 01-.224-.182 4 4 0 01-.637-.72c-.46-.656-.89-1.653-.851-3.04.038-1.372.477-2.336.928-2.965.223-.312.447-.537.62-.687a3 3 0 01.285-.22l.022-.014.008-.005.004-.002.001-.001zl.19.314zm5.182.204a.6.6 0 01.823-.204l-.188.314.189-.314h.002l.004.003.008.005.022.014.068.048q.085.06.217.172c.173.15.397.375.62.687.451.629.89 1.593.928 2.965.039 1.387-.392 2.384-.85 3.04a4 4 0 01-.638.72 3 3 0 01-.295.232l-.023.015-.007.005-.004.002-.001.001h-.001l-.318-.509.318.51a.6.6 0 01-.635-1.018l.031-.023c.03-.022.08-.06.139-.112a3 3 0 00.451-.512c.327-.466.665-1.214.634-2.316-.031-1.118-.383-1.853-.704-2.3a2.8 2.8 0 00-.433-.482 2 2 0 00-.128-.102l-.027-.019h-.001.002v.001h.002a.6.6 0 01-.205-.823M8 5.422a2.51 2.51 0 110 5.022 2.51 2.51 0 010-5.022m0 1.2a1.31 1.31 0 100 2.622 1.31 1.31 0 000-2.622"/></svg>