<svg xmlns="http://www.w3.org/2000/svg" width="12" height="12" viewBox="0 0 12 12"><path fill="currentColor" d="M11.25 5.827v.346l-.01.056c-.018.15-.03.302-.054.45a3.7 3.7 0 01-.514 1.354 3.85 3.85 0 01-1.595 1.445 3.7 3.7 0 01-1.23.363l-.285.031h-3.69c-.018-.003-.036-.009-.055-.01a3.2 3.2 0 01-1.071-.257 3.27 3.27 0 01-1.659-1.577 3.1 3.1 0 01-.306-1.02L.75 6.75v-.335q.007-.027.01-.056a3.1 3.1 0 01.202-.936q.471-1.215 1.635-1.798a3.2 3.2 0 011.281-.33q.33-.017.658.03a.08.08 0 00.062-.02 3.9 3.9 0 011.075-.78 3.8 3.8 0 011.236-.364q.153-.018.307-.032h.314l.062.01c.156.017.312.029.467.055a3.7 3.7 0 011.344.51q.955.591 1.452 1.598c.192.386.315.802.364 1.23zM5.38 3.591q.006.012.01.013.324.16.617.373c.012.009.042.005.057-.004a2.37 2.37 0 011.737-.345 2.35 2.35 0 011.486.9c.43.55.594 1.174.475 1.867-.08.465-.265.882-.582 1.231-.577.637-1.3.9-2.15.789a2.27 2.27 0 01-1.351-.673q-.722-.727-1.446-1.451a.4.4 0 00-.228-.128.36.36 0 00-.378.206c-.062.13-.054.275.08.408.538.527 1.07 1.06 1.607 1.587q.138.137.294.25c.392.286.834.443 1.313.506.375.05.748.04 1.118-.044a3.1 3.1 0 001.75-1.074q.57-.689.69-1.579a3.1 3.1 0 00-.03-1.015 3 3 0 00-.708-1.453c-.708-.795-1.598-1.15-2.657-1.07-.408.03-.793.15-1.156.34a3 3 0 00-.549.366m-.26 5.546-.044-.041q-.33-.31-.657-.623a.18.18 0 00-.14-.06c-.22.006-.44.007-.656-.042a1.845 1.845 0 01-1.306-2.444A1.856 1.856 0 014.35 4.772c.383.069.72.23.996.515.336.348.683.685 1.023 1.029a.3.3 0 00.273.099c.139-.02.25-.086.3-.222a.33.33 0 00-.076-.363c-.356-.362-.706-.733-1.076-1.08-.72-.672-1.57-.872-2.51-.586-1.264.384-2.003 1.69-1.714 2.977a2.544 2.544 0 002.49 1.997H5.06z"/></svg>