<svg xmlns="http://www.w3.org/2000/svg" width="32" height="32" viewBox="0 0 32 32"><path fill="currentColor" d="M30 15.54v.922q-.015.075-.026.149c-.047.4-.078.804-.144 1.202a9.8 9.8 0 01-1.372 3.608 10.26 10.26 0 01-4.253 3.854c-1.03.51-2.14.837-3.28.968l-.761.083h-9.837c-.05-.01-.098-.024-.149-.027a8.4 8.4 0 01-2.855-.686c-1.98-.867-3.457-2.271-4.424-4.204a8.3 8.3 0 01-.816-2.72L2 18v-.894c.01-.05.024-.1.027-.15a8.2 8.2 0 01.538-2.495C3.4 12.302 4.857 10.7 6.926 9.666a8.5 8.5 0 013.415-.883 9.5 9.5 0 011.754.08.22.22 0 00.166-.054 10.4 10.4 0 012.867-2.077 10 10 0 013.297-.972q.408-.045.817-.085h.838q.082.013.165.024c.416.049.833.08 1.245.148a9.9 9.9 0 013.586 1.361 10.26 10.26 0 013.872 4.26c.51 1.03.838 2.141.969 3.284q.043.394.083.788M14.344 9.575c.017.022.021.033.028.036q.866.427 1.645.995c.033.024.114.014.154-.011 1.426-.904 2.972-1.215 4.633-.92 1.627.288 2.951 1.1 3.963 2.4 1.145 1.469 1.582 3.13 1.266 4.98-.212 1.239-.709 2.35-1.552 3.282-1.54 1.697-3.468 2.4-5.737 2.102a6.06 6.06 0 01-3.6-1.794c-1.282-1.294-2.571-2.58-3.856-3.87-.171-.172-.362-.31-.608-.34a.97.97 0 00-1.008.549c-.166.345-.144.735.215 1.089 1.433 1.406 2.852 2.825 4.283 4.232q.367.363.786.669c1.045.758 2.223 1.178 3.499 1.347a8.4 8.4 0 002.981-.118c1.881-.422 3.44-1.382 4.667-2.864a8.2 8.2 0 001.84-4.21c.123-.9.097-1.815-.077-2.707-.285-1.46-.902-2.764-1.89-3.875-1.888-2.119-4.261-3.065-7.086-2.854-1.087.081-2.114.4-3.081.907a8 8 0 00-1.465.975m-.69 14.79-.117-.109c-.586-.553-1.174-1.102-1.753-1.662a.47.47 0 00-.374-.157c-.586.014-1.172.016-1.75-.114-2.871-.65-4.539-3.771-3.48-6.518.834-2.166 3.145-3.486 5.424-3.079 1.021.182 1.918.615 2.654 1.374.897.926 1.821 1.826 2.728 2.743.207.209.444.304.73.263.37-.053.664-.229.797-.591.131-.357.068-.695-.202-.968-.952-.965-1.882-1.953-2.872-2.877-1.921-1.792-4.187-2.324-6.692-1.562-3.37 1.023-5.342 4.503-4.572 7.937a6.785 6.785 0 006.64 5.327h2.681c.045 0 .089-.004.157-.007"/></svg>