<svg xmlns="http://www.w3.org/2000/svg" width="12" height="12" viewBox="0 0 12 12"><g fill="none"><g clip-path="url(#svgID0)"><path fill="currentColor" fill-rule="evenodd" d="M11 6A5 5 0 111 6a5 5 0 0110 0m1 0A6 6 0 110 6a6 6 0 0112 0m-8.398-.365c-.073-.311-.037-.603.308-.949.238-.237.4-.28.476-.29a.57.57 0 01.324.07 1.8 1.8 0 01.498.404l.001.002a1 1 0 001.582 0v-.001l.022-.025a1.8 1.8 0 01.476-.38.57.57 0 01.325-.07c.076.01.238.053.475.29.346.346.382.638.308.95-.092.392-.384.865-.84 1.366A10 10 0 016 8.363l-.174-.128a10 10 0 01-1.383-1.233c-.456-.501-.748-.974-.84-1.367M6 4.26s.296-.39.764-.646c.522-.288 1.258-.41 2.032.365C11.194 6.376 6 9.572 6 9.572S.806 6.376 3.203 3.98c.775-.774 1.51-.653 2.033-.365.468.257.764.646.764.646" clip-rule="evenodd"/></g><defs><clipPath id="svgID0"><path fill="#fff" d="M0 0h12v12H0z"/></clipPath></defs></g></svg>