<svg xmlns="http://www.w3.org/2000/svg" width="32" height="32" viewBox="0 0 32 32"><path fill="currentColor" fill-rule="evenodd" d="M8.222 10.778a1 1 0 101.414 1.414L15 6.828V13.5a1 1 0 102 0V6.828l.011.012.02.02.02.02.02.02.02.02.02.02.02.02.02.02.02.02.02.02.02.02.02.019.02.02.019.02.02.02.02.02.02.019.019.02.02.02.02.02.02.019.019.02.02.02.02.019.019.02.02.02.02.019.019.02.02.02.019.019.02.02.02.019.019.02.02.019.019.02.02.019.019.02.02.019.018.02.02.019.02.019.019.02.02.019.019.02.019.018.02.02.018.019.02.02.019.019.02.019.018.019.02.02.019.018.019.02.019.019.02.019.018.019.02.019.018.02.02.018.018.02.02.018.018.02.02.018.018.019.02.019.018.019.019.019.019.018.019.02.018.018.02.019.018.019.019.018.018.02.02.018.018.018.018.02.019.018.019.018.018.019.019.018.018.019.019.018.018.019.019.018.018.019.018.018.019.018.018.019.018.018.019.018.018.019.018.018.019.018.018.018.018.018.018.019.018.018.018.018.018.018.018.018.018.018.018.018.018.018.018.018.018.018.018.017.018.018.017.018.018.018.018.018.018.017.017.018.018.018.017.017.018.018.018.017.017.018.018.017.017.018.018.017.017.018.017.017.018.017.017.018.017.017.017.017.018.017.017.018.017.017.017.017.017.017.017.017.017.017.017.017.017.017.017.017.017.017.017.017.017.016.016.017.017.017.017.017.017.016.016.017.017.016.016.017.017.017.016.016.017.017.016.016.017.016.016.017.016.016.017.016.016.017.016.016.016.016.016.016.016.016.017.016.015.016.017.016.015.016.016.016.016.016.016.016.016.015.015.016.016.016.016.016.015.015.016.016.016.015.015.016.016.015.015.016.015.015.016.015.015.016.015.015.016.015.015.015.015.016.015.015.015.015.015.015.015.015.015.015.015.014.015.015.014.015.015.015.015.015.015.014.014.015.015.014.014.015.015.014.014.015.015.014.014.015.014.014.015.014.014.015.014.014.014.014.014.014.014.014.014.014.014.014.014.014.014.014.014.014.014.013.013.014.014.014.014.013.013.014.014.013.013.014.014.013.013.014.013.013.014.013.013.014.013.013.013.013.013.013.013.013.013.013.013.013.013.013.013.013.013.012.013.013.012.013.013.013.012.012.013.013.013.012.012.013.012.012.013.012.012.013.012.012.012.012.013.012.012.012.012.012.012.012.012.012.011.012.012.012.012.012.012.011.011.012.012.012.011.011.012.011.011.012.012.011.011.012.011.01.011.012.012.011.01.011.012.011.01.011.012.011.01.011.011.011.011.01.01.011.012.011.01.01.01.011.011.01.01.011.01.01.011.01.01.011.01.01.01.01.01.01.01.01.01.01.01.01.01.01.01.01.01.01.01.01.01.009.009.01.01.009.009.01.009.009.01.009.009.01.009.008.009.01.009.008.009.01.009.008.009.01.008.008.01.009.008.008.008.01.009.008.009.008.008.009.008.008.009.008.008.008.008.009.008.008.008.008.008.008.008.008.008.008.008.007.007.008.008.008.008.007.007.008.008.007.007.008.007.007.008.007.007.007.007.008.007.007.007.007.007.006.007.007.006.007.007.007.007.007.006.006.007.007.006.006.007.006.006.007.006.006.007.006.006.006.006.006.006.006.005.006.006.006.006.006.006.005.005.006.006.006.006.005.005.005.005.006.006.005.005.005.005.005.005.005.005.005.005.005.005.005.004.005.005.005.005.004.004.005.005.004.004.005.004.004.005.004.004.005.004.004.004.004.004.004.004.004.004.003.003.004.004.004.004.003.003.004.004.003.003.004.003.003.003.003.004.003.003.003.003.003.002.003.003.003.003.003.003.002.002.003.003.002.002.003.003.002.002.003.002.002.002.002.002.002.002.002.002.002.002.002.002.001.001.002.002.002.002.001v.002h.002l.002.002v.001l.002.002.002.001v.001l.001.001h.001v.001h.001v.001h.001v.001l.708-.707-.707.707a1 1 0 001.414-1.414l-.707.707.707-.707h-.001v-.001h-.001v-.002h-.002l-.001-.002-.002-.002h-.001l-.001-.002-.002-.001v-.002l-.002-.001-.002-.002-.001-.001-.002-.002-.002-.002-.002-.001-.002-.002-.001-.002-.003-.002-.002-.002-.002-.003-.002-.002-.003-.002-.002-.003-.002-.002-.003-.003-.003-.002-.003-.003-.002-.003-.003-.003-.003-.003-.003-.003-.003-.003-.004-.003-.003-.004-.003-.003-.004-.003-.003-.004-.004-.003-.003-.004-.004-.004-.004-.004-.004-.004-.004-.004-.004-.004-.004-.004-.004-.004-.004-.004-.005-.005-.004-.004-.005-.004-.004-.005-.005-.005-.004-.004-.005-.005-.005-.005-.005-.005-.005-.005-.005-.005-.005-.005-.005-.005-.006-.005-.005-.006-.005-.005-.006-.006-.005-.005-.006-.006-.006-.005-.005-.006-.006-.006-.006-.006-.006-.006-.006-.006-.006-.006-.006-.006-.007-.007-.006-.006-.006-.006-.007-.007-.006-.006-.007-.007-.007-.006-.006-.007-.007-.007-.007-.007-.007-.007-.007-.007-.007-.007-.007-.007-.007-.007-.008-.007-.007-.008-.007-.007-.008-.008-.007-.007-.008-.008-.007-.007-.008-.008-.008-.008-.008-.008-.008-.008-.008-.008-.008-.008-.008-.008-.008-.008-.008-.008-.009-.008-.008-.009-.008-.008-.009-.009-.008-.008-.009-.009-.009-.008-.008-.01-.01-.008-.008-.009-.009-.009-.009-.009-.009-.009-.01-.009-.008-.009-.01-.01-.009-.009-.01-.009-.009-.01-.009-.009-.01-.01-.01-.009-.009-.01-.01-.01-.01-.01-.01-.009-.009-.01-.01-.01-.01-.01-.01-.01-.01-.01-.01-.01-.01-.01-.01-.01-.011-.011-.01-.01-.011-.01-.01-.011-.011-.011-.01-.01L22.9 9.9l-.01-.011-.011-.011-.011-.01-.011-.012-.011-.01-.011-.012-.011-.01-.011-.012-.011-.011-.012-.012-.011-.01-.012-.012-.01-.012-.012-.011-.012-.012-.012-.011-.011-.012-.012-.012-.012-.011-.011-.012-.012-.012-.012-.012-.012-.012-.012-.012-.012-.012-.012-.012-.013-.012-.012-.013-.012-.012-.012-.012-.013-.013-.012-.012-.013-.012-.012-.013-.013-.013-.012-.012-.013-.013-.013-.013-.013-.012-.013-.013-.012-.013-.013-.013-.013-.013-.013-.013-.014-.013-.013-.013-.013-.014-.013-.013-.013-.013-.014-.014-.013-.013-.014-.013-.013-.014-.014-.013-.013-.014-.014-.014-.013-.013-.014-.014-.014-.014-.014-.013-.014-.014-.014-.014-.013-.014-.014-.014-.015-.014-.014-.014-.014-.014-.014-.015-.014-.014-.014-.014-.015-.014-.014-.015-.014-.014-.015-.015-.014-.014-.015-.015-.014-.014-.015-.015-.015-.015-.014-.014-.015-.015-.015-.015-.015-.015-.015-.015L21.8 8.8l-.015-.014-.015-.015-.015-.016-.015-.015-.015-.015-.015-.015-.015-.015-.016-.015-.015-.016-.015-.015-.016-.015-.015-.016-.016-.015-.015-.016-.016-.015-.015-.016-.016-.016-.015-.015-.016-.016-.016-.016-.016-.016-.016-.015-.015-.016-.016-.016-.016-.016-.016-.016-.016-.016-.016-.016-.016-.016-.017-.016-.016-.017-.016-.016-.016-.016-.017-.016-.016-.017-.016-.016-.017-.016-.016-.017-.016-.016-.017-.017-.016-.016-.017-.017-.017-.016-.016-.017-.017-.017-.017-.016-.016-.017-.017-.017-.017-.017-.017-.017-.017-.016-.017-.017-.017-.017-.017-.017-.016-.017-.018-.017-.017-.017-.017-.018-.017-.017-.017-.017-.017-.017-.017-.017-.018-.018-.017-.017-.017-.017-.018-.018-.017-.017-.018-.017-.017-.018-.018-.017-.017-.018-.018-.017-.017-.018-.018-.018-.017-.017-.018-.018-.018-.018-.018-.017-.017-.018-.018-.018-.018-.018-.018-.018-.018-.018-.018-.017-.018-.018-.018-.018-.018-.018-.018-.018-.018-.018-.018-.018-.018-.019-.018-.018-.018-.018-.018-.018-.019-.018-.018-.019-.018-.018-.018-.018-.019-.018-.018-.019-.018-.018-.019-.018-.018-.019-.019-.018-.018-.019-.018-.018-.02-.019-.018-.018-.018-.019-.019-.019-.018-.018-.019-.019-.019-.018-.018-.02-.02-.018-.018-.019-.019-.018-.018-.02-.02-.018-.018-.019-.019-.019-.019-.018-.019-.02-.018-.018-.02-.02-.018-.018-.02-.02-.018-.018-.02-.02-.018-.018-.02-.02-.018-.018-.02-.02-.019-.019-.019-.019-.019-.019-.02-.019-.018-.02-.02-.018-.019-.02-.02-.019-.018-.02-.02-.018-.019-.02-.02-.02-.019-.018-.019-.02-.02-.02-.019-.019-.02-.019-.019-.02-.02-.019-.019-.02-.02-.019-.019-.02-.02-.019-.019-.02-.02-.019-.019-.02-.02-.02-.019-.019-.02-.02-.02-.019-.019-.02-.02-.02-.02-.019-.019-.02-.02-.02-.02-.02-.019-.019-.02-.02-.02-.02-.02-.02-.02-.019-.019-.02-.02-.02-.02-.02-.02-.02-.02-.019-.02-.02-.019-.02-.02-.02-.02-.02-.02-.02-.02-.02-.02-.02-.02-.02-.02-.02-.02-.02-.02-.02-.02-.02-.02-.02-.02-.02-.02-.02-.02-.02-.02-.02-.02-.02-.02-.02-.02-.02-.02-.02-.02-.02-.02-.02-.02-.02-.02-.02-.02-.02-.02-.02-.02-.02-.02-.02-.02-.02-.02-.02-.021-.02-.02-.021-.02-.02-.02-.02-.02-.02-.021-.02-.02-.02-.02-.021-.02-.02-.02-.02-.021-.02-.02-.021-.02-.02-.02-.02-.021-.02-.02-.021-.02-.02-.02-.02-.021-.02-.02-.021-.02-.02-.02-.02-.021-.02-.02-.021-.02-.02-.02-.02-.021-.021-.02-.02-.02-.02-.021-.02-.02-.021-.02-.02-.021-.02-.02-.021-.02-.02-.02-.02-.021-.021-.02-.02-.02-.02-.021-.021-.02-.02-.02-.02-.021-.02-.02-.021-.02-.02-.021-.02-.02-.021-.02-.02-.021-.02-.02-.021-.02-.02-.02-.02-.021-.021-.02-.02-.02-.02-.021-.02-.02-.021-.02-.02-.021-.02-.02-.021-.02-.02-.02-.02-.021-.02L16 3l-.707.707zM17 25.172V18.5a1 1 0 10-2 0v6.672l-.012-.012-.02-.02-.02-.02-.02-.02-.02-.02-.02-.02-.02-.02-.02-.02-.019-.02-.02-.02-.02-.019-.02-.02-.02-.02-.02-.02-.019-.02-.02-.019-.02-.02-.02-.02-.02-.02-.019-.019-.02-.02-.02-.02-.019-.02-.02-.019-.02-.02-.019-.02-.02-.019-.02-.02-.019-.019-.02-.02-.019-.02-.02-.019-.019-.02-.02-.019-.019-.02-.02-.019-.019-.02-.02-.019-.019-.019-.02-.02-.019-.019-.02-.02-.018-.019-.02-.019-.02-.02-.018-.019-.02-.019-.019-.02-.02-.018-.018-.02-.02-.019-.019-.02-.02-.018-.018-.02-.02-.018-.018-.02-.02-.019-.019-.019-.019-.019-.019-.019-.019-.019-.019-.019-.019-.019-.019-.019-.019-.019-.019-.019-.018-.019-.02-.018-.018-.02-.019-.018-.019-.019-.019-.019-.018-.018-.019-.02-.019-.018-.018-.019-.02-.018-.018-.019-.018-.018-.019-.02-.018-.018-.02-.018-.018-.019-.018-.018-.018-.019-.019-.018-.018-.019-.019-.018-.018-.018-.018-.019-.019-.018-.018-.018-.018-.018-.019-.019-.018-.018-.018-.018-.018-.018-.018-.018-.018-.019-.019-.018-.018-.018-.018-.018-.017-.018-.018-.018-.018-.018-.018-.017-.018-.018-.018-.018-.018-.018-.018-.018-.018-.018-.017-.017-.018-.018-.018-.018-.017-.017-.018-.018-.017-.018-.018-.017-.018-.018-.017-.017-.018-.018-.017-.017-.017-.017-.018-.018-.017-.017-.017-.017-.018-.018-.017-.017-.017-.017-.017-.017-.017-.018-.018-.017-.017-.017-.017-.017-.017-.017-.017-.017-.017-.017-.017-.017-.016-.017-.017-.016-.017-.017-.017-.017-.016-.017-.017-.016-.017-.017-.017-.017-.016-.016-.017-.017-.016-.016-.017-.017-.016-.016-.017-.017-.016-.016-.016-.017-.017-.016-.016-.016-.016-.016-.016-.017-.016-.016-.017-.016-.016-.016-.016-.016-.016-.016-.016-.016-.016-.016-.016-.016-.015-.016-.016-.015-.016-.016-.016-.016-.016-.016-.015-.015-.016-.016-.016-.016-.015-.015-.015-.016-.016-.015-.015-.016-.016-.015-.015-.015-.015-.016-.016-.015-.015-.015-.015-.015-.015-.015-.015-.015-.015-.016-.015-.015-.015-.015-.015-.015-.015-.014-.015-.015-.015-.015-.015-.015-.014-.014-.015-.015-.015-.015-.014-.014-.015-.015-.014-.014-.015-.015-.014-.014-.014-.015-.015-.014-.014-.014-.014-.014-.014-.015-.015-.014-.014-.014-.014-.014-.014-.014-.014-.014-.014-.014-.013-.014-.014-.013-.014-.014-.014-.014-.013-.014-.014-.013-.014-.014-.013-.013-.014-.014-.013-.013-.013-.014-.014-.013-.013-.013-.013-.013-.013-.014-.014-.013-.013-.013-.013-.013-.013-.013-.013-.013-.013-.013-.012-.013-.013-.012-.013-.013-.013-.013-.012-.012-.013-.013-.012-.013-.013-.012-.012-.012-.013-.013-.012-.012-.012-.012-.013-.013-.012-.012-.012-.012-.012-.012-.012-.012-.012-.012-.012-.012-.012-.012-.012-.012-.011-.011-.012-.012-.012-.012-.011-.011-.012-.012-.011-.011-.012-.012-.011-.011-.011-.011-.012-.012-.01-.011-.012-.011-.011-.011-.011-.011-.011-.011-.011-.011-.01-.011-.012-.01-.01-.012-.011-.01-.01-.011-.011-.01-.01-.011-.011-.01-.01-.011-.011-.01-.01-.01-.01-.01-.01-.011-.011-.01-.01-.01-.01-.01-.01-.01-.01-.01-.01-.01-.01-.01-.01-.01-.009-.01-.01-.009-.01-.01-.009-.009-.009-.01-.01-.008-.009-.01-.009-.009-.009-.01-.01-.008-.008-.01-.01-.008-.008-.01-.009-.008-.009-.009-.009-.009-.008-.008-.009-.009-.008-.009-.009-.008-.008-.008-.009-.009-.008-.008-.008-.008-.008-.008-.008-.009-.008-.008-.008-.008-.008-.008-.008-.007-.008-.008-.008-.008-.007-.008-.008-.007-.007-.008-.008-.007-.007-.008-.008-.007-.007-.007-.007-.007-.007-.007-.007-.007-.007-.007-.007-.007-.007-.007-.007-.007-.007-.007-.006-.006-.007-.007-.006-.006-.007-.007-.006-.006-.006-.007-.007-.006-.006-.006-.006-.006-.006-.006-.006-.006-.006-.006-.006-.006-.005-.006-.006-.005-.006-.006-.005-.005-.006-.006-.005-.005-.006-.006-.005-.005-.005-.005-.005-.005-.005-.005-.005-.005-.005-.005-.005-.005-.005-.005-.004-.004-.005-.005-.005-.005-.004-.004-.004-.005-.005-.004-.004-.004-.004-.004-.004-.005-.004-.003-.004-.004-.004-.004-.004-.004-.004-.004-.003-.004-.004-.003-.003-.004-.004-.003-.003-.003-.004-.004-.003-.003-.003-.003-.003-.003-.003-.003-.003-.003-.003-.003-.002-.003-.003-.002-.003-.003-.002-.002-.003-.003-.002-.002-.002-.002-.002-.003-.003-.002-.002-.002-.002-.002-.002-.002-.001-.002-.002-.001-.002-.002-.001-.002-.002-.001-.001-.001-.002-.002v-.001l-.002-.001-.001-.001-.001-.001-.001-.001-.001-.001-.001-.002h-.001l-.001-.001v-.001h-.001l-.707.707.707-.707a1 1 0 10-1.414 1.414l.707-.707-.707.707v.001h.001v.001h.001l.001.001v.001h.002v.002h.002v.002l.002.001.001.001.002.002v.001l.002.002.002.001.002.002.001.002.002.002.002.001.002.002.002.002.002.003.003.002.002.002.002.002.003.003.002.002.003.003.002.003.003.002.003.003.003.003.003.003.003.003.003.003.003.003.004.004.003.003.003.004.004.003.003.004.004.003.004.004.004.004.004.004.003.004.005.004.004.004.004.004.004.004.004.005.005.004.004.005.005.004.004.005.005.004.005.005.005.005.005.005.005.005.005.005.005.005.005.005.005.006.006.005.005.005.005.006.006.005.006.006.005.006.006.005.006.006.006.006.006.006.006.006.006.006.006.006.006.007.007.006.006.006.006.007.007.006.007.007.006.006.007.007.007.007.007.007.007.007.007.007.007.007.007.007.007.007.007.007.008.008.007.007.007.008.008.007.007.008.008.007.008.008.008.008.007.008.008.008.008.008.008.008.009.008.008.008.008.008.008.008.009.009.008.008.008.009.009.008.009.009.008.009.009.008.009.01.009.008.009.009.009.009.009.009.009.009.009.01.01.008.008.01.01.01.01.009.009.009.01.01.009.01.01.009.01.01.009.01.01.01.01.009.01.01.01.01.01.01.01.01.01.01.01.01.01.01.01.011.011.01.01.011.011.01.011.011.01.01.011.012.011.01.01.011.012.011.01.011.012.01.01.012.012.011.011.011.011.011.011.012.012.011.011.011.012.012.011.011.012.012.011.011.012.012.012.012.011.012.012.011.012.012.012.012.012.012.012.012.012.012.012.012.012.013.012.012.013.012.012.012.012.013.013.012.012.013.013.012.013.013.012.012.013.013.013.013.012.013.013.013.013.012.013.013.013.013.013.013.013.014.013.013.014.013.013.013.013.013.013.014.014.013.013.014.014.013.013.014.014.013.013.014.014.013.014.014.014.014.013.014.014.014.014.013.014.014.014.014.014.014.014.015.014.014.015.014.014.014.014.014.014.015.015.014.014.014.015.015.014.014.015.015.014.014.015.015.014.015.015.014.015.015.015.015.015.015.014.015.015.015.015.015.015.015.016.015.014.015.016.015.015.015.015.015.015.016.016.015.015.015.015.016.016.015.015.015.016.016.015.016.016.015.015.016.016.015.016.016.016.016.016.016.015.015.016.016.016.016.016.016.016.016.016.016.016.016.016.016.016.017.016.016.017.016.016.016.016.016.016.017.017.016.016.016.017.017.016.016.017.017.016.016.017.017.016.017.017.016.017.017.016.017.017.016.017.017.017.017.016.017.017.017.017.017.017.016.017.017.017.017.017.018.017.017.017.017.018.017.017.017.017.017.017.017.018.018.017.017.017.017.018.018.017.017.017.018.018.017.017.017.018.018.017.018.018.017.018.018.017.017.018.018.018.018.017.018.018.017.018.018.018.018.018.018.017.018.018.018.018.018.018.018.018.017.018.018.018.019.018.018.018.018.019.018.018.018.018.018.018.018.018.019.019.018.018.018.018.018.019.019.018.018.018.019.019.018.018.018.019.019.018.018.019.019.018.018.019.02.018.018.019.018.019.019.018.019.019.018.019.019.018.019.02.019.018.018.019.02.019.018.019.019.018.019.02.018.018.02.02.018.018.02.019.018.019.02.019.018.02.02.018.018.02.02.018.018.02.02.019.019.019.019.019.02.02.018.018.02.02.019.019.02.02.018.018.02.02.019.019.02.02.019.019.019.02.02.018.019.02.02.02.019.019.02.02.019.019.019.02.02.019.019.02.02.019.02L13 26l.019.02.02.019.02.02.019.02.02.019.02.02.019.02.02.019.02.02.019.02.02.019.02.02.02.02.019.02.02.019.02.02.02.02.02.02.019.02.02.02.02.019.02.02.02.02.02.02.02.02.02.02.02.02.02.02.02.02.019.02.02.02.02.02.02.02.02.02.02.02.02.02.02.02.02.02.02.02.02.02.02.02.02.02.02.02.02.02.02.02.02.02.021.02.02.02.02.02.02.02.02.02.02.021.02.02.021.02.02.02.02.02.02.02.02.021.021.02.02.02.02.02.02.021.02.02.021.02.02.02.02.02.02.021.021.02.02.02.02.02.02.021.021.02.02.02.02.021.021.02.02.02.02.02.02.021.021.02.02.02.02.021.021.02.02.02.02.021.021.02.02.02.02.02.02.021.021.02.02.02.02.021.021.02.02.02.02.021.021.02.02.02.02.021.021.02.02.02.02.02.021.021.02.02.02.02.02.021.021.02.02.02.02.021.021.02.02.02.02.02.02.021.021.02.02.02.02.021L16 29l.707-.707 7.071-7.071a1 1 0 00-1.414-1.414z" clip-rule="evenodd"/></svg>