<svg xmlns="http://www.w3.org/2000/svg" width="16" height="16" viewBox="0 0 16 16"><path fill="currentColor" fill-rule="evenodd" d="M4.111 4.891a.5.5 0 00.707.707L7.5 2.916V7a.5.5 0 001 0V2.916l.004.004.01.01.012.011.01.011.011.011.011.01.01.012.012.01.01.011.011.011.01.01.012.011.01.011.011.01.01.012.011.01.011.01.01.011.011.011.01.01.011.011.011.01.01.011.011.01.01.011.011.01.01.011.011.01.01.011.01.01.011.011.01.01.011.01.01.011.01.01.011.01.01.011.01.01.011.01.01.011.01.01.01.01.01.01.011.01.01.011.01.01.01.01.01.01.01.01.01.01.01.01.011.01.01.01.01.01.01.01.01.01.01.01.01.01.01.01.01.01.01.01.01.01.01.01.01.01.009.01.01.01.01.01.01.01.01.009.009.01.01.01.01.009.009.01.01.01.01.009.009.01.01.01.009.009.01.01.009.009.01.01.009.009.01.01.009.009.01.01.009.009.01.009.009.01.009.009.01.01.009.008.009.01.01.01.009.008.009.01.009.009.01.009.008.01.01.008.009.01.009.009.009.009.01.009.008.009.01.009.008.009.01.009.008.009.01.009.008.009.01.009.008.009.009.009.009.009.009.008.008.01.01.008.008.009.009.009.009.008.008.01.009.008.009.008.008.01.009.008.009.008.008.009.009.009.008.008.009.009.008.008.009.009.008.008.009.009.008.008.009.008.008.009.008.008.009.009.008.008.008.008.009.009.008.008.008.008.008.008.009.008.008.009.008.008.008.008.008.008.008.008.008.008.008.008.008.008.008.008.008.008.008.008.008.008.008.008.008.008.008.008.008.008.008.007.007.008.008.008.008.008.008.008.007.007.008.008.008.008.007.007.008.008.008.007.007.008.008.008.007.007.008.008.007.007.008.008.007.007.008.007.007.008.007.007.008.007.007.008.007.007.007.007.008.008.007.007.007.007.007.007.008.007.007.007.007.008.007.007.007.007.007.007.007.007.007.007.007.007.007.007.007.007.007.006.007.007.006.007.007.007.007.007.007.007.006.006.007.007.007.007.007.006.006.007.007.007.006.006.007.007.007.006.006.007.007.006.006.007.006.006.007.007.006.006.007.006.006.007.006.006.007.006.006.007.006.006.006.006.007.006.006.007.006.006.006.006.006.006.006.006.006.006.006.006.006.006.006.006.006.006.006.006.006.006.006.006.006.005.005.006.006.006.006.006.006.005.005.006.006.006.006.006.005.005.006.006.005.005.006.006.006.005.005.006.006.005.005.006.005.005.006.006.005.005.005.005.006.006.005.005.005.005.006.005.005.006.005.005.005.005.005.005.005.005.005.005.005.005.005.005.005.005.005.005.005.005.005.005.005.005.005.005.005.005.005.004.004.005.005.005.005.004.004.005.005.005.005.004.004.005.005.005.004.004.005.005.004.004.005.005.004.004.005.004.004.005.004.004.005.004.004.005.004.004.004.004.005.004.004.005.004.004.004.004.004.004.004.004.004.004.004.004.004.004.004.004.004.004.004.004.004.004.004.003.003.004.004.004.004.004.004.003.003.004.004.004.003.003.004.004.004.003.003.004.004.004.003.003.004.003.003.004.003.003.004.004.003.003.003.003.004.003.003.004.003.003.003.003.003.003.004.003.003.003.003.003.003.003.003.003.003.003.003.003.003.003.002.003.003.003.003.003.003.003.002.002.003.003.003.003.003.002.002.003.003.003.002.002.003.003.002.002.003.003.002.002.003.002.002.003.002.002.003.002.002.003.002.002.002.002.003.002.002.003.002.002.002.002.002.002.002.002.002.002.002.002.002.002.002.002.002.002.002.001.001.002.002.002.002.002.002.001.001.002.002.002.002.001.001.002.002.002.001.001.002.002.001.001.002.001.001.002.001.001.002.001.001.002.001.001.001.001.002.001v.002h.002l.001.002h.001l.001.002h.001l.001.002h.001v.002h.002v.001l.001.001h.001v.002h.002v.001l.001.001h.001v.001h.001v.001l.001.001h.001v.001h.001v.001l.354-.353-.354.353a.5.5 0 10.707-.707l-.353.354.353-.354V4.89h-.001v-.001h-.001v-.001h-.001v-.001h-.002v-.002h-.001l-.001-.001v-.001l-.002-.001-.001-.002h-.001v-.001l-.002-.001v-.001l-.002-.001v-.001l-.002-.001-.001-.001-.001-.002h-.001l-.001-.002-.002-.001v-.001l-.002-.002-.002-.001v-.001l-.002-.002-.002-.001-.001-.002-.002-.001-.001-.002-.002-.001-.001-.002-.002-.001-.002-.002-.001-.002-.002-.001-.002-.002-.002-.002-.001-.002-.002-.002-.002-.001-.002-.002-.002-.002-.002-.002-.002-.002-.002-.002-.002-.002-.002-.002-.002-.003-.002-.002-.002-.002-.003-.002-.002-.002-.002-.003-.002-.002-.003-.002-.002-.003-.003-.002-.002-.002-.002-.003-.003-.002-.003-.003-.002-.003-.003-.002-.002-.003-.003-.002-.003-.003-.002-.003-.003-.003-.003-.002-.003-.003-.003-.003-.002-.003-.003-.003-.003-.003-.003-.003-.003-.003-.003-.003-.003-.003-.003-.003-.003-.003-.004-.003-.003-.003-.003-.003-.003-.004-.003-.003-.004-.003-.003-.004-.003-.003-.004-.003-.003-.004-.004-.003-.003-.004-.004-.003-.003-.004-.004-.003-.003-.004-.004-.003-.004-.004-.003-.004-.004-.003-.004-.004-.004-.004-.003-.004-.004-.004-.004-.003-.004-.004-.004-.004-.004-.004-.004-.004-.004-.004-.004-.004-.004-.004-.004-.004-.004-.004-.004-.005-.004-.004-.005-.004-.004-.004-.004-.004-.004-.005-.005-.004-.004-.004-.004-.005-.005-.004-.004-.005-.005-.004-.004-.004-.005-.005-.004-.004-.005-.005-.004-.005-.005-.004-.005-.005-.004-.005-.005-.004-.005-.005-.004-.005-.005-.005-.005-.004-.005-.005-.005-.005-.005-.005-.005-.005-.004-.005-.005-.005-.006-.005-.005-.005-.005-.005-.005-.005-.005-.005-.005-.005-.005-.006-.005-.005-.005-.005-.006-.005-.005-.005-.005-.006-.006-.005-.005-.005-.005-.006-.006-.005-.005-.006-.006-.005-.005-.006-.006-.005-.005-.006-.006-.005-.005-.006-.006-.006-.006-.005-.005-.006-.006-.006-.006-.005-.006-.006-.006-.006-.005-.006-.006-.006-.006-.005-.006-.006-.006-.006-.006-.006-.006-.006-.006-.006-.006-.006-.006-.006-.006-.006-.006-.006-.006-.006-.006-.007-.006-.006-.007-.006-.006-.006L11.2 4.2l-.006-.007-.007-.006-.006-.006-.006-.007-.007-.006-.006-.006-.006-.007-.007-.006-.006-.007-.007-.006-.006-.007-.007-.006-.006-.007-.007-.006-.007-.007-.006-.007-.007-.006-.007-.007-.006-.007-.007-.007-.007-.006-.007-.007-.006-.007-.007-.007-.007-.007-.007-.007-.007-.006-.007-.007-.007-.007L11 4.002l-.007-.007-.007-.007-.007-.007-.007-.008-.007-.007-.007-.007-.008-.007-.007-.007-.007-.007-.007-.008-.007-.007-.008-.007-.007-.007L10.9 3.9l-.008-.007-.007-.007-.007-.008-.008-.007-.007-.008-.008-.007-.007-.008-.008-.007-.007-.008-.008-.007-.007-.008-.008-.007-.008-.008-.007-.008-.008-.007-.008-.008-.007-.008-.008-.007-.008-.008-.007-.008-.008-.008-.008-.007-.008-.008-.008-.008-.008-.008-.008-.008-.008-.008-.008-.008-.007-.008-.008-.008-.008-.008-.009-.008-.008-.008-.008-.008-.008-.008-.008-.008-.008-.008-.008-.009-.008-.008-.009-.008-.008-.008-.008-.009-.008-.008-.009-.008-.008-.009-.008-.008-.009-.008-.008-.009-.009-.008-.008-.008-.009-.009-.008-.008-.008-.009-.009-.008-.008-.009-.01-.009-.008-.008-.008-.009-.009-.008-.009-.009-.008-.009-.009-.008-.009-.009-.008-.009-.01-.009-.008-.008-.009-.01-.008-.008-.01-.009-.008-.009-.009-.008-.009-.01-.009-.008-.009-.01-.009-.008-.009-.01-.009-.008-.009-.01-.009-.008-.009-.01-.009-.008-.009-.01-.009-.008-.01-.01-.008-.009-.01-.009-.009-.01-.009-.008-.01-.01-.008-.009-.01-.009-.009-.01-.01-.009-.008-.009-.01-.01-.01-.009-.009-.01-.009-.008-.01-.01-.009-.01-.01-.009-.009-.01-.01-.009-.009-.01-.01-.009L10 3l-.01-.009-.01-.01-.009-.01-.01-.009-.009-.01-.01-.01-.01-.009-.01-.01-.009-.01-.01-.009-.01-.01-.01-.01-.009-.01-.01-.01-.01-.009-.01-.01-.01-.01-.01-.01-.01-.01-.009-.01-.01-.01-.01-.01-.01-.01-.01-.01-.01-.01-.01-.01-.01-.01-.01-.01-.01-.01-.01-.01-.01-.01-.01-.01-.01-.01-.01-.01-.011-.01-.01-.01-.01-.01-.01-.011-.01-.01-.011-.01-.01-.01-.01-.011-.011-.01-.01-.01-.01-.011-.011-.01-.01-.011-.011-.01-.01-.01L9.5 2.5l-.011-.01-.01-.011-.011-.01-.01-.011-.011-.01-.01-.011-.011-.01-.011-.011-.01-.011-.011-.01-.01-.011-.011-.01-.011-.012-.01-.01-.012-.01-.01-.012-.01-.01-.012-.011-.01-.01-.011-.012-.011-.01-.01-.011-.012-.011-.01-.01-.011-.012-.011-.01-.011-.011-.01-.011-.012-.011-.01-.011-.012-.011-.01-.011-.012-.011-.01-.011-.012-.011-.01-.011-.012-.011-.01-.011-.012-.011-.01-.011-.012-.011-.011-.011-.011-.012-.011-.01-.011-.012L9 2.003l-.01-.011-.012-.011-.011-.012-.011-.01-.012-.012-.01-.011-.012-.012-.011-.01-.012-.012-.011-.011-.011-.012-.012-.011-.011-.012-.011-.01-.012-.012-.011-.012-.012-.011-.011-.011-.012-.012-.011-.011-.011-.012-.012-.011-.011-.012-.012-.011-.011-.012-.012-.011-.011-.012-.012-.011-.012-.012-.011-.012-.012-.011-.011-.012-.012-.011-.012-.012-.011-.012-.012-.011-.012-.012-.011-.012-.012-.012-.012-.011-.012-.012-.011-.012-.012-.011-.012-.012-.012-.012-.011-.012-.012-.012-.012-.011-.012-.012-.012-.012-.012-.012-.011-.012-.012-.012-.012-.012-.012-.012-.012-.011L8 1.002l-.353.354zM8.501 9a.5.5 0 00-1 0l.002 4.087-.006-.006-.011-.011-.01-.011-.012-.011-.01-.01-.011-.012-.011-.01-.01-.011-.012-.011-.01-.01-.011-.011-.01-.011-.012-.01-.01-.012-.011-.01-.01-.01-.011-.012-.01-.01-.012-.01-.01-.011-.01-.011-.011-.01-.01-.011-.011-.01-.01-.011-.011-.01-.01-.011-.011-.01-.01-.011-.011-.01-.01-.01-.01-.011-.011-.01-.01-.011-.011-.01-.01-.01-.01-.01-.01-.011-.011-.01-.01-.01-.01-.011-.011-.01-.01-.01-.01-.01-.01-.01-.01-.011-.01-.01-.01-.01-.011-.01-.01-.01-.01-.01-.01-.01-.01-.01-.01-.01-.01-.01-.01-.01-.01-.01-.01-.01-.01-.01-.01-.01-.01-.01-.01-.01-.01-.01-.01-.01-.01-.01-.009-.01-.01-.01-.01-.009-.01-.01-.009-.01-.01-.009-.01-.01-.01-.01-.009-.009-.01-.01-.009-.01-.01-.009-.01-.01-.009-.009-.01-.01-.009-.01-.01-.009-.009-.01-.01-.008-.009-.01-.01-.01-.009-.009-.009-.01-.01-.008-.009-.01-.009-.01-.01-.008-.009-.01-.009-.01-.009-.008-.01-.01-.008-.009-.01-.009-.009-.01-.009-.008-.01-.01-.008-.008-.01-.01-.008-.009-.01-.009-.008-.009-.01-.009-.008-.009-.01-.009-.008-.009-.01-.009-.008-.009-.01-.008-.008-.01-.009-.008-.009-.009-.009-.009-.008-.009-.01-.008-.008-.01-.009-.008-.008-.008-.009-.01-.009-.008-.008-.008-.009-.01-.008-.008-.01-.008-.008-.009-.008-.008-.009-.009-.008-.008-.009-.009-.008-.008-.009-.009-.008-.008-.008-.009-.009-.008-.008-.008-.008-.009-.009-.008-.008-.008-.008-.009-.008-.008-.009-.008-.008-.008-.008-.008-.008-.008-.008-.009-.008-.008-.009-.008-.008-.008-.008-.008-.008-.008-.008-.008-.008-.008-.008-.008-.008-.008L6 11.582l-.008-.008-.008-.008-.008-.007-.008-.008-.008-.008-.007-.008-.008-.008-.008-.007-.008-.008-.007-.008-.008-.007-.008-.008-.007-.008-.008-.007-.007-.008-.008-.007-.008-.008-.007-.007-.008-.008-.007-.007-.007-.008-.008-.007-.007-.008-.008-.007-.007-.007-.007-.008-.008-.007-.007-.007-.007-.007-.007-.008-.007-.007-.008-.007-.007-.007-.007-.007-.007-.007-.007-.007-.007-.007-.007-.007-.007-.008-.007-.007-.007-.006-.007-.007-.007-.007-.007-.007-.007-.007-.007-.007-.006-.007-.007-.007-.007-.006-.007-.007-.006-.007-.007-.006-.007-.007-.006-.007-.007-.006-.007-.007-.006-.007-.007-.006-.006-.007-.007-.006-.006-.007-.007-.006-.006-.006-.007-.007-.006-.006-.006-.007-.007-.006-.006-.006-.006-.006-.006-.007-.007-.006-.006-.006-.006-.006-.006-.006-.006-.006-.006-.007-.006-.006-.006-.006-.006-.006-.006-.006-.006-.006-.006-.006-.006-.006-.006-.005-.006-.006-.006-.006-.006-.006-.005-.006-.006-.005-.006-.006-.006-.006-.005-.006-.006-.005-.006-.006-.005-.006-.006-.005-.005-.006-.006-.005-.005-.006-.006-.005-.005-.005-.006-.006-.005-.005-.005-.006-.006-.005-.005-.005-.005-.006-.006-.005-.005-.005-.005-.005-.005-.006-.005-.005-.005-.005-.006-.005-.005-.005-.005-.005-.005-.005-.005-.005-.005-.005-.005-.005-.004-.005-.005-.005-.005-.004-.005-.005-.005-.005-.005-.005-.004-.005-.005-.004-.005-.005-.004-.005-.005-.004-.005-.005-.004-.004-.005-.005-.004-.004-.005-.005-.004-.004-.004-.005-.005-.004-.004-.005-.005-.004-.004-.004-.004-.005-.004-.004-.005-.004-.004-.004-.004-.004-.004-.005-.004-.004-.004-.004-.004-.004-.004-.004-.004-.004-.004-.004-.004-.004-.004-.004-.004-.003-.004-.004-.004-.004-.004-.004-.003-.004-.004-.003-.004-.004-.004-.004-.003-.004-.004-.003-.003-.004-.004-.003-.003-.004-.004-.003-.003-.004-.004-.003-.003-.004L5 10.583l-.003-.003-.003-.004-.004-.003-.003-.003-.003-.003-.003-.004-.004-.003-.003-.003-.003-.003-.003-.003-.003-.003-.003-.003-.003-.003-.003-.003-.003-.003-.003-.003-.003-.003-.002-.003-.003-.002-.003-.003-.003-.003-.002-.003-.003-.002-.003-.003-.002-.003-.003-.002-.003-.003-.002-.002-.003-.003-.002-.002-.003-.003-.002-.002-.002-.003-.003-.002-.002-.002-.002-.002-.002-.003-.003-.002-.002-.002-.002-.002-.002-.003-.002-.002-.002-.002-.002-.002-.002-.002-.002-.002-.002-.002-.002-.002-.002-.001-.002-.002-.002-.002-.001-.002-.002-.002-.002-.001-.002-.002-.001-.002-.002-.001-.001-.002-.002-.001-.002-.002-.001-.001-.001-.002-.002-.001-.001-.002h-.002v-.002l-.002-.002h-.001l-.002-.002v-.001l-.002-.001-.001-.002h-.001l-.001-.002h-.001l-.001-.002h-.001l-.001-.002H4.83l-.001-.001v-.001h-.002v-.002h-.001v-.001h-.001l-.001-.001v-.001h-.001v-.001h-.001v-.001H4.82v-.002h-.001l-.354.353.353-.354a.5.5 0 10-.707.707l.354-.353-.354.353.001.001h.001v.001l.001.001.001.001.001.001.001.001.001.001.002.001v.001l.001.001.002.002.002.002.002.002.002.002.002.002h.001l.001.002.001.001.002.002h.001l.001.002.002.002.001.001.001.001.002.002.001.001.002.002.001.001.002.002.002.002.001.001.002.002.002.002.001.001.002.002.002.002.002.002.002.002.002.002.002.002.002.002.002.002.002.002.002.002.002.002.002.002.002.002.002.002.002.002.003.003.002.002.002.002.003.002.002.003.002.002.003.003.002.002.003.003.002.002.003.003.002.002.003.003.003.003.002.002.003.003.003.003.003.003.002.002.003.003.003.003.003.003.003.003.003.003.003.003.003.003.003.003.003.003.003.003.003.003.004.004.003.003.003.003.003.003.004.004.003.003.003.003.004.004.003.003.003.003.004.004.003.003.004.004.004.003.003.004.004.004.003.003.004.004.004.004.003.003.004.004.004.004.004.004.004.004.004.003.004.005.003.003.004.004.004.004.004.004.005.004.004.005.004.004.004.004.004.004.004.004.004.004.005.005.004.004.004.004.005.005.004.004.004.004.005.005.004.004.005.005.004.004.005.005.004.004.005.005.005.005.004.004.005.005.005.005.004.004.005.005.005.005.005.005.005.005.004.004.005.005.005.005.005.005.005.005.005.005.005.005.005.005.005.005.006.006.005.005.005.005.005.005.005.005.006.006.005.005.005.005.005.005.006.006.005.005.006.006.005.005.006.005.005.006.006.005.005.006.006.006.005.005.006.006.006.005.005.006.006.006.006.006.005.005.006.006.006.006.006.006.006.006.006.005.006.006.005.006.006.006.006.006.006.006.006.006.007.007.006.006.006.006.006.006.006.006.006.006.006.006.007.007.006.006.006.006.007.007.006.006.006.006.007.007.006.006.007.007.006.006.007.007.006.006.007.007.006.006.007.007.006.006.007.007.007.007.006.006.007.007.007.007.007.007.006.006.007.007.007.007.007.007.007.007.007.007.007.007.007.007.007.007.007.007.007.007.007.007.007.007.007.007.007.007.007.007.007.007.008.008.007.007.007.007.007.007.008.008.007.007.007.007.008.008.007.007.007.007.008.008.007.007.008.008.007.007.008.008.007.007.008.008.008.008.007.007.008.008.008.007.007.008.008.008.008.008.007.007.008.008.008.008.008.008.008.008.008.008.007.007.008.008.008.008.008.008.008.008.008.008.008.008.008.008.008.008.008.008.009.008.008.009.008.008.008.008.008.008.008.008.009.009.008.008.008.008.009.008.008.009.008.008.009.008.008.009.008.008.009.009.008.008.009.009.008.008.009.009.008.008.009.009.008.008.009.009.009.009.008.008.009.009.009.009.008.008.01.009.008.009.009.009.008.008.01.01.008.008.009.009.009.009.009.009.009.008.008.01.01.008.008.01.01.008.008.01.01.008.008.01.01.008.009.01.009.009.009.009.01.009.008.01.01.008.009.01.009.009.01.009.008.01.01.009.009.009.01.01.009.009.009.009.01.01.009.009.01.01.009.009.01.01.009.008.01.01.009.01.01.01.009.009.01.01.009.009.01.01.01.01.009.009.01.01.01.01.009.009.01.01.01.01.01.009.009.01.01.01.01.01.01.01.01.01.009.009.01.01.01.01.01.01.01.01.01.01.01.01.01.01.01.01.01.01.01.01.01.01.01.01.01.01.01.01.01.01.01.01.01.01.01.01.01.01.011.011.01.01.01.01.01.01.011.011.01.01.01.01.011.011.01.01.011.01.01.011.01.01.011.011.01.01.011.011.01.01.011.011.01.01.011.011.01.01.011.011.01.01.011.011.011.01.01.012.011.01.01.01.012.012.01.01.011.01.01.012.011.01.011.011.01.01.012.012.01.01.011.011.011.011.011.011.01.01.012.012.01.01.012.011.01.011.011.011.011.011.011.011.011.011.011.011.011.011.011.011.011.011.012.011.01.011.012.012.01.01.012.012.011.011.011.011.011.011.012.011.01.012.012.01.011.012.011.011.012.012.01.01.012.012.012.011.01.012.012.011.011.011.012.012.011.011.012.011.011.012.011.011.012.012.011.011.012.012.011.011.012.012.011.011.012.012.011.011.012.012.011.011.012.012.011.011.012.012.012.011.011.012.012.012.011.011.012.012.012.012.011.011.012.012.012.012.012.011.011.012.012.012.012.012.012.011.011.012.012.012.012.012.012.012.012.012.011.011.012.012.012.012.012.012.012.012.012.012.012.012.353.353.354-.353 3.536-3.536a.5.5 0 00-.708-.707l-2.679 2.679z" clip-rule="evenodd"/></svg>