<svg xmlns="http://www.w3.org/2000/svg" width="12" height="12" viewBox="0 0 12 12"><g fill="none"><g clip-path="url(#svgID0)"><path fill="currentColor" fill-rule="evenodd" d="M2.693 3.307a.5.5 0 00.707.707l2.1-2.1V4.9a.5.5 0 001 0V1.914l.006.006.01.01.008.008.009.009.009.009.009.009.008.008.01.01.008.008.009.009.008.009.01.008.008.009.009.009.008.008.009.01.009.008.008.008.009.009.009.009.008.008.009.009.008.008.009.009.009.009.008.008.009.009.008.008.009.009.008.008.009.009.008.008.008.008.009.009.008.008.009.009.008.008.008.008.009.009.008.008.008.008.009.009.008.008.008.008.009.009.008.008.008.008.008.008.008.008.009.009.008.008.008.008.008.008.008.008.008.008.008.008.008.009.009.008.008.008.008.008.008.008.008.008.008.008.008.008.008.008.007.008.008.007.008.008.008.008.008.008.008.008.008.008.008.008.007.007.008.008.008.008.008.008.007.007.008.008.008.008.008.008.007.007.008.008.008.008.007.007.008.008.007.007.008.008.008.008.007.007.008.008.007.007.008.008.007.007.008.008.007.007.007.007.008.008.007.007.008.008.007.007.007.007.008.008.007.007.007.007.007.008.008.007.007.007.007.007.007.007.008.008.007.007.007.007.007.007.007.007.007.007.007.007.007.007.007.007.007.008.007.007.007.007.007.006.007.007.007.007.007.007.007.007.007.007.007.007.007.007.007.007.006.006.007.007.007.007.007.007.006.007.007.006.007.007.007.007.006.006.007.007.007.007.006.006.007.007.006.006.007.007.006.006.007.007.006.006.007.007.006.006.007.007.006.006.007.007.006.006.006.006.007.007.006.006.006.006.007.007.006.006.006.006.006.006.007.007.006.006.006.006.006.006.006.006.006.006.006.006.006.007.007.006.006.006.006.006.006.006.006.006.005.006.006.005.006.006.006.006.006.006.006.006.006.006.006.006.005.005.006.006.006.006.006.006.005.005.006.006.006.006.005.005.006.006.006.006.005.005.006.006.005.005.006.006.005.005.006.006.005.005.006.006.005.005.006.006.005.005.005.005.006.006.005.005.005.005.006.006.005.005.005.005.005.005.006.006.005.005.005.005.005.005.005.005.005.005.005.005.005.005.005.005.005.005.005.005.005.005.005.005.005.005.005.005.005.005.005.005.005.005.004.005.005.004.005.005.005.005.004.005.005.004.005.005.005.005.004.004.005.005.004.004.005.005.004.005.005.004.004.005.005.004.004.004.005.005.004.004.005.005.004.004.004.004.005.005.004.004.004.004.005.005.004.004.004.004.004.004.004.004.004.004.005.005.004.004.004.004.004.004.004.004.004.004.004.004.004.004.004.004.004.004.003.003.004.004.004.004.004.004.004.004.003.004.004.003.004.004.004.004.003.003.004.004.004.004.003.003.004.004.003.003.004.004.003.003.004.004.003.003.004.004.003.003.004.004.003.003.003.003.004.004.003.003.003.003.003.003.004.004.003.003.003.003.003.003.003.003.003.003.003.003.003.003.003.004.003.003.003.002.003.003.003.003.003.003.003.003.003.003.003.003.003.003.002.002.003.003.003.003.003.003.002.002.003.003.002.003.003.002.003.003.002.002.003.003.002.002.003.003.002.002.003.003.002.002.002.002.003.003.002.002.002.002.003.003.002.002.002.002.002.002.002.002.003.003.002.002.002.002.002.002.002.002.002.002.002.002.002.002.002.002.002.002.001.002.002.001.002.002.002.002.002.002.002.002.001.001.002.002.002.002.001.001.002.002.001.001.002.002.002.002.001.001.002.002.001.001.001.001.002.002.001.001.002.002.002.002.001.001.002.002.002.002.001.001.001.001.001.002h.002v.002h.002v.002h.002V4h.002l.001.001.001.001.002.002.001.001.001.001.001.001.001.001.001.001.001.001.001.001.001.001.001.001.354-.353-.353.354a.5.5 0 00.707-.707l-.354.353.354-.353v-.001h-.001l-.001-.001v-.001h-.001l-.001-.001-.001-.001L9.3 3.3h-.002v-.002h-.002v-.001l-.001-.001v-.001h-.002v-.002h-.001l-.001-.002H9.29V3.29l-.001-.001-.001-.001-.001-.002h-.001l-.002-.002-.002-.002-.001-.001-.001-.001-.001-.002h-.002l-.001-.002-.001-.002h-.002l-.001-.002-.001-.002-.002-.001-.001-.002-.002-.001-.001-.002-.002-.001-.001-.002-.002-.001-.002-.002-.001-.001-.002-.002-.002-.002-.001-.002-.002-.001-.002-.002-.002-.002-.002-.002-.001-.002-.002-.001-.002-.002-.002-.002-.002-.002-.002-.002-.002-.002-.002-.002-.002-.002-.002-.002-.002-.003-.003-.002-.002-.002-.002-.002-.002-.002-.002-.002-.003-.003-.002-.002-.002-.002-.003-.003L9.2 3.2l-.002-.003-.003-.002-.002-.002-.003-.003-.002-.002-.003-.003-.002-.002-.003-.003-.002-.003-.003-.002-.003-.003-.002-.003-.003-.002-.003-.003-.003-.003-.002-.002-.003-.003-.003-.003-.003-.003-.003-.003-.003-.003-.002-.003-.003-.003-.003-.003-.003-.003-.003-.003-.003-.003-.004-.003-.003-.003-.003-.003-.003-.003-.003-.003-.003-.003-.004-.004-.003-.003-.003-.003-.003-.003-.004-.004-.003-.003-.003-.003-.004-.004-.003-.003-.004-.004-.003-.003-.003-.004-.004-.003-.004-.004-.003-.003-.004-.004-.003-.003-.004-.004-.004-.004-.003-.003-.004-.004-.004-.004-.003-.004-.004-.003-.004-.004-.004-.004-.004-.004-.003-.004-.004-.004L9 3.001l-.004-.004-.004-.004-.004-.004-.004-.004-.004-.004-.004-.004-.004-.004-.004-.005-.004-.004-.005-.004-.004-.004-.004-.004-.004-.004-.004-.005-.005-.004-.004-.004-.004-.004-.005-.005-.004-.004-.004-.004-.005-.005-.004-.004-.004-.005L8.9 2.9l-.004-.005-.005-.004-.004-.005-.005-.004-.005-.005-.004-.004-.005-.005-.004-.005-.005-.004-.005-.005-.004-.005-.005-.004-.005-.005-.005-.005-.004-.005-.005-.004-.005-.005-.005-.005-.005-.005-.005-.005-.005-.005-.005-.005-.005-.005-.005-.005-.005-.005-.005-.005-.005-.005-.005-.005-.005-.005-.005-.005-.005-.005-.005-.005-.005-.005-.006-.006-.005-.005-.005-.005-.005-.005-.006-.006-.005-.005-.005-.005-.005-.006-.006-.005-.005-.005-.006-.006-.005-.005-.006-.006-.005-.005-.005-.006-.006-.005-.006-.006-.005-.005-.006-.006-.005-.005-.006-.006-.005-.006-.006-.005-.006-.006-.005-.006-.006-.005-.006-.006-.006-.006-.005-.006-.006-.005-.006-.006-.006-.006-.006-.006-.006-.006-.006-.006-.005-.006-.006-.006-.006-.006-.006-.005-.006-.006-.006-.006-.006-.007-.006-.006-.007-.006-.006-.006-.006-.006-.006-.006-.006-.006-.006-.006-.006-.007-.007-.006-.006-.006-.006-.006-.006-.006-.007-.007-.006-.006-.006-.006-.007-.007L8.4 2.4l-.006-.006-.007-.007-.006-.006-.007-.007-.006-.006-.007-.007-.006-.006-.007-.007-.006-.006-.007-.007-.006-.006-.007-.007-.006-.007-.007-.006-.007-.007-.006-.006-.007-.007-.007-.007-.006-.007-.007-.006-.007-.007-.007-.007-.006-.007-.007-.006-.007-.007-.007-.007-.007-.007-.007-.007-.007-.007L8.2 2.2l-.006-.007-.007-.007-.007-.007-.007-.007-.007-.007-.007-.007-.007-.007-.008-.007-.007-.007-.007-.007-.007-.007-.007-.007-.007-.007L8.1 2.1l-.007-.008-.008-.007-.007-.007-.007-.007-.007-.008-.008-.007-.007-.007-.007-.007-.008-.008-.007-.007-.007-.007-.008-.008-.007-.007-.007-.008-.008-.007-.007-.008-.008-.007-.007-.007-.008-.008-.007-.007-.008-.008-.007-.008-.008-.007-.008-.008-.007-.007-.008-.008L7.9 1.9l-.008-.008-.008-.008-.007-.007-.008-.008-.008-.008-.007-.008-.008-.007-.008-.008-.008-.008-.008-.008-.007-.007-.008-.008L7.8 1.8l-.008-.008-.008-.008-.008-.008-.008-.008-.007-.008-.008-.008-.008-.007-.008-.008-.008-.008-.008-.008-.008-.008-.008-.008-.008-.009-.008-.008-.008-.008-.009-.008-.008-.008-.008-.008-.008-.008-.008-.008-.008-.008-.008-.009-.009-.008-.008-.008-.008-.008-.008-.009-.009-.008-.008-.008-.008-.008-.008-.009-.009-.008-.008-.008-.008-.009-.009-.008-.008-.008-.009-.009L7.5 1.5l-.008-.009-.009-.008-.008-.008-.009-.009-.008-.008-.009-.009-.008-.008-.009-.009-.008-.009-.009-.008-.008-.009-.01-.008-.008-.009-.008-.008-.009-.01-.009-.008-.008-.008-.009-.009-.009-.009-.008-.008-.009-.01-.009-.008-.008-.009-.01-.008-.008-.01-.009-.008-.009-.009-.008-.008-.01-.01-.008-.008-.009-.009-.009-.009-.009-.009-.008-.009-.01-.009-.008-.008-.01-.01-.008-.008-.01-.01-.008-.008-.009-.01-.009-.008-.01-.01-.008-.008-.01-.01-.008-.008-.01-.01-.008-.008-.01-.01-.008-.009-.01-.009-.009-.009-.009-.009-.009-.01-.01-.008-.008-.01-.01-.009-.009-.009-.009-.01-.01-.008-.008-.01L6.95.95 6.941.94l-.01-.008-.009-.01-.009-.009-.01-.01-.008-.009-.01-.009-.01-.01-.009-.009-.009-.009-.01-.01-.009-.009-.01-.01L6.82.82 6.81.81 6.8.8 6.792.791l-.01-.01-.009-.009-.01-.01-.009-.009-.01-.01-.009-.009-.01-.01-.009-.01-.01-.009-.01-.01-.009-.009-.01-.01-.009-.01-.01-.009-.01-.01-.009-.009-.01-.01-.01-.01L6.61.61 6.6.599 6.59.59 6.58.58 6.57.57 6.56.56 6.55.55 6.542.542l-.01-.01-.01-.01-.01-.01-.009-.01-.01-.009-.01-.01-.01-.01-.01-.01-.01-.01-.009-.01-.01-.01-.01-.009-.01-.01-.01-.01-.01-.01-.01-.01-.01-.01-.01-.01-.01-.01L6 0l-.353.354zM6 6.6a.5.5 0 01.5.5v2.986l2.1-2.1a.5.5 0 01.707.707l-2.953 2.954L6 12l-.353-.353-.01-.01-.01-.01-.01-.01-.01-.01-.01-.01-.01-.01-.01-.01-.01-.01-.01-.01-.01-.01-.01-.01-.01-.01-.009-.009-.01-.01-.01-.01-.01-.01-.01-.01-.009-.009-.01-.01-.01-.01-.01-.01-.009-.009-.01-.01-.01-.01-.01-.01-.009-.009-.01-.01-.01-.01-.009-.009-.01-.01-.01-.01-.009-.009-.01-.01-.009-.009-.01-.01-.01-.01-.009-.009-.01-.01-.009-.009-.01-.01-.009-.009-.01-.01-.009-.009-.01-.01-.009-.009-.01-.01-.009-.009-.01-.01-.009-.008-.009-.01-.01-.01-.009-.009-.01-.01-.009-.008-.009-.01-.01-.01-.009-.008-.009-.01-.01-.01-.008-.008-.01-.01-.009-.009-.01-.01-.008-.008-.01-.01-.009-.009-.01-.01-.008-.008-.01-.01-.009-.009-.009-.009-.009-.009-.01-.009-.008-.01-.01-.008-.008-.01-.01-.008-.009-.01-.009-.008-.009-.01-.009-.009-.009-.009-.009-.009-.009-.009-.009-.008-.009-.01-.008-.008-.01-.01-.008-.008-.01-.01-.008-.008-.009-.009-.009-.009-.009-.009-.009-.008-.008-.01-.01-.008-.008-.009-.009-.009-.009-.008-.008-.01-.009-.008-.009-.009-.008-.008-.01-.01-.008-.008-.008-.008-.01-.01-.008-.008-.008-.008-.009-.009-.009-.009-.008-.008-.009-.009-.008-.008-.009-.009-.008-.008-.009-.009-.008-.008-.009-.009-.008-.008-.009-.009-.008-.008-.01-.01-.008-.008-.008-.008-.009-.009-.008-.008-.009-.008-.008-.009-.008-.008-.008-.008-.009-.009-.008-.008-.008-.008-.009-.008-.008-.009-.008-.008-.008-.008-.008-.008-.009-.008-.008-.009-.008-.008-.008-.008-.008-.008-.008-.008-.008-.008-.008-.008-.008-.008-.008-.008-.008-.008-.008-.008-.008-.008-.008-.008-.008-.008-.008-.008-.008-.008-.008-.008-.008-.008-.008-.008L4.2 10.2l-.008-.007-.007-.008-.008-.008-.008-.008-.008-.008-.007-.007-.008-.008-.008-.008-.008-.008-.007-.007-.008-.008-.008-.008L4.1 10.1l-.008-.008-.008-.008-.007-.007-.008-.008-.007-.007-.008-.008-.007-.007-.008-.008-.007-.007-.008-.008-.007-.007-.008-.008-.007-.007-.008-.008-.007-.007-.007-.007-.008-.008-.007-.007-.007-.007-.008-.008-.007-.007-.007-.007-.008-.007-.007-.008-.007-.007-.007-.007L3.9 9.9l-.008-.008-.007-.007-.007-.007-.007-.007-.007-.007-.007-.007-.007-.007-.007-.007-.007-.007-.007-.007-.007-.007-.007-.007-.007-.007L3.8 9.8l-.007-.007-.007-.007-.007-.007-.007-.007-.007-.006-.006-.007-.007-.007-.007-.007-.007-.007-.006-.006-.007-.007-.007-.007-.007-.007-.006-.006-.007-.007-.007-.007-.006-.006-.007-.007-.006-.006-.007-.007-.007-.007-.006-.006-.007-.007-.006-.006-.007-.007-.006-.006-.007-.006-.006-.007-.006-.006L3.6 9.6l-.006-.006-.006-.006-.007-.007-.006-.006-.006-.006-.007-.007-.006-.006-.006-.006-.006-.006-.007-.006-.006-.007-.006-.006-.006-.006-.006-.006-.006-.006-.006-.006-.006-.006-.006-.006-.006-.006-.006-.006-.006-.006-.006-.006-.006-.006-.006-.006-.006-.006-.006-.006-.006-.006-.006-.006-.005-.005-.006-.006-.006-.006-.006-.006-.005-.005-.006-.006-.006-.006-.006-.006-.005-.005-.006-.006-.005-.005-.006-.006-.006-.006-.005-.005-.006-.006-.005-.005-.006-.006-.005-.005-.006-.006-.005-.005-.005-.005-.006-.006-.005-.005-.006-.005-.005-.006-.005-.005-.005-.005-.006-.006-.005-.005-.005-.005-.005-.005-.006-.005-.005-.006-.005-.005-.005-.005-.005-.005-.005-.005-.005-.005-.005-.005-.005-.005-.005-.005-.005-.005-.005-.005-.005-.005-.005-.005-.005-.005-.005-.005-.004-.004-.005-.005-.005-.005-.005-.005-.005-.004-.004-.005-.005-.005-.005-.005-.004-.004-.005-.005-.005-.004-.004-.005-.005-.005-.004-.004-.005-.005-.004-.004L3.1 9.1l-.004-.004-.005-.005-.004-.004-.004-.004-.005-.005-.004-.004-.004-.004-.005-.005-.004-.004-.004-.004-.004-.004-.005-.005-.004-.004-.004-.004-.004-.004-.004-.004-.004-.004-.004-.004-.005-.004-.004-.005-.004-.004-.004-.003-.003-.004L3 9l-.004-.004-.004-.004-.004-.004-.004-.004-.004-.004-.004-.003-.003-.004-.004-.004-.004-.004-.003-.003-.004-.004-.004-.004-.003-.003-.004-.004-.004-.004-.003-.003-.004-.004-.003-.003-.004-.004-.003-.003-.004-.004-.003-.003-.003-.003-.004-.004-.003-.003-.003-.003-.004-.004L2.9 8.9l-.003-.003-.003-.003-.004-.004-.003-.003-.003-.003-.003-.003-.003-.003-.003-.003-.003-.003-.003-.003-.003-.003-.003-.003-.003-.003-.003-.003-.003-.003-.003-.003-.003-.003-.003-.003-.002-.002-.003-.003-.003-.003-.003-.003-.002-.002-.003-.003-.003-.003-.002-.002-.003-.003-.002-.002-.003-.003-.002-.002-.003-.003-.002-.002-.003-.003-.002-.002L2.8 8.8l-.002-.002-.002-.002-.003-.003-.002-.002-.002-.002-.003-.003-.002-.002-.002-.002-.002-.002-.002-.002-.002-.002-.002-.002-.003-.003-.002-.002-.002-.002-.002-.002-.002-.002-.001-.001-.002-.002-.002-.002-.002-.002-.002-.002-.002-.002-.002-.001-.001-.002-.002-.002-.002-.002-.001-.001-.002-.002-.002-.002-.001-.001-.002-.002-.001-.001-.002-.002-.001-.001-.002-.002-.001-.001-.002-.002h-.001l-.001-.002-.002-.002-.002-.002-.001-.001-.002-.002-.002-.002-.001-.001-.001-.001-.001-.001-.001-.001-.001-.001-.001-.001-.001-.001-.001-.001-.001-.001-.001-.001-.002-.002-.001-.001-.001-.001-.002-.001V8.7h-.002v-.002h-.001l-.001-.001-.001-.001h-.001v-.001h-.001v-.001l.353-.354.353-.354.001.001.001.001.001.001h.001v.001h.001v.001h.001v.002h.001l.002.001v.001h.001v.002h.002v.001L3.413 8h.001v.002h.002v.002h.002v.002h.002v.002h.002l.001.002h.001l.001.002.001.001.002.002.002.002.001.001.002.002.001.001.002.001v.002l.002.001.002.002.001.001.002.002.001.001.002.002.001.001.002.002.002.002.001.001.002.002.002.002.002.001.001.002.002.002.002.002.002.002.002.002.002.001.002.002.002.002.002.002.002.002.002.002.002.002.002.003.002.002.002.002.002.002.002.002.003.002.002.003.002.002.002.002.003.002.002.003.002.002.003.003.002.002.003.002.002.003.003.002.002.003.003.003.002.002.003.003.002.002.003.003.003.003.003.002.002.003.003.003.003.003.003.002.002.003.003.003.003.003.003.003.003.003.003.003.003.003.003.003.003.003.003.003.003.003.003.003.003.003.003.003.004.003.003.004.003.003.003.003.003.003.004.004.003.003.003.003.004.004.003.003.004.003.003.004.003.003.004.004.003.003.004.004.004.003.003.004.004.004.003.003.004.004.004.003.003.004.004.004.004.004.004.003.003.004.004.004.004.004.004.004.004.004.004.004.004.003.004.004.004.004.004.004.004.004.004.004.004.005.004.004.004.004.004.004.004.004.004.004.005.004.004.005.004.004.004.004.005.004.004.005.004.004.005.005.004.004.004.004.005.005.004.004.005.005.004.004.005.005.004.004.005.005.005.004.004.005.005.005.004.004.005.005.005.005.005.004.004.005.005.005.005.005.005.005.005.004.004.005.005.005.005.005.005.005.005.005.005.005.005.005.005.005.005.005.005.005.005.005.005.005.005.005.005.005.006.005.005.006.005.005.005.005.005.005.006.005.005.006.005.005.006.005.005.006.005.005.006.005.005.006.006.005.005.006.005.005.006.006.005.005.006.006.006.005.005.006.006.005.005.006.006.006.006.005.005.006.006.006.006.005.005.006.006.006.006.006.006.006.006.005.005.006.006.006.006.006.006.006.006.006.006.006.006.006.006.006.006.006.006.006.006.006.006.006.006.006.006.006.006.006.006.006.006.006.007.006.006.007.006.006.006.006.006.006.007.007.006.006.006.006.007.006.006.007.006.006.007.007.006.006.007.006.006.007.006.006.007.007.006.006.007.007.006.006.007.007.007.006.006.007.007.007.006.006.007.007.007.007.006.006.007.007.007.007.007.006.006.007.007.007.007.007.007.007.007.006.006.007.007.007.007.007.007.007.007.007.007.007.007.007.007.007.007.007.007.007.007.007.007.007.007.007.007.007.007.007.007.007.007.007.008.007.007.008.007.007.007.007.007.007.008.007.007.008.007.007.007.007.008.008.007.007.007.007.008.008.007.007.008.007.007.008.007.007.008.008.007.007.008.008.007.007.008.008.007.007.008.008.007.007.008.008.008.007.007.008.008.008.007.007.008.008.008.008.007.007.008.008.008.008.008.007.007.008.008.008.008.008.008.008.008.007.007.008.008.008.008.008.008.008.008.008.008.008.008.008.008.008.008.008.008.008.008.008.008.008.008.008.008.008.008.008.008.008.008.008.008.008.008.008.008.008.009.008.008.009.008.008.008.008.008.008.009.008.008.009.008.008.008.008.009.008.008.009.008.008.009.008.008.009.008.008.009.008.008.009.008.008.009.009.008.008.009.009.008.008.009.009.008.008.009.009.008.008.009.009.008.008.009.009.009.008.008.009.009.009.008.008.009.009.009.008.008.01.009.008.009.009.008.008.01.009.008.009.009.008.008.01.01.008.008.009.009.009.009.008.008.01.01.008.008.009.009.009.006.006V7.1a.5.5 0 01.5-.5M3.047 8.34l-.354.353a.5.5 0 01.707-.707z" clip-rule="evenodd"/></g><defs><clipPath id="svgID0"><path fill="#fff" d="M0 0h12v12H0z"/></clipPath></defs></g></svg>