<svg xmlns="http://www.w3.org/2000/svg" width="20" height="20" viewBox="0 0 20 20"><path fill="currentColor" fill-rule="evenodd" d="M1.979 4.75c0 .414.335.75.75.75H16.25a.75.75 0 100-1.5H2.73a.75.75 0 00-.75.75m0 10c0 .414.335.75.75.75h5.107a.75.75 0 000-1.5H2.729a.75.75 0 00-.75.75m12.884-3.569a1.681 1.681 0 11-3.363 0 1.681 1.681 0 013.363 0m1.5 0c0 .606-.17 1.173-.463 1.655l1.31 1.319a.75.75 0 01-1.064 1.057l-1.306-1.315a3.181 3.181 0 111.523-2.716M2.73 10.5a.75.75 0 010-1.5h4.376a.75.75 0 110 1.5z" clip-rule="evenodd"/></svg>