<svg xmlns="http://www.w3.org/2000/svg" width="12" height="12" viewBox="0 0 12 12"><path fill="currentColor" fill-rule="evenodd" d="M6 0a1 1 0 00-1 1v9H3.5a.5.5 0 000 1H5a1 1 0 001-1V1h1.5a.5.5 0 000-1zM.5 2a.5.5 0 000 1H3a.5.5 0 000-1zM0 6.5A.5.5 0 01.5 6H3a.5.5 0 010 1H.5a.5.5 0 01-.5-.5M.5 4a.5.5 0 000 1H2a.5.5 0 000-1zM0 8.5A.5.5 0 01.5 8H2a.5.5 0 010 1H.5a.5.5 0 01-.5-.5m8.5-6A.5.5 0 019 2h2.5a.5.5 0 010 1H9a.5.5 0 01-.5-.5m0 4A.5.5 0 019 6h2.5a.5.5 0 010 1H9a.5.5 0 01-.5-.5M9 4a.5.5 0 000 1h1.5a.5.5 0 000-1zm-.5 4.5A.5.5 0 019 8h1.5a.5.5 0 010 1H9a.5.5 0 01-.5-.5" clip-rule="evenodd"/></svg>