<svg xmlns="http://www.w3.org/2000/svg" width="32" height="32" viewBox="0 0 32 32"><path fill="currentColor" fill-rule="evenodd" d="M17 6a2 2 0 00-2 2v16h-2a1 1 0 100 2h2a2 2 0 002-2V8h2a1 1 0 100-2zM3 10a1 1 0 011-1h6a1 1 0 110 2H4a1 1 0 01-1-1m0 8a1 1 0 011-1h6a1 1 0 110 2H4a1 1 0 01-1-1m1-5a1 1 0 100 2h4a1 1 0 100-2zm-1 9a1 1 0 011-1h4a1 1 0 110 2H4a1 1 0 01-1-1M22 9a1 1 0 100 2h6a1 1 0 100-2zm-1 9a1 1 0 011-1h6a1 1 0 110 2h-6a1 1 0 01-1-1m1-5a1 1 0 100 2h4a1 1 0 100-2zm-1 9a1 1 0 011-1h4a1 1 0 110 2h-4a1 1 0 01-1-1" clip-rule="evenodd"/></svg>