<svg xmlns="http://www.w3.org/2000/svg" width="16" height="16" viewBox="0 0 16 16"><path fill="currentColor" fill-rule="evenodd" d="M7 4a1 1 0 011-1h1.5a.5.5 0 010 1H8v9a1 1 0 01-1 1H5.5a.5.5 0 010-1H7zM1 5.5a.5.5 0 01.5-.5h3a.5.5 0 010 1h-3a.5.5 0 01-.5-.5M1.5 9a.5.5 0 000 1h3a.5.5 0 000-1zM1 7.5a.5.5 0 01.5-.5H3a.5.5 0 010 1H1.5a.5.5 0 01-.5-.5m.5 3.5a.5.5 0 000 1H3a.5.5 0 000-1zM11 5.5a.5.5 0 01.5-.5h3a.5.5 0 010 1h-3a.5.5 0 01-.5-.5m.5 3.5a.5.5 0 000 1h3a.5.5 0 000-1zM11 7.5a.5.5 0 01.5-.5H13a.5.5 0 010 1h-1.5a.5.5 0 01-.5-.5m.5 3.5a.5.5 0 000 1H13a.5.5 0 000-1z" clip-rule="evenodd"/></svg>