<svg xmlns="http://www.w3.org/2000/svg" width="24" height="24" viewBox="0 0 24 24"><path fill="currentColor" fill-rule="evenodd" d="M14.5 4.236a.75.75 0 01-.736.764c-.502.01-.865.01-1.264.008V19.25c0 .69-.56 1.25-1.25 1.25h-1.5a.75.75 0 010-1.5H11V4.757c0-.698.57-1.258 1.264-1.25.495.004.884.004 1.472-.007a.75.75 0 01.764.736M2.75 6.5a.75.75 0 000 1.5H7.5a.75.75 0 100-1.5zm.003 6a.75.75 0 00-.006 1.5l4.75.016a.75.75 0 00.006-1.5zM2 10.25a.75.75 0 01.75-.75H6A.75.75 0 016 11H2.75a.75.75 0 01-.75-.75m.75 5.25a.75.75 0 000 1.5H6a.75.75 0 000-1.5zm13-8.25a.75.75 0 01.75-.75h4.75a.75.75 0 010 1.5H16.5a.75.75 0 01-.75-.75m0 5.998a.75.75 0 01.753-.748l4.75.016a.75.75 0 01-.006 1.5L16.498 14a.75.75 0 01-.747-.752M16.5 9.5a.75.75 0 000 1.5h3.25a.75.75 0 000-1.5zm-.75 6.75a.75.75 0 01.75-.75h3.25a.75.75 0 010 1.5H16.5a.75.75 0 01-.75-.75" clip-rule="evenodd"/></svg>