<svg width="12" height="13" viewBox="0 0 12 13" xmlns="http://www.w3.org/2000/svg">
    <mask id="mask0_9798_40573" style="mask-type:alpha" maskUnits="userSpaceOnUse" width="12" height="13">
        <path fill-rule="evenodd" clip-rule="evenodd" d="M10.7035 9.14717L7.4008 3.31096C7.04635 2.68464 6.54879 2.33984 6.00034 2.33984C5.45145 2.33984 4.95389 2.68464 4.59945 3.31096L1.29642 9.14717C0.943534 9.77117 0.904423 10.3782 1.18609 10.8572C1.46765 11.3356 2.01965 11.5991 2.7401 11.5991H9.26014C9.9807 11.5991 10.5323 11.3356 10.8138 10.8572C11.0957 10.3787 11.0564 9.77117 10.7035 9.14717ZM5.44446 5.1175C5.44446 4.81089 5.69328 4.56207 5.99977 4.56207C6.30675 4.56207 6.55557 4.81089 6.55557 5.1175C6.55557 5.12835 6.55424 5.13852 6.55292 5.14866C6.55224 5.15389 6.55156 5.15912 6.55106 5.16444H6.55398L6.33247 7.85541H6.33064C6.31625 8.02621 6.17459 8.16117 5.99989 8.16117C5.82568 8.16117 5.68389 8.02597 5.66951 7.85541H5.6678L5.44616 5.16444H5.44897C5.4485 5.15847 5.44773 5.1526 5.44696 5.14672C5.44571 5.13722 5.44446 5.12766 5.44446 5.1175ZM6.74073 9.37688C6.74073 9.78598 6.40909 10.1176 5.99999 10.1176C5.59089 10.1176 5.25925 9.78598 5.25925 9.37688C5.25925 8.96778 5.59089 8.63614 5.99999 8.63614C6.40909 8.63614 6.74073 8.96778 6.74073 9.37688ZM9.28386 10.8584C9.71665 10.8584 10.0433 10.7255 10.1807 10.4927C10.3174 10.2598 10.2743 9.91154 10.0623 9.5373L6.73592 3.66561C6.52529 3.29381 6.25724 3.08058 6.00039 3.08058C5.7432 3.08058 5.47504 3.29381 5.26396 3.66561L1.9374 9.5373C1.72565 9.91154 1.68245 10.2598 1.81977 10.4927C1.95665 10.7248 2.28379 10.8584 2.71646 10.8584H9.28386Z"/>
    </mask>
    <g mask="url(#mask0_9798_40573)">
        <rect y="0.839844" width="12" height="12" fill="currentColor"/>
    </g>
</svg>
