<svg fill="currentColor" viewBox="0 0 24 24" version="1.1" xmlns="http://www.w3.org/2000/svg" xmlns:xlink="http://www.w3.org/1999/xlink">
    <path d="M10.1307457,19.3529028 L10.6823289,19.9047619 C10.8321424,20.0546503 11.0125968,20.1295934 11.2236977,20.1295934 C11.4347985,20.1295934 11.6152529,20.0546503 11.7650664,19.9047619 L16.1573034,15.5103283 L8.49642492,7.84561861 L4.10418795,12.2400522 C3.95437446,12.3899406 3.87946885,12.5704853 3.87946885,12.7816917 C3.87946885,12.9928981 3.95437446,13.1734428 4.10418795,13.3233312 L4.6557712,13.8751903 L6.29009193,12.219613 C6.45352482,12.0697246 6.64078887,11.9947815 6.85188968,11.9947815 C7.0629905,11.9947815 7.24344494,12.0697246 7.39325843,12.219613 C7.54307191,12.3831276 7.61797753,12.5704853 7.61797753,12.7816917 C7.61797753,12.9928981 7.54307191,13.1734428 7.39325843,13.3233312 L5.73850868,14.9789085 L6.84167518,16.0621874 L7.39325843,15.5307676 C7.54307191,15.3672529 7.72352635,15.2854968 7.93462717,15.2854968 C8.14572799,15.2854968 8.33299203,15.3604399 8.49642492,15.5103283 C8.64623841,15.6602167 8.72114402,15.8441679 8.72114402,16.0621874 C8.72114402,16.2802069 8.6394288,16.4641581 8.47599591,16.6140465 L7.94484168,17.1659056 L9.02757916,18.2491846 L11.7854954,15.5103283 C11.9353089,15.3604399 12.1157633,15.2854968 12.3268641,15.2854968 C12.537965,15.2854968 12.7184194,15.3604399 12.8682329,15.5103283 C13.0180464,15.6602167 13.092952,15.8441679 13.092952,16.0621874 C13.092952,16.2802069 13.0180464,16.4641581 12.8682329,16.6140465 L10.1307457,19.3529028 Z M14.5229826,5.10676234 L16.7088866,2.91976517 C17.3081406,2.30658532 18.0367679,2 18.8947906,2 C19.7528133,2 20.4814407,2.30658532 21.0806946,2.91976517 C21.6935679,3.51931879 22,4.24831056 22,5.10676234 C22,5.96521412 21.6935679,6.69420589 21.0806946,7.29375951 L18.8947906,9.48075668 L20.5495403,11.136334 C20.9989808,11.5859992 21.2236977,12.1310398 21.2236977,12.7714721 C21.2236977,13.4119043 20.9921712,13.9637579 20.5291113,14.4270494 L18.3432074,16.6140465 C18.1933939,16.7639349 18.0129394,16.838878 17.8018386,16.838878 C17.5907378,16.838878 17.4102834,16.7639349 17.2604699,16.6140465 L12.3166496,21.5399 C12.0170227,21.8396768 11.652709,21.9929694 11.2236977,21.9997826 C10.7946863,22.0065957 10.4303726,21.853303 10.1307457,21.5399 L2.4494382,13.8751903 C2.14981124,13.5754134 2,13.2109176 2,12.7816917 C2,12.3524658 2.15662084,11.9811569 2.46986721,11.6677539 L7.39325843,6.74190041 C7.24344494,6.59201201 7.16853933,6.41146732 7.16853933,6.20026093 C7.16853933,5.98905453 7.24344494,5.80850984 7.39325843,5.65862144 L9.57916241,3.45118504 C10.0286029,3.00151982 10.5767758,2.77669058 11.2236977,2.77669058 C11.8706195,2.77669058 12.4187924,3.00151982 12.8682329,3.45118504 L14.5229826,5.10676234 Z M10.6823289,4.55490324 L9.02757916,6.19004131 L17.7916241,14.9789085 L19.4463739,13.3233312 C19.5961873,13.1734428 19.671093,12.9928981 19.671093,12.7816917 C19.671093,12.5704853 19.5961873,12.3831276 19.4463739,12.219613 L11.7650664,4.55490324 C11.6152529,4.40501483 11.4347985,4.33007175 11.2236977,4.33007175 C11.0125968,4.33007175 10.8321424,4.40501483 10.6823289,4.55490324 Z M17.7916241,4.00304414 L15.6057201,6.19004131 L17.7916241,8.39747771 L19.9979571,6.19004131 C20.2975841,5.8902645 20.4473953,5.52576862 20.4473953,5.09654273 C20.4473953,4.66731684 20.2975841,4.30282095 19.9979571,4.00304414 C19.6847107,3.70326733 19.3169922,3.55338117 18.8947906,3.55338117 C18.472589,3.55338117 18.1048705,3.70326733 17.7916241,4.00304414 Z" id="Icon_Appearance" ></path>
</svg>
