<svg fill="currentColor" viewBox="0 0 24 24" version="1.1" xmlns="http://www.w3.org/2000/svg" xmlns:xlink="http://www.w3.org/1999/xlink">
    <path d="M10.5859873,10.4213484 L15.8853503,5.12198531 C17.4140127,3.59332289 19.8598726,3.59332289 21.2866242,5.12198531 L22,5.8353611 L15.9872611,11.8481 L21.7961783,17.6570172 L21.0828025,18.370393 C19.5541401,19.8990554 17.1082803,19.8990554 15.6815287,18.370393 L11.2993631,13.9882273 L12.6242038,12.6633866 L19.1464968,6.14109359 C18.5350318,5.93727193 17.8216561,6.14109359 17.3121019,6.65064773 L9.15923567,14.803514 C10.0764331,16.2302656 9.87261146,18.1665713 8.5477707,19.4914121 C7.01910828,21.0200745 4.57324841,21.0200745 3.14649682,19.4914121 C1.71974522,17.9627496 1.61783439,15.5168898 3.14649682,14.0901382 C4.36942675,12.8672082 6.30573248,12.6633866 7.8343949,13.4786732 L9.2611465,12.0519216 L7.8343949,10.62517 C6.40764331,11.5423675 4.47133758,11.3385458 3.14649682,10.0137051 C1.61783439,8.28122098 1.61783439,5.8353611 3.14649682,4.40860951 C4.67515924,2.98185792 7.12101911,2.87994709 8.5477707,4.40860951 C9.77070064,5.63153945 9.97452229,7.56784518 9.15923567,9.0965076 L10.5859873,10.4213484 Z M13.9490446,13.8863165 L17.0063694,16.9436414 C17.5159236,17.4531955 18.2292994,17.6570172 18.8407643,17.4531955 L14.6624204,13.2748516 L13.9490446,13.8863165 Z M7.22292994,8.38313181 C7.93630573,7.66975601 7.93630573,6.44682607 7.22292994,5.63153945 C6.50955414,4.91816365 5.2866242,4.91816365 4.47133758,5.63153945 C3.75796178,6.34491524 3.75796178,7.56784518 4.47133758,8.38313181 C5.2866242,9.19841843 6.40764331,9.19841843 7.22292994,8.38313181 Z M7.22292994,17.9627496 C7.93630573,17.2493738 7.93630573,16.0264439 7.22292994,15.2111573 C6.50955414,14.4977815 5.2866242,14.4977815 4.47133758,15.2111573 C3.75796178,15.9245331 3.75796178,17.147463 4.47133758,17.9627496 C5.2866242,18.6761254 6.40764331,18.6761254 7.22292994,17.9627496 Z" id="Icon_cut" ></path>
</svg>
