<svg fill="currentColor" viewBox="0 0 33 33" xmlns="http://www.w3.org/2000/svg">
<path fill-rule="evenodd" clip-rule="evenodd" d="M25.2145 20.1901C25.2145 21.2491 25.0192 22.3472 24.6286 23.4844C24.238 24.6215 23.6564 25.6632 22.8838 26.6094C22.1112 27.5556 21.1477 28.3368 19.9932 28.9531C18.8386 29.5694 17.4975 29.8776 15.9697 29.8776C14.4593 29.8776 13.1312 29.5694 11.9854 28.9531C10.8395 28.3368 9.87598 27.5556 9.09473 26.6094C8.31347 25.6632 7.72754 24.6215 7.33691 23.4844C6.94629 22.3472 6.75098 21.2491 6.75098 20.1901C6.75098 17.9852 7.23274 15.8629 8.19629 13.8229C9.15984 11.783 10.2189 9.97744 11.3734 8.40625C12.5279 6.83506 13.5826 5.57639 14.5374 4.63021L15.9697 3.21094L17.402 4.63021C18.3569 5.57639 19.4116 6.83506 20.5661 8.40625C21.7206 9.97744 22.7796 11.783 23.7432 13.8229C24.7067 15.8629 25.1972 17.9852 25.2145 20.1901ZM15.9827 6.09128C15.4921 6.61687 14.9973 7.16717 14.4984 7.74218C13.9862 8.33246 13.4958 8.95746 13.027 9.61718C12.3673 10.52 11.7727 11.4227 11.2432 12.3255C10.7136 13.2283 10.2709 14.1224 9.91504 15.0078C9.55913 15.8932 9.2857 16.77 9.09473 17.638C8.90375 18.5061 8.80827 19.3568 8.80827 20.1901C8.80827 21.1797 8.98622 22.1345 9.34212 23.0547C9.69803 23.9748 10.1928 24.7865 10.8265 25.4896C11.4602 26.1927 12.2154 26.7569 13.0921 27.1823C13.9689 27.6076 14.9281 27.8203 15.9697 27.8203C17.0288 27.8203 17.9966 27.6076 18.8734 27.1823C19.7501 26.7569 20.5097 26.1927 21.152 25.4896C21.7944 24.7865 22.2935 23.9748 22.6494 23.0547C23.0053 22.1345 23.1746 21.1797 23.1572 20.1901C23.1572 19.3568 23.0574 18.5104 22.8577 17.651C22.6581 16.7917 22.3803 15.9193 22.0244 15.0338C21.6685 14.1484 21.2301 13.2543 20.7093 12.3516C20.1885 11.4488 19.5982 10.546 18.9385 9.64322C18.4697 8.9835 17.9793 8.35417 17.4671 7.7552C16.9682 7.17173 16.4734 6.61709 15.9827 6.09128ZM15.3708 23.1328C15.7701 22.7335 15.9697 22.2474 15.9697 21.6745C15.9697 21.1016 15.7701 20.6155 15.3708 20.2161C14.9715 19.8168 14.494 19.6172 13.9385 19.6172C13.3656 19.6172 12.8795 19.8168 12.4801 20.2161C12.0808 20.6155 11.8812 21.1016 11.8812 21.6745C11.8812 22.2474 12.0808 22.7335 12.4801 23.1328C12.8795 23.5321 13.3656 23.7318 13.9385 23.7318C14.494 23.7318 14.9715 23.5321 15.3708 23.1328Z" />
</svg>
