<svg fill="currentColor" viewBox="0 0 24 24" version="1.1" xmlns="http://www.w3.org/2000/svg" xmlns:xlink="http://www.w3.org/1999/xlink">
    <path d="M12,22 C10.6197848,22 9.32096963,21.7395859 8.10351562,21.21875 C6.88606162,20.6979141 5.82487432,19.9850306 4.91992188,19.0800781 C4.01496943,18.1751257 3.30208594,17.1139384 2.78125,15.8964844 C2.26041406,14.6790304 2,13.3802152 2,12 C2,10.6197848 2.26041406,9.32096963 2.78125,8.10351562 C3.30208594,6.88606162 4.01496943,5.82487432 4.91992188,4.91992188 C5.82487432,4.01496943 6.88606162,3.30208594 8.10351562,2.78125 C9.32096963,2.26041406 10.6197848,2 12,2 C13.3802152,2 14.6790304,2.26041406 15.8964844,2.78125 C17.1139384,3.30208594 18.1751257,4.01496943 19.0800781,4.91992188 C19.9850306,5.82487432 20.6979141,6.88606162 21.21875,8.10351562 C21.7395859,9.32096963 22,10.6197848 22,12 C22,13.3802152 21.7395859,14.6790304 21.21875,15.8964844 C20.6979141,17.1139384 19.9850306,18.1751257 19.0800781,19.0800781 C18.1751257,19.9850306 17.1139384,20.6979141 15.8964844,21.21875 C14.6790304,21.7395859 13.3802152,22 12,22 Z M8.81818182,11.0909091 C9.57129739,11.0909091 10.1818182,10.4803883 10.1818182,9.72727273 C10.1818182,8.97415716 9.57129739,8.36363636 8.81818182,8.36363636 C8.06506625,8.36363636 7.45454545,8.97415716 7.45454545,9.72727273 C7.45454545,10.4803883 8.06506625,11.0909091 8.81818182,11.0909091 Z M15.1818182,11.0909091 C15.9349337,11.0909091 16.5454545,10.4803883 16.5454545,9.72727273 C16.5454545,8.97415716 15.9349337,8.36363636 15.1818182,8.36363636 C14.4287026,8.36363636 13.8181818,8.97415716 13.8181818,9.72727273 C13.8181818,10.4803883 14.4287026,11.0909091 15.1818182,11.0909091 Z M7.45454545,16.0909091 L16.5454545,16.0909091 C17.0475316,16.0909091 17.4545455,15.6838952 17.4545455,15.1818182 C17.4545455,14.6797411 17.0475316,14.2727273 16.5454545,14.2727273 L7.45454545,14.2727273 C6.95246841,14.2727273 6.54545455,14.6797411 6.54545455,15.1818182 C6.54545455,15.6838952 6.95246841,16.0909091 7.45454545,16.0909091 Z" id="Icon_NeutralLines" ></path>
</svg>
