<svg xmlns="http://www.w3.org/2000/svg" width="24" height="24" viewBox="0 0 24 24"><path fill="currentColor" fill-rule="evenodd" d="M19 5.5H5a1.5 1.5 0 00-.44.066l7.445 7.444 7.442-7.442A1.5 1.5 0 0019 5.5ZM3.5 7c0-.115.013-.227.038-.335l5.37 5.371-5.356 5.357A1.502 1.502 0 013.5 17V7Zm1.116 11.45c.122.033.251.05.384.05h14c.136 0 .268-.018.393-.052l-5.353-5.352-1.505 1.505-.53.53-.53-.53-1.506-1.504-5.353 5.353ZM15.1 12.035l5.35 5.35c.032-.123.049-.252.049-.385V7c0-.113-.012-.222-.036-.328L15.1 12.035ZM5 4a3 3 0 00-3 3v10a3 3 0 003 3h14a3 3 0 003-3V7a3 3 0 00-3-3H5Z" clip-rule="evenodd"/></svg>