<svg fill="currentColor" viewBox="0 0 24 24" version="1.1" xmlns="http://www.w3.org/2000/svg" xmlns:xlink="http://www.w3.org/1999/xlink">
    <path d="M12.7142857,15.942029 L13.9565217,15.942029 L13.9565217,17.3586957 L10.0434783,17.3586957 L10.0434783,15.942029 L11.2857143,15.942029 L11.2857143,10.8913043 L9.46753247,10.8913043 L9.46753247,11.8152174 L8.03896104,11.8152174 L8.03896104,9.47463768 L9.46753247,9.47463768 L14.5324675,9.47463768 L15.961039,9.47463768 L15.961039,11.8152174 L14.5324675,11.8152174 L14.5324675,10.8913043 L12.7142857,10.8913043 L12.7142857,15.942029 Z M8.42858699,6.33333333 C8.42857662,6.33111232 8.42857143,6.32889009 8.42857143,6.32666667 L8.42857143,4.91333333 C8.42857143,4.13277089 9.06816464,3.5 9.85714286,3.5 L14.1428571,3.5 C14.9318354,3.5 15.5714286,4.13277089 15.5714286,4.91333333 L15.5714286,6.32666667 C15.5714286,6.32889009 15.5714234,6.33111232 15.571413,6.33333333 L20.5714286,6.33333333 C21.3604068,6.33333333 22,6.9675966 22,7.75 L22,19.0833333 C22,19.8657367 21.3604068,20.5 20.5714286,20.5 L3.42857143,20.5 C2.63959321,20.5 2,19.8657367 2,19.0833333 L2,7.75 C2,6.9675966 2.63959321,6.33333333 3.42857143,6.33333333 L8.42858699,6.33333333 Z M3.42857143,7.75 L3.42857143,19.0833333 L20.5714286,19.0833333 L20.5714286,7.75 L3.42857143,7.75 Z M9.85714286,4.91666667 L9.85714286,6.33333333 L14.1428571,6.33333333 L14.1428571,4.91666667 L9.85714286,4.91666667 Z" id="Icon_FontKit" ></path>
</svg>
