<svg width="19" height="19" viewBox="0 0 19 19" fill="none" xmlns="http://www.w3.org/2000/svg">
    <path fill-rule="evenodd" clip-rule="evenodd" d="M15.4787 1.09751C14.7428 0.361553 13.5654 0.313062 12.7714 0.986012L4.20221 8.24888C3.94229 8.46918 3.74295 8.75224 3.62312 9.07119L2.1297 13.0462C1.99398 13.4074 2.07836 13.8139 2.3451 14.0911L0.646552 15.6821L0.559641 15.7767C-0.47138 16.8986 0.324453 18.7108 1.84818 18.7108H3.35616C3.77794 18.7108 4.18554 18.5585 4.50393 18.2818L5.61979 17.3123C5.8726 17.4533 6.17908 17.48 6.45849 17.375L10.4335 15.8816C10.7524 15.7617 11.0355 15.5624 11.2558 15.3025L18.5187 6.73332C19.1916 5.93933 19.1431 4.76193 18.4072 4.02597L15.4787 1.09751ZM17.3465 5.08663L14.4181 2.15817C14.2341 1.97418 13.9397 1.96206 13.7412 2.1303L5.51106 9.10585L10.3988 13.9936L17.3744 5.76347C17.5426 5.56497 17.5305 5.27062 17.3465 5.08663ZM3.64718 13.2722L4.71468 10.4308L9.07389 14.79L6.23253 15.8575L3.64718 13.2722ZM4.52775 16.274L3.40619 15.1525L1.71299 16.7384L1.6641 16.7916C1.51681 16.9519 1.63051 17.2108 1.84818 17.2108H3.35616C3.41641 17.2108 3.47464 17.189 3.52013 17.1495L4.52775 16.274Z" fill="#2D3232"/>
    <path d="M10.5999 17.0104C10.1856 17.0104 9.84985 17.3462 9.84985 17.7604C9.84985 18.1746 10.1856 18.5104 10.5999 18.5104L15.6965 18.5104C16.1107 18.5104 16.4465 18.1746 16.4465 17.7604C16.4465 17.3462 16.1107 17.0104 15.6965 17.0104H10.5999Z" fill="#2D3232"/>
</svg>
