<svg fill="currentColor" viewBox="0 0 24 24" version="1.1" xmlns="http://www.w3.org/2000/svg" xmlns:xlink="http://www.w3.org/1999/xlink">
    <path d="M5.79344746,4.63636364 L8.57004183,7.41295801 C9.52615317,6.69687563 10.713544,6.27272727 12,6.27272727 C13.286456,6.27272727 14.4738468,6.69687563 15.4299582,7.41295801 L18.2065525,4.63636364 L5.79344746,4.63636364 Z M4.63636364,5.79344746 L4.63636364,18.2065525 L7.41295801,15.4299582 C6.69687563,14.4738468 6.27272727,13.286456 6.27272727,12 C6.27272727,10.713544 6.69687563,9.52615317 7.41295801,8.57004183 L4.63636364,5.79344746 Z M19.3636364,18.2065525 L19.3636364,5.79344746 L16.587042,8.57004183 C17.3031244,9.52615317 17.7272727,10.713544 17.7272727,12 C17.7272727,13.286456 17.3031244,14.4738468 16.587042,15.4299582 L19.3636364,18.2065525 Z M18.2065525,19.3636364 L15.4299582,16.587042 C14.4738468,17.3031244 13.286456,17.7272727 12,17.7272727 C10.713544,17.7272727 9.52615317,17.3031244 8.57004183,16.587042 L5.79344746,19.3636364 L18.2065525,19.3636364 Z M14.2560463,15.4131301 L12,13.1570838 L9.74395372,15.4131301 C10.3906716,15.8414645 11.1662054,16.0909091 12,16.0909091 C12.8337946,16.0909091 13.6093284,15.8414645 14.2560463,15.4131301 Z M15.4131301,14.2560463 C15.8414645,13.6093284 16.0909091,12.8337946 16.0909091,12 C16.0909091,11.1662054 15.8414645,10.3906716 15.4131301,9.74395372 L13.1570838,12 L15.4131301,14.2560463 Z M8.5868699,9.74395372 C8.15853553,10.3906716 7.90909091,11.1662054 7.90909091,12 C7.90909091,12.8337946 8.15853553,13.6093284 8.5868699,14.2560463 L10.8429162,12 L8.5868699,9.74395372 Z M9.74395372,8.5868699 L12,10.8429162 L14.2560463,8.5868699 C13.6093284,8.15853553 12.8337946,7.90909091 12,7.90909091 C11.1662054,7.90909091 10.3906716,8.15853553 9.74395372,8.5868699 Z M5.45454545,3 L18.5454545,3 C19.9010626,3 21,4.09893743 21,5.45454545 L21,18.5454545 C21,19.9010626 19.9010626,21 18.5454545,21 L5.45454545,21 C4.09893743,21 3,19.9010626 3,18.5454545 L3,5.45454545 C3,4.09893743 4.09893743,3 5.45454545,3 Z" id="Icon_Icons" ></path>
</svg>
