<svg viewBox="0 0 24 24" fill="currentColor" xmlns="http://www.w3.org/2000/svg">
    <path fill-rule="evenodd" clip-rule="evenodd" d="M5.4 5.5H3.6C3.54477 5.5 3.5 5.54477 3.5 5.6V18.4C3.5 18.4552 3.54477 18.5 3.6 18.5H5.4C5.45523 18.5 5.5 18.4552 5.5 18.4V5.6C5.5 5.54477 5.45523 5.5 5.4 5.5ZM3.6 4C2.71634 4 2 4.71634 2 5.6V18.4C2 19.2837 2.71634 20 3.6 20H5.4C6.28366 20 7 19.2837 7 18.4V5.6C7 4.71634 6.28366 4 5.4 4H3.6Z" />
    <path fill-rule="evenodd" clip-rule="evenodd" d="M22 5.75C22 6.16421 21.6642 6.5 21.25 6.5L9.75 6.5C9.33579 6.5 9 6.16421 9 5.75C9 5.33579 9.33579 5 9.75 5L21.25 5C21.6642 5 22 5.33579 22 5.75Z" />
    <path fill-rule="evenodd" clip-rule="evenodd" d="M22 11.75C22 12.1642 21.6642 12.5 21.25 12.5L9.75 12.5C9.33579 12.5 9 12.1642 9 11.75C9 11.3358 9.33579 11 9.75 11H21.25C21.6642 11 22 11.3358 22 11.75Z" />
    <path fill-rule="evenodd" clip-rule="evenodd" d="M19 8.75C19 9.16421 18.6642 9.5 18.25 9.5H9.75C9.33579 9.5 9 9.16421 9 8.75C9 8.33579 9.33579 8 9.75 8H18.25C18.6642 8 19 8.33579 19 8.75Z" />
    <path fill-rule="evenodd" clip-rule="evenodd" d="M19 14.75C19 15.1642 18.6642 15.5 18.25 15.5H9.75C9.33579 15.5 9 15.1642 9 14.75C9 14.3358 9.33579 14 9.75 14H18.25C18.6642 14 19 14.3358 19 14.75Z" />
</svg>
