<svg viewBox="0 0 24 24" fill="currentColor" xmlns="http://www.w3.org/2000/svg">
    <path fill-rule="evenodd" clip-rule="evenodd" d="M7 5.5H4C3.72386 5.5 3.5 5.72386 3.5 6V18C3.5 18.2761 3.72386 18.5 4 18.5H7C7.27614 18.5 7.5 18.2761 7.5 18V6C7.5 5.72386 7.27614 5.5 7 5.5ZM4 4C2.89543 4 2 4.89543 2 6V18C2 19.1046 2.89543 20 4 20H7C8.10457 20 9 19.1046 9 18V6C9 4.89543 8.10457 4 7 4H4Z" />
    <path fill-rule="evenodd" clip-rule="evenodd" d="M22 5.75C22 6.16421 21.6642 6.5 21.25 6.5L11.75 6.5C11.3358 6.5 11 6.16421 11 5.75C11 5.33579 11.3358 5 11.75 5L21.25 5C21.6642 5 22 5.33579 22 5.75Z" />
    <path fill-rule="evenodd" clip-rule="evenodd" d="M22 11.75C22 12.1642 21.6642 12.5 21.25 12.5H11.75C11.3358 12.5 11 12.1642 11 11.75C11 11.3358 11.3358 11 11.75 11H21.25C21.6642 11 22 11.3358 22 11.75Z" />
    <path fill-rule="evenodd" clip-rule="evenodd" d="M19 8.75C19 9.16421 18.6642 9.5 18.25 9.5H11.75C11.3358 9.5 11 9.16421 11 8.75C11 8.33579 11.3358 8 11.75 8H18.25C18.6642 8 19 8.33579 19 8.75Z" />
    <path fill-rule="evenodd" clip-rule="evenodd" d="M19 14.75C19 15.1642 18.6642 15.5 18.25 15.5H11.75C11.3358 15.5 11 15.1642 11 14.75C11 14.3358 11.3358 14 11.75 14H18.25C18.6642 14 19 14.3358 19 14.75Z" />
</svg>
