<svg viewBox="0 0 24 24" fill="currentColor" xmlns="http://www.w3.org/2000/svg">
    <path fill-rule="evenodd" clip-rule="evenodd" d="M9 5.5H4C3.72386 5.5 3.5 5.72386 3.5 6V18C3.5 18.2761 3.72386 18.5 4 18.5H9C9.27614 18.5 9.5 18.2761 9.5 18V6C9.5 5.72386 9.27614 5.5 9 5.5ZM4 4C2.89543 4 2 4.89543 2 6V18C2 19.1046 2.89543 20 4 20H9C10.1046 20 11 19.1046 11 18V6C11 4.89543 10.1046 4 9 4H4Z" />
    <path fill-rule="evenodd" clip-rule="evenodd" d="M22 5.75C22 6.16421 21.6642 6.5 21.25 6.5L13.75 6.5C13.3358 6.5 13 6.16421 13 5.75C13 5.33579 13.3358 5 13.75 5L21.25 5C21.6642 5 22 5.33579 22 5.75Z" />
    <path fill-rule="evenodd" clip-rule="evenodd" d="M22 11.75C22 12.1642 21.6642 12.5 21.25 12.5H13.75C13.3358 12.5 13 12.1642 13 11.75C13 11.3358 13.3358 11 13.75 11H21.25C21.6642 11 22 11.3358 22 11.75Z" />
    <path fill-rule="evenodd" clip-rule="evenodd" d="M20 8.75C20 9.16421 19.6642 9.5 19.25 9.5H13.75C13.3358 9.5 13 9.16421 13 8.75C13 8.33579 13.3358 8 13.75 8H19.25C19.6642 8 20 8.33579 20 8.75Z" />
    <path fill-rule="evenodd" clip-rule="evenodd" d="M20 14.75C20 15.1642 19.6642 15.5 19.25 15.5H13.75C13.3358 15.5 13 15.1642 13 14.75C13 14.3358 13.3358 14 13.75 14H19.25C19.6642 14 20 14.3358 20 14.75Z" />
</svg>
