<svg fill="currentColor" viewBox="0 0 24 24" version="1.1" xmlns="http://www.w3.org/2000/svg" xmlns:xlink="http://www.w3.org/1999/xlink">
    <path d="M20.4670875,13.1601562 L20.4670875,5.98828125 C20.4670875,5.57812295 20.3168034,5.22656396 20.0162308,4.93359375 C19.7156583,4.64062354 19.3549766,4.49414062 18.9341749,4.49414062 L5.06582507,4.49414062 C4.64502344,4.49414062 4.28434175,4.64062354 3.98376916,4.93359375 C3.68319657,5.22656396 3.53291253,5.57812295 3.53291253,5.98828125 L3.53291253,13.7402344 L9.05139766,11.2089844 L15.8142471,15.6914062 L20.4670875,13.1601562 Z M20.4670875,14.7070312 L15.6158702,17.203125 L9.05139766,12.7558594 L3.53291253,15.1992187 L3.53291253,18.0117187 C3.53291253,18.4218771 3.68319657,18.773436 3.98376916,19.0664062 C4.28434175,19.3593765 4.64502344,19.5058594 5.06582507,19.5058594 L18.9341749,19.5058594 C19.3549766,19.5058594 19.7156583,19.3593765 20.0162308,19.0664062 C20.3168034,18.773436 20.4670875,18.4218771 20.4670875,18.0117187 L20.4670875,14.7070312 Z M2,5.25 C2,4.62890314 2.22542606,4.09863501 2.67628494,3.65917969 C3.12714382,3.21972437 3.67117205,3 4.30838593,3 L19.6916141,3 C20.328828,3 20.8728562,3.21972437 21.3237151,3.65917969 C21.7745739,4.09863501 22,4.62890314 22,5.25 L22,18.75 C22,19.3710969 21.7745739,19.901365 21.3237151,20.3408203 C20.8728562,20.7802756 20.328828,21 19.6916141,21 L4.30838593,21 C3.67117205,21 3.12714382,20.7802756 2.67628494,20.3408203 C2.22542606,19.901365 2,19.3710969 2,18.75 L2,5.25 Z M15.8503156,12 C14.9966894,12 14.2693147,11.7070342 13.6681695,11.1210937 C13.0670243,10.5351533 12.7664563,9.82617604 12.7664563,8.99414062 C12.7664563,8.17382402 13.0670243,7.47070605 13.6681695,6.88476562 C14.2693147,6.2988252 14.9966894,6.00585937 15.8503156,6.00585937 C16.7039417,6.00585937 17.4313165,6.2988252 18.0324617,6.88476562 C18.6336069,7.47070605 18.9341749,8.17382402 18.9341749,8.99414062 C18.9341749,9.82617604 18.6336069,10.5351533 18.0324617,11.1210937 C17.4313165,11.7070342 16.7039417,12 15.8503156,12 Z M15.8503156,10.5058594 C16.2711172,10.5058594 16.6317989,10.3593765 16.9323715,10.0664062 C17.2329441,9.77343604 17.3832281,9.41601773 17.3832281,8.99414062 C17.3832281,8.58398232 17.2329441,8.23242334 16.9323715,7.93945312 C16.6317989,7.64648291 16.2711172,7.5 15.8503156,7.5 C15.429514,7.5 15.0688323,7.64648291 14.7682597,7.93945312 C14.4676871,8.23242334 14.3174031,8.58398232 14.3174031,8.99414062 C14.3174031,9.41601773 14.4676871,9.77343604 14.7682597,10.0664062 C15.0688323,10.3593765 15.429514,10.5058594 15.8503156,10.5058594 Z" id="Icon_Asset" ></path>
</svg>
