<svg viewBox="0 0 24 24" fill="currentColor" xmlns="http://www.w3.org/2000/svg">
    <path fill-rule="evenodd" clip-rule="evenodd" d="M13.3498 3.75024C13.9849 3.75024 14.4998 4.26512 14.4998 4.90024L14.4998 20.1002C14.4998 20.7354 13.9849 21.2502 13.3498 21.2502L10.6498 21.2502C10.0146 21.2502 9.49976 20.7354 9.49976 20.1002L9.49976 4.90024C9.49976 4.26512 10.0146 3.75024 10.6498 3.75024L13.3498 3.75024ZM12.9998 5.25024L10.9998 5.25024L10.9998 19.7502L12.9998 19.7502L12.9998 5.25024Z" />
    <path fill-rule="evenodd" clip-rule="evenodd" d="M6.85977 3.75024C7.49489 3.75024 8.00977 4.26512 8.00977 4.90024L8.00977 20.1002C8.00977 20.7354 7.49489 21.2502 6.85977 21.2502L4.15977 21.2502C3.52464 21.2502 3.00977 20.7354 3.00977 20.1002L3.00977 4.90024C3.00977 4.26512 3.52464 3.75024 4.15977 3.75024L6.85977 3.75024ZM6.50977 5.25024L4.50977 5.25024L4.50977 19.7502L6.50977 19.7502L6.50977 5.25024Z" />
    <path fill-rule="evenodd" clip-rule="evenodd" d="M19.8402 3.75024C20.4754 3.75024 20.9902 4.26512 20.9902 4.90024L20.9902 20.1002C20.9902 20.7354 20.4754 21.2502 19.8402 21.2502L17.1402 21.2502C16.5051 21.2502 15.9902 20.7354 15.9902 20.1002L15.9902 4.90024C15.9902 4.26512 16.5051 3.75024 17.1402 3.75024L19.8402 3.75024ZM19.4902 5.25024L17.4902 5.25024L17.4902 19.7502L19.4902 19.7502L19.4902 5.25024Z" />
</svg>
