<svg viewBox="0 0 24 25" fill="currentColor" xmlns="http://www.w3.org/2000/svg">
    <path fill-rule="evenodd" clip-rule="evenodd" d="M20.75 13.85C20.75 14.4851 20.2351 15 19.6 15L4.4 15C3.76487 15 3.25 14.4851 3.25 13.85L3.25 11.15C3.25 10.5149 3.76487 10 4.4 10L19.6 10C20.2351 10 20.75 10.5149 20.75 11.15L20.75 13.85ZM19.25 13.5L19.25 11.5L4.75 11.5L4.75 13.5L19.25 13.5Z" />
    <path fill-rule="evenodd" clip-rule="evenodd" d="M20.75 7.36001C20.75 7.99514 20.2351 8.51001 19.6 8.51001L4.4 8.51001C3.76487 8.51001 3.25 7.99514 3.25 7.36001L3.25 4.66001C3.25 4.02488 3.76487 3.51001 4.4 3.51001L19.6 3.51001C20.2351 3.51001 20.75 4.02488 20.75 4.66001L20.75 7.36001ZM19.25 7.01001L19.25 5.01001L4.75 5.01001L4.75 7.01001L19.25 7.01001Z" />
    <path fill-rule="evenodd" clip-rule="evenodd" d="M20.75 20.3405C20.75 20.9756 20.2351 21.4905 19.6 21.4905L4.4 21.4905C3.76487 21.4905 3.25 20.9756 3.25 20.3405L3.25 17.6405C3.25 17.0054 3.76487 16.4905 4.4 16.4905L19.6 16.4905C20.2351 16.4905 20.75 17.0054 20.75 17.6405L20.75 20.3405ZM19.25 19.9905L19.25 17.9905L4.75 17.9905L4.75 19.9905L19.25 19.9905Z" />
</svg>
