<svg viewBox="0 0 24 24" fill="currentColor" xmlns="http://www.w3.org/2000/svg">
    <path fill-rule="evenodd" clip-rule="evenodd" d="M18 20.75C18.1381 20.75 18.25 20.6381 18.25 20.5V16.5C18.25 16.0858 18.5858 15.75 19 15.75C19.4142 15.75 19.75 16.0858 19.75 16.5V20.5C19.75 21.4665 18.9665 22.25 18 22.25H6C5.0335 22.25 4.25 21.4665 4.25 20.5V16.5C4.25 16.0858 4.58579 15.75 5 15.75C5.41421 15.75 5.75 16.0858 5.75 16.5V20.5C5.75 20.6381 5.86193 20.75 6 20.75H18Z" />
    <path fill-rule="evenodd" clip-rule="evenodd" d="M18 4.25C18.1381 4.25 18.25 4.36193 18.25 4.5V8.5C18.25 8.91421 18.5858 9.25 19 9.25C19.4142 9.25 19.75 8.91421 19.75 8.5V4.5C19.75 3.5335 18.9665 2.75 18 2.75L6 2.75C5.0335 2.75 4.25 3.5335 4.25 4.5V8.5C4.25 8.91421 4.58579 9.25 5 9.25C5.41421 9.25 5.75 8.91421 5.75 8.5V4.5C5.75 4.36193 5.86193 4.25 6 4.25L18 4.25Z" />
    <path fill-rule="evenodd" clip-rule="evenodd" d="M20 12.5471C20 12.9613 19.6642 13.2971 19.25 13.2971H17.4375C17.0233 13.2971 16.6875 12.9613 16.6875 12.5471C16.6875 12.1329 17.0233 11.7971 17.4375 11.7971H19.25C19.6642 11.7971 20 12.1329 20 12.5471ZM14.5625 12.5471C14.5625 12.9613 14.2267 13.2971 13.8125 13.2971L10.1875 13.2971C9.77329 13.2971 9.4375 12.9613 9.4375 12.5471C9.4375 12.1329 9.77329 11.7971 10.1875 11.7971L13.8125 11.7971C14.2267 11.7971 14.5625 12.1329 14.5625 12.5471ZM7.3125 12.5471C7.3125 12.9613 6.97671 13.2971 6.5625 13.2971H4.75C4.33579 13.2971 4 12.9613 4 12.5471C4 12.1329 4.33579 11.7971 4.75 11.7971H6.5625C6.97671 11.7971 7.3125 12.1329 7.3125 12.5471Z" />
</svg>
