<svg viewBox="0 0 24 25" fill="currentColor" xmlns="http://www.w3.org/2000/svg">
    <path fill-rule="evenodd" clip-rule="evenodd" d="M18 20.75C18.1381 20.75 18.25 20.6381 18.25 20.5V16.5C18.25 16.0858 18.5858 15.75 19 15.75C19.4142 15.75 19.75 16.0858 19.75 16.5V20.5C19.75 21.4665 18.9665 22.25 18 22.25H6C5.0335 22.25 4.25 21.4665 4.25 20.5V16.5C4.25 16.0858 4.58579 15.75 5 15.75C5.41421 15.75 5.75 16.0858 5.75 16.5V20.5C5.75 20.6381 5.86193 20.75 6 20.75H18Z" />
    <path fill-rule="evenodd" clip-rule="evenodd" d="M18 4.25C18.1381 4.25 18.25 4.36193 18.25 4.5V8.5C18.25 8.91421 18.5858 9.25 19 9.25C19.4142 9.25 19.75 8.91421 19.75 8.5V4.5C19.75 3.5335 18.9665 2.75 18 2.75L6 2.75C5.0335 2.75 4.25 3.5335 4.25 4.5V8.5C4.25 8.91421 4.58579 9.25 5 9.25C5.41421 9.25 5.75 8.91421 5.75 8.5V4.5C5.75 4.36193 5.86193 4.25 6 4.25L18 4.25Z" />
</svg>
