<svg viewBox="0 0 24 24" fill="currentColor" xmlns="http://www.w3.org/2000/svg">
    <path fill-rule="evenodd" clip-rule="evenodd" d="M21 6C21 6.55228 20.5523 7 20 7L12 7C11.4477 7 11 6.55228 11 6C11 5.44772 11.4477 5 12 5L20 5C20.5523 5 21 5.44772 21 6Z" />
    <path fill-rule="evenodd" clip-rule="evenodd" d="M11 18C11 17.4477 11.4477 17 12 17L18 17C18.5523 17 19 17.4477 19 18C19 18.5523 18.5523 19 18 19L12 19C11.4477 19 11 18.5523 11 18Z" />
    <path fill-rule="evenodd" clip-rule="evenodd" d="M19 10C19 10.5523 18.5523 11 18 11H12C11.4477 11 11 10.5523 11 10C11 9.44772 11.4477 9 12 9H18C18.5523 9 19 9.44772 19 10Z" />
    <path fill-rule="evenodd" clip-rule="evenodd" d="M21 14C21 14.5523 20.5523 15 20 15L12 15C11.4477 15 11 14.5523 11 14C11 13.4477 11.4477 13 12 13L20 13C20.5523 13 21 13.4477 21 14Z" />
    <path fill-rule="evenodd" clip-rule="evenodd" d="M5.34956 14.9827H4.04089V14.8963C4.04089 13.9935 4.62901 13 5.99221 13C7.18792 13 7.9591 13.73 7.9591 14.689C7.9591 15.4843 7.52448 15.9735 7.12765 16.4201C7.08495 16.4682 7.04221 16.5163 7.00097 16.5637L6 17.7214V17.7862H7.9591V19H4.12269V18.0497L6.01168 15.9287C6.28822 15.622 6.59201 15.2808 6.59201 14.8445C6.59201 14.4903 6.32716 14.1965 5.96494 14.1965C5.57936 14.1965 5.34566 14.5205 5.34566 14.8834C5.34566 14.9027 5.34688 14.9247 5.34795 14.9441C5.3488 14.9594 5.34956 14.9732 5.34956 14.9827Z" />
    <path d="M5.43457 11H6.79995V5H5.43457L4.19995 5.98462V7.35165L5.36918 6.41978H5.43457V11Z" />
</svg>
