<svg fill="currentColor" xmlns="http://www.w3.org/2000/svg" viewBox="0 0 24 24">
    <path d="M8.34294841,4.46181392 L8.33,4.44486024 C9.8030956,3.31978006 11.6035782,2.7 13.4962047,2.7 C18.2008526,2.7 22.0147232,6.51387065 22.0147232,11.2185185 C22.0147232,15.0991194 19.3994165,18.4495117 15.7257729,19.4421541 C14.2859497,20.5558233 12.4796245,21.2185185 10.5185185,21.2185185 C5.81387065,21.2185185 2,17.4046479 2,12.7 C2,8.74727426 4.6921861,5.42334227 8.34294841,4.46181392 Z M12.0791745,4.32412367 C16.0384827,5.05719898 19.037037,8.52842455 19.037037,12.7 C19.037037,14.0678088 18.7146612,15.3603228 18.1417447,16.5057065 C19.6175979,15.2065073 20.5332417,13.305162 20.5332417,11.2185185 C20.5332417,7.33207028 17.3826529,4.18148148 13.4962047,4.18148148 C13.0144826,4.18148148 12.5403056,4.22993312 12.0791745,4.32412367 Z M10.5185185,19.737037 C14.4049668,19.737037 17.5555556,16.5864482 17.5555556,12.7 C17.5555556,8.81355176 14.4049668,5.66296296 10.5185185,5.66296296 C6.63207028,5.66296296 3.48148148,8.81355176 3.48148148,12.7 C3.48148148,16.5864482 6.63207028,19.737037 10.5185185,19.737037 Z M14.2649045,9.10102144 C15.5983337,9.99780837 15.612206,11.8842594 14.7538754,13.7212168 C13.9625556,15.4147609 11.8893833,17.4719213 10.5460524,17.5142535 C10.525908,17.5146412 10.525908,17.5146412 10.4814557,17.5144369 C9.14749086,17.4718084 7.07438172,15.4145475 6.28316165,13.7212168 C5.42483108,11.8842594 5.43870334,9.99780837 6.77213257,9.10102144 C8.01244918,8.26685663 9.30821971,8.53861366 10.5185185,9.74901463 C11.7288173,8.53861366 13.0245879,8.26685663 14.2649045,9.10102144 Z M13.4116855,13.0940696 C13.9987331,11.8376987 13.9903798,10.701754 13.438133,10.3303449 C12.7524839,9.86921723 12.0478845,10.1132703 11.1026923,11.3255927 C10.8061251,11.7059757 10.230912,11.7059757 9.93434479,11.3255927 C8.98915254,10.1132703 8.28455317,9.86921723 7.59890405,10.3303449 C7.04665724,10.701754 7.03830392,11.8376987 7.62535158,13.0940696 C8.2049838,14.3345703 9.89556912,16.0124432 10.5045341,16.0333139 C11.1404569,16.0133353 12.8318498,14.3350057 13.4116855,13.0940696 Z"/>
</svg>
