<svg width="32" height="32" viewBox="0 0 32 32" fill="none" xmlns="http://www.w3.org/2000/svg">
<path fill-rule="evenodd" clip-rule="evenodd" d="M20 13C20 15.2091 18.2091 17 16 17C13.7909 17 12 15.2091 12 13C12 10.7909 13.7909 9 16 9C18.2091 9 20 10.7909 20 13ZM18 13C18 14.1046 17.1046 15 16 15C14.8954 15 14 14.1046 14 13C14 11.8954 14.8954 11 16 11C17.1046 11 18 11.8954 18 13Z" fill="black"/>
<path fill-rule="evenodd" clip-rule="evenodd" d="M26 13C26 19.5 19 29 16 29C13 29 6 19.5 6 13C6 7.47715 10.4772 3 16 3C21.5228 3 26 7.47715 26 13ZM24 13C24 15.667 22.5019 19.2666 20.4609 22.3281C19.4633 23.8244 18.407 25.0835 17.4738 25.9424C17.006 26.3729 16.6088 26.6661 16.3014 26.8411C16.1532 26.9255 16.0542 26.9663 16 26.9856C15.9458 26.9663 15.8468 26.9255 15.6986 26.8411C15.3912 26.6661 14.994 26.3729 14.5262 25.9424C13.593 25.0835 12.5367 23.8244 11.5391 22.3281C9.49811 19.2666 8 15.667 8 13C8 8.58172 11.5817 5 16 5C20.4183 5 24 8.58172 24 13Z" fill="black"/>
</svg>
