<svg fill="currentColor" viewBox="0 0 24 24" version="1.1" xmlns="http://www.w3.org/2000/svg" xmlns:xlink="http://www.w3.org/1999/xlink">
    <path d="M20.4615385,6.54615385 L20.4615385,5.00769231 C20.4615385,4.58285788 20.1171421,4.23846154 19.6923077,4.23846154 L4.30769231,4.23846154 C3.88285788,4.23846154 3.53846154,4.58285788 3.53846154,5.00769231 L3.53846154,6.54615385 L20.4615385,6.54615385 Z M20.4615385,8.08461538 L3.53846154,8.08461538 L3.53846154,18.8538462 C3.53846154,19.2786806 3.88285788,19.6230769 4.30769231,19.6230769 L19.6923077,19.6230769 C20.1171421,19.6230769 20.4615385,19.2786806 20.4615385,18.8538462 L20.4615385,8.08461538 Z M4.30769231,2.7 L19.6923077,2.7 C20.966811,2.7 22,3.73318904 22,5.00769231 L22,18.8538462 C22,20.1283494 20.966811,21.1615385 19.6923077,21.1615385 L4.30769231,21.1615385 C3.03318904,21.1615385 2,20.1283494 2,18.8538462 L2,5.00769231 C2,3.73318904 3.03318904,2.7 4.30769231,2.7 Z M8.92307692,16.3827287 L8.92307692,11.114328 C8.92307692,10.5669376 9.2235633,10.0840131 9.75733765,9.77671675 C10.2524633,9.54819724 10.8045546,9.56903087 11.2603125,9.87287186 L15.1606292,12.460377 C15.59214,12.7349748 15.8461538,13.2098702 15.8461538,13.7097901 C15.8461538,14.1938534 15.6070636,14.6611661 15.2009384,14.9453929 L11.3469044,17.5741108 C11.0905584,17.7877325 10.7675194,17.887986 10.4477034,17.887986 C10.2103984,17.887986 9.98400371,17.8416131 9.76571332,17.7345803 C9.25570407,17.4940882 8.96238841,16.9978313 8.92307692,16.3827287 Z M14.2719689,13.7168923 L10.461514,11.1891625 L10.4598381,16.3211603 L14.2719689,13.7168923 Z" id="Icon_Media" ></path>
</svg>
