<svg width="20" height="20" viewBox="0 0 20 20" fill="none" xmlns="http://www.w3.org/2000/svg">
    <path fill-rule="evenodd" clip-rule="evenodd" d="M16 4.5C16.2761 4.5 16.5 4.27614 16.5 4C16.5 3.72386 16.2761 3.5 16 3.5C15.7239 3.5 15.5 3.72386 15.5 4C15.5 4.27614 15.7239 4.5 16 4.5ZM16 6C17.1046 6 18 5.10457 18 4C18 2.89543 17.1046 2 16 2C15.1607 2 14.4421 2.51704 14.1454 3.25H14C12.4812 3.25 11.25 4.48122 11.25 6V9.25H8.5V6C8.5 4.89543 7.60457 4 6.5 4H4C2.89543 4 2 4.89543 2 6V14C2 15.1046 2.89543 16 4 16H6.5C7.60457 16 8.5 15.1046 8.5 14V10.75H11.25V14C11.25 15.5188 12.4812 16.75 14 16.75H14.1454C14.4421 17.483 15.1607 18 16 18C17.1046 18 18 17.1046 18 16C18 14.8954 17.1046 14 16 14C15.1607 14 14.4421 14.517 14.1454 15.25H14C13.3096 15.25 12.75 14.6904 12.75 14V10.75H14.1454C14.4421 11.483 15.1607 12 16 12C17.1046 12 18 11.1046 18 10C18 8.89543 17.1046 8 16 8C15.1607 8 14.4421 8.51704 14.1454 9.25H12.75V6C12.75 5.30964 13.3096 4.75 14 4.75H14.1454C14.4421 5.48296 15.1607 6 16 6ZM4 5.5H6.5C6.77614 5.5 7 5.72386 7 6V14C7 14.2761 6.77614 14.5 6.5 14.5H4C3.72386 14.5 3.5 14.2761 3.5 14V6C3.5 5.72386 3.72386 5.5 4 5.5ZM16.5 10C16.5 10.2761 16.2761 10.5 16 10.5C15.7239 10.5 15.5 10.2761 15.5 10C15.5 9.72386 15.7239 9.5 16 9.5C16.2761 9.5 16.5 9.72386 16.5 10ZM16.5 16C16.5 16.2761 16.2761 16.5 16 16.5C15.7239 16.5 15.5 16.2761 15.5 16C15.5 15.7239 15.7239 15.5 16 15.5C16.2761 15.5 16.5 15.7239 16.5 16Z" fill="black"/>
</svg>
