<svg fill="currentColor" viewBox="0 0 24 24" version="1.1" xmlns="http://www.w3.org/2000/svg" xmlns:xlink="http://www.w3.org/1999/xlink">
    <path d="M11.2727273,4.51786039 L9.44047887,6.37117612 C9.1527106,6.66225317 8.68088023,6.6569268 8.39311687,6.36585472 L8.41722082,6.39023582 C8.12654703,6.09621984 8.12388758,5.62221579 8.41195991,5.33083118 L11.4839346,2.22353467 C11.4870639,2.22036939 11.490215,2.21723915 11.4933874,2.21414395 C11.4964833,2.21089878 11.4996134,2.20767562 11.5027777,2.20447497 L11.4786737,2.22885607 C11.7661953,1.93802857 12.2278205,1.93224267 12.5166004,2.21415861 C12.5134988,2.21090963 12.5103629,2.2076816 12.5071927,2.20447497 L12.5286662,2.22619537 L15.5980105,5.33083118 C15.8857787,5.62190823 15.8805129,6.09916374 15.5927496,6.39023582 L15.6168535,6.36585472 C15.3261797,6.6598707 14.8575638,6.66256073 14.5694915,6.37117612 L12.7272727,4.50777538 L12.7272727,13.9073742 C12.7272727,14.3140083 12.4044619,14.6436504 12,14.6436504 C11.5983384,14.6436504 11.2727273,14.3165644 11.2727273,13.9073742 L11.2727273,4.51786039 Z M15.6363636,10.2298406 C15.234702,10.2298406 14.9090909,9.90048564 14.9090909,9.49420567 C14.9090909,9.0879257 15.234702,8.75857071 15.6363636,8.75857071 L18.0059397,8.75857071 C19.1072288,8.75857071 20,9.64793923 20,10.7552833 L20,20.0032874 C20,21.1060413 19.1054862,22 18.0059397,22 L5.99406028,22 C4.8927712,22 4,21.1106315 4,20.0032874 L4,10.7552833 C4,9.6525294 4.89451376,8.75857071 5.99406028,8.75857071 L8.36363636,8.75857071 C8.765298,8.75857071 9.09090909,9.0879257 9.09090909,9.49420567 C9.09090909,9.90048564 8.765298,10.2298406 8.36363636,10.2298406 L6.46003032,10.2298406 C5.90516418,10.2298406 5.45454545,10.6803553 5.45454545,11.2360932 L5.45454545,19.5224775 C5.45454545,20.0861997 5.90471636,20.5287301 6.46003032,20.5287301 L17.5399697,20.5287301 C18.0948358,20.5287301 18.5454545,20.0782154 18.5454545,19.5224775 L18.5454545,11.2360932 C18.5454545,10.672371 18.0952836,10.2298406 17.5399697,10.2298406 L15.6363636,10.2298406 Z" id="Icon_Share" ></path>
</svg>
