<?xml version="1.0" encoding="UTF-8"?>
<svg fill="currentColor" width="24px" height="24px" viewBox="0 0 24 24" version="1.1" xmlns="http://www.w3.org/2000/svg" xmlns:xlink="http://www.w3.org/1999/xlink">
    <path d="M9.65,4.85 L6,4.85 C5.36487254,4.85 4.85,5.36487254 4.85,6 L4.85,18 C4.85,18.6351275 5.36487254,19.15 6,19.15 L9.65,19.15 L9.65,4.85 Z M11.35,4.85 L11.35,19.15 L18,19.15 C18.6351275,19.15 19.15,18.6351275 19.15,18 L19.15,6 C19.15,5.36487254 18.6351275,4.85 18,4.85 L11.35,4.85 Z M6,3.15 L18,3.15 C19.5740115,3.15 20.85,4.42598846 20.85,6 L20.85,18 C20.85,19.5740115 19.5740115,20.85 18,20.85 L6,20.85 C4.42598846,20.85 3.15,19.5740115 3.15,18 L3.15,6 C3.15,4.42598846 4.42598846,3.15 6,3.15 Z" id="Icon_side"></path>
</svg>
