<svg fill="currentColor" viewBox="0 0 8 12" version="1.1" xmlns="http://www.w3.org/2000/svg" xmlns:xlink="http://www.w3.org/1999/xlink">
    <path d="M1.67945 12L1.67945 9.56097L3.09408 9.56097C4.26482 9.56097 4.85018 8.97561 4.85018 7.80488L4.85018 6.2439L4.16725 6.2439C3.22417 6.2439 2.44368 5.95122 1.82579 5.36585C1.17538 4.78049 0.850181 4.04878 0.850181 3.17073C0.850181 2.22764 1.17538 1.46341 1.82579 0.878048C2.44368 0.292682 3.22417 -3.68171e-07 4.16726 -2.85723e-07C5.11034 -2.03276e-07 5.89083 0.308942 6.50872 0.926827C7.1266 1.54471 7.43555 2.3252 7.43555 3.26829L7.43555 7.80488C7.43555 10.6016 6.03717 12 3.24043 12L1.67945 12Z" />
</svg>
