<svg viewBox="0 0 24 24" fill="currentColor" xmlns="http://www.w3.org/2000/svg">
    <path fill-rule="evenodd" clip-rule="evenodd" d="M20.6621 6C20.6621 6.55228 20.2144 7 19.6621 7L3.66211 7C3.10983 7 2.66211 6.55228 2.66211 6C2.66211 5.44772 3.10983 5 3.66211 5L19.6621 5C20.2144 5 20.6621 5.44772 20.6621 6Z" />
    <path fill-rule="evenodd" clip-rule="evenodd" d="M2.66211 18C2.66211 17.4477 3.10982 17 3.66211 17L16.6621 17C17.2144 17 17.6621 17.4477 17.6621 18C17.6621 18.5523 17.2144 19 16.6621 19L3.66211 19C3.10982 19 2.66211 18.5523 2.66211 18Z" />
    <path fill-rule="evenodd" clip-rule="evenodd" d="M17.6621 10C17.6621 10.5523 17.2144 11 16.6621 11L3.66211 11C3.10982 11 2.66211 10.5523 2.66211 10C2.66211 9.44772 3.10982 9 3.66211 9L16.6621 9C17.2144 9 17.6621 9.44772 17.6621 10Z" />
    <path fill-rule="evenodd" clip-rule="evenodd" d="M20.6621 14C20.6621 14.5523 20.2144 15 19.6621 15L3.66211 15C3.10983 15 2.66211 14.5523 2.66211 14C2.66211 13.4477 3.10983 13 3.66211 13L19.6621 13C20.2144 13 20.6621 13.4477 20.6621 14Z" />
</svg>
