<svg fill="currentColor" viewBox="0 0 24 24" version="1.1" xmlns="http://www.w3.org/2000/svg" xmlns:xlink="http://www.w3.org/1999/xlink">
    <path d="M5.47558809,11.3333333 C5.8187851,10.3623397 6.74481764,9.66666667 7.83333333,9.66666667 L15.3333333,9.66666667 C16.421849,9.66666667 17.3478816,10.3623397 17.6910786,11.3333333 L21.1666667,11.3333333 C21.626904,11.3333333 22,11.7064294 22,12.1666667 C22,12.626904 21.626904,13 21.1666667,13 L17.6910786,13 C17.3478816,13.9709936 16.421849,14.6666667 15.3333333,14.6666667 L7.83333333,14.6666667 C6.74481764,14.6666667 5.8187851,13.9709936 5.47558809,13 L2.83333333,13 C2.37309604,13 2,12.626904 2,12.1666667 C2,11.7064294 2.37309604,11.3333333 2.83333333,11.3333333 L5.47558809,11.3333333 Z M14.6422548,18 C14.9854518,17.0290064 15.9114843,16.3333333 17,16.3333333 L19.5,16.3333333 C20.8807119,16.3333333 22,17.4526215 22,18.8333333 C22,20.2140452 20.8807119,21.3333333 19.5,21.3333333 L17,21.3333333 C15.9114843,21.3333333 14.9854518,20.6376603 14.6422548,19.6666667 L2.83333333,19.6666667 C2.37309604,19.6666667 2,19.2935706 2,18.8333333 C2,18.373096 2.37309604,18 2.83333333,18 L14.6422548,18 Z M10.1910786,4.66666667 L21.1666667,4.66666667 C21.626904,4.66666667 22,5.03976271 22,5.5 C22,5.96023729 21.626904,6.33333333 21.1666667,6.33333333 L10.1910786,6.33333333 C9.84788157,7.30432698 8.92184902,8 7.83333333,8 L4.5,8 C3.11928813,8 2,6.88071187 2,5.5 C2,4.11928813 3.11928813,3 4.5,3 L7.83333333,3 C8.92184902,3 9.84788157,3.69567302 10.1910786,4.66666667 Z M4.5,4.66666667 C4.03976271,4.66666667 3.66666667,5.03976271 3.66666667,5.5 C3.66666667,5.96023729 4.03976271,6.33333333 4.5,6.33333333 L7.83333333,6.33333333 C8.29357062,6.33333333 8.66666667,5.96023729 8.66666667,5.5 C8.66666667,5.03976271 8.29357062,4.66666667 7.83333333,4.66666667 L4.5,4.66666667 Z M17,18 C16.5397627,18 16.1666667,18.373096 16.1666667,18.8333333 C16.1666667,19.2935706 16.5397627,19.6666667 17,19.6666667 L19.5,19.6666667 C19.9602373,19.6666667 20.3333333,19.2935706 20.3333333,18.8333333 C20.3333333,18.373096 19.9602373,18 19.5,18 L17,18 Z M7.83333333,11.3333333 C7.37309604,11.3333333 7,11.7064294 7,12.1666667 C7,12.626904 7.37309604,13 7.83333333,13 L15.3333333,13 C15.7935706,13 16.1666667,12.626904 16.1666667,12.1666667 C16.1666667,11.7064294 15.7935706,11.3333333 15.3333333,11.3333333 L7.83333333,11.3333333 Z" id="Icon_Timeline"  ></path>
</svg>
