<svg fill="currentColor" viewBox="0 0 24 24" version="1.1" xmlns="http://www.w3.org/2000/svg" xmlns:xlink="http://www.w3.org/1999/xlink">
    <path d="M17.4191617,18.297006 C17.8682657,18.297006 18.2899182,18.2121765 18.6841317,18.042515 C19.0783453,17.8728534 19.4226532,17.6408198 19.7170659,17.3464072 C20.0114785,17.0519945 20.2435121,16.7051916 20.4131737,16.305988 C20.5828352,15.9067844 20.6676647,15.482637 20.6676647,15.0335329 C20.6676647,14.4147674 20.5104806,13.8509007 20.1961078,13.3419162 C19.881735,12.8329316 19.4700624,12.438724 18.9610778,12.1592814 C19.0209584,11.9397195 19.0658681,11.7176658 19.0958084,11.4931138 C19.1257487,11.2685618 19.1407186,11.0415181 19.1407186,10.811976 C19.1407186,10.0934096 19.0059894,9.41976362 18.7365269,8.79101796 C18.4670645,8.16227231 18.1003017,7.6133756 17.6362275,7.14431138 C17.1721534,6.67524716 16.6257516,6.30598937 15.997006,6.03652695 C15.3682603,5.76706452 14.6996043,5.63233533 13.991018,5.63233533 C13.2025909,5.63233533 12.4665703,5.79949933 11.7829341,6.13383234 C11.099298,6.46816534 10.5229564,6.91975763 10.0538922,7.48862275 C9.86427051,7.41876213 9.66966168,7.36387246 9.47005988,7.3239521 C9.27045808,7.28403174 9.06586931,7.26407186 8.85628743,7.26407186 C8.40718338,7.26407186 7.98553091,7.34890135 7.59131737,7.51856287 C7.19710382,7.6882244 6.85529087,7.92275299 6.56586826,8.22215569 C6.27644566,8.52155838 6.04690704,8.8683613 5.87724551,9.26257485 C5.70758398,9.6567884 5.62275449,10.0784409 5.62275449,10.5275449 C5.62275449,10.7670671 5.64520936,10.9941107 5.69011976,11.2086826 C5.73503016,11.4232546 5.80239476,11.6353283 5.89221557,11.8449102 C5.16366901,11.9946115 4.55489266,12.3663643 4.06586826,12.9601796 C3.57684386,13.553995 3.33233533,14.2451058 3.33233533,15.0335329 C3.33233533,15.4726569 3.41466984,15.8893194 3.57934132,16.2835329 C3.7440128,16.6777465 3.96856145,17.0195594 4.25299401,17.308982 C4.53742657,17.5984046 4.86925958,17.8329332 5.24850299,18.0125749 C5.62774641,18.1922165 6.03692395,18.2870259 6.4760479,18.297006 L17.4191617,18.297006 Z M20.4281437,11.560479 C20.907188,11.9896229 21.2889207,12.5035898 21.5733533,13.1023952 C21.8577859,13.7012006 22,14.3449067 22,15.0335329 C22,15.6622786 21.8827357,16.2510951 21.6482036,16.8 C21.4136715,17.3489049 21.0943134,17.8304371 20.6901198,18.2446108 C20.2859261,18.6587845 19.811879,18.9906175 19.2679641,19.2401198 C18.7240492,19.489622 18.1427177,19.6193612 17.5239521,19.6293413 L6.56586826,19.6293413 C5.9371226,19.6293413 5.34581115,19.509582 4.79191617,19.2700599 C4.23802118,19.0305377 3.75399409,18.7011997 3.33982036,18.2820359 C2.92564663,17.8628722 2.59880359,17.3738551 2.35928144,16.8149701 C2.11975928,16.256085 2,15.6622786 2,15.0335329 C2,14.6043891 2.05488967,14.1927165 2.16467066,13.798503 C2.27445165,13.4042894 2.4316357,13.0350317 2.63622754,12.6907186 C2.84081939,12.3464055 3.08532792,12.0320374 3.36976048,11.7476048 C3.65419304,11.4631722 3.96606617,11.2261487 4.30538922,11.0365269 C4.30538922,10.9467061 4.30289424,10.8618766 4.29790419,10.7820359 C4.29291415,10.7021952 4.29041916,10.6173657 4.29041916,10.5275449 C4.29041916,9.89879925 4.41017844,9.30499281 4.6497006,8.74610778 C4.88922275,8.18722275 5.21357081,7.69820569 5.62275449,7.27904192 C6.03193817,6.85987814 6.51596527,6.53054012 7.0748503,6.29101796 C7.63373533,6.05149581 8.22754177,5.93173653 8.85628743,5.93173653 C8.98602859,5.93173653 9.11576781,5.9367265 9.24550898,5.94670659 C9.37525015,5.95668668 9.50498937,5.97664656 9.63473054,6.00658683 C9.92415314,5.7371244 10.2360263,5.49760584 10.5703593,5.28802395 C10.9046923,5.07844207 11.2539902,4.90129813 11.6182635,4.75658683 C11.9825368,4.61187552 12.3642695,4.4996012 12.7634731,4.41976048 C13.1626766,4.33991976 13.5718542,4.3 13.991018,4.3 C14.889226,4.3 15.732531,4.46965898 16.5209581,4.80898204 C17.3093852,5.14830509 17.9955061,5.61486729 18.5793413,6.20868263 C19.1631766,6.80249798 19.6247488,7.49360883 19.9640719,8.28203593 C20.3033949,9.07046302 20.4730539,9.91376796 20.4730539,10.811976 C20.4730539,10.9417172 20.4680639,11.0689615 20.4580838,11.1937126 C20.4481037,11.3184637 20.4381238,11.440718 20.4281437,11.560479 Z M12.6586826,11.9197605 L12.6586826,15.6323353 C12.6586826,15.8119769 12.593813,15.966666 12.4640719,16.0964072 C12.3343307,16.2261484 12.1796416,16.291018 12,16.291018 C11.8103783,16.291018 11.6506993,16.2261484 11.5209581,16.0964072 C11.3912169,15.966666 11.3263473,15.8119769 11.3263473,15.6323353 L11.3263473,11.9047904 L10.0838323,13.1473054 C9.95409117,13.2770466 9.79690711,13.3419162 9.61227545,13.3419162 C9.42764379,13.3419162 9.27045973,13.2770466 9.14071856,13.1473054 C9.0109774,13.0175642 8.9436128,12.8628751 8.93862275,12.6832335 C8.93363271,12.5035919 9.00099731,12.3439129 9.14071856,12.2041916 L11.491018,9.85389222 C11.5508985,9.78403159 11.6257481,9.72914192 11.7155689,9.68922156 C11.8053897,9.6493012 11.9001991,9.62934132 12,9.62934132 C12.109781,9.62934132 12.2120754,9.65429117 12.3068862,9.70419162 C12.4016971,9.75409207 12.4790416,9.82395165 12.5389222,9.91377246 L14.8443114,12.2041916 C14.9740525,12.3339328 15.0389222,12.4911168 15.0389222,12.6757485 C15.0389222,12.8603802 14.9740525,13.0175642 14.8443114,13.1473054 C14.7145702,13.2770466 14.5573862,13.3444112 14.3727545,13.3494012 C14.1881228,13.3543912 14.0309388,13.2870266 13.9011976,13.1473054 L12.6586826,11.9197605 Z" id="Icon_Download" ></path>
</svg>
