<svg viewBox="0 0 24 24" fill="currentColor" xmlns="http://www.w3.org/2000/svg">
    <path fill-rule="evenodd" clip-rule="evenodd" d="M5.86097 9.8723C5.86121 9.11466 6.70477 8.66214 7.33612 9.08096L11.2331 11.6661C11.7949 12.0388 11.8005 12.8618 11.2438 13.2421L7.34514 15.9055C6.71447 16.3364 5.859 15.8846 5.85925 15.1208L5.86097 9.8723ZM7.36063 10.8973L7.35959 14.079L9.72307 12.4644L7.36063 10.8973Z" />
    <path fill-rule="evenodd" clip-rule="evenodd" d="M22 6.25C22 6.66421 21.6642 7 21.25 7L17.7636 7C17.3494 7 17.0136 6.66421 17.0136 6.25C17.0136 5.83579 17.3494 5.5 17.7636 5.5H21.25C21.6642 5.5 22 5.83579 22 6.25Z" />
    <path fill-rule="evenodd" clip-rule="evenodd" d="M22 12.25C22 12.6642 21.6642 13 21.25 13H17.7636C17.3494 13 17.0136 12.6642 17.0136 12.25C17.0136 11.8358 17.3494 11.5 17.7636 11.5H21.25C21.6642 11.5 22 11.8358 22 12.25Z" />
    <path fill-rule="evenodd" clip-rule="evenodd" d="M20.5752 9.25C20.5752 9.66421 20.2394 10 19.8252 10H17.7635C17.3493 10 17.0135 9.66421 17.0135 9.25C17.0135 8.83579 17.3493 8.5 17.7635 8.5H19.8252C20.2394 8.5 20.5752 8.83579 20.5752 9.25Z" />
    <path fill-rule="evenodd" clip-rule="evenodd" d="M20.5752 15.25C20.5752 15.6642 20.2394 16 19.8252 16H17.7635C17.3493 16 17.0135 15.6642 17.0135 15.25C17.0135 14.8358 17.3493 14.5 17.7635 14.5H19.8252C20.2394 14.5 20.5752 14.8358 20.5752 15.25Z" />
    <path fill-rule="evenodd" clip-rule="evenodd" d="M13 6H4C3.72386 6 3.5 6.22386 3.5 6.5V18.5C3.5 18.7761 3.72386 19 4 19H13C13.2761 19 13.5 18.7761 13.5 18.5V6.5C13.5 6.22386 13.2761 6 13 6ZM4 4.5C2.89543 4.5 2 5.39543 2 6.5V18.5C2 19.6046 2.89543 20.5 4 20.5H13C14.1046 20.5 15 19.6046 15 18.5V6.5C15 5.39543 14.1046 4.5 13 4.5H4Z" />
</svg>
