<svg fill="currentColor" width="24px" height="24px" viewBox="0 0 24 24" version="1.1" xmlns="http://www.w3.org/2000/svg" xmlns:xlink="http://www.w3.org/1999/xlink">
    <g id="Vimeo" stroke="none" stroke-width="1">
        <g id="vimeo" transform="translate(2.000000, 4.000000)">
            <path d="M19.9903262,4.01004618 C19.9013262,5.96065905 18.5415261,8.63167671 15.911501,12.0216992 C13.1922883,15.5629226 10.8916757,17.3333344 9.00966304,17.3333344 C7.84425047,17.3333344 6.85725041,16.2553272 6.05163786,14.0985129 C5.51323783,12.1214998 4.9754378,10.1446868 4.43722527,8.16767368 C3.83862523,6.01205943 3.19682519,4.93285224 2.51061265,4.93285224 C2.36101264,4.93285224 1.83741261,5.24825438 0.941000056,5.87665854 L0,4.66205047 C0.987012559,3.79304467 1.96081262,2.92423899 2.91882518,2.05423319 C4.23522525,0.914425622 5.22343781,0.315021711 5.88203785,0.254421332 C7.43865045,0.104620323 8.3966505,1.17062739 8.75626303,3.4526424 C9.14486305,5.9146588 9.41366307,7.44606889 9.56486307,8.0454728 C10.0134631,10.0880864 10.5070631,11.1080931 11.0464757,11.1080931 C11.4650757,11.1080931 12.0938757,10.4456887 12.9322883,9.12087999 C13.7698883,7.79567116 14.2184884,6.78746447 14.2790884,6.09485993 C14.3982884,4.95125236 13.9494883,4.37804858 12.9322883,4.37804858 C12.4534757,4.37804858 11.9598757,4.48844934 11.4520757,4.70665072 C12.4348757,1.48082941 14.3128884,-0.085780938 17.0849135,0.00361969239 C19.1399261,0.064020071 20.1087262,1.3994289 19.9903262,4.01004618" id="Fill-1"></path>
        </g>
    </g>
</svg>
