<svg xmlns="http://www.w3.org/2000/svg" width="20" height="20" viewBox="0 0 20 20"><path fill="currentColor" fill-rule="evenodd" d="M7 3.5H4a.5.5 0 00-.5.5v3a.5.5 0 00.5.5h3a.5.5 0 00.5-.5V4a.5.5 0 00-.5-.5M4 2a2 2 0 00-2 2v3a2 2 0 002 2h3a2 2 0 002-2V4a2 2 0 00-2-2zm0 10.5h3a.5.5 0 01.5.5v3a.5.5 0 01-.5.5H4a.5.5 0 01-.5-.5v-3a.5.5 0 01.5-.5M2 13a2 2 0 012-2h3a2 2 0 012 2v3a2 2 0 01-2 2H4a2 2 0 01-2-2zm10.5 0a.5.5 0 01.5-.5h3a.5.5 0 01.5.5v3a.5.5 0 01-.5.5h-3a.5.5 0 01-.5-.5zM11 13a2 2 0 012-2h3a2 2 0 012 2v3a2 2 0 01-2 2h-3a2 2 0 01-2-2zm3.5-11a.75.75 0 01.75.75v2h2a.75.75 0 010 1.5h-2v2a.75.75 0 01-1.5 0v-2h-2a.75.75 0 010-1.5h2v-2A.75.75 0 0114.5 2" clip-rule="evenodd"/></svg>