<svg xmlns="http://www.w3.org/2000/svg" width="32" height="32" viewBox="0 0 32 32"><path fill="currentColor" fill-rule="evenodd" d="M12 6H6.5a.5.5 0 00-.5.5V12a.5.5 0 00.5.5H12a.5.5 0 00.5-.5V6.5A.5.5 0 0012 6M6.5 4A2.5 2.5 0 004 6.5V12a2.5 2.5 0 002.5 2.5H12a2.5 2.5 0 002.5-2.5V6.5A2.5 2.5 0 0012 4zm0 15.5H12a.5.5 0 01.5.5v5.5a.5.5 0 01-.5.5H6.5a.5.5 0 01-.5-.5V20a.5.5 0 01.5-.5M4 20a2.5 2.5 0 012.5-2.5H12a2.5 2.5 0 012.5 2.5v5.5A2.5 2.5 0 0112 28H6.5A2.5 2.5 0 014 25.5zm16-.5h5.5a.5.5 0 01.5.5v5.5a.5.5 0 01-.5.5H20a.5.5 0 01-.5-.5V20a.5.5 0 01.5-.5m-2.5.5a2.5 2.5 0 012.5-2.5h5.5A2.5 2.5 0 0128 20v5.5a2.5 2.5 0 01-2.5 2.5H20a2.5 2.5 0 01-2.5-2.5zm5.25-15.875a1 1 0 011 1V8.25h3.125a1 1 0 110 2H23.75v3.125a1 1 0 11-2 0V10.25h-3.125a1 1 0 110-2h3.125V5.125a1 1 0 011-1" clip-rule="evenodd"/></svg>