<svg xmlns="http://www.w3.org/2000/svg" width="24" height="24" viewBox="0 0 24 24"><path fill="currentColor" fill-rule="evenodd" d="M8.75 3.5H4a.5.5 0 00-.5.5v4.75a.5.5 0 00.5.5h4.75a.5.5 0 00.5-.5V4a.5.5 0 00-.5-.5M4 2a2 2 0 00-2 2v4.75a2 2 0 002 2h4.75a2 2 0 002-2V4a2 2 0 00-2-2zm0 12.75h4.75a.5.5 0 01.5.5V20a.5.5 0 01-.5.5H4a.5.5 0 01-.5-.5v-4.75a.5.5 0 01.5-.5m-2 .5a2 2 0 012-2h4.75a2 2 0 012 2V20a2 2 0 01-2 2H4a2 2 0 01-2-2zm12.75 0a.5.5 0 01.5-.5H20a.5.5 0 01.5.5V20a.5.5 0 01-.5.5h-4.75a.5.5 0 01-.5-.5zm-1.5 0a2 2 0 012-2H20a2 2 0 012 2V20a2 2 0 01-2 2h-4.75a2 2 0 01-2-2zm4.375-13.062a.75.75 0 01.75.75v2.687h2.688a.75.75 0 010 1.5h-2.688v2.688a.75.75 0 01-1.5 0V7.124h-2.687a.75.75 0 010-1.5h2.687V2.938a.75.75 0 01.75-.75" clip-rule="evenodd"/></svg>