<svg xmlns="http://www.w3.org/2000/svg" width="20" height="20" viewBox="0 0 20 20"><path fill="currentColor" fill-rule="evenodd" d="M8.9 2.5h2.2a1 1 0 011 1V5H7.9V3.5a1 1 0 011-1M6.4 5V3.5A2.5 2.5 0 018.9 1h2.2a2.5 2.5 0 012.5 2.5V5h2.9A2.5 2.5 0 0119 7.5v8a2.5 2.5 0 01-2.5 2.5h-13A2.5 2.5 0 011 15.5v-8A2.5 2.5 0 013.5 5zm7.2 1.5h-.1v10h3a1 1 0 001-1v-8a1 1 0 00-1-1zm-1.6 0H8V8h.5a2 2 0 012 2v1a2 2 0 01-2 2H8v3.5h4zm-5.5 10V13H6a2 2 0 01-2-2v-1a2 2 0 012-2h.5V6.5h-3a1 1 0 00-1 1v8a1 1 0 001 1zm-.5-7a.5.5 0 00-.5.5v1a.5.5 0 00.5.5h2.5A.5.5 0 009 11v-1a.5.5 0 00-.5-.5z" clip-rule="evenodd"/></svg>