<svg xmlns="http://www.w3.org/2000/svg" width="16" height="16" viewBox="0 0 16 16"><path fill="currentColor" fill-rule="evenodd" d="M2 2.5a.5.5 0 01.5-.5h11a.5.5 0 010 1h-11a.5.5 0 01-.5-.5m5.5 3.386V13.5a.5.5 0 001 0V5.886l.003.004.011.01.011.011.011.011.01.011.012.01.01.012.011.01.011.011.01.01.012.012.01.01.011.011.01.01.011.011.011.011.01.01.011.011.01.01.011.012.011.01.01.01.011.011.01.01.011.011.01.01.011.011.01.01.011.011.01.01.01.011.011.01.01.01.011.011.01.01.01.01.011.011.01.01.01.01.01.01.011.011.01.01.01.01.01.01.01.01.011.011.01.01.01.01.01.01.01.01.01.01.01.01.01.01.01.01.01.01.01.01.01.01.01.01.01.01.01.01.01.01.01.01.01.01.01.01.01.01.01.01.01.01.009.009.01.01.01.01.01.01.009.009.01.01.01.01.009.009.01.01.009.009.01.01.01.01.009.009.01.01.009.009.01.01.009.009.01.01.008.009.01.009.01.01.009.009.009.009.01.01.009.009.009.009.01.01.008.008.01.01.009.009.01.01.008.008.01.01.008.009.01.009.009.009.009.009.009.009.009.009.009.009.009.009.009.009.009.009.009.009.009.009.009.009.008.008.01.01.008.008.009.009.009.009.008.008.01.01.008.008.009.009.008.008.009.009.009.009.008.008.009.009.008.008.009.009.009.009.008.008.009.009.008.008.008.009.009.008.008.008.009.009.008.008.008.008.009.009.008.008.008.008.009.009.008.008.008.008.008.008.008.008.009.009.008.008.008.008.008.008.008.008.008.008.008.008.008.008.008.008.008.008.008.008.008.008.008.008.008.008.007.007.008.008.008.008.008.008.008.008.007.007.008.008.008.008.007.007.008.008.008.008.007.007.008.008.007.007.008.008.007.007.008.008.007.007.008.008.007.007.008.008.007.007.007.007.008.008.007.007.007.007.007.007.008.008.007.007.007.007.007.007.007.007.007.007.008.008.006.007.008.007.007.007.007.007.006.007.008.006.006.007.007.007.007.007.007.007.007.007.007.007.006.006.007.007.007.007.007.007.006.006.007.007.006.006.007.007.007.007.006.006.007.007.006.006.007.007.006.006.007.007.006.006.006.006.007.007.006.006.006.006.007.007.006.006.006.006.006.006.006.006.007.007.006.006.006.006.006.006.006.006.006.006.006.006.006.006.006.006.006.006.005.006.006.005.006.006.006.006.006.006.006.006.005.005.006.006.006.006.005.005.006.006.006.006.005.005.006.006.005.005.006.006.005.005.006.006.005.005.005.005.006.006.005.005.005.005.006.006.005.005.005.005.005.005.006.006.005.005.005.005.005.005.005.005.005.005.005.005.005.005.005.005.005.005.005.005.005.005.004.005.005.004.005.005.005.005.005.005.004.004.005.005.005.005.004.004.005.005.004.004.005.005.005.005.004.004.004.004.005.005.004.004.005.005.004.004.004.004.005.005.004.004.004.004.004.004.004.004.005.005.004.004.004.004.004.004.004.004.004.004.004.004.004.004.004.004.004.004.003.003.004.004.004.004.004.004.004.004.003.003.004.004.004.004.003.003.004.004.003.003.004.004.003.003.004.004.003.003.004.004.003.003.003.003.004.004.003.003.003.003.004.004.003.003.003.003.003.003.003.003.003.003.003.003.003.003.003.003.003.003.003.003.003.003.003.003.003.003.003.003.002.002.003.003.003.003.002.003.003.002.003.003.002.002.003.003.003.003.002.002.002.003.003.002.002.002.003.003.002.002.002.002.003.003.002.002.002.002.002.002.002.002.003.003.002.002.002.002.002.002.002.002.002.002.002.002.002.002.001.001.002.002.002.002.002.002.002.002.001.001.002.002.002.002.001.001.002.002.001.001.002.002.001.001.002.002.001.001.002.002.001.001.001.001.002.002.002.002.001.001.001.001.002.002.002.002.002.002.002.002.001.001.001.001.001.001.002.002.002.002.001.001.001.001v.001h.001l.001.001.001.001.354-.354-.354.354a.5.5 0 10.707-.707l-.353.353.353-.353-.001-.001-.001-.001v-.001h-.001l-.001-.001v-.001h-.001l-.001-.001-.001-.002h-.001v-.001h-.002V7.85h-.001l-.001-.001-.001-.001-.001-.001-.001-.001-.001-.001-.001-.001-.001-.002h-.002V7.84l-.002-.001-.001-.001-.001-.001-.002-.002v-.001l-.002-.001-.002-.002-.001-.001-.002-.002-.001-.001-.002-.002-.001-.001-.002-.002-.001-.001-.002-.002-.002-.002-.001-.001-.002-.002-.002-.002-.002-.002-.002-.002-.001-.002-.002-.001-.002-.002-.002-.002-.002-.002-.002-.002-.002-.002-.002-.003-.002-.002-.003-.002-.002-.002-.002-.002-.002-.002-.003-.003-.002-.002-.002-.002-.003-.003-.002-.002-.002-.003-.003-.002-.002-.003-.003-.002-.002-.003-.003-.002-.003-.003-.002-.003-.003-.002-.003-.003-.002-.003-.003-.002-.003-.003-.003-.003-.003-.003-.003-.003-.003-.003-.003-.003-.003-.003-.003-.003-.003-.003-.003-.003-.003-.003-.003-.003-.003-.003-.003-.004-.004-.003-.003-.003-.003-.003-.004-.004-.003-.003-.003-.003-.004-.004-.003-.003-.004-.004-.003-.003-.004-.004-.003-.003-.004-.004-.003-.004-.004-.003-.004-.004-.003-.004-.004-.003-.004-.004-.004-.004-.004-.004-.003-.004-.004-.003-.004-.004-.004-.004-.004-.004-.004-.004-.004-.004-.004-.004-.004-.004-.004-.005-.005-.004-.004-.004-.004-.004-.004-.004-.004-.005-.005-.004-.004-.004-.004-.004-.005-.005-.004-.004-.005-.005-.004-.004-.004-.005-.005-.004-.004-.005-.005-.004-.005-.005-.004-.004-.005-.005-.005-.005-.004-.004-.005-.005-.005-.005-.005-.005-.004-.005-.005-.004-.005-.005-.005-.005-.005-.005-.005-.005-.005-.005-.005-.005-.005-.005-.005-.005-.005-.005-.005-.005-.005-.005-.005-.006-.006-.005-.005-.005-.005-.005-.005-.006-.006-.005-.005-.005-.005-.006-.006-.005-.005-.005-.006-.006-.005-.005-.006-.006-.005-.005-.006-.006-.005-.005-.006-.006-.005-.006-.006-.005-.006-.006-.006-.006-.005-.005-.006-.006-.006-.006-.006-.006-.005-.006-.006-.006-.006-.005-.006-.006-.006-.006-.006-.006-.006-.006-.006-.006-.006-.006-.006-.006-.006-.006-.006-.007-.007-.006-.006-.006-.006-.006-.006-.006-.006-.007-.007-.006-.006-.006-.006-.006-.007-.007-.006-.006-.006-.007-.007-.006-.006-.006-.007-.007-.006-.006-.007-.007-.006-.006-.007-.007-.006-.007-.007-.006-.007-.007-.006-.007-.007-.006-.007-.007-.006-.007-.007-.006-.007-.007-.007-.007-.007-.007-.007-.007L11.027 7l-.006-.007-.007-.007-.007-.006L11 6.972l-.007-.008-.007-.007-.007-.007-.007-.007-.008-.007-.007-.007-.007-.007-.007-.007-.007-.007-.008-.008-.007-.007-.007-.007-.007-.007-.008-.008-.007-.007-.007-.007-.008-.008-.007-.007-.008-.008-.007-.007-.008-.008-.007-.007-.008-.008-.007-.007-.008-.008-.007-.007-.008-.008-.008-.008-.007-.007-.008-.008-.008-.008-.007-.007-.008-.008-.008-.008-.008-.008-.007-.008-.008-.007-.008-.008-.008-.008-.008-.008-.008-.008-.008-.008-.008-.008-.008-.008-.008-.008-.008-.008-.008-.008-.008-.008-.008-.008-.008-.008-.008-.009-.009-.008-.008-.008-.008-.008-.008-.008-.008-.009-.009-.008-.008-.008-.008-.009-.009-.008-.008-.008-.009-.009-.008-.008-.008-.009-.009-.008-.008-.009-.009-.008-.008-.009-.009-.008-.008-.009-.009-.008-.009-.009-.008-.008-.009-.01-.009-.008-.008-.008-.009-.01-.009-.008-.008-.009-.01-.008-.008-.01-.009-.008-.009-.009-.008-.009-.01-.009-.008-.008-.01-.01-.008-.008-.01-.01-.008-.008-.009-.01-.009-.008-.01-.01-.008-.008-.01-.01-.008-.008-.01-.01-.008-.009-.01-.009-.009-.009-.009-.01-.01-.008-.008-.01-.01-.009-.009-.01-.01-.008-.009-.01-.009-.01-.01-.008-.009-.01-.009-.01-.01-.009-.009-.009-.01-.01-.009-.009-.01-.01L10.029 6l-.01-.01-.009-.009-.01-.01-.009-.01-.01-.009-.01-.01-.009-.009-.01-.01-.01-.01-.009-.009-.01-.01-.01-.01-.009-.01-.01-.009-.01-.01-.01-.01-.01-.01-.009-.01-.01-.009-.01-.01-.01-.01-.01-.01-.01-.01-.01-.01-.01-.01-.01-.01-.01-.01-.01-.01-.01-.01-.01-.01-.01-.01-.01-.01-.01-.01-.01-.01-.01-.01-.01-.01-.01-.01-.01-.01-.01-.01-.01-.011-.011-.01-.01-.01-.01-.01-.01-.011-.011-.01-.01-.01-.01-.011-.011-.01-.01-.01-.011-.011-.01-.01-.01-.011-.011-.01-.01-.01-.011-.011-.01-.01-.011-.011-.01-.01-.011-.011-.01-.011-.011-.01-.011-.011-.01-.01-.011-.011-.01-.011-.012-.01-.01-.011-.01-.011-.012-.01-.01-.011-.011-.011-.01-.011-.012-.01-.01-.012-.011-.01-.011-.011-.01-.011-.012-.01-.01-.012-.011-.01-.011-.011-.011-.011-.011-.011-.011-.011-.011-.011-.011-.011-.011-.011-.011-.011-.011-.011-.011-.011-.011-.011-.011-.011-.011-.011-.011-.011-.011-.012-.012-.01-.01-.012-.012-.011-.011-.011-.011-.011-.011-.012-.012-.01-.01-.012-.012-.011-.011-.011-.012-.012-.01-.011-.012-.011-.011-.012-.012-.011-.011-.011-.011-.012-.012-.011-.011-.011-.012-.012-.011-.011-.011-.012-.012-.011-.011-.012-.012-.011-.011-.011-.012-.012-.011-.011-.012-.012-.011-.012-.012-.011-.011-.012-.012-.011-.012-.012-.011-.011-.012-.012-.011-.012-.012-.011-.012-.012-.011-.012-.012-.011-.012-.012-.011-.012-.012-.011-.012-.012-.012-.012-.011-.012-.012-.011-.012-.012-.012-.012-.012-.012-.011-.012-.012-.011-.012-.012-.012-.012-.012-.012-.012-.012-.012-.012-.012-.012-.011-.012L8 3.972l-.354.353-3.535 3.536a.5.5 0 00.707.707z" clip-rule="evenodd"/></svg>