<svg xmlns="http://www.w3.org/2000/svg" width="12" height="12" viewBox="0 0 12 12"><path fill="currentColor" fill-rule="evenodd" d="M1 1.5a.5.5 0 01.5-.5h9a.5.5 0 010 1h-9a.5.5 0 01-.5-.5m4.5 3.3v5.7a.5.5 0 001 0V4.8l.004.004.008.008.009.009.008.008.008.009.009.008.008.008.009.009.008.008.008.009.009.008.008.008.008.008.009.009.008.008.008.008.008.009.009.008.008.008.008.008.008.008.008.009.009.008.008.008.008.008.008.008.008.008.008.008.008.008.008.009.008.008.008.008.008.008.008.008.008.008.008.008.008.008.008.008.008.008.008.007.008.008.008.008.008.008.008.008.008.008.007.008.008.007.008.008.008.008.008.008.007.008.008.007.008.008.008.008.007.008.008.007.008.008.007.008.008.007.008.008.007.007.008.008.007.008.008.007.008.008.007.007.008.008.007.007.008.008.007.007.008.008.007.007.007.008.008.007.007.007.008.008.007.007.007.008.008.007.007.007.007.008.008.007.007.007.007.007.007.008.008.007.007.007.007.007.007.007.007.008.007.007.008.007.007.007.007.007.007.007.007.007.007.007.007.007.007.007.007.007.007.007.007.007.007.007.007.007.007.007.007.007.007.007.006.007.007.007.007.006.007.007.007.007.007.007.006.007.007.006.007.007.006.007.007.006.007.007.006.007.007.006.007.007.006.007.007.006.007.007.006.006.007.007.006.006.007.007.006.006.007.007.006.006.007.007.006.006.006.007.007.006.006.006.006.007.007.006.006.006.006.007.007.006.006.006.006.006.006.007.007.006.006.006.006.006.006.006.006.006.006.007.006.006.006.006.007.006.006.006.006.006.006.006.006.006.006.006.006.006.005.006.006.006.006.005.006.006.006.006.006.006.006.006.005.006.006.005.006.006.006.006.005.006.006.005.006.006.005.006.006.005.006.006.005.006.006.005.006.006.005.005.006.006.005.005.006.006.005.005.006.006.005.005.005.006.006.005.005.005.006.006.005.005.005.005.005.006.006.005.005.005.005.005.005.006.006.005.005.005.005.005.005.005.005.005.005.006.005.005.005.005.006.005.005.005.005.005.004.005.005.005.005.005.005.005.005.004.005.005.005.005.005.005.005.005.004.005.005.004.005.005.005.005.004.005L8 6.3l.005.005.004.005.005.004.005.005.004.004.005.005.004.005.005.004.004.005.005.004.004.004.005.005.004.004.004.005.005.004.004.004.005.005.004.004.004.004.004.005.005.004.004.004.004.004.004.005.004.004.005.004.004.004.004.004.004.004.004.004.004.004.004.004.004.004.004.004.004.004.004.004.004.004.004.004.003.004.004.003.004.004.004.004.004.004.003.004.004.003.004.004.003.004.004.003.004.004.003.004.004.003.003.004.004.003.004.004.003.003.003.004.004.003.003.004.004.003.003.003.003.004.004.003.003.003.003.004.004.003.003.003.003.003.003.004.004.003.003.003.003.003.003.003.003.003.003.003.003.003.003.003.003.003.003.003.003.003.003.003.003.003.003.003.003.003.002.003.003.002.003.003.003.003.002.003.003.002.003.003.002.003.003.002.003.003.002.003.003.002.002.003.003.002.002.003.003.002.002.003.003.002.002.002.002.003.003.002.002.002.002.003.003.002.002.002.002.002.002.003.003.002.002.002.002.002.002.002.002.002.002.002.002.002.002.002.002.002.002.002.002.002.002.002.002.002.002.002.001.002.002.001.002.002.002.002.001.002.002.001.002.002.001.002.002.001.002.002.001.002.002.001.001.002.002.001.001.002.002.001.001.001.002.002v.001l.002.002h.002v.002l.002.001.001.002h.002v.002l.002.001.001.001.001.001.001.002h.001l.001.002h.001l.001.002h.001l.001.001.001.001.001.001v.001h.002v.002h.001l.001.001.001.002h.001l.001.002h.001l.001.001v.001h.001v.001h.001v.001h.001v.001h.001v.001l.354-.353-.353.353a.5.5 0 00.707-.707l-.354.354.354-.354-.001-.001-.001-.001-.001-.001h-.001v-.001l-.001-.001-.001-.001-.001-.001-.002-.001v-.001l-.002-.002-.001-.001-.001-.001-.002-.002-.002-.002-.002-.001v-.001l-.002-.002-.002-.002-.002-.002-.001-.001-.001-.001-.002-.001v-.002l-.002-.001-.001-.001-.002-.002h-.001l-.001-.002-.002-.002-.001-.001-.002-.002-.001-.001-.002-.002-.001-.001-.002-.002-.001-.001-.002-.002-.001-.001-.002-.002-.002-.002-.001-.001-.002-.002-.002-.002-.002-.002-.002-.001-.001-.002L9.115 6l-.002-.002-.002-.002-.002-.002-.002-.002-.002-.002-.002-.002-.002-.002-.002-.002-.002-.002-.002-.002-.002-.002-.002-.002-.003-.002-.002-.003-.002-.002-.002-.002-.002-.002-.003-.003-.002-.002-.002-.002-.003-.003-.002-.002-.003-.003-.002-.002-.002-.002-.003-.003-.002-.002-.003-.003-.003-.003-.002-.002-.003-.003-.002-.002-.003-.003-.003-.003-.002-.002-.003-.003-.003-.003-.003-.003-.003-.002-.002-.003-.003-.003-.003-.003-.003-.003-.003-.003-.003-.003-.003-.003L9 5.886l-.003-.003-.003-.003-.003-.003-.003-.003-.003-.003-.003-.003-.003-.003-.004-.003-.003-.004-.003-.003-.003-.003-.003-.003-.004-.004-.003-.003-.003-.003-.004-.004-.003-.003-.004-.004-.003-.003-.003-.003-.004-.004-.003-.003-.004-.004-.003-.003-.004-.004-.004-.004-.003-.003-.004-.004-.004-.003-.003-.004-.004-.004-.004-.004-.003-.003-.004-.004-.004-.004-.004-.004-.004-.003-.003-.004-.004-.004-.004-.004-.004-.004-.004-.004-.004-.004-.004-.004-.004-.004-.004-.004-.004-.004-.004-.004-.004-.004-.004-.004-.004-.004-.005-.005-.004-.004-.004-.004-.004-.004-.005-.004-.004-.005-.004-.004-.004-.004-.005-.005-.004-.004-.004-.004-.005-.005-.004-.004-.005-.005-.004-.004-.005-.005-.004-.004-.005-.005-.004-.004-.005-.005-.004-.004-.005-.005-.005-.005-.004-.004-.005-.005-.005-.005-.004-.004-.005-.005-.005-.005-.005-.004-.004-.005-.005-.005-.005-.005-.005-.005-.005-.005-.005-.005-.005-.004-.004-.005-.005-.005-.005-.005-.005-.005-.005-.005-.005-.005-.005-.005-.006-.006-.005-.005-.005-.005-.005-.005-.005-.005-.005-.005-.005-.005-.006-.006-.005-.005-.005-.005-.005-.005-.006-.006-.005-.005-.005-.005-.006-.006-.005-.005-.006-.005-.005-.006-.005-.005-.006-.006-.005-.005-.006-.006-.005-.005-.006-.006-.005-.005-.006-.006-.006-.006-.005-.005-.006-.006-.005-.005-.006-.006-.006-.006-.005-.005-.006-.006-.006-.006-.006-.006-.005-.005-.006-.006-.006-.006-.006-.006-.006-.006-.006-.006-.006-.006-.005-.005-.006-.006-.006-.006-.006-.006-.006-.006-.006-.006-.006-.006-.006-.006-.006-.006-.006-.006-.007-.007-.006-.006-.006-.006-.006-.006-.006-.006-.006-.006-.007-.006-.006-.007-.006-.006-.006-.006-.007-.006-.006-.007-.006-.006-.006-.006-.007-.007-.006-.006-.007-.007-.006-.006-.006-.006-.007-.007-.006-.006-.007-.007-.006-.006-.007-.007-.006-.006-.007-.007-.006-.006-.007-.007-.007-.006-.006-.007-.007-.007-.006-.006-.007-.007-.007-.007-.006-.006-.007-.007-.007-.007-.007-.007-.006-.006-.007-.007-.007-.007-.007-.007-.007-.007-.006-.006-.007-.007-.007-.007-.007-.007-.007-.007-.007-.007-.007-.007-.007-.007-.007-.007-.007-.007-.007-.007-.007-.007-.007-.007-.007-.007-.007-.007-.007-.007-.007-.007-.007-.007-.008-.008-.007-.007-.007-.007-.007-.007-.007-.007-.008-.007-.007-.008-.007-.007-.007-.007-.008-.008-.007-.007-.007-.007-.008-.008-.007-.007-.007-.007-.008-.008-.007-.007-.007-.007-.008-.008-.007-.007-.008-.008-.007-.007-.008-.008-.007-.007-.008-.008-.007-.007-.008-.008-.007-.007-.008-.008-.008-.008-.007-.007-.008-.008-.008-.008-.007-.007-.008-.008-.008-.008-.007-.007-.008-.008-.008-.008-.007-.007-.008-.008-.008-.008-.008-.008-.008-.008-.007-.007-.008-.008-.008-.008-.008-.008-.008-.008-.008-.008-.008-.008-.008-.008-.008-.008-.008-.007-.008-.008-.007-.008-.008-.008-.008-.008-.009-.008-.008-.009-.008-.008-.008-.008-.008-.008-.008-.008-.008-.008-.008-.008-.008-.008-.008-.008-.009-.009-.008-.008-.008-.008-.008-.008-.008-.008-.009-.009-.008-.008-.008-.008-.008-.008-.009-.009-.008-.008-.008-.008-.009-.009-.008-.008-.008-.008-.009-.009-.008-.008-.008-.008-.009-.009-.008-.008-.009-.009-.008-.008-.009-.009-.008-.008-.009-.009-.008-.008-.009-.009-.008-.008-.009-.009-.008-.008-.009-.009-.008-.008-.009-.009-.009-.009-.008-.008-.009-.009-.008-.008-.01-.009-.008-.009-.008-.008-.01-.01-.008-.008-.009-.008-.008-.01-.009-.008-.009-.009-.009-.008-.008-.01-.01-.008-.008-.009-.009-.009-.009-.008-.008-.01-.01-.008-.008-.009-.009-.009-.009-.009-.009-.009-.009-.009-.009-.009-.008-.008-.01-.01-.008-.008-.01-.01-.008-.008-.01-.01-.008-.008-.01-.01-.008-.008-.01-.01-.008-.008-.01-.01-.009-.009-.009-.009-.009-.009-.009-.009-.009-.009-.01-.01-.008-.008-.01-.01-.009-.009-.009-.009-.009-.009-.01-.01-.008-.008-.01-.01-.009-.009-.009-.009-.01-.01-.008-.008-.01-.01-.01-.009-.008-.01-.01-.009-.009-.009-.01-.01-.009-.009-.009-.009-.01-.01-.009-.009-.01-.009-.008-.01-.01-.009-.01-.01-.009-.009-.01-.01-.009-.008-.009-.01-.01-.01-.009-.009-.01-.01-.009-.009-.01-.01-.009-.009-.01-.01-.009-.009-.01-.01L6 2.887l-.354.354-2.828 2.828a.5.5 0 00.707.707z" clip-rule="evenodd"/></svg>