<svg xmlns="http://www.w3.org/2000/svg" width="20" height="20" viewBox="0 0 20 20"><path fill="currentColor" fill-rule="evenodd" d="M16.5 4.5h-13a1 1 0 00-1 1v9a1 1 0 001 1h13a1 1 0 001-1v-9a1 1 0 00-1-1M3.5 3A2.5 2.5 0 001 5.5v9A2.5 2.5 0 003.5 17h13a2.5 2.5 0 002.5-2.5v-9A2.5 2.5 0 0016.5 3zm.75 3.75A.75.75 0 015 6h3a.75.75 0 010 1.5H5a.75.75 0 01-.75-.75M5 9a.75.75 0 000 1.5h1.5a.75.75 0 000-1.5zm-.75 3.75A.75.75 0 015 12h1.5a.75.75 0 010 1.5H5a.75.75 0 01-.75-.75M12 9a.75.75 0 000 1.5h1.5a.75.75 0 000-1.5zm-.75 3.75A.75.75 0 0112 12h1.5a.75.75 0 010 1.5H12a.75.75 0 01-.75-.75M12 6a.75.75 0 000 1.5h3A.75.75 0 0015 6z" clip-rule="evenodd"/></svg>