<svg xmlns="http://www.w3.org/2000/svg" width="32" height="32" viewBox="0 0 32 32"><path fill="currentColor" fill-rule="evenodd" d="M25 8H7a2 2 0 00-2 2v12a2 2 0 002 2h18a2 2 0 002-2V10a2 2 0 00-2-2M7 6a4 4 0 00-4 4v12a4 4 0 004 4h18a4 4 0 004-4V10a4 4 0 00-4-4zm1 6a1 1 0 011-1h5a1 1 0 110 2H9a1 1 0 01-1-1m1 3a1 1 0 100 2h2a1 1 0 100-2zm-1 5a1 1 0 011-1h2a1 1 0 110 2H9a1 1 0 01-1-1m10-5a1 1 0 100 2h2a1 1 0 100-2zm-1 5a1 1 0 011-1h2a1 1 0 110 2h-2a1 1 0 01-1-1m1-9a1 1 0 100 2h5a1 1 0 100-2z" clip-rule="evenodd"/></svg>