<svg xmlns="http://www.w3.org/2000/svg" width="12" height="12" viewBox="0 0 12 12"><path fill="currentColor" fill-rule="evenodd" d="M10.5 2h-9a.5.5 0 00-.5.5v6a.5.5 0 00.5.5h9a.5.5 0 00.5-.5v-6a.5.5 0 00-.5-.5m-9-1A1.5 1.5 0 000 2.5v6A1.5 1.5 0 001.5 10h9A1.5 1.5 0 0012 8.5v-6A1.5 1.5 0 0010.5 1zm1 2.5A.5.5 0 013 3h2a.5.5 0 010 1H3a.5.5 0 01-.5-.5M3 5a.5.5 0 000 1h1a.5.5 0 000-1zm-.5 2.5A.5.5 0 013 7h1a.5.5 0 010 1H3a.5.5 0 01-.5-.5M7 5a.5.5 0 000 1h1a.5.5 0 000-1zm-.5 2.5A.5.5 0 017 7h1a.5.5 0 010 1H7a.5.5 0 01-.5-.5M7 3a.5.5 0 000 1h2a.5.5 0 000-1z" clip-rule="evenodd"/></svg>