<svg xmlns="http://www.w3.org/2000/svg" width="16" height="16" viewBox="0 0 16 16"><path fill="currentColor" fill-rule="evenodd" d="M13 3H3a1 1 0 00-1 1v7a1 1 0 001 1h10a1 1 0 001-1V4a1 1 0 00-1-1M3 2a2 2 0 00-2 2v7a2 2 0 002 2h10a2 2 0 002-2V4a2 2 0 00-2-2zm.5 3.5A.5.5 0 014 5h2.5a.5.5 0 010 1H4a.5.5 0 01-.5-.5M4 7a.5.5 0 000 1h1.5a.5.5 0 000-1zm-.5 2.5A.5.5 0 014 9h1.5a.5.5 0 010 1H4a.5.5 0 01-.5-.5M9 5a.5.5 0 000 1h2.5a.5.5 0 000-1zm-.5 2.5A.5.5 0 019 7h1.5a.5.5 0 010 1H9a.5.5 0 01-.5-.5M9 9a.5.5 0 000 1h1.5a.5.5 0 000-1z" clip-rule="evenodd"/></svg>