<svg xmlns="http://www.w3.org/2000/svg" width="24" height="24" viewBox="0 0 24 24"><path fill="currentColor" fill-rule="evenodd" d="M19 5.5H5A1.5 1.5 0 003.5 7v10A1.5 1.5 0 005 18.5h14a1.5 1.5 0 001.5-1.5V7A1.5 1.5 0 0019 5.5M5 4a3 3 0 00-3 3v10a3 3 0 003 3h14a3 3 0 003-3V7a3 3 0 00-3-3zm.25 4.75A.75.75 0 016 8h4a.75.75 0 010 1.5H6a.75.75 0 01-.75-.75M6 11a.75.75 0 000 1.5h2A.75.75 0 008 11zm-.75 3.75A.75.75 0 016 14h2a.75.75 0 010 1.5H6a.75.75 0 01-.75-.75M14 11a.75.75 0 000 1.5h2a.75.75 0 000-1.5zm-.75 3.75A.75.75 0 0114 14h2a.75.75 0 010 1.5h-2a.75.75 0 01-.75-.75M14 8a.75.75 0 000 1.5h4A.75.75 0 0018 8z" clip-rule="evenodd"/></svg>