<svg xmlns="http://www.w3.org/2000/svg" width="24" height="24" viewBox="0 0 24 24"><path fill="currentColor" d="M10.976 1.34a1 1 0 00-.245.034c-5.334.603-9.48 5.128-9.48 10.624l.014.55c.265 5.235 4.297 9.473 9.44 10.067a.9.9 0 001.172-.858V2.24a.9.9 0 00-.901-.9m3.627.525a.9.9 0 00-.9.9v18.464a.901.901 0 001.8.001V2.766a.9.9 0 00-.9-.9M10.076 20.69c-4.013-.86-7.024-4.421-7.024-8.691s3.01-7.835 7.024-8.694zm8.148-16.9a.9.9 0 00-.9.9v14.62a.9.9 0 001.8 0V4.688a.9.9 0 00-.9-.9m3.623 3.263a.9.9 0 00-.9.9v8.091a.9.9 0 001.8 0v-8.09a.9.9 0 00-.9-.901"/></svg>