<svg xmlns="http://www.w3.org/2000/svg" width="32" height="32" viewBox="0 0 32 32"><path fill="currentColor" d="M14.635 1.788q-.157 0-.302.039C7.209 2.62 1.67 8.66 1.67 15.996l.005.368c.181 7.153 5.632 12.996 12.615 13.795q.165.05.345.051a1.2 1.2 0 001.2-1.2V2.988a1.2 1.2 0 00-1.2-1.2m4.837.7a1.2 1.2 0 00-1.2 1.2v24.62a1.2 1.2 0 002.4 0V3.687a1.2 1.2 0 00-1.2-1.2m-6.037 25.1C8.083 26.441 4.07 21.688 4.07 15.995S8.083 5.547 13.435 4.402zM24.297 5.051a1.2 1.2 0 00-1.2 1.2V25.75a1.201 1.201 0 002.4 0V6.252a1.2 1.2 0 00-1.2-1.2m4.83 4.352a1.2 1.2 0 00-1.2 1.2v10.787a1.201 1.201 0 002.401 0V10.604a1.2 1.2 0 00-1.2-1.2"/></svg>