<svg xmlns="http://www.w3.org/2000/svg" width="12" height="12" viewBox="0 0 12 12"><g fill="none"><g clip-path="url(#svgID0)"><path fill="currentColor" d="M5.488.67a.5.5 0 00-.105.013A5.35 5.35 0 00.626 5.998l.008.275A5.35 5.35 0 005.37 11.31q.057.017.118.019a.45.45 0 00.45-.45V1.121a.45.45 0 00-.45-.45m1.814.263a.45.45 0 00-.45.45v9.233a.45.45 0 00.9 0V1.383a.45.45 0 00-.45-.45m-2.264 9.411a4.447 4.447 0 010-8.693zm4.073-8.449a.45.45 0 00-.45.45v7.312a.451.451 0 00.9 0V2.345a.45.45 0 00-.45-.45m1.812 1.632a.45.45 0 00-.45.45v4.045a.451.451 0 00.9 0V3.977a.45.45 0 00-.45-.45"/></g><defs><clipPath id="svgID0"><path fill="#fff" d="M12 0H0v12h12z"/></clipPath></defs></g></svg>