<svg xmlns="http://www.w3.org/2000/svg" width="12" height="12" viewBox="0 0 12 12"><g fill="none"><g clip-path="url(#svgID0)"><path fill="currentColor" d="M5.49 11.33a.5.5 0 01-.106-.013A5.35 5.35 0 01.627 6.002l.008-.275A5.35 5.35 0 015.37.69a.5.5 0 01.12-.02.45.45 0 01.45.45v9.758a.45.45 0 01-.45.45m1.813-.263a.45.45 0 01-.45-.45V1.384a.45.45 0 01.9 0v9.233a.45.45 0 01-.45.45M5.039 1.656a4.447 4.447 0 000 8.693zm4.073 8.449a.45.45 0 01-.45-.45V2.343a.451.451 0 01.9 0v7.312a.45.45 0 01-.45.45m1.812-1.632a.45.45 0 01-.45-.45V3.978a.451.451 0 01.9 0v4.045a.45.45 0 01-.45.45"/></g><defs><clipPath id="svgID0"><path fill="#fff" d="M0 12h12V0H0z"/></clipPath></defs></g></svg>