<svg xmlns="http://www.w3.org/2000/svg" width="16" height="16" viewBox="0 0 16 16"><g fill="none"><g clip-path="url(#svgID0)"><path fill="currentColor" d="M7.316 15.106a.6.6 0 01-.146-.02A7.13 7.13 0 01.836 8.003l.01-.367A7.13 7.13 0 017.149.922a.6.6 0 01.167-.027.6.6 0 01.6.6v13.01a.6.6 0 01-.6.6m2.42-.35a.6.6 0 01-.6-.6V1.846a.6.6 0 011.199 0v12.31a.6.6 0 01-.6.6M6.715 2.208a5.93 5.93 0 00-4.68 5.795 5.93 5.93 0 004.68 5.795zm5.432 11.266a.6.6 0 01-.6-.6V3.126a.6.6 0 111.2 0v9.748a.6.6 0 01-.6.6m2.415-2.176a.6.6 0 01-.6-.6V5.305a.6.6 0 111.2 0v5.393a.6.6 0 01-.6.6"/></g><defs><clipPath id="svgID0"><path fill="#fff" d="M0 16h16V0H0z"/></clipPath></defs></g></svg>