<svg xmlns="http://www.w3.org/2000/svg" width="16" height="16" viewBox="0 0 16 16"><g fill="none"><g clip-path="url(#svgID0)"><path fill="currentColor" d="M7.317.895a.6.6 0 00-.146.02A7.13 7.13 0 00.837 7.996l.01.367a7.13 7.13 0 006.303 6.714.6.6 0 00.167.027.6.6 0 00.6-.6V1.496a.6.6 0 00-.6-.6m2.42.35a.6.6 0 00-.6.599v12.31a.6.6 0 001.199 0V1.844a.6.6 0 00-.6-.6m-3.02 12.547a5.93 5.93 0 01-4.68-5.795 5.93 5.93 0 014.68-5.795zm5.431-11.266a.6.6 0 00-.6.6v9.748a.6.6 0 101.2 0V3.126a.6.6 0 00-.6-.6m2.417 2.176a.6.6 0 00-.6.6v5.393a.6.6 0 001.2 0V5.302a.6.6 0 00-.6-.6"/></g><defs><clipPath id="svgID0"><path fill="#fff" d="M16 0H0v16h16z"/></clipPath></defs></g></svg>