<svg xmlns="http://www.w3.org/2000/svg" width="20" height="20" viewBox="0 0 20 20"><path fill="currentColor" d="M9.146 1.117a.8.8 0 00-.184.026c-4.454.494-7.918 4.27-7.918 8.855l.012.458a8.91 8.91 0 007.883 8.393.8.8 0 00.207.033.75.75 0 00.75-.75V1.867a.75.75 0 00-.75-.75m3.025.438a.75.75 0 00-.751.75V17.69a.75.75 0 001.5 0V2.305a.75.75 0 00-.75-.75M8.396 17.24a7.41 7.41 0 010-14.487zm6.79-14.083a.75.75 0 00-.75.75v12.186a.75.75 0 001.5 0V3.907a.75.75 0 00-.75-.75m3.02 2.72a.75.75 0 00-.75.75v6.742a.75.75 0 101.5 0V6.627a.75.75 0 00-.75-.75"/></svg>