<svg xmlns="http://www.w3.org/2000/svg" width="12" height="12" viewBox="0 0 12 12"><g fill="none"><g clip-path="url(#svgID0)"><path fill="currentColor" fill-rule="evenodd" d="M9.415.307a.5.5 0 00-.5.5C8.915 1.465 8.381 2 7.723 2h-.001a.5.5 0 000 1c.66 0 1.193.535 1.193 1.194a.5.5 0 001 0c0-.66.534-1.194 1.194-1.194a.5.5 0 000-1c-.66 0-1.194-.534-1.194-1.193a.5.5 0 00-.5-.5m.3 2.193q-.165-.135-.3-.3-.135.165-.3.3.165.135.3.3.135-.165.3-.3M4.52 1.702a.5.5 0 00-.5.5A2.93 2.93 0 011.093 5.13h-.002a.5.5 0 000 1h.002A2.93 2.93 0 014.02 9.06a.5.5 0 001 0 2.93 2.93 0 012.928-2.93.5.5 0 100-1A2.93 2.93 0 015.02 2.202a.5.5 0 00-.5-.5M6.029 5.63a3.95 3.95 0 01-1.51-1.509 3.95 3.95 0 01-1.508 1.51A3.95 3.95 0 014.52 7.14a3.95 3.95 0 011.509-1.51m3.48 1.641a.5.5 0 01.5.5v.864a.5.5 0 11-1 0V7.77a.5.5 0 01.5-.5m0 4.455a.5.5 0 01-.5-.5v-.864a.5.5 0 111 0v.864a.5.5 0 01-.5.5M11.237 10a.5.5 0 000-1h-.864a.5.5 0 100 1zm-3.955-.5a.5.5 0 01.5-.5h.864a.5.5 0 010 1h-.864a.5.5 0 01-.5-.5" clip-rule="evenodd"/></g><defs><clipPath id="svgID0"><path fill="#fff" d="M0 0h12v12H0z"/></clipPath></defs></g></svg>