<svg xmlns="http://www.w3.org/2000/svg" width="24" height="24" viewBox="0 0 24 24"><path fill="currentColor" fill-rule="evenodd" d="M17.502 2.897a.75.75 0 00-.75.75 2.187 2.187 0 01-2.186 2.187h-.001a.75.75 0 000 1.5h.001c1.208 0 2.186.98 2.186 2.187 0 .414.336.75.75.75h.005a.75.75 0 00.745-.75c0-1.208.979-2.187 2.186-2.187h.001a.75.75 0 00.75-.75v-.005a.75.75 0 00-.75-.745 2.187 2.187 0 01-2.187-2.187.75.75 0 00-.75-.75m.708 3.687a3.7 3.7 0 01-.708-.708 3.7 3.7 0 01-.708.708q.402.306.708.708a3.7 3.7 0 01.708-.708M8.392 5.545a.75.75 0 00-.597.734 4.4 4.4 0 01-4.396 4.399h-.003a.75.75 0 100 1.5H3.4a4.4 4.4 0 014.396 4.398.75.75 0 001.5 0 4.4 4.4 0 014.398-4.398.75.75 0 000-1.5 4.4 4.4 0 01-4.398-4.399.75.75 0 00-.903-.734m2.42 5.883A5.93 5.93 0 018.545 9.16a5.93 5.93 0 01-2.268 2.268 5.93 5.93 0 012.268 2.267 5.93 5.93 0 012.267-2.267m6.706 2.047a.75.75 0 01.75.75v1.55a.75.75 0 01-1.5 0v-1.55a.75.75 0 01.75-.75m0 7.701a.75.75 0 01-.75-.75v-1.55a.75.75 0 011.5 0v1.55a.75.75 0 01-.75.75m3.1-3.1a.75.75 0 100-1.5h-1.55a.75.75 0 000 1.5zm-6.95-.75a.75.75 0 01.75-.75h1.55a.75.75 0 010 1.5h-1.55a.75.75 0 01-.75-.75" clip-rule="evenodd"/></svg>