<svg xmlns="http://www.w3.org/2000/svg" width="32" height="32" viewBox="0 0 32 32"><path fill="currentColor" fill-rule="evenodd" d="M22.544 3.22a1 1 0 00-1 1 3.293 3.293 0 01-3.29 3.293h-.003a1 1 0 000 2h.002a3.293 3.293 0 013.29 3.293 1 1 0 002 0 3.293 3.293 0 013.293-3.293 1 1 0 100-2 3.293 3.293 0 01-3.292-3.293 1 1 0 00-1-1m1.196 5.293a5.3 5.3 0 01-1.196-1.196c-.332.46-.737.864-1.196 1.196.46.332.864.737 1.196 1.196a5.3 5.3 0 011.196-1.196m-12.817-.505a1 1 0 00-.874.992 5.877 5.877 0 01-5.874 5.877h-.004a1 1 0 100 2h.005a5.877 5.877 0 015.873 5.877 1 1 0 001 1h.006a1 1 0 00.994-1 5.877 5.877 0 015.877-5.877 1 1 0 100-2A5.877 5.877 0 0112.049 9a1 1 0 00-1.126-.992m3.159 7.87a7.9 7.9 0 01-3.033-3.034 7.9 7.9 0 01-3.034 3.033 7.9 7.9 0 013.034 3.033 7.9 7.9 0 013.033-3.033m7.888 2.085a1 1 0 011 1v2a1 1 0 11-2 0v-2a1 1 0 011-1m0 10a1 1 0 01-1-1v-2a1 1 0 112 0v2a1 1 0 01-1 1m4-4a1 1 0 100-2h-2a1 1 0 100 2zm-9-1a1 1 0 011-1h2a1 1 0 110 2h-2a1 1 0 01-1-1" clip-rule="evenodd"/></svg>