<svg xmlns="http://www.w3.org/2000/svg" width="16" height="16" viewBox="0 0 16 16"><path fill="currentColor" fill-rule="evenodd" d="M11.515 1a.5.5 0 00-.5.5c0 .836-.678 1.514-1.514 1.515H9.5a.5.5 0 100 1c.837 0 1.515.679 1.515 1.515a.5.5 0 001 0c0-.837.678-1.515 1.515-1.515a.5.5 0 000-1A1.515 1.515 0 0112.015 1.5a.5.5 0 00-.5-.5m.51 2.515a2.5 2.5 0 01-.51-.51 2.5 2.5 0 01-.51.51q.291.218.51.51.218-.292.51-.51m-6.48-.096a.5.5 0 00-.5.5 3.05 3.05 0 01-3.046 3.048h-.002a.5.5 0 100 1H2a3.05 3.05 0 013.046 3.048.5.5 0 001 0 3.05 3.05 0 013.048-3.048.5.5 0 100-1A3.05 3.05 0 016.045 3.92a.5.5 0 00-.5-.5m1.597 4.048A4.07 4.07 0 015.545 5.87a4.07 4.07 0 01-1.598 1.597c.672.37 1.228.926 1.598 1.598a4.07 4.07 0 011.597-1.598m4.383 1.5a.5.5 0 01.5.5v1.024a.5.5 0 11-1 0V9.467a.5.5 0 01.5-.5m0 5.095a.5.5 0 01-.5-.5V12.54a.5.5 0 011 0v1.024a.5.5 0 01-.5.5m2.048-2.047a.5.5 0 000-1h-1.024a.5.5 0 100 1zm-4.595-.5a.5.5 0 01.5-.5h1.024a.5.5 0 110 1H9.478a.5.5 0 01-.5-.5" clip-rule="evenodd"/></svg>