<svg xmlns="http://www.w3.org/2000/svg" width="20" height="20" viewBox="0 0 20 20"><path fill="currentColor" fill-rule="evenodd" d="M6.347 7.494A3 3 0 015 4.99C5 3.338 6.326 2 7.962 2h5.076C14.674 2 16 3.338 16 4.989a2.99 2.99 0 01-1.347 2.505A3 3 0 0116 10c0 1.65-1.326 2.989-2.962 2.989h-.054a2.94 2.94 0 01-2.005-.79v2.785A3.014 3.014 0 017.976 18 2.987 2.987 0 015 15.011c0-1.049.536-1.972 1.347-2.505A2.99 2.99 0 015 10c0-1.05.536-1.973 1.347-2.506M10.98 10c0 1.117.897 2.023 2.005 2.023h.054A2.014 2.014 0 0015.043 10a2.014 2.014 0 00-2.005-2.023h-.054A2.014 2.014 0 0010.979 10m-.958-2.023H7.962A2.014 2.014 0 005.957 10c0 1.115.894 2.02 1.999 2.023h2.065zM7.962 12.99h-.006a2.014 2.014 0 00-1.999 2.022c0 1.114.908 2.023 2.019 2.023a2.053 2.053 0 002.045-2.05V12.99zm2.06-5.978h-2.06A2.014 2.014 0 015.957 4.99c0-1.118.898-2.023 2.005-2.023h2.06zm3.016 0h-2.06V2.966h2.06c1.107 0 2.005.905 2.005 2.023a2.014 2.014 0 01-2.005 2.022" clip-rule="evenodd"/></svg>