<svg xmlns="http://www.w3.org/2000/svg" width="16" height="16" viewBox="0 0 16 16"><path fill="currentColor" fill-rule="evenodd" d="M12.998 13.5a.5.5 0 001 0v-11a.5.5 0 10-1 0zm-6.402-1.61a.5.5 0 01-.707 0L2.353 8.353 2 8l.353-.353.012-.012.012-.012.012-.012.012-.012.012-.012.012-.012.011-.012.012-.011.012-.012.012-.012.012-.012.011-.012.012-.011.012-.012.012-.012.011-.012.012-.011.012-.012.012-.012.011-.011.012-.012.012-.012.011-.011.012-.012.011-.012.012-.011.012-.012.011-.011.012-.012.011-.012.012-.011.011-.012.012-.011.011-.012.012-.011.011-.012.012-.011.011-.011.012-.012.011-.011.011-.012.012-.011.011-.011.012-.012.01-.011.012-.011L2.9 7.1l.01-.011.012-.011.011-.012.012-.01.01-.012.012-.011.011-.012.011-.01.012-.012.01-.011.012-.011.011-.011.011-.011.011-.012.011-.01.012-.012.01-.01.012-.012.01-.01.012-.012.01-.01.012-.012.01-.01.012-.012.01-.01.011-.012.011-.01.011-.011.011-.011.011-.011.01-.011.012-.01.01-.012.011-.01.011-.011.01-.011.012-.01.01-.012.011-.01.01-.011.011-.01.011-.011.01-.011.011-.01.011-.011.01-.01.011-.011.01-.011.011-.01.01-.011.011-.01.011-.011.01-.01.01-.011.011-.01.01-.011.011-.01.01-.01.011-.011.01-.01.01-.011.011-.01.01-.01.01-.011.011-.01.01-.01.01-.01.01-.011.011-.01.01-.01.01-.01.01-.01.01-.011.011-.01.01-.01.01-.01.01-.01.01-.01.01-.01.01-.01.01-.01.01-.01.01-.01.01-.01.01-.01.01-.01.01-.01.01-.01.01-.01.01-.01.01-.01.01-.01.01-.01.009-.01.01-.009.01-.01.01-.01.009-.01.01-.009.01-.01.009-.01.01-.009.01-.01.009-.009L4 6l.009-.01.01-.009.009-.01.01-.009.009-.01.01-.009.009-.009.01-.01.009-.009.009-.01.01-.009.009-.009.01-.01.008-.009.01-.009.009-.01.01-.008.008-.01.01-.009.009-.009.009-.01.01-.008.008-.01.01-.009.008-.009.01-.009.009-.009.009-.009.009-.009.009-.009.009-.009.009-.009.008-.009.01-.009.008-.009.01-.008.008-.01.009-.008.009-.009.008-.009.01-.008.008-.01.009-.008.008-.009.01-.008.008-.009.008-.009.009-.008.009-.009.008-.008.009-.009.008-.009.009-.008.008-.009.009-.008.008-.008.009-.009.008-.008.008-.009.009-.008.008-.008.009-.009.008-.008.008-.008.008-.009.009-.008.008-.008.008-.008.008-.008.008-.009.008-.008.009-.008.008-.008.008-.008.008-.008.008-.008.008-.008.008-.008.008-.008.008-.008.008-.008.008-.008.007-.008.008-.007.008-.008.008-.008.008-.008.007-.008.008-.007.008-.008.007-.008.008-.007.008-.008.007-.008.008-.007.008-.008.007-.007.008-.008.007-.007.008-.008.007-.007.008-.008.007-.007.007-.008.008-.007.007-.007.007-.008.008-.007.007-.007.007-.007.007-.008.008-.007.007-.007.007-.007.007-.007.007-.007.007-.007.007-.008.007-.007L5 5l.007-.007.007-.007.007-.006.007-.007.007-.007.007-.007.007-.007.007-.007.006-.007.007-.006.007-.007.007-.007.006-.006.007-.007.007-.007.006-.006.007-.007.006-.007.007-.006.006-.007.007-.006.006-.007.007-.006.006-.007.007-.006.006-.006.006-.007.007-.006.006-.006.006-.007.007-.006.006-.006.006-.006.006-.006.006-.006.006-.007.006-.006.007-.006.006-.006.006-.006.006-.006.006-.006.006-.006.005-.006.006-.006.006-.005.006-.006.006-.006.006-.006.005-.006.006-.005.006-.006.005-.006.006-.005.006-.006.005-.006.006-.005.005-.006.006-.005.005-.006.006-.005.005-.006.006-.005.005-.005.006-.006.005-.005.005-.005.005-.006.006-.005.005-.005.005-.005.005-.006.005-.005.006-.005.005-.005.005-.005.005-.005.005-.005.005-.005.005-.005.005-.005.005-.005.004-.005.005-.005.005-.004.005-.005.005-.005.004-.005.005-.004.005-.005.004-.005.005-.004.005-.005.004-.004.005-.005.004-.004.005-.005.004-.004.005-.005.004-.004.004-.005.005-.004.004-.004.004-.005.005-.004.004-.004.004-.004.004-.004.004-.005.004-.004.005-.004.004-.004.004-.004.004-.004.004-.004.004-.004.003-.004.004-.004.004-.003.004-.004.004-.004.004-.004.003-.003.004-.004.004-.004.003-.004.004-.003.004-.004.003-.003.004-.004.003-.003.004-.004L5.7 4.3l.003-.004.004-.003.003-.003.003-.004.004-.003.003-.003.003-.003.003-.004.004-.003.003-.003.003-.003.003-.003.003-.003.003-.003.003-.003.003-.003.003-.003.003-.003.003-.003.003-.003.002-.003.003-.002.003-.003.003-.003.002-.003.003-.002.003-.003.002-.002.003-.003.002-.002.003-.003.002-.002.003-.003L5.8 4.2l.002-.003.003-.002.002-.002.002-.003.003-.002.002-.002.002-.002.002-.002.002-.003.002-.002.002-.002.003-.002.002-.002.001-.002.002-.002.002-.002.002-.001.002-.002.002-.002.002-.002.001-.002.002-.001.002-.002.001-.002.002-.001.002-.002.001-.001.002-.002.001-.001.002-.002.001-.001.001-.002.002-.001.001-.001.001-.002h.002v-.002l.002-.001.001-.001.001-.002h.001l.001-.002h.001l.001-.002h.001l.001-.002h.001l.001-.001.001-.001V4.12h.002v-.002h.002v-.002h.001v-.001h.001v-.001h.001l.001-.001v-.001h.001V4.11l.354.354.354.353-.001.001-.001.001-.001.001-.001.001-.001.001-.001.001-.001.001-.001.001-.001.001-.002.002-.002.002-.001.001-.001.001-.001.001-.001.001-.002.002-.002.002-.001.001-.001.001-.002.002-.002.002-.002.002-.002.002-.002.002-.001.001-.002.002-.001.001-.002.002-.002.002-.001.001-.002.002-.002.002-.001.001-.002.002-.002.002-.002.002-.002.002-.001.001-.002.002-.002.002-.002.002-.002.002-.002.002-.003.003-.002.002-.002.002-.002.002-.002.002-.003.003-.002.002-.002.002-.002.002-.003.003-.002.002-.003.003-.002.002-.003.003-.002.002-.003.003-.002.002-.003.003-.003.003-.002.002-.003.003-.003.003-.003.003-.002.002-.003.003-.003.003-.003.003-.003.003-.003.003-.003.003-.003.003-.003.003-.003.003-.003.003-.003.003-.003.003-.004.004-.003.003-.003.003-.003.003-.004.004-.003.003-.003.003-.004.004-.003.003-.004.004-.003.003-.004.004-.003.003-.004.004-.004.004-.003.003-.004.004-.004.004-.003.003-.004.004-.004.004-.004.004-.004.004-.003.003-.004.004-.004.004-.004.004-.004.004-.004.004-.004.004-.004.004-.005.005-.004.004-.004.004-.004.004-.004.004-.005.005-.004.004-.004.004-.005.004-.004.005-.004.004-.005.005-.004.004-.005.005-.004.004-.005.005-.004.004-.005.005-.004.004-.005.005-.005.005-.005.005-.004.004-.005.005-.005.005-.005.005-.004.004-.005.005-.005.005-.005.005-.005.005-.005.005-.005.005-.005.005-.005.005-.005.005-.005.005-.006.006-.005.005-.005.005-.005.005-.005.005-.006.006-.005.005-.005.005-.006.006-.005.005-.005.005-.006.006-.005.005-.006.006-.005.005-.006.006-.006.006-.005.005-.006.006-.005.005-.006.006-.006.006-.006.006-.005.005-.006.006-.006.006-.006.006-.006.006-.005.005-.006.006-.006.006-.006.006-.006.006-.006.006-.006.006-.006.006-.006.006-.007.007-.006.006-.006.006-.006.006-.006.006-.007.007-.006.006-.006.006-.006.006-.007.007-.006.006-.007.007-.006.006-.006.006-.007.007-.006.006-.007.007-.007.007-.006.006-.007.007-.006.006-.007.007-.007.007-.006.006-.007.007-.007.007-.007.007-.006.006-.007.007-.007.007-.007.007-.007.007-.007.007-.007.007-.007.007-.007.007-.007.007-.007.007-.007.007-.007.007-.007.007-.007.007-.007.007-.007.007-.008.007-.007.008-.007.007-.007.007-.008.008-.007.007-.007.007-.008.008-.007.007-.007.007-.008.008-.007.007-.008.008-.007.007-.008.008-.007.007-.008.008-.007.007-.008.008-.008.008-.007.007-.008.008-.008.008-.008.008-.007.007-.008.008-.008.008-.008.008-.008.008-.007.007-.008.008-.008.008-.008.008-.008.008-.008.008-.008.008-.008.008-.008.008-.008.008-.008.008-.008.008-.009.009-.008.008-.008.008-.008.008-.008.008-.009.009-.008.008-.008.008-.008.008-.009.009-.008.008-.008.008-.009.009-.008.008-.009.009-.008.008-.009.009-.008.008-.009.009-.008.008-.009.009-.008.008-.009.009-.009.008-.008.01-.009.008-.009.009-.008.008-.009.009-.009.009-.008.008-.01.01-.008.008-.009.009-.009.009-.009.009-.008.008-.01.01-.008.008-.01.01-.008.008-.01.01-.008.008-.01.01-.008.008-.01.01-.009.009-.009.009-.009.009-.009.009-.01.01-.008.008-.01.01-.009.009-.009.009-.01.01-.009.009-.009.009-.01.01-.008.008-.01.01-.01.01-.009.009-.01.01-.009.009-.009.009-.01.01-.009.009-.01.01-.009.009-.01.01-.01.01-.009.009-.01.01-.009.009-.01.01-.01.01-.009.009-.01.01-.01.01-.01.01-.009.009-.01.01-.01.01-.01.01-.01.01-.009.009-.01.01-.01.01-.01.01-.01.01-.01.01-.01.01-.01.01-.01.01-.01.01-.01.01-.01.01-.01.01-.01.01-.01.01-.01.01-.01.01-.01.01-.01.01-.01.01-.01.01-.011.011-.01.01-.01.01-.01.01-.011.011-.01.01-.01.01-.011.011-.01.01-.01.01-.011.011-.01.01-.011.011-.01.01-.011.01-.01.011-.01.01-.011.011-.011.011-.01.01-.011.011-.01.01-.011.011-.01.01-.011.011-.011.011-.01.01-.011.011-.011.011-.01.01-.012.012-.01.01-.011.011-.01.01-.012.012-.01.01-.011.011-.011.011-.01.01-.012.012-.01.01-.004.004h7.584a.5.5 0 010 1H3.914l2.682 2.682a.5.5 0 010 .707m-.354-7.425L5.89 4.11a.5.5 0 11.707.707z" clip-rule="evenodd"/></svg>