<svg xmlns="http://www.w3.org/2000/svg" width="12" height="12" viewBox="0 0 12 12"><path fill="currentColor" fill-rule="evenodd" d="M10.504 11a.5.5 0 01-.5-.5v-9a.5.5 0 111 0v9a.5.5 0 01-.5.5m-7.59-4.5h5.59a.5.5 0 100-1h-5.59l.004-.004.008-.008.009-.009.008-.008.009-.008.008-.009.008-.008.009-.009.008-.008.009-.008.008-.009.008-.008.008-.008.009-.009.008-.008.008-.008.009-.008.008-.009.008-.008.008-.008.008-.008.009-.008.008-.009.008-.008.008-.008.008-.008.008-.008.008-.008.008-.008.009-.008.008-.008.008-.008.008-.008.008-.008.008-.008.008-.008.008-.008.008-.008.007-.008.008-.008.008-.008.008-.008.008-.008.008-.008.008-.008.008-.007.007-.008.008-.008.008-.008.008-.008.008-.007.007-.008.008-.008.008-.008.008-.007.007-.008.008-.008.008-.007.007-.008.008-.008.007-.007.008-.008L3.416 5l.007-.008.008-.008.007-.007.008-.008.007-.007.008-.008.007-.007.008-.008.007-.007.008-.007.007-.008.007-.007.008-.008.007-.007.008-.007.007-.008.007-.007.008-.007.007-.008.007-.007.007-.007.008-.007.007-.008.007-.007.007-.007.007-.007.008-.007.007-.007.007-.008.007-.007.007-.007.007-.007.007-.007.007-.007.007-.007.007-.007.007-.007.007-.007.007-.007.007-.007.007-.007.007-.007.007-.007.007-.007.007-.006.006-.007.007-.007.007-.007.007-.007.007-.007.006-.006.007-.007.007-.007.007-.006.006-.007.007-.007.007-.006.006-.007.007-.007.007-.006.006-.007.007-.007.006-.006.007-.007.006-.006.007-.007.006-.006.007-.007.006-.006.007-.007.006-.006.007-.006.006-.007.006-.006.007-.006.006-.007.006-.006.007-.006.006-.007.006-.006.006-.006.007-.006.006-.007.006-.006.006-.006.006-.006.006-.006.007-.006.006-.006.006-.006.006-.007.006-.006.006-.006.006-.006.006-.006.006-.006.006-.006.006-.005.006-.006.005-.006.006-.006.006-.006.006-.006.006-.006.006-.005.005-.006.006-.006.006-.006.006-.005.005-.006.006-.006.006-.005.005-.006.006-.006.006-.005.005-.006.006-.006.005-.005.006-.006.005-.005.006-.006.005-.005.006-.006.005-.005.006-.005.005-.006.005-.005.006-.006.005-.005.005-.005.006-.005.005-.006.005-.005.005-.005.006-.005.005-.006.005-.005.005-.005.005-.005.005-.005.006-.005.005-.005.005-.005.005-.006.005-.005.005-.005.005-.004.005-.005.005-.005.005-.005.004-.005.005-.005.005-.005.005-.005.005-.005.005-.004.004-.005.005-.005.005-.005.005-.004L4.414 4l.005-.005.005-.004.004-.005.005-.005.004-.004.005-.005.004-.004.005-.005.005-.004.004-.005.004-.004.005-.005.004-.004.005-.004.004-.005.004-.004.005-.005.004-.004.004-.004.005-.004.004-.005.004-.004.004-.004.004-.004.005-.004.004-.005.004-.004.004-.004.004-.004.004-.004.004-.004.004-.004.004-.004.004-.004.004-.004.004-.004.004-.004.004-.004.004-.003.003-.004.004-.004.004-.004.004-.004.004-.003.003-.004.004-.004.004-.003.003-.004.004-.004.003-.003.004-.004.004-.003.003-.004.004-.003.003-.004.004-.003.003-.004.004-.003.003-.004.003-.003.004-.003.003-.004.003-.003.004-.003.003-.004.003-.003.003-.003.004-.003.003-.004.003-.003.003-.003.003-.003.003-.003.003-.003.003-.003.003-.003.003-.003.003-.003.003-.003.003-.003.003-.003.003-.003.003-.003.003-.002.002-.003.003-.003.003-.003.003-.002.002-.003.003-.003.003-.002.002-.003.003-.003.003-.002.002-.003.003-.002.002-.003.003-.002.002-.003.003-.002.002-.003.002-.002.003-.002.002-.003.002-.002.003-.002.002-.003.002-.002.002-.002.003-.002.002-.003.002-.002.002-.002.002-.002.002-.002.002-.002.002-.002.002-.002.002-.002.002-.002.002-.002.002-.002.002-.002.002-.002.002-.001.001-.002.002-.002.002-.002.002-.001.001-.002.002-.002.002-.001.001-.002.002-.002.001-.001.002-.002.002-.001.001-.002.001-.001.002-.002.001-.001.002-.002h.001l.001-.002.002-.002h.001l.001-.002.002-.001v-.002h.002l.001-.002.001-.001.001-.001.001-.001.002-.001v-.001l.002-.001v-.001l.002-.001V3.54l.001-.001.001-.001h.001v-.002h.002v-.001l.001-.001.002-.001v-.001l.002-.001V3.53l.001-.001h.001v-.001h.001v-.001h.001v-.001h.001v-.001h.001l-.353-.354.353.353a.5.5 0 00-.707-.707l.354.354-.354-.354-.001.001-.001.001-.001.001-.001.001-.001.001-.001.001-.001.001-.002.002-.002.002-.001.001-.001.001-.002.002-.002.002-.002.002-.002.002-.002.002-.002.002-.001.001-.001.001-.002.002-.002.002-.001.001-.002.002-.001.001-.001.001-.002.002-.001.001-.002.002-.001.001-.002.002-.001.001-.002.002-.001.001-.002.002-.001.001-.002.002-.002.002-.001.001-.002.002-.002.002-.002.002-.002.002-.001.001-.002.002-.002.002-.002.002-.002.002-.002.002-.002.002-.002.002-.002.002L4.1 2.9l-.002.002-.002.002-.002.002-.002.002-.003.003-.002.002-.002.002-.002.002-.002.002-.003.003-.002.002-.002.002-.003.003-.002.002-.003.003-.002.002-.002.002-.003.003-.002.002-.003.003-.003.003-.002.002-.003.003-.002.002-.003.003-.003.003-.002.002-.003.003-.003.003-.003.003-.003.003-.002.002-.003.003-.003.003-.003.003-.003.003-.003.003-.003.003L4 3l-.003.003-.003.003-.003.003-.003.003-.003.003-.003.003-.003.003-.004.004-.003.003-.003.003-.003.003-.003.003-.004.004-.003.003-.003.003-.004.004-.003.003-.004.004-.003.003-.003.003-.004.004-.003.003-.004.004-.003.003-.004.004-.004.004-.003.003-.004.004-.003.003L3.9 3.1l-.004.004-.004.004-.003.003-.004.004-.004.004-.004.004-.004.004-.003.003-.004.004-.004.004-.004.004-.004.004-.004.004-.004.004-.004.004-.004.004-.004.004-.004.004-.004.004-.004.004-.004.004-.005.005-.004.004-.004.004-.004.004-.005.005-.004.004-.004.004-.004.004-.005.005-.004.004-.004.004-.005.005-.004.004-.005.005-.004.004-.005.005-.004.004-.005.005-.004.004-.005.005-.004.004-.005.005-.005.005-.004.004-.005.005-.005.005-.004.004-.005.005-.005.005-.005.005-.004.004-.005.005-.005.005-.005.005-.005.005-.005.005-.005.005-.004.004-.005.005-.005.005-.005.005-.005.005-.005.005-.005.005-.006.006-.005.005L3.6 3.4l-.005.005-.005.005-.005.005-.005.005-.006.006-.005.005-.005.005-.005.005-.006.006-.005.005-.005.005-.006.006-.005.005-.006.006-.005.005-.005.005-.006.006-.005.005-.006.006-.005.005-.006.006-.005.005-.006.006-.006.006-.005.005-.006.006-.005.005-.006.006-.006.006-.005.005-.006.006-.006.006-.006.006-.005.005-.006.006-.006.006-.006.006-.006.006-.006.006-.006.006-.005.005-.006.006-.006.006-.006.006-.006.006-.006.006-.006.006-.006.006-.006.006-.006.006-.007.007-.006.006L3.3 3.7l-.006.006-.006.006-.006.006-.007.007-.006.006-.006.006-.006.006-.007.007-.006.006-.006.006-.006.006-.007.007-.006.006-.007.007-.006.006L3.2 3.8l-.007.007-.006.006-.007.007-.006.006-.007.007-.006.006-.007.007-.006.006-.007.007-.007.007-.006.006-.007.007-.006.006-.007.007L3.1 3.9l-.006.006-.007.007-.007.007-.007.007-.006.006-.007.007-.007.007-.007.007-.007.007-.006.006-.007.007-.007.007-.007.007-.007.007-.007.007-.007.007-.007.007-.007.007-.007.007-.007.007-.007.007-.007.007-.007.007-.007.007-.007.007-.007.007-.007.007-.008.008L2.9 4.1l-.007.007-.007.007-.007.007-.008.008-.007.007-.007.007-.007.007-.008.008-.007.007-.007.007-.008.008-.007.007-.007.007-.008.008-.007.007-.007.007-.008.008-.007.007-.008.008-.007.007-.008.008-.007.007-.008.008-.007.007-.008.008-.007.007L2.7 4.3l-.008.008-.007.007-.008.008-.008.008-.007.007-.008.008-.008.008-.007.007-.008.008-.008.008-.008.007-.007.008L2.6 4.4l-.008.008-.008.008-.007.007-.008.008-.008.008-.008.008-.008.008-.008.008-.008.008-.008.008-.008.008-.008.008-.007.008-.008.007-.008.008-.008.008-.009.009-.008.008-.008.008-.008.008-.008.008-.008.008-.008.008-.008.008-.008.008-.008.008-.009.009-.008.008-.008.008-.008.008-.008.008-.009.009-.008.008-.008.008-.008.008-.009.009-.008.008-.008.008-.009.009-.008.008-.008.008-.009.009-.008.008-.008.008-.009.009-.008.008-.009.009-.008.008-.009.009-.008.008-.009.009-.008.008-.009.009-.008.008-.009.009-.008.008-.009.009-.008.008-.009.009-.009.009L2.1 4.9l-.009.009-.008.008-.01.01-.008.008-.008.008-.01.01-.008.008-.009.009-.008.008-.009.009-.009.009-.009.009-.008.008-.01.01-.008.008-.009.009-.009.009-.008.008-.01.01-.008.008-.009.009-.009.009-.009.009-.009.009-.009.009-.008.008-.01.01-.008.008-.01.01-.008.008-.01.01-.008.008-.01.01L1.8 5.2l-.01.01-.008.008-.01.01-.009.009-.009.009-.009.009-.009.009-.009.009-.01.01-.008.008-.01.01-.009.009-.009.009-.009.009-.01.01-.008.008-.01.01-.009.009-.009.009-.01.01-.009.008-.009.01-.01.01-.008.008-.01.01-.009.009-.01.01-.009.009-.009.009-.01.01-.009.009-.01.01-.008.008-.01.01-.01.01-.009.009-.01.01-.009.009-.009.009-.01.01-.009.009-.01.01-.009.009-.01.01-.009.009-.01.01-.009.009-.01.01L1 6l.354.354 2.828 2.828a.5.5 0 00.707-.707z" clip-rule="evenodd"/></svg>