<svg xmlns="http://www.w3.org/2000/svg" width="24" height="24" viewBox="0 0 24 24"><path fill="currentColor" fill-rule="evenodd" d="M20.247 21a.75.75 0 01-.75-.75V3.75a.75.75 0 011.5 0v16.5a.75.75 0 01-.75.75M5.872 12.75h11.375a.75.75 0 000-1.5H5.872l.018-.018.019-.02.018-.018.019-.018.018-.019.019-.018L6 11.12l.019-.018.018-.018.018-.019.019-.018.018-.018.018-.019.019-.018.018-.018.018-.018.018-.018.018-.019.019-.018.018-.018.018-.018.018-.018.018-.018.018-.018.018-.018.018-.018.018-.018.017-.018.018-.018.018-.017.018-.018.018-.018.017-.018.018-.017.018-.018.018-.018.017-.017.018-.018.017-.018.018-.017.017-.018.018-.017.017-.018.018-.017.017-.017.018-.018.017-.017.017-.017.018-.018.017-.017.017-.017.017-.017.017-.018.017-.017.018-.017.017-.017.017-.017.017-.017.017-.017.017-.017.017-.017.017-.017.016-.017.017-.017.017-.016.017-.017.017-.017.016-.017.017-.016.017-.017.016-.017.017-.016.016-.017.017-.016.017-.017.016-.016.016-.017.017-.016.016-.016.017-.017.016-.016.016-.016.016-.017.017-.016.016-.016.016-.016.016-.016.016-.017.016-.016.016-.016.016-.016.016-.016.016-.016.016-.015.016-.016.016-.016.016-.016.016-.016.015-.016.016-.015.016-.016.015-.016.016-.015.015-.016.016-.015.016-.016.015-.015.015-.016.016-.015.015-.016.016-.015.015-.015.015-.015.015-.016.016-.015.015-.015.015-.015.015-.015.015-.015.015-.015.015-.015.015-.015.015-.015.015-.015.015-.015.015-.015.015-.015.014-.015.015-.014.015-.015.014-.015.015-.014.015-.015.014-.014L8.122 9l.014-.014.015-.015.014-.014.014-.015.015-.014.014-.014.014-.015.015-.014.014-.014.014-.014.014-.014.014-.014.014-.014.014-.015.014-.013.014-.014.014-.014.014-.014.014-.014.014-.014.013-.014.014-.013.014-.014.013-.014.014-.013.014-.014.013-.013.014-.014.013-.013.014-.014.013-.013.013-.014.014-.013.013-.013.013-.013.013-.014.014-.013.013-.013.013-.013.013-.013.013-.013.013-.013.013-.013.013-.013.013-.013.012-.013.013-.012.013-.013.013-.013.012-.012.013-.013.012-.013.013-.012.013-.013.012-.012.012-.013.013-.012.012-.012.012-.013.013-.012.012-.012.012-.012.012-.013.012-.012.013-.012.012-.012.012-.012.011-.012.012-.012.012-.012.012-.011.012-.012.012-.012.011-.012.012-.011.012-.012.011-.011.012-.012.011-.012.012-.011.011-.011.012-.012.01-.011.012-.011.011-.012.012-.01.01-.012.012-.011.011-.011.011-.011.011-.011.011-.011.011-.011.01-.011.012-.011.01-.01.011-.012.011-.01.01-.01.011-.012.01-.01.011-.01.011-.011.01-.01.01-.011.011-.01.01-.01.01-.011.011-.01.01-.01.01-.01.01-.01.01-.01.01-.01.01-.01.01-.01.01-.01.01-.01.01-.01.01-.01.01-.01.01-.01.009-.01.01-.009.009-.01.01-.009.009-.01.01-.009.009-.009.01-.01.008-.009.01-.009.009-.009.009-.01.009-.008.01-.01.008-.008.009-.01.009-.008.009-.009.009-.009.008-.009.01-.008.008-.01.008-.008.009-.008.009-.009.008-.008.009-.009.008-.008.008-.009.009-.008.008-.008.008-.008.008-.009.008-.008.009-.008.008-.008.008-.008.008-.008.007-.008.008-.008.008-.007.008-.008.008-.008.007-.007.008-.008.007-.008.008-.007.007-.008.008-.007.007-.007.008-.008.007-.007.007-.007.007-.007.007-.008.007-.007.008-.007.006-.007.007-.007.007-.007.007-.006.007-.007.007-.007.006-.007.007-.006.007-.007.006-.006.007-.007.006-.006.006-.007.007-.006.006-.006.006-.007.007-.006.006-.006.006-.006.006-.006.006-.006.006-.006.006-.006.006-.006.005-.006.006-.006.006-.005.006-.006.005-.006.006-.005.005-.006.006-.005.005-.005.006-.006.005-.005.005-.005.005-.006.005-.005.006-.005.005-.005.005-.005.005-.005.005-.005.004-.005.005-.004.005-.005.005-.005.004-.004.005-.005.004-.005.005-.004.004-.004.005-.005.004-.004.004-.004.004-.005.005-.004.004-.004.004-.004.004-.004.004-.004.004-.004.003-.004.004-.003.004-.004.004-.004.003-.004.004-.003.003-.004.004-.003.003-.004.004-.003.003-.003.003-.004.003-.003.004-.003.003-.003.003-.003.003-.003.003-.003.003-.003.002-.003.003-.003.003-.002.003-.003.002-.003.003-.002.002-.003.003-.002.002-.002.002-.003.003-.002.002-.002.002-.002.002-.003.002-.002.002-.002.002-.002.002-.002.002-.001.002-.002.002-.002.001-.002.002-.001.002-.002.001-.001.002-.002.002-.001.002-.002v-.001l.002-.001.001-.001.001-.001.001-.001.001-.001V6.57l.002-.001.001-.002h.002v-.001l.001-.001.001-.001-.53-.531.53.53a.75.75 0 10-1.06-1.06l.53.53-.53-.53h-.001v.001h-.001v.001h-.001v.001h-.001l-.001.002-.002.001v.001l-.002.001v.001l-.002.001v.001l-.002.001-.001.002h-.001l-.002.002-.001.002-.002.001-.001.002-.002.001-.001.002-.002.001-.002.002-.002.002-.001.002-.002.002-.002.002-.002.002-.002.002-.002.002-.003.002-.002.002-.002.003-.002.002-.003.002-.002.003-.003.002-.002.003-.003.002-.003.003-.002.003-.003.003-.003.002-.003.003-.003.003-.003.003-.003.003-.003.003-.003.004-.003.003L9.4 5.6l-.003.003-.003.004-.004.003-.003.004-.004.003-.003.004-.004.003-.004.004-.003.004-.004.004-.004.004-.004.003-.004.004-.004.004-.004.004-.004.005-.004.004-.005.004-.004.004-.004.005-.004.004-.005.004-.004.005-.005.004-.004.005-.005.005-.005.004-.005.005-.004.005-.005.005-.005.005-.005.004-.005.005-.005.006-.005.005-.005.005-.006.005-.005.005-.005.006-.005.005-.006.005-.005.006-.006.005-.005.006-.006.005-.006.006-.005.006-.006.006-.006.005-.006.006-.006.006-.006.006-.006.006-.006.006-.006.006-.006.006-.006.007-.006.006-.007.006-.006.007-.007.006-.006.006-.006.007-.007.006-.007.007-.006.007-.007.006-.007.007-.007.007-.006.007-.007.007-.007.007-.007.007-.007.007-.007.007L9 6l-.008.007-.007.007-.007.008-.007.007-.008.007-.007.008-.008.007-.007.008-.008.007-.007.008-.008.008-.008.007-.008.008-.007.008-.008.008-.008.008-.008.008-.008.008-.008.008-.008.008-.008.008-.009.008-.008.008-.008.008-.008.009-.009.008-.008.009-.009.008-.008.008-.009.009-.008.009-.009.008-.009.009-.008.009-.009.008-.009.01-.009.008-.009.01-.009.008-.009.009-.009.01-.009.008-.009.01-.01.009-.008.009-.01.009-.009.01-.01.009-.009.01-.01.009-.009.01-.01.009-.009.01-.01.009-.01.01-.009.01-.01.009-.01.01-.01.01-.01.01-.009.01-.01.01-.01.01-.01.01-.01.01-.01.01-.01.01-.01.01-.011.01-.01.01-.01.011-.011.01-.01.011-.011.01-.01.011-.011.01-.01.011L8.3 6.7l-.01.01-.011.012-.01.01-.012.011-.01.011-.012.011-.01.01-.012.012-.01.011-.012.011-.01.011-.012.011-.011.012-.011.01-.012.012-.011.012-.011.01-.012.012-.011.012-.012.011-.011.012-.012.011-.012.012-.011.012-.012.011-.012.012-.012.012-.011.012-.012.012-.012.012-.012.012-.012.012-.012.012-.012.012-.012.012-.012.012-.013.012-.012.012-.012.013-.013.012-.012.012-.012.013-.013.012-.012.013-.013.012-.012.013-.013.012-.012.013-.013.013-.013.012-.013.013-.012.013-.013.013-.013.012-.013.013-.013.013-.013.013-.013.013-.013.013-.013.013-.013.014-.013.013-.013.013-.014.013-.013.013-.013.014-.014.013-.013.014-.013.013-.014.013-.013.014-.014.013-.014.014-.013.014-.014.013-.014.014-.013.014-.014.013-.014.014-.014.014-.014.014-.013.014-.014.014-.014.014-.014.014-.014.014-.015.014-.014.014-.014.014-.014.014-.014.015-.015.014-.014.014-.014.015-.015.014-.014.014-.014.015-.015.014-.014.015-.015.014-.015.015-.014.015-.015.014-.015.015-.014.015-.015.015-.015.014-.015.015-.015.015-.015.015-.014.015-.015.015-.015.015-.015.015-.016.015-.015.015-.015.015-.015.015-.015.016-.015.015-.016.015-.015.015-.015.016-.016.015-.015.016-.016.015-.015.016-.016.015-.015.016-.016.015-.015.016-.016.015-.016.016-.015.016L6.5 8.5l-.016.015-.016.016-.016.016-.015.016-.016.016-.016.016-.016.016-.016.016-.016.016-.016.016-.016.016-.017.016-.016.016-.016.016-.016.017-.016.016-.017.016-.016.017-.016.016-.017.016-.016.017-.017.016-.016.017-.017.016-.016.017-.017.016-.016.017-.017.016-.017.017-.016.017-.017.016-.017.017-.017.017-.016.017-.017.017-.017.017-.017.016-.017.017-.017.017-.017.017-.017.017-.017.017-.017.018-.017.017-.017.017-.017.017-.018.017-.017.017-.017.018-.017.017-.018.017-.017.018-.017.017-.018.017-.017.018-.018.017-.017.018-.018.017-.017.018-.018.017-.018.018-.017.018-.018.017-.017.018-.018.018-.018.017-.018.018-.018.018-.017.018-.018.018-.018.018-.018.017-.018.018-.018.018-.018.018-.018.018-.018.018-.018.018-.018.019-.018.018-.018.018-.019.018-.018.018-.018.018-.018.019-.019.018-.018.018-.018.019-.019.018-.018.018-.018.019-.019.018-.018.019-.019.018-.018.019-.019.018-.018.019-.019.018-.019.019-.018.019-.019.018-.019.02-.018.018-.02.019-.018.018-.019.02-.018.018-.02.019-.018.019-.02.018-.018.02-.019.018-.019.02-.019.018-.019.02-.019.018-.02.02-.018.019-.02.019-.018.019-.02.019-.019.02-.019.018-.02.02-.018.019-.02.02-.02.018-.018.02-.02.02-.02.019-.019.019-.019.02-.02.019-.019.02-.02.019-.019.02-.02.019-.019.02-.02.019-.02.02-.019.02-.02.019-.02.02-.019.02-.02.019-.02.02-.019.02-.02.02-.02.019-.02.02-.02.02-.02.02-.019.02-.02.02-.02.02-.02.02-.02.02-.02.02-.02.02-.02.02-.02.02-.02.02-.02.02-.02.02L3 12l.53.53 5.968 5.968a.75.75 0 101.06-1.06z" clip-rule="evenodd"/></svg>