<svg xmlns="http://www.w3.org/2000/svg" width="32" height="32" viewBox="0 0 32 32"><path fill="currentColor" fill-rule="evenodd" d="M25.996 27a1 1 0 01-1-1V6a1 1 0 112 0v20a1 1 0 01-1 1M8.828 17h13.168a1 1 0 100-2H8.828l.012-.012.02-.02.02-.02.02-.02.02-.02.02-.02.02-.02.02-.02.02-.019.02-.02.02-.02.019-.02.02-.02.02-.02.02-.019.02-.02.019-.02.02-.02.02-.019.02-.02.019-.02.02-.02.02-.019.019-.02.02-.02.02-.019.019-.02.02-.019.02-.02.019-.02.02-.019.019-.02.02-.019.019-.02.02-.019.019-.02.02-.019.019-.02.02-.019.019-.02.019-.019.02-.019.019-.02.02-.019.018-.019.02-.02.019-.019.02-.019.019-.02.019-.018.019-.02.02-.019.018-.019.02-.02.019-.018.019-.02.019-.018.019-.02.02-.019.018-.019.02-.019.018-.019.02-.019.018-.019.019-.018.019-.02.019-.018.019-.02.019-.018.018-.019.02-.019.018-.019.019-.018.018-.019.02-.019.018-.018.018-.019.02-.019.018-.018.018-.019.019-.018.018-.019.019-.019.018-.018.019-.018.018-.019.019-.018.018-.019.019-.018.018-.018.018-.019.018-.018.019-.018.018-.019.018-.018.018-.018.018-.018.019-.018.018-.018.018-.018.018-.018.018-.018.018-.018.018-.018.018-.018.018-.018.018-.018.017-.018.018-.018.018-.018.018-.017.018-.018.017-.018.018-.018.018-.017.017-.018.018-.017.017-.018.018-.017.017-.018.018-.017.017-.018.018-.017.017-.018.017-.017.018-.017.017-.017.017-.018.017-.017.018-.017.017-.017.017-.017.017-.018.017-.017.017-.016.017-.018.017-.016.017-.017.017-.017.017-.017.016-.017.017-.017.017-.016.017-.017.016-.017.017-.016.017-.017.016-.017.017-.016.016-.017.016-.016.017-.017.016-.016.017-.016.016-.017.016-.016.017-.016.016-.016.016-.016.016-.017.016-.016.016-.016.016-.016.016-.016.016-.016.016-.015.016-.016.016-.016.015-.016.016-.016.016-.015.016-.016.015-.016.016-.015.015-.016.016-.015.015-.016.016-.015.015-.016.015-.015.016-.015.015-.016.015-.015.015-.015.016-.015.015-.015.015-.015.015-.015.015-.015.015-.015.014-.015.015-.015.015-.015.015-.014.015-.015.014-.015.015-.014.014-.015.015-.015.014-.014.015-.015.014-.014.015-.014.014-.015.014-.014.015-.014.014-.014.014-.014.014-.014.014-.015.014-.014.014-.014.014-.013.014-.014.014-.014.013-.014.014-.014.014-.013.013-.014.014-.014.013-.013.014-.013.013-.014.014-.013.013-.014.013-.013.014-.013.013-.013.013-.013.013-.014.013-.013.013-.013.013-.013.013-.012.013-.013.012-.013.013-.013.013-.013.013-.012.012-.013.013-.012.012-.013.013-.012.012-.013.012-.012.013-.012.012-.012.012-.013.012-.012.012-.012.012-.012.012-.012.012-.012.012-.012.012-.011.012-.012.011-.012.012-.011.012-.012.011-.012.011-.011.012-.011.011-.012.012-.011.01-.011.012-.012.011-.01.011-.012.011-.011.011-.011.011-.01.011-.012.011-.01.01-.011.011-.011.011-.01.01-.011.011-.01.01-.011.011-.01.01-.011.01-.01.011-.01.01-.01.01-.011.01-.01.01-.01.01-.01.01-.01.01-.01.01-.01.01-.01.01-.009.009-.01.01-.009.009-.01.01-.009.009-.01.009-.008.01-.01.008-.009.01-.009.008-.01.01-.008.008-.009.01-.009.008-.009.009-.008.008-.01.01-.008.008-.008.008-.009.009-.008.008-.008.008-.009.008-.008.009-.008.008-.008.008-.008.008-.008.008-.008.008-.008.007-.008.008-.008.008-.007.007-.008.008-.007.007-.008.008-.007.007-.007.007-.008.007-.007.008-.007.007-.007.007-.007.006-.007.007-.007.007-.007.007-.006.007-.007.006-.007.007-.006.006-.007.006-.006.007-.006.006-.007.006-.006.006-.006.006-.006.006-.006.006-.006.006-.006.006-.005.005-.006.006-.006.006-.005.005-.006L14 9.83l.006-.005.005-.006.005-.005.005-.005.005-.005.005-.005.005-.005.005-.005.005-.005.005-.004.004-.005.005-.004.004-.005.005-.004.004-.005.004-.004.005-.004.004-.004.004-.004.004-.004.004-.004.003-.004.004-.004.004-.003.003-.004.004-.003.003-.004.004-.003.003-.003.003-.004.003-.003.003-.003.003-.003.003-.003.003-.003.003-.002.002-.003.003-.003.002-.002.003-.003.002-.002.003-.002.002-.002.002-.003.002-.002.002-.002.002-.001.002-.002.001-.002.002-.002.002-.001.001-.002.002-.001v-.002h.002l.001-.002.002-.001v-.001l.001-.001h.001l.001-.002h.001v-.001h.001v-.001h.001l-.707-.708.707.707a1 1 0 00-1.414-1.414l.707.707-.707-.707-.001.001-.002.001v.001l-.002.002-.002.002-.002.002-.001.001-.002.002-.001.001-.002.002-.001.001-.002.002-.002.002-.001.001-.002.002-.002.002-.002.002-.002.002-.003.003-.002.002-.002.002-.003.003-.002.002-.003.003-.002.002-.003.003-.003.003-.003.003-.003.003-.003.003-.003.003-.003.003-.004.004-.003.003-.003.003-.004.004-.003.004-.004.003-.004.004-.004.004-.004.004-.004.004-.004.004-.004.004-.004.004-.004.004-.005.004-.004.005-.004.004-.005.005-.005.005-.004.004-.005.005-.005.005-.005.005-.005.005-.005.005-.005.005-.005.005-.005.005-.006.006-.005.005-.006.006-.005.005-.006.006-.005.005-.006.006-.006.006-.006.006-.006.006-.006.006-.006.006-.006.006-.007.006-.006.007-.006.006-.007.007-.006.006-.007.007-.006.006-.007.007-.007.007-.007.007-.007.007-.007.007-.007.007-.007.007-.007.007-.007.007-.008.008-.007.007-.008.007-.007.008-.008.008-.007.007-.008.008-.008.008-.008.008-.008.007-.008.008-.008.008-.008.009-.008.008-.008.008-.008.008-.009.009-.008.008-.009.009-.008.008-.009.009-.008.008-.01.01-.008.008-.009.009-.009.009-.009.009-.009.009-.009.009-.009.009-.01.01-.009.009-.009.009-.01.01-.009.009-.01.01-.009.009-.01.01-.01.01-.01.01-.009.009-.01.01-.01.01-.01.01-.01.01-.01.01-.01.01-.01.01-.01.01-.011.011-.01.01-.01.01-.012.011-.01.011-.01.01-.011.011-.011.011-.011.011-.01.01-.012.012-.01.01-.012.012-.01.01-.012.012-.011.011-.012.012-.01.01-.012.012-.012.012-.011.011-.012.012-.011.011-.012.012-.012.012-.011.011-.012.012-.012.012-.012.012-.012.012-.012.012-.012.012-.012.012-.012.012-.013.013-.012.012-.012.012-.013.013-.012.012-.012.012-.013.013-.013.013-.012.012-.013.013-.013.013-.012.012-.013.013-.013.013-.013.013-.013.013-.013.013-.013.013-.013.013-.014.014-.013.013-.013.013-.014.014-.013.013-.013.013-.014.014-.013.013-.014.014-.013.014-.014.013-.014.014-.014.014-.013.013-.014.014-.014.014-.014.014-.014.014-.014.014-.014.014-.014.014-.015.015-.014.014-.014.014-.014.014-.015.015-.014.014-.015.015-.014.014-.015.015-.014.014-.015.015-.015.015-.014.014-.015.015-.015.015-.015.015-.015.015-.014.014-.015.015-.015.015-.016.016-.015.015-.015.015-.015.015-.015.015-.015.015-.016.016-.015.015-.015.015-.016.016-.015.015-.016.016-.015.015-.016.016-.016.016-.015.015-.016.016-.016.016-.016.016-.015.015-.016.016-.016.016-.016.016-.016.016-.016.016-.016.016-.016.016-.016.016-.016.016-.017.017-.016.016-.016.016-.017.017-.016.016-.016.016-.017.017-.016.016-.017.017-.016.016-.017.017-.016.016-.017.017-.017.017-.016.016-.017.017-.017.017-.017.017-.017.017-.016.016-.017.017-.017.017-.017.017-.017.017-.017.017-.017.017-.018.018-.017.017-.017.017-.017.017-.017.017-.018.018-.017.017-.017.017-.018.018-.017.017-.017.017-.018.018-.017.017-.018.018-.017.018-.018.017-.018.018-.017.017-.018.018-.018.018-.017.017-.018.018-.018.018-.018.018-.018.018-.018.017-.017.018-.018.018-.018.018-.018.018-.018.018-.018.018-.018.018-.019.019-.018.018-.018.018-.018.018-.018.018-.019.018-.018.019-.018.018-.018.018-.019.019-.018.018-.018.018-.019.019-.018.018-.019.019-.018.018-.019.019-.018.018-.019.019-.019.018-.018.02-.019.018-.018.018-.02.02-.018.018-.019.019-.018.018-.02.02-.018.018-.019.019-.019.019-.018.018-.02.02-.018.018-.02.02-.018.018-.02.02-.018.018-.02.02-.018.018-.02.02-.018.018-.02.02-.019.019-.019.019-.019.019-.019.019-.02.02-.018.018-.02.02-.019.019-.02.02-.018.019-.02.019-.02.02-.018.019-.02.019-.02.02-.019.019-.019.019-.02.02-.019.019-.02.02-.019.019-.02.02-.019.019-.02.02-.019.019-.02.02-.02.02-.019.019-.02.02-.019.019-.02.02-.02.02-.019.019-.02.02-.02.02-.02.02-.019.019-.02.02-.02.02-.02.02-.019.019-.02.02-.02.02-.02.02-.02.02-.019.019-.02.02-.02.02-.02.02-.02.02-.02.02-.02.02-.02.02-.02.02-.02.02-.02.02-.02.02-.02.02-.02.02-.02.02-.02.02-.02.02-.02.02-.02.02-.02.02-.02.02-.02.02-.02.02-.02.02-.02.02-.02.02-.02.02-.02.02-.02.02-.02.02-.02.02-.02.02-.02.02-.021.021-.02.02-.02.02-.02.02-.02.02-.02.02-.021.021-.02.02-.02.02-.02.02-.021.021-.02.02-.02.02-.02.02-.021.021-.02.02-.02.02-.02.02-.021.021-.02.02-.02.02-.02.02-.021.021-.02.02-.02.02-.021.021-.02.02-.02.02-.02.02-.021.021-.02.02-.02.02-.021.021-.02.02-.02.02-.021.021-.02.02-.02.02-.021.021-.02.02-.02.02-.02.02-.021.021-.02.02-.02.02-.021.021-.02.02-.02.02-.021.021-.02.02-.02.02-.021.021-.02.02-.02.02-.02.02-.021.021-.02.02-.02.02-.021.021-.02.02-.02.02-.02.02L5 16l.707.707 7.071 7.071a1 1 0 001.414-1.414z" clip-rule="evenodd"/></svg>