<svg xmlns="http://www.w3.org/2000/svg" width="32" height="32" viewBox="0 0 32 32"><path fill="currentColor" fill-rule="evenodd" d="M13 24.485a1 1 0 101.414-1.414L8.343 17h18.142a1 1 0 100-2H8.343l.008-.007.022-.022.022-.022.022-.022.022-.022.022-.022.022-.022.022-.022.022-.022.022-.022.021-.022.022-.022.022-.022.022-.022.022-.022.022-.022.022-.022.022-.021.021-.022.022-.022.022-.022.022-.022.022-.021.021-.022.022-.022.022-.022.022-.021.021-.022.022-.022.022-.022.021-.021.022-.022.022-.021.021-.022.022-.022.021-.021.022-.022.022-.021.021-.022.022-.021.021-.022.022-.021.021-.022.021-.021.022-.022.021-.021.022-.021.021-.022.021-.021.022-.021.02-.022.022-.021.021-.021.022-.021.02-.022.022-.02.021-.022.021-.021.022-.021.02-.021.022-.022.02-.02.022-.022.021-.02.021-.022.021-.02.021-.022.02-.02.022-.022.02-.02.022-.021.02-.021.021-.021.021-.02.02-.022.022-.02.02-.021.021-.02.02-.021.021-.021.021-.02.02-.021.021-.021.02-.02.021-.021.02-.02.021-.021.02-.02.021-.02.02-.021.02-.02.021-.021.02-.02.02-.02.021-.02.02-.021.02-.02.02-.02.02-.02.021-.02.02-.02.02-.02.02-.021.02-.02.02-.02.02-.02.02-.02.02-.02.02-.02.02-.02.02-.02.02-.019.019-.02.02-.02.02-.019.019-.02.02-.02.019-.019.02-.02.02-.019.019-.02.019-.019.02-.02.019-.019.02-.019.018-.02.02-.018.019-.02.02-.019.018-.02.02-.018.019-.02.019-.018.019-.02.019-.018.019-.02.019-.018.018-.02.02-.018.018-.019.019-.019.019-.018.018-.02.02-.018.018-.019.018-.018.019-.019.018-.018.019-.019.018-.018.019-.019.018-.018.019-.018.018-.019.018-.018.018-.018.019-.018.018-.018.018-.019.018-.018.018-.018.018-.018.018-.018.018-.018.018-.017.017-.018.018-.018.018-.018.018-.017.017-.018.018-.018.018-.017.017-.018.018-.017.017-.018.017-.017.018-.018.017-.017.017-.017.018-.017.017-.018.017-.017.017-.017.017-.017.017-.017.017-.017.017-.017.017-.017.017-.016.016-.017.017-.017.017-.017.016-.016.017-.017.017-.017.016-.016.017-.017.016-.016.016-.016.017-.017.016-.016.016-.016.016-.016.017-.016.016-.016.016-.017.016-.015.016-.016.016-.016.015-.016.016-.016.016-.016.016-.015.015-.016.016-.016.016-.015.015-.016.015-.015.016-.016.015-.015.016-.015.015-.015.015-.016.015-.015.015-.015.015-.015.015-.015.015-.015.015-.015.015-.015.015-.014.014-.015.015-.015.015-.014.014-.015.015-.014.014-.015.014-.014.015-.015.014-.014.014-.014.015-.014.014-.014.014-.015.014-.014.014-.014.014-.013.013-.014.014-.014.014-.014.014-.014.013-.013.014-.014.013-.013.014-.014.013-.013.014-.013.013-.014.013-.013.013-.013.013-.013.013-.013.013-.013.013-.013.013-.013.013-.013.013-.013.012-.012.013-.013.013-.013.012-.012.013-.012.012-.013.012-.012.013-.012.012-.013.012-.012.012-.012.012-.012.012-.012.012-.012.012-.012.012-.011.011-.012.012-.012.011-.011.012-.012.011-.011.012-.012.011-.011.011-.011.012-.011.01-.012.012-.01.01-.012.012-.01.01-.012.012-.01.01-.011.011-.01.01-.011.011-.011.01-.01.011-.01.01-.011.01-.01.011-.01.01-.01.01-.011.01-.01.01-.01.01-.01.01-.01.01-.01.01-.01.009-.009.01-.01.009-.009.01-.01.009-.008.009-.01.01-.009.008-.009.01-.01.008-.008.01-.009.008-.009.009-.009.008-.008.01-.009.008-.008.008-.009.009-.008.008-.009.008-.008.009-.008.008-.008.008-.008.008-.008.008-.008.007-.008.008-.008.008-.008.007-.007.008-.008.008-.007.007-.008.007-.007.007-.007.008-.007.007-.007.007-.007.007-.007.007-.007.006-.007.007-.007.007-.006.006-.007.007-.007.006-.006.007-.006.006-.007.006-.006.006-.006.006-.006.006-.006.006-.006.006-.005.005-.006.006-.006.006-.005.005-.006.005-.005.006-.006.005-.005.005-.005.005-.005.005-.005.005-.005.005-.005.005-.005.005-.004.004-.005.005-.004.004-.005.004-.004.005-.004.004-.005.004-.004.004-.004.004-.004.004-.004.004-.003.003-.004.004-.004.003-.003.004-.004.003-.003.004-.003.003-.003.003-.004.003-.003.003-.003.003-.002.002-.003.003-.003.003-.002.002-.003.003-.002.002-.003.002-.002.002-.002.002-.002.002-.002.002-.002.002-.002.002-.002.002-.001.001-.002.002-.001.001-.002.001-.001.002-.001v-.001l.002-.001v-.001l.002-.001v-.001l.002-.001V8.93h.001l-.707-.708.707.707A1 1 0 1013 7.515l.707.707L13 7.515l-.001.001-.001.001h-.001v.002h-.002v.001l-.002.001v.001l-.002.002-.001.001-.002.001-.001.002-.002.001-.001.002-.002.002-.002.002-.002.002-.002.002-.002.002-.002.002-.002.002-.003.002-.002.003-.002.002-.003.003-.003.003-.003.002-.003.003-.002.003-.003.003-.003.003-.004.004-.003.003-.003.003-.004.004-.003.003-.004.004-.004.003-.003.004-.004.004-.004.004-.004.004-.004.004-.005.004-.004.005-.004.004-.005.004-.004.005-.005.005-.004.004-.005.005-.005.005-.005.005-.005.005-.005.005-.005.005-.005.005-.006.006-.005.005-.006.005-.005.006-.006.006-.005.005-.006.006-.006.006-.006.006-.006.006-.006.006-.006.006-.007.007-.006.006-.006.006-.007.007-.006.006-.007.007-.007.007-.007.006-.007.007-.007.007-.006.007-.008.007-.007.008-.007.007-.007.007-.008.008-.007.007-.008.008-.007.007-.008.008-.008.008-.008.007-.008.008-.008.008-.008.008-.008.009-.008.008-.008.008-.009.008-.008.009-.008.008-.01.009-.008.008-.008.01-.01.008-.008.009-.009.009-.009.009-.009.009-.01.009-.008.01-.01.008-.009.01-.01.01-.009.009-.01.01-.009.009-.01.01-.01.01-.01.009-.009.01-.01.01-.01.01-.01.01-.01.01-.01.01-.01.01-.011.01-.01.011-.011.01-.01.011-.011.011-.01.01-.012.011-.01.011-.011.011-.011.011-.011.011-.011.011-.011.011-.012.012-.011.01-.011.012-.012.012-.011.011-.012.011-.011.012-.012.012-.012.011-.011.012-.012.012-.012.012-.012.012-.012.012-.012.012-.012.012-.013.012-.012.013-.012.012-.013.012-.012.013-.012.012-.013.013-.013.013-.012.012-.013.013-.013.013-.013.013-.013.013-.013.013-.013.013-.013.013-.013.013-.013.013-.014.013-.013.014-.013.013-.014.014-.013.013-.014.014-.014.013-.013.014-.014.014-.014.013-.014.014-.014.014-.013.014-.014.014-.014.014-.015.014-.014.015-.014.014-.014.014-.015.014-.014.015-.015.014-.014.015-.015.014-.014.015-.015.015-.015.014-.014.015-.015.015-.015.015-.015.015-.015.015-.015.015-.015.015-.015.015-.016.015-.015.016-.015.015-.015.015-.016.016-.015.015-.016.016-.015.015-.016.016-.015.015-.016.016-.016.016-.016.016-.016.015-.016.016-.016.016-.015.016-.017.016-.016.016-.016.016-.016.017-.016.016-.016.016-.017.017-.016.016-.016.016-.017.017-.017.016-.016.017-.017.016-.016.017-.017.017-.017.017-.017.016-.016.017-.017.017-.017.017-.017.017-.017.017-.017.017-.017.017-.018.017-.017.017-.017.018-.017.017-.018.017-.017.018-.017.017-.018.018-.017.017-.018.018-.017.017-.018.018-.018.017-.017.018-.018.018-.018.018-.018.017-.018.018-.017.018-.018.018-.018.018-.018.018-.018.018-.018.018-.019.018-.018.019-.018.018-.018.018-.019.018-.018.019-.018.018-.019.019-.018.018-.019.019-.018.018-.019.019-.018.018-.02.019-.018.019-.018.018-.02.019-.018.019-.019.019-.019.018-.019.02-.019.018-.018.02-.02.018-.019.02-.019.018-.019.02-.019.019-.019.019-.02.019-.018.02-.02.019-.02.019-.018.02-.02.019-.02.019-.019.02-.02.019-.019.02-.02.019-.019.02-.02.02-.019.019-.02.02-.02.02-.02.019-.019.02-.02.02-.02.02-.02.02-.02.019-.02.02-.02.02-.019.02-.02.02-.02.02-.02.02-.02.02-.02.02-.02.02-.02.02-.02.02-.021.02-.02.021-.02.02-.021.02-.02.021-.02.02-.021.02-.02.021-.02.02-.021.021-.02.02-.021.021-.021.02-.02.021-.021.021-.02.02-.021.021-.021.021-.02.02-.022.021-.02.021-.021.02-.02.022-.022.02-.02.021-.021.021-.021.021-.021.021-.021.021-.021.021-.021.021-.021.021-.021.021-.021.021-.021.021-.021.021-.022.021-.02.021-.022.022-.021.02-.021.022-.021.021-.022.021-.021.022-.021.021-.022.021-.02.022-.022.021-.022.021-.021.022-.021.021-.022.022-.021.021-.022.021-.021.022-.022.021-.021.022-.022.021-.021.022-.022.022-.021.021-.022.022-.022.021-.021.022-.022.022-.021.021-.022.022-.022.022-.022.021-.021.022-.022.022-.022.021-.022.022-.021.022-.022.022-.022.022-.022.021-.022.022-.021.022-.022.022-.022.022-.022.022-.022.022-.022.022-.022.022-.022.021-.022.022-.022.022-.022.022-.022.022-.022.022-.022.022-.022.022-.022.022-.022.023-.022.021-.022.023-.022.022-.022.022-.022.022-.022.022-.022.022-.022.022-.023.022-.022.022-.022.023-.022.022-.022.022-.022.022-.022.022-.023.022-.022.023-.022.022-.022.022-.022.022-.023.022-.022.023-.022.022-.022.022-.023.022-.022.023-.022.022-.022.022-.023.023-.022.022-.022.022-.023.022-.022.023-.022.022-.022.022-.023.022-.022.023-.022.022-.023.022-.022.023-.022.022-.023.022-.022.023-.022.022-.023.022-.022.023-.022.022-.023.022-.022.023-.022.022-.023.022-.022.023-.022.022-.023.022-.022.023-.022.022-.023.022-.022.023-.022.022-.023.023-.022.022-.022.022-.023.022-.022.023-.022.022-.023.022-.022.023-.022.022-.023.022-.022.023-.022.022-.023.022-.022.023-.022.022-.023.022-.022.023-.022.022-.707.707.707.707z" clip-rule="evenodd"/></svg>