<svg xmlns="http://www.w3.org/2000/svg" width="16" height="16" viewBox="0 0 16 16"><path fill="currentColor" fill-rule="evenodd" d="M8 15A7 7 0 108 1a7 7 0 000 14M5.725 7.3a.875.875 0 100-1.75.875.875 0 000 1.75m5.425-.875a.875.875 0 11-1.75 0 .875.875 0 011.75 0M4.82 9.534a.5.5 0 01.646.281l.002.005.016.035q.024.053.083.15c.08.13.21.308.4.487.374.35 1.004.722 2.034.722s1.66-.373 2.034-.722a2.4 2.4 0 00.483-.637l.016-.035.002-.005a.5.5 0 01.931.366l-.466-.18.466.18v.001l-.001.002-.001.003-.004.008-.01.023q-.012.03-.034.074-.043.092-.13.238a3.4 3.4 0 01-.57.692c-.543.508-1.412.992-2.716.992s-2.173-.484-2.716-.992a3.4 3.4 0 01-.57-.692 3 3 0 01-.165-.312l-.01-.023-.003-.008-.001-.003v-.002L5 10l-.466.181a.5.5 0 01.285-.647" clip-rule="evenodd"/></svg>