<svg xmlns="http://www.w3.org/2000/svg" width="12" height="12" viewBox="0 0 12 12"><g fill="none"><g clip-path="url(#svgID0)"><path fill="currentColor" fill-rule="evenodd" d="M11 6A5 5 0 111 6a5 5 0 0110 0m1 0A6 6 0 110 6a6 6 0 0112 0m-8.25-.5a.75.75 0 100-1.5.75.75 0 000 1.5M9 4.75a.75.75 0 11-1.5 0 .75.75 0 011.5 0M2.919 7.034a.5.5 0 01.646.281l.001.004.016.033q.021.049.079.143c.076.123.198.292.38.461.354.331.953.687 1.934.687s1.58-.356 1.935-.687a2.3 2.3 0 00.458-.604l.016-.033.001-.004a.5.5 0 01.931.366L8.85 7.5l.466.182-.001.002-.001.003-.003.008-.01.023-.033.071q-.042.09-.127.23c-.114.184-.29.426-.548.668-.525.49-1.363.956-2.618.956s-2.093-.466-2.618-.956a3.3 3.3 0 01-.548-.668 3 3 0 01-.16-.301l-.01-.023-.003-.008-.001-.003v-.002L3.1 7.5l-.466.181a.5.5 0 01.285-.647" clip-rule="evenodd"/></g><defs><clipPath id="svgID0"><path fill="#fff" d="M0 0h12v12H0z"/></clipPath></defs></g></svg>