<svg xmlns="http://www.w3.org/2000/svg" width="32" height="32" viewBox="0 0 32 32"><path fill="currentColor" fill-rule="evenodd" d="M17 7.73a1.998 1.998 0 00-.992-3.735A2 2 0 0015 7.722v3.372a5 5 0 00-2.738 1.586l-2.918-1.684a2 2 0 10-1.001 1.731l2.92 1.685a5 5 0 00-.255 1.579c0 .555.09 1.089.258 1.588l-2.921 1.686a2 2 0 101 1.732l2.924-1.688A5 5 0 0015 20.887v3.382a1.998 1.998 0 001.008 3.726A2 2 0 0017 24.26v-3.37a5 5 0 002.748-1.582l2.924 1.687a2 2 0 103-1.73 2 2 0 00-2-.002l-2.921-1.686a5 5 0 00.257-1.586 5 5 0 00-.255-1.58l2.918-1.685a2 2 0 10-1-1.732l-2.919 1.685A5 5 0 0017 11.09zm-.992 11.259a2.999 2.999 0 10-3-2.998 3 3 0 003 2.998" clip-rule="evenodd"/></svg>