<svg xmlns="http://www.w3.org/2000/svg" width="12" height="12" viewBox="0 0 12 12"><g fill="none"><g clip-path="url(#svgID0)"><path fill="currentColor" fill-rule="evenodd" d="M6.5 1.865a1 1 0 10-1 0v1.686a2.5 2.5 0 00-1.376.798L2.67 3.51a1 1 0 10-.508.862l1.465.845A2.5 2.5 0 003.632 6.8l-1.454.84a1 1 0 10.491.87l1.466-.846c.352.394.827.676 1.365.785v1.686a1 1 0 101 0V8.449a2.5 2.5 0 001.376-.798l1.455.84a1 1 0 10.508-.861l-1.465-.846A2.5 2.5 0 008.368 5.2l1.455-.84a1 1 0 10-.492-.87l-1.466.846A2.5 2.5 0 006.5 3.551zM6 7.5a1.499 1.499 0 100-2.998A1.499 1.499 0 006 7.5" clip-rule="evenodd"/></g><defs><clipPath id="svgID0"><path fill="#fff" d="M0 0h12v12H0z"/></clipPath></defs></g></svg>