<svg xmlns="http://www.w3.org/2000/svg" width="12" height="12" viewBox="0 0 12 12"><path fill="currentColor" fill-rule="evenodd" d="M2.5 1h3.417v4.083H10V10.5a.5.5 0 01-.5.5h-7a.5.5 0 01-.5-.5v-9a.5.5 0 01.5-.5m7.178 2.833a1 1 0 01.197.25H6.917V1.284zM9.5 12h-7A1.5 1.5 0 011 10.5v-9A1.5 1.5 0 012.5 0h3.718a2 2 0 011.357.53l2.782 2.568A2 2 0 0111 4.568V10.5A1.5 1.5 0 019.5 12M3.146 5.416a.5.5 0 01.708 0l1.87 1.87.353.354-.354.353-1.87 1.87a.5.5 0 01-.707-.707L4.663 7.64 3.146 6.124a.5.5 0 010-.708M5.5 9.5A.5.5 0 016 9h2.5a.5.5 0 010 1H6a.5.5 0 01-.5-.5" clip-rule="evenodd"/></svg>