<svg xmlns="http://www.w3.org/2000/svg" width="20" height="20" viewBox="0 0 20 20"><path fill="currentColor" fill-rule="evenodd" d="M5.5 17.5h9a1 1 0 001-1V8.493h-5.493V2.5H5.5a1 1 0 00-1 1v13a1 1 0 001 1m6.007-14.285 3.82 3.778h-3.82zM14.5 19h-9A2.5 2.5 0 013 16.5v-13A2.5 2.5 0 015.5 1h5.078a2 2 0 011.406.578l4.422 4.373A2 2 0 0117 7.373V16.5a2.5 2.5 0 01-2.5 2.5M5.908 9.03a.75.75 0 011.061 0l2.618 2.617.53.53-.53.531-2.618 2.618a.75.75 0 01-1.06-1.061l2.087-2.087-2.088-2.088a.75.75 0 010-1.06m3.863 5.73a.75.75 0 01.75-.75h2.942a.75.75 0 010 1.5H10.52a.75.75 0 01-.75-.75" clip-rule="evenodd"/></svg>