<svg xmlns="http://www.w3.org/2000/svg" width="16" height="16" viewBox="0 0 16 16"><path fill="currentColor" fill-rule="evenodd" d="M12 14a1 1 0 001-1V7H8V2H4a1 1 0 00-1 1v10a1 1 0 001 1zM9 6h3.98a1 1 0 00-.312-.544l-3.566-3.2.668-.744 3.566 3.2A2 2 0 0114 6.2V13a2 2 0 01-2 2H4a2 2 0 01-2-2V3a2 2 0 012-2h4.434a2 2 0 011.336.512l-.668.744A1 1 0 009 2.176zm-4.354.646a.5.5 0 01.708 0L7.597 8.89l.354.354-.354.353-2.243 2.244a.5.5 0 01-.708-.707l1.89-1.89-1.89-1.89a.5.5 0 010-.708M7.5 11.5A.5.5 0 018 11h3a.5.5 0 010 1H8a.5.5 0 01-.5-.5" clip-rule="evenodd"/></svg>