<svg xmlns="http://www.w3.org/2000/svg" width="12" height="12" viewBox="0 0 12 12"><path fill="currentColor" fill-rule="evenodd" d="M1.5 2h9a.5.5 0 01.5.5v7.286a.5.5 0 01-.5.5h-9a.5.5 0 01-.5-.5V2.5a.5.5 0 01.5-.5M0 2.5A1.5 1.5 0 011.5 1h9A1.5 1.5 0 0112 2.5v7.286a1.5 1.5 0 01-1.5 1.5h-9a1.5 1.5 0 01-1.5-1.5zm4.277 2.234a.5.5 0 10-.707-.708L1.938 5.658l-.354.354.354.353L3.57 7.997a.5.5 0 10.707-.707L2.998 6.012zm3.446 0a.5.5 0 11.708-.708l1.631 1.632.354.354-.354.353-1.631 1.632a.5.5 0 11-.708-.707l1.279-1.278zm-.902-.755a.5.5 0 01.288.646l-1.213 3.16a.5.5 0 11-.933-.358l1.212-3.16a.5.5 0 01.646-.288" clip-rule="evenodd"/></svg>