<svg xmlns="http://www.w3.org/2000/svg" width="16" height="16" viewBox="0 0 16 16"><path fill="currentColor" fill-rule="evenodd" d="M3 3h10a1 1 0 011 1v8a1 1 0 01-1 1H3a1 1 0 01-1-1V4a1 1 0 011-1M1 4a2 2 0 012-2h10a2 2 0 012 2v8a2 2 0 01-2 2H3a2 2 0 01-2-2zm7.88 1.612a.5.5 0 01.288.646L7.693 10.1a.5.5 0 11-.933-.358L8.235 5.9a.5.5 0 01.645-.288m-2.95.851a.5.5 0 10-.707-.707L3.32 7.66l-.354.353.354.354 1.903 1.903a.5.5 0 00.707-.707l-1.55-1.55zm4.14 0a.5.5 0 11.707-.707L12.68 7.66l.354.353-.354.354-1.903 1.903a.5.5 0 01-.707-.707l1.55-1.55z" clip-rule="evenodd"/></svg>