<svg xmlns="http://www.w3.org/2000/svg" width="32" height="32" viewBox="0 0 32 32"><path fill="currentColor" fill-rule="evenodd" d="M7 8h18a2 2 0 012 2v12a2 2 0 01-2 2H7a2 2 0 01-2-2V10a2 2 0 012-2m-4 2a4 4 0 014-4h18a4 4 0 014 4v12a4 4 0 01-4 4H7a4 4 0 01-4-4zm9.207 3.172a1 1 0 10-1.414-1.415l-3.536 3.536L6.55 16l.707.707 3.536 3.536a1 1 0 001.414-1.415L9.38 16zm7.586 0a1 1 0 011.414-1.415l3.536 3.536.707.707-.707.707-3.536 3.536a1 1 0 01-1.414-1.415L22.62 16zm-2.09-1.605a1 1 0 01.574 1.292L15.59 19.86a1 1 0 01-1.867-.716l2.687-7.002a1 1 0 011.292-.575" clip-rule="evenodd"/></svg>