<svg xmlns="http://www.w3.org/2000/svg" width="24" height="24" viewBox="0 0 24 24"><path fill="currentColor" fill-rule="evenodd" d="M6 13v3.5H5A1.5 1.5 0 013.5 15V5A1.5 1.5 0 015 3.5h6A1.5 1.5 0 0112.5 5v5H9a3 3 0 00-3 3m-1 5h1v1a3 3 0 003 3h10a3 3 0 003-3v-6a3 3 0 00-3-3h-5V5a3 3 0 00-3-3H5a3 3 0 00-3 3v10a3 3 0 003 3m15.5 1v-6a1.5 1.5 0 00-1.5-1.5H9A1.5 1.5 0 007.5 13v6A1.5 1.5 0 009 20.5h10a1.5 1.5 0 001.5-1.5M18.25 2H15.5v1.5h2.75a2.25 2.25 0 012.25 2.25V8.5H22V5.75A3.75 3.75 0 0018.25 2" clip-rule="evenodd"/></svg>