<svg xmlns="http://www.w3.org/2000/svg" width="20" height="20" viewBox="0 0 20 20"><path fill="currentColor" fill-rule="evenodd" d="M5 10.5v3H3.5a1 1 0 01-1-1v-9a1 1 0 011-1h6a1 1 0 011 1V8h-3A2.5 2.5 0 005 10.5M3.5 15H5v1.5A2.5 2.5 0 007.5 19h9a2.5 2.5 0 002.5-2.5v-6A2.5 2.5 0 0016.5 8H12V3.5A2.5 2.5 0 009.5 1h-6A2.5 2.5 0 001 3.5v9A2.5 2.5 0 003.5 15m14-4.5a1 1 0 00-1-1h-9a1 1 0 00-1 1v6a1 1 0 001 1h9a1 1 0 001-1zM15.579 1H13.5v1.5h2.079c1.017 0 1.921.784 1.921 1.75V6.5H19V4.25C19 2.455 17.468 1 15.579 1" clip-rule="evenodd"/></svg>