<svg xmlns="http://www.w3.org/2000/svg" width="12" height="12" viewBox="0 0 12 12"><g fill="none"><g clip-path="url(#svgID0)"><path fill="currentColor" fill-rule="evenodd" d="M9.5 1H8V0h1.5A2.5 2.5 0 0112 2.5V4h-1V2.5A1.5 1.5 0 009.5 1M5 2.5v-.024 2.042zM9.52 7H7.48zM2 10h-.5A1.5 1.5 0 010 8.5v-7A1.5 1.5 0 011.5 0h4A1.5 1.5 0 017 1.5V5h3.5A1.5 1.5 0 0112 6.5v4a1.5 1.5 0 01-1.5 1.5h-7A1.5 1.5 0 012 10.5zm4-8.5V5H3.5A1.5 1.5 0 002 6.5V9h-.5a.5.5 0 01-.5-.5v-7a.5.5 0 01.5-.5h4a.5.5 0 01.5.5M3.5 6h7a.5.5 0 01.5.5v4a.5.5 0 01-.5.5h-7a.5.5 0 01-.5-.5v-4a.5.5 0 01.5-.5" clip-rule="evenodd"/></g><defs><clipPath id="svgID0"><path fill="#fff" d="M0 0h12v12H0z"/></clipPath></defs></g></svg>