<svg xmlns="http://www.w3.org/2000/svg" width="24" height="24" viewBox="0 0 24 24"><path fill="currentColor" fill-rule="evenodd" d="M9 4h6a.25.25 0 01.25.25v1a.25.25 0 01-.25.25H9a.25.25 0 01-.25-.25v-1A.25.25 0 019 4M7.268 4A1.75 1.75 0 019 2.5h6A1.75 1.75 0 0116.732 4H17a3 3 0 013 3v2.584a6 6 0 00-1.5-1.378V7A1.5 1.5 0 0017 5.5h-.268A1.75 1.75 0 0115 7H9a1.75 1.75 0 01-1.732-1.5H7A1.5 1.5 0 005.5 7v11A1.5 1.5 0 007 19.5h.206A6 6 0 008.584 21H7a3 3 0 01-3-3V7a3 3 0 013-3zm6.482 12.75c.62 0 1.5-.67 1.5-2s-.88-2-1.5-2-1.5.67-1.5 2 .88 2 1.5 2m1.77-4.826a2.7 2.7 0 00-1.77-.674c-1.657 0-3 1.567-3 3.5s1.343 3.5 3 3.5c.66 0 1.271-.25 1.767-.671.277.405.743.671 1.27.671h.888A2.325 2.325 0 0020 15.925v-1.95A5.475 5.475 0 0014.525 8.5h-1.55A5.475 5.475 0 007.5 13.975v1.55A5.475 5.475 0 0012.975 21h6.275a.75.75 0 000-1.5h-6.275A3.975 3.975 0 019 15.525v-1.55A3.975 3.975 0 0112.975 10h1.55a3.975 3.975 0 013.975 3.975v1.95c0 .456-.37.825-.825.825h-.887a.04.04 0 01-.038-.038V12.5a.75.75 0 00-1.23-.576" clip-rule="evenodd"/></svg>