<svg xmlns="http://www.w3.org/2000/svg" width="16" height="16" viewBox="0 0 16 16"><path fill="currentColor" fill-rule="evenodd" d="M8 3H3a1 1 0 00-1 1v4.617L3.743 7.57l.265-.159.26.166L9 10.59V4a1 1 0 00-1-1m1 8.775L3.992 8.588 2 9.783V12a1 1 0 001 1h5a1 1 0 001-1zM3 2a2 2 0 00-2 2v8a2 2 0 002 2h5a2 2 0 002-2V4a2 2 0 00-2-2zm8.5 2.5A.5.5 0 0112 4h2.5a.5.5 0 010 1H12a.5.5 0 01-.5-.5M12 7a.5.5 0 000 1h1.5a.5.5 0 000-1zM6.5 6a.5.5 0 100-1 .5.5 0 000 1m0 1a1.5 1.5 0 100-3 1.5 1.5 0 000 3" clip-rule="evenodd"/></svg>