<svg xmlns="http://www.w3.org/2000/svg" width="20" height="20" viewBox="0 0 20 20"><path fill="currentColor" fill-rule="evenodd" d="M10 3.5H3.5a1 1 0 00-1 1v7.265l2.084-1.389.4-.267.41.252L11 13.811V4.5a1 1 0 00-1-1m-7.5 12v-1.932l2.516-1.677 5.982 3.68A1 1 0 0110 16.5H3.5a1 1 0 01-1-1M3.5 2A2.5 2.5 0 001 4.5v11A2.5 2.5 0 003.5 18H10a2.5 2.5 0 002.5-2.5v-11A2.5 2.5 0 0010 2zm10.75 4.25A.75.75 0 0115 5.5h3.238a.75.75 0 010 1.5H15a.75.75 0 01-.75-.75M15 9a.75.75 0 000 1.5h2A.75.75 0 0017 9zM8.5 7a.5.5 0 11-1 0 .5.5 0 011 0M10 7a2 2 0 11-4 0 2 2 0 014 0" clip-rule="evenodd"/></svg>