<svg xmlns="http://www.w3.org/2000/svg" width="32" height="32" viewBox="0 0 32 32"><path fill="currentColor" fill-rule="evenodd" d="M15 7H7a2 2 0 00-2 2v10.234l3.486-2.092.509-.305.512.301L17 21.546V9a2 2 0 00-2-2m1.845 16.775-7.84-4.612L5 21.566V23a2 2 0 002 2h8a2 2 0 001.845-1.225M7 5a4 4 0 00-4 4v14a4 4 0 004 4h8a4 4 0 004-4V9a4 4 0 00-4-4zm14 4a1 1 0 011-1h6a1 1 0 110 2h-6a1 1 0 01-1-1m1 3a1 1 0 100 2h4a1 1 0 100-2zm-10 1a1 1 0 100-2 1 1 0 000 2m0 2a3 3 0 100-6 3 3 0 000 6" clip-rule="evenodd"/></svg>