<svg xmlns="http://www.w3.org/2000/svg" width="24" height="24" viewBox="0 0 24 24"><path fill="currentColor" fill-rule="evenodd" d="M11.5 4.5H5A1.5 1.5 0 003.5 6v8.44l1.97-1.97.434-.435.512.341L13 16.766V6a1.5 1.5 0 00-1.5-1.5M3.5 18v-1.5l.03.03 2.566-2.565 6.815 4.544a1.5 1.5 0 01-1.411.991H5A1.5 1.5 0 013.5 18M5 3a3 3 0 00-3 3v12a3 3 0 003 3h6.5a3 3 0 003-3V6a3 3 0 00-3-3zm11.25 4.25A.75.75 0 0117 6.5h4.227a.75.75 0 010 1.5H17a.75.75 0 01-.75-.75M17 10a.75.75 0 000 1.5h3a.75.75 0 000-1.5zM9.5 9a.5.5 0 11-1 0 .5.5 0 011 0M11 9a2 2 0 11-4 0 2 2 0 014 0" clip-rule="evenodd"/></svg>