<svg xmlns="http://www.w3.org/2000/svg" width="12" height="12" viewBox="0 0 12 12"><path fill="currentColor" fill-rule="evenodd" d="M5.5 2h-4a.5.5 0 00-.5.5v4.793l.646-.647.267-.266.33.183L6 8.65V2.5a.5.5 0 00-.5-.5m.43 7.755L2.087 7.62 1 8.707V9.5a.5.5 0 00.5.5h4a.5.5 0 00.43-.245M1.5 1A1.5 1.5 0 000 2.5v7A1.5 1.5 0 001.5 11h4A1.5 1.5 0 007 9.5v-7A1.5 1.5 0 005.5 1zm7 2.5A.5.5 0 019 3h2.5a.5.5 0 010 1H9a.5.5 0 01-.5-.5M9 5a.5.5 0 000 1h1.5a.5.5 0 000-1zM3.5 5a.5.5 0 100-1 .5.5 0 000 1m0 1a1.5 1.5 0 100-3 1.5 1.5 0 000 3" clip-rule="evenodd"/></svg>