<svg xmlns="http://www.w3.org/2000/svg" width="16" height="16" viewBox="0 0 16 16"><path fill="currentColor" fill-rule="evenodd" d="M3 3h4a1 1 0 011 1v8a1 1 0 01-1 1H3a1 1 0 01-1-1V4a1 1 0 011-1M1 4a2 2 0 012-2h4a2 2 0 012 2v8a2 2 0 01-2 2H3a2 2 0 01-2-2zm9.997-.5a.5.5 0 01.5-.5h3.011a.5.5 0 010 1h-3.011a.5.5 0 01-.5-.5m0 4a.5.5 0 01.5-.5h3.011a.5.5 0 010 1h-3.011a.5.5 0 01-.5-.5m.5-2.5a.5.5 0 000 1h1.807a.5.5 0 000-1zm-.5 4.5a.5.5 0 01.5-.5h1.807a.5.5 0 010 1h-1.807a.5.5 0 01-.5-.5" clip-rule="evenodd"/></svg>