<svg xmlns="http://www.w3.org/2000/svg" width="24" height="24" viewBox="0 0 24 24"><path fill="currentColor" fill-rule="evenodd" d="M5 4.5h6A1.5 1.5 0 0112.5 6v12a1.5 1.5 0 01-1.5 1.5H5A1.5 1.5 0 013.5 18V6A1.5 1.5 0 015 4.5M2 6a3 3 0 013-3h6a3 3 0 013 3v12a3 3 0 01-3 3H5a3 3 0 01-3-3zm14.81-.25a.75.75 0 01.75-.75h3.708a.75.75 0 010 1.5H17.56a.75.75 0 01-.75-.75m0 6a.75.75 0 01.75-.75h3.708a.75.75 0 010 1.5H17.56a.75.75 0 01-.75-.75M17.56 8a.75.75 0 000 1.5h2.122a.75.75 0 000-1.5zm-.75 6.75a.75.75 0 01.75-.75h2.122a.75.75 0 010 1.5H17.56a.75.75 0 01-.75-.75" clip-rule="evenodd"/></svg>