<svg xmlns="http://www.w3.org/2000/svg" width="12" height="12" viewBox="0 0 12 12"><g fill="none"><g clip-path="url(#svgID0)"><path fill="currentColor" fill-rule="evenodd" d="M1.5 2h4a.5.5 0 01.5.5v7a.5.5 0 01-.5.5h-4a.5.5 0 01-.5-.5v-7a.5.5 0 01.5-.5M0 2.5A1.5 1.5 0 011.5 1h4A1.5 1.5 0 017 2.5v7A1.5 1.5 0 015.5 11h-4A1.5 1.5 0 010 9.5zm9 0a.5.5 0 01.5-.5h2.002a.5.5 0 110 1H9.5a.5.5 0 01-.5-.5m0 4a.5.5 0 01.5-.5h2.002a.5.5 0 110 1H9.5a.5.5 0 01-.5-.5M9.5 4a.5.5 0 000 1h1a.5.5 0 000-1zM9 8.5a.5.5 0 01.5-.5h1a.5.5 0 010 1h-1a.5.5 0 01-.5-.5" clip-rule="evenodd"/></g><defs><clipPath id="svgID0"><path fill="#fff" d="M0 0h12v12H0z"/></clipPath></defs></g></svg>