<svg xmlns="http://www.w3.org/2000/svg" width="20" height="20" viewBox="0 0 20 20"><path fill="currentColor" fill-rule="evenodd" d="M3.5 3.5h6a1 1 0 011 1v11a1 1 0 01-1 1h-6a1 1 0 01-1-1v-11a1 1 0 011-1M1 4.5A2.5 2.5 0 013.5 2h6A2.5 2.5 0 0112 4.5v11A2.5 2.5 0 019.5 18h-6A2.5 2.5 0 011 15.5zm12.96-.75a.75.75 0 01.75-.75h3.613a.75.75 0 010 1.5H14.71a.75.75 0 01-.75-.75m0 6a.75.75 0 01.75-.75h3.613a.75.75 0 010 1.5H14.71a.75.75 0 01-.75-.75M14.71 6a.75.75 0 000 1.5h2.416a.75.75 0 000-1.5zm-.75 6.75a.75.75 0 01.75-.75h2.416a.75.75 0 010 1.5H14.71a.75.75 0 01-.75-.75" clip-rule="evenodd"/></svg>