<svg xmlns="http://www.w3.org/2000/svg" width="20" height="20" viewBox="0 0 20 20"><path fill="currentColor" d="M9.623 1a2 2 0 011.532.714L13.075 4H16.5A2.5 2.5 0 0119 6.5v5a2.5 2.5 0 01-2.5 2.5H16v2.5a2.5 2.5 0 01-2.5 2.5h-10A2.5 2.5 0 011 16.5v-9a2 2 0 012-2h1V3a2 2 0 012-2zM2.5 16.5a1 1 0 001 1h10a1 1 0 001-1V11a1 1 0 00-1-1h-11zm4.123-11a2 2 0 011.532.714l1.92 2.286H13.5A2.5 2.5 0 0116 11v1.5h.5a1 1 0 001-1v-5a1 1 0 00-1-1zM3 7a.5.5 0 00-.5.5v1h5.615l-1.11-1.321A.5.5 0 006.624 7zm3-4.5a.5.5 0 00-.5.5v1h5.615l-1.11-1.321a.5.5 0 00-.382-.179z"/></svg>